<?xml version="1.0" standalone="no"?>
<!DOCTYPE svg PUBLIC "-//W3C//DTD SVG 1.1//EN" "http://www.w3.org/Graphics/SVG/1.1/DTD/svg11.dtd" >
<svg xmlns="http://www.w3.org/2000/svg">
<metadata></metadata>
<defs>
<font id="etelka_light_proregular" horiz-adv-x="1273" >
<font-face units-per-em="2048" ascent="1638" descent="-410" />
<missing-glyph horiz-adv-x="585" />
<glyph unicode="ff" horiz-adv-x="1366" d="M981 1130v-96h369v-123h-369v-911h-133v911h-506v-911h-133v911h-182v123h182v80q0 88 23.5 153.5t60.5 104t93 62t112.5 31.5t126.5 8q168 0 325 -60q75 60 234 60q121 0 233 -33l-35 -117q-86 27 -198 27q-34 0 -58.5 -3t-54 -16t-47.5 -35.5t-30.5 -64.5t-12.5 -101z M342 1114v-80h506v96q0 107 29 179q-121 41 -252 41q-55 0 -94 -5t-77 -19.5t-61 -40t-37 -68.5t-14 -103z" />
<glyph unicode="fi" horiz-adv-x="1134" d="M981 1034v-1034h-133v911h-506v-911h-133v911h-182v123h182v80q0 88 23.5 153.5t60.5 104t93 62t112.5 31.5t126.5 8q188 0 350 -70l-41 -115q-153 62 -309 62q-55 0 -94 -5t-77 -19.5t-61 -40t-37 -68.5t-14 -103v-80h639z" />
<glyph unicode="fl" horiz-adv-x="1144" d="M981 1403v-1137q0 -74 20.5 -120t77.5 -103l-104 -86q-68 67 -97.5 130.5t-29.5 170.5v1061q-108 31 -223 31q-55 0 -94 -5t-77 -19.5t-61 -40t-37 -68.5t-14 -103v-80h369v-123h-369v-911h-133v911h-182v123h182v80q0 88 23.5 153.5t60.5 104t93 62t112.5 31.5t126.5 8 q185 0 356 -70z" />
<glyph unicode="ffi" horiz-adv-x="1773" d="M1620 1034v-1034h-133v911h-506v-911h-133v911h-506v-911h-133v911h-182v123h182v80q0 88 23.5 153.5t60.5 104t93 62t112.5 31.5t126.5 8q194 0 348 -68q100 68 291 68q188 0 350 -70l-41 -115q-153 62 -309 62q-55 0 -94 -5t-77 -19.5t-61 -40t-37 -68.5t-14 -103v-80 h639zM342 1114v-80h506v80q0 110 37 189q-117 47 -260 47q-55 0 -94 -5t-77 -19.5t-61 -40t-37 -68.5t-14 -103z" />
<glyph unicode="ffl" horiz-adv-x="1785" d="M1620 1403v-1137q0 -74 20 -120t78 -103l-104 -86q-68 67 -97.5 130.5t-29.5 170.5v1061q-109 31 -223 31q-55 0 -94 -5t-77 -19.5t-61 -40t-37 -68.5t-14 -103v-80h369v-123h-369v-911h-133v911h-506v-911h-133v911h-182v123h182v80q0 88 23.5 153.5t60.5 104t93 62 t112.5 31.5t126.5 8q186 0 346 -68q100 68 293 68q185 0 356 -70zM848 1114q0 115 39 191q-127 45 -262 45q-55 0 -94 -5t-77 -19.5t-61 -40t-37 -68.5t-14 -103v-80h506v80z" />
<glyph unicode="Th" horiz-adv-x="2119" d="M1274 1427v-448q42 34 125.5 59t175.5 25q109 0 180 -21.5t120 -76.5t70 -147t21 -234v-584h-133v557q0 159 -26 239.5t-81.5 110t-164.5 29.5q-117 0 -202 -39t-85 -106v-791h-133v1305h-484v-1305h-149v1305h-496v122h1262z" />
<glyph unicode="ffk" horiz-adv-x="2310" d="M1620 1403v-1403h-133v1319q-109 31 -223 31q-55 0 -94 -5t-77 -19.5t-61 -40t-37 -68.5t-14 -103v-80h369v-123h-369v-911h-133v911h-506v-911h-133v911h-182v123h182v80q0 88 23.5 153.5t60.5 104t93 62t112.5 31.5t126.5 8q186 0 346 -68q100 68 293 68q185 0 356 -70 zM848 1114q0 115 39 191q-127 45 -262 45q-55 0 -94 -5t-77 -19.5t-61 -40t-37 -68.5t-14 -103v-80h506v80zM2314 0h-172q-415 510 -522 547q115 77 485 487h172q-173 -192 -296.5 -313.5t-176.5 -155.5q103 -54 510 -565z" />
<glyph unicode="fk" horiz-adv-x="1671" d="M981 0h-133v1319q-108 31 -223 31q-55 0 -94 -5t-77 -19.5t-61 -40t-37 -68.5t-14 -103v-80h369v-123h-369v-911h-133v911h-182v123h182v80q0 88 23.5 153.5t60.5 104t93 62t112.5 31.5t126.5 8q185 0 356 -70v-1403zM1675 0h-172q-415 510 -522 547q115 77 485 487h172 q-173 -192 -296.5 -313.5t-176.5 -155.5q103 -54 510 -565z" />
<glyph unicode="fj" horiz-adv-x="1134" d="M981 1034v-1091q0 -89 -17 -153.5t-45.5 -104t-73.5 -62.5t-92 -31t-110 -8v123q55 0 89.5 8.5t62.5 32.5t40.5 71.5t12.5 123.5v968h-506v-911h-133v911h-182v123h182v80q0 88 23.5 153.5t60.5 104t93 62t112.5 31.5t126.5 8q188 0 350 -70l-41 -115q-153 62 -309 62 q-55 0 -94 -5t-77 -19.5t-61 -40t-37 -68.5t-14 -103v-80h639z" />
<glyph unicode=" "  horiz-adv-x="585" />
<glyph unicode="&#x09;" horiz-adv-x="585" />
<glyph unicode="&#xa0;" horiz-adv-x="585" />
<glyph unicode="!" horiz-adv-x="677" d="M242 1427h192l-45 -1021h-102zM338 211q64 0 86 -18t22 -82q0 -69 -22 -90t-86 -21q-61 0 -84 21.5t-23 89.5q0 63 22.5 81.5t84.5 18.5z" />
<glyph unicode="&#x22;" horiz-adv-x="624" d="M92 1427h158l-39 -471h-96zM381 1427h151l-38 -471h-95z" />
<glyph unicode="#" horiz-adv-x="1349" d="M88 932l8 112h289l23 383h131l-23 -383h338l23 383h131l-23 -383h303l-8 -112h-303l-25 -397h310l-9 -111h-307l-26 -424h-132l27 424h-338l-26 -424h-132l27 424h-285l9 111h282l25 397h-289zM508 932l-25 -397h338l25 397h-338z" />
<glyph unicode="$" horiz-adv-x="1277" d="M580 1690h122v-289q225 0 373 -43l-43 -133q-43 23 -140 36t-190 13v-494q218 -26 318 -117.5t100 -263.5q0 -339 -418 -383v-297h-122v291q-243 0 -387 43l45 133q57 -22 158 -35.5t184 -13.5v525q-220 21 -317 100.5t-97 249.5q0 341 414 381v297zM971 397 q0 110 -59 169t-210 81v-502q131 16 200 74.5t69 177.5zM315 1014q0 -107 57 -155.5t208 -65.5v475q-129 -16 -197 -76t-68 -178z" />
<glyph unicode="%" horiz-adv-x="1765" d="M1210 1427h146l-807 -1427h-146zM418 567q-107 0 -174 39.5t-104.5 141.5t-37.5 274q0 104 13.5 180t38.5 126t64.5 80t87.5 42t112 12q81 0 137 -20t97.5 -68.5t61 -135t19.5 -216.5q0 -131 -19.5 -219.5t-61 -140t-97.5 -73.5t-137 -22zM418 1354q-71 0 -110 -25.5 t-60 -99t-21 -211.5q0 -192 44.5 -268t146.5 -76q105 0 147.5 75t42.5 269q0 139 -19.5 211.5t-58.5 98.5t-112 26zM1348 -29q-107 0 -174 39.5t-104.5 141.5t-37.5 274q0 104 13.5 180t38.5 126t64.5 80t87.5 42t112 12q81 0 137 -20t97.5 -68.5t61 -135t19.5 -216.5 q0 -131 -19.5 -219.5t-61 -140t-97.5 -73.5t-137 -22zM1348 758q-71 0 -110 -25.5t-60 -99t-21 -211.5q0 -192 44.5 -268t146.5 -76q105 0 147.5 75t42.5 269q0 139 -19.5 211.5t-58.5 98.5t-112 26z" />
<glyph unicode="&#x26;" horiz-adv-x="1552" d="M1468 821q0 -129 -47 -258t-133 -241q44 -61 205 -322h-166q-37 69 -131 213q-96 -93 -165.5 -140.5t-165 -74.5t-228.5 -27q-130 0 -220.5 19.5t-157 65.5t-98.5 126t-32 197q0 76 20 140.5t62 118t115 86t172 36.5q-54 5 -95.5 18t-69.5 30t-48 44t-31 52t-16.5 62 t-7 66t-1.5 72q0 358 449 358q233 0 341.5 -86.5t108.5 -261.5q0 -56 -6.5 -100t-26.5 -89.5t-52.5 -77t-88 -54t-129.5 -29.5q83 -10 169.5 -81.5t215.5 -254.5q121 183 121 393h137zM637 96q120 0 201 22t142.5 67t143.5 134q-66 97 -119.5 163.5t-111.5 119t-116 78 t-120 25.5q-191 0 -280.5 -71t-89.5 -237t75.5 -233.5t274.5 -67.5zM662 825q157 0 237 64.5t80 204.5q0 130 -69 186.5t-232 56.5t-230 -55.5t-67 -185.5q0 -144 65 -207.5t216 -63.5z" />
<glyph unicode="'" horiz-adv-x="342" d="M92 1427h158l-39 -471h-96z" />
<glyph unicode="(" horiz-adv-x="522" d="M139 510q0 828 410 1038l65 -108q-66 -23 -122 -86t-104 -171t-75.5 -281t-27.5 -392q0 -218 27.5 -391t75.5 -281t104 -171.5t122 -86.5l-65 -108q-410 210 -410 1038z" />
<glyph unicode=")" horiz-adv-x="522" d="M383 510q0 -828 -410 -1038l-65 108q66 23 122.5 86t104.5 171t75.5 281t27.5 392q0 218 -27.5 391t-75.5 281t-104.5 171.5t-122.5 86.5l65 108q410 -210 410 -1038z" />
<glyph unicode="*" horiz-adv-x="860" d="M61 1061v110h273l-135 238l96 53l133 -235l137 235l99 -55l-138 -236h273v-110h-275l138 -238l-97 -53l-135 234l-135 -234l-98 55l135 236h-271z" />
<glyph unicode="+" d="M145 672v123h426v430h127v-430h428v-123h-428v-428h-127v428h-426z" />
<glyph unicode="," horiz-adv-x="524" d="M393 201l-223 -527h-123l160 527h186z" />
<glyph unicode="-" horiz-adv-x="567" d="M68 502v123h432v-123h-432z" />
<glyph unicode="." horiz-adv-x="524" d="M260 211q66 0 87.5 -18t21.5 -82q0 -69 -22 -90t-87 -21q-61 0 -82.5 21.5t-21.5 89.5q0 63 21 81.5t83 18.5z" />
<glyph unicode="/" horiz-adv-x="874" d="M813 1427h156l-731 -1427h-152z" />
<glyph unicode="0" d="M637 -29q-132 0 -223.5 37t-156.5 124.5t-95.5 235t-30.5 365.5q0 172 20.5 297.5t59 208.5t102 132.5t141 70t183.5 20.5q107 0 184.5 -20.5t140.5 -69.5t101.5 -132.5t59 -208.5t20.5 -298q0 -218 -30 -365.5t-94.5 -235t-156.5 -124.5t-225 -37zM635 1343 q-58 0 -100 -6.5t-81 -23t-65.5 -46t-48 -74.5t-34 -110t-19 -151t-6.5 -199q0 -249 36.5 -387t111 -193t206.5 -55q134 0 209.5 55t112 193t36.5 387q0 132 -8 227.5t-27.5 163.5t-45.5 110.5t-69 67t-91 33t-117 8.5z" />
<glyph unicode="1" d="M762 0h-148v1272l-319 -154l-49 111l516 250v-1479z" />
<glyph unicode="2" d="M317 123h777v-123h-967v115q153 122 259.5 208t197.5 165.5t147 131.5t100.5 105.5t66.5 88.5t36 79.5t17 79t3 86.5q0 154 -82.5 212t-277.5 58q-93 0 -200 -15.5t-156 -39.5l-37 133q222 55 395 55q266 0 389 -92t123 -307q0 -90 -17 -158.5t-62.5 -147t-136.5 -168 t-227.5 -201t-347.5 -265.5z" />
<glyph unicode="3" d="M791 768q79 -3 138 -25t95.5 -55.5t58.5 -82t30.5 -99t8.5 -113.5q0 -232 -132 -327t-427 -95q-198 0 -436 60l35 114q161 -49 401 -49q159 0 246.5 31t121.5 94t34 176q0 169 -85 238.5t-292 69.5h-164v120h164q187 0 270.5 64t83.5 207q0 89 -31.5 139.5t-112 76 t-225.5 25.5q-232 0 -393 -53l-37 123q253 55 430 55q282 0 401.5 -85t119.5 -263q0 -55 -7 -99.5t-27 -89t-52.5 -75.5t-87.5 -53t-129 -29z" />
<glyph unicode="4" horiz-adv-x="1259" d="M797 539v796q-131 -162 -283 -397.5t-242 -398.5h525zM942 1427v-888h203v-121h-203v-418h-145v418h-723v31q113 209 292.5 489.5t340.5 488.5h235z" />
<glyph unicode="5" d="M371 1305v-461q105 12 231 12q194 0 307.5 -46t163 -140t49.5 -252q0 -127 -32 -213t-102 -138t-171 -74t-250 -22q-165 0 -407 60l37 114q158 -49 370 -49q120 0 197 16t121.5 54.5t62 93t17.5 139.5q0 96 -15.5 156.5t-57 101.5t-111 57.5t-179.5 16.5q-219 0 -375 -39 v735h807v-122h-663z" />
<glyph unicode="6" d="M1133 1403l-48 -131q-140 57 -319 57q-84 0 -144.5 -7.5t-116.5 -27t-92.5 -55t-65 -92t-43.5 -137t-19 -189.5q172 35 370 35q287 0 405 -101.5t118 -336.5q0 -128 -29.5 -213.5t-94 -137.5t-158 -74t-230.5 -22q-150 0 -248 35t-164.5 122t-94.5 230.5t-28 364.5 q0 174 26.5 301t76 211.5t129 135t175.5 71t226 20.5q182 0 369 -59zM666 96q109 0 178 16t108 55t53.5 92.5t14.5 139.5q0 96 -16 156.5t-57.5 101.5t-111.5 57.5t-180 16.5q-209 0 -370 -37q1 -148 17.5 -253t45.5 -172t77 -105.5t104.5 -53t136.5 -14.5z" />
<glyph unicode="7" d="M1196 1427v-53q-164 -266 -344.5 -658t-294.5 -716h-168q128 351 297.5 715t312.5 590h-813v122h1010z" />
<glyph unicode="8" d="M637 96q198 0 275 68t77 233q0 168 -81.5 238t-270.5 70t-269.5 -70t-80.5 -238q0 -166 75.5 -233.5t274.5 -67.5zM637 825q168 0 242.5 64t74.5 207q0 131 -70 186t-247 55t-247.5 -55t-70.5 -186q0 -143 75.5 -207t242.5 -64zM637 -29q-259 0 -383.5 96t-124.5 326 q0 79 14.5 140t50 115t103.5 85t166 35q-74 7 -128.5 29t-86 53t-50 76t-24.5 88.5t-6 99.5q0 176 111 262t358 86t359 -86.5t112 -261.5q0 -56 -6 -99.5t-24.5 -88.5t-50 -76t-86 -53t-128.5 -29q79 -3 138 -25t95.5 -55.5t59 -82t31 -99.5t8.5 -113q0 -230 -124 -326 t-384 -96z" />
<glyph unicode="9" d="M643 578q-292 0 -407 89.5t-115 321.5q0 253 121.5 363t390.5 110q152 0 246.5 -21t158.5 -77.5t89.5 -151.5t25.5 -247q0 -123 -34.5 -243.5t-86 -214.5t-131 -192.5t-149 -167t-160.5 -147.5h-205q190 158 324 302t209 296q-163 -20 -277 -20zM1001 940q0 79 -7.5 138 t-20 101.5t-36.5 71.5t-50 46.5t-68.5 26.5t-83.5 12t-102 3q-108 0 -178.5 -20.5t-108.5 -65.5t-52.5 -102.5t-14.5 -144.5q0 -95 15 -150.5t58 -91t110 -47.5t181 -12q189 0 328 26q30 99 30 209z" />
<glyph unicode=":" horiz-adv-x="524" d="M260 211q66 0 87.5 -18t21.5 -82q0 -69 -22 -90t-87 -21q-61 0 -82.5 21.5t-21.5 89.5q0 63 21 81.5t83 18.5zM260 1034q66 0 87.5 -18t21.5 -82q0 -70 -22 -90.5t-87 -20.5q-61 0 -82.5 21t-21.5 90q0 63 21 81.5t83 18.5z" />
<glyph unicode=";" horiz-adv-x="524" d="M393 201l-223 -527h-123l160 527h186zM260 1034q66 0 87.5 -18t21.5 -82q0 -70 -22 -90.5t-87 -20.5q-61 0 -82.5 21t-21.5 90q0 63 21 81.5t83 18.5z" />
<glyph unicode="&#x3c;" d="M1057 1274l-656 -541l656 -545l-76 -90l-754 598v70l750 596z" />
<glyph unicode="=" d="M145 453v122h981v-122h-981zM145 874v123h981v-123h-981z" />
<glyph unicode="&#x3e;" d="M229 188l656 541l-656 545l76 90l754 -598v-70l-750 -596z" />
<glyph unicode="?" horiz-adv-x="954" d="M438 211q66 0 87.5 -18t21.5 -82q0 -69 -22 -90t-87 -21q-61 0 -82.5 21.5t-21.5 89.5q0 63 21 81.5t83 18.5zM526 406h-166q185 175 270 333.5t85 333.5q0 64 -13 108.5t-45.5 79t-92 51.5t-148.5 17q-70 0 -150 -13t-131 -36l-41 131q55 21 154.5 36t167.5 15 q234 0 344 -95.5t110 -281.5q0 -184 -78 -340.5t-266 -338.5z" />
<glyph unicode="@" horiz-adv-x="1908" d="M913 885q185 0 310 -25q-2 91 -21.5 149.5t-65 92.5t-110 47.5t-164.5 13.5q-115 0 -195 -9.5t-149 -35.5t-111 -69.5t-72 -114t-42 -166.5t-12 -229q0 -127 13.5 -219t47 -162t82.5 -114.5t127 -72t173 -38.5t228 -11q132 0 229 13t175 44t129 80.5t85.5 125.5t49 175.5 t14.5 233.5q0 304 -49 440h150q45 -136 45 -444q0 -185 -32.5 -320t-95 -227t-164.5 -147.5t-231 -79t-305 -23.5q-146 0 -257.5 14.5t-206.5 48.5t-160 90.5t-110.5 140t-67 196.5t-21.5 260q0 175 29.5 302.5t84.5 212.5t144 136.5t198.5 72.5t256.5 21q80 0 138.5 -5 t115.5 -19.5t95.5 -39.5t72.5 -66t53 -99t30 -137.5t11 -182.5q0 -116 -9.5 -200.5t-32.5 -145t-54.5 -98.5t-81 -60t-105.5 -30t-135 -8q-116 0 -192 15.5t-129.5 55t-77 107t-23.5 170.5q0 64 8.5 113.5t23.5 85.5t41.5 61t56 41t73 24.5t87.5 11.5t105 3zM954 766 q-90 0 -139 -6.5t-85.5 -29.5t-49 -65t-12.5 -114q0 -138 58 -186t218 -48q110 0 168 27t84.5 95.5t26.5 199.5v109q-108 18 -269 18z" />
<glyph unicode="A" horiz-adv-x="1368" d="M1188 0q-125 311 -172 440h-697q-84 -238 -147 -440h-145q269 781 538 1427h252q288 -855 537 -1427h-166zM715 1313h-60q-185 -461 -290 -750h606q-133 367 -256 750z" />
<glyph unicode="B" horiz-adv-x="1411" d="M913 123q201 0 201 283q0 136 -51.5 217.5t-157.5 81.5h-551v-582h559zM893 825q53 0 91 20t58.5 56t29.5 77.5t9 92.5q0 116 -41 175t-147 59h-539v-480h539zM950 768q79 -4 137 -24.5t93 -52.5t56 -79.5t28.5 -96.5t7.5 -112q0 -198 -92 -300.5t-265 -102.5h-708v1427 h686q83 0 144.5 -18.5t98.5 -48.5t59 -75t30 -91t8 -104q0 -57 -5 -97t-21.5 -82.5t-47 -69t-83 -46.5t-126.5 -27z" />
<glyph unicode="C" horiz-adv-x="1232" d="M129 727q0 146 17.5 257.5t54 193t88.5 136t127.5 87.5t163 47t202.5 14q96 0 206.5 -15t193.5 -40l-47 -133q-62 25 -162.5 40t-188.5 15q-97 0 -162.5 -8t-125 -31.5t-95.5 -65t-63 -109t-38 -162t-11 -226.5q0 -131 11 -227t37.5 -166t63.5 -113.5t95.5 -69.5 t125.5 -35.5t162 -9.5q86 0 187 15t164 39l47 -131q-83 -26 -193.5 -42t-206.5 -16q-137 0 -238.5 23t-182 75.5t-130.5 140t-76 215.5t-26 302z" />
<glyph unicode="D" horiz-adv-x="1439" d="M207 1427h440q138 0 240 -21t184.5 -70t134 -130.5t78.5 -202.5t27 -286t-27 -286.5t-78 -204t-133 -133t-185 -72t-241 -21.5h-440v1427zM1153 717q0 125 -11.5 216.5t-38.5 157.5t-64.5 107t-97.5 65t-128.5 33t-165.5 9h-293v-1182h293q143 0 235 26.5t155 94.5 t89.5 182t26.5 291z" />
<glyph unicode="E" horiz-adv-x="1249" d="M207 1427h977v-122h-830v-480h588v-123h-588v-579h830v-123h-977v1427z" />
<glyph unicode="F" horiz-adv-x="1169" d="M207 1427h962v-122h-815v-549h588v-123h-588v-633h-147v1427z" />
<glyph unicode="G" horiz-adv-x="1386" d="M1071 137v510h-373v119h521v-748q-149 -47 -437 -47q-137 0 -238.5 23t-182 75.5t-130.5 140t-76 215.5t-26 302q0 146 17.5 257.5t54 193t88.5 136t127.5 87.5t163 47t202.5 14q96 0 206.5 -15t193.5 -40l-47 -129q-62 24 -163 38.5t-188 14.5q-96 0 -162 -8.5 t-125.5 -32t-95.5 -65t-63 -109t-38 -162.5t-11 -227q0 -131 11 -227.5t37.5 -166.5t63.5 -114.5t95 -70.5t125.5 -36t162.5 -10q154 0 287 35z" />
<glyph unicode="H" horiz-adv-x="1462" d="M354 698v-698h-147v1427h147v-596h758v596h145v-1427h-145v698h-758z" />
<glyph unicode="I" horiz-adv-x="559" d="M207 1427h147v-1427h-147v1427z" />
<glyph unicode="J" horiz-adv-x="901" d="M694 1427v-1034q0 -102 -22 -178.5t-57 -122.5t-87.5 -73.5t-105 -37.5t-117.5 -10q-135 0 -278 62l49 137q43 -23 110 -38t119 -15q37 0 67.5 5.5t63.5 23.5t55.5 47t37 80t14.5 120v1034h151z" />
<glyph unicode="K" horiz-adv-x="1263" d="M354 1427v-1427h-147v1427h147zM1278 0h-199q-237 326 -436.5 525.5t-286.5 228.5q93 54 280 235.5t394 437.5h195q-214 -251 -393 -426.5t-259 -228.5q83 -46 279.5 -251t425.5 -521z" />
<glyph unicode="L" horiz-adv-x="1118" d="M207 1427h147v-1298h738v-129h-885v1427z" />
<glyph unicode="M" horiz-adv-x="1779" d="M895 356q188 491 473 1071h207v-1427h-148v1264q-225 -488 -487 -1108h-109q-258 618 -481 1108v-1264h-143v1427h221q268 -561 467 -1071z" />
<glyph unicode="N" horiz-adv-x="1495" d="M354 1278v-1278h-147v1427h201q357 -530 731 -1208v1208h149v-1427h-176q-338 629 -758 1278z" />
<glyph unicode="O" horiz-adv-x="1554" d="M776 -29q-138 0 -238.5 21.5t-180.5 72.5t-128.5 137t-74 214t-25.5 305q0 174 25.5 300.5t74.5 211.5t129 135.5t180.5 72t237.5 21.5q138 0 238.5 -21.5t181 -72t129.5 -135.5t74.5 -211.5t25.5 -300.5q0 -177 -25.5 -305t-74 -214t-129 -137t-181 -72.5t-239.5 -21.5z M776 1337q-96 0 -162.5 -9.5t-124 -35t-93 -69t-61 -113t-36 -165.5t-10.5 -228q0 -126 10.5 -218.5t35.5 -162.5t61.5 -114.5t93 -72t124.5 -38.5t162 -11q115 0 193 16.5t138.5 56.5t94.5 112t51 176.5t17 255.5q0 132 -10.5 228t-36.5 165.5t-62 113t-94.5 69t-126 35 t-164.5 9.5z" />
<glyph unicode="P" horiz-adv-x="1331" d="M354 655h488q121 0 182 84.5t61 227.5q0 161 -59.5 249.5t-173.5 88.5h-498v-650zM354 0h-147v1427h637q405 0 405 -462q0 -88 -21 -163.5t-65 -139.5t-123.5 -101t-185.5 -37h-500v-524z" />
<glyph unicode="Q" horiz-adv-x="1607" d="M1425 -393h-188q-121 170 -241 263t-203 101q-170 1 -284.5 36t-196.5 120.5t-119 230.5t-37 363q0 174 25.5 300.5t74.5 211.5t129 135.5t180.5 72t237.5 21.5q138 0 238.5 -21.5t181 -72t129.5 -135.5t74.5 -211.5t25.5 -300.5q0 -248 -50.5 -403t-149.5 -232.5 t-261 -101.5q75 -12 186.5 -107.5t247.5 -269.5zM803 1337q-115 0 -190.5 -14.5t-136.5 -52.5t-94 -109t-50 -178t-17 -266q0 -126 10.5 -219t35.5 -162.5t61.5 -114t93.5 -72t125 -38.5t162 -11q95 0 164 11t126.5 38.5t94 72t62 114.5t36 162.5t10.5 218.5 q0 133 -10.5 228.5t-36.5 165t-61.5 113t-94 69t-126 35t-164.5 9.5z" />
<glyph unicode="R" horiz-adv-x="1382" d="M207 1427h637q405 0 405 -413q0 -79 -21 -144t-66.5 -119t-128 -84t-195.5 -30q145 -50 499 -637h-184q-169 297 -305.5 457.5t-216.5 160.5h-277v-618h-147v1427zM844 1305h-490v-557h480q123 0 187 71t64 197q0 140 -62 214.5t-179 74.5z" />
<glyph unicode="S" horiz-adv-x="1277" d="M1055 1274q-47 24 -152 39.5t-198 15.5q-100 0 -173 -13t-129.5 -44t-85 -86.5t-28.5 -136.5q0 -56 17 -96.5t57.5 -72.5t111.5 -51t176 -26q258 -20 376 -118.5t118 -295.5q0 -418 -580 -418q-96 0 -209.5 16t-195.5 42l41 131q64 -24 169 -39t193 -15q100 0 174 13 t132.5 44t89 87t30.5 137q0 56 -17 100.5t-56.5 83t-111.5 62.5t-175 31q-264 19 -381 103.5t-117 276.5q0 112 39.5 193.5t116 130t179 71.5t236.5 23q209 0 394 -55z" />
<glyph unicode="T" horiz-adv-x="1163" d="M657 1305v-1305h-149v1305h-496v122h1139v-122h-494z" />
<glyph unicode="U" horiz-adv-x="1511" d="M1331 1427v-931q0 -129 -25 -221.5t-69.5 -151t-118 -92.5t-158.5 -47t-204 -13q-117 0 -202 13t-159 47t-119 92.5t-70.5 151t-25.5 221.5v931h150v-933q0 -83 11.5 -145t37 -105.5t59.5 -71.5t84.5 -44t105.5 -22t130 -6q90 0 153.5 9.5t118 35t86.5 70t50 113.5 t18 166v933h147z" />
<glyph unicode="V" horiz-adv-x="1308" d="M653 113q258 606 482 1314h147q-259 -781 -539 -1427h-194q-117 369 -261 753.5t-276 673.5h168q277 -663 473 -1314z" />
<glyph unicode="W" horiz-adv-x="1853" d="M1327 152q216 659 367 1275h145q-193 -761 -422 -1427h-190q-89 476 -281 1217q-74 -400 -323 -1217h-187q-253 956 -424 1427h166q196 -591 361 -1275q233 780 331 1275h152q11 -42 59 -226.5t72 -279t62 -251t65.5 -283t46.5 -235.5z" />
<glyph unicode="X" horiz-adv-x="1327" d="M1108 1427h172q-252 -349 -516 -696q370 -498 536 -731h-178q-170 237 -448 612q-198 -259 -475 -612h-172q302 382 561 723q-189 247 -545 704h178q255 -321 455 -583q256 339 432 583z" />
<glyph unicode="Y" horiz-adv-x="1243" d="M696 686v-686h-149v686q-243 357 -557 741h186q243 -299 457 -624q235 296 450 624h170q-296 -423 -557 -741z" />
<glyph unicode="Z" horiz-adv-x="1247" d="M43 0v59q521 650 940 1246h-885v122h1098v-53q-441 -651 -938 -1251h901v-123h-1116z" />
<glyph unicode="[" horiz-adv-x="544" d="M176 1546h410v-119h-269v-1843h269v-116h-410v2078z" />
<glyph unicode="\" horiz-adv-x="874" d="M-98 1427h155l727 -1427h-151z" />
<glyph unicode="]" horiz-adv-x="544" d="M-41 1546h410v-2078h-410v116h268v1843h-268v119z" />
<glyph unicode="^" horiz-adv-x="964" d="M803 606l-326 692l-325 -692h-132l390 821h141l393 -821h-141z" />
<glyph unicode="_" horiz-adv-x="815" d="M68 -262v123h680v-123h-680z" />
<glyph unicode="`" horiz-adv-x="1011" d="M623 1163h-142l-272 264h170z" />
<glyph unicode="a" horiz-adv-x="1110" d="M954 662v-609q-83 -37 -199.5 -59.5t-217.5 -22.5q-228 0 -324 75.5t-96 272.5q0 86 21 148.5t55.5 99.5t89.5 59t111 29t132 7q143 0 295 -33q0 98 -13 155.5t-50 92.5t-92.5 47t-149.5 12q-182 0 -297 -49l-39 125q177 51 344 51q117 0 195 -18.5t132.5 -64.5 t78.5 -123.5t24 -194.5zM821 139v377q-114 27 -278 27q-68 0 -109 -4t-77 -16t-54 -36t-27.5 -61.5t-9.5 -95.5q0 -64 8.5 -104.5t26 -68t52 -41.5t77.5 -19t113 -5q148 0 278 47z" />
<glyph unicode="b" horiz-adv-x="1171" d="M573 1063q125 0 210 -26.5t144.5 -89.5t87 -169t27.5 -264t-27.5 -263.5t-88 -167t-145 -87t-208.5 -25.5q-98 0 -216.5 22.5t-200.5 59.5v1426h133v-500q104 84 284 84zM573 98q96 0 153.5 16t97.5 62t55.5 126.5t15.5 213.5q0 169 -31 259t-98.5 125.5t-192.5 35.5 q-121 0 -202.5 -38.5t-81.5 -106.5v-650q119 -43 284 -43z" />
<glyph unicode="c" horiz-adv-x="954" d="M881 152l43 -123q-57 -26 -142 -42t-153 -16q-125 0 -214.5 27t-155.5 89.5t-98 170t-32 264.5q0 156 32.5 262.5t99 167t155 86t213.5 25.5q66 0 153.5 -15t141.5 -36l-43 -125q-104 49 -252 49q-77 0 -130 -9.5t-98 -36t-71 -73.5t-40 -120.5t-14 -178.5 q0 -125 20.5 -207t66 -129t108.5 -65.5t158 -18.5q131 0 252 54z" />
<glyph unicode="d" horiz-adv-x="1171" d="M598 1063q181 0 285 -84v500h133v-1426q-82 -37 -201 -59.5t-217 -22.5q-124 0 -208.5 25.5t-145 87t-88 167t-27.5 263.5t27.5 264t87 169t144.5 89.5t210 26.5zM598 98q166 0 285 43v650q0 68 -82 106.5t-203 38.5q-125 0 -192.5 -35.5t-98.5 -125.5t-31 -259 q0 -133 15.5 -213.5t55.5 -126.5t97.5 -62t153.5 -16z" />
<glyph unicode="e" horiz-adv-x="1118" d="M594 1063q114 0 190 -25.5t130 -89t78 -171.5t24 -273h-740q1 -101 14.5 -171.5t39.5 -117t69.5 -73t96.5 -36.5t129 -10q58 0 145.5 16t151.5 40l30 -123q-79 -25 -177 -41.5t-163 -16.5q-122 0 -208.5 27t-150 89.5t-94 170t-30.5 264.5q0 151 29 255.5t89 167.5 t144.5 90.5t202.5 27.5zM594 938q-165 0 -234 -66.5t-81 -246.5h585q-6 129 -34.5 196.5t-82 92t-153.5 24.5z" />
<glyph unicode="f" horiz-adv-x="727" d="M342 1130v-96h369v-123h-369v-911h-133v911h-182v123h182v96q0 87 19.5 151t49.5 100t76 57.5t90 28t101 6.5q121 0 233 -33l-35 -117q-86 27 -198 27q-34 0 -58.5 -3t-54 -16t-47.5 -35.5t-30.5 -64.5t-12.5 -101z" />
<glyph unicode="g" horiz-adv-x="1171" d="M1016 981v-905q0 -141 -34 -238t-102.5 -152t-159 -78.5t-216.5 -23.5q-69 0 -173.5 18t-160.5 42l39 127q51 -25 142.5 -42.5t152.5 -17.5q96 0 162.5 15.5t117 53.5t75 106.5t24.5 170.5q-107 -86 -285 -86q-125 0 -210 26.5t-144.5 90t-87 169.5t-27.5 265 q0 157 27.5 262t88 166.5t145 87t208.5 25.5q98 0 217 -22.5t201 -59.5zM598 936q-77 0 -127 -10t-90 -35.5t-61.5 -73.5t-32.5 -120t-11 -179q0 -169 31 -259t98.5 -125.5t192.5 -35.5q121 0 203 39.5t82 108.5v647q-119 43 -285 43z" />
<glyph unicode="h" horiz-adv-x="1134" d="M590 1063q109 0 180 -21.5t120 -76.5t70 -147t21 -234v-584h-133v557q0 120 -13 192.5t-46.5 115t-82.5 57t-131 14.5q-117 0 -201.5 -39t-84.5 -106v-791h-133v1479h133v-500q42 34 125.5 59t175.5 25z" />
<glyph unicode="i" horiz-adv-x="444" d="M289 0v1034h-133v-1034h133zM225 1427q50 0 67 -14.5t17 -64.5q0 -55 -17.5 -71.5t-66.5 -16.5q-51 0 -68.5 16.5t-17.5 71.5q0 51 17 65t69 14z" />
<glyph unicode="j" horiz-adv-x="444" d="M-49 -416v123q55 0 89.5 8.5t62.5 32.5t40.5 71.5t12.5 123.5v1091h133v-1091q0 -89 -17 -153.5t-45.5 -104t-73.5 -62.5t-92 -31t-110 -8zM225 1427q50 0 67 -14.5t17 -64.5q0 -55 -17.5 -71.5t-66.5 -16.5q-51 0 -68.5 16.5t-17.5 71.5q0 51 17 65t69 14z" />
<glyph unicode="k" horiz-adv-x="978" d="M289 1479v-1479h-133v1479h133zM811 0h172q-407 511 -510 565q53 34 176.5 155.5t296.5 313.5h-172q-370 -410 -485 -487q107 -37 522 -547z" />
<glyph unicode="l" horiz-adv-x="454" d="M289 1479v-1213q0 -74 20.5 -120t77.5 -103l-102 -86q-70 67 -99.5 130t-29.5 171v1221h133z" />
<glyph unicode="m" horiz-adv-x="1761" d="M289 901v-901h-133v981q83 37 194.5 59.5t206.5 22.5q193 0 279 -72q193 72 381 72q92 0 155.5 -14t110.5 -45.5t73.5 -88.5t39 -136.5t12.5 -194.5v-584h-133v557q0 120 -13 192.5t-48 115t-85.5 57t-136.5 14.5q-158 0 -287 -45q43 -118 43 -307v-584h-133v557 q0 121 -12.5 193t-47 114.5t-84.5 57t-136 14.5q-139 0 -246 -35z" />
<glyph unicode="n" horiz-adv-x="1134" d="M289 901v-901h-133v981q82 37 200.5 59.5t216.5 22.5q116 0 190.5 -21.5t125 -76.5t71.5 -146.5t21 -234.5v-584h-133v557q0 121 -13 192.5t-49.5 114.5t-90.5 57.5t-146 14.5q-148 0 -260 -35z" />
<glyph unicode="o" horiz-adv-x="1198" d="M598 -29q-125 0 -210 26.5t-144.5 90t-87 169.5t-27.5 265q0 157 27.5 262t88 166.5t145 87t208.5 25.5q100 0 173 -16t131.5 -53t94 -99.5t54 -154.5t18.5 -218q0 -159 -27.5 -265t-87.5 -169.5t-145 -90t-211 -26.5zM598 940q-96 0 -153.5 -16t-97.5 -63t-55.5 -128 t-15.5 -215q0 -170 31 -260.5t98.5 -127t192.5 -36.5q126 0 194 36.5t99 127t31 260.5q0 134 -15.5 215t-56 128t-98 63t-154.5 16z" />
<glyph unicode="p" horiz-adv-x="1171" d="M573 -29q-177 0 -284 86v-450h-133v1374q82 37 200.5 59.5t216.5 22.5q124 0 208.5 -25.5t145 -87t88 -166.5t27.5 -262q0 -159 -27.5 -265t-87 -169.5t-144.5 -90t-210 -26.5zM573 936q-165 0 -284 -43v-647q0 -69 81.5 -108.5t202.5 -39.5q125 0 192.5 35.5t98.5 125.5 t31 259q0 107 -11 179t-32.5 120t-61.5 73.5t-90 35.5t-127 10z" />
<glyph unicode="q" horiz-adv-x="1171" d="M598 -29q-125 0 -210 26.5t-144.5 90t-87 169.5t-27.5 265q0 157 27.5 262t88 166.5t145 87t208.5 25.5q98 0 217 -22.5t201 -59.5v-1374h-133v450q-107 -86 -285 -86zM598 936q-77 0 -127 -10t-90 -35.5t-61.5 -73.5t-32.5 -120t-11 -179q0 -169 31 -259t98.5 -125.5 t192.5 -35.5q121 0 203 39.5t82 108.5v647q-119 43 -285 43z" />
<glyph unicode="r" horiz-adv-x="702" d="M580 1063q56 0 106 -6v-137q-62 8 -106 8q-124 0 -207.5 -35t-83.5 -102v-791h-133v1034h133v-73q33 41 110.5 71.5t180.5 30.5z" />
<glyph unicode="s" horiz-adv-x="1032" d="M827 883q-145 57 -295 57q-72 0 -116.5 -6.5t-80.5 -25.5t-51.5 -56.5t-15.5 -97.5q0 -77 59.5 -114t198.5 -46q202 -14 292.5 -83.5t90.5 -213.5q0 -180 -94 -253t-305 -73q-82 0 -191 15.5t-182 40.5l41 125q53 -25 152.5 -42.5t179.5 -17.5q54 0 91.5 4.5t70 16.5 t52 33.5t30 55.5t10.5 83q0 86 -54.5 127t-199.5 53q-199 14 -293 75t-94 201q0 177 100 249.5t309 72.5q152 0 340 -53z" />
<glyph unicode="t" horiz-adv-x="804" d="M342 911v-563q0 -134 43 -192t150 -58q111 0 196 31l31 -119q-115 -39 -227 -39q-93 0 -151.5 15.5t-99.5 57.5t-58 114.5t-17 187.5v565h-182v123h182v217l133 56v-273h383v-123h-383z" />
<glyph unicode="u" horiz-adv-x="1134" d="M848 135v899h133v-981q-83 -37 -202.5 -59.5t-215.5 -22.5q-154 0 -240 42t-126.5 146t-40.5 292v583h133v-557q0 -121 13 -192.5t49.5 -114.5t90 -57.5t144.5 -14.5q152 0 262 37z" />
<glyph unicode="v" horiz-adv-x="1042" d="M518 127q228 550 328 907h145q-123 -408 -385 -1034h-188q-201 687 -367 1034h150q171 -397 317 -907z" />
<glyph unicode="w" horiz-adv-x="1665" d="M1612 1034q-143 -538 -352 -1034h-189q-45 216 -112.5 477t-116.5 404q-110 -443 -267 -881h-188q-163 604 -336 1034h158q150 -392 278 -907q69 191 153 474t116 433h170q118 -339 245 -907q198 518 291 907h150z" />
<glyph unicode="x" horiz-adv-x="1069" d="M1001 0h-165q-128 205 -281 416q-116 -155 -328 -416h-164q210 243 416 518q-181 245 -416 516h185q206 -258 311 -405q127 172 279 405h161q-182 -269 -362 -510q147 -198 364 -524z" />
<glyph unicode="y" horiz-adv-x="1042" d="M432 -49q-200 708 -381 1083h150q160 -360 319 -915q219 527 326 915h145q-126 -420 -385 -1034q-82 -200 -186 -393h-156q77 142 168 344z" />
<glyph unicode="z" horiz-adv-x="1013" d="M74 0v55q186 225 366 463.5t279 392.5h-613v123h822v-51q-136 -209 -329.5 -471.5t-303.5 -388.5h635v-123h-856z" />
<glyph unicode="{" horiz-adv-x="530" d="M31 457v-2v108q49 0 86.5 19t69 63.5t48.5 127.5t17 202q0 246 83 386.5t222 186.5l66 -108q-55 -15 -94.5 -43t-72 -79.5t-49 -137t-16.5 -205.5q0 -98 -12.5 -178t-31 -129t-44 -84.5t-47.5 -51t-45 -22.5q23 -7 45 -22.5t47.5 -51t44 -84.5t31 -129t12.5 -178 q0 -120 16.5 -205.5t49 -137t72 -79.5t94.5 -43l-66 -108q-139 46 -222 186.5t-83 386.5q0 119 -17 202t-48.5 127.5t-69 63.5t-86.5 19z" />
<glyph unicode="|" horiz-adv-x="636" d="M246 1546h145v-2070h-145v2070z" />
<glyph unicode="}" horiz-adv-x="530" d="M500 455v2q-49 0 -86.5 -19t-69 -63.5t-48.5 -127.5t-17 -202q0 -246 -83.5 -386t-222.5 -187l-65 108q55 15 94.5 43t72 79.5t48.5 137t16 205.5q0 98 12.5 178t31 129t44 84.5t47.5 51t45 22.5q-23 7 -45 22.5t-47.5 51t-44 84.5t-31 129t-12.5 178q0 120 -16 205.5 t-48.5 137t-72 79.5t-94.5 43l65 108q139 -46 222.5 -186.5t83.5 -386.5q0 -119 17 -202t48.5 -127.5t69 -63.5t86.5 -19v-108z" />
<glyph unicode="~" d="M1038 870l97 -71q-37 -99 -106 -153t-161 -54q-53 0 -154.5 45.5t-200 91t-146.5 45.5q-84 0 -140 -133l-86 76q55 94 110.5 137t133.5 43q57 0 158.5 -44t198.5 -88t143 -44q49 0 86.5 34t66.5 115z" />
<glyph unicode="&#xa1;" horiz-adv-x="677" d="M438 -365h-192l45 1022h102zM342 852q-65 0 -87 18.5t-22 81.5q0 68 22.5 89.5t86.5 21.5q61 0 84 -21.5t23 -89.5q0 -63 -22.5 -81.5t-84.5 -18.5z" />
<glyph unicode="&#xa2;" horiz-adv-x="954" d="M530 1550h125v-207q63 -3 140.5 -17.5t128.5 -33.5l-43 -125q-95 43 -226 50v-838q124 6 226 53l43 -123q-52 -24 -126.5 -39t-142.5 -18v-252h-125v256q-100 10 -172.5 43.5t-125 97.5t-78 165t-25.5 241q0 139 26 238.5t78.5 161t124.5 93t172 41.5v213zM276 799 q0 -210 60 -302.5t194 -111.5v825q-91 -10 -144.5 -48.5t-81.5 -126t-28 -236.5z" />
<glyph unicode="&#xa3;" horiz-adv-x="1226" d="M96 655v123h140v228q0 454 520 454q208 0 393 -55l-41 -133q-47 24 -152 39.5t-198 15.5q-191 0 -283 -78t-92 -243v-228h393v-123h-393v-532h737v-123h-884v655h-140z" />
<glyph unicode="&#xa4;" horiz-adv-x="1327" d="M676 172q-189 0 -289 61l-188 -233l-97 96l189 232q-84 127 -84 395q0 256 80 383l-181 240l115 81l168 -223q103 60 287 60q178 0 278 -54l154 217l113 -79l-162 -232q88 -125 88 -393q0 -271 -88 -399l172 -228l-109 -96l-170 225q-103 -53 -276 -53zM676 1137 q-77 0 -127 -10t-90 -35.5t-61.5 -73.5t-32.5 -120t-11 -179q0 -169 31 -259t98.5 -125.5t192.5 -35.5q95 0 154 18t98.5 66.5t55 128t15.5 207.5q0 89 -6.5 153t-23 111.5t-40 76.5t-61.5 46.5t-83 24t-109 6.5z" />
<glyph unicode="&#xa5;" horiz-adv-x="1243" d="M131 641v123h363q-229 325 -504 663h186q243 -299 457 -624q235 296 450 624h170q-273 -388 -493 -663h352v-123h-416v-197h416v-122h-416v-322h-149v322h-416v122h416v197h-416z" />
<glyph unicode="&#xa6;" horiz-adv-x="636" d="M246 1546h145v-751h-145v751zM246 227h145v-751h-145v751z" />
<glyph unicode="&#xa7;" horiz-adv-x="1277" d="M1096 1407l-41 -133q-47 24 -152 39.5t-198 15.5q-98 0 -172.5 -14t-130.5 -45.5t-84.5 -84.5t-28.5 -128q0 -69 31 -113t111.5 -72.5t219.5 -37.5q263 -19 388.5 -105.5t125.5 -263.5q0 -128 -82 -244q84 -78 84 -227q0 -204 -151 -307t-420 -103q-205 0 -393 56l41 133 q48 -24 153 -40t197 -16q98 0 172.5 14.5t130 46t84.5 84.5t29 128q0 69 -31 113t-112 72.5t-220 37.5q-263 19 -388.5 105.5t-125.5 263.5q0 123 80 241q-82 82 -82 230q0 204 151 306.5t420 102.5q209 0 394 -55zM319 756q-30 -72 -30 -172q0 -110 86.5 -165.5 t294.5 -68.5q193 -12 309 -61q31 83 31 174q0 110 -86.5 165t-294.5 68q-197 12 -310 60z" />
<glyph unicode="&#xa8;" horiz-adv-x="835" d="M225 1346q50 0 67 -15t17 -65q0 -55 -17.5 -71.5t-66.5 -16.5q-51 0 -68.5 16.5t-17.5 71.5q0 51 17 65.5t69 14.5zM612 1346q50 0 67 -15t17 -65q0 -55 -17.5 -71.5t-66.5 -16.5q-51 0 -68.5 16.5t-17.5 71.5q0 51 17 65.5t69 14.5z" />
<glyph unicode="&#xa9;" horiz-adv-x="1787" d="M893 -29q-158 0 -272.5 21.5t-205.5 72.5t-146.5 137t-84 214t-28.5 305q0 174 29 300.5t84 211.5t146.5 135.5t206 72t271.5 21.5q158 0 272.5 -21.5t206 -72t147 -135.5t84.5 -211.5t29 -300.5q0 -177 -28.5 -304.5t-84 -214t-147 -137.5t-206 -72.5t-273.5 -21.5z M891 1346q-111 0 -191 -10t-149 -36.5t-113.5 -71.5t-76 -115.5t-45 -167t-13.5 -228.5q0 -125 13.5 -219t45 -164t76 -115.5t112.5 -73.5t149.5 -39.5t191.5 -11.5q134 0 228 17t167 58.5t115.5 113.5t64 178t21.5 256q0 132 -13.5 228.5t-46 167t-77 115.5t-114.5 71.5 t-151 36.5t-194 10zM1157 420l37 -125q-54 -20 -136 -34.5t-145 -14.5q-115 0 -194.5 23t-136.5 78t-84 148t-27 230q0 111 18 192t52 135.5t89 87t123 46.5t160 14q62 0 146 -13t135 -30l-37 -129q-89 41 -244 41q-84 0 -134 -12.5t-85.5 -50t-49 -104.5t-13.5 -179 q0 -142 27.5 -217t86 -104t168.5 -29q134 0 244 47z" />
<glyph unicode="&#xaa;" horiz-adv-x="833" d="M711 1182v-426q-59 -26 -141 -42t-152 -16q-162 0 -228.5 51.5t-66.5 192.5q0 60 15 104t39.5 70t63 41t77.5 20t92 5q100 0 206 -23q0 68 -10.5 109t-37 65t-64.5 32.5t-101 8.5q-128 0 -208 -35l-27 88q138 35 242 35q83 0 136.5 -12t92.5 -43.5t55.5 -86t16.5 -138.5z M616 815v264q-72 19 -194 19q-50 0 -80.5 -4.5t-58.5 -19t-41 -45.5t-13 -79q0 -93 41.5 -130.5t151.5 -37.5q93 0 194 33z" />
<glyph unicode="&#xab;" horiz-adv-x="1218" d="M698 1073l-444 -455l444 -466l-75 -91l-553 551l548 549zM1149 1073l-444 -455l444 -466l-76 -91l-553 551l549 549z" />
<glyph unicode="&#xac;" horiz-adv-x="1013" d="M932 0h-150v705h-714v120h864v-825z" />
<glyph unicode="&#xae;" horiz-adv-x="1159" d="M813 1075q0 -170 -133 -170q59 -26 141 -184h-141q-29 62 -68.5 121t-64.5 59h-62v-180h-116v530h305q70 0 104.5 -49.5t34.5 -126.5zM694 1073q0 78 -59 78h-150v-162h150q59 0 59 84zM1030 985q0 -138 -26.5 -230.5t-84.5 -147.5t-139.5 -78t-201.5 -23 q-159 0 -254.5 42.5t-145 148t-49.5 288.5q0 139 27 231.5t85 146t138.5 75.5t198.5 22q120 0 201 -22t139.5 -75.5t85 -146t26.5 -231.5zM911 985q0 79 -7.5 137t-25 100t-42 68t-64 41.5t-85 21t-109.5 5.5q-75 0 -125 -8.5t-91.5 -31.5t-64.5 -65.5t-35 -107.5t-12 -160 q0 -113 17.5 -184.5t58.5 -114t100.5 -58.5t151.5 -16q127 0 196.5 31t103 111.5t33.5 230.5z" />
<glyph unicode="&#xaf;" horiz-adv-x="1091" d="M279 1200v119h514v-119h-514z" />
<glyph unicode="&#xb0;" horiz-adv-x="835" d="M418 567q-107 0 -174 39.5t-104.5 141.5t-37.5 274q0 104 13.5 180t38.5 126t64.5 80t87.5 42t112 12q81 0 137 -20t97.5 -68.5t61 -135t19.5 -216.5q0 -131 -19.5 -219.5t-61 -140t-97.5 -73.5t-137 -22zM418 1354q-71 0 -110 -25.5t-60 -99t-21 -211.5 q0 -192 44.5 -268t146.5 -76q105 0 147.5 75t42.5 269q0 139 -19.5 211.5t-58.5 98.5t-112 26z" />
<glyph unicode="&#xb1;" d="M145 815v123h426v430h127v-430h428v-123h-428v-428h-127v428h-426zM145 82v123h981v-123h-981z" />
<glyph unicode="&#xb2;" horiz-adv-x="778" d="M221 698h475v-112h-624q11 108 36 182t69.5 123t95 77.5t128.5 55.5q90 30 124 77.5t34 115.5t-50 96t-165 28q-57 0 -121 -9t-92 -23l-22 121q132 32 237 32q188 0 268 -57t80 -188q0 -104 -54 -175.5t-177 -117.5q-61 -23 -96 -40t-70 -43t-52.5 -60.5t-23.5 -82.5z " />
<glyph unicode="&#xb3;" horiz-adv-x="768" d="M477 1042q114 -6 158.5 -61.5t44.5 -159.5q0 -139 -81.5 -195.5t-258.5 -56.5q-137 0 -262 39l20 105q113 -37 244 -37q115 0 159 32.5t44 127.5q0 89 -47.5 117t-184.5 28h-57v111h57q123 0 167 28.5t44 110.5q0 75 -39 100t-147 25q-57 0 -101 -5t-66.5 -11t-61.5 -19 l-23 104q129 37 254 37q169 0 242 -51t73 -158q0 -98 -36 -149.5t-142 -61.5z" />
<glyph unicode="&#xb4;" horiz-adv-x="1011" d="M350 1163h-141l244 264h170z" />
<glyph unicode="&#xb6;" horiz-adv-x="1331" d="M1124 0h-147v524h-199v-524h-147v524h-154q-106 0 -185.5 37t-123.5 101t-65 139.5t-21 163.5q0 462 405 462h637v-1427z" />
<glyph unicode="&#xb7;" horiz-adv-x="540" d="M268 725q70 0 93.5 -20.5t23.5 -88.5q0 -73 -24 -95.5t-93 -22.5q-65 0 -88.5 22.5t-23.5 95.5q0 68 23 88.5t89 20.5z" />
<glyph unicode="&#xb8;" horiz-adv-x="1339" d="M672 0h69v-96q142 0 193 -31.5t51 -122.5q0 -94 -58 -130t-198 -36q-143 0 -217 43l37 86q68 -35 180 -35q67 0 92 13.5t25 56.5q0 31 -21 46t-76 19.5t-151 -1.5z" />
<glyph unicode="&#xb9;" horiz-adv-x="688" d="M451 602h-132v715l-190 -92l-31 114l353 152v-889z" />
<glyph unicode="&#xba;" horiz-adv-x="903" d="M451 698q-117 0 -186.5 34t-105.5 119t-36 232q0 111 19.5 184.5t61.5 116.5t101 60.5t146 17.5q117 0 186.5 -32.5t106 -116t36.5 -230.5q0 -217 -76.5 -301t-252.5 -84zM451 1354q-85 0 -126.5 -20.5t-60 -78t-18.5 -174.5q0 -163 41.5 -218.5t163.5 -55.5t164 56 t42 218q0 71 -6.5 117.5t-19 78t-38 48t-58.5 23t-84 6.5z" />
<glyph unicode="&#xbb;" horiz-adv-x="1218" d="M522 152l445 454l-445 467l76 90l553 -551l-549 -549zM72 152l444 454l-444 467l75 90l553 -551l-548 -549z" />
<glyph unicode="&#xbc;" horiz-adv-x="1595" d="M1049 1427h145l-807 -1427h-145zM451 602h-132v715l-190 -92l-31 114l353 152v-889zM1237 342v418q-178 -217 -295 -418h295zM1364 856v-514h123v-113h-123v-229h-127v229h-465v39q167 280 410 588h182z" />
<glyph unicode="&#xbd;" horiz-adv-x="1595" d="M1032 1427h146l-807 -1427h-146zM434 602h-131v715l-190 -92l-31 114l352 152v-889zM1513 113h-475q5 38 19 68.5t32.5 51.5t51 41t61.5 32.5t78 31.5q123 46 177 117.5t54 175.5q0 131 -80 188.5t-268 57.5q-101 0 -237 -33l22 -121q28 14 92.5 23.5t120.5 9.5 q115 0 165 -28.5t50 -96.5q0 -69 -33.5 -116t-123.5 -77q-78 -27 -128.5 -55.5t-95.5 -77.5t-70 -123t-36 -182h624v113z" />
<glyph unicode="&#xbe;" horiz-adv-x="1595" d="M1167 1427h146l-807 -1427h-146zM1237 342v418q-178 -217 -295 -418h295zM1364 856v-514h123v-113h-123v-229h-127v229h-465v39q167 280 410 588h182zM483 1042q114 -6 158.5 -61.5t44.5 -159.5q0 -139 -81.5 -195.5t-258.5 -56.5q-137 0 -262 39l20 105q113 -37 244 -37 q115 0 159 32.5t44 127.5q0 89 -47.5 117t-184.5 28h-57v111h57q123 0 167 28.5t44 110.5q0 75 -39 100t-147 25q-57 0 -101 -5t-66.5 -11t-61.5 -19l-23 104q130 37 254 37q169 0 242.5 -51t73.5 -158q0 -98 -36.5 -149.5t-142.5 -61.5z" />
<glyph unicode="&#xbf;" horiz-adv-x="954" d="M528 852q-65 0 -86.5 18t-21.5 82q0 69 21.5 90t86.5 21q61 0 83 -21.5t22 -89.5q0 -63 -21.5 -81.5t-83.5 -18.5zM440 657h166q-185 -175 -269.5 -333t-84.5 -334q0 -64 13 -108.5t45.5 -79t92 -51.5t148.5 -17q70 0 149.5 13t130.5 36l41 -131q-55 -21 -154 -36 t-167 -15q-234 0 -344.5 95t-110.5 281q0 184 78 341t266 339z" />
<glyph unicode="&#xc0;" horiz-adv-x="1368" d="M1188 0h166q-249 572 -537 1427h-252q-269 -646 -538 -1427h145q63 202 147 440h697q47 -129 172 -440zM655 1313h60q123 -383 256 -750h-606q105 289 290 750zM838 1530h-162l-328 264h191z" />
<glyph unicode="&#xc1;" horiz-adv-x="1368" d="M1188 0h166q-249 572 -537 1427h-252q-269 -646 -538 -1427h145q63 202 147 440h697q47 -129 172 -440zM655 1313h60q123 -383 256 -750h-606q105 289 290 750zM557 1530l274 264h189l-326 -264h-137z" />
<glyph unicode="&#xc2;" horiz-adv-x="1368" d="M1188 0h166q-249 572 -537 1427h-252q-269 -646 -538 -1427h145q63 202 147 440h697q47 -129 172 -440zM655 1313h60q123 -383 256 -750h-606q105 289 290 750zM680 1714l-166 -184h-156l250 264h148l258 -264h-162z" />
<glyph unicode="&#xc3;" horiz-adv-x="1368" d="M1188 0h166q-249 572 -537 1427h-252q-269 -646 -538 -1427h145q63 202 147 440h697q47 -129 172 -440zM655 1313h60q123 -383 256 -750h-606q105 289 290 750zM961 1776l81 -66q-31 -88 -89.5 -137t-135.5 -49q-35 0 -77 21.5t-74.5 47t-72.5 47t-71 21.5 q-71 0 -119 -121l-71 70q47 84 93.5 123t111.5 39q39 0 81.5 -20.5t74 -45.5t70.5 -45.5t71 -20.5q40 0 71 31t56 105z" />
<glyph unicode="&#xc4;" horiz-adv-x="1368" d="M1188 0h166q-249 572 -537 1427h-252q-269 -646 -538 -1427h145q63 202 147 440h697q47 -129 172 -440zM655 1313h60q123 -383 256 -750h-606q105 289 290 750zM485 1735q50 0 67 -14.5t17 -65.5q0 -55 -17.5 -71.5t-66.5 -16.5q-51 0 -68.5 16.5t-17.5 71.5 q0 51 17 65.5t69 14.5zM872 1735q50 0 67 -14.5t17 -65.5q0 -55 -17.5 -71.5t-66.5 -16.5q-51 0 -68.5 16.5t-17.5 71.5q0 51 17 65.5t69 14.5z" />
<glyph unicode="&#xc5;" horiz-adv-x="1368" d="M1188 0q-125 311 -172 440h-697q-84 -238 -147 -440h-145q269 781 538 1427h252q288 -855 537 -1427h-166zM715 1313h-60q-185 -461 -290 -750h606q-133 367 -256 750zM688 1788q110 0 167.5 -48.5t57.5 -144.5q0 -192 -225 -192q-109 0 -166 48t-57 144q0 99 51.5 146 t171.5 47zM688 1696q-65 0 -91 -25.5t-26 -79.5q0 -51 26.5 -78.5t90.5 -27.5q67 0 94 27.5t27 78.5q0 54 -26.5 79.5t-94.5 25.5z" />
<glyph unicode="&#xc6;" horiz-adv-x="1970" d="M778 1427h1127v-122h-830v-480h506v-120h-506v-582h830v-123h-977v440h-703q-189 -274 -293 -440h-174q513 755 1020 1427zM928 1313h-70q-361 -487 -545 -750h615v750z" />
<glyph unicode="&#xc7;" horiz-adv-x="1232" d="M129 727q0 146 17.5 257.5t54 193t88.5 136t127.5 87.5t163 47t202.5 14q96 0 206.5 -15t193.5 -40l-47 -133q-62 25 -162.5 40t-188.5 15q-97 0 -162.5 -8t-125 -31.5t-95.5 -65t-63 -109t-38 -162t-11 -226.5q0 -131 11 -227t37.5 -166t63.5 -113.5t95.5 -69.5 t125.5 -35.5t162 -9.5q86 0 187 15t164 39l47 -131q-83 -26 -193.5 -42t-206.5 -16q-137 0 -238.5 23t-182 75.5t-130.5 140t-76 215.5t-26 302zM700 0h70v-96q142 0 193 -31.5t51 -122.5q0 -94 -58 -130t-198 -36q-143 0 -217 43l37 86q68 -35 180 -35q67 0 91.5 13.5 t24.5 56.5q0 31 -20.5 46t-75.5 19.5t-151 -1.5z" />
<glyph unicode="&#xc8;" horiz-adv-x="1249" d="M1184 1427h-977v-1427h977v123h-830v579h588v123h-588v480h830v122zM932 1530h-162l-328 264h191z" />
<glyph unicode="&#xc9;" horiz-adv-x="1249" d="M1184 1427h-977v-1427h977v123h-830v579h588v123h-588v480h830v122zM541 1530l274 264h189l-326 -264h-137z" />
<glyph unicode="&#xca;" horiz-adv-x="1249" d="M1184 1427h-977v-1427h977v123h-830v579h588v123h-588v480h830v122zM709 1714l-166 -184h-156l250 264h147l258 -264h-161z" />
<glyph unicode="&#xcb;" horiz-adv-x="1249" d="M1184 1427h-977v-1427h977v123h-830v579h588v123h-588v480h830v122zM524 1735q50 0 67 -14.5t17 -65.5q0 -55 -17.5 -71.5t-66.5 -16.5q-51 0 -68.5 16.5t-17.5 71.5q0 51 17 65.5t69 14.5zM911 1735q50 0 67 -14.5t17 -65.5q0 -55 -17.5 -71.5t-66.5 -16.5 q-51 0 -68.5 16.5t-17.5 71.5q0 51 17 65.5t69 14.5z" />
<glyph unicode="&#xcc;" horiz-adv-x="559" d="M354 1427h-147v-1427h147v1427zM420 1530h-162l-328 264h191z" />
<glyph unicode="&#xcd;" horiz-adv-x="559" d="M354 1427h-147v-1427h147v1427zM147 1530l275 264h188l-325 -264h-138z" />
<glyph unicode="&#xce;" horiz-adv-x="559" d="M354 1427h-147v-1427h147v1427zM276 1714l-165 -184h-156l250 264h147l258 -264h-161z" />
<glyph unicode="&#xcf;" horiz-adv-x="559" d="M354 1427h-147v-1427h147v1427zM92 1735q50 0 67 -14.5t17 -65.5q0 -55 -17.5 -71.5t-66.5 -16.5q-51 0 -68.5 16.5t-17.5 71.5q0 51 17 65.5t69 14.5zM479 1735q50 0 67 -14.5t17 -65.5q0 -55 -17.5 -71.5t-66.5 -16.5q-51 0 -68.5 16.5t-17.5 71.5q0 51 17 65.5 t69 14.5z" />
<glyph unicode="&#xd0;" horiz-adv-x="1439" d="M96 684v113h111v630h440q138 0 240 -21t184.5 -70t134 -130.5t78.5 -202.5t27 -286t-27 -286.5t-78 -204t-133 -133t-185 -72t-241 -21.5h-440v684h-111zM1153 717q0 125 -11.5 216t-39 156.5t-64.5 106t-97.5 64t-128.5 32t-165 8.5h-293v-503h332v-113h-332v-561h293 q143 0 235 26.5t155 94.5t89.5 182t26.5 291z" />
<glyph unicode="&#xd1;" horiz-adv-x="1495" d="M354 1278v-1278h-147v1427h201q357 -530 731 -1208v1208h149v-1427h-176q-338 629 -758 1278zM1047 1776l81 -66q-31 -88 -89.5 -137t-135.5 -49q-35 0 -77 21.5t-74.5 47t-72.5 47t-71 21.5q-71 0 -119 -121l-71 70q47 84 93.5 123t111.5 39q39 0 81.5 -20.5t74 -45.5 t70.5 -45.5t71 -20.5q40 0 71 31t56 105z" />
<glyph unicode="&#xd2;" horiz-adv-x="1554" d="M776 -29q139 0 239.5 21.5t181 72.5t129 137t74 214t25.5 305q0 174 -25.5 300.5t-74.5 211.5t-129.5 135.5t-181 72t-238.5 21.5q-137 0 -237.5 -21.5t-180.5 -72t-129 -135.5t-74.5 -211.5t-25.5 -300.5q0 -177 25.5 -305t74 -214t128.5 -137t180.5 -72.5t238.5 -21.5z M776 1337q97 0 164.5 -9.5t126 -35t94.5 -69t62 -113t36.5 -165.5t10.5 -228q0 -151 -17 -255.5t-51 -176.5t-94.5 -112t-138.5 -56.5t-193 -16.5q-94 0 -162 11t-124.5 38.5t-93 72t-61.5 114.5t-35.5 162.5t-10.5 218.5q0 132 10.5 228t36 165.5t61 113t93 69t124 35 t162.5 9.5zM950 1530h-162l-327 264h190z" />
<glyph unicode="&#xd3;" horiz-adv-x="1554" d="M776 -29q139 0 239.5 21.5t181 72.5t129 137t74 214t25.5 305q0 174 -25.5 300.5t-74.5 211.5t-129.5 135.5t-181 72t-238.5 21.5q-137 0 -237.5 -21.5t-180.5 -72t-129 -135.5t-74.5 -211.5t-25.5 -300.5q0 -177 25.5 -305t74 -214t128.5 -137t180.5 -72.5t238.5 -21.5z M776 1337q97 0 164.5 -9.5t126 -35t94.5 -69t62 -113t36.5 -165.5t10.5 -228q0 -151 -17 -255.5t-51 -176.5t-94.5 -112t-138.5 -56.5t-193 -16.5q-94 0 -162 11t-124.5 38.5t-93 72t-61.5 114.5t-35.5 162.5t-10.5 218.5q0 132 10.5 228t36 165.5t61 113t93 69t124 35 t162.5 9.5zM541 1530l274 264h189l-326 -264h-137z" />
<glyph unicode="&#xd4;" horiz-adv-x="1554" d="M776 -29q139 0 239.5 21.5t181 72.5t129 137t74 214t25.5 305q0 174 -25.5 300.5t-74.5 211.5t-129.5 135.5t-181 72t-238.5 21.5q-137 0 -237.5 -21.5t-180.5 -72t-129 -135.5t-74.5 -211.5t-25.5 -300.5q0 -177 25.5 -305t74 -214t128.5 -137t180.5 -72.5t238.5 -21.5z M776 1337q97 0 164.5 -9.5t126 -35t94.5 -69t62 -113t36.5 -165.5t10.5 -228q0 -151 -17 -255.5t-51 -176.5t-94.5 -112t-138.5 -56.5t-193 -16.5q-94 0 -162 11t-124.5 38.5t-93 72t-61.5 114.5t-35.5 162.5t-10.5 218.5q0 132 10.5 228t36 165.5t61 113t93 69t124 35 t162.5 9.5zM768 1714l-166 -184h-156l250 264h148l258 -264h-162z" />
<glyph unicode="&#xd5;" horiz-adv-x="1554" d="M776 -29q139 0 239.5 21.5t181 72.5t129 137t74 214t25.5 305q0 174 -25.5 300.5t-74.5 211.5t-129.5 135.5t-181 72t-238.5 21.5q-137 0 -237.5 -21.5t-180.5 -72t-129 -135.5t-74.5 -211.5t-25.5 -300.5q0 -177 25.5 -305t74 -214t128.5 -137t180.5 -72.5t238.5 -21.5z M776 1337q97 0 164.5 -9.5t126 -35t94.5 -69t62 -113t36.5 -165.5t10.5 -228q0 -151 -17 -255.5t-51 -176.5t-94.5 -112t-138.5 -56.5t-193 -16.5q-94 0 -162 11t-124.5 38.5t-93 72t-61.5 114.5t-35.5 162.5t-10.5 218.5q0 132 10.5 228t36 165.5t61 113t93 69t124 35 t162.5 9.5zM1042 1776l82 -66q-31 -88 -89.5 -137t-135.5 -49q-35 0 -77 21.5t-74.5 47t-72.5 47t-71 21.5q-71 0 -119 -121l-71 70q47 84 93 123t111 39q39 0 81.5 -20.5t74 -45.5t70.5 -45.5t71 -20.5q40 0 71 31t56 105z" />
<glyph unicode="&#xd6;" horiz-adv-x="1554" d="M776 -29q139 0 239.5 21.5t181 72.5t129 137t74 214t25.5 305q0 174 -25.5 300.5t-74.5 211.5t-129.5 135.5t-181 72t-238.5 21.5q-137 0 -237.5 -21.5t-180.5 -72t-129 -135.5t-74.5 -211.5t-25.5 -300.5q0 -177 25.5 -305t74 -214t128.5 -137t180.5 -72.5t238.5 -21.5z M776 1337q97 0 164.5 -9.5t126 -35t94.5 -69t62 -113t36.5 -165.5t10.5 -228q0 -151 -17 -255.5t-51 -176.5t-94.5 -112t-138.5 -56.5t-193 -16.5q-94 0 -162 11t-124.5 38.5t-93 72t-61.5 114.5t-35.5 162.5t-10.5 218.5q0 132 10.5 228t36 165.5t61 113t93 69t124 35 t162.5 9.5zM586 1735q50 0 67 -14.5t17 -65.5q0 -55 -17.5 -71.5t-66.5 -16.5q-51 0 -68.5 16.5t-17.5 71.5q0 51 17 65.5t69 14.5zM973 1735q50 0 67 -14.5t17 -65.5q0 -55 -17.5 -71.5t-66.5 -16.5q-51 0 -68.5 16.5t-17.5 71.5q0 51 17 65.5t69 14.5z" />
<glyph unicode="&#xd7;" d="M244 1038l88 86l301 -301l303 305l90 -90l-303 -305l303 -301l-88 -88l-303 303l-301 -303l-90 90l301 303z" />
<glyph unicode="&#xd8;" horiz-adv-x="1554" d="M1305 1427h155l-147 -174q112 -169 112 -532q0 -177 -25.5 -305t-74 -214t-129 -137t-181 -72.5t-239.5 -21.5q-311 0 -454 119l-76 -90h-152l150 176q-115 172 -115 545q0 174 25.5 300.5t74.5 211.5t129 135.5t180.5 72t237.5 21.5q311 0 457 -121zM776 1337 q-96 0 -162.5 -9.5t-124 -35t-93 -69t-61 -113t-36 -165.5t-10.5 -228q0 -283 59 -418l797 940q-56 56 -143.5 77t-225.5 21zM776 100q115 0 193 16.5t138.5 56.5t94.5 112t51 176.5t17 255.5q0 287 -58 420l-796 -936q56 -55 143 -78t217 -23z" />
<glyph unicode="&#xd9;" horiz-adv-x="1511" d="M1331 496v931h-147v-933q0 -97 -18 -166t-50 -113.5t-86.5 -70t-118 -35t-153.5 -9.5q-75 0 -130 6t-105.5 22t-84.5 44t-59.5 71.5t-37 105.5t-11.5 145v933h-150v-931q0 -129 25.5 -221.5t70.5 -151t119 -92.5t159 -47t202 -13q119 0 204 13t158.5 47t118 92.5 t69.5 151t25 221.5zM973 1530h-162l-328 264h191z" />
<glyph unicode="&#xda;" horiz-adv-x="1511" d="M1331 496v931h-147v-933q0 -97 -18 -166t-50 -113.5t-86.5 -70t-118 -35t-153.5 -9.5q-75 0 -130 6t-105.5 22t-84.5 44t-59.5 71.5t-37 105.5t-11.5 145v933h-150v-931q0 -129 25.5 -221.5t70.5 -151t119 -92.5t159 -47t202 -13q119 0 204 13t158.5 47t118 92.5 t69.5 151t25 221.5zM575 1530l275 264h188l-325 -264h-138z" />
<glyph unicode="&#xdb;" horiz-adv-x="1511" d="M1331 496v931h-147v-933q0 -97 -18 -166t-50 -113.5t-86.5 -70t-118 -35t-153.5 -9.5q-75 0 -130 6t-105.5 22t-84.5 44t-59.5 71.5t-37 105.5t-11.5 145v933h-150v-931q0 -129 25.5 -221.5t70.5 -151t119 -92.5t159 -47t202 -13q119 0 204 13t158.5 47t118 92.5 t69.5 151t25 221.5zM750 1714l-166 -184h-156l250 264h147l258 -264h-161z" />
<glyph unicode="&#xdc;" horiz-adv-x="1511" d="M1331 496v931h-147v-933q0 -97 -18 -166t-50 -113.5t-86.5 -70t-118 -35t-153.5 -9.5q-75 0 -130 6t-105.5 22t-84.5 44t-59.5 71.5t-37 105.5t-11.5 145v933h-150v-931q0 -129 25.5 -221.5t70.5 -151t119 -92.5t159 -47t202 -13q119 0 204 13t158.5 47t118 92.5 t69.5 151t25 221.5zM559 1735q50 0 67 -14.5t17 -65.5q0 -55 -17.5 -71.5t-66.5 -16.5q-51 0 -68.5 16.5t-17.5 71.5q0 51 17 65.5t69 14.5zM946 1735q50 0 67 -14.5t17 -65.5q0 -55 -17.5 -71.5t-66.5 -16.5q-51 0 -68.5 16.5t-17.5 71.5q0 51 17 65.5t69 14.5z" />
<glyph unicode="&#xdd;" horiz-adv-x="1243" d="M696 686v-686h-149v686q-243 357 -557 741h186q243 -299 457 -624q235 296 450 624h170q-296 -423 -557 -741zM494 1530l274 264h188l-325 -264h-137z" />
<glyph unicode="&#xde;" horiz-adv-x="1331" d="M207 1427h147v-239h490q405 0 405 -463q0 -70 -12.5 -132t-42 -119t-74 -98.5t-112.5 -66t-154 -24.5h-500v-285h-147v1427zM354 416h488q121 0 182 84t61 227q0 160 -59.5 247t-173.5 87h-498v-645z" />
<glyph unicode="&#xdf;" horiz-adv-x="1261" d="M475 -23l12 123q69 -6 93 -6q159 0 246.5 31.5t121 95t33.5 176.5q0 170 -81 239t-286 69h-45v120h45q184 0 259 63t75 208q0 129 -74 185t-245 56q-164 0 -251 -60.5t-87 -176.5v-1100h-135v1100q0 118 63.5 201.5t168.5 122t241 38.5q225 0 348 -89t123 -259 q0 -72 -10.5 -124t-40 -102.5t-90.5 -81t-152 -38.5q79 -3 138 -25t95.5 -55.5t59 -82t31 -99.5t8.5 -113q0 -232 -132 -327t-427 -95q-64 0 -105 6z" />
<glyph unicode="&#xe0;" horiz-adv-x="1110" d="M954 662v-609q-83 -37 -199.5 -59.5t-217.5 -22.5q-228 0 -324 75.5t-96 272.5q0 86 21 148.5t55.5 99.5t89.5 59t111 29t132 7q143 0 295 -33q0 98 -13 155.5t-50 92.5t-92.5 47t-149.5 12q-182 0 -297 -49l-39 125q177 51 344 51q117 0 195 -18.5t132.5 -64.5 t78.5 -123.5t24 -194.5zM821 139v377q-114 27 -278 27q-68 0 -109 -4t-77 -16t-54 -36t-27.5 -61.5t-9.5 -95.5q0 -64 8.5 -104.5t26 -68t52 -41.5t77.5 -19t113 -5q148 0 278 47zM713 1163h-142l-272 264h170z" />
<glyph unicode="&#xe1;" horiz-adv-x="1110" d="M954 53v609q0 117 -24 194.5t-78.5 123.5t-132.5 64.5t-195 18.5q-167 0 -344 -51l39 -125q115 49 297 49q94 0 149.5 -12t92.5 -47t50 -92.5t13 -155.5q-152 33 -295 33q-76 0 -132 -7t-111 -29t-89.5 -59t-55.5 -99.5t-21 -148.5q0 -197 96 -272.5t324 -75.5 q101 0 217.5 22.5t199.5 59.5zM821 139q-130 -47 -278 -47q-70 0 -113 5t-77.5 19t-52 41.5t-26 68t-8.5 104.5q0 72 13 113.5t49 64t83 29t132 6.5q164 0 278 -27v-377zM549 1163h-141l243 264h170z" />
<glyph unicode="&#xe2;" horiz-adv-x="1110" d="M954 53v609q0 117 -24 194.5t-78.5 123.5t-132.5 64.5t-195 18.5q-167 0 -344 -51l39 -125q115 49 297 49q94 0 149.5 -12t92.5 -47t50 -92.5t13 -155.5q-152 33 -295 33q-76 0 -132 -7t-111 -29t-89.5 -59t-55.5 -99.5t-21 -148.5q0 -197 96 -272.5t324 -75.5 q101 0 217.5 22.5t199.5 59.5zM821 139q-130 -47 -278 -47q-70 0 -113 5t-77.5 19t-52 41.5t-26 68t-8.5 104.5q0 72 13 113.5t49 64t83 29t132 6.5q164 0 278 -27v-377zM725 1163l-166 176l-162 -176h-159l249 264h148l258 -264h-168z" />
<glyph unicode="&#xe3;" horiz-adv-x="1110" d="M954 53v609q0 117 -24 194.5t-78.5 123.5t-132.5 64.5t-195 18.5q-167 0 -344 -51l39 -125q115 49 297 49q94 0 149.5 -12t92.5 -47t50 -92.5t13 -155.5q-152 33 -295 33q-76 0 -132 -7t-111 -29t-89.5 -59t-55.5 -99.5t-21 -148.5q0 -197 96 -272.5t324 -75.5 q101 0 217.5 22.5t199.5 59.5zM821 139q-130 -47 -278 -47q-70 0 -113 5t-77.5 19t-52 41.5t-26 68t-8.5 104.5q0 72 13 113.5t49 64t83 29t132 6.5q164 0 278 -27v-377zM815 1411l84 -68q-33 -94 -84 -140t-131 -46q-36 0 -76 21t-69.5 46.5t-67 46.5t-70.5 21 q-72 0 -122 -125l-74 72q48 87 96.5 127.5t114.5 40.5q33 0 64 -14t56 -33.5t49 -39.5t51 -34t54 -14q40 0 69 31t56 108z" />
<glyph unicode="&#xe4;" horiz-adv-x="1110" d="M954 53v609q0 117 -24 194.5t-78.5 123.5t-132.5 64.5t-195 18.5q-167 0 -344 -51l39 -125q115 49 297 49q94 0 149.5 -12t92.5 -47t50 -92.5t13 -155.5q-152 33 -295 33q-76 0 -132 -7t-111 -29t-89.5 -59t-55.5 -99.5t-21 -148.5q0 -197 96 -272.5t324 -75.5 q101 0 217.5 22.5t199.5 59.5zM821 139q-130 -47 -278 -47q-70 0 -113 5t-77.5 19t-52 41.5t-26 68t-8.5 104.5q0 72 13 113.5t49 64t83 29t132 6.5q164 0 278 -27v-377zM352 1346q50 0 67 -15t17 -65q0 -55 -17.5 -71.5t-66.5 -16.5q-51 0 -68.5 16.5t-17.5 71.5 q0 51 17 65.5t69 14.5zM739 1346q50 0 67 -15t17 -65q0 -55 -17.5 -71.5t-66.5 -16.5q-51 0 -68.5 16.5t-17.5 71.5q0 51 17 65.5t69 14.5z" />
<glyph unicode="&#xe5;" horiz-adv-x="1110" d="M954 662v-609q-83 -37 -199.5 -59.5t-217.5 -22.5q-228 0 -324 75.5t-96 272.5q0 86 21 148.5t55.5 99.5t89.5 59t111 29t132 7q143 0 295 -33q0 98 -13 155.5t-50 92.5t-92.5 47t-149.5 12q-182 0 -297 -49l-39 125q177 51 344 51q117 0 195 -18.5t132.5 -64.5 t78.5 -123.5t24 -194.5zM821 139v377q-114 27 -278 27q-68 0 -109 -4t-77 -16t-54 -36t-27.5 -61.5t-9.5 -95.5q0 -64 8.5 -104.5t26 -68t52 -41.5t77.5 -19t113 -5q148 0 278 47zM569 1511q110 0 168 -48t58 -144t-58 -144.5t-168 -48.5q-108 0 -165.5 48.5t-57.5 144.5 q0 99 51.5 145.5t171.5 46.5zM569 1419q-65 0 -90.5 -25t-25.5 -79q0 -51 26 -79t90 -28q66 0 93.5 28t27.5 79q0 54 -26.5 79t-94.5 25z" />
<glyph unicode="&#xe6;" horiz-adv-x="1800" d="M1276 1063q114 0 190 -25.5t130 -89t78 -171.5t24 -273h-740q1 -101 14.5 -171.5t39.5 -117t69.5 -73t96.5 -36.5t129 -10q58 0 145.5 16t151.5 40l30 -123q-79 -25 -177 -41.5t-163 -16.5q-234 0 -342 97q-51 -47 -176 -72t-239 -25q-228 0 -324 75.5t-96 272.5 q0 86 21.5 148.5t56 99.5t89.5 59t111 29t131 7q143 0 295 -33q0 66 -5 111t-19 81t-34.5 57t-56.5 34.5t-80.5 18.5t-109.5 5q-182 0 -297 -49l-39 125q177 51 344 51t255 -39.5t124 -140.5q43 98 131.5 139t241.5 41zM877 162q-37 86 -47.5 163t-10.5 191q-114 27 -276 27 q-57 0 -93 -2.5t-70.5 -10t-53.5 -21.5t-34 -38t-20.5 -58t-5.5 -83q0 -75 9 -116.5t39.5 -71.5t83.5 -40t145 -10q83 0 179 18.5t155 51.5zM1276 938q-82 0 -135 -12.5t-93.5 -47t-60.5 -96t-26 -157.5h585q-6 129 -34.5 196.5t-82 92t-153.5 24.5z" />
<glyph unicode="&#xe7;" horiz-adv-x="954" d="M881 152l43 -123q-57 -26 -142 -42t-153 -16q-125 0 -214.5 27t-155.5 89.5t-98 170t-32 264.5q0 156 32.5 262.5t99 167t155 86t213.5 25.5q66 0 153.5 -15t141.5 -36l-43 -125q-104 49 -252 49q-77 0 -130 -9.5t-98 -36t-71 -73.5t-40 -120.5t-14 -178.5 q0 -125 20.5 -207t66 -129t108.5 -65.5t158 -18.5q131 0 252 54zM524 0h70v-96q142 0 193 -31.5t51 -122.5q0 -94 -58 -130t-198 -36q-143 0 -217 43l36 86q68 -35 181 -35q67 0 91.5 13.5t24.5 56.5q0 31 -20.5 46t-75.5 19.5t-151 -1.5z" />
<glyph unicode="&#xe8;" horiz-adv-x="1118" d="M594 1063q114 0 190 -25.5t130 -89t78 -171.5t24 -273h-740q1 -101 14.5 -171.5t39.5 -117t69.5 -73t96.5 -36.5t129 -10q58 0 145.5 16t151.5 40l30 -123q-79 -25 -177 -41.5t-163 -16.5q-122 0 -208.5 27t-150 89.5t-94 170t-30.5 264.5q0 151 29 255.5t89 167.5 t144.5 90.5t202.5 27.5zM594 938q-165 0 -234 -66.5t-81 -246.5h585q-6 129 -34.5 196.5t-82 92t-153.5 24.5zM772 1163h-141l-273 264h170z" />
<glyph unicode="&#xe9;" horiz-adv-x="1118" d="M594 1063q114 0 190 -25.5t130 -89t78 -171.5t24 -273h-740q1 -101 14.5 -171.5t39.5 -117t69.5 -73t96.5 -36.5t129 -10q58 0 145.5 16t151.5 40l30 -123q-79 -25 -177 -41.5t-163 -16.5q-122 0 -208.5 27t-150 89.5t-94 170t-30.5 264.5q0 151 29 255.5t89 167.5 t144.5 90.5t202.5 27.5zM594 938q-165 0 -234 -66.5t-81 -246.5h585q-6 129 -34.5 196.5t-82 92t-153.5 24.5zM571 1163h-141l244 264h170z" />
<glyph unicode="&#xea;" horiz-adv-x="1118" d="M594 1063q114 0 190 -25.5t130 -89t78 -171.5t24 -273h-740q1 -101 14.5 -171.5t39.5 -117t69.5 -73t96.5 -36.5t129 -10q58 0 145.5 16t151.5 40l30 -123q-79 -25 -177 -41.5t-163 -16.5q-122 0 -208.5 27t-150 89.5t-94 170t-30.5 264.5q0 151 29 255.5t89 167.5 t144.5 90.5t202.5 27.5zM594 938q-165 0 -234 -66.5t-81 -246.5h585q-6 129 -34.5 196.5t-82 92t-153.5 24.5zM760 1163l-166 176l-162 -176h-160l250 264h148l258 -264h-168z" />
<glyph unicode="&#xeb;" horiz-adv-x="1118" d="M594 1063q114 0 190 -25.5t130 -89t78 -171.5t24 -273h-740q1 -101 14.5 -171.5t39.5 -117t69.5 -73t96.5 -36.5t129 -10q58 0 145.5 16t151.5 40l30 -123q-79 -25 -177 -41.5t-163 -16.5q-122 0 -208.5 27t-150 89.5t-94 170t-30.5 264.5q0 151 29 255.5t89 167.5 t144.5 90.5t202.5 27.5zM594 938q-165 0 -234 -66.5t-81 -246.5h585q-6 129 -34.5 196.5t-82 92t-153.5 24.5zM399 1346q50 0 67 -15t17 -65q0 -55 -17.5 -71.5t-66.5 -16.5q-51 0 -68.5 16.5t-17.5 71.5q0 51 17 65.5t69 14.5zM786 1346q50 0 67 -15t17 -65 q0 -55 -17.5 -71.5t-66.5 -16.5q-51 0 -68.5 16.5t-17.5 71.5q0 51 17 65.5t69 14.5z" />
<glyph unicode="&#xec;" horiz-adv-x="444" d="M289 1034v-1034h-133v1034h133zM330 1163h-142l-272 264h170z" />
<glyph unicode="&#xed;" horiz-adv-x="444" d="M289 1034v-1034h-133v1034h133zM246 1163h-142l244 264h170z" />
<glyph unicode="&#xee;" horiz-adv-x="444" d="M289 1034v-1034h-133v1034h133zM383 1163l-166 176l-162 -176h-159l249 264h148l258 -264h-168z" />
<glyph unicode="&#xef;" horiz-adv-x="444" d="M289 1034v-1034h-133v1034h133zM27 1346q50 0 67 -15t17 -65q0 -55 -17.5 -71.5t-66.5 -16.5q-51 0 -68.5 16.5t-17.5 71.5q0 51 17 65.5t69 14.5zM414 1346q50 0 67 -15t17 -65q0 -55 -17.5 -71.5t-66.5 -16.5q-51 0 -68.5 16.5t-17.5 71.5q0 51 17 65.5t69 14.5z" />
<glyph unicode="&#xf0;" d="M551 1004l-68 100l152 100q-94 94 -248 223h205q93 -83 158 -147l153 102l66 -100l-135 -90q319 -353 319 -729q0 -152 -25.5 -247t-89.5 -152t-158.5 -78t-246.5 -21q-269 0 -390.5 110t-121.5 363q0 232 115 322t407 90q105 0 277 -21q-67 137 -201 287zM1001 487 q0 110 -30 209q-144 27 -328 27q-114 0 -181 -12t-110 -47.5t-58 -91t-15 -150.5q0 -69 8.5 -118.5t31.5 -92.5t62.5 -68.5t102 -40t149.5 -14.5q61 0 102 3t83.5 12t68.5 26.5t50 46.5t36.5 71.5t20 101.5t7.5 138z" />
<glyph unicode="&#xf1;" horiz-adv-x="1134" d="M289 901v-901h-133v981q82 37 200.5 59.5t216.5 22.5q116 0 190.5 -21.5t125 -76.5t71.5 -146.5t21 -234.5v-584h-133v557q0 121 -13 192.5t-49.5 114.5t-90.5 57.5t-146 14.5q-148 0 -260 -35zM823 1411l84 -68q-33 -94 -84 -140t-131 -46q-36 0 -76 21t-69 46.5 t-66.5 46.5t-70.5 21q-73 0 -123 -125l-74 72q48 87 96.5 127.5t114.5 40.5q33 0 64 -14t56 -33.5t49 -39.5t51 -34t54 -14q40 0 69 31t56 108z" />
<glyph unicode="&#xf2;" horiz-adv-x="1198" d="M598 -29q-125 0 -210 26.5t-144.5 90t-87 169.5t-27.5 265q0 157 27.5 262t88 166.5t145 87t208.5 25.5q100 0 173 -16t131.5 -53t94 -99.5t54 -154.5t18.5 -218q0 -159 -27.5 -265t-87.5 -169.5t-145 -90t-211 -26.5zM598 940q-96 0 -153.5 -16t-97.5 -63t-55.5 -128 t-15.5 -215q0 -170 31 -260.5t98.5 -127t192.5 -36.5q126 0 194 36.5t99 127t31 260.5q0 134 -15.5 215t-56 128t-98 63t-154.5 16zM788 1163h-141l-272 264h170z" />
<glyph unicode="&#xf3;" horiz-adv-x="1198" d="M598 -29q-125 0 -210 26.5t-144.5 90t-87 169.5t-27.5 265q0 157 27.5 262t88 166.5t145 87t208.5 25.5q100 0 173 -16t131.5 -53t94 -99.5t54 -154.5t18.5 -218q0 -159 -27.5 -265t-87.5 -169.5t-145 -90t-211 -26.5zM598 940q-96 0 -153.5 -16t-97.5 -63t-55.5 -128 t-15.5 -215q0 -170 31 -260.5t98.5 -127t192.5 -36.5q126 0 194 36.5t99 127t31 260.5q0 134 -15.5 215t-56 128t-98 63t-154.5 16zM588 1163h-142l244 264h170z" />
<glyph unicode="&#xf4;" horiz-adv-x="1198" d="M598 -29q-125 0 -210 26.5t-144.5 90t-87 169.5t-27.5 265q0 157 27.5 262t88 166.5t145 87t208.5 25.5q100 0 173 -16t131.5 -53t94 -99.5t54 -154.5t18.5 -218q0 -159 -27.5 -265t-87.5 -169.5t-145 -90t-211 -26.5zM598 940q-96 0 -153.5 -16t-97.5 -63t-55.5 -128 t-15.5 -215q0 -170 31 -260.5t98.5 -127t192.5 -36.5q126 0 194 36.5t99 127t31 260.5q0 134 -15.5 215t-56 128t-98 63t-154.5 16zM756 1163l-166 176l-162 -176h-160l250 264h148l258 -264h-168z" />
<glyph unicode="&#xf5;" horiz-adv-x="1198" d="M598 -29q-125 0 -210 26.5t-144.5 90t-87 169.5t-27.5 265q0 157 27.5 262t88 166.5t145 87t208.5 25.5q100 0 173 -16t131.5 -53t94 -99.5t54 -154.5t18.5 -218q0 -159 -27.5 -265t-87.5 -169.5t-145 -90t-211 -26.5zM598 940q-96 0 -153.5 -16t-97.5 -63t-55.5 -128 t-15.5 -215q0 -170 31 -260.5t98.5 -127t192.5 -36.5q126 0 194 36.5t99 127t31 260.5q0 134 -15.5 215t-56 128t-98 63t-154.5 16zM858 1411l84 -68q-33 -94 -84 -140t-131 -46q-36 0 -76 21t-69.5 46.5t-67 46.5t-70.5 21q-72 0 -122 -125l-74 72q48 87 96.5 127.5 t114.5 40.5q33 0 64 -14t56 -33.5t49 -39.5t51 -34t54 -14q40 0 69 31t56 108z" />
<glyph unicode="&#xf6;" horiz-adv-x="1198" d="M598 -29q-125 0 -210 26.5t-144.5 90t-87 169.5t-27.5 265q0 157 27.5 262t88 166.5t145 87t208.5 25.5q100 0 173 -16t131.5 -53t94 -99.5t54 -154.5t18.5 -218q0 -159 -27.5 -265t-87.5 -169.5t-145 -90t-211 -26.5zM598 940q-96 0 -153.5 -16t-97.5 -63t-55.5 -128 t-15.5 -215q0 -170 31 -260.5t98.5 -127t192.5 -36.5q126 0 194 36.5t99 127t31 260.5q0 134 -15.5 215t-56 128t-98 63t-154.5 16zM403 1346q50 0 67 -15t17 -65q0 -55 -17.5 -71.5t-66.5 -16.5q-51 0 -68.5 16.5t-17.5 71.5q0 51 17 65.5t69 14.5zM791 1346q49 0 66 -14.5 t17 -65.5q0 -55 -17 -71.5t-66 -16.5q-51 0 -68.5 16.5t-17.5 71.5q0 51 17 65.5t69 14.5z" />
<glyph unicode="&#xf7;" d="M145 672v123h981v-123h-981zM641 424q66 0 87.5 -18t21.5 -82q0 -69 -22 -90t-87 -21q-61 0 -82.5 21.5t-21.5 89.5q0 63 21 81.5t83 18.5zM641 1247q66 0 87.5 -18t21.5 -82q0 -70 -22 -90.5t-87 -20.5q-61 0 -82.5 21t-21.5 90q0 63 21 81.5t83 18.5z" />
<glyph unicode="&#xf8;" horiz-adv-x="1198" d="M952 1034h156l-115 -137q76 -125 76 -375q0 -159 -27.5 -265t-87.5 -169.5t-145 -90t-211 -26.5q-207 0 -315 78l-41 -49h-152l115 137q-76 128 -76 385q0 157 27.5 262t88 166.5t145 87t208.5 25.5q208 0 313 -76zM598 936q-77 0 -127 -10t-90 -35.5t-61.5 -73.5 t-32.5 -120t-11 -179q0 -169 29 -260l520 625q-66 53 -227 53zM598 98q95 0 154 18t99 66.5t55.5 128t15.5 207.5q0 172 -29 260l-520 -622q66 -58 225 -58z" />
<glyph unicode="&#xf9;" horiz-adv-x="1134" d="M848 135v899h133v-981q-83 -37 -202.5 -59.5t-215.5 -22.5q-154 0 -240 42t-126.5 146t-40.5 292v583h133v-557q0 -121 13 -192.5t49.5 -114.5t90 -57.5t144.5 -14.5q152 0 262 37zM752 1163h-142l-272 264h170z" />
<glyph unicode="&#xfa;" horiz-adv-x="1134" d="M848 1034v-899q-110 -37 -262 -37q-91 0 -144.5 14.5t-90 57.5t-49.5 114.5t-13 192.5v557h-133v-583q0 -188 40.5 -292t126.5 -146t240 -42q96 0 215.5 22.5t202.5 59.5v981h-133zM567 1163h-141l244 264h170z" />
<glyph unicode="&#xfb;" horiz-adv-x="1134" d="M848 1034v-899q-110 -37 -262 -37q-91 0 -144.5 14.5t-90 57.5t-49.5 114.5t-13 192.5v557h-133v-583q0 -188 40.5 -292t126.5 -146t240 -42q96 0 215.5 22.5t202.5 59.5v981h-133zM752 1163l-166 176l-162 -176h-160l250 264h148l258 -264h-168z" />
<glyph unicode="&#xfc;" horiz-adv-x="1134" d="M848 1034v-899q-110 -37 -262 -37q-91 0 -144.5 14.5t-90 57.5t-49.5 114.5t-13 192.5v557h-133v-583q0 -188 40.5 -292t126.5 -146t240 -42q96 0 215.5 22.5t202.5 59.5v981h-133zM397 1346q50 0 67 -15t17 -65q0 -55 -17.5 -71.5t-66.5 -16.5q-51 0 -68.5 16.5 t-17.5 71.5q0 51 17 65.5t69 14.5zM784 1346q50 0 67 -15t17 -65q0 -55 -17.5 -71.5t-66.5 -16.5q-51 0 -68.5 16.5t-17.5 71.5q0 51 17 65.5t69 14.5z" />
<glyph unicode="&#xfd;" horiz-adv-x="1042" d="M432 -49q-91 -202 -168 -344h156q104 193 186 393q259 614 385 1034h-145q-107 -388 -326 -915q-159 555 -319 915h-150q181 -375 381 -1083zM545 1163h-142l244 264h170z" />
<glyph unicode="&#xfe;" horiz-adv-x="1171" d="M573 -29q-177 0 -284 86v-450h-133v1872h133v-453q151 37 284 37q124 0 208.5 -25.5t145 -87t88 -166.5t27.5 -262q0 -159 -27.5 -265t-87 -169.5t-144.5 -90t-210 -26.5zM573 936q-165 0 -284 -43v-647q0 -69 81.5 -108.5t202.5 -39.5q125 0 192.5 35.5t98.5 125.5 t31 259q0 107 -11 179t-32.5 120t-61.5 73.5t-90 35.5t-127 10z" />
<glyph unicode="&#xff;" horiz-adv-x="1042" d="M432 -49q-91 -202 -168 -344h156q104 193 186 393q259 614 385 1034h-145q-107 -388 -326 -915q-159 555 -319 915h-150q181 -375 381 -1083zM330 1346q50 0 67 -15t17 -65q0 -55 -17.5 -71.5t-66.5 -16.5q-51 0 -68.5 16.5t-17.5 71.5q0 51 17 65.5t69 14.5zM717 1346 q50 0 67 -15t17 -65q0 -55 -17.5 -71.5t-66.5 -16.5q-51 0 -68.5 16.5t-17.5 71.5q0 51 17 65.5t69 14.5z" />
<glyph unicode="&#x100;" horiz-adv-x="1368" d="M1188 0h166q-249 572 -537 1427h-252q-269 -646 -538 -1427h145q63 202 147 440h697q47 -129 172 -440zM655 1313h60q123 -383 256 -750h-606q105 289 290 750zM424 1577v127h514v-127h-514z" />
<glyph unicode="&#x101;" horiz-adv-x="1110" d="M954 53v609q0 117 -24 194.5t-78.5 123.5t-132.5 64.5t-195 18.5q-167 0 -344 -51l39 -125q115 49 297 49q94 0 149.5 -12t92.5 -47t50 -92.5t13 -155.5q-152 33 -295 33q-76 0 -132 -7t-111 -29t-89.5 -59t-55.5 -99.5t-21 -148.5q0 -197 96 -272.5t324 -75.5 q101 0 217.5 22.5t199.5 59.5zM821 139q-130 -47 -278 -47q-70 0 -113 5t-77.5 19t-52 41.5t-26 68t-8.5 104.5q0 72 13 113.5t49 64t83 29t132 6.5q164 0 278 -27v-377zM293 1200v119h514v-119h-514z" />
<glyph unicode="&#x102;" horiz-adv-x="1368" d="M1188 0h166q-249 572 -537 1427h-252q-269 -646 -538 -1427h145q63 202 147 440h697q47 -129 172 -440zM655 1313h60q123 -383 256 -750h-606q105 289 290 750zM410 1784h110q0 -83 38 -112.5t124 -29.5q85 0 124.5 30t39.5 112h106q0 -132 -67 -195t-205 -63 q-135 0 -202.5 63t-67.5 195z" />
<glyph unicode="&#x103;" horiz-adv-x="1110" d="M954 53v609q0 117 -24 194.5t-78.5 123.5t-132.5 64.5t-195 18.5q-167 0 -344 -51l39 -125q115 49 297 49q94 0 149.5 -12t92.5 -47t50 -92.5t13 -155.5q-152 33 -295 33q-76 0 -132 -7t-111 -29t-89.5 -59t-55.5 -99.5t-21 -148.5q0 -197 96 -272.5t324 -75.5 q101 0 217.5 22.5t199.5 59.5zM821 139q-130 -47 -278 -47q-70 0 -113 5t-77.5 19t-52 41.5t-26 68t-8.5 104.5q0 72 13 113.5t49 64t83 29t132 6.5q164 0 278 -27v-377zM276 1427h111q0 -82 37.5 -111.5t124.5 -29.5q85 0 124.5 29.5t39.5 111.5h106q0 -132 -67 -195 t-205 -63q-135 0 -203 63t-68 195z" />
<glyph unicode="&#x104;" horiz-adv-x="1368" d="M1188 0q-125 311 -172 440h-697q-84 -238 -147 -440h-145q269 781 538 1427h252q288 -855 537 -1427h-166zM715 1313h-60q-185 -461 -290 -750h606q-133 367 -256 750zM1272 25h69q-116 -69 -155 -119.5t-39 -118.5q0 -50 29 -71t110 -21q53 0 104.5 17t84.5 44l59 -100 q-45 -35 -116.5 -53.5t-141.5 -18.5q-145 0 -202.5 44t-57.5 139q0 85 65 153.5t191 104.5z" />
<glyph unicode="&#x105;" horiz-adv-x="1110" d="M954 662v-609q-83 -37 -199.5 -59.5t-217.5 -22.5q-228 0 -324 75.5t-96 272.5q0 86 21 148.5t55.5 99.5t89.5 59t111 29t132 7q143 0 295 -33q0 98 -13 155.5t-50 92.5t-92.5 47t-149.5 12q-182 0 -297 -49l-39 125q177 51 344 51q117 0 195 -18.5t132.5 -64.5 t78.5 -123.5t24 -194.5zM821 139v377q-114 27 -278 27q-68 0 -109 -4t-77 -16t-54 -36t-27.5 -61.5t-9.5 -95.5q0 -64 8.5 -104.5t26 -68t52 -41.5t77.5 -19t113 -5q148 0 278 47zM811 25h70q-117 -69 -156 -119.5t-39 -118.5q0 -50 29 -71t110 -21q53 0 104.5 17t84.5 44 l59 -100q-45 -35 -116.5 -53.5t-141.5 -18.5q-145 0 -202.5 44t-57.5 139q0 85 65 153.5t191 104.5z" />
<glyph unicode="&#x106;" horiz-adv-x="1232" d="M129 727q0 146 17.5 257.5t54 193t88.5 136t127.5 87.5t163 47t202.5 14q96 0 206.5 -15t193.5 -40l-47 -133q-62 25 -162.5 40t-188.5 15q-97 0 -162.5 -8t-125 -31.5t-95.5 -65t-63 -109t-38 -162t-11 -226.5q0 -131 11 -227t37.5 -166t63.5 -113.5t95.5 -69.5 t125.5 -35.5t162 -9.5q86 0 187 15t164 39l47 -131q-83 -26 -193.5 -42t-206.5 -16q-137 0 -238.5 23t-182 75.5t-130.5 140t-76 215.5t-26 302zM532 1530l275 264h188l-325 -264h-138z" />
<glyph unicode="&#x107;" horiz-adv-x="954" d="M881 152l43 -123q-57 -26 -142 -42t-153 -16q-125 0 -214.5 27t-155.5 89.5t-98 170t-32 264.5q0 156 32.5 262.5t99 167t155 86t213.5 25.5q66 0 153.5 -15t141.5 -36l-43 -125q-104 49 -252 49q-77 0 -130 -9.5t-98 -36t-71 -73.5t-40 -120.5t-14 -178.5 q0 -125 20.5 -207t66 -129t108.5 -65.5t158 -18.5q131 0 252 54zM571 1163h-141l244 264h170z" />
<glyph unicode="&#x108;" horiz-adv-x="1232" d="M129 727q0 146 17.5 257.5t54 193t88.5 136t127.5 87.5t163 47t202.5 14q96 0 206.5 -15t193.5 -40l-47 -133q-62 25 -162.5 40t-188.5 15q-97 0 -162.5 -8t-125 -31.5t-95.5 -65t-63 -109t-38 -162t-11 -226.5q0 -131 11 -227t37.5 -166t63.5 -113.5t95.5 -69.5 t125.5 -35.5t162 -9.5q86 0 187 15t164 39l47 -131q-83 -26 -193.5 -42t-206.5 -16q-137 0 -238.5 23t-182 75.5t-130.5 140t-76 215.5t-26 302zM764 1714l-166 -184h-156l250 264h148l258 -264h-162z" />
<glyph unicode="&#x109;" horiz-adv-x="954" d="M881 152l43 -123q-57 -26 -142 -42t-153 -16q-125 0 -214.5 27t-155.5 89.5t-98 170t-32 264.5q0 156 32.5 262.5t99 167t155 86t213.5 25.5q66 0 153.5 -15t141.5 -36l-43 -125q-104 49 -252 49q-77 0 -130 -9.5t-98 -36t-71 -73.5t-40 -120.5t-14 -178.5 q0 -125 20.5 -207t66 -129t108.5 -65.5t158 -18.5q131 0 252 54zM754 1163l-166 176l-162 -176h-160l250 264h148l258 -264h-168z" />
<glyph unicode="&#x10a;" horiz-adv-x="1232" d="M129 727q0 146 17.5 257.5t54 193t88.5 136t127.5 87.5t163 47t202.5 14q96 0 206.5 -15t193.5 -40l-47 -133q-62 25 -162.5 40t-188.5 15q-97 0 -162.5 -8t-125 -31.5t-95.5 -65t-63 -109t-38 -162t-11 -226.5q0 -131 11 -227t37.5 -166t63.5 -113.5t95.5 -69.5 t125.5 -35.5t162 -9.5q86 0 187 15t164 39l47 -131q-83 -26 -193.5 -42t-206.5 -16q-137 0 -238.5 23t-182 75.5t-130.5 140t-76 215.5t-26 302zM750 1735q50 0 67 -14.5t17 -65.5q0 -55 -17.5 -71.5t-66.5 -16.5q-51 0 -68.5 16.5t-17.5 71.5q0 51 17 65.5t69 14.5z" />
<glyph unicode="&#x10b;" horiz-adv-x="954" d="M881 152l43 -123q-57 -26 -142 -42t-153 -16q-125 0 -214.5 27t-155.5 89.5t-98 170t-32 264.5q0 156 32.5 262.5t99 167t155 86t213.5 25.5q66 0 153.5 -15t141.5 -36l-43 -125q-104 49 -252 49q-77 0 -130 -9.5t-98 -36t-71 -73.5t-40 -120.5t-14 -178.5 q0 -125 20.5 -207t66 -129t108.5 -65.5t158 -18.5q131 0 252 54zM616 1346q50 0 67 -15t17 -65q0 -55 -17.5 -71.5t-66.5 -16.5q-51 0 -68.5 16.5t-17.5 71.5q0 51 17 65.5t69 14.5z" />
<glyph unicode="&#x10c;" horiz-adv-x="1232" d="M129 727q0 146 17.5 257.5t54 193t88.5 136t127.5 87.5t163 47t202.5 14q96 0 206.5 -15t193.5 -40l-47 -133q-62 25 -162.5 40t-188.5 15q-97 0 -162.5 -8t-125 -31.5t-95.5 -65t-63 -109t-38 -162t-11 -226.5q0 -131 11 -227t37.5 -166t63.5 -113.5t95.5 -69.5 t125.5 -35.5t162 -9.5q86 0 187 15t164 39l47 -131q-83 -26 -193.5 -42t-206.5 -16q-137 0 -238.5 23t-182 75.5t-130.5 140t-76 215.5t-26 302zM743 1610l166 184h156l-250 -264h-147l-258 264h161z" />
<glyph unicode="&#x10d;" horiz-adv-x="954" d="M881 152l43 -123q-57 -26 -142 -42t-153 -16q-125 0 -214.5 27t-155.5 89.5t-98 170t-32 264.5q0 156 32.5 262.5t99 167t155 86t213.5 25.5q66 0 153.5 -15t141.5 -36l-43 -125q-104 49 -252 49q-77 0 -130 -9.5t-98 -36t-71 -73.5t-40 -120.5t-14 -178.5 q0 -125 20.5 -207t66 -129t108.5 -65.5t158 -18.5q131 0 252 54zM442 1427l166 -176l162 176h160l-250 -264h-148l-258 264h168z" />
<glyph unicode="&#x10e;" horiz-adv-x="1439" d="M207 1427h440q138 0 240 -21t184.5 -70t134 -130.5t78.5 -202.5t27 -286t-27 -286.5t-78 -204t-133 -133t-185 -72t-241 -21.5h-440v1427zM1153 717q0 125 -11.5 216.5t-38.5 157.5t-64.5 107t-97.5 65t-128.5 33t-165.5 9h-293v-1182h293q143 0 235 26.5t155 94.5 t89.5 182t26.5 291zM668 1610l166 184h155l-250 -264h-147l-258 264h162z" />
<glyph unicode="&#x10f;" horiz-adv-x="1171" d="M598 1063q181 0 285 -84v500h133v-1426q-82 -37 -201 -59.5t-217 -22.5q-124 0 -208.5 25.5t-145 87t-88 167t-27.5 263.5t27.5 264t87 169t144.5 89.5t210 26.5zM598 98q166 0 285 43v650q0 68 -82 106.5t-203 38.5q-125 0 -192.5 -35.5t-98.5 -125.5t-31 -259 q0 -133 15.5 -213.5t55.5 -126.5t97.5 -62t153.5 -16zM1124 1479h150l-115 -394h-80z" />
<glyph unicode="&#x110;" horiz-adv-x="1439" d="M207 1427h440q138 0 240 -21t184.5 -70t134 -130.5t78.5 -202.5t27 -286t-27 -286.5t-78 -204t-133 -133t-185 -72t-241 -21.5h-440v1427zM1153 717q0 125 -11.5 216.5t-38.5 157.5t-64.5 107t-97.5 65t-128.5 33t-165.5 9h-293v-1182h293q143 0 235 26.5t155 94.5 t89.5 182t26.5 291zM422 1577v127h514v-127h-514z" />
<glyph unicode="&#x111;" horiz-adv-x="1171" d="M662 1204v113h221v162h133v-162h92v-113h-92v-1151q-82 -37 -201 -59.5t-217 -22.5q-124 0 -208.5 25.5t-145 87t-88 167t-27.5 263.5t27.5 264t87 169t144.5 89.5t210 26.5q181 0 285 -84v225h-221zM598 98q166 0 285 43v650q0 68 -82 106.5t-203 38.5 q-125 0 -192.5 -35.5t-98.5 -125.5t-31 -259q0 -133 15.5 -213.5t55.5 -126.5t97.5 -62t153.5 -16z" />
<glyph unicode="&#x112;" horiz-adv-x="1249" d="M1184 1427h-977v-1427h977v123h-830v579h588v123h-588v480h830v122zM440 1577v127h514v-127h-514z" />
<glyph unicode="&#x113;" horiz-adv-x="1118" d="M594 1063q114 0 190 -25.5t130 -89t78 -171.5t24 -273h-740q1 -101 14.5 -171.5t39.5 -117t69.5 -73t96.5 -36.5t129 -10q58 0 145.5 16t151.5 40l30 -123q-79 -25 -177 -41.5t-163 -16.5q-122 0 -208.5 27t-150 89.5t-94 170t-30.5 264.5q0 151 29 255.5t89 167.5 t144.5 90.5t202.5 27.5zM594 938q-165 0 -234 -66.5t-81 -246.5h585q-6 129 -34.5 196.5t-82 92t-153.5 24.5zM334 1200v119h514v-119h-514z" />
<glyph unicode="&#x114;" horiz-adv-x="1249" d="M1184 1427h-977v-1427h977v123h-830v579h588v123h-588v480h830v122zM428 1784h111q0 -83 37.5 -112.5t123.5 -29.5q85 0 124.5 30t39.5 112h107q0 -132 -67.5 -195t-205.5 -63q-135 0 -202.5 63t-67.5 195z" />
<glyph unicode="&#x115;" horiz-adv-x="1118" d="M594 1063q114 0 190 -25.5t130 -89t78 -171.5t24 -273h-740q1 -101 14.5 -171.5t39.5 -117t69.5 -73t96.5 -36.5t129 -10q58 0 145.5 16t151.5 40l30 -123q-79 -25 -177 -41.5t-163 -16.5q-122 0 -208.5 27t-150 89.5t-94 170t-30.5 264.5q0 151 29 255.5t89 167.5 t144.5 90.5t202.5 27.5zM594 938q-165 0 -234 -66.5t-81 -246.5h585q-6 129 -34.5 196.5t-82 92t-153.5 24.5zM311 1427h111q0 -82 37.5 -111.5t124.5 -29.5q85 0 124.5 29.5t39.5 111.5h106q0 -132 -67 -195t-205 -63q-135 0 -203 63t-68 195z" />
<glyph unicode="&#x116;" horiz-adv-x="1249" d="M1184 1427h-977v-1427h977v123h-830v579h588v123h-588v480h830v122zM743 1735q50 0 67 -14.5t17 -65.5q0 -55 -17.5 -71.5t-66.5 -16.5q-51 0 -68.5 16.5t-17.5 71.5q0 51 17 65.5t69 14.5z" />
<glyph unicode="&#x117;" horiz-adv-x="1118" d="M594 1063q114 0 190 -25.5t130 -89t78 -171.5t24 -273h-740q1 -101 14.5 -171.5t39.5 -117t69.5 -73t96.5 -36.5t129 -10q58 0 145.5 16t151.5 40l30 -123q-79 -25 -177 -41.5t-163 -16.5q-122 0 -208.5 27t-150 89.5t-94 170t-30.5 264.5q0 151 29 255.5t89 167.5 t144.5 90.5t202.5 27.5zM594 938q-165 0 -234 -66.5t-81 -246.5h585q-6 129 -34.5 196.5t-82 92t-153.5 24.5zM584 1346q50 0 67 -15t17 -65q0 -55 -17.5 -71.5t-66.5 -16.5q-51 0 -68.5 16.5t-17.5 71.5q0 51 17 65.5t69 14.5z" />
<glyph unicode="&#x118;" horiz-adv-x="1249" d="M207 1427h977v-122h-830v-480h588v-123h-588v-579h830v-123h-977v1427zM1094 25h69q-116 -69 -155 -119.5t-39 -118.5q0 -50 29 -71t110 -21q53 0 104 17t84 44l60 -100q-45 -35 -116.5 -53.5t-141.5 -18.5q-145 0 -202.5 44t-57.5 139q0 85 65 153.5t191 104.5z" />
<glyph unicode="&#x119;" horiz-adv-x="1118" d="M594 1063q114 0 190 -25.5t130 -89t78 -171.5t24 -273h-740q1 -101 14.5 -171.5t39.5 -117t69.5 -73t96.5 -36.5t129 -10q58 0 145.5 16t151.5 40l30 -123q-79 -25 -177 -41.5t-163 -16.5q-122 0 -208.5 27t-150 89.5t-94 170t-30.5 264.5q0 151 29 255.5t89 167.5 t144.5 90.5t202.5 27.5zM594 938q-165 0 -234 -66.5t-81 -246.5h585q-6 129 -34.5 196.5t-82 92t-153.5 24.5zM831 25h70q-116 -69 -155 -119.5t-39 -118.5q0 -50 29 -71t110 -21q53 0 104 17t84 44l60 -100q-45 -35 -116.5 -53.5t-141.5 -18.5q-145 0 -203 44t-58 139 q0 85 65 153.5t191 104.5z" />
<glyph unicode="&#x11a;" horiz-adv-x="1249" d="M1184 1427h-977v-1427h977v123h-830v579h588v123h-588v480h830v122zM721 1610l166 184h155l-249 -264h-148l-258 264h162z" />
<glyph unicode="&#x11b;" horiz-adv-x="1118" d="M594 1063q114 0 190 -25.5t130 -89t78 -171.5t24 -273h-740q1 -101 14.5 -171.5t39.5 -117t69.5 -73t96.5 -36.5t129 -10q58 0 145.5 16t151.5 40l30 -123q-79 -25 -177 -41.5t-163 -16.5q-122 0 -208.5 27t-150 89.5t-94 170t-30.5 264.5q0 151 29 255.5t89 167.5 t144.5 90.5t202.5 27.5zM594 938q-165 0 -234 -66.5t-81 -246.5h585q-6 129 -34.5 196.5t-82 92t-153.5 24.5zM426 1427l166 -176l162 176h159l-249 -264h-148l-258 264h168z" />
<glyph unicode="&#x11c;" horiz-adv-x="1386" d="M1071 137v510h-373v119h521v-748q-149 -47 -437 -47q-137 0 -238.5 23t-182 75.5t-130.5 140t-76 215.5t-26 302q0 146 17.5 257.5t54 193t88.5 136t127.5 87.5t163 47t202.5 14q96 0 206.5 -15t193.5 -40l-47 -129q-62 24 -163 38.5t-188 14.5q-96 0 -162 -8.5 t-125.5 -32t-95.5 -65t-63 -109t-38 -162.5t-11 -227q0 -131 11 -227.5t37.5 -166.5t63.5 -114.5t95 -70.5t125.5 -36t162.5 -10q154 0 287 35zM754 1714l-166 -184h-156l250 264h147l258 -264h-161z" />
<glyph unicode="&#x11d;" horiz-adv-x="1171" d="M1016 981v-905q0 -141 -34 -238t-102.5 -152t-159 -78.5t-216.5 -23.5q-69 0 -173.5 18t-160.5 42l39 127q51 -25 142.5 -42.5t152.5 -17.5q96 0 162.5 15.5t117 53.5t75 106.5t24.5 170.5q-107 -86 -285 -86q-125 0 -210 26.5t-144.5 90t-87 169.5t-27.5 265 q0 157 27.5 262t88 166.5t145 87t208.5 25.5q98 0 217 -22.5t201 -59.5zM598 936q-77 0 -127 -10t-90 -35.5t-61.5 -73.5t-32.5 -120t-11 -179q0 -169 31 -259t98.5 -125.5t192.5 -35.5q121 0 203 39.5t82 108.5v647q-119 43 -285 43zM772 1163l-166 176l-162 -176h-159 l250 264h147l258 -264h-168z" />
<glyph unicode="&#x11e;" horiz-adv-x="1386" d="M1071 137v510h-373v119h521v-748q-149 -47 -437 -47q-137 0 -238.5 23t-182 75.5t-130.5 140t-76 215.5t-26 302q0 146 17.5 257.5t54 193t88.5 136t127.5 87.5t163 47t202.5 14q96 0 206.5 -15t193.5 -40l-47 -129q-62 24 -163 38.5t-188 14.5q-96 0 -162 -8.5 t-125.5 -32t-95.5 -65t-63 -109t-38 -162.5t-11 -227q0 -131 11 -227.5t37.5 -166.5t63.5 -114.5t95 -70.5t125.5 -36t162.5 -10q154 0 287 35zM489 1784h111q0 -83 38 -112.5t124 -29.5q85 0 124.5 30t39.5 112h106q0 -132 -67 -195t-205 -63q-135 0 -203 63t-68 195z" />
<glyph unicode="&#x11f;" horiz-adv-x="1171" d="M1016 981v-905q0 -141 -34 -238t-102.5 -152t-159 -78.5t-216.5 -23.5q-69 0 -173.5 18t-160.5 42l39 127q51 -25 142.5 -42.5t152.5 -17.5q96 0 162.5 15.5t117 53.5t75 106.5t24.5 170.5q-107 -86 -285 -86q-125 0 -210 26.5t-144.5 90t-87 169.5t-27.5 265 q0 157 27.5 262t88 166.5t145 87t208.5 25.5q98 0 217 -22.5t201 -59.5zM598 936q-77 0 -127 -10t-90 -35.5t-61.5 -73.5t-32.5 -120t-11 -179q0 -169 31 -259t98.5 -125.5t192.5 -35.5q121 0 203 39.5t82 108.5v647q-119 43 -285 43zM338 1427h111q0 -83 37.5 -112 t123.5 -29q85 0 124.5 29.5t39.5 111.5h107q0 -132 -67.5 -195t-205.5 -63q-135 0 -202.5 63t-67.5 195z" />
<glyph unicode="&#x120;" horiz-adv-x="1386" d="M1071 137v510h-373v119h521v-748q-149 -47 -437 -47q-137 0 -238.5 23t-182 75.5t-130.5 140t-76 215.5t-26 302q0 146 17.5 257.5t54 193t88.5 136t127.5 87.5t163 47t202.5 14q96 0 206.5 -15t193.5 -40l-47 -129q-62 24 -163 38.5t-188 14.5q-96 0 -162 -8.5 t-125.5 -32t-95.5 -65t-63 -109t-38 -162.5t-11 -227q0 -131 11 -227.5t37.5 -166.5t63.5 -114.5t95 -70.5t125.5 -36t162.5 -10q154 0 287 35zM764 1735q50 0 67 -14.5t17 -65.5q0 -55 -17.5 -71.5t-66.5 -16.5q-51 0 -68.5 16.5t-17.5 71.5q0 51 17 65.5t69 14.5z" />
<glyph unicode="&#x121;" horiz-adv-x="1171" d="M1016 981v-905q0 -141 -34 -238t-102.5 -152t-159 -78.5t-216.5 -23.5q-69 0 -173.5 18t-160.5 42l39 127q51 -25 142.5 -42.5t152.5 -17.5q96 0 162.5 15.5t117 53.5t75 106.5t24.5 170.5q-107 -86 -285 -86q-125 0 -210 26.5t-144.5 90t-87 169.5t-27.5 265 q0 157 27.5 262t88 166.5t145 87t208.5 25.5q98 0 217 -22.5t201 -59.5zM598 936q-77 0 -127 -10t-90 -35.5t-61.5 -73.5t-32.5 -120t-11 -179q0 -169 31 -259t98.5 -125.5t192.5 -35.5q121 0 203 39.5t82 108.5v647q-119 43 -285 43zM600 1346q50 0 67 -15t17 -65 q0 -55 -17.5 -71.5t-66.5 -16.5q-51 0 -68.5 16.5t-17.5 71.5q0 51 17 65.5t69 14.5z" />
<glyph unicode="&#x122;" horiz-adv-x="1386" d="M1071 137v510h-373v119h521v-748q-149 -47 -437 -47q-137 0 -238.5 23t-182 75.5t-130.5 140t-76 215.5t-26 302q0 146 17.5 257.5t54 193t88.5 136t127.5 87.5t163 47t202.5 14q96 0 206.5 -15t193.5 -40l-47 -129q-62 24 -163 38.5t-188 14.5q-96 0 -162 -8.5 t-125.5 -32t-95.5 -65t-63 -109t-38 -162.5t-11 -227q0 -131 11 -227.5t37.5 -166.5t63.5 -114.5t95 -70.5t125.5 -36t162.5 -10q154 0 287 35zM723 0h70v-96q142 0 192.5 -31.5t50.5 -122.5q0 -94 -58 -130t-198 -36q-143 0 -217 43l37 86q68 -35 180 -35q67 0 92 13.5 t25 56.5q0 31 -21 46t-76 19.5t-151 -1.5z" />
<glyph unicode="&#x123;" horiz-adv-x="1171" d="M1016 981v-905q0 -141 -34 -238t-102.5 -152t-159 -78.5t-216.5 -23.5q-69 0 -173.5 18t-160.5 42l39 127q51 -25 142.5 -42.5t152.5 -17.5q96 0 162.5 15.5t117 53.5t75 106.5t24.5 170.5q-107 -86 -285 -86q-125 0 -210 26.5t-144.5 90t-87 169.5t-27.5 265 q0 157 27.5 262t88 166.5t145 87t208.5 25.5q98 0 217 -22.5t201 -59.5zM598 936q-77 0 -127 -10t-90 -35.5t-61.5 -73.5t-32.5 -120t-11 -179q0 -169 31 -259t98.5 -125.5t192.5 -35.5q121 0 203 39.5t82 108.5v647q-119 43 -285 43zM797 1524l-207 -342h-109l144 342h172z " />
<glyph unicode="&#x124;" horiz-adv-x="1462" d="M354 698v-698h-147v1427h147v-596h758v596h145v-1427h-145v698h-758zM717 1714l-166 -184h-156l250 264h148l258 -264h-162z" />
<glyph unicode="&#x125;" horiz-adv-x="1134" d="M590 1063q109 0 180 -21.5t120 -76.5t70 -147t21 -234v-584h-133v557q0 120 -13 192.5t-46.5 115t-82.5 57t-131 14.5q-117 0 -201.5 -39t-84.5 -106v-791h-133v1479h133v-500q42 34 125.5 59t175.5 25zM346 1714l-166 -184h-155l249 264h148l258 -264h-162z" />
<glyph unicode="&#x126;" horiz-adv-x="1462" d="M68 1104v119h139v204h147v-204h758v204h145v-204h142v-119h-142v-1104h-145v698h-758v-698h-147v1104h-139zM354 831h758v273h-758v-273z" />
<glyph unicode="&#x127;" horiz-adv-x="1134" d="M289 791v-791h-133v1219h-131v106h131v154h133v-154h250v-106h-250v-240q42 34 125.5 59t175.5 25q109 0 180 -21.5t120 -76.5t70 -147t21 -234v-584h-133v557q0 120 -13 192.5t-46.5 115t-82.5 57t-131 14.5q-117 0 -201.5 -39t-84.5 -106z" />
<glyph unicode="&#x128;" horiz-adv-x="559" d="M354 1427h-147v-1427h147v1427zM555 1776l82 -66q-31 -88 -89.5 -137t-135.5 -49q-35 0 -77 21.5t-74.5 47t-72.5 47t-71 21.5q-71 0 -119 -121l-72 70q47 84 93.5 123t111.5 39q39 0 81.5 -20.5t74 -45.5t70.5 -45.5t71 -20.5q40 0 71 31t56 105z" />
<glyph unicode="&#x129;" horiz-adv-x="444" d="M289 1034v-1034h-133v1034h133zM485 1411l84 -68q-33 -94 -84 -140t-131 -46q-36 0 -76 21t-69 46.5t-66.5 46.5t-70.5 21q-73 0 -123 -125l-74 72q48 87 96.5 127.5t114.5 40.5q33 0 64 -14t56 -33.5t49 -39.5t51 -34t54 -14q40 0 69 31t56 108z" />
<glyph unicode="&#x12a;" horiz-adv-x="559" d="M354 1427h-147v-1427h147v1427zM27 1577v127h514v-127h-514z" />
<glyph unicode="&#x12b;" horiz-adv-x="444" d="M289 1034v-1034h-133v1034h133zM-33 1200v119h514v-119h-514z" />
<glyph unicode="&#x12c;" horiz-adv-x="559" d="M354 1427h-147v-1427h147v1427zM14 1784h111q0 -83 38 -112.5t124 -29.5q85 0 124.5 30t39.5 112h106q0 -132 -67 -195t-205 -63q-135 0 -203 63t-68 195z" />
<glyph unicode="&#x12d;" horiz-adv-x="444" d="M289 1034v-1034h-133v1034h133zM-47 1427h110q0 -82 37.5 -111.5t124.5 -29.5q85 0 124.5 29.5t39.5 111.5h107q0 -132 -67.5 -195t-205.5 -63q-135 0 -202.5 63t-67.5 195z" />
<glyph unicode="&#x12e;" horiz-adv-x="559" d="M207 1427h147v-1427h-147v1427zM270 25h70q-117 -69 -156 -119.5t-39 -118.5q0 -50 29.5 -71t110.5 -21q53 0 104 17t84 44l59 -100q-45 -35 -116.5 -53.5t-141.5 -18.5q-145 0 -202.5 44t-57.5 139q0 85 65 153.5t191 104.5z" />
<glyph unicode="&#x12f;" horiz-adv-x="444" d="M289 0v1034h-133v-1034h133zM225 1427q50 0 67 -14.5t17 -64.5q0 -55 -17.5 -71.5t-66.5 -16.5q-51 0 -68.5 16.5t-17.5 71.5q0 51 17 65t69 14zM219 25h70q-117 -69 -156 -119.5t-39 -118.5q0 -50 29 -71t110 -21q53 0 104.5 17t84.5 44l59 -100q-45 -35 -116.5 -53.5 t-141.5 -18.5q-145 0 -202.5 44t-57.5 139q0 85 65 153.5t191 104.5z" />
<glyph unicode="&#x130;" horiz-adv-x="559" d="M354 1427h-147v-1427h147v1427zM287 1735q50 0 67 -14.5t17 -65.5q0 -55 -17.5 -71.5t-66.5 -16.5q-51 0 -68.5 16.5t-17.5 71.5q0 51 17 65.5t69 14.5z" />
<glyph unicode="&#x131;" horiz-adv-x="444" d="M289 1034v-1034h-133v1034h133z" />
<glyph unicode="&#x132;" horiz-adv-x="1458" d="M207 1427h147v-1427h-147v1427zM1251 1427v-1034q0 -102 -22 -178.5t-57 -122.5t-87.5 -73.5t-105 -37.5t-117.5 -10q-135 0 -278 62l49 137q43 -23 110 -38t119 -15q37 0 67.5 5.5t63.5 23.5t55.5 47t37 80t14.5 120v1034h151z" />
<glyph unicode="&#x133;" horiz-adv-x="884" d="M289 0v1034h-133v-1034h133zM225 1427q50 0 67 -14.5t17 -64.5q0 -55 -17.5 -71.5t-66.5 -16.5q-51 0 -68.5 16.5t-17.5 71.5q0 51 17 65t69 14zM662 1427q50 0 66.5 -14.5t16.5 -64.5q0 -55 -17 -71.5t-66 -16.5q-52 0 -69.5 16.5t-17.5 71.5q0 50 17.5 64.5t69.5 14.5z M387 -416v123q55 0 89.5 8.5t62.5 32.5t40.5 71.5t12.5 123.5v1091h133v-1091q0 -89 -17 -153.5t-45.5 -104t-73.5 -62.5t-92 -31t-110 -8z" />
<glyph unicode="&#x134;" horiz-adv-x="901" d="M694 1427v-1034q0 -102 -22 -178.5t-57 -122.5t-87.5 -73.5t-105 -37.5t-117.5 -10q-135 0 -278 62l49 137q43 -23 110 -38t119 -15q37 0 67.5 5.5t63.5 23.5t55.5 47t37 80t14.5 120v1034h151zM608 1714l-166 -184h-155l250 264h147l258 -264h-162z" />
<glyph unicode="&#x135;" horiz-adv-x="444" d="M393 1163l-166 176l-161 -176h-160l250 264h147l258 -264h-168zM-49 -416v123q55 0 89.5 8.5t62.5 32.5t40.5 71.5t12.5 123.5v1091h133v-1091q0 -89 -17 -153.5t-45.5 -104t-73.5 -62.5t-92 -31t-110 -8z" />
<glyph unicode="&#x136;" horiz-adv-x="1263" d="M354 1427v-1427h-147v1427h147zM1278 0h-199q-237 326 -436.5 525.5t-286.5 228.5q93 54 280 235.5t394 437.5h195q-214 -251 -393 -426.5t-259 -228.5q83 -46 279.5 -251t425.5 -521zM772 -104l-207 -342h-108l143 342h172z" />
<glyph unicode="&#x137;" horiz-adv-x="978" d="M289 1479v-1479h-133v1479h133zM811 0h172q-407 511 -510 565q53 34 176.5 155.5t296.5 313.5h-172q-370 -410 -485 -487q107 -37 522 -547zM641 -104l-207 -342h-108l143 342h172z" />
<glyph unicode="&#x139;" horiz-adv-x="1118" d="M207 1427h147v-1298h738v-129h-885v1427zM193 1530l274 264h188l-325 -264h-137z" />
<glyph unicode="&#x13a;" horiz-adv-x="454" d="M289 1479v-1213q0 -74 20.5 -120t77.5 -103l-102 -86q-70 67 -99.5 130t-29.5 171v1221h133zM117 1530l274 264h189l-326 -264h-137z" />
<glyph unicode="&#x13b;" horiz-adv-x="1118" d="M207 1427h147v-1298h738v-129h-885v1427zM756 -104l-207 -342h-109l144 342h172z" />
<glyph unicode="&#x13c;" horiz-adv-x="454" d="M289 1479v-1213q0 -74 20.5 -120t77.5 -103l-102 -86q-70 67 -99.5 130t-29.5 171v1221h133zM397 -104l-207 -342h-108l143 342h172z" />
<glyph unicode="&#x13d;" horiz-adv-x="1118" d="M207 1427h147v-1298h738v-129h-885v1427zM565 1479h150l-115 -394h-80z" />
<glyph unicode="&#x13e;" horiz-adv-x="454" d="M289 1479v-1213q0 -74 20.5 -120t77.5 -103l-102 -86q-70 67 -99.5 130t-29.5 171v1221h133zM399 1479h150l-115 -394h-80z" />
<glyph unicode="&#x13f;" horiz-adv-x="1118" d="M207 1427h147v-1298h738v-129h-885v1427zM643 862q50 0 67 -15t17 -65q0 -55 -17.5 -71.5t-66.5 -16.5q-51 0 -68.5 16.5t-17.5 71.5q0 51 17 65.5t69 14.5z" />
<glyph unicode="&#x140;" horiz-adv-x="454" d="M289 1479v-1213q0 -74 20.5 -120t77.5 -103l-102 -86q-70 67 -99.5 130t-29.5 171v1221h133zM483 848q50 0 67 -15t17 -65q0 -55 -17.5 -71.5t-66.5 -16.5q-51 0 -68.5 16.5t-17.5 71.5q0 51 17 65.5t69 14.5z" />
<glyph unicode="&#x141;" horiz-adv-x="1118" d="M694 1075v-155l-340 -316v-475h738v-129h-885v467l-152 -139v151l152 142v806h147v-669z" />
<glyph unicode="&#x142;" horiz-adv-x="454" d="M289 1479v-535l160 178v-155l-160 -176v-525q0 -74 20.5 -120t77.5 -103l-102 -86q-70 67 -99.5 130t-29.5 171v385l-150 -166v152l150 166v684h133z" />
<glyph unicode="&#x143;" horiz-adv-x="1495" d="M354 1278v-1278h-147v1427h201q357 -530 731 -1208v1208h149v-1427h-176q-338 629 -758 1278zM623 1530l274 264h188l-325 -264h-137z" />
<glyph unicode="&#x144;" horiz-adv-x="1134" d="M289 901v-901h-133v981q82 37 200.5 59.5t216.5 22.5q116 0 190.5 -21.5t125 -76.5t71.5 -146.5t21 -234.5v-584h-133v557q0 121 -13 192.5t-49.5 114.5t-90.5 57.5t-146 14.5q-148 0 -260 -35zM500 1163h-142l244 264h170z" />
<glyph unicode="&#x145;" horiz-adv-x="1495" d="M354 1278v-1278h-147v1427h201q357 -530 731 -1208v1208h149v-1427h-176q-338 629 -758 1278zM852 -104l-207 -342h-108l143 342h172z" />
<glyph unicode="&#x146;" horiz-adv-x="1134" d="M289 901v-901h-133v981q82 37 200.5 59.5t216.5 22.5q116 0 190.5 -21.5t125 -76.5t71.5 -146.5t21 -234.5v-584h-133v557q0 121 -13 192.5t-49.5 114.5t-90.5 57.5t-146 14.5q-148 0 -260 -35zM668 -104l-207 -342h-109l144 342h172z" />
<glyph unicode="&#x147;" horiz-adv-x="1495" d="M354 1278v-1278h-147v1427h201q357 -530 731 -1208v1208h149v-1427h-176q-338 629 -758 1278zM766 1610l166 184h155l-249 -264h-148l-258 264h162z" />
<glyph unicode="&#x148;" horiz-adv-x="1134" d="M289 901v-901h-133v981q82 37 200.5 59.5t216.5 22.5q116 0 190.5 -21.5t125 -76.5t71.5 -146.5t21 -234.5v-584h-133v557q0 121 -13 192.5t-49.5 114.5t-90.5 57.5t-146 14.5q-148 0 -260 -35zM401 1427l166 -176l162 176h160l-250 -264h-147l-259 264h168z" />
<glyph unicode="&#x14c;" horiz-adv-x="1554" d="M776 -29q139 0 239.5 21.5t181 72.5t129 137t74 214t25.5 305q0 174 -25.5 300.5t-74.5 211.5t-129.5 135.5t-181 72t-238.5 21.5q-137 0 -237.5 -21.5t-180.5 -72t-129 -135.5t-74.5 -211.5t-25.5 -300.5q0 -177 25.5 -305t74 -214t128.5 -137t180.5 -72.5t238.5 -21.5z M776 1337q97 0 164.5 -9.5t126 -35t94.5 -69t62 -113t36.5 -165.5t10.5 -228q0 -151 -17 -255.5t-51 -176.5t-94.5 -112t-138.5 -56.5t-193 -16.5q-94 0 -162 11t-124.5 38.5t-93 72t-61.5 114.5t-35.5 162.5t-10.5 218.5q0 132 10.5 228t36 165.5t61 113t93 69t124 35 t162.5 9.5zM520 1577v127h514v-127h-514z" />
<glyph unicode="&#x14d;" horiz-adv-x="1198" d="M598 -29q-125 0 -210 26.5t-144.5 90t-87 169.5t-27.5 265q0 157 27.5 262t88 166.5t145 87t208.5 25.5q100 0 173 -16t131.5 -53t94 -99.5t54 -154.5t18.5 -218q0 -159 -27.5 -265t-87.5 -169.5t-145 -90t-211 -26.5zM598 940q-96 0 -153.5 -16t-97.5 -63t-55.5 -128 t-15.5 -215q0 -170 31 -260.5t98.5 -127t192.5 -36.5q126 0 194 36.5t99 127t31 260.5q0 134 -15.5 215t-56 128t-98 63t-154.5 16zM338 1200v119h514v-119h-514z" />
<glyph unicode="&#x14e;" horiz-adv-x="1554" d="M776 -29q139 0 239.5 21.5t181 72.5t129 137t74 214t25.5 305q0 174 -25.5 300.5t-74.5 211.5t-129.5 135.5t-181 72t-238.5 21.5q-137 0 -237.5 -21.5t-180.5 -72t-129 -135.5t-74.5 -211.5t-25.5 -300.5q0 -177 25.5 -305t74 -214t128.5 -137t180.5 -72.5t238.5 -21.5z M776 1337q97 0 164.5 -9.5t126 -35t94.5 -69t62 -113t36.5 -165.5t10.5 -228q0 -151 -17 -255.5t-51 -176.5t-94.5 -112t-138.5 -56.5t-193 -16.5q-94 0 -162 11t-124.5 38.5t-93 72t-61.5 114.5t-35.5 162.5t-10.5 218.5q0 132 10.5 228t36 165.5t61 113t93 69t124 35 t162.5 9.5zM504 1784h110q0 -83 38 -112.5t124 -29.5q85 0 124.5 30t39.5 112h107q0 -132 -67.5 -195t-205.5 -63q-135 0 -202.5 63t-67.5 195z" />
<glyph unicode="&#x14f;" horiz-adv-x="1198" d="M598 -29q-125 0 -210 26.5t-144.5 90t-87 169.5t-27.5 265q0 157 27.5 262t88 166.5t145 87t208.5 25.5q100 0 173 -16t131.5 -53t94 -99.5t54 -154.5t18.5 -218q0 -159 -27.5 -265t-87.5 -169.5t-145 -90t-211 -26.5zM598 940q-96 0 -153.5 -16t-97.5 -63t-55.5 -128 t-15.5 -215q0 -170 31 -260.5t98.5 -127t192.5 -36.5q126 0 194 36.5t99 127t31 260.5q0 134 -15.5 215t-56 128t-98 63t-154.5 16zM326 1427h110q0 -82 37.5 -111.5t124.5 -29.5q85 0 124.5 29.5t39.5 111.5h106q0 -132 -67 -195t-205 -63q-135 0 -202.5 63t-67.5 195z" />
<glyph unicode="&#x150;" horiz-adv-x="1554" d="M776 -29q139 0 239.5 21.5t181 72.5t129 137t74 214t25.5 305q0 174 -25.5 300.5t-74.5 211.5t-129.5 135.5t-181 72t-238.5 21.5q-137 0 -237.5 -21.5t-180.5 -72t-129 -135.5t-74.5 -211.5t-25.5 -300.5q0 -177 25.5 -305t74 -214t128.5 -137t180.5 -72.5t238.5 -21.5z M776 1337q97 0 164.5 -9.5t126 -35t94.5 -69t62 -113t36.5 -165.5t10.5 -228q0 -151 -17 -255.5t-51 -176.5t-94.5 -112t-138.5 -56.5t-193 -16.5q-94 0 -162 11t-124.5 38.5t-93 72t-61.5 114.5t-35.5 162.5t-10.5 218.5q0 132 10.5 228t36 165.5t61 113t93 69t124 35 t162.5 9.5zM688 1794h154l-219 -264h-109zM971 1794h155l-217 -264h-110z" />
<glyph unicode="&#x151;" horiz-adv-x="1198" d="M598 -29q-125 0 -210 26.5t-144.5 90t-87 169.5t-27.5 265q0 157 27.5 262t88 166.5t145 87t208.5 25.5q100 0 173 -16t131.5 -53t94 -99.5t54 -154.5t18.5 -218q0 -159 -27.5 -265t-87.5 -169.5t-145 -90t-211 -26.5zM598 940q-96 0 -153.5 -16t-97.5 -63t-55.5 -128 t-15.5 -215q0 -170 31 -260.5t98.5 -127t192.5 -36.5q126 0 194 36.5t99 127t31 260.5q0 134 -15.5 215t-56 128t-98 63t-154.5 16zM514 1427h154l-219 -264h-109zM797 1427h155l-217 -264h-110z" />
<glyph unicode="&#x152;" horiz-adv-x="2273" d="M1067 1427h1141v-122h-932q129 -144 147 -480h461v-120h-459q-3 -419 -159 -582h942v-123h-1164q-110 -29 -268 -29q-138 0 -238.5 21.5t-180.5 72.5t-128.5 137t-74 214t-25.5 305q0 174 25.5 300.5t74.5 211.5t129 135.5t180.5 72t237.5 21.5q176 0 291 -35zM776 1337 q-96 0 -162.5 -9.5t-124 -35t-93 -69t-61 -113t-36 -165.5t-10.5 -228q0 -126 10.5 -218.5t35.5 -162.5t61.5 -114.5t93 -72t124.5 -38.5t162 -11q115 0 193 16.5t138.5 56.5t94.5 112t51 176.5t17 255.5q0 132 -10.5 228t-36.5 165.5t-62 113t-94.5 69t-126 35t-164.5 9.5z " />
<glyph unicode="&#x153;" horiz-adv-x="1906" d="M1382 1063q114 0 190 -25.5t130 -89t78 -171.5t24 -273h-739q1 -125 20.5 -205t65 -125t106.5 -61.5t156 -16.5q58 0 145.5 16t151.5 40l31 -123q-79 -25 -177 -41.5t-163 -16.5q-159 0 -257.5 43.5t-150.5 147.5q-48 -103 -143 -147t-252 -44q-125 0 -210 26.5 t-144.5 90t-87 169.5t-27.5 265q0 157 27.5 262t88 166.5t145 87t208.5 25.5q154 0 248.5 -42t144.5 -140q53 93 148 137.5t243 44.5zM598 940q-96 0 -153.5 -16t-97.5 -63t-55.5 -128t-15.5 -215q0 -170 31 -260.5t98.5 -127t192.5 -36.5q126 0 194 36.5t99 127t31 260.5 q0 134 -15.5 215t-56 128t-98 63t-154.5 16zM1382 938q-81 0 -133.5 -12.5t-93.5 -47t-61.5 -96t-26.5 -157.5h586q-5 98 -20.5 158t-49 95t-80 47.5t-121.5 12.5z" />
<glyph unicode="&#x154;" horiz-adv-x="1382" d="M207 1427h637q405 0 405 -413q0 -79 -21 -144t-66.5 -119t-128 -84t-195.5 -30q145 -50 499 -637h-184q-169 297 -305.5 457.5t-216.5 160.5h-277v-618h-147v1427zM844 1305h-490v-557h480q123 0 187 71t64 197q0 140 -62 214.5t-179 74.5zM496 1530l274 264h188 l-325 -264h-137z" />
<glyph unicode="&#x155;" horiz-adv-x="702" d="M580 1063q56 0 106 -6v-137q-62 8 -106 8q-124 0 -207.5 -35t-83.5 -102v-791h-133v1034h133v-73q33 41 110.5 71.5t180.5 30.5zM426 1163h-141l243 264h170z" />
<glyph unicode="&#x156;" horiz-adv-x="1382" d="M207 1427h637q405 0 405 -413q0 -79 -21 -144t-66.5 -119t-128 -84t-195.5 -30q145 -50 499 -637h-184q-169 297 -305.5 457.5t-216.5 160.5h-277v-618h-147v1427zM844 1305h-490v-557h480q123 0 187 71t64 197q0 140 -62 214.5t-179 74.5zM811 -104l-207 -342h-108 l143 342h172z" />
<glyph unicode="&#x157;" horiz-adv-x="702" d="M580 1063q56 0 106 -6v-137q-62 8 -106 8q-124 0 -207.5 -35t-83.5 -102v-791h-133v1034h133v-73q33 41 110.5 71.5t180.5 30.5zM342 -104l-207 -342h-108l143 342h172z" />
<glyph unicode="&#x158;" horiz-adv-x="1382" d="M207 1427h637q405 0 405 -413q0 -79 -21 -144t-66.5 -119t-128 -84t-195.5 -30q145 -50 499 -637h-184q-169 297 -305.5 457.5t-216.5 160.5h-277v-618h-147v1427zM844 1305h-490v-557h480q123 0 187 71t64 197q0 140 -62 214.5t-179 74.5zM700 1610l166 184h156 l-250 -264h-147l-258 264h161z" />
<glyph unicode="&#x159;" horiz-adv-x="702" d="M580 1063q56 0 106 -6v-137q-62 8 -106 8q-124 0 -207.5 -35t-83.5 -102v-791h-133v1034h133v-73q33 41 110.5 71.5t180.5 30.5zM270 1427l166 -176l162 176h160l-250 -264h-148l-258 264h168z" />
<glyph unicode="&#x15a;" horiz-adv-x="1277" d="M1055 1274q-47 24 -152 39.5t-198 15.5q-100 0 -173 -13t-129.5 -44t-85 -86.5t-28.5 -136.5q0 -56 17 -96.5t57.5 -72.5t111.5 -51t176 -26q258 -20 376 -118.5t118 -295.5q0 -418 -580 -418q-96 0 -209.5 16t-195.5 42l41 131q64 -24 169 -39t193 -15q100 0 174 13 t132.5 44t89 87t30.5 137q0 56 -17 100.5t-56.5 83t-111.5 62.5t-175 31q-264 19 -381 103.5t-117 276.5q0 112 39.5 193.5t116 130t179 71.5t236.5 23q209 0 394 -55zM473 1530l275 264h188l-326 -264h-137z" />
<glyph unicode="&#x15b;" horiz-adv-x="1032" d="M827 883q-145 57 -295 57q-72 0 -116.5 -6.5t-80.5 -25.5t-51.5 -56.5t-15.5 -97.5q0 -77 59.5 -114t198.5 -46q202 -14 292.5 -83.5t90.5 -213.5q0 -180 -94 -253t-305 -73q-82 0 -191 15.5t-182 40.5l41 125q53 -25 152.5 -42.5t179.5 -17.5q54 0 91.5 4.5t70 16.5 t52 33.5t30 55.5t10.5 83q0 86 -54.5 127t-199.5 53q-199 14 -293 75t-94 201q0 177 100 249.5t309 72.5q152 0 340 -53zM489 1163h-141l244 264h170z" />
<glyph unicode="&#x15c;" horiz-adv-x="1277" d="M1055 1274q-47 24 -152 39.5t-198 15.5q-100 0 -173 -13t-129.5 -44t-85 -86.5t-28.5 -136.5q0 -56 17 -96.5t57.5 -72.5t111.5 -51t176 -26q258 -20 376 -118.5t118 -295.5q0 -418 -580 -418q-96 0 -209.5 16t-195.5 42l41 131q64 -24 169 -39t193 -15q100 0 174 13 t132.5 44t89 87t30.5 137q0 56 -17 100.5t-56.5 83t-111.5 62.5t-175 31q-264 19 -381 103.5t-117 276.5q0 112 39.5 193.5t116 130t179 71.5t236.5 23q209 0 394 -55zM670 1714l-166 -184h-156l250 264h147l259 -264h-162z" />
<glyph unicode="&#x15d;" horiz-adv-x="1032" d="M827 883q-145 57 -295 57q-72 0 -116.5 -6.5t-80.5 -25.5t-51.5 -56.5t-15.5 -97.5q0 -77 59.5 -114t198.5 -46q202 -14 292.5 -83.5t90.5 -213.5q0 -180 -94 -253t-305 -73q-82 0 -191 15.5t-182 40.5l41 125q53 -25 152.5 -42.5t179.5 -17.5q54 0 91.5 4.5t70 16.5 t52 33.5t30 55.5t10.5 83q0 86 -54.5 127t-199.5 53q-199 14 -293 75t-94 201q0 177 100 249.5t309 72.5q152 0 340 -53zM688 1163l-166 176l-162 -176h-159l250 264h147l258 -264h-168z" />
<glyph unicode="&#x15e;" horiz-adv-x="1277" d="M1055 1274q-47 24 -152 39.5t-198 15.5q-100 0 -173 -13t-129.5 -44t-85 -86.5t-28.5 -136.5q0 -56 17 -96.5t57.5 -72.5t111.5 -51t176 -26q258 -20 376 -118.5t118 -295.5q0 -418 -580 -418q-96 0 -209.5 16t-195.5 42l41 131q64 -24 169 -39t193 -15q100 0 174 13 t132.5 44t89 87t30.5 137q0 56 -17 100.5t-56.5 83t-111.5 62.5t-175 31q-264 19 -381 103.5t-117 276.5q0 112 39.5 193.5t116 130t179 71.5t236.5 23q209 0 394 -55zM590 0h69v-96q142 0 193 -31.5t51 -122.5q0 -94 -58 -130t-198 -36q-143 0 -217 43l37 86 q68 -35 180 -35q67 0 92 13.5t25 56.5q0 31 -21 46t-76 19.5t-151 -1.5z" />
<glyph unicode="&#x15f;" horiz-adv-x="1032" d="M827 883q-145 57 -295 57q-72 0 -116.5 -6.5t-80.5 -25.5t-51.5 -56.5t-15.5 -97.5q0 -77 59.5 -114t198.5 -46q202 -14 292.5 -83.5t90.5 -213.5q0 -180 -94 -253t-305 -73q-82 0 -191 15.5t-182 40.5l41 125q53 -25 152.5 -42.5t179.5 -17.5q54 0 91.5 4.5t70 16.5 t52 33.5t30 55.5t10.5 83q0 86 -54.5 127t-199.5 53q-199 14 -293 75t-94 201q0 177 100 249.5t309 72.5q152 0 340 -53zM446 0h70v-96q142 0 193 -31.5t51 -122.5q0 -94 -58 -130t-198 -36q-143 0 -217 43l37 86q68 -35 180 -35q67 0 92 13.5t25 56.5q0 31 -21 46t-76 19.5 t-151 -1.5z" />
<glyph unicode="&#x160;" horiz-adv-x="1277" d="M1055 1274q-47 24 -152 39.5t-198 15.5q-100 0 -173 -13t-129.5 -44t-85 -86.5t-28.5 -136.5q0 -56 17 -96.5t57.5 -72.5t111.5 -51t176 -26q258 -20 376 -118.5t118 -295.5q0 -418 -580 -418q-96 0 -209.5 16t-195.5 42l41 131q64 -24 169 -39t193 -15q100 0 174 13 t132.5 44t89 87t30.5 137q0 56 -17 100.5t-56.5 83t-111.5 62.5t-175 31q-264 19 -381 103.5t-117 276.5q0 112 39.5 193.5t116 130t179 71.5t236.5 23q209 0 394 -55zM666 1610l165 184h156l-250 -264h-147l-258 264h162z" />
<glyph unicode="&#x161;" horiz-adv-x="1032" d="M827 883q-145 57 -295 57q-72 0 -116.5 -6.5t-80.5 -25.5t-51.5 -56.5t-15.5 -97.5q0 -77 59.5 -114t198.5 -46q202 -14 292.5 -83.5t90.5 -213.5q0 -180 -94 -253t-305 -73q-82 0 -191 15.5t-182 40.5l41 125q53 -25 152.5 -42.5t179.5 -17.5q54 0 91.5 4.5t70 16.5 t52 33.5t30 55.5t10.5 83q0 86 -54.5 127t-199.5 53q-199 14 -293 75t-94 201q0 177 100 249.5t309 72.5q152 0 340 -53zM358 1427l166 -176l162 176h160l-250 -264h-147l-259 264h168z" />
<glyph unicode="&#x162;" horiz-adv-x="1163" d="M657 1305v-1305h-149v1305h-496v122h1139v-122h-494zM717 -104l-207 -342h-109l144 342h172z" />
<glyph unicode="&#x163;" horiz-adv-x="804" d="M342 911v-563q0 -134 43 -192t150 -58q111 0 196 31l31 -119q-115 -39 -227 -39q-93 0 -151.5 15.5t-99.5 57.5t-58 114.5t-17 187.5v565h-182v123h182v217l133 56v-273h383v-123h-383zM532 -104l-206 -342h-109l143 342h172z" />
<glyph unicode="&#x164;" horiz-adv-x="1163" d="M657 1305v-1305h-149v1305h-496v122h1139v-122h-494zM592 1610l166 184h155l-249 -264h-148l-258 264h162z" />
<glyph unicode="&#x165;" horiz-adv-x="804" d="M342 348v563h383v123h-383v273l-133 -56v-217h-182v-123h182v-565q0 -115 17 -187.5t58 -114.5t99.5 -57.5t151.5 -15.5q112 0 227 39l-31 119q-85 -31 -196 -31q-107 0 -150 58t-43 192zM551 1571h149l-114 -393h-80z" />
<glyph unicode="&#x166;" horiz-adv-x="1163" d="M315 514v127h193v655h-496v131h1139v-131h-494v-655h172v-127h-172v-514h-149v514h-193z" />
<glyph unicode="&#x167;" horiz-adv-x="804" d="M72 467v127h137v319h-182v121h182v217l133 56v-273h383v-121h-383v-319h244v-127h-244v-119q0 -134 43 -192t150 -58q111 0 196 31l31 -119q-115 -39 -227 -39q-93 0 -151.5 15.5t-99.5 57.5t-58 114.5t-17 187.5v121h-137z" />
<glyph unicode="&#x168;" horiz-adv-x="1511" d="M1331 496v931h-147v-933q0 -97 -18 -166t-50 -113.5t-86.5 -70t-118 -35t-153.5 -9.5q-75 0 -130 6t-105.5 22t-84.5 44t-59.5 71.5t-37 105.5t-11.5 145v933h-150v-931q0 -129 25.5 -221.5t70.5 -151t119 -92.5t159 -47t202 -13q119 0 204 13t158.5 47t118 92.5 t69.5 151t25 221.5zM1032 1776l82 -66q-31 -88 -89.5 -137t-135.5 -49q-35 0 -77 21.5t-74.5 47t-72.5 47t-71 21.5q-71 0 -119 -121l-72 70q47 84 93.5 123t111.5 39q39 0 81.5 -20.5t74 -45.5t70.5 -45.5t71 -20.5q40 0 71 31t56 105z" />
<glyph unicode="&#x169;" horiz-adv-x="1134" d="M848 1034v-899q-110 -37 -262 -37q-91 0 -144.5 14.5t-90 57.5t-49.5 114.5t-13 192.5v557h-133v-583q0 -188 40.5 -292t126.5 -146t240 -42q96 0 215.5 22.5t202.5 59.5v981h-133zM836 1411l84 -68q-33 -94 -84 -140t-131 -46q-36 0 -76 21t-69.5 46.5t-67 46.5 t-70.5 21q-73 0 -123 -125l-74 72q48 87 96.5 127.5t114.5 40.5q40 0 79.5 -21t66 -46.5t62 -46.5t67.5 -21q40 0 69 31t56 108z" />
<glyph unicode="&#x16a;" horiz-adv-x="1511" d="M1331 496v931h-147v-933q0 -97 -18 -166t-50 -113.5t-86.5 -70t-118 -35t-153.5 -9.5q-75 0 -130 6t-105.5 22t-84.5 44t-59.5 71.5t-37 105.5t-11.5 145v933h-150v-931q0 -129 25.5 -221.5t70.5 -151t119 -92.5t159 -47t202 -13q119 0 204 13t158.5 47t118 92.5 t69.5 151t25 221.5zM494 1577v127h514v-127h-514z" />
<glyph unicode="&#x16b;" horiz-adv-x="1134" d="M848 1034v-899q-110 -37 -262 -37q-91 0 -144.5 14.5t-90 57.5t-49.5 114.5t-13 192.5v557h-133v-583q0 -188 40.5 -292t126.5 -146t240 -42q96 0 215.5 22.5t202.5 59.5v981h-133zM307 1200v119h514v-119h-514z" />
<glyph unicode="&#x16c;" horiz-adv-x="1511" d="M1331 496v931h-147v-933q0 -97 -18 -166t-50 -113.5t-86.5 -70t-118 -35t-153.5 -9.5q-75 0 -130 6t-105.5 22t-84.5 44t-59.5 71.5t-37 105.5t-11.5 145v933h-150v-931q0 -129 25.5 -221.5t70.5 -151t119 -92.5t159 -47t202 -13q119 0 204 13t158.5 47t118 92.5 t69.5 151t25 221.5zM487 1784h111q0 -83 38 -112.5t124 -29.5q85 0 124.5 30t39.5 112h106q0 -132 -67 -195t-205 -63q-135 0 -203 63t-68 195z" />
<glyph unicode="&#x16d;" horiz-adv-x="1134" d="M848 1034v-899q-110 -37 -262 -37q-91 0 -144.5 14.5t-90 57.5t-49.5 114.5t-13 192.5v557h-133v-583q0 -188 40.5 -292t126.5 -146t240 -42q96 0 215.5 22.5t202.5 59.5v981h-133zM297 1427h111q0 -83 37.5 -112t123.5 -29q85 0 124.5 29.5t39.5 111.5h107 q0 -132 -67.5 -195t-205.5 -63q-135 0 -202.5 63t-67.5 195z" />
<glyph unicode="&#x16e;" horiz-adv-x="1511" d="M1331 1427v-931q0 -129 -25 -221.5t-69.5 -151t-118 -92.5t-158.5 -47t-204 -13q-117 0 -202 13t-159 47t-119 92.5t-70.5 151t-25.5 221.5v931h150v-933q0 -83 11.5 -145t37 -105.5t59.5 -71.5t84.5 -44t105.5 -22t130 -6q90 0 153.5 9.5t118 35t86.5 70t50 113.5 t18 166v933h147zM752 1788q110 0 167.5 -48.5t57.5 -144.5q0 -192 -225 -192q-109 0 -166.5 48t-57.5 144q0 99 52 146t172 47zM752 1696q-65 0 -91 -25.5t-26 -79.5q0 -51 26.5 -78.5t90.5 -27.5q66 0 93 27.5t27 78.5q0 54 -26.5 79.5t-93.5 25.5z" />
<glyph unicode="&#x16f;" horiz-adv-x="1134" d="M848 135v899h133v-981q-83 -37 -202.5 -59.5t-215.5 -22.5q-154 0 -240 42t-126.5 146t-40.5 292v583h133v-557q0 -121 13 -192.5t49.5 -114.5t90 -57.5t144.5 -14.5q152 0 262 37zM582 1511q225 0 225 -192q0 -96 -57.5 -144.5t-167.5 -48.5q-109 0 -166.5 48.5 t-57.5 144.5q0 99 52 145.5t172 46.5zM582 1419q-65 0 -91 -25.5t-26 -78.5q0 -51 26.5 -79t90.5 -28q66 0 93 27.5t27 79.5q0 54 -26 79t-94 25z" />
<glyph unicode="&#x170;" horiz-adv-x="1511" d="M1331 496v931h-147v-933q0 -97 -18 -166t-50 -113.5t-86.5 -70t-118 -35t-153.5 -9.5q-75 0 -130 6t-105.5 22t-84.5 44t-59.5 71.5t-37 105.5t-11.5 145v933h-150v-931q0 -129 25.5 -221.5t70.5 -151t119 -92.5t159 -47t202 -13q119 0 204 13t158.5 47t118 92.5 t69.5 151t25 221.5zM641 1794h154l-220 -264h-108zM924 1794h155l-217 -264h-110z" />
<glyph unicode="&#x171;" horiz-adv-x="1134" d="M848 1034v-899q-110 -37 -262 -37q-91 0 -144.5 14.5t-90 57.5t-49.5 114.5t-13 192.5v557h-133v-583q0 -188 40.5 -292t126.5 -146t240 -42q96 0 215.5 22.5t202.5 59.5v981h-133zM477 1427h154l-219 -264h-109zM760 1427h155l-217 -264h-110z" />
<glyph unicode="&#x172;" horiz-adv-x="1511" d="M1331 1427v-931q0 -129 -25 -221.5t-69.5 -151t-118 -92.5t-158.5 -47t-204 -13q-117 0 -202 13t-159 47t-119 92.5t-70.5 151t-25.5 221.5v931h150v-933q0 -83 11.5 -145t37 -105.5t59.5 -71.5t84.5 -44t105.5 -22t130 -6q90 0 153.5 9.5t118 35t86.5 70t50 113.5 t18 166v933h147zM909 25h70q-117 -69 -156 -119.5t-39 -118.5q0 -50 29.5 -71t110.5 -21q53 0 104 17t84 44l59 -100q-45 -35 -116.5 -53.5t-141.5 -18.5q-145 0 -202.5 44t-57.5 139q0 85 65 153.5t191 104.5z" />
<glyph unicode="&#x173;" horiz-adv-x="1134" d="M848 135v899h133v-981q-83 -37 -202.5 -59.5t-215.5 -22.5q-154 0 -240 42t-126.5 146t-40.5 292v583h133v-557q0 -121 13 -192.5t49.5 -114.5t90 -57.5t144.5 -14.5q152 0 262 37zM819 25h70q-117 -69 -156 -119.5t-39 -118.5q0 -50 29.5 -71t110.5 -21q53 0 104 17 t84 44l59 -100q-45 -35 -116.5 -53.5t-141.5 -18.5q-145 0 -202.5 44t-57.5 139q0 85 65 153.5t191 104.5z" />
<glyph unicode="&#x174;" horiz-adv-x="1853" d="M1327 152q216 659 367 1275h145q-193 -761 -422 -1427h-190q-89 476 -281 1217q-74 -400 -323 -1217h-187q-253 956 -424 1427h166q196 -591 361 -1275q233 780 331 1275h152q11 -42 59 -226.5t72 -279t62 -251t65.5 -283t46.5 -235.5zM938 1714l-166 -184h-156l250 264 h148l258 -264h-162z" />
<glyph unicode="&#x175;" horiz-adv-x="1665" d="M1612 1034q-143 -538 -352 -1034h-189q-45 216 -112.5 477t-116.5 404q-110 -443 -267 -881h-188q-163 604 -336 1034h158q150 -392 278 -907q69 191 153 474t116 433h170q118 -339 245 -907q198 518 291 907h150zM1001 1163l-165 176l-162 -176h-160l250 264h147 l258 -264h-168z" />
<glyph unicode="&#x176;" horiz-adv-x="1243" d="M696 686v-686h-149v686q-243 357 -557 741h186q243 -299 457 -624q235 296 450 624h170q-296 -423 -557 -741zM621 1714l-166 -184h-156l250 264h147l258 -264h-161z" />
<glyph unicode="&#x177;" horiz-adv-x="1042" d="M432 -49q-91 -202 -168 -344h156q104 193 186 393q259 614 385 1034h-145q-107 -388 -326 -915q-159 555 -319 915h-150q181 -375 381 -1083zM684 1163l-166 176l-162 -176h-159l249 264h148l258 -264h-168z" />
<glyph unicode="&#x178;" horiz-adv-x="1243" d="M696 686v-686h-149v686q-243 357 -557 741h186q243 -299 457 -624q235 296 450 624h170q-296 -423 -557 -741zM440 1735q50 0 67 -14.5t17 -65.5q0 -55 -17.5 -71.5t-66.5 -16.5q-51 0 -68.5 16.5t-17.5 71.5q0 51 17 65.5t69 14.5zM827 1735q50 0 67 -14.5t17 -65.5 q0 -55 -17.5 -71.5t-66.5 -16.5q-51 0 -68.5 16.5t-17.5 71.5q0 51 17 65.5t69 14.5z" />
<glyph unicode="&#x179;" horiz-adv-x="1247" d="M43 0v59q521 650 940 1246h-885v122h1098v-53q-441 -651 -938 -1251h901v-123h-1116zM467 1530l274 264h189l-326 -264h-137z" />
<glyph unicode="&#x17a;" horiz-adv-x="1013" d="M74 0v55q186 225 366 463.5t279 392.5h-613v123h822v-51q-136 -209 -329.5 -471.5t-303.5 -388.5h635v-123h-856zM551 1163h-141l243 264h170z" />
<glyph unicode="&#x17b;" horiz-adv-x="1247" d="M43 0v59q521 650 940 1246h-885v122h1098v-53q-441 -651 -938 -1251h901v-123h-1116zM633 1735q50 0 67 -14.5t17 -65.5q0 -55 -17.5 -71.5t-66.5 -16.5q-51 0 -68.5 16.5t-17.5 71.5q0 51 17 65.5t69 14.5z" />
<glyph unicode="&#x17c;" horiz-adv-x="1013" d="M74 0v55q186 225 366 463.5t279 392.5h-613v123h822v-51q-136 -209 -329.5 -471.5t-303.5 -388.5h635v-123h-856zM520 1346q50 0 67 -15t17 -65q0 -55 -17.5 -71.5t-66.5 -16.5q-51 0 -68.5 16.5t-17.5 71.5q0 51 17 65.5t69 14.5z" />
<glyph unicode="&#x17d;" horiz-adv-x="1247" d="M43 0v59q521 650 940 1246h-885v122h1098v-53q-441 -651 -938 -1251h901v-123h-1116zM659 1610l166 184h156l-250 -264h-147l-258 264h161z" />
<glyph unicode="&#x17e;" horiz-adv-x="1013" d="M74 0v55q186 225 366 463.5t279 392.5h-613v123h822v-51q-136 -209 -329.5 -471.5t-303.5 -388.5h635v-123h-856zM354 1427l166 -176l162 176h160l-250 -264h-148l-258 264h168z" />
<glyph unicode="&#x192;" horiz-adv-x="727" d="M469 1130l-20 -96h368l-26 -121h-369l-205 -970q-19 -88 -52.5 -153.5t-72 -104t-88.5 -62t-96.5 -31.5t-102.5 -8q-136 0 -231 45l68 125q33 -20 88 -33.5t100 -13.5q41 0 75 8.5t70.5 32t64.5 73t44 122.5l205 970h-183l27 121h182l21 96q18 87 50.5 151t70 100 t88.5 57.5t96 28t102 6.5q124 0 228 -33l-60 -117q-79 27 -192 27q-34 0 -59.5 -3t-57.5 -16t-55 -35.5t-44.5 -64.5t-33.5 -101z" />
<glyph unicode="&#x1f5;" horiz-adv-x="1171" d="M1016 981v-905q0 -141 -34 -238t-102.5 -152t-159 -78.5t-216.5 -23.5q-69 0 -173.5 18t-160.5 42l39 127q51 -25 142.5 -42.5t152.5 -17.5q96 0 162.5 15.5t117 53.5t75 106.5t24.5 170.5q-107 -86 -285 -86q-125 0 -210 26.5t-144.5 90t-87 169.5t-27.5 265 q0 157 27.5 262t88 166.5t145 87t208.5 25.5q98 0 217 -22.5t201 -59.5zM598 936q-77 0 -127 -10t-90 -35.5t-61.5 -73.5t-32.5 -120t-11 -179q0 -169 31 -259t98.5 -125.5t192.5 -35.5q121 0 203 39.5t82 108.5v647q-119 43 -285 43zM573 1163h-141l244 264h170z" />
<glyph unicode="&#x218;" horiz-adv-x="1277" d="M1055 1274q-47 24 -152 39.5t-198 15.5q-100 0 -173 -13t-129.5 -44t-85 -86.5t-28.5 -136.5q0 -56 17 -96.5t57.5 -72.5t111.5 -51t176 -26q258 -20 376 -118.5t118 -295.5q0 -418 -580 -418q-96 0 -209.5 16t-195.5 42l41 131q64 -24 169 -39t193 -15q100 0 174 13 t132.5 44t89 87t30.5 137q0 56 -17 100.5t-56.5 83t-111.5 62.5t-175 31q-264 19 -381 103.5t-117 276.5q0 112 39.5 193.5t116 130t179 71.5t236.5 23q209 0 394 -55zM760 -104l-207 -342h-109l144 342h172z" />
<glyph unicode="&#x219;" horiz-adv-x="1032" d="M827 883q-145 57 -295 57q-72 0 -116.5 -6.5t-80.5 -25.5t-51.5 -56.5t-15.5 -97.5q0 -77 59.5 -114t198.5 -46q202 -14 292.5 -83.5t90.5 -213.5q0 -180 -94 -253t-305 -73q-82 0 -191 15.5t-182 40.5l41 125q53 -25 152.5 -42.5t179.5 -17.5q54 0 91.5 4.5t70 16.5 t52 33.5t30 55.5t10.5 83q0 86 -54.5 127t-199.5 53q-199 14 -293 75t-94 201q0 177 100 249.5t309 72.5q152 0 340 -53zM629 -104l-207 -342h-109l144 342h172z" />
<glyph unicode="&#x2c6;" horiz-adv-x="1392" d="M874 1163l-165 176l-162 -176h-160l250 264h147l258 -264h-168z" />
<glyph unicode="&#x2c7;" horiz-adv-x="1366" d="M555 1427l166 -176l162 176h159l-249 -264h-148l-258 264h168z" />
<glyph unicode="&#x2d8;" horiz-adv-x="1099" d="M203 1427h110q0 -82 37.5 -111.5t124.5 -29.5q85 0 124.5 29.5t39.5 111.5h106q0 -132 -67 -195t-205 -63q-135 0 -202.5 63t-67.5 195z" />
<glyph unicode="&#x2d9;" horiz-adv-x="835" d="M225 1346q50 0 67 -15t17 -65q0 -55 -17.5 -71.5t-66.5 -16.5q-51 0 -68.5 16.5t-17.5 71.5q0 51 17 65.5t69 14.5z" />
<glyph unicode="&#x2da;" horiz-adv-x="1488" d="M737 1511q110 0 168 -48t58 -144t-58 -144.5t-168 -48.5q-108 0 -165.5 48.5t-57.5 144.5q0 99 51.5 145.5t171.5 46.5zM737 1419q-65 0 -90.5 -25t-25.5 -79q0 -51 26 -79t90 -28q66 0 93.5 28t27.5 79q0 54 -26.5 79t-94.5 25z" />
<glyph unicode="&#x2db;" horiz-adv-x="1339" d="M897 25h70q-117 -69 -156 -119.5t-39 -118.5q0 -50 29 -71t110 -21q53 0 104.5 17t84.5 44l59 -100q-45 -35 -116.5 -53.5t-141.5 -18.5q-145 0 -202.5 44t-57.5 139q0 85 65 153.5t191 104.5z" />
<glyph unicode="&#x2dc;" horiz-adv-x="1490" d="M905 1411l84 -68q-33 -94 -84 -140t-131 -46q-36 0 -76 21t-69 46.5t-66.5 46.5t-70.5 21q-73 0 -123 -125l-74 72q48 87 96.5 127.5t114.5 40.5q33 0 64 -14t56 -33.5t49 -39.5t51 -34t54 -14q40 0 69 31t56 108z" />
<glyph unicode="&#x2dd;" horiz-adv-x="1292" d="M535 1427h153l-219 -264h-109zM817 1427h156l-217 -264h-111z" />
<glyph unicode="&#x394;" horiz-adv-x="1308" d="M1284 0h-1270q259 781 539 1427h195q118 -371 261.5 -755t274.5 -672zM643 1315q-235 -548 -442 -1192h864q-245 605 -422 1192z" />
<glyph unicode="&#x3a9;" horiz-adv-x="1589" d="M1528 123v-123h-582v123q87 28 148.5 91.5t94.5 155.5t47.5 196t14.5 233q0 158 -24.5 261.5t-81.5 165t-140.5 86.5t-209.5 25q-125 0 -207.5 -25t-140 -86.5t-82.5 -165t-25 -261.5q0 -129 14.5 -233t47.5 -196t94 -155.5t147 -91.5v-123h-582v123h377 q-250 164 -250 680q0 151 25 263.5t72.5 188t123 122t169 66t217.5 19.5q125 0 218.5 -20t169 -66t123 -121.5t72.5 -188t25 -263.5q0 -255 -60 -424t-192 -256h377z" />
<glyph unicode="&#x3bc;" horiz-adv-x="1134" d="M293 -393h-137v1427h133v-557q0 -121 13 -192.5t49.5 -114.5t90 -57.5t144.5 -14.5q150 0 260 37v899h135v-981q-83 -37 -202.5 -59.5t-215.5 -22.5q-182 0 -270 60v-424z" />
<glyph unicode="&#x3c0;" horiz-adv-x="1224" d="M61 911v123h1102v-123h-174v-911h-133v911h-491v-608q0 -277 -191 -338l-57 117q114 42 114 221v608h-170z" />
<glyph unicode="&#x401;" horiz-adv-x="1249" d="M1184 1427h-977v-1427h977v123h-830v579h588v123h-588v480h830v122zM492 1735q49 0 66 -14.5t17 -65.5q0 -55 -17 -71.5t-66 -16.5q-51 0 -68.5 16.5t-17.5 71.5q0 51 17 65.5t69 14.5zM879 1735q50 0 67 -14.5t17 -65.5q0 -55 -17.5 -71.5t-66.5 -16.5q-51 0 -68.5 16.5 t-17.5 71.5q0 51 17 65.5t69 14.5z" />
<glyph unicode="&#x402;" horiz-adv-x="1488" d="M987 -348l-67 106q35 14 59.5 27t58 39t56.5 58.5t48 86t40 120.5t25 163t10 213q0 124 -9 206t-27 135.5t-52.5 81.5t-76 38t-108.5 10q-114 0 -198.5 -37.5t-88.5 -101.5v-797h-149v1305h-496v122h1139v-122h-494v-326q42 34 125.5 59t175.5 25q89 0 150.5 -14.5 t112 -53t79.5 -106t44.5 -171.5t15.5 -253q0 -648 -373 -813z" />
<glyph unicode="&#x403;" horiz-adv-x="1118" d="M207 0h147v1305h738v122h-885v-1427zM489 1530l275 264h188l-325 -264h-138z" />
<glyph unicode="&#x404;" horiz-adv-x="1247" d="M997 705h-708q1 -126 13 -218.5t39 -159.5t64 -109.5t95 -67.5t124.5 -34.5t159.5 -9.5q86 0 187 15t164 39l47 -131q-83 -26 -193.5 -42t-206.5 -16q-137 0 -238.5 23t-182 75.5t-130.5 140t-76 215.5t-26 302q0 146 17.5 257.5t54 193t88.5 136t127.5 87.5t163 47 t202.5 14q96 0 206.5 -15t193.5 -40l-47 -133q-62 25 -162.5 40t-188.5 15q-90 0 -152.5 -7t-120 -27t-94 -54.5t-65 -91t-42.5 -136t-19 -188.5h706v-120z" />
<glyph unicode="&#x405;" horiz-adv-x="1277" d="M1055 1274q-47 24 -152 39.5t-198 15.5q-100 0 -173 -13t-129.5 -44t-85 -86.5t-28.5 -136.5q0 -56 17 -96.5t57.5 -72.5t111.5 -51t176 -26q258 -20 376 -118.5t118 -295.5q0 -418 -580 -418q-96 0 -209.5 16t-195.5 42l41 131q64 -24 169 -39t193 -15q100 0 174 13 t132.5 44t89 87t30.5 137q0 56 -17 100.5t-56.5 83t-111.5 62.5t-175 31q-264 19 -381 103.5t-117 276.5q0 112 39.5 193.5t116 130t179 71.5t236.5 23q209 0 394 -55z" />
<glyph unicode="&#x406;" horiz-adv-x="559" d="M207 1427h147v-1427h-147v1427z" />
<glyph unicode="&#x407;" horiz-adv-x="559" d="M354 1427h-147v-1427h147v1427zM86 1735q50 0 67 -14.5t17 -65.5q0 -55 -17.5 -71.5t-66.5 -16.5q-51 0 -68.5 16.5t-17.5 71.5q0 51 17 65.5t69 14.5zM473 1735q50 0 67 -14.5t17 -65.5q0 -55 -17.5 -71.5t-66.5 -16.5q-51 0 -68.5 16.5t-17.5 71.5q0 51 17 65.5 t69 14.5z" />
<glyph unicode="&#x408;" horiz-adv-x="901" d="M694 1427v-1034q0 -102 -22 -178.5t-57 -122.5t-87.5 -73.5t-105 -37.5t-117.5 -10q-135 0 -278 62l49 137q43 -23 110 -38t119 -15q37 0 67.5 5.5t63.5 23.5t55.5 47t37 80t14.5 120v1034h151z" />
<glyph unicode="&#x409;" horiz-adv-x="2093" d="M375 1427h801v-602h456q89 0 155.5 -20.5t109 -56t68.5 -90t36 -116t10 -139.5q0 -198 -91.5 -300.5t-264.5 -102.5h-627v1305h-518q-17 -296 -90 -652.5t-176 -652.5h-158q261 796 289 1427zM1176 123h477q108 0 154 74.5t46 208.5q0 137 -51.5 218t-156.5 81h-469v-582 z" />
<glyph unicode="&#x40a;" horiz-adv-x="2093" d="M1030 1427h146v-602h456q89 0 155.5 -20.5t109 -56t68.5 -90t36 -116t10 -139.5q0 -198 -91.5 -300.5t-264.5 -102.5h-625v705h-676v-705h-147v1427h147v-602h676v602zM1176 123h477q108 0 154 74.5t46 208.5q0 137 -51.5 218t-156.5 81h-469v-582z" />
<glyph unicode="&#x40b;" horiz-adv-x="1503" d="M958 1063q109 0 180.5 -21.5t120.5 -76.5t70 -147t21 -234v-584h-133v557q0 120 -13 192.5t-46.5 115t-82.5 57t-131 14.5q-114 0 -198.5 -37.5t-88.5 -101.5v-797h-149v1305h-496v122h1139v-122h-494v-326q42 34 125.5 59t175.5 25z" />
<glyph unicode="&#x40c;" horiz-adv-x="1263" d="M1075 0h176q-66 141 -124.5 251.5t-106 187.5t-96 134t-85 91t-83 58.5t-79.5 36t-85 25.5q77 51 246.5 220t386.5 423h-195q-186 -230 -375 -421t-301 -273v694h-147v-1427h147v702q83 -5 144 -18t124 -42.5t114 -77.5t107 -125t112 -184t120 -255zM553 1530l274 264 h189l-326 -264h-137z" />
<glyph unicode="&#x40e;" horiz-adv-x="1024" d="M489 348v-4q-115 -197 -229 -348l178 4q178 279 375.5 674.5t337.5 752.5h-154q-110 -323 -413 -923q-77 216 -194 466.5t-232 456.5h-168q128 -210 281.5 -543.5t217.5 -535.5zM334 1784h110q0 -83 38 -112.5t124 -29.5q85 0 124.5 30t39.5 112h107q0 -132 -67.5 -195 t-205.5 -63q-135 0 -202.5 63t-67.5 195z" />
<glyph unicode="&#x40f;" horiz-adv-x="1462" d="M358 1427v-1304h758v1304h146v-1427h-424l-43 -377h-109l-43 377h-432v1427h147z" />
<glyph unicode="&#x410;" horiz-adv-x="1368" d="M1188 0q-125 311 -172 440h-697q-84 -238 -147 -440h-145q269 781 538 1427h252q288 -855 537 -1427h-166zM715 1313h-60q-185 -461 -290 -750h606q-133 367 -256 750z" />
<glyph unicode="&#x411;" horiz-adv-x="1411" d="M913 123q201 0 201 283q0 136 -51.5 217.5t-157.5 81.5h-551v-582h559zM1118 1427v-122h-764v-480h539q89 0 155.5 -20.5t109 -56t68.5 -90t36 -116t10 -139.5q0 -198 -92 -300.5t-265 -102.5h-708v1427h911z" />
<glyph unicode="&#x412;" horiz-adv-x="1411" d="M913 123q201 0 201 283q0 136 -51.5 217.5t-157.5 81.5h-551v-582h559zM893 825q53 0 91 20t58.5 56t29.5 77.5t9 92.5q0 116 -41 175t-147 59h-539v-480h539zM950 768q79 -4 137 -24.5t93 -52.5t56 -79.5t28.5 -96.5t7.5 -112q0 -198 -92 -300.5t-265 -102.5h-708v1427 h686q83 0 144.5 -18.5t98.5 -48.5t59 -75t30 -91t8 -104q0 -57 -5 -97t-21.5 -82.5t-47 -69t-83 -46.5t-126.5 -27z" />
<glyph unicode="&#x413;" horiz-adv-x="1091" d="M354 0h-147v1427h885v-122h-738v-1305z" />
<glyph unicode="&#x414;" horiz-adv-x="1562" d="M1155 123v1182h-565q-41 -715 -207 -1182h772zM1300 123h263l-41 -438h-125v315h-1229v-315h-127l-41 438h211q208 488 244 1304h845v-1304z" />
<glyph unicode="&#x415;" horiz-adv-x="1249" d="M207 1427h977v-122h-830v-480h588v-123h-588v-579h830v-123h-977v1427z" />
<glyph unicode="&#x416;" horiz-adv-x="1742" d="M172 0h-160q58 141 110 251.5t93.5 187.5t85 134t75.5 91t73.5 58.5t70.5 36t74 25.5q-67 51 -216.5 219.5t-342.5 423.5h176q159 -223 321 -407.5t265 -271.5v679h147v-679q101 85 264.5 270.5t323.5 408.5h176q-193 -255 -342.5 -423.5t-216.5 -219.5q45 -14 74 -25.5 t70.5 -36t73.5 -58.5t75.5 -91t85 -134t93.5 -187.5t110 -251.5h-160q-67 176 -125 295.5t-112.5 198.5t-116.5 123.5t-124 64t-149 25.5v-707h-147v707q-87 -7 -148.5 -27t-124 -64.5t-116.5 -123t-112 -198t-124 -294.5z" />
<glyph unicode="&#x417;" horiz-adv-x="1302" d="M831 768q79 -3 138 -25t95.5 -55.5t59 -82t31 -99.5t8.5 -113q0 -231 -140.5 -326.5t-438.5 -95.5q-103 0 -230.5 17.5t-226.5 42.5l35 119q177 -54 422 -54q236 0 329 68t93 233q0 169 -85 238.5t-292 69.5h-205v120h205q132 0 207.5 29t106 86.5t30.5 155.5 q0 91 -30.5 140.5t-115.5 75t-243 25.5q-104 0 -218.5 -14.5t-187.5 -38.5l-37 123q253 55 443 55q148 0 252.5 -22t167.5 -66.5t91.5 -108t28.5 -151.5q0 -72 -10.5 -124t-40 -102.5t-90.5 -81t-152 -38.5z" />
<glyph unicode="&#x418;" horiz-adv-x="1495" d="M354 1427v-1271q442 684 758 1271h176v-1427h-145v1214q-374 -678 -735 -1214h-201v1427h147z" />
<glyph unicode="&#x419;" horiz-adv-x="1495" d="M354 156v1271h-147v-1427h201q361 536 735 1214v-1214h145v1427h-176q-316 -587 -758 -1271zM485 1784h111q0 -83 38 -112.5t124 -29.5q85 0 124.5 30t39.5 112h106q0 -132 -67 -195t-205 -63q-135 0 -203 63t-68 195z" />
<glyph unicode="&#x41a;" horiz-adv-x="1263" d="M1251 0h-176q-64 148 -120 255t-112 184t-107 125t-114 77.5t-124 42.5t-144 18v-702h-147v1427h147v-694q112 82 301 273t375 421h195q-217 -254 -386.5 -423t-246.5 -220q52 -14 85 -25.5t79.5 -36t83 -58.5t85 -91t96 -134t106 -187.5t124.5 -251.5z" />
<glyph unicode="&#x41b;" horiz-adv-x="1462" d="M1112 1305h-602q-17 -296 -90 -652.5t-176 -652.5h-158q261 796 289 1427h882v-1427h-145v1305z" />
<glyph unicode="&#x41c;" horiz-adv-x="1779" d="M895 356q188 491 473 1071h207v-1427h-148v1264q-225 -488 -487 -1108h-109q-258 618 -481 1108v-1264h-143v1427h221q268 -561 467 -1071z" />
<glyph unicode="&#x41d;" horiz-adv-x="1462" d="M354 698v-698h-147v1427h147v-596h758v596h145v-1427h-145v698h-758z" />
<glyph unicode="&#x41e;" horiz-adv-x="1554" d="M776 -29q-138 0 -238.5 21.5t-180.5 72.5t-128.5 137t-74 214t-25.5 305q0 174 25.5 300.5t74.5 211.5t129 135.5t180.5 72t237.5 21.5q138 0 238.5 -21.5t181 -72t129.5 -135.5t74.5 -211.5t25.5 -300.5q0 -177 -25.5 -305t-74 -214t-129 -137t-181 -72.5t-239.5 -21.5z M776 1337q-96 0 -162.5 -9.5t-124 -35t-93 -69t-61 -113t-36 -165.5t-10.5 -228q0 -126 10.5 -218.5t35.5 -162.5t61.5 -114.5t93 -72t124.5 -38.5t162 -11q115 0 193 16.5t138.5 56.5t94.5 112t51 176.5t17 255.5q0 132 -10.5 228t-36.5 165.5t-62 113t-94.5 69t-126 35 t-164.5 9.5z" />
<glyph unicode="&#x41f;" horiz-adv-x="1462" d="M354 1305v-1305h-147v1427h1050v-1427h-145v1305h-758z" />
<glyph unicode="&#x420;" horiz-adv-x="1331" d="M354 655h488q121 0 182 84.5t61 227.5q0 161 -59.5 249.5t-173.5 88.5h-498v-650zM354 0h-147v1427h637q405 0 405 -462q0 -88 -21 -163.5t-65 -139.5t-123.5 -101t-185.5 -37h-500v-524z" />
<glyph unicode="&#x421;" horiz-adv-x="1232" d="M129 727q0 146 17.5 257.5t54 193t88.5 136t127.5 87.5t163 47t202.5 14q96 0 206.5 -15t193.5 -40l-47 -133q-62 25 -162.5 40t-188.5 15q-97 0 -162.5 -8t-125 -31.5t-95.5 -65t-63 -109t-38 -162t-11 -226.5q0 -131 11 -227t37.5 -166t63.5 -113.5t95.5 -69.5 t125.5 -35.5t162 -9.5q86 0 187 15t164 39l47 -131q-83 -26 -193.5 -42t-206.5 -16q-137 0 -238.5 23t-182 75.5t-130.5 140t-76 215.5t-26 302z" />
<glyph unicode="&#x422;" horiz-adv-x="1163" d="M657 1305v-1305h-149v1305h-496v122h1139v-122h-494z" />
<glyph unicode="&#x423;" horiz-adv-x="1140" d="M438 0h-176q133 176 230 348q-63 200 -218 533.5t-284 545.5h168q115 -206 232 -456.5t194 -466.5q303 600 413 923h154q-140 -357 -337.5 -752.5t-375.5 -674.5z" />
<glyph unicode="&#x424;" horiz-adv-x="1517" d="M664 1427h147v-206q174 -5 290 -38t183 -98t94 -152.5t27 -215.5t-27 -215.5t-93.5 -153.5t-183 -99t-290.5 -38v-211h-147v211q-170 6 -284 39.5t-179.5 99.5t-92 153.5t-26.5 213.5q0 127 26.5 214t92 152.5t179 98.5t284.5 39v206zM1262 715q0 84 -9.5 139.5 t-37 103.5t-78 75t-130 43.5t-196.5 19.5v-760q116 4 196 21t130.5 44.5t78 75.5t37 102.5t9.5 135.5zM225 715q0 -81 9.5 -135t36 -101.5t75.5 -75.5t127 -45.5t191 -21.5v760q-114 -4 -191.5 -21t-126.5 -44.5t-75.5 -75.5t-36 -102.5t-9.5 -137.5z" />
<glyph unicode="&#x425;" horiz-adv-x="1327" d="M1108 1427h172q-252 -349 -516 -696q370 -498 536 -731h-178q-170 237 -448 612q-198 -259 -475 -612h-172q302 382 561 723q-189 247 -545 704h178q255 -321 455 -583q256 339 432 583z" />
<glyph unicode="&#x426;" horiz-adv-x="1519" d="M354 1427v-1304h758v1304h145v-1304h263l-41 -438h-125v315h-1147v1427h147z" />
<glyph unicode="&#x427;" horiz-adv-x="1230" d="M524 416q-75 0 -133 5t-114.5 18.5t-97.5 36.5t-76.5 59.5t-57 86.5t-33.5 118t-12 155v532h147v-505q0 -94 15 -159.5t43 -106.5t76.5 -64t105.5 -31t141 -8q144 0 246.5 39t102.5 106v729h147v-1427h-147v500q-41 -33 -141.5 -58.5t-211.5 -25.5z" />
<glyph unicode="&#x428;" horiz-adv-x="1853" d="M854 1427h147v-1304h500v1304h146v-1427h-1440v1427h147v-1304h500v1304z" />
<glyph unicode="&#x429;" horiz-adv-x="1908" d="M854 1427h147v-1304h500v1304h146v-1304h262l-41 -438h-125v315h-1536v1427h147v-1304h500v1304z" />
<glyph unicode="&#x42a;" horiz-adv-x="1390" d="M31 1427h360v-602h539q89 0 155.5 -20.5t109 -56t68.5 -90t36 -116t10 -139.5q0 -198 -92 -300.5t-265 -102.5h-708v1305h-213v122zM391 123h559q201 0 201 283q0 136 -51.5 217.5t-157.5 81.5h-551v-582z" />
<glyph unicode="&#x42b;" horiz-adv-x="1777" d="M354 123h559q201 0 201 283q0 136 -51.5 217.5t-157.5 81.5h-551v-582zM207 1427h147v-602h539q89 0 155.5 -20.5t109 -56t68.5 -90t36 -116t10 -139.5q0 -198 -92 -300.5t-265 -102.5h-708v1427zM1423 1427h148v-1427h-148v1427z" />
<glyph unicode="&#x42c;" horiz-adv-x="1353" d="M354 123h559q201 0 201 283q0 136 -51.5 217.5t-157.5 81.5h-551v-582zM207 1427h147v-602h539q89 0 155.5 -20.5t109 -56t68.5 -90t36 -116t10 -139.5q0 -198 -92 -300.5t-265 -102.5h-708v1427z" />
<glyph unicode="&#x42d;" horiz-adv-x="1247" d="M958 705h-708v120h706q-5 109 -19 188.5t-42.5 136t-65 91t-94 54.5t-120 27t-152.5 7q-88 0 -188 -15t-162 -40l-47 133q83 25 193.5 40t205.5 15q115 0 202.5 -14t163 -47t127.5 -87.5t88.5 -136t54 -193t17.5 -257.5q0 -174 -26 -302t-76 -215.5t-130.5 -140 t-182 -75.5t-238.5 -23q-96 0 -206 16t-193 42l47 131q63 -24 163.5 -39t186.5 -15q93 0 159.5 9.5t124.5 34.5t95 67.5t64 109.5t39 159.5t13 218.5z" />
<glyph unicode="&#x42e;" horiz-adv-x="1888" d="M354 698v-698h-147v1427h147v-596h396q7 184 40.5 307.5t99 194.5t152 100t211.5 29q107 0 184.5 -20.5t140.5 -69.5t101.5 -132.5t59 -208.5t20.5 -298q0 -218 -30 -365.5t-94.5 -235t-156.5 -124.5t-225 -37q-129 0 -219.5 35.5t-155.5 119t-96.5 224.5t-33.5 348h-394 zM1251 1343q-58 0 -100 -6.5t-81 -23t-65.5 -46t-48 -74.5t-34 -110t-19 -151t-6.5 -199q0 -249 36.5 -387t111 -193t206.5 -55q135 0 210.5 55t112 193t36.5 387q0 132 -8 227.5t-27.5 163.5t-46 110.5t-69.5 67t-91 33t-117 8.5z" />
<glyph unicode="&#x42f;" horiz-adv-x="1382" d="M539 1427h637v-1427h-148v618h-270q-62 0 -108 -11.5t-99.5 -49t-100 -104.5t-99.5 -180t-107 -273h-174q105 259 181 392.5t138.5 183.5t155.5 69q-91 0 -162.5 19.5t-118 52.5t-76.5 80.5t-42.5 100.5t-12.5 116q0 87 19.5 157.5t64 130t126 92.5t196.5 33zM1028 1305 h-489q-117 0 -179.5 -74.5t-62.5 -214.5q0 -126 64 -197t188 -71h479v557z" />
<glyph unicode="&#x430;" horiz-adv-x="1110" d="M954 662v-609q-83 -37 -199.5 -59.5t-217.5 -22.5q-228 0 -324 75.5t-96 272.5q0 86 21 148.5t55.5 99.5t89.5 59t111 29t132 7q143 0 295 -33q0 98 -13 155.5t-50 92.5t-92.5 47t-149.5 12q-182 0 -297 -49l-39 125q177 51 344 51q117 0 195 -18.5t132.5 -64.5 t78.5 -123.5t24 -194.5zM821 139v377q-114 27 -278 27q-68 0 -109 -4t-77 -16t-54 -36t-27.5 -61.5t-9.5 -95.5q0 -64 8.5 -104.5t26 -68t52 -41.5t77.5 -19t113 -5q148 0 278 47z" />
<glyph unicode="&#x431;" horiz-adv-x="1155" d="M963 1470v-129q-116 -57 -365 -81q-66 -6 -113 -18.5t-81.5 -36t-56.5 -50t-37.5 -72.5t-24 -90.5t-17.5 -115.5q96 145 326 145q110 0 188 -26.5t134 -87.5t83 -163.5t27 -252.5t-27.5 -250.5t-88 -160.5t-145 -85t-208.5 -25q-147 0 -239 56t-140.5 189.5t-48.5 356.5 q0 167 11.5 289.5t38 210.5t61.5 144.5t91 92t117.5 52t149.5 24.5q233 22 365 84zM272 496q0 -206 71.5 -302t213.5 -96q76 0 126.5 10t90.5 34.5t61.5 70.5t32.5 114t11 169q0 158 -29.5 244.5t-90.5 120.5t-169 34q-98 0 -158 -18.5t-96.5 -67t-50 -121.5t-13.5 -192z " />
<glyph unicode="&#x432;" horiz-adv-x="1128" d="M698 123q89 0 124.5 41t35.5 133q0 201 -166 201h-403v-375h409zM682 614q84 0 118 41t34 115q0 79 -32 110t-120 31h-393v-297h393zM770 559q236 -8 236 -266q0 -145 -73.5 -219t-211.5 -74h-565v1034h546q82 0 138 -19.5t84 -56t39.5 -77t11.5 -93.5q0 -51 -7.5 -86.5 t-28 -68t-62.5 -51t-107 -23.5z" />
<glyph unicode="&#x433;" horiz-adv-x="819" d="M156 1034h657v-123h-524v-911h-133v1034z" />
<glyph unicode="&#x434;" horiz-adv-x="1189" d="M16 123h170q145 459 166 911h629v-911h188l-34 -385h-101v262h-882v-262h-101zM848 911h-369q-34 -368 -153 -788h522v788z" />
<glyph unicode="&#x435;" horiz-adv-x="1118" d="M594 1063q114 0 190 -25.5t130 -89t78 -171.5t24 -273h-740q1 -101 14.5 -171.5t39.5 -117t69.5 -73t96.5 -36.5t129 -10q58 0 145.5 16t151.5 40l30 -123q-79 -25 -177 -41.5t-163 -16.5q-122 0 -208.5 27t-150 89.5t-94 170t-30.5 264.5q0 151 29 255.5t89 167.5 t144.5 90.5t202.5 27.5zM594 938q-165 0 -234 -66.5t-81 -246.5h585q-6 129 -34.5 196.5t-82 92t-153.5 24.5z" />
<glyph unicode="&#x436;" horiz-adv-x="1386" d="M156 0h-156q73 137 135.5 236.5t103 153t86 91t67.5 49.5t63 29q-89 65 -424 475h162q286 -352 434 -493v493h133v-493q162 158 434 493h162q-335 -410 -424 -475q41 -17 63 -29t67 -49.5t85.5 -91t103 -153t135.5 -236.5h-155q-60 117 -116 204t-102 140t-92.5 88 t-82.5 49.5t-78 22.5v-504h-133v504q-42 -8 -78.5 -22.5t-83 -49.5t-92 -88t-101.5 -140t-116 -204z" />
<glyph unicode="&#x437;" horiz-adv-x="1024" d="M612 555q283 -13 283 -274q0 -169 -116.5 -239.5t-358.5 -70.5q-208 0 -338 43l39 121q114 -41 299 -41q131 0 203 20.5t101.5 64.5t29.5 124q0 108 -73.5 154.5t-242.5 46.5h-153v117h153q158 0 223.5 34t65.5 127q0 86 -66.5 122t-240.5 36q-179 0 -289 -41l-37 123 q61 18 154.5 29.5t171.5 11.5q232 0 338 -63t106 -191q0 -40 -6 -73t-23 -65.5t-44.5 -55.5t-73 -39t-105.5 -21z" />
<glyph unicode="&#x438;" horiz-adv-x="1136" d="M848 0v813q-206 -360 -559 -813h-133v1034h133v-841q260 338 559 841h133v-1034h-133z" />
<glyph unicode="&#x439;" horiz-adv-x="1136" d="M848 0v813q-206 -360 -559 -813h-133v1034h133v-841q260 338 559 841h133v-1034h-133zM303 1427h111q0 -83 37.5 -112t123.5 -29q85 0 124.5 29.5t39.5 111.5h107q0 -132 -67.5 -195t-205.5 -63q-135 0 -202.5 63t-67.5 195z" />
<glyph unicode="&#x43a;" horiz-adv-x="978" d="M979 0h-164q-82 147 -157.5 247t-141.5 152t-116.5 74.5t-110.5 32.5v-506h-133v1034h133v-497q148 125 485 497h172q-374 -415 -461 -471q43 -16 69 -29.5t72.5 -50.5t91.5 -92t112.5 -154t148.5 -237z" />
<glyph unicode="&#x43b;" horiz-adv-x="1075" d="M786 911h-368q-20 -211 -72 -457.5t-119 -453.5h-145q186 527 209 1034h629v-1034h-134v911z" />
<glyph unicode="&#x43c;" horiz-adv-x="1402" d="M709 266q135 363 323 768h215v-1034h-133v915q-204 -436 -352 -841h-125q-201 517 -348 841v-915h-133v1034h223q206 -454 330 -768z" />
<glyph unicode="&#x43d;" horiz-adv-x="1136" d="M848 504h-559v-504h-133v1034h133v-413h559v413h133v-1034h-133v504z" />
<glyph unicode="&#x43e;" horiz-adv-x="1198" d="M598 -29q-125 0 -210 26.5t-144.5 90t-87 169.5t-27.5 265q0 157 27.5 262t88 166.5t145 87t208.5 25.5q100 0 173 -16t131.5 -53t94 -99.5t54 -154.5t18.5 -218q0 -159 -27.5 -265t-87.5 -169.5t-145 -90t-211 -26.5zM598 936q-77 0 -127 -10t-90 -35.5t-61.5 -73.5 t-32.5 -120t-11 -179q0 -169 31 -259t98.5 -125.5t192.5 -35.5q95 0 154 18t99 66.5t55.5 128t15.5 207.5q0 134 -15.5 214.5t-56 126.5t-98 61.5t-154.5 15.5z" />
<glyph unicode="&#x43f;" horiz-adv-x="1136" d="M848 911h-559v-911h-133v1034h825v-1034h-133v911z" />
<glyph unicode="&#x440;" horiz-adv-x="1171" d="M573 -29q-177 0 -284 86v-450h-133v1374q82 37 200.5 59.5t216.5 22.5q124 0 208.5 -25.5t145 -87t88 -166.5t27.5 -262q0 -159 -27.5 -265t-87 -169.5t-144.5 -90t-210 -26.5zM573 936q-165 0 -284 -43v-647q0 -69 81.5 -108.5t202.5 -39.5q125 0 192.5 35.5t98.5 125.5 t31 259q0 107 -11 179t-32.5 120t-61.5 73.5t-90 35.5t-127 10z" />
<glyph unicode="&#x441;" horiz-adv-x="954" d="M881 152l43 -123q-57 -26 -142 -42t-153 -16q-125 0 -214.5 27t-155.5 89.5t-98 170t-32 264.5q0 156 32.5 262.5t99 167t155 86t213.5 25.5q66 0 153.5 -15t141.5 -36l-43 -125q-104 49 -252 49q-77 0 -130 -9.5t-98 -36t-71 -73.5t-40 -120.5t-14 -178.5 q0 -125 20.5 -207t66 -129t108.5 -65.5t158 -18.5q131 0 252 54z" />
<glyph unicode="&#x442;" horiz-adv-x="985" d="M559 911v-911h-133v911h-406v123h945v-123h-406z" />
<glyph unicode="&#x443;" horiz-adv-x="1042" d="M432 -49q-200 708 -381 1083h150q160 -360 319 -915q219 527 326 915h145q-126 -420 -385 -1034q-82 -200 -186 -393h-156q77 142 168 344z" />
<glyph unicode="&#x444;" horiz-adv-x="1734" d="M801 -393v450q-107 -86 -244 -86q-109 0 -186 27t-133 89.5t-82.5 170t-26.5 264.5q0 156 27 262t83 167t132.5 86.5t185.5 25.5q90 0 244 -37v401h133v-401q151 37 244 37q109 0 185.5 -25.5t132.5 -86.5t83 -167t27 -262q0 -157 -26.5 -264.5t-82.5 -170t-133 -89.5 t-186 -27q-137 0 -244 86v-450h-133zM1178 936q-125 0 -244 -43v-655q4 -66 73.5 -103t170.5 -37q105 0 163.5 35t87.5 126.5t29 258.5q0 106 -10.5 179t-30 120t-54.5 73t-78 36t-107 10zM557 936q-64 0 -107 -10t-78.5 -36t-55 -73t-30 -120t-10.5 -179q0 -126 15 -207.5 t50.5 -128.5t86 -65.5t129.5 -18.5q104 0 174 39.5t70 108.5v647q-119 43 -244 43z" />
<glyph unicode="&#x445;" horiz-adv-x="1069" d="M1001 0h-165q-128 205 -281 416q-116 -155 -328 -416h-164q210 243 416 518q-181 245 -416 516h185q206 -258 311 -405q127 172 279 405h161q-182 -269 -362 -510q147 -198 364 -524z" />
<glyph unicode="&#x446;" horiz-adv-x="1189" d="M981 1034v-911h188l-34 -385h-101v262h-878v1034h133v-911h559v911h133z" />
<glyph unicode="&#x447;" horiz-adv-x="1077" d="M487 340q-109 0 -180 21.5t-120 76.5t-70 147t-21 234v215h133v-188q0 -120 13 -192.5t46.5 -115t82.5 -57t131 -14.5q117 0 201.5 39t84.5 106v422h134v-1034h-134v424q-42 -34 -125.5 -59t-175.5 -25z" />
<glyph unicode="&#x448;" horiz-adv-x="1611" d="M1323 123v911h133v-1034h-1300v1034h133v-911h450v911h133v-911h451z" />
<glyph unicode="&#x449;" horiz-adv-x="1665" d="M1509 -262v262h-1353v1034h133v-911h450v911h133v-911h451v911h133v-911h189l-35 -385h-101z" />
<glyph unicode="&#x44a;" horiz-adv-x="1216" d="M0 1034h387v-413h399q167 0 242.5 -72.5t75.5 -226.5q0 -168 -75 -245t-243 -77h-532v911h-254v123zM786 123q92 0 131 43.5t39 152.5q0 102 -40 143.5t-130 41.5h-399v-381h399z" />
<glyph unicode="&#x44b;" horiz-adv-x="1435" d="M688 123q92 0 131 43.5t39 152.5q0 102 -40 143.5t-130 41.5h-399v-381h399zM289 621h399q167 0 242.5 -72.5t75.5 -226.5q0 -168 -75 -245t-243 -77h-532v1034h133v-413zM1280 1034v-1034h-133v1034h133z" />
<glyph unicode="&#x44c;" horiz-adv-x="1118" d="M688 123q92 0 131 43.5t39 152.5q0 102 -40 143.5t-130 41.5h-399v-381h399zM289 621h399q167 0 242.5 -72.5t75.5 -226.5q0 -168 -75 -245t-243 -77h-532v1034h133v-413z" />
<glyph unicode="&#x44d;" horiz-adv-x="991" d="M68 29l43 123q121 -54 251 -54q94 0 156 17.5t107.5 62.5t67 124t22.5 200h-479v123h475q-7 95 -31.5 157t-70.5 95.5t-103.5 46t-143.5 12.5q-147 0 -251 -49l-43 125q55 21 141.5 36t152.5 15q125 0 213.5 -25.5t155 -86t99 -167t32.5 -262.5q0 -157 -32 -264.5 t-98 -170t-155.5 -89.5t-214.5 -27q-68 0 -152.5 16t-141.5 42z" />
<glyph unicode="&#x44e;" horiz-adv-x="1654" d="M1075 -29q-92 0 -160.5 16t-124 53.5t-90 99t-53.5 152t-20 212.5h-338v-504h-133v1034h133v-413h340q9 127 40.5 213t89 136.5t133.5 71.5t183 21q117 0 198 -25.5t139.5 -86.5t86 -166.5t27.5 -262.5q0 -158 -27 -265t-85.5 -170t-139.5 -89.5t-199 -26.5zM1075 940 q-88 0 -142 -16.5t-92.5 -62.5t-54.5 -128.5t-16 -214.5q0 -127 16 -208t54 -129.5t93.5 -67.5t141.5 -19q87 0 142.5 19t94 67.5t54.5 129.5t16 208q0 106 -11 179t-32.5 121.5t-60 74.5t-85.5 36.5t-118 10.5z" />
<glyph unicode="&#x44f;" horiz-adv-x="1126" d="M461 1034h510v-1034h-133v436h-193q-66 0 -111.5 -15t-95.5 -61t-100 -132t-113 -228h-151q68 143 119.5 233.5t94 139.5t75.5 68t75 26q-157 0 -229 73.5t-72 192.5q0 64 16 115.5t51 94.5t100.5 67t156.5 24zM469 551h369v360h-377q-95 0 -137.5 -39t-42.5 -137 q0 -94 45 -139t143 -45z" />
<glyph unicode="&#x451;" horiz-adv-x="1118" d="M594 1063q114 0 190 -25.5t130 -89t78 -171.5t24 -273h-740q1 -101 14.5 -171.5t39.5 -117t69.5 -73t96.5 -36.5t129 -10q58 0 145.5 16t151.5 40l30 -123q-79 -25 -177 -41.5t-163 -16.5q-122 0 -208.5 27t-150 89.5t-94 170t-30.5 264.5q0 151 29 255.5t89 167.5 t144.5 90.5t202.5 27.5zM594 938q-165 0 -234 -66.5t-81 -246.5h585q-6 129 -34.5 196.5t-82 92t-153.5 24.5zM399 1346q50 0 67 -15t17 -65q0 -55 -17.5 -71.5t-66.5 -16.5q-51 0 -68.5 16.5t-17.5 71.5q0 51 17 65.5t69 14.5zM786 1346q50 0 67 -15t17 -65 q0 -55 -17.5 -71.5t-66.5 -16.5q-51 0 -68.5 16.5t-17.5 71.5q0 51 17 65.5t69 14.5z" />
<glyph unicode="&#x452;" horiz-adv-x="1120" d="M289 1219v-240q42 34 125.5 59t175.5 25q89 0 150 -14.5t111.5 -53t79.5 -106t44.5 -171.5t15.5 -253q0 -648 -373 -813l-67 106q35 14 59.5 27t58 39t56.5 58.5t48 86t40 120.5t25 163t10 213q0 124 -9 206t-27 135.5t-52.5 81.5t-76 38t-108.5 10q-114 0 -198 -37.5 t-88 -101.5v-797h-133v1219h-131v106h131v154h133v-154h250v-106h-250z" />
<glyph unicode="&#x453;" horiz-adv-x="819" d="M156 1034h657v-121h-524v-913h-133v1034zM510 1163h-141l243 264h170z" />
<glyph unicode="&#x454;" horiz-adv-x="991" d="M881 152l43 -123q-57 -26 -142 -42t-153 -16q-125 0 -214.5 27t-155.5 89.5t-98 170t-32 264.5q0 156 32.5 262.5t99 167t155 86t213.5 25.5q66 0 153.5 -15t141.5 -36l-43 -125q-104 49 -252 49q-86 0 -143 -12.5t-103 -46t-70.5 -95.5t-31.5 -157h475v-123h-480 q1 -121 22.5 -200t67 -124t107.5 -62.5t156 -17.5q131 0 252 54z" />
<glyph unicode="&#x455;" horiz-adv-x="1032" d="M827 883q-145 57 -295 57q-72 0 -116.5 -6.5t-80.5 -25.5t-51.5 -56.5t-15.5 -97.5q0 -77 59.5 -114t198.5 -46q202 -14 292.5 -83.5t90.5 -213.5q0 -180 -94 -253t-305 -73q-82 0 -191 15.5t-182 40.5l41 125q53 -25 152.5 -42.5t179.5 -17.5q54 0 91.5 4.5t70 16.5 t52 33.5t30 55.5t10.5 83q0 86 -54.5 127t-199.5 53q-199 14 -293 75t-94 201q0 177 100 249.5t309 72.5q152 0 340 -53z" />
<glyph unicode="&#x456;" horiz-adv-x="444" d="M289 0v1034h-133v-1034h133zM225 1427q50 0 67 -14.5t17 -64.5q0 -55 -17.5 -71.5t-66.5 -16.5q-51 0 -68.5 16.5t-17.5 71.5q0 51 17 65t69 14z" />
<glyph unicode="&#x457;" horiz-adv-x="444" d="M289 1034v-1034h-133v1034h133zM29 1346q50 0 67 -15t17 -65q0 -55 -17.5 -71.5t-66.5 -16.5q-51 0 -68.5 16.5t-17.5 71.5q0 51 17 65.5t69 14.5zM416 1346q50 0 67 -15t17 -65q0 -55 -17.5 -71.5t-66.5 -16.5q-51 0 -68.5 16.5t-17.5 71.5q0 51 17 65.5t69 14.5z" />
<glyph unicode="&#x458;" horiz-adv-x="444" d="M225 1427q50 0 67 -14.5t17 -64.5q0 -55 -17.5 -71.5t-66.5 -16.5q-51 0 -68.5 16.5t-17.5 71.5q0 51 17 65t69 14zM-49 -416v123q55 0 89.5 8.5t62.5 32.5t40.5 71.5t12.5 123.5v1091h133v-1091q0 -89 -17 -153.5t-45.5 -104t-73.5 -62.5t-92 -31t-110 -8z" />
<glyph unicode="&#x459;" horiz-adv-x="1748" d="M786 911h-368q-20 -211 -72 -457.5t-119 -453.5h-145q186 527 209 1034h629v-413h399q167 0 242 -72.5t75 -226.5q0 -168 -74.5 -245t-242.5 -77h-533v911zM1319 123q92 0 131 43.5t39 152.5q0 102 -40 143.5t-130 41.5h-399v-381h399z" />
<glyph unicode="&#x45a;" horiz-adv-x="1810" d="M981 621h399q167 0 242.5 -72.5t75.5 -226.5q0 -168 -75 -245t-243 -77h-532v504h-559v-504h-133v1034h133v-413h559v413h133v-413zM1380 123q92 0 131 43.5t39 152.5q0 102 -40 143.5t-130 41.5h-399v-381h399z" />
<glyph unicode="&#x45b;" horiz-adv-x="1134" d="M289 791v-791h-133v1219h-131v106h131v154h133v-154h250v-106h-250v-240q42 34 125.5 59t175.5 25q109 0 180 -21.5t120 -76.5t70 -147t21 -234v-584h-133v557q0 120 -13 192.5t-46.5 115t-82.5 57t-131 14.5q-117 0 -201.5 -39t-84.5 -106z" />
<glyph unicode="&#x45c;" horiz-adv-x="978" d="M979 0h-164q-82 147 -157.5 247t-141.5 152t-116.5 74.5t-110.5 32.5v-506h-133v1034h133v-497q148 125 485 497h172q-374 -415 -461 -471q43 -16 69 -29.5t72.5 -50.5t91.5 -92t112.5 -154t148.5 -237zM559 1163h-141l244 264h169z" />
<glyph unicode="&#x45e;" horiz-adv-x="1042" d="M432 -49q-91 -202 -168 -344h156q104 193 186 393q259 614 385 1034h-145q-107 -388 -326 -915q-159 555 -319 915h-150q181 -375 381 -1083zM256 1438h111q0 -83 37.5 -112.5t123.5 -29.5q85 0 124.5 30t39.5 112h107q0 -132 -67.5 -195t-205.5 -63q-135 0 -202.5 63 t-67.5 195z" />
<glyph unicode="&#x45f;" horiz-adv-x="1136" d="M981 0h-307l-43 -336h-109l-43 336h-323v1034h133v-911h559v911h133v-1034z" />
<glyph unicode="&#x490;" horiz-adv-x="1091" d="M207 1427h729l47 336h109v-458h-738v-1305h-147v1427z" />
<glyph unicode="&#x491;" horiz-adv-x="819" d="M813 911h-524v-911h-133v1034h512l37 295h108v-418z" />
<glyph unicode="&#x2000;" horiz-adv-x="897" />
<glyph unicode="&#x2001;" horiz-adv-x="1794" />
<glyph unicode="&#x2002;" horiz-adv-x="897" />
<glyph unicode="&#x2003;" horiz-adv-x="1794" />
<glyph unicode="&#x2004;" horiz-adv-x="598" />
<glyph unicode="&#x2005;" horiz-adv-x="448" />
<glyph unicode="&#x2006;" horiz-adv-x="299" />
<glyph unicode="&#x2007;" horiz-adv-x="299" />
<glyph unicode="&#x2008;" horiz-adv-x="224" />
<glyph unicode="&#x2009;" horiz-adv-x="358" />
<glyph unicode="&#x200a;" horiz-adv-x="99" />
<glyph unicode="&#x2013;" horiz-adv-x="1114" d="M109 502v123h897v-123h-897z" />
<glyph unicode="&#x2014;" horiz-adv-x="1714" d="M109 502v123h1497v-123h-1497z" />
<glyph unicode="&#x2018;" horiz-adv-x="442" d="M49 1034l223 527h123l-159 -527h-187z" />
<glyph unicode="&#x2019;" horiz-adv-x="440" d="M393 1561l-223 -527h-123l160 527h186z" />
<glyph unicode="&#x201a;" horiz-adv-x="440" d="M393 201l-223 -527h-123l160 527h186z" />
<glyph unicode="&#x201c;" horiz-adv-x="772" d="M381 1034l223 527h123l-160 -527h-186zM49 1034l223 527h123l-159 -527h-187z" />
<glyph unicode="&#x201d;" horiz-adv-x="772" d="M393 1561l-223 -527h-123l160 527h186zM725 1561l-223 -527h-123l160 527h186z" />
<glyph unicode="&#x201e;" horiz-adv-x="772" d="M393 201l-223 -527h-123l160 527h186zM725 201l-223 -527h-123l160 527h186z" />
<glyph unicode="&#x2020;" horiz-adv-x="860" d="M61 1061v110h308v314h123v-314h307v-110h-307v-518h-123v518h-308z" />
<glyph unicode="&#x2021;" horiz-adv-x="860" d="M61 1061v110h308v314h123v-314h307v-110h-307v-266h307v-111h-307v-313h-123v313h-308v111h308v266h-308z" />
<glyph unicode="&#x2022;" horiz-adv-x="1198" d="M598 115q-125 0 -210 26.5t-144.5 90t-87 169.5t-27.5 265q0 157 27.5 262t88 166.5t145 86.5t208.5 25q125 0 210 -25t145.5 -86.5t88 -166.5t27.5 -262q0 -159 -27.5 -265t-87.5 -169.5t-145 -90t-211 -26.5z" />
<glyph unicode="&#x2026;" horiz-adv-x="2480" d="M518 211q66 0 87.5 -18t21.5 -82q0 -69 -22 -90t-87 -21q-61 0 -82.5 21.5t-21.5 89.5q0 63 21 81.5t83 18.5zM1239 211q65 0 87 -18.5t22 -81.5q0 -68 -22.5 -89.5t-86.5 -21.5q-61 0 -83.5 21.5t-22.5 89.5q0 63 22 81.5t84 18.5zM1958 211q65 0 86.5 -18t21.5 -82 q0 -69 -21.5 -90t-86.5 -21q-60 0 -82.5 21.5t-22.5 89.5q0 63 22 81.5t83 18.5z" />
<glyph unicode="&#x202f;" horiz-adv-x="358" />
<glyph unicode="&#x2030;" horiz-adv-x="2476" d="M1210 1427h146l-807 -1427h-146zM418 567q-107 0 -174 39.5t-104.5 141.5t-37.5 274q0 104 13.5 180t38.5 126t64.5 80t87.5 42t112 12q81 0 137 -20t97.5 -68.5t61 -135t19.5 -216.5q0 -131 -19.5 -219.5t-61 -140t-97.5 -73.5t-137 -22zM418 1354q-71 0 -110 -25.5 t-60 -99t-21 -211.5q0 -192 44.5 -268t146.5 -76q105 0 147.5 75t42.5 269q0 139 -19.5 211.5t-58.5 98.5t-112 26zM1348 -29q-107 0 -174 39.5t-104.5 141.5t-37.5 274q0 104 13.5 180t38.5 126t64.5 80t87.5 42t112 12q81 0 137 -20t97.5 -68.5t61 -135t19.5 -216.5 q0 -131 -19.5 -219.5t-61 -140t-97.5 -73.5t-137 -22zM1348 758q-71 0 -110 -25.5t-60 -99t-21 -211.5q0 -192 44.5 -268t146.5 -76q105 0 147.5 75t42.5 269q0 139 -19.5 211.5t-58.5 98.5t-112 26zM2058 -29q-64 0 -112 13.5t-87.5 45.5t-64 84t-38 129.5t-13.5 182.5 q0 129 19.5 216t61.5 135.5t97.5 68.5t136.5 20t137 -20t98 -68.5t61.5 -135t19.5 -216.5t-20 -219t-61 -140.5t-97.5 -73.5t-137.5 -22zM2058 758q-71 0 -109.5 -25.5t-59.5 -99t-21 -211.5q0 -192 44 -268t146 -76q106 0 148.5 75t42.5 269q0 139 -20 212t-59 98.5 t-112 25.5z" />
<glyph unicode="&#x2039;" horiz-adv-x="765" d="M698 1073l-444 -455l444 -466l-75 -91l-553 551l548 549z" />
<glyph unicode="&#x203a;" horiz-adv-x="765" d="M72 152l444 454l-444 467l75 90l553 -551l-548 -549z" />
<glyph unicode="&#x2044;" horiz-adv-x="1081" d="M870 1427h146l-807 -1427h-146z" />
<glyph unicode="&#x205f;" horiz-adv-x="448" />
<glyph unicode="&#x20a3;" horiz-adv-x="1144" d="M106 328v112h101v987h962v-122h-815v-549h506v-121h-506v-195h199v-112h-199v-328h-147v328h-101z" />
<glyph unicode="&#x20ac;" horiz-adv-x="1232" d="M129 727q0 146 17.5 257.5t54 193t88.5 136t127.5 87.5t163 47t202.5 14q96 0 206.5 -15t193.5 -40l-47 -133q-62 25 -162.5 40t-188.5 15q-94 0 -158.5 -7.5t-122.5 -29t-95 -60t-63.5 -100t-39.5 -149.5h598v-123h-612q-2 -43 -2 -133q0 -92 2 -131h612v-121h-598 q16 -114 50.5 -186.5t96 -112.5t138.5 -55t194 -15q86 0 187 15t164 39l47 -131q-83 -26 -193.5 -42t-206.5 -16q-137 0 -238.5 23t-182 75.5t-130.5 140t-76 215.5t-26 302z" />
<glyph unicode="&#x2116;" horiz-adv-x="2246" d="M354 1278v-1278h-147v1427h201q357 -530 731 -1208v1208h149v-1427h-176q-338 629 -758 1278zM1792 698q-117 0 -186.5 34t-105.5 119t-36 232q0 111 19.5 184.5t61.5 116.5t101 60.5t146 17.5q88 0 147 -17.5t101.5 -60.5t62 -116.5t19.5 -184.5q0 -217 -77 -301 t-253 -84zM1792 1354q-85 0 -126.5 -20.5t-60 -78t-18.5 -174.5q0 -163 41.5 -218.5t163.5 -55.5t164.5 56t42.5 218q0 117 -19 174.5t-61 78t-127 20.5zM1520 381v123h555v-123h-555z" />
<glyph unicode="&#x2122;" horiz-adv-x="1490" d="M365 1333v-618h-117v618h-217v94h549v-94h-215zM1075 715h-125l-188 622v-622h-103v712h172l189 -600l184 600h164v-712h-104v622z" />
<glyph unicode="&#x212e;" horiz-adv-x="1413" d="M1323 692h-1034q1 -120 13 -209t38.5 -155t63.5 -108t94.5 -68t125 -36t160.5 -10q86 0 187 15t164 39l47 -131q-83 -26 -193.5 -42t-206.5 -16q-172 0 -290.5 37t-202 123.5t-122 231.5t-38.5 358q0 172 27 300.5t76 212t125.5 135t167.5 72.5t210 21t208.5 -22.5 t163 -76t120 -141.5t71.5 -220t25 -310zM735 1337q-89 0 -152.5 -12t-119 -45.5t-90 -91.5t-56 -150.5t-26.5 -222.5h874q-3 159 -30 262t-83.5 160t-130.5 78.5t-186 21.5z" />
<glyph unicode="&#x2190;" horiz-adv-x="1478" d="M836 1274l-525 -443h1127v-120h-1127l525 -439l-84 -102l-711 604l709 598z" />
<glyph unicode="&#x2191;" horiz-adv-x="1478" d="M1241 674l-442 524v-1126h-121v1126l-438 -524l-103 84l604 710l598 -708z" />
<glyph unicode="&#x2192;" horiz-adv-x="1478" d="M1167 831l-524 443l86 98l709 -598l-711 -604l-84 102l524 439h-1126v120h1126z" />
<glyph unicode="&#x2193;" horiz-adv-x="1478" d="M236 866l442 -524v1126h121v-1126l438 524l102 -84l-604 -710l-598 708z" />
<glyph unicode="&#x2196;" horiz-adv-x="1478" d="M1163 1059l-684 57l797 -797l-84 -86l-797 797l60 -680l-131 -12l-76 930l923 -80z" />
<glyph unicode="&#x2197;" horiz-adv-x="1478" d="M1044 1116l-684 -57l-8 129l924 80l-76 -930l-131 12l59 680l-796 -797l-84 86z" />
<glyph unicode="&#x2198;" horiz-adv-x="1478" d="M360 440l684 -57l-796 797l84 86l796 -797l-59 680l131 12l76 -930l-924 80z" />
<glyph unicode="&#x2199;" horiz-adv-x="1478" d="M479 383l684 57l8 -129l-923 -80l76 930l131 -12l-60 -680l797 797l84 -86z" />
<glyph unicode="&#x2202;" d="M643 850q105 0 277 -21q-75 152 -209 296t-324 302h205q91 -80 160.5 -148t149 -166t131 -192.5t86 -214.5t34.5 -243q0 -152 -25.5 -247t-89.5 -152t-158.5 -78t-246.5 -21q-269 0 -390.5 110t-121.5 363q0 232 115 322t407 90zM1001 487q0 110 -30 209q-144 27 -328 27 q-114 0 -181 -12t-110 -47.5t-58 -91t-15 -150.5q0 -69 8.5 -118.5t31.5 -92.5t62.5 -68.5t102 -40t149.5 -14.5q61 0 102 3t83.5 12t68.5 26.5t50 46.5t36.5 71.5t20 101.5t7.5 138z" />
<glyph unicode="&#x220f;" horiz-adv-x="1462" d="M354 1305v-1305h-147v1427h1050v-1427h-145v1305h-758z" />
<glyph unicode="&#x2211;" horiz-adv-x="1247" d="M719 705q-253 -349 -449 -584h889v-121h-1143q302 383 535 702q-220 305 -502 725h1122v-122h-874q205 -302 422 -600z" />
<glyph unicode="&#x2212;" d="M145 672v123h981v-123h-981z" />
<glyph unicode="&#x221a;" horiz-adv-x="1110" d="M0 911v123h262q174 -404 318 -907q94 226 241.5 650.5t210.5 649.5h146q-79 -264 -241 -718t-269 -709h-189q-166 569 -311 911h-168z" />
<glyph unicode="&#x221e;" horiz-adv-x="1581" d="M731 717q0 149 -67 213.5t-218 64.5q-137 0 -195 -61t-58 -217t58 -217.5t195 -61.5q151 0 218 65.5t67 213.5zM850 719q0 -149 67 -214t218 -65q137 0 195.5 61.5t58.5 217.5t-58 217t-196 61q-151 0 -218 -65t-67 -213zM791 563q-7 -65 -30.5 -113t-55.5 -75.5 t-79.5 -43.5t-93 -21t-104.5 -5q-186 0 -276.5 97.5t-90.5 314.5t91 315t276 98q75 0 130 -9.5t108 -35.5t85 -79.5t40 -133.5q6 55 22 97t43 70t57.5 46.5t72 28t80 13t87.5 3.5q186 0 276.5 -97t90.5 -314t-91 -315.5t-276 -98.5q-59 0 -104.5 5t-92.5 21.5t-79.5 44 t-55.5 75t-30 112.5z" />
<glyph unicode="&#x222b;" horiz-adv-x="727" d="M692 1323q-86 27 -198 27q-28 0 -49 -2.5t-46.5 -9.5t-43.5 -22t-34 -38.5t-24 -61t-8 -86.5v-1187q0 -88 -19.5 -153.5t-50 -104t-76.5 -62t-91 -31.5t-101 -8q-134 0 -240 45l41 125q38 -20 96 -33.5t103 -13.5q41 0 73.5 8.5t64.5 32t49.5 73t17.5 122.5v1187 q0 87 19.5 151t50 100t77 57.5t90.5 28t101 6.5q121 0 233 -33z" />
<glyph unicode="&#x2248;" d="M1038 1028l97 -72q-37 -99 -106 -152.5t-161 -53.5q-53 0 -154.5 45.5t-200 91t-146.5 45.5q-84 0 -140 -133l-86 75q55 94 110.5 137.5t133.5 43.5q57 0 158.5 -44t198.5 -88t143 -44q49 0 86.5 34t66.5 115zM1038 647l97 -72q-37 -99 -106 -152.5t-161 -53.5 q-53 0 -154.5 45.5t-200 91t-146.5 45.5q-84 0 -140 -133l-86 76q55 94 110.5 137t133.5 43q57 0 158.5 -44t198.5 -88t143 -44q49 0 86.5 34t66.5 115z" />
<glyph unicode="&#x2260;" d="M854 1247h156l-144 -250h260v-123h-331l-172 -299h503v-122h-573l-141 -246h-152l139 246h-254v122h326l170 299h-496v123h566z" />
<glyph unicode="&#x2264;" d="M145 82v123h981v-123h-981zM1026 1305l-625 -463l625 -467l-65 -96l-734 530v61l729 529z" />
<glyph unicode="&#x2265;" d="M1128 205v-123h-981v123h981zM872 842l-624 463l69 94l730 -529v-61l-734 -530l-65 96z" />
<glyph unicode="&#x25ca;" horiz-adv-x="1032" d="M971 571q-197 -505 -316 -866h-252q-221 531 -342 866q124 343 342 867h252q121 -368 316 -867zM809 573q-133 367 -256 750h-59q-195 -487 -291 -750q107 -294 291 -753h59q131 408 256 753z" />
<glyph unicode="&#x25fc;" horiz-adv-x="1034" d="M0 1034h1034v-1034h-1034v1034z" />
<glyph unicode="&#xe01e;" horiz-adv-x="696" d="M420 1479h149l-114 -394h-80z" />
<glyph unicode="&#xf6c3;" horiz-adv-x="573" d="M442 -104l-206 -342h-109l143 342h172z" />
<glyph unicode="&#xf6c9;" horiz-adv-x="712" d="M193 1530l274 264h188l-325 -264h-137z" />
<glyph unicode="&#xf6ca;" horiz-adv-x="1366" d="M721 1610l166 184h155l-249 -264h-148l-258 264h162z" />
<glyph unicode="&#xf6cb;" horiz-adv-x="688" d="M303 1735q50 0 67 -14.5t17 -65.5q0 -55 -17.5 -71.5t-66.5 -16.5q-51 0 -68.5 16.5t-17.5 71.5q0 51 17 65.5t69 14.5zM690 1735q50 0 67 -14.5t17 -65.5q0 -55 -17.5 -71.5t-66.5 -16.5q-51 0 -68.5 16.5t-17.5 71.5q0 51 17 65.5t69 14.5z" />
<glyph unicode="&#xf6ce;" horiz-adv-x="712" d="M838 1530h-162l-328 264h191z" />
<glyph unicode="&#xf6cf;" horiz-adv-x="1292" d="M535 1794h153l-219 -264h-109zM817 1794h156l-217 -264h-111z" />
<glyph unicode="&#xf6d0;" horiz-adv-x="694" d="M279 1577v127h514v-127h-514z" />
<glyph unicode="&#xf6f9;" horiz-adv-x="819" d="M813 0h-657v307l-101 -92v141l101 93v585h133v-463l211 197v-145l-211 -195v-305h524v-123z" />
<glyph unicode="&#xf6fa;" horiz-adv-x="1736" d="M1642 0h-829q-95 -29 -215 -29q-125 0 -210 26.5t-144.5 90t-87 169.5t-27.5 265q0 157 27.5 262t88 166.5t145 87t208.5 25.5q131 0 219 -29h825v-123h-657q71 -110 82 -297h453v-116h-451q-3 -253 -88 -375h661v-123zM598 940q-96 0 -153.5 -16t-97.5 -63t-55.5 -128 t-15.5 -215q0 -170 31 -260.5t98.5 -127t192.5 -36.5q126 0 194 36.5t99 127t31 260.5q0 134 -15.5 215t-56 128t-98 63t-154.5 16z" />
<glyph unicode="&#xf6fd;" horiz-adv-x="1032" d="M827 883q-145 57 -295 57q-72 0 -116.5 -6.5t-80.5 -25.5t-51.5 -56.5t-15.5 -97.5q0 -77 59.5 -114t198.5 -46q202 -14 292.5 -83.5t90.5 -213.5q0 -180 -94 -253t-305 -73q-82 0 -191 15.5t-182 40.5l41 125q53 -25 152.5 -42.5t179.5 -17.5q54 0 91.5 4.5t70 16.5 t52 33.5t30 55.5t10.5 83q0 86 -54.5 127t-199.5 53q-199 14 -293 75t-94 201q0 177 100 249.5t309 72.5q152 0 340 -53zM358 1427l166 -176l162 176h160l-250 -264h-147l-259 264h168z" />
<glyph unicode="&#xf6ff;" horiz-adv-x="1013" d="M74 0v55q186 225 366 463.5t279 392.5h-613v123h822v-51q-136 -209 -329.5 -471.5t-303.5 -388.5h635v-123h-856zM354 1427l166 -176l162 176h160l-250 -264h-148l-258 264h168z" />
<glyph unicode="&#xf721;" horiz-adv-x="677" d="M246 1034h182l-39 -682h-102zM338 211q64 0 86 -18t22 -82q0 -69 -22 -90t-86 -21q-61 0 -84 21.5t-23 89.5q0 63 22.5 81.5t84.5 18.5z" />
<glyph unicode="&#xf726;" horiz-adv-x="1329" d="M1313 0h-152q-55 92 -123 188q-244 -217 -538 -217q-210 0 -319 71.5t-109 238.5q0 117 71 195t226 85q-60 5 -102.5 21t-66.5 37t-37 54t-16.5 63t-3.5 73q0 129 102 191.5t333 62.5q230 0 329 -62t99 -192q0 -234 -263 -254q155 -20 314 -195q94 114 141 252h139 q-69 -178 -209 -336q98 -128 185 -276zM502 94q267 0 473 180q-101 122 -198.5 176t-215.5 54q-174 0 -261 -47.5t-87 -153.5q0 -117 64 -163t225 -46zM561 621q161 0 234 34.5t73 126.5q0 59 -23 92t-86.5 49.5t-180.5 16.5q-118 0 -182.5 -16.5t-89.5 -49.5t-25 -92 q0 -93 61.5 -127t218.5 -34z" />
<glyph unicode="&#xf730;" d="M647 -29q-117 0 -201 27t-146 89.5t-92 170t-30 264.5q0 156 30.5 262.5t93 167t145.5 86t200 25.5t198 -25.5t139.5 -86.5t86 -166.5t27.5 -262.5q0 -158 -27 -265t-85.5 -170t-139.5 -89.5t-199 -26.5zM647 940q-76 0 -126.5 -10.5t-90.5 -36.5t-61.5 -74.5t-32 -121 t-10.5 -179.5q0 -128 15.5 -208.5t54.5 -129.5t98 -67.5t153 -18.5t150.5 18t92 68.5t48 128.5t12.5 209q0 109 -8.5 179.5t-27.5 120.5t-55.5 75.5t-85.5 36t-126 10.5z" />
<glyph unicode="&#xf731;" d="M840 0h-133v870l-320 -168l-49 111l502 250v-1063z" />
<glyph unicode="&#xf732;" d="M416 123h659v-123h-868v113q296 163 446 267.5t204 181t54 167.5q0 109 -67.5 155t-253.5 46q-74 0 -180 -13.5t-142 -31.5l-32 137q70 17 175 29t181 12q179 0 284 -37t148 -107.5t43 -185.5q0 -158 -151 -305.5t-500 -304.5z" />
<glyph unicode="&#xf733;" d="M788 375q79 -4 138 -25t95.5 -53.5t59 -80t31 -98t8.5 -112.5q0 -232 -132 -327t-427 -95q-198 0 -436 60l35 114q161 -49 401 -49q159 0 246.5 31t121.5 94t34 176q0 168 -84.5 234.5t-292.5 66.5h-164v121h164q188 0 271 61t83 203q0 89 -31.5 140t-112 76.5 t-225.5 25.5q-232 0 -393 -53l-37 123q253 55 430 55q282 0 401.5 -85t119.5 -263q0 -55 -7 -99t-27 -87t-53 -73.5t-88 -52t-129 -28.5z" />
<glyph unicode="&#xf734;" d="M807 121v821q-127 -156 -271 -390t-253 -431h524zM952 1034v-913h203v-121h-203v-393h-145v393h-723v31q126 233 302 518t331 485h235z" />
<glyph unicode="&#xf735;" d="M369 911v-454q105 12 231 12q194 0 307.5 -46t163 -140t49.5 -252q0 -127 -32 -213t-102 -138t-171 -74t-250 -22q-165 0 -407 60l37 114q158 -49 370 -49q120 0 197 16t121.5 54.5t62 93t17.5 139.5q0 96 -15.5 156.5t-57 101.5t-111 57.5t-179.5 16.5q-219 0 -375 -39 v729h807v-123h-663z" />
<glyph unicode="&#xf736;" d="M1137 1403l-47 -131q-140 57 -320 57q-84 0 -144.5 -7.5t-116.5 -27t-92.5 -55t-65 -92t-43.5 -137t-19 -189.5q172 35 370 35q287 0 405 -101.5t118 -336.5q0 -128 -29.5 -213.5t-94 -137.5t-158 -74t-230.5 -22q-150 0 -248 35t-164.5 122t-94.5 230.5t-28 364.5 q0 174 26.5 301t76 211.5t129 135t175.5 71t226 20.5q182 0 369 -59zM670 96q109 0 178 16t108 55t53.5 92.5t14.5 139.5q0 96 -16 156.5t-57.5 101.5t-111.5 57.5t-180 16.5q-209 0 -370 -37q1 -148 17.5 -253t45.5 -172t77 -105.5t104.5 -53t136.5 -14.5z" />
<glyph unicode="&#xf737;" d="M1176 1034v-53q-164 -266 -344.5 -658t-294.5 -716h-168q128 350 297.5 714t312.5 590h-813v123h1010z" />
<glyph unicode="&#xf738;" d="M637 96q198 0 275 68t77 233q0 168 -81.5 238t-270.5 70t-269.5 -70t-80.5 -238q0 -166 75.5 -233.5t274.5 -67.5zM637 825q168 0 242.5 64t74.5 207q0 131 -70 186t-247 55t-247.5 -55t-70.5 -186q0 -143 75.5 -207t242.5 -64zM637 -29q-259 0 -383.5 96t-124.5 326 q0 79 14.5 140t50 115t103.5 85t166 35q-74 7 -128.5 29t-86 53t-50 76t-24.5 88.5t-6 99.5q0 176 111 262t358 86t359 -86.5t112 -261.5q0 -56 -6 -99.5t-24.5 -88.5t-50 -76t-86 -53t-128.5 -29q79 -3 138 -25t95.5 -55.5t59 -82t31 -99.5t8.5 -113q0 -230 -124 -326 t-384 -96z" />
<glyph unicode="&#xf739;" d="M643 178q-292 0 -407 90t-115 322q0 253 121.5 363t390.5 110q152 0 246.5 -21t158.5 -78t89.5 -152t25.5 -247q0 -89 -17.5 -176t-46.5 -160.5t-73.5 -148.5t-90 -134.5t-105.5 -123.5t-110.5 -112t-113.5 -103h-205q192 159 323 299.5t206 292.5q-172 -21 -277 -21z M1001 541q0 79 -7.5 138t-20 101.5t-36.5 71.5t-50 46.5t-68.5 26.5t-83.5 12t-102 3q-87 0 -149.5 -14.5t-102 -40t-62.5 -68.5t-31.5 -92.5t-8.5 -118.5q0 -95 15 -150.5t58 -91t110 -47.5t181 -12q184 0 328 27q30 99 30 209z" />
<glyph unicode="&#xf73f;" horiz-adv-x="954" d="M438 211q66 0 87.5 -18t21.5 -82q0 -69 -22 -90t-87 -21q-61 0 -82.5 21.5t-21.5 89.5q0 63 21 81.5t83 18.5zM498 352h-164q301 212 301 430q0 41 -9 68t-33.5 49t-71 32.5t-118.5 10.5q-142 0 -233 -31l-35 119q46 13 129 23t139 10q199 0 291 -64.5t92 -199.5 q0 -118 -67 -227t-221 -220z" />
<glyph unicode="&#xf761;" horiz-adv-x="1093" d="M893 0q-60 139 -123 311h-477q-49 -145 -96 -311h-146q123 408 385 1034h240q203 -692 366 -1034h-149zM575 911h-51q-111 -267 -192 -493h401q-96 274 -158 493z" />
<glyph unicode="&#xf762;" horiz-adv-x="1128" d="M698 123q89 0 124.5 41t35.5 133q0 201 -166 201h-403v-375h409zM682 614q84 0 118 41t34 115q0 79 -32 110t-120 31h-393v-297h393zM770 559q236 -8 236 -266q0 -145 -73.5 -219t-211.5 -74h-565v1034h546q82 0 138 -19.5t84 -56t39.5 -77t11.5 -93.5q0 -51 -7.5 -86.5 t-28 -68t-62.5 -51t-107 -23.5z" />
<glyph unicode="&#xf763;" horiz-adv-x="954" d="M881 152l43 -123q-57 -26 -142 -42t-153 -16q-125 0 -214.5 27t-155.5 89.5t-98 170t-32 264.5q0 156 32.5 262.5t99 167t155 86t213.5 25.5q66 0 153.5 -15t141.5 -36l-43 -125q-104 49 -252 49q-77 0 -130 -9.5t-98 -36t-71 -73.5t-40 -120.5t-14 -178.5 q0 -125 20.5 -207t66 -129t108.5 -65.5t158 -18.5q131 0 252 54z" />
<glyph unicode="&#xf764;" horiz-adv-x="1138" d="M156 0v1034h354q125 0 213.5 -24t155 -81t99 -158t32.5 -249q0 -149 -32 -251t-98 -161.5t-155 -84.5t-215 -25h-354zM522 911h-233v-788h233q95 0 156 17t104 61t61.5 120.5t18.5 196.5q0 124 -18 201.5t-62 119.5t-103.5 57t-156.5 15z" />
<glyph unicode="&#xf765;" horiz-adv-x="1005" d="M788 614v-116h-499v-375h622v-123h-755v1034h755v-123h-622v-297h499z" />
<glyph unicode="&#xf766;" horiz-adv-x="931" d="M156 0v1034h755v-123h-622v-346h499v-116h-499v-449h-133z" />
<glyph unicode="&#xf767;" horiz-adv-x="1130" d="M856 127v328h-291v112h426v-524q-62 -28 -163 -50t-179 -22q-128 0 -220.5 27t-161.5 89t-103.5 170.5t-34.5 264.5q0 155 35.5 262t106 167.5t162 86t216.5 25.5q66 0 159.5 -15t156.5 -36l-43 -125q-118 49 -273 49q-98 0 -161.5 -16t-114.5 -60.5t-74 -128t-23 -213.5 q0 -125 22.5 -207.5t71.5 -129t115 -65t164 -18.5q115 0 207 29z" />
<glyph unicode="&#xf768;" horiz-adv-x="1136" d="M848 504h-559v-504h-133v1034h133v-413h559v413h133v-1034h-133v504z" />
<glyph unicode="&#xf769;" horiz-adv-x="444" d="M289 1034v-1034h-133v1034h133z" />
<glyph unicode="&#xf76a;" horiz-adv-x="733" d="M578 1034v-704q0 -88 -19.5 -153.5t-50 -104t-76.5 -62t-91 -31.5t-101 -8q-134 0 -240 45l41 125q38 -20 96 -33.5t103 -13.5q41 0 73 8.5t64 32t49.5 73t17.5 122.5v704h134z" />
<glyph unicode="&#xf76b;" horiz-adv-x="978" d="M289 1034v-1034h-133v1034h133zM811 0h172q-407 511 -510 565q53 34 176.5 155.5t296.5 313.5h-172q-370 -410 -485 -487q107 -37 522 -547z" />
<glyph unicode="&#xf76c;" horiz-adv-x="819" d="M813 0h-657v1034h133v-911h524v-123z" />
<glyph unicode="&#xf76d;" horiz-adv-x="1402" d="M709 266q135 363 323 768h215v-1034h-133v915q-204 -436 -352 -841h-125q-201 517 -348 841v-915h-133v1034h223q206 -454 330 -768z" />
<glyph unicode="&#xf76e;" horiz-adv-x="1136" d="M848 221v813h133v-1034h-133q-302 507 -559 842v-842h-133v1034h133q353 -453 559 -813z" />
<glyph unicode="&#xf76f;" horiz-adv-x="1198" d="M598 -29q-125 0 -210 26.5t-144.5 90t-87 169.5t-27.5 265q0 157 27.5 262t88 166.5t145 87t208.5 25.5q100 0 173 -16t131.5 -53t94 -99.5t54 -154.5t18.5 -218q0 -159 -27.5 -265t-87.5 -169.5t-145 -90t-211 -26.5zM598 936q-77 0 -127 -10t-90 -35.5t-61.5 -73.5 t-32.5 -120t-11 -179q0 -169 31 -259t98.5 -125.5t192.5 -35.5q95 0 154 18t99 66.5t55.5 128t15.5 207.5q0 134 -15.5 214.5t-56 126.5t-98 61.5t-154.5 15.5z" />
<glyph unicode="&#xf770;" horiz-adv-x="1118" d="M688 911h-399v-381h399q90 0 130 41.5t40 143.5q0 109 -39 152.5t-131 43.5zM688 414h-399v-414h-133v1034h532q168 0 243 -76.5t75 -244.5q0 -154 -75.5 -226.5t-242.5 -72.5z" />
<glyph unicode="&#xf771;" horiz-adv-x="1198" d="M598 -29q-125 0 -210 26.5t-144.5 90t-87 169.5t-27.5 265q0 157 27.5 262t88 166.5t145 87t208.5 25.5q100 0 173 -16t131.5 -53t94 -99.5t54 -154.5t18.5 -218q0 -255 -64.5 -371.5t-220.5 -150.5q135 -21 410 -373h-176q-117 164 -230.5 254t-189.5 90zM598 940 q-96 0 -153.5 -16t-97.5 -63t-55.5 -128t-15.5 -215q0 -170 31 -260.5t98.5 -127t192.5 -36.5q126 0 194 36.5t99 127t31 260.5q0 134 -15.5 215t-56 128t-98 63t-154.5 16z" />
<glyph unicode="&#xf772;" horiz-adv-x="1101" d="M666 1034q323 0 323 -301q0 -119 -72 -192.5t-229 -73.5q51 -11 93.5 -45.5t113.5 -132t188 -289.5h-163q-77 140 -137 227.5t-112 133t-94 60.5t-96 15h-192v-436h-133v1034h510zM289 551h368q99 0 144 45.5t45 138.5q0 98 -42.5 137t-137.5 39h-377v-360z" />
<glyph unicode="&#xf773;" horiz-adv-x="1032" d="M827 883q-145 57 -295 57q-72 0 -116.5 -6.5t-80.5 -25.5t-51.5 -56.5t-15.5 -97.5q0 -77 59.5 -114t198.5 -46q202 -14 292.5 -83.5t90.5 -213.5q0 -180 -94 -253t-305 -73q-82 0 -191 15.5t-182 40.5l41 125q53 -25 152.5 -42.5t179.5 -17.5q54 0 91.5 4.5t70 16.5 t52 33.5t30 55.5t10.5 83q0 86 -54.5 127t-199.5 53q-199 14 -293 75t-94 201q0 177 100 249.5t309 72.5q152 0 340 -53z" />
<glyph unicode="&#xf774;" horiz-adv-x="985" d="M559 911v-911h-133v911h-406v123h945v-123h-406z" />
<glyph unicode="&#xf775;" horiz-adv-x="1126" d="M971 1034v-661q0 -227 -91 -314.5t-317 -87.5t-316.5 87.5t-90.5 314.5v661h133v-676q0 -73 11.5 -119.5t42.5 -79.5t84 -47t136 -14t136 14t84 47t43 79.5t12 119.5v676h133z" />
<glyph unicode="&#xf776;" horiz-adv-x="1042" d="M518 127q228 550 328 907h145q-123 -408 -385 -1034h-188q-201 687 -367 1034h150q171 -397 317 -907z" />
<glyph unicode="&#xf777;" horiz-adv-x="1665" d="M1612 1034q-143 -538 -352 -1034h-189q-45 216 -112.5 477t-116.5 404q-110 -443 -267 -881h-188q-163 604 -336 1034h158q150 -392 278 -907q69 191 153 474t116 433h170q118 -339 245 -907q198 518 291 907h150z" />
<glyph unicode="&#xf778;" horiz-adv-x="1069" d="M1001 0h-165q-128 205 -281 416q-116 -155 -328 -416h-164q210 243 416 518q-181 245 -416 516h185q206 -258 311 -405q127 172 279 405h161q-182 -269 -362 -510q147 -198 364 -524z" />
<glyph unicode="&#xf779;" horiz-adv-x="968" d="M551 481v-481h-133v481q-228 319 -432 553h170q151 -178 333 -440q156 179 330 440h164q-200 -277 -432 -553z" />
<glyph unicode="&#xf77a;" horiz-adv-x="1013" d="M74 0v55q186 225 366 463.5t279 392.5h-613v123h822v-51q-136 -209 -329.5 -471.5t-303.5 -388.5h635v-123h-856z" />
<glyph unicode="&#xf7a1;" horiz-adv-x="677" d="M430 0h-182l39 682h102zM338 823q-64 0 -86.5 18.5t-22.5 82.5q0 68 22.5 89t86.5 21q61 0 83.5 -21t22.5 -89q0 -63 -22 -82t-84 -19z" />
<glyph unicode="&#xf7bf;" horiz-adv-x="954" d="M483 852q-65 0 -86.5 18t-21.5 82q0 69 21.5 90t86.5 21q61 0 83 -21.5t22 -89.5q0 -63 -21.5 -81.5t-83.5 -18.5zM424 711h164q-301 -212 -301 -430q0 -41 9 -68t33 -49t71 -32.5t118 -10.5q143 0 234 31l34 -119q-46 -13 -129 -23t-139 -10q-199 0 -291 64.5t-92 199.5 q0 118 67.5 227t221.5 220z" />
<glyph unicode="&#xf7e0;" horiz-adv-x="1093" d="M893 0q-60 139 -123 311h-477q-49 -145 -96 -311h-146q123 408 385 1034h240q203 -692 366 -1034h-149zM575 911h-51q-111 -267 -192 -493h401q-96 274 -158 493zM717 1163h-142l-272 264h170z" />
<glyph unicode="&#xf7e1;" horiz-adv-x="1093" d="M893 0q-60 139 -123 311h-477q-49 -145 -96 -311h-146q123 408 385 1034h240q203 -692 366 -1034h-149zM575 911h-51q-111 -267 -192 -493h401q-96 274 -158 493zM563 1163h-141l244 264h170z" />
<glyph unicode="&#xf7e2;" horiz-adv-x="1093" d="M893 0q-60 139 -123 311h-477q-49 -145 -96 -311h-146q123 408 385 1034h240q203 -692 366 -1034h-149zM575 911h-51q-111 -267 -192 -493h401q-96 274 -158 493zM717 1163l-166 176l-162 -176h-160l250 264h148l258 -264h-168z" />
<glyph unicode="&#xf7e3;" horiz-adv-x="1093" d="M893 0q-60 139 -123 311h-477q-49 -145 -96 -311h-146q123 408 385 1034h240q203 -692 366 -1034h-149zM575 911h-51q-111 -267 -192 -493h401q-96 274 -158 493zM813 1411l84 -68q-33 -94 -84 -140t-131 -46q-36 0 -76 21t-69.5 46.5t-67 46.5t-70.5 21q-73 0 -123 -125 l-73 72q48 87 96.5 127.5t114.5 40.5q33 0 64 -14t56 -33.5t49 -39.5t51 -34t54 -14q40 0 69 31t56 108z" />
<glyph unicode="&#xf7e4;" horiz-adv-x="1093" d="M893 0q-60 139 -123 311h-477q-49 -145 -96 -311h-146q123 408 385 1034h240q203 -692 366 -1034h-149zM575 911h-51q-111 -267 -192 -493h401q-96 274 -158 493zM356 1346q50 0 67 -15t17 -65q0 -55 -17.5 -71.5t-66.5 -16.5q-51 0 -68.5 16.5t-17.5 71.5q0 51 17 65.5 t69 14.5zM743 1346q50 0 67 -15t17 -65q0 -55 -17.5 -71.5t-66.5 -16.5q-51 0 -68.5 16.5t-17.5 71.5q0 51 17 65.5t69 14.5z" />
<glyph unicode="&#xf7e5;" horiz-adv-x="1093" d="M893 0q-60 139 -123 311h-477q-49 -145 -96 -311h-146q123 408 385 1034h240q203 -692 366 -1034h-149zM575 911h-51q-111 -267 -192 -493h401q-96 274 -158 493zM547 1511q225 0 225 -192q0 -96 -57.5 -144.5t-167.5 -48.5q-108 0 -165.5 48.5t-57.5 144.5 q0 99 51.5 145.5t171.5 46.5zM547 1419q-65 0 -91 -25.5t-26 -78.5q0 -51 26.5 -79t90.5 -28q66 0 93.5 28t27.5 79q0 54 -26.5 79t-94.5 25z" />
<glyph unicode="&#xf7e6;" horiz-adv-x="1556" d="M1339 614v-116h-499v-375h622v-123h-755v311h-488q-138 -200 -207 -311h-164q274 422 752 1034h862v-123h-622v-297h499zM664 911q-235 -308 -369 -493h412v493h-43z" />
<glyph unicode="&#xf7e7;" horiz-adv-x="954" d="M881 152l43 -123q-57 -26 -142 -42t-153 -16q-125 0 -214.5 27t-155.5 89.5t-98 170t-32 264.5q0 156 32.5 262.5t99 167t155 86t213.5 25.5q66 0 153.5 -15t141.5 -36l-43 -125q-104 49 -252 49q-77 0 -130 -9.5t-98 -36t-71 -73.5t-40 -120.5t-14 -178.5 q0 -125 20.5 -207t66 -129t108.5 -65.5t158 -18.5q131 0 252 54zM545 0h69v-96q142 0 193 -31.5t51 -122.5q0 -94 -58 -130t-198 -36q-143 0 -217 43l37 86q68 -35 180 -35q67 0 92 13.5t25 56.5q0 31 -21 46t-76 19.5t-151 -1.5z" />
<glyph unicode="&#xf7e8;" horiz-adv-x="1005" d="M788 614v-116h-499v-375h622v-123h-755v1034h755v-123h-622v-297h499zM741 1163h-141l-272 264h170z" />
<glyph unicode="&#xf7e9;" horiz-adv-x="1005" d="M788 614v-116h-499v-375h622v-123h-755v1034h755v-123h-622v-297h499zM545 1163h-142l244 264h170z" />
<glyph unicode="&#xf7ea;" horiz-adv-x="1005" d="M788 614v-116h-499v-375h622v-123h-755v1034h755v-123h-622v-297h499zM723 1163l-166 176l-162 -176h-159l249 264h148l258 -264h-168z" />
<glyph unicode="&#xf7eb;" horiz-adv-x="1005" d="M788 614v-116h-499v-375h622v-123h-755v1034h755v-123h-622v-297h499zM373 1346q50 0 67 -15t17 -65q0 -55 -17.5 -71.5t-66.5 -16.5q-51 0 -68.5 16.5t-17.5 71.5q0 51 17 65.5t69 14.5zM760 1346q50 0 67 -15t17 -65q0 -55 -17.5 -71.5t-66.5 -16.5q-51 0 -68.5 16.5 t-17.5 71.5q0 51 17 65.5t69 14.5z" />
<glyph unicode="&#xf7ec;" horiz-adv-x="444" d="M289 1034v-1034h-133v1034h133zM330 1163h-142l-272 264h170z" />
<glyph unicode="&#xf7ed;" horiz-adv-x="444" d="M289 1034v-1034h-133v1034h133zM246 1163h-142l244 264h170z" />
<glyph unicode="&#xf7ee;" horiz-adv-x="444" d="M289 1034v-1034h-133v1034h133zM383 1163l-166 176l-162 -176h-159l249 264h148l258 -264h-168z" />
<glyph unicode="&#xf7ef;" horiz-adv-x="444" d="M289 1034v-1034h-133v1034h133zM27 1346q50 0 67 -15t17 -65q0 -55 -17.5 -71.5t-66.5 -16.5q-51 0 -68.5 16.5t-17.5 71.5q0 51 17 65.5t69 14.5zM414 1346q50 0 67 -15t17 -65q0 -55 -17.5 -71.5t-66.5 -16.5q-51 0 -68.5 16.5t-17.5 71.5q0 51 17 65.5t69 14.5z" />
<glyph unicode="&#xf7f0;" horiz-adv-x="1138" d="M37 492v120h119v422h354q125 0 213.5 -24t155 -81t99 -158t32.5 -249q0 -149 -32 -251t-98 -161.5t-155 -84.5t-215 -25h-354v492h-119zM522 911h-233v-299h262v-120h-262v-369h233q95 0 156 17t104 61t61.5 120.5t18.5 196.5q0 124 -18 201.5t-62 119.5t-103.5 57 t-156.5 15z" />
<glyph unicode="&#xf7f1;" horiz-adv-x="1136" d="M848 1034v-813q-206 360 -559 813h-133v-1034h133v842q257 -335 559 -842h133v1034h-133zM844 1411l84 -68q-33 -94 -84 -140t-131 -46q-36 0 -76 21t-69.5 46.5t-67 46.5t-70.5 21q-73 0 -123 -125l-74 72q48 87 96.5 127.5t114.5 40.5q40 0 79.5 -21t66 -46.5t62 -46.5 t67.5 -21q40 0 69 31t56 108z" />
<glyph unicode="&#xf7f2;" horiz-adv-x="1198" d="M598 -29q-125 0 -210 26.5t-144.5 90t-87 169.5t-27.5 265q0 157 27.5 262t88 166.5t145 87t208.5 25.5q100 0 173 -16t131.5 -53t94 -99.5t54 -154.5t18.5 -218q0 -159 -27.5 -265t-87.5 -169.5t-145 -90t-211 -26.5zM598 940q-96 0 -153.5 -16t-97.5 -63t-55.5 -128 t-15.5 -215q0 -170 31 -260.5t98.5 -127t192.5 -36.5q126 0 194 36.5t99 127t31 260.5q0 134 -15.5 215t-56 128t-98 63t-154.5 16zM788 1163h-141l-272 264h170z" />
<glyph unicode="&#xf7f3;" horiz-adv-x="1198" d="M598 -29q-125 0 -210 26.5t-144.5 90t-87 169.5t-27.5 265q0 157 27.5 262t88 166.5t145 87t208.5 25.5q100 0 173 -16t131.5 -53t94 -99.5t54 -154.5t18.5 -218q0 -159 -27.5 -265t-87.5 -169.5t-145 -90t-211 -26.5zM598 940q-96 0 -153.5 -16t-97.5 -63t-55.5 -128 t-15.5 -215q0 -170 31 -260.5t98.5 -127t192.5 -36.5q126 0 194 36.5t99 127t31 260.5q0 134 -15.5 215t-56 128t-98 63t-154.5 16zM588 1163h-142l244 264h170z" />
<glyph unicode="&#xf7f4;" horiz-adv-x="1198" d="M598 -29q-125 0 -210 26.5t-144.5 90t-87 169.5t-27.5 265q0 157 27.5 262t88 166.5t145 87t208.5 25.5q100 0 173 -16t131.5 -53t94 -99.5t54 -154.5t18.5 -218q0 -159 -27.5 -265t-87.5 -169.5t-145 -90t-211 -26.5zM598 940q-96 0 -153.5 -16t-97.5 -63t-55.5 -128 t-15.5 -215q0 -170 31 -260.5t98.5 -127t192.5 -36.5q126 0 194 36.5t99 127t31 260.5q0 134 -15.5 215t-56 128t-98 63t-154.5 16zM756 1163l-166 176l-162 -176h-160l250 264h148l258 -264h-168z" />
<glyph unicode="&#xf7f5;" horiz-adv-x="1198" d="M598 -29q-125 0 -210 26.5t-144.5 90t-87 169.5t-27.5 265q0 157 27.5 262t88 166.5t145 87t208.5 25.5q100 0 173 -16t131.5 -53t94 -99.5t54 -154.5t18.5 -218q0 -159 -27.5 -265t-87.5 -169.5t-145 -90t-211 -26.5zM598 940q-96 0 -153.5 -16t-97.5 -63t-55.5 -128 t-15.5 -215q0 -170 31 -260.5t98.5 -127t192.5 -36.5q126 0 194 36.5t99 127t31 260.5q0 134 -15.5 215t-56 128t-98 63t-154.5 16zM858 1411l84 -68q-33 -94 -84 -140t-131 -46q-36 0 -76 21t-69.5 46.5t-67 46.5t-70.5 21q-72 0 -122 -125l-74 72q48 87 96.5 127.5 t114.5 40.5q33 0 64 -14t56 -33.5t49 -39.5t51 -34t54 -14q40 0 69 31t56 108z" />
<glyph unicode="&#xf7f6;" horiz-adv-x="1198" d="M598 -29q-125 0 -210 26.5t-144.5 90t-87 169.5t-27.5 265q0 157 27.5 262t88 166.5t145 87t208.5 25.5q100 0 173 -16t131.5 -53t94 -99.5t54 -154.5t18.5 -218q0 -159 -27.5 -265t-87.5 -169.5t-145 -90t-211 -26.5zM598 940q-96 0 -153.5 -16t-97.5 -63t-55.5 -128 t-15.5 -215q0 -170 31 -260.5t98.5 -127t192.5 -36.5q126 0 194 36.5t99 127t31 260.5q0 134 -15.5 215t-56 128t-98 63t-154.5 16zM403 1346q50 0 67 -15t17 -65q0 -55 -17.5 -71.5t-66.5 -16.5q-51 0 -68.5 16.5t-17.5 71.5q0 51 17 65.5t69 14.5zM791 1346q49 0 66 -14.5 t17 -65.5q0 -55 -17 -71.5t-66 -16.5q-51 0 -68.5 16.5t-17.5 71.5q0 51 17 65.5t69 14.5z" />
<glyph unicode="&#xf7f8;" horiz-adv-x="1198" d="M952 1034h156l-115 -137q76 -125 76 -375q0 -159 -27.5 -265t-87.5 -169.5t-145 -90t-211 -26.5q-207 0 -315 78l-41 -49h-152l115 137q-76 128 -76 385q0 157 27.5 262t88 166.5t145 87t208.5 25.5q208 0 313 -76zM598 936q-77 0 -127 -10t-90 -35.5t-61.5 -73.5 t-32.5 -120t-11 -179q0 -169 29 -260l520 625q-66 53 -227 53zM598 98q95 0 154 18t99 66.5t55.5 128t15.5 207.5q0 172 -29 260l-520 -622q66 -58 225 -58z" />
<glyph unicode="&#xf7f9;" horiz-adv-x="1126" d="M971 1034v-661q0 -227 -91 -314.5t-317 -87.5t-316.5 87.5t-90.5 314.5v661h133v-676q0 -73 11.5 -119.5t42.5 -79.5t84 -47t136 -14t136 14t84 47t43 79.5t12 119.5v676h133zM766 1163h-141l-273 264h170z" />
<glyph unicode="&#xf7fa;" horiz-adv-x="1126" d="M971 1034v-661q0 -227 -91 -314.5t-317 -87.5t-316.5 87.5t-90.5 314.5v661h133v-676q0 -73 11.5 -119.5t42.5 -79.5t84 -47t136 -14t136 14t84 47t43 79.5t12 119.5v676h133zM530 1163h-141l244 264h170z" />
<glyph unicode="&#xf7fb;" horiz-adv-x="1126" d="M971 1034v-661q0 -227 -91 -314.5t-317 -87.5t-316.5 87.5t-90.5 314.5v661h133v-676q0 -73 11.5 -119.5t42.5 -79.5t84 -47t136 -14t136 14t84 47t43 79.5t12 119.5v676h133zM715 1163l-166 176l-162 -176h-160l250 264h148l258 -264h-168z" />
<glyph unicode="&#xf7fc;" horiz-adv-x="1126" d="M971 1034v-661q0 -227 -91 -314.5t-317 -87.5t-316.5 87.5t-90.5 314.5v661h133v-676q0 -73 11.5 -119.5t42.5 -79.5t84 -47t136 -14t136 14t84 47t43 79.5t12 119.5v676h133zM375 1346q50 0 67 -15t17 -65q0 -55 -17.5 -71.5t-66.5 -16.5q-51 0 -68.5 16.5t-17.5 71.5 q0 51 17 65.5t69 14.5zM762 1346q50 0 67 -15t17 -65q0 -55 -17.5 -71.5t-66.5 -16.5q-51 0 -68.5 16.5t-17.5 71.5q0 51 17 65.5t69 14.5z" />
<glyph unicode="&#xf7fd;" horiz-adv-x="968" d="M551 481v-481h-133v481q-228 319 -432 553h170q151 -178 333 -440q156 179 330 440h164q-200 -277 -432 -553zM508 1163h-141l243 264h170z" />
<glyph unicode="&#xf7fe;" horiz-adv-x="1118" d="M289 217v-217h-133v1034h133v-196h399q168 0 243 -77t75 -245q0 -154 -75.5 -226.5t-242.5 -72.5h-399zM688 715h-399v-381h399q90 0 130 41t40 143q0 109 -39 153t-131 44z" />
<glyph unicode="&#xf7ff;" horiz-adv-x="968" d="M551 481v-481h-133v481q-228 319 -432 553h170q151 -178 333 -440q156 179 330 440h164q-200 -277 -432 -553zM297 1346q50 0 67 -15t17 -65q0 -55 -17.5 -71.5t-66.5 -16.5q-51 0 -68.5 16.5t-17.5 71.5q0 51 17 65.5t69 14.5zM684 1346q50 0 67 -15t17 -65 q0 -55 -17.5 -71.5t-66.5 -16.5q-51 0 -68.5 16.5t-17.5 71.5q0 51 17 65.5t69 14.5z" />
<glyph unicode="&#xfb06;" horiz-adv-x="1816" d="M1221 346v565q-143 1 -398 15t-291 14q-72 0 -116.5 -6.5t-80.5 -25.5t-51.5 -56.5t-15.5 -97.5q0 -77 59.5 -114t198.5 -46q202 -14 292.5 -83.5t90.5 -213.5q0 -180 -94 -253t-305 -73q-82 0 -191 15.5t-182 40.5l41 125q53 -25 152.5 -42.5t179.5 -17.5q54 0 91.5 4.5 t70 16.5t52 33.5t30 55.5t10.5 83q0 86 -54.5 127t-199.5 53q-199 14 -293 75t-94 201q0 177 100 249.5t309 72.5q35 0 300 -14.5t389 -14.5v217l133 56v-273h383v-123h-383v-563q0 -135 42.5 -192.5t149.5 -57.5q112 0 197 31l31 -119q-115 -39 -228 -39q-93 0 -151 15.5 t-99 57.5t-58 114.5t-17 187.5z" />
<glyph unicode="&#xfe59;" horiz-adv-x="608" d="M139 512q0 659 389 823l64 -106q-50 -15 -93.5 -46t-84.5 -88t-70.5 -135t-47 -193t-17.5 -255q0 -172 26 -305.5t72 -215.5t99 -128.5t116 -65.5l-64 -106q-389 164 -389 821z" />
<glyph unicode="&#xfe5a;" horiz-adv-x="608" d="M469 512q0 -659 -389 -823l-64 106q50 15 93.5 46t85 88t71 135t47 193t17.5 255q0 172 -26 305.5t-72 215.5t-99.5 128.5t-116.5 65.5l64 106q389 -164 389 -821z" />
<glyph unicode="&#xfe5b;" horiz-adv-x="657" d="M55 455v-2v110q38 0 67.5 7.5t57 28t46 54t29.5 89t11 130.5q0 197 79.5 309.5t215.5 141.5l49 -104q-54 -12 -89 -31t-64 -56.5t-42.5 -101t-13.5 -158.5t-17.5 -166.5t-45.5 -111t-55 -59.5t-56 -27q28 -6 55.5 -26t55.5 -59t45.5 -111t17.5 -167t13.5 -158.5 t42.5 -101t64 -56t89 -30.5l-49 -104q-136 29 -215.5 141t-79.5 309q0 93 -16 156t-46.5 95.5t-65.5 45.5t-83 13z" />
<glyph unicode="&#xfe5c;" horiz-adv-x="657" d="M602 561v2v-110q-48 0 -83 -13t-65.5 -45.5t-46.5 -95.5t-16 -156q0 -197 -79.5 -309t-215.5 -141l-49 104q54 12 89 30.5t64 56t42.5 101t13.5 158.5t17.5 167t45.5 111.5t55.5 59.5t55.5 27q-22 5 -43.5 17t-46 39.5t-42.5 66t-30 100.5t-12 139q0 95 -13.5 158.5 t-42.5 101t-64 56.5t-89 31l49 104q136 -29 215.5 -141.5t79.5 -309.5q0 -75 11 -130.5t29.5 -89t46 -54t57 -28t67.5 -7.5z" />
<glyph unicode="&#xfe5f;" horiz-adv-x="1144" d="M84 670l8 112h227l15 252h131l-14 -252h256l14 252h131l-14 -252h241l-8 -112h-242l-16 -275h248l-8 -110h-246l-19 -285h-131l19 285h-256l-19 -285h-131l19 285h-223l8 110h221l16 275h-227zM442 670l-16 -275h256l16 275h-256z" />
<glyph unicode="&#xfe69;" horiz-adv-x="1138" d="M508 1257h119v-219q167 0 297 -37l-39 -116q-36 16 -111.5 26.5t-146.5 12.5v-344q174 -20 254 -91t80 -204q0 -132 -87.5 -205.5t-246.5 -91.5v-219h-119v221q-184 0 -313 35l45 120q110 -37 268 -41v369q-172 17 -251 81t-79 191q0 133 85.5 205.5t244.5 87.5v219z M825 285q0 75 -42.5 115.5t-155.5 58.5v-355q93 9 145.5 53.5t52.5 127.5zM317 748q0 -70 43.5 -106.5t147.5 -49.5v332q-191 -19 -191 -176z" />
<glyph unicode="&#xfe6a;" horiz-adv-x="1605" d="M356 362q-106 0 -168.5 31.5t-94.5 110t-32 215.5q0 136 32 211.5t94 104t169 28.5q81 0 134 -15t90.5 -54t54 -105.5t16.5 -169.5q0 -202 -67.5 -279.5t-227.5 -77.5zM356 965q-100 0 -135 -50.5t-35 -199.5q0 -141 36 -197.5t134 -56.5q101 0 135.5 55.5t34.5 198.5 q0 150 -33.5 200t-136.5 50zM1085 1034h154l-725 -1034h-149zM1249 -29q-106 0 -168.5 31.5t-94.5 110t-32 215.5q0 136 32 211.5t94 104t169 28.5q81 0 134 -15t90.5 -54t54 -105.5t16.5 -169.5q0 -202 -67.5 -279.5t-227.5 -77.5zM1249 573q-100 0 -135 -50.5t-35 -198.5 q0 -141 36 -197.5t134 -56.5q101 0 135.5 55.5t34.5 198.5q0 150 -33 199.5t-137 49.5z" />
<glyph unicode="&#xfe6b;" horiz-adv-x="1492" d="M719 778q120 0 213 -14q-6 113 -63 156t-189 43q-98 0 -162 -10.5t-115.5 -38t-79 -78.5t-41.5 -127.5t-14 -190.5q0 -90 10 -155t34 -114.5t59 -80.5t90.5 -51t123.5 -27.5t163 -7.5q140 0 229 21.5t147.5 77t82.5 145.5t24 233q0 216 -41 334h139q35 -101 35 -336 q0 -172 -36 -286t-115.5 -181t-190 -94t-274.5 -27q-132 0 -227 15.5t-172.5 52.5t-124 100.5t-71 158t-24.5 226.5q0 130 22.5 225.5t64 158t109 100t149 52.5t192.5 15q53 0 92 -2.5t78.5 -10t67.5 -21t53.5 -34.5t42 -51t29.5 -71.5t18.5 -95t5.5 -121.5 q0 -102 -12 -172.5t-34 -116t-62 -70t-88 -34t-120 -9.5q-89 0 -145.5 10t-97.5 38t-58.5 77.5t-17.5 128.5q0 80 18 131.5t58 79.5t92.5 38.5t132.5 10.5zM748 674q-118 0 -157.5 -27t-39.5 -119q0 -94 39.5 -125.5t148.5 -31.5q111 0 152 45t41 176v70q-106 12 -184 12z " />
<glyph horiz-adv-x="688" d="M250 1784h110q0 -83 38 -112.5t124 -29.5q85 0 124.5 30t39.5 112h107q0 -132 -67.5 -195t-205.5 -63q-135 0 -202.5 63t-67.5 195z" />
<glyph horiz-adv-x="1392" d="M709 1714l-166 -184h-156l250 264h147l258 -264h-161z" />
<glyph horiz-adv-x="688" d="M303 1735q50 0 67 -14.5t17 -65.5q0 -55 -17.5 -71.5t-66.5 -16.5q-51 0 -68.5 16.5t-17.5 71.5q0 51 17 65.5t69 14.5z" />
<glyph horiz-adv-x="1488" d="M737 1788q110 0 168 -48.5t58 -144.5t-58 -144t-168 -48q-109 0 -166 48t-57 144q0 99 51.5 146t171.5 47zM737 1696q-65 0 -90.5 -25.5t-25.5 -79.5q0 -51 26 -78.5t90 -27.5q67 0 94 27.5t27 78.5q0 54 -26.5 79.5t-94.5 25.5z" />
<glyph horiz-adv-x="1476" d="M1087 1776l82 -66q-31 -88 -89.5 -137t-135.5 -49q-35 0 -77 21.5t-74.5 47t-72.5 47t-71 21.5q-71 0 -119 -121l-71 70q47 84 93.5 123t111.5 39q39 0 81.5 -20.5t74 -45.5t70.5 -45.5t71 -20.5q40 0 70.5 31t55.5 105z" />
<glyph d="M637 -29q-132 0 -223.5 37t-156.5 124.5t-95.5 235t-30.5 365.5q0 172 20.5 297.5t59 208.5t102 132.5t141 70t183.5 20.5q107 0 184.5 -20.5t140.5 -69.5t101.5 -132.5t59 -208.5t20.5 -298q0 -218 -30 -365.5t-94.5 -235t-156.5 -124.5t-225 -37zM635 1343 q-58 0 -100 -6.5t-81 -23t-65.5 -46t-48 -74.5t-34 -110t-19 -151t-6.5 -199q0 -249 36.5 -387t111 -193t206.5 -55q134 0 209.5 55t112 193t36.5 387q0 132 -8 227.5t-27.5 163.5t-45.5 110.5t-69 67t-91 33t-117 8.5z" />
<glyph horiz-adv-x="692" d="M485 0h-147v1272l-320 -154l-49 111l516 250v-1479z" />
<glyph horiz-adv-x="1204" d="M289 123h776v-123h-967v115q205 163 332.5 267.5t227 197t147.5 146.5t78.5 115.5t36.5 104.5t6 113q0 154 -83 212t-278 58q-93 0 -200 -15.5t-156 -39.5l-37 133q222 55 395 55q266 0 389 -92t123 -307q0 -75 -10.5 -132.5t-42 -124t-84 -130t-143 -148t-212.5 -180.5 t-298 -225z" />
<glyph horiz-adv-x="1204" d="M745 768q79 -3 138 -25t95.5 -55.5t59 -82t31 -99.5t8.5 -113q0 -232 -132 -327t-427 -95q-198 0 -436 60l35 114q161 -49 401 -49q159 0 246.5 31t121.5 94t34 176q0 169 -85 238.5t-292 69.5h-164v120h164q187 0 270.5 64t83.5 207q0 89 -31.5 139.5t-112 76 t-225.5 25.5q-232 0 -393 -53l-37 123q253 55 430 55q282 0 401.5 -85t119.5 -263q0 -55 -7 -99.5t-27 -89t-53 -75.5t-88 -53t-129 -29z" />
<glyph horiz-adv-x="1191" d="M776 539v796q-131 -161 -282 -396t-242 -400h524zM922 1427v-888h202v-121h-202v-418h-146v418h-723v31q113 209 292.5 489.5t340.5 488.5h236z" />
<glyph horiz-adv-x="1245" d="M362 1305v-461q105 12 232 12q194 0 307.5 -46t163 -140t49.5 -252q0 -127 -32 -213t-102 -138t-171 -74t-250 -22q-165 0 -407 60l36 114q158 -49 371 -49q120 0 196.5 16t121.5 54.5t62 93t17 139.5q0 96 -15.5 156t-56.5 101.5t-110.5 58t-179.5 16.5q-219 0 -375 -39 v735h807v-122h-664z" />
<glyph horiz-adv-x="1286" d="M1133 1403l-48 -131q-140 57 -319 57q-84 0 -144.5 -7.5t-116.5 -27t-92.5 -55t-65 -92t-43.5 -137t-19 -189.5q172 35 370 35q287 0 405 -101.5t118 -336.5q0 -128 -29.5 -213.5t-94 -137.5t-158 -74t-230.5 -22q-150 0 -248 35t-164.5 122t-94.5 230.5t-28 364.5 q0 174 26.5 301t76 211.5t129 135t175.5 71t226 20.5q182 0 369 -59zM666 96q109 0 178 16t108 55t53.5 92.5t14.5 139.5q0 96 -16 156.5t-57.5 101.5t-111.5 57.5t-180 16.5q-209 0 -370 -37q1 -148 17.5 -253t45.5 -172t77 -105.5t104.5 -53t136.5 -14.5z" />
<glyph horiz-adv-x="1013" d="M1038 1427v-53q-164 -266 -344.5 -658t-294.5 -716h-168q127 350 297.5 714.5t313.5 590.5h-813v122h1009z" />
<glyph d="M637 96q198 0 275 68t77 233q0 168 -81.5 238t-270.5 70t-269.5 -70t-80.5 -238q0 -166 75.5 -233.5t274.5 -67.5zM637 825q168 0 242.5 64t74.5 207q0 131 -70 186t-247 55t-247.5 -55t-70.5 -186q0 -143 75.5 -207t242.5 -64zM637 -29q-259 0 -383.5 96t-124.5 326 q0 79 14.5 140t50 115t103.5 85t166 35q-74 7 -128.5 29t-86 53t-50 76t-24.5 88.5t-6 99.5q0 176 111 262t358 86t359 -86.5t112 -261.5q0 -56 -6 -99.5t-24.5 -88.5t-50 -76t-86 -53t-128.5 -29q79 -3 138 -25t95.5 -55.5t59 -82t31 -99.5t8.5 -113q0 -230 -124 -326 t-384 -96z" />
<glyph d="M633 578q-292 0 -407 89.5t-115 321.5q0 253 121.5 363t390.5 110q152 0 246.5 -21t158.5 -77.5t89.5 -151.5t25.5 -247q0 -123 -34.5 -243.5t-86 -214.5t-131 -192.5t-149 -167t-160.5 -147.5h-205q189 157 323 301t209 297q-163 -20 -276 -20zM991 940q0 79 -7.5 138 t-20 101.5t-36.5 71.5t-50 46.5t-68.5 26.5t-83.5 12t-102 3q-108 0 -178.5 -20.5t-109 -65.5t-53 -102.5t-14.5 -144.5q0 -95 15 -150.5t58 -91t110.5 -47.5t181.5 -12q189 0 328 26q30 99 30 209z" />
<glyph horiz-adv-x="1171" d="M1016 1004v-287q0 -160 -110 -260.5t-314 -100.5q-157 0 -260 41q-17 -62 -17 -100q0 -51 21.5 -80t84 -46t177.5 -19q262 -5 366.5 -61.5t104.5 -199.5q0 -163 -124.5 -235t-387.5 -72q-114 0 -229.5 15t-190.5 41l37 127q56 -26 163.5 -44t219.5 -18q203 0 285 39 t82 135q0 44 -11.5 68.5t-50 41.5t-102 24t-178.5 10q-124 3 -203.5 20t-120 50.5t-54.5 72.5t-14 98q0 100 48 187q-109 87 -109 262q0 184 113.5 267t355.5 83q98 0 217 -16t201 -43zM883 911q-135 27 -285 27q-185 0 -253.5 -46.5t-68.5 -182.5q0 -132 68.5 -181 t247.5 -49q150 0 220.5 62t70.5 184v186z" />
<glyph horiz-adv-x="1759" d="M1163 346v565q-102 0 -302.5 12.5t-231.5 12.5q-77 0 -130 -9.5t-98 -36t-71 -73.5t-40 -120.5t-14 -178.5q0 -125 20.5 -207t66 -129t108.5 -65.5t158 -18.5q131 0 252 54l43 -123q-57 -26 -142 -42t-153 -16q-125 0 -214.5 27t-155.5 89.5t-98 170t-32 264.5 q0 156 32.5 262.5t99 167t155 86t213.5 25.5q31 0 231.5 -14.5t302.5 -14.5v217l133 56v-273h383v-123h-383v-563q0 -134 43 -192t150 -58q112 0 197 31l30 -119q-115 -39 -227 -39q-93 0 -151.5 15.5t-99.5 57.5t-58 114.5t-17 187.5z" />
<glyph horiz-adv-x="1138" d="M1139 1182h-494q49 -46 49 -119q0 -109 -112 -164q14 35 14 82q0 78 -38.5 139.5t-104.5 61.5h-453v110h1139v-110zM586 -82q17 49 52.5 81.5t78 50t90 35t91.5 45t80 70.5t57.5 121.5t21.5 188.5q0 212 -68 314t-186 102q-95 0 -217 -64q-125 64 -217 64 q-118 0 -185 -101.5t-67 -314.5q0 -88 12 -156t33 -111.5t48.5 -75t60.5 -50t67 -32.5t70 -27.5t67.5 -30t61 -44t49.5 -65.5zM586 735q120 66 190 66t101.5 -69t31.5 -226q0 -81 -13 -137.5t-35.5 -87t-50 -49t-59.5 -29.5t-61.5 -22.5t-57.5 -35t-46 -59.5 q-24 41 -60.5 67t-70.5 35.5t-69.5 28.5t-62 46t-43 88.5t-16.5 154.5q0 152 41 225.5t113 73.5q73 0 168 -70z" />
<glyph horiz-adv-x="1138" d="M494 1182h-494v110h1139v-110h-453q-66 0 -104.5 -61.5t-38.5 -139.5q0 -47 14 -82q-57 28 -85 71.5t-28 92.5q0 72 50 119zM553 -82q-17 49 -52.5 81.5t-78 50t-90 35t-91.5 45t-80 70.5t-57.5 121.5t-21.5 188.5q0 212 68 314t186 102q95 0 217 -64q125 64 217 64 q118 0 185 -101.5t67 -314.5q0 -88 -12 -156t-33 -111.5t-48.5 -75t-60.5 -50t-67 -32.5t-70 -27.5t-67.5 -30t-61 -44t-49.5 -65.5z" />
<glyph horiz-adv-x="1138" d="M1139 31h-494q49 46 49 119q0 108 -112 163q14 -35 14 -82q0 -77 -38.5 -138.5t-104.5 -61.5h-453v-111h1139v111zM586 1294q17 -49 52.5 -81.5t78 -50t90 -35t91.5 -45t80 -70.5t57.5 -121.5t21.5 -188.5q0 -212 -68 -313.5t-186 -101.5q-97 0 -217 63 q-123 -63 -217 -63q-118 0 -185 101t-67 314q0 88 12 156t33 111.5t48.5 75t60.5 50t67 32.5t70 27.5t67.5 30t61 44t49.5 65.5zM586 477q118 -65 190 -65q70 0 101.5 69t31.5 226q0 81 -13 137.5t-35.5 87t-50 48.5t-59.5 29.5t-61.5 22.5t-57.5 34.5t-46 59.5 q-21 -36 -51 -59.5t-59.5 -35t-60.5 -23t-57.5 -29.5t-48 -48.5t-33.5 -86.5t-12 -137q0 -152 41 -225.5t113 -73.5q74 0 168 69z" />
<glyph horiz-adv-x="1138" d="M0 31h494q-50 47 -50 119q0 49 28 92t85 71q-14 -35 -14 -82q0 -77 38.5 -138.5t104.5 -61.5h453v-111h-1139v111zM553 1294q20 -38 49.5 -65.5t61 -44t67.5 -30t70 -27.5t67 -32.5t60.5 -50t48.5 -75t33 -111.5t12 -156q0 -213 -67 -314t-185 -101q-94 0 -217 63 q-120 -63 -217 -63q-118 0 -186 101.5t-68 313.5q0 110 21.5 188.5t57.5 121.5t80 70.5t91.5 45t90 35t78 50t52.5 81.5z" />
<glyph horiz-adv-x="1568" d="M1305 37v493q-46 -49 -119 -49q-49 0 -92.5 28t-71.5 85q35 -14 82 -14q78 0 139.5 38.5t61.5 104.5v453h110v-1139h-110zM41 590q49 -17 81.5 -52.5t50 -78t35 -90t45 -91.5t70.5 -80t121.5 -57.5t188.5 -21.5q213 0 314.5 68t101.5 186q0 95 -64 217q64 125 64 217 q0 118 -101.5 185t-314.5 67q-88 0 -156 -12t-111.5 -33t-75 -48.5t-50 -60.5t-32.5 -67t-27.5 -70t-30 -67.5t-44 -61t-65.5 -49.5zM858 590q66 -120 66 -191q0 -70 -69 -101.5t-226 -31.5q-81 0 -137.5 13t-87 35.5t-49 50.5t-29.5 60t-22.5 61.5t-35 57.5t-59.5 46 q41 24 67 60.5t35.5 70t28.5 69.5t46 62t88.5 42.5t154.5 16.5q153 0 226 -40.5t73 -112.5q0 -73 -70 -168z" />
<glyph horiz-adv-x="1568" d="M1305 682v494h110v-1139h-110v452q0 66 -62 105t-139 39q-44 0 -82 -15q28 57 71.5 85t92.5 28q73 0 119 -49zM41 623q49 17 81.5 52.5t50 78t35 90t45 91.5t70.5 80t121.5 57.5t188.5 21.5q213 0 314.5 -68t101.5 -186q0 -95 -64 -217q64 -125 64 -217 q0 -118 -101.5 -185t-314.5 -67q-88 0 -156 12t-111.5 33t-75 48.5t-50 60.5t-32.5 67t-27.5 70t-30 67.5t-44 61t-65.5 49.5z" />
<glyph horiz-adv-x="1568" d="M264 532v-493h-110v1139h110v-453q0 -66 61.5 -104.5t139.5 -38.5q47 0 82 14q-28 -57 -71.5 -85t-92.5 -28q-73 0 -119 49zM1528 592q-49 -17 -81.5 -52.5t-50 -78t-35 -90t-45 -91.5t-70.5 -80t-121.5 -57.5t-188.5 -21.5q-212 0 -314 68t-102 186q0 95 64 217 q-64 125 -64 217q0 118 101.5 185t314.5 67q88 0 156 -12t111.5 -33t75 -48.5t50 -60.5t32.5 -67t27.5 -70t30 -67.5t44 -61t65.5 -49.5zM711 592q-66 -120 -66 -191q0 -70 69 -101.5t226 -31.5q81 0 137.5 13t87 35.5t49 50.5t29.5 60t22.5 61.5t35 57.5t59.5 46 q-41 24 -67 60.5t-35.5 70t-28.5 69.5t-46 62t-88.5 42.5t-154.5 16.5q-153 0 -226 -40.5t-73 -112.5q0 -73 70 -168z" />
<glyph horiz-adv-x="1568" d="M264 1178v-494q46 49 119 49q109 0 164 -112q-35 14 -82 14q-78 0 -139.5 -38.5t-61.5 -104.5v-453h-110v1139h110zM1528 625q-49 17 -81.5 52.5t-50 78t-35 90t-45 91.5t-70.5 80t-121.5 57.5t-188.5 21.5q-212 0 -314 -68t-102 -186q0 -95 64 -217q-64 -125 -64 -217 q0 -118 101.5 -185t314.5 -67q88 0 156 12t111.5 33t75 48.5t50 60.5t32.5 67t27.5 70t30 67.5t44 61t65.5 49.5z" />
<glyph horiz-adv-x="1787" d="M1632 721q0 -177 -28.5 -304.5t-84 -214t-147 -137.5t-206 -72.5t-273.5 -21.5q-158 0 -272.5 21.5t-205.5 72.5t-146.5 137t-84 214t-28.5 305q0 174 29 300.5t84 211.5t146.5 135.5t206 72t271.5 21.5q158 0 272.5 -21.5t206 -72t147 -135.5t84.5 -211.5t29 -300.5z M1143 874q0 91 -29.5 137t-99.5 46h-291v-352h285q77 0 106 43t29 126zM1305 881q0 -136 -67 -219.5t-202 -83.5h-313v-310h-143v918h450q143 0 209 -84t66 -221zM891 1346q-111 0 -191 -10t-149 -36.5t-113.5 -71.5t-76 -115.5t-45 -167t-13.5 -228.5q0 -125 13.5 -219 t45 -164t76 -115.5t112.5 -73.5t149.5 -39.5t191.5 -11.5q134 0 228 17t167 58.5t115.5 113.5t64 178t21.5 256q0 132 -13.5 228.5t-46 167t-77 115.5t-114.5 71.5t-151 36.5t-194 10z" />
<glyph horiz-adv-x="1554" d="M776 158q134 0 214.5 51t122.5 177t42 343q0 161 -22.5 268t-71.5 168.5t-117 86t-168 24.5t-168 -24.5t-117 -86t-71.5 -168.5t-22.5 -268q0 -216 42.5 -342.5t123 -177.5t213.5 -51zM774 1188q63 0 104 -10t75.5 -38t53 -80t28 -132t9.5 -199q0 -187 -27.5 -290.5 t-84 -145t-158.5 -41.5q-98 0 -154 41.5t-84 145.5t-28 290q0 118 10 198.5t28.5 132.5t52.5 80t74 38t101 10zM776 -29q-138 0 -238.5 21.5t-180.5 72.5t-128.5 137t-74 214t-25.5 305q0 174 25.5 300.5t74.5 211.5t129 135.5t180.5 72t237.5 21.5q138 0 238.5 -21.5 t181 -72t129.5 -135.5t74.5 -211.5t25.5 -300.5q0 -177 -25.5 -305t-74 -214t-129 -137t-181 -72.5t-239.5 -21.5z" />
<glyph horiz-adv-x="1554" d="M748 184h110v1110l-389 -188l37 -82l242 115v-955zM776 -29q-138 0 -238.5 21.5t-180.5 72.5t-128.5 137t-74 214t-25.5 305q0 174 25.5 300.5t74.5 211.5t129 135.5t180.5 72t237.5 21.5q138 0 238.5 -21.5t181 -72t129.5 -135.5t74.5 -211.5t25.5 -300.5 q0 -177 -25.5 -305t-74 -214t-129 -137t-181 -72.5t-239.5 -21.5z" />
<glyph horiz-adv-x="1554" d="M776 -29q-138 0 -238.5 21.5t-180.5 72.5t-128.5 137t-74 214t-25.5 305q0 174 25.5 300.5t74.5 211.5t129 135.5t180.5 72t237.5 21.5q138 0 238.5 -21.5t181 -72t129.5 -135.5t74.5 -211.5t25.5 -300.5q0 -177 -25.5 -305t-74 -214t-129 -137t-181 -72.5t-239.5 -21.5z M1116 274h-584q197 145 311 240.5t179 176.5t84.5 142.5t19.5 145.5q0 162 -92.5 231.5t-292.5 69.5q-137 0 -295 -43l27 -98q36 18 117 29.5t151 11.5q146 0 208.5 -44t62.5 -159q0 -52 -4.5 -84.5t-27.5 -78.5t-58.5 -86.5t-110.5 -110.5t-170.5 -148t-249.5 -201v-86h725 v92z" />
<glyph horiz-adv-x="1554" d="M909 756q68 6 113.5 28.5t67.5 60.5t30 77.5t8 93.5q0 133 -89.5 196.5t-301.5 63.5q-119 0 -315 -41l27 -92q119 39 288 39q109 0 170 -19t85 -57t24 -105q0 -108 -60 -155t-200 -47h-123v-92h123q156 0 220 -52t64 -178q0 -85 -25.5 -132t-91 -70t-186.5 -23 q-183 0 -301 37l-24 -86q166 -45 325 -45q222 0 321 70.5t99 244.5q0 60 -10.5 105.5t-37 86.5t-77 64t-123.5 27zM776 -29q-138 0 -238.5 21.5t-180.5 72.5t-128.5 137t-74 214t-25.5 305q0 174 25.5 300.5t74.5 211.5t129 135.5t180.5 72t237.5 21.5q138 0 238.5 -21.5 t181 -72t129.5 -135.5t74.5 -211.5t25.5 -300.5q0 -177 -25.5 -305t-74 -214t-129 -137t-181 -72.5t-239.5 -21.5z" />
<glyph horiz-adv-x="1554" d="M889 1180v-598h-393q66 121 180.5 299t212.5 299zM999 582v667h-178q-119 -153 -252.5 -362.5t-222.5 -372.5v-22h543v-314h110v314h152v90h-152zM776 -29q-138 0 -238.5 21.5t-180.5 72.5t-128.5 137t-74 214t-25.5 305q0 174 25.5 300.5t74.5 211.5t129 135.5t180.5 72 t237.5 21.5q138 0 238.5 -21.5t181 -72t129.5 -135.5t74.5 -211.5t25.5 -300.5q0 -177 -25.5 -305t-74 -214t-129 -137t-181 -72.5t-239.5 -21.5z" />
<glyph horiz-adv-x="1554" d="M578 809v338h497v98h-606v-551q122 29 283 29q160 0 216 -53.5t56 -194.5q0 -86 -24.5 -133t-89.5 -70.5t-185 -23.5q-164 0 -279 37l-26 -86q166 -45 305 -45q222 0 319 73.5t97 259.5q0 178 -87 254t-302 76q-106 0 -174 -8zM776 -29q-138 0 -238.5 21.5t-180.5 72.5 t-128.5 137t-74 214t-25.5 305q0 174 25.5 300.5t74.5 211.5t129 135.5t180.5 72t237.5 21.5q138 0 238.5 -21.5t181 -72t129.5 -135.5t74.5 -211.5t25.5 -300.5q0 -177 -25.5 -305t-74 -214t-129 -137t-181 -72.5t-239.5 -21.5z" />
<glyph horiz-adv-x="1554" d="M1096 1133l34 98q-140 45 -276 45q-123 0 -207.5 -25.5t-146.5 -87.5t-91.5 -171t-29.5 -271q0 -220 40.5 -342t125 -171.5t235.5 -49.5q205 0 294 74t89 260q0 177 -87.5 253t-303.5 76q-157 0 -278 -26q4 98 20.5 166t43 110.5t72.5 65.5t97.5 31t128.5 8 q135 0 240 -43zM780 252q-60 0 -102.5 11t-78.5 39.5t-57.5 79t-34 129t-13.5 189.5q128 27 278 27q161 0 218 -53.5t57 -194.5q0 -86 -21.5 -133t-79.5 -70.5t-166 -23.5zM776 -29q-138 0 -238.5 21.5t-180.5 72.5t-128.5 137t-74 214t-25.5 305q0 174 25.5 300.5 t74.5 211.5t129 135.5t180.5 72t237.5 21.5q138 0 238.5 -21.5t181 -72t129.5 -135.5t74.5 -211.5t25.5 -300.5q0 -177 -25.5 -305t-74 -214t-129 -137t-181 -72.5t-239.5 -21.5z" />
<glyph horiz-adv-x="1554" d="M602 178h107q231 616 473 1071h-768v-98h610q-115 -228 -231 -492t-191 -481zM776 -29q-138 0 -238.5 21.5t-180.5 72.5t-128.5 137t-74 214t-25.5 305q0 174 25.5 300.5t74.5 211.5t129 135.5t180.5 72t237.5 21.5q138 0 238.5 -21.5t181 -72t129.5 -135.5t74.5 -211.5 t25.5 -300.5q0 -177 -25.5 -305t-74 -214t-129 -137t-181 -72.5t-239.5 -21.5z" />
<glyph horiz-adv-x="1554" d="M776 252q-150 0 -206 50t-56 175t60 177.5t202 52.5t203 -52.5t61 -177.5q0 -124 -57.5 -174.5t-206.5 -50.5zM776 799q-126 0 -181.5 47.5t-55.5 154.5q0 98 52 139.5t185 41.5t185.5 -41.5t52.5 -139.5q0 -107 -55.5 -154.5t-182.5 -47.5zM776 158q195 0 288 71t93 244 q0 60 -10.5 105.5t-37 86.5t-77 64t-123.5 27q68 6 114 28.5t68 60t30.5 77.5t8.5 94q0 132 -84 196t-270 64q-185 0 -268.5 -64t-83.5 -196q0 -55 8 -94t30 -77t67.5 -60.5t115.5 -28.5q-74 -4 -125 -27t-77.5 -64t-37 -86.5t-10.5 -105.5q0 -173 93 -244t288 -71zM776 -29 q-138 0 -238.5 21.5t-180.5 72.5t-128.5 137t-74 214t-25.5 305q0 174 25.5 300.5t74.5 211.5t129 135.5t180.5 72t237.5 21.5q138 0 238.5 -21.5t181 -72t129.5 -135.5t74.5 -211.5t25.5 -300.5q0 -177 -25.5 -305t-74 -214t-129 -137t-181 -72.5t-239.5 -21.5z" />
<glyph horiz-adv-x="1554" d="M780 616q70 0 209 15q-57 -115 -157.5 -223t-243.5 -226h153q87 76 152 143.5t131.5 160t102.5 199.5t36 222q0 114 -19 185.5t-67.5 114t-119 58t-185.5 15.5q-201 0 -292 -82.5t-91 -271.5q0 -176 85.5 -243t305.5 -67zM1051 889q0 -81 -25 -158q-103 -20 -246 -20 q-165 0 -218.5 44.5t-53.5 182.5q0 65 10.5 108t39 77t81 49.5t133.5 15.5q54 0 89 -3t69.5 -13.5t54.5 -30.5t36.5 -53t23 -82t6.5 -117zM776 -29q-138 0 -238.5 21.5t-180.5 72.5t-128.5 137t-74 214t-25.5 305q0 174 25.5 300.5t74.5 211.5t129 135.5t180.5 72 t237.5 21.5q138 0 238.5 -21.5t181 -72t129.5 -135.5t74.5 -211.5t25.5 -300.5q0 -177 -25.5 -305t-74 -214t-129 -137t-181 -72.5t-239.5 -21.5z" />
<glyph horiz-adv-x="1900" d="M598 -29q-125 0 -210 26.5t-144.5 90t-87 169.5t-27.5 265q0 141 31.5 238t86.5 150t123.5 86.5t148.5 60.5t155 58t150 94t126 155q41 -73 96 -127.5t112 -86t119.5 -56.5t121.5 -45t115 -44.5t102.5 -61.5t81.5 -90t54.5 -136.5t19.5 -194.5q0 -159 -27.5 -265 t-87 -169.5t-144.5 -90t-210 -26.5q-178 0 -285 86v-450h-135v450q-107 -86 -285 -86zM1018 1100v-854q0 -69 82 -108.5t203 -39.5q94 0 152.5 18t98 66.5t55 128t15.5 207.5q0 85 -15 150.5t-40.5 107.5t-63.5 75t-80 52.5t-94.5 40.5t-101.5 39t-106 49t-105 68zM883 246 v854q-53 -42 -120 -75.5t-122 -53.5t-112.5 -43t-101 -53t-79 -74t-54 -115t-18.5 -168q0 -169 31 -259t98.5 -125.5t192.5 -35.5q121 0 203 39.5t82 108.5z" />
<glyph horiz-adv-x="2195" d="M1597 -29q-177 0 -284 86v-450h-133v1251q-147 37 -324.5 59.5t-323.5 22.5q-72 0 -116.5 -6.5t-80.5 -25.5t-51.5 -56.5t-15.5 -97.5q0 -77 59.5 -114t198.5 -46q202 -14 292.5 -83.5t90.5 -213.5q0 -180 -94 -253t-305 -73q-82 0 -191 15.5t-182 40.5l41 125 q53 -25 152.5 -42.5t179.5 -17.5q54 0 91.5 4.5t70 16.5t52 33.5t30 55.5t10.5 83q0 86 -54.5 127t-199.5 53q-199 14 -293 75t-94 201q0 177 100 249.5t309 72.5q154 0 330 -23t318 -59q82 37 200.5 59.5t216.5 22.5q124 0 208.5 -25.5t145 -87t88 -166.5t27.5 -262 q0 -159 -27.5 -265t-87 -169.5t-144.5 -90t-210 -26.5zM1597 936q-165 0 -284 -43v-647q0 -69 81.5 -108.5t202.5 -39.5q125 0 192.5 35.5t98.5 125.5t31 259q0 107 -11 179t-32.5 120t-61.5 73.5t-90 35.5t-127 10z" />
<glyph horiz-adv-x="1908" d="M1223 365v376q-137 25 -269 25q-60 0 -99 -3.5t-78 -16t-60.5 -35t-35 -61.5t-13.5 -95q0 -132 60 -185t216 -53q147 0 279 48zM1358 885v-606q-84 -37 -200.5 -59.5t-217.5 -22.5q-116 0 -192 15.5t-129.5 55t-77 107t-23.5 170.5q0 88 21.5 151t55 99t87.5 57t106.5 27 t124.5 6q138 0 310 -33q0 99 -12 155.5t-49.5 93.5t-99 49.5t-167.5 12.5q-92 0 -161.5 -5t-132 -18.5t-107 -35t-82 -56t-61 -80.5t-40 -109.5t-23.5 -141.5t-7 -178q0 -127 13.5 -219t47 -162t82.5 -114.5t127 -72t173 -38.5t228 -11q134 0 231 11t176 38.5t129.5 72 t85 114.5t48.5 162t14 219q0 233 -45 358h144q45 -136 45 -354q0 -177 -32.5 -305t-95 -214t-165 -137t-231 -72.5t-304.5 -21.5q-146 0 -257.5 14.5t-206.5 48.5t-160 90.5t-110.5 140t-67 196.5t-21.5 260q0 175 30 302.5t87.5 213t151.5 136t212.5 72t280.5 21.5 q134 0 218.5 -17.5t142.5 -63t82 -123t24 -199.5z" />
<glyph horiz-adv-x="1499" d="M1042 139v566h-350q-190 0 -271 -70t-81 -238q0 -162 87 -231.5t290 -69.5q206 0 325 43zM1462 705h-278v-652q-80 -36 -219.5 -59t-247.5 -23q-129 0 -224.5 21.5t-167 70t-107.5 131t-36 199.5q0 62 8.5 113t31.5 99.5t59.5 82t96 55.5t138.5 25q-75 7 -129 28.5 t-85.5 51t-50 73.5t-24.5 87t-6 100q0 176 114 265t361 89q66 0 152.5 -15t142.5 -36l-45 -123q-107 49 -250 49q-178 0 -249.5 -55t-71.5 -186q0 -143 74.5 -207t242.5 -64h350v217l142 54v-271h278v-120z" />
<glyph horiz-adv-x="1093" d="M893 0q-60 139 -123 311h-477q-49 -145 -96 -311h-146q123 408 385 1034h240q203 -692 366 -1034h-149zM575 911h-51q-111 -267 -192 -493h401q-96 274 -158 493zM285 1427h110q0 -82 37.5 -111.5t124.5 -29.5q85 0 124.5 29.5t39.5 111.5h106q0 -132 -67 -195t-205 -63 q-135 0 -202.5 63t-67.5 195z" />
<glyph horiz-adv-x="1093" d="M893 0q-60 139 -123 311h-477q-49 -145 -96 -311h-146q123 408 385 1034h240q203 -692 366 -1034h-149zM575 911h-51q-111 -267 -192 -493h401q-96 274 -158 493zM293 1200v119h514v-119h-514z" />
<glyph horiz-adv-x="1093" d="M893 0q-60 139 -123 311h-477q-49 -145 -96 -311h-146q123 408 385 1034h240q203 -692 366 -1034h-149zM575 911h-51q-111 -267 -192 -493h401q-96 274 -158 493zM956 25h70q-117 -69 -156 -119.5t-39 -118.5q0 -50 29.5 -71t110.5 -21q53 0 104 17t84 44l60 -100 q-45 -35 -116.5 -53.5t-141.5 -18.5q-145 0 -203 44t-58 139q0 85 65 153.5t191 104.5z" />
<glyph horiz-adv-x="661" d="M176 1305h410v-119h-269v-1350h269v-117h-410v1586z" />
<glyph horiz-adv-x="1138" d="M156 0v1034h354q125 0 213.5 -24t155 -81t99 -158t32.5 -249q0 -149 -32 -251t-98 -161.5t-155 -84.5t-215 -25h-354zM522 911h-233v-788h233q95 0 156 17t104 61t61.5 120.5t18.5 196.5q0 124 -18 201.5t-62 119.5t-103.5 57t-156.5 15zM373 1427l166 -176l161 176h160 l-250 -264h-147l-258 264h168z" />
<glyph horiz-adv-x="1138" d="M37 492v120h119v422h354q125 0 213.5 -24t155 -81t99 -158t32.5 -249q0 -149 -32 -251t-98 -161.5t-155 -84.5t-215 -25h-354v492h-119zM522 911h-233v-299h262v-120h-262v-369h233q95 0 156 17t104 61t61.5 120.5t18.5 196.5q0 124 -18 201.5t-62 119.5t-103.5 57 t-156.5 15z" />
<glyph horiz-adv-x="1138" d="M156 0v1034h354q125 0 213.5 -24t155 -81t99 -158t32.5 -249q0 -149 -32 -251t-98 -161.5t-155 -84.5t-215 -25h-354zM522 911h-233v-788h233q95 0 156 17t104 61t61.5 120.5t18.5 196.5q0 124 -18 201.5t-62 119.5t-103.5 57t-156.5 15zM260 1200v119h514v-119h-514z " />
<glyph horiz-adv-x="1005" d="M788 614v-116h-499v-375h622v-123h-755v1034h755v-123h-622v-297h499zM283 1200v119h514v-119h-514z" />
<glyph horiz-adv-x="980" d="M881 152l43 -123q-57 -26 -142 -42t-153 -16q-125 0 -214.5 27t-155.5 89.5t-98 170t-32 264.5q0 156 32.5 262.5t99 167t155 86t213.5 25.5q66 0 153.5 -15t141.5 -36l-43 -125q-104 49 -252 49q-145 0 -222 -42t-108 -157h469v-116h-489q-3 -47 -3 -103q0 -48 3 -88 h489v-117h-471q29 -121 108.5 -168t223.5 -47q131 0 252 54z" />
<glyph horiz-adv-x="1005" d="M788 614v-116h-499v-375h622v-123h-755v1034h755v-123h-622v-297h499zM782 25h70q-117 -69 -156 -119.5t-39 -118.5q0 -50 29.5 -71t110.5 -21q53 0 104 17t84 44l59 -100q-45 -35 -116.5 -53.5t-141.5 -18.5q-145 0 -202.5 44t-57.5 139q0 85 65 153.5t191 104.5z" />
<glyph horiz-adv-x="1005" d="M788 614v-116h-499v-375h622v-123h-755v1034h755v-123h-622v-297h499zM416 1427l166 -176l161 176h160l-250 -264h-147l-258 264h168z" />
<glyph horiz-adv-x="1005" d="M788 614v-116h-499v-375h622v-123h-755v1034h755v-123h-622v-297h499zM569 1346q50 0 67 -15t17 -65q0 -55 -17.5 -71.5t-66.5 -16.5q-51 0 -68.5 16.5t-17.5 71.5q0 51 17 65.5t69 14.5z" />
<glyph horiz-adv-x="1005" d="M788 614v-116h-499v-375h622v-123h-755v1034h755v-123h-622v-297h499zM285 1427h110q0 -82 37.5 -111.5t124.5 -29.5q85 0 124.5 29.5t39.5 111.5h106q0 -132 -67 -195t-205 -63q-135 0 -202.5 63t-67.5 195z" />
<glyph horiz-adv-x="1130" d="M856 127v328h-291v112h426v-524q-62 -28 -163 -50t-179 -22q-128 0 -220.5 27t-161.5 89t-103.5 170.5t-34.5 264.5q0 155 35.5 262t106 167.5t162 86t216.5 25.5q66 0 159.5 -15t156.5 -36l-43 -125q-118 49 -273 49q-98 0 -161.5 -16t-114.5 -60.5t-74 -128t-23 -213.5 q0 -125 22.5 -207.5t71.5 -129t115 -65t164 -18.5q115 0 207 29zM592 1163h-141l243 264h170z" />
<glyph horiz-adv-x="1130" d="M856 127v328h-291v112h426v-524q-62 -28 -163 -50t-179 -22q-128 0 -220.5 27t-161.5 89t-103.5 170.5t-34.5 264.5q0 155 35.5 262t106 167.5t162 86t216.5 25.5q66 0 159.5 -15t156.5 -36l-43 -125q-118 49 -273 49q-98 0 -161.5 -16t-114.5 -60.5t-74 -128t-23 -213.5 q0 -125 22.5 -207.5t71.5 -129t115 -65t164 -18.5q115 0 207 29zM352 1427h111q0 -82 37.5 -111.5t124.5 -29.5q85 0 124 29.5t39 111.5h107q0 -132 -67 -195t-205 -63q-135 0 -203 63t-68 195z" />
<glyph horiz-adv-x="1130" d="M856 127v328h-291v112h426v-524q-62 -28 -163 -50t-179 -22q-128 0 -220.5 27t-161.5 89t-103.5 170.5t-34.5 264.5q0 155 35.5 262t106 167.5t162 86t216.5 25.5q66 0 159.5 -15t156.5 -36l-43 -125q-118 49 -273 49q-98 0 -161.5 -16t-114.5 -60.5t-74 -128t-23 -213.5 q0 -125 22.5 -207.5t71.5 -129t115 -65t164 -18.5q115 0 207 29zM788 1163l-165 176l-162 -176h-160l250 264h147l258 -264h-168z" />
<glyph horiz-adv-x="1130" d="M856 127v328h-291v112h426v-524q-62 -28 -163 -50t-179 -22q-128 0 -220.5 27t-161.5 89t-103.5 170.5t-34.5 264.5q0 155 35.5 262t106 167.5t162 86t216.5 25.5q66 0 159.5 -15t156.5 -36l-43 -125q-118 49 -273 49q-98 0 -161.5 -16t-114.5 -60.5t-74 -128t-23 -213.5 q0 -125 22.5 -207.5t71.5 -129t115 -65t164 -18.5q115 0 207 29zM727 -104l-207 -342h-108l143 342h172z" />
<glyph horiz-adv-x="1130" d="M856 127v328h-291v112h426v-524q-62 -28 -163 -50t-179 -22q-128 0 -220.5 27t-161.5 89t-103.5 170.5t-34.5 264.5q0 155 35.5 262t106 167.5t162 86t216.5 25.5q66 0 159.5 -15t156.5 -36l-43 -125q-118 49 -273 49q-98 0 -161.5 -16t-114.5 -60.5t-74 -128t-23 -213.5 q0 -125 22.5 -207.5t71.5 -129t115 -65t164 -18.5q115 0 207 29zM618 1346q50 0 67 -15t17 -65q0 -55 -17.5 -71.5t-66.5 -16.5q-51 0 -68.5 16.5t-17.5 71.5q0 51 17 65.5t69 14.5z" />
<glyph horiz-adv-x="2060" d="M1855 883q-145 57 -294 57q-57 0 -95.5 -4t-73 -15t-54.5 -31.5t-31 -54t-11 -81.5q0 -77 59.5 -114t198.5 -46q202 -14 292.5 -83.5t90.5 -213.5q0 -180 -94 -253t-305 -73q-82 0 -191 15.5t-182 40.5l41 125q53 -25 152.5 -42.5t179.5 -17.5q54 0 91.5 4.5t70 16.5 t52 33.5t30 55.5t10.5 83q0 86 -54.5 127t-199.5 53q-199 14 -293 75t-94 201q0 177 100 249.5t310 72.5q152 0 340 -53zM827 883q-145 57 -295 57q-72 0 -116.5 -6.5t-80.5 -25.5t-51.5 -56.5t-15.5 -97.5q0 -77 59.5 -114t198.5 -46q202 -14 292.5 -83.5t90.5 -213.5 q0 -180 -94 -253t-305 -73q-82 0 -191 15.5t-182 40.5l41 125q53 -25 152.5 -42.5t179.5 -17.5q54 0 91.5 4.5t70 16.5t52 33.5t30 55.5t10.5 83q0 86 -54.5 127t-199.5 53q-199 14 -293 75t-94 201q0 177 100 249.5t309 72.5q152 0 340 -53z" />
<glyph horiz-adv-x="1136" d="M18 799v112h138v123h133v-123h559v123h133v-123h137v-112h-137v-799h-133v504h-559v-504h-133v799h-138zM289 621h559v178h-559v-178z" />
<glyph horiz-adv-x="1136" d="M848 504h-559v-504h-133v1034h133v-413h559v413h133v-1034h-133v504zM737 1163l-166 176l-161 -176h-160l250 264h147l258 -264h-168z" />
<glyph horiz-adv-x="1177" d="M289 1034v-1034h-133v1034h133zM1022 1034v-704q0 -88 -19.5 -153.5t-50 -104t-76.5 -62t-91 -31.5t-101 -8q-134 0 -240 45l41 125q38 -20 96 -33.5t103 -13.5q41 0 73.5 8.5t64.5 32t49.5 73t17.5 122.5v704h133z" />
<glyph horiz-adv-x="444" d="M289 1034v-1034h-133v1034h133zM-33 1200v119h514v-119h-514z" />
<glyph horiz-adv-x="444" d="M289 1034v-1034h-133v1034h133zM211 25h70q-117 -69 -156 -119.5t-39 -118.5q0 -50 29 -71t110 -21q53 0 104.5 17t84.5 44l59 -100q-45 -35 -116.5 -53.5t-141.5 -18.5q-145 0 -202.5 44t-57.5 139q0 85 65 153.5t191 104.5z" />
<glyph horiz-adv-x="444" d="M289 1034v-1034h-133v1034h133zM492 1411l83 -68q-33 -94 -84 -140t-131 -46q-36 0 -76 21t-69 46.5t-66.5 46.5t-70.5 21q-73 0 -123 -125l-74 72q48 87 96.5 127.5t114.5 40.5q40 0 79.5 -21t66 -46.5t62 -46.5t67.5 -21q40 0 69 31t56 108z" />
<glyph horiz-adv-x="733" d="M578 1034v-704q0 -88 -19.5 -153.5t-50 -104t-76.5 -62t-91 -31.5t-101 -8q-134 0 -240 45l41 125q38 -20 96 -33.5t103 -13.5q41 0 73 8.5t64 32t49.5 73t17.5 122.5v704h134zM668 1163l-166 176l-162 -176h-160l250 264h148l258 -264h-168z" />
<glyph horiz-adv-x="978" d="M289 1034v-1034h-133v1034h133zM811 0h172q-407 511 -510 565q53 34 176.5 155.5t296.5 313.5h-172q-370 -410 -485 -487q107 -37 522 -547zM659 -104l-206 -342h-109l143 342h172z" />
<glyph horiz-adv-x="819" d="M156 0h657v123h-524v911h-133v-1034zM315 1163h-141l244 264h170z" />
<glyph horiz-adv-x="819" d="M156 0h657v123h-524v911h-133v-1034zM481 1122h150l-115 -393h-80z" />
<glyph horiz-adv-x="819" d="M813 0h-657v1034h133v-911h524v-123zM580 -104l-207 -342h-109l144 342h172z" />
<glyph horiz-adv-x="819" d="M813 0h-657v1034h133v-911h524v-123zM535 698q49 0 66 -14.5t17 -65.5q0 -55 -17 -71.5t-66 -16.5q-51 0 -68.5 16.5t-17.5 71.5q0 51 17 65.5t69 14.5z" />
<glyph horiz-adv-x="1136" d="M848 1034v-813q-206 360 -559 813h-133v-1034h133v842q257 -335 559 -842h133v1034h-133zM575 1163h-141l244 264h170z" />
<glyph horiz-adv-x="1136" d="M848 1034v-813q-206 360 -559 813h-133v-1034h133v842q257 -335 559 -842h133v1034h-133zM420 1427l166 -176l162 176h159l-250 -264h-147l-258 264h168z" />
<glyph horiz-adv-x="1136" d="M848 221v813h133v-1034h-133q-302 507 -559 842v-842h-133v1034h133q353 -453 559 -813zM674 -104l-207 -342h-109l144 342h172z" />
<glyph horiz-adv-x="1198" d="M598 -29q126 0 211 26.5t145 90t87.5 169.5t27.5 265q0 126 -18.5 218t-54 154.5t-94 99.5t-131.5 53t-173 16q-124 0 -208.5 -25.5t-145 -87t-88 -166.5t-27.5 -262q0 -159 27.5 -265t87 -169.5t144.5 -90t210 -26.5zM598 936q97 0 154.5 -15.5t98 -61.5t56 -126.5 t15.5 -214.5q0 -128 -15.5 -207.5t-55.5 -128t-99 -66.5t-154 -18q-125 0 -192.5 35.5t-98.5 125.5t-31 259q0 107 11 179t32.5 120t61.5 73.5t90 35.5t127 10zM328 1427h110q0 -82 37.5 -111.5t124.5 -29.5q85 0 124.5 29.5t39.5 111.5h106q0 -132 -67 -195t-205 -63 q-135 0 -202.5 63t-67.5 195z" />
<glyph horiz-adv-x="1198" d="M598 -29q126 0 211 26.5t145 90t87.5 169.5t27.5 265q0 126 -18.5 218t-54 154.5t-94 99.5t-131.5 53t-173 16q-124 0 -208.5 -25.5t-145 -87t-88 -166.5t-27.5 -262q0 -159 27.5 -265t87 -169.5t144.5 -90t210 -26.5zM598 936q97 0 154.5 -15.5t98 -61.5t56 -126.5 t15.5 -214.5q0 -128 -15.5 -207.5t-55.5 -128t-99 -66.5t-154 -18q-125 0 -192.5 35.5t-98.5 125.5t-31 259q0 107 11 179t32.5 120t61.5 73.5t90 35.5t127 10zM514 1427h154l-219 -264h-109zM797 1427h155l-217 -264h-110z" />
<glyph horiz-adv-x="1198" d="M598 -29q126 0 211 26.5t145 90t87.5 169.5t27.5 265q0 126 -18.5 218t-54 154.5t-94 99.5t-131.5 53t-173 16q-124 0 -208.5 -25.5t-145 -87t-88 -166.5t-27.5 -262q0 -159 27.5 -265t87 -169.5t144.5 -90t210 -26.5zM598 936q97 0 154.5 -15.5t98 -61.5t56 -126.5 t15.5 -214.5q0 -128 -15.5 -207.5t-55.5 -128t-99 -66.5t-154 -18q-125 0 -192.5 35.5t-98.5 125.5t-31 259q0 107 11 179t32.5 120t61.5 73.5t90 35.5t127 10zM344 1200v119h514v-119h-514z" />
<glyph horiz-adv-x="1101" d="M666 1034q323 0 323 -301q0 -119 -72 -192.5t-229 -73.5q51 -11 93.5 -45.5t113.5 -132t188 -289.5h-163q-77 140 -137 227.5t-112 133t-94 60.5t-96 15h-192v-436h-133v1034h510zM289 551h368q99 0 144 45.5t45 138.5q0 98 -42.5 137t-137.5 39h-377v-360zM506 1163 h-141l243 264h170z" />
<glyph horiz-adv-x="1101" d="M666 1034q323 0 323 -301q0 -119 -72 -192.5t-229 -73.5q51 -11 93.5 -45.5t113.5 -132t188 -289.5h-163q-77 140 -137 227.5t-112 133t-94 60.5t-96 15h-192v-436h-133v1034h510zM289 551h368q99 0 144 45.5t45 138.5q0 98 -42.5 137t-137.5 39h-377v-360zM401 1427 l166 -176l162 176h160l-250 -264h-147l-259 264h168z" />
<glyph horiz-adv-x="1101" d="M666 1034q323 0 323 -301q0 -119 -72 -192.5t-229 -73.5q51 -11 93.5 -45.5t113.5 -132t188 -289.5h-163q-77 140 -137 227.5t-112 133t-94 60.5t-96 15h-192v-436h-133v1034h510zM289 551h368q99 0 144 45.5t45 138.5q0 98 -42.5 137t-137.5 39h-377v-360zM666 -104 l-207 -342h-109l144 342h172z" />
<glyph horiz-adv-x="1050" d="M96 446v121h117v164q0 332 434 332q179 0 330 -41l-35 -121q-39 18 -127 29.5t-166 11.5q-158 0 -225.5 -56t-67.5 -179v-140h310v-121h-310v-323h596v-123h-739v446h-117z" />
<glyph horiz-adv-x="1013" d="M926 911h-613q103 -163 279 -393q-29 -40 -86 -118.5t-83 -114.5t-63 -83t-65 -79h635v-123h-856v55q109 131 354 465q-217 298 -324 463v51h822v-123z" />
</font>
</defs>
</svg>
