<?xml version="1.0" standalone="no"?>
<!DOCTYPE svg PUBLIC "-//W3C//DTD SVG 1.1//EN" "http://www.w3.org/Graphics/SVG/1.1/DTD/svg11.dtd" >
<svg xmlns="http://www.w3.org/2000/svg">
<metadata></metadata>
<defs>
<font id="etelka_text_probold" horiz-adv-x="1286" >
<font-face units-per-em="2048" ascent="1638" descent="-410" />
<missing-glyph horiz-adv-x="526" />
<glyph unicode="ff" horiz-adv-x="1429" d="M1122 1081v-34h324v-271h-324v-776h-315v776h-322v-776h-313v776h-170v271h170v51q0 113 33 192t93.5 120.5t131 59t160.5 17.5q215 0 360 -57q92 59 256 59q165 0 316 -51l-68 -244q-89 29 -184 29q-77 0 -112.5 -33t-35.5 -109zM485 1077v-30h322v55q0 64 10 100 q-93 21 -162 21q-91 0 -130.5 -32t-39.5 -114z" />
<glyph unicode="fi" horiz-adv-x="1257" d="M1122 1047v-1047h-315v776h-322v-776h-313v776h-170v271h170v51q0 92 24 160t67 112t110.5 71t145 37.5t179.5 10.5q213 0 406 -62l-70 -241q-125 37 -286 37q-134 0 -198.5 -31t-64.5 -115v-30h637z" />
<glyph unicode="fl" horiz-adv-x="1269" d="M1122 1427v-1122q0 -158 70 -256l-285 -98q-100 121 -100 344v911q-83 17 -152 17q-89 0 -129.5 -31.5t-40.5 -114.5v-30h232v-271h-232v-776h-313v776h-170v271h170v51q0 92 23 160.5t63.5 112.5t103.5 70.5t134.5 37t165.5 10.5q221 0 460 -62z" />
<glyph unicode="ffi" horiz-adv-x="1892" d="M1757 1047v-1047h-313v776h-322v-776h-315v776h-322v-776h-313v776h-170v271h170v51q0 91 22.5 160.5t59.5 112.5t92 70t113.5 37.5t130.5 10.5q207 0 375 -72q125 72 370 72q211 0 404 -62l-68 -241q-129 37 -287 37q-133 0 -197.5 -31t-64.5 -115v-30h635zM485 1077 v-30h322v51q0 58 12 102q-87 23 -164 23q-91 0 -130.5 -32t-39.5 -114z" />
<glyph unicode="ffl" horiz-adv-x="1904" d="M1757 1427v-1122q0 -159 72 -256l-285 -98q-100 121 -100 344v911q-87 17 -154 17q-87 0 -127.5 -32t-40.5 -114v-30h232v-271h-232v-776h-315v776h-322v-776h-313v776h-170v271h170v51q0 91 22.5 160.5t59.5 112.5t92 70t113.5 37.5t130.5 10.5q184 0 368 -68 q117 68 340 68q220 0 459 -62zM807 1098q0 58 12 102q-87 23 -164 23q-95 0 -132.5 -34.5t-37.5 -121.5v-20h322v51z" />
<glyph unicode="Th" horiz-adv-x="2269" d="M2144 610v-610h-315v590q0 64 -12.5 106.5t-38 64.5t-55 30t-72.5 8q-65 0 -110.5 -17.5t-45.5 -48.5v-733h-315v1139h-369v-1139h-332v1139h-477v288h1493v-415q59 28 135.5 46.5t143.5 18.5q60 0 106 -7.5t89.5 -26t74 -52t54 -84.5t35 -125.5t11.5 -171.5z" />
<glyph unicode="ffk" horiz-adv-x="2512" d="M1757 1427v-1427h-313v1206q-87 17 -154 17q-87 0 -127.5 -32t-40.5 -114v-30h232v-271h-232v-776h-315v776h-322v-776h-313v776h-170v271h170v51q0 92 22.5 161.5t59.5 112t92.5 69t114 36.5t131.5 10q191 0 366 -66q117 68 340 68q234 0 459 -62zM807 1098q0 58 12 102 q-87 23 -164 23q-95 0 -132.5 -34.5t-37.5 -121.5v-20h322v51zM2513 0h-365q-326 520 -391 553q92 85 363 494h364q-123 -186 -220.5 -312.5t-139.5 -163.5q41 -29 147 -180.5t242 -390.5z" />
<glyph unicode="fk" horiz-adv-x="1875" d="M1122 0h-315v1206q-83 17 -152 17q-86 0 -128 -32.5t-42 -113.5v-30h232v-271h-232v-776h-313v776h-170v271h170v51q0 92 23 160.5t63.5 112.5t103.5 70.5t134.5 37t165.5 10.5q229 0 460 -62v-1427zM1878 0h-365q-325 518 -391 553q92 85 363 494h362 q-125 -189 -221.5 -314.5t-138.5 -161.5q42 -28 148.5 -179t242.5 -392z" />
<glyph unicode="fj" horiz-adv-x="1257" d="M807 -12v788h-322v-776h-313v776h-170v271h170v51q0 92 24 160t67 112t110.5 71t145 37.5t179.5 10.5q213 0 406 -62l-70 -241q-125 37 -286 37q-134 0 -198.5 -31t-64.5 -115v-30h637v-1055q0 -217 -113.5 -317.5t-361.5 -90.5v256q81 0 120.5 35t39.5 113z" />
<glyph unicode=" "  horiz-adv-x="526" />
<glyph unicode="&#x09;" horiz-adv-x="526" />
<glyph unicode="&#xa0;" horiz-adv-x="526" />
<glyph unicode="!" horiz-adv-x="681" d="M152 1427h376l-75 -946h-226zM342 336q111 0 150.5 -32t39.5 -136q0 -113 -39 -147.5t-151 -34.5q-109 0 -147.5 34.5t-38.5 147.5q0 104 39 136t147 32z" />
<glyph unicode="&#x22;" horiz-adv-x="823" d="M92 1427h264l-39 -501h-202zM473 1427h258l-39 -501h-200z" />
<glyph unicode="#" horiz-adv-x="1511" d="M80 870l16 250h252l21 310h288l-20 -310h256l20 310h289l-20 -310h268l-14 -250h-271l-20 -290h272l-16 -248h-271l-22 -332h-289l23 332h-256l-23 -332h-289l23 332h-252l18 248h248l21 290h-252zM621 870l-19 -290h254l21 290h-256z" />
<glyph unicode="$" horiz-adv-x="1273" d="M526 1690h209v-281q239 -3 395 -59l-65 -271q-136 39 -330 45v-278q210 -33 315 -128.5t105 -271.5q0 -208 -99.5 -307t-320.5 -121v-299h-209v291q-241 3 -403 60l67 272q130 -40 336 -47v289q-205 28 -311 113.5t-106 254.5q0 205 102 313t315 134v291zM410 993 q0 -52 24 -77.5t92 -38.5v237q-62 -12 -89 -41t-27 -80zM850 426q0 55 -22.5 83t-92.5 42v-248q61 12 88 40.5t27 82.5z" />
<glyph unicode="%" horiz-adv-x="2064" d="M1339 1427h287l-913 -1427h-285zM457 1462q114 0 187 -20.5t123.5 -73.5t71.5 -141.5t21 -227.5q0 -141 -21 -233t-71 -148t-124 -79t-187 -23q-150 0 -235 43t-126 148t-41 292q0 138 21 227t71.5 142t123.5 73.5t186 20.5zM457 735q55 0 80.5 19t37 73t11.5 170 q0 112 -11.5 163.5t-36.5 68t-81 16.5q-55 0 -80 -16t-37 -68t-12 -164q0 -115 12 -170t37.5 -73.5t79.5 -18.5zM1606 918q114 0 187 -20.5t123.5 -73.5t71.5 -142.5t21 -228.5q0 -186 -40.5 -290.5t-126 -148t-236.5 -43.5t-236 43.5t-125.5 148t-40.5 290.5 q0 139 21 228.5t71 142.5t123 73.5t187 20.5zM1606 190q55 0 80 19t36 73.5t11 170.5q0 112 -11 163t-35.5 67.5t-80.5 16.5q-55 0 -80 -16.5t-37 -68t-12 -162.5q0 -115 12 -170t37.5 -74t79.5 -19z" />
<glyph unicode="&#x26;" horiz-adv-x="1669" d="M1604 807q0 -267 -201 -494q40 -51 229 -313h-379q-68 100 -86 125q-124 -78 -249.5 -116t-274.5 -38q-159 0 -263.5 20t-170.5 68t-93.5 123t-27.5 189q0 170 95 260.5t296 99.5q-76 6 -129.5 24.5t-86.5 46t-51.5 70t-25 88t-6.5 109.5q0 82 13.5 141.5t48 109 t93.5 79.5t149 46.5t214 16.5q201 0 315 -38t160 -114.5t46 -209.5q0 -156 -78.5 -239t-263.5 -97q132 -9 321 -219q66 122 66 262h340zM643 240q106 0 188 24t164 80q-208 268 -344 268q-111 0 -161 -46t-50 -148t42 -140t161 -38zM688 868q99 0 148 37.5t49 126.5 q0 92 -42 124t-143 32q-104 0 -145 -31.5t-41 -122.5q0 -92 38.5 -129t135.5 -37z" />
<glyph unicode="'" horiz-adv-x="448" d="M92 1427h264l-39 -501h-202z" />
<glyph unicode="(" horiz-adv-x="669" d="M139 510q0 237 35 423.5t100.5 313t148 207.5t187.5 125l144 -231q-67 -36 -115 -91.5t-88 -149.5t-60 -243.5t-20 -353.5t20 -353.5t60 -243.5t88 -149.5t115 -91.5l-144 -231q-105 44 -187.5 125t-148 207.5t-100.5 313t-35 423.5z" />
<glyph unicode=")" horiz-adv-x="669" d="M530 510q0 -190 -23.5 -349t-65 -275.5t-102 -206t-129.5 -146.5t-151 -92l-143 231q67 36 115 91t88 149t60 243.5t20 354.5q0 204 -20 353t-60 243.5t-88 150t-115 91.5l143 231q82 -35 151 -92t129.5 -146.5t102 -206t65 -275.5t23.5 -349z" />
<glyph unicode="*" horiz-adv-x="1089" d="M61 940v254h261l-132 227l224 127l131 -227l129 227l223 -127l-133 -227h262v-254h-262l131 -227l-223 -125l-127 223l-131 -223l-224 127l132 225h-261z" />
<glyph unicode="+" horiz-adv-x="1153" d="M74 594v301h350v352h301v-352h352v-301h-352v-350h-301v350h-350z" />
<glyph unicode="," horiz-adv-x="612" d="M528 215l-241 -541h-281l162 541h360z" />
<glyph unicode="-" horiz-adv-x="649" d="M55 432v301h539v-301h-539z" />
<glyph unicode="." horiz-adv-x="612" d="M305 336q111 0 150 -32t39 -136q0 -59 -9 -94.5t-32.5 -55t-57 -26t-90.5 -6.5q-109 0 -147.5 34.5t-38.5 147.5q0 104 39 136t147 32z" />
<glyph unicode="/" horiz-adv-x="997" d="M733 1427h336l-731 -1427h-334z" />
<glyph unicode="0" d="M643 1462q113 0 197 -20.5t153 -70t112 -132t66 -208.5t23 -298q0 -175 -23 -305t-66.5 -217.5t-112 -140.5t-153 -76t-196.5 -23t-197 22.5t-153.5 76t-112.5 141t-67 217.5t-23 305q0 172 23.5 298t66.5 208.5t112.5 132t153.5 70t197 20.5zM643 274q50 0 82 6t59 25.5 t41.5 49t24.5 83.5t13 122.5t3 172.5q0 101 -3 166.5t-13.5 116.5t-24 77.5t-41.5 43.5t-59 21.5t-82 4.5q-50 0 -80.5 -4.5t-58 -21.5t-41.5 -43.5t-24.5 -77t-13.5 -116.5t-3 -167q0 -103 3.5 -172t13.5 -123t24.5 -84t41 -49t58 -25t80.5 -6z" />
<glyph unicode="1" d="M881 0h-326v1071l-319 -129l-86 279l731 272v-1493z" />
<glyph unicode="2" d="M197 1110l-70 281q91 32 221 51.5t264 19.5q141 0 235.5 -18.5t165 -65.5t102.5 -131.5t32 -212.5q0 -78 -7.5 -133.5t-34.5 -113.5t-65 -104.5t-112 -110t-162 -126.5t-229 -157h616v-289h-1071v268q115 85 184.5 137.5t147.5 112.5t120 93.5t90 75.5t69 64t45.5 53 t32 48.5t16 45t9.5 48.5t1 53q0 96 -47 131t-172 35q-95 0 -203 -16t-178 -39z" />
<glyph unicode="3" d="M381 600v283h215q103 0 141.5 28.5t38.5 112.5q0 55 -21 82.5t-80 41t-175 13.5q-80 0 -182 -10.5t-160 -28.5l-62 289q227 51 482 51q213 0 331.5 -36.5t168.5 -115.5t50 -218q0 -80 -12.5 -135t-45 -101t-94 -71.5t-155.5 -32.5q99 -4 166 -30.5t103.5 -76t51.5 -112 t15 -150.5q0 -228 -133 -320t-449 -92q-114 0 -251 13.5t-234 35.5l62 293q58 -18 161.5 -28.5t184.5 -10.5q126 0 189.5 15t86.5 48t23 99q0 95 -43.5 129.5t-151.5 34.5h-221z" />
<glyph unicode="4" horiz-adv-x="1282" d="M723 340h-707v113q129 231 301.5 514t298.5 460h422v-811h185v-276h-185v-340h-315v340zM723 616v506q-75 -102 -164 -248t-149 -258h313z" />
<glyph unicode="5" d="M182 1427h924v-288h-612v-246q70 6 141 6q204 0 317.5 -45t160 -139.5t46.5 -261.5q0 -142 -28.5 -233t-97 -147.5t-172.5 -79t-265 -22.5q-107 0 -251.5 14t-225.5 35l61 293q53 -18 155 -28.5t183 -10.5q122 0 179.5 13t79.5 47t22 106q0 58 -8.5 88.5t-39 52.5 t-83.5 28.5t-148 6.5q-185 0 -338 -20v831z" />
<glyph unicode="6" d="M1159 1409l-63 -291q-118 41 -344 41q-75 0 -123 -10t-88.5 -38.5t-60 -84t-23.5 -143.5q109 16 219 16q206 0 321 -45t163 -139.5t48 -261.5q0 -143 -27.5 -234t-94 -147.5t-168 -78.5t-259.5 -22q-160 0 -263 35.5t-171 123.5t-96.5 231t-28.5 364q0 148 14 257.5 t47.5 193t82.5 137.5t124 87.5t167 47.5t217 14q98 0 211.5 -15t195.5 -38zM659 274q123 0 164 36.5t41 133.5q0 102 -41 138t-149 36q-115 0 -223 -12q2 -87 11.5 -145.5t24 -96t41 -57t56 -26.5t75.5 -7z" />
<glyph unicode="7" d="M1251 1427v-94q-129 -205 -321 -624.5t-287 -708.5h-375q118 324 272 654.5t271 484.5h-696v288h1136z" />
<glyph unicode="8" d="M645 240q119 0 162 38t43 140q0 107 -44.5 151.5t-160.5 44.5q-119 0 -164 -44.5t-45 -151.5q0 -102 44 -140t165 -38zM645 870q100 0 144.5 37t44.5 127q0 91 -42 122.5t-147 31.5q-108 0 -150 -31.5t-42 -122.5t44.5 -127.5t147.5 -36.5zM645 -29h-2 q-210 0 -329.5 41.5t-170.5 129.5t-51 241q0 89 14.5 151t50.5 111.5t102.5 76t166.5 30.5q-94 7 -155.5 32.5t-94 71.5t-45 101t-12.5 135q0 67 9 117t31.5 93t61 72t96.5 49.5t138.5 29.5t187.5 9t187.5 -9t138.5 -29.5t96.5 -49.5t61 -72t31.5 -93t9 -117 q0 -80 -12.5 -135t-45 -101t-94 -71.5t-155.5 -32.5q100 -4 166.5 -30.5t102.5 -76t50.5 -111.5t14.5 -151q0 -153 -50.5 -241t-169.5 -129.5t-329 -41.5z" />
<glyph unicode="9" d="M332 0q314 321 424 541q-50 -4 -127 -4q-206 0 -320.5 43t-162.5 136t-48 259q0 142 27 233.5t93.5 149.5t168.5 81t260 23q114 0 197 -10t146 -34t103 -59.5t65 -93t34.5 -127t9.5 -167.5q0 -145 -34 -279t-99.5 -254.5t-145.5 -224.5t-188 -213h-403zM672 815 q95 0 168 8q10 46 10 117q0 97 -17.5 143t-58 62t-127.5 16q-124 0 -165.5 -37.5t-41.5 -138.5q0 -45 5.5 -72.5t19 -48t41 -30.5t66 -14.5t100.5 -4.5z" />
<glyph unicode=":" horiz-adv-x="612" d="M305 336q111 0 150 -32t39 -136q0 -59 -9 -94.5t-32.5 -55t-57 -26t-90.5 -6.5q-109 0 -147.5 34.5t-38.5 147.5q0 104 39 136t147 32zM305 1065q112 0 150.5 -31t38.5 -135q0 -59 -9 -94.5t-32.5 -55t-57 -26t-90.5 -6.5q-109 0 -147.5 34.5t-38.5 147.5 q0 103 38.5 134.5t147.5 31.5z" />
<glyph unicode=";" horiz-adv-x="612" d="M528 215l-241 -541h-281l162 541h360zM305 1065q112 0 150.5 -31t38.5 -135q0 -59 -9 -94.5t-32.5 -55t-57 -26t-90.5 -6.5q-109 0 -147.5 34.5t-38.5 147.5q0 103 38.5 134.5t147.5 31.5z" />
<glyph unicode="&#x3c;" horiz-adv-x="1153" d="M1053 1167l-496 -419l496 -429l-162 -229l-746 578v151l744 576z" />
<glyph unicode="=" horiz-adv-x="1153" d="M74 289v301h1003v-301h-1003zM74 901v301h1003v-301h-1003z" />
<glyph unicode="&#x3e;" horiz-adv-x="1153" d="M145 319l496 420l-496 426l162 232l748 -578v-151l-744 -576z" />
<glyph unicode="?" horiz-adv-x="1036" d="M504 334q112 0 151 -31t39 -135q0 -59 -9 -94t-33 -54.5t-57 -25.5t-91 -6q-56 0 -88.5 6t-56.5 25.5t-33 54.5t-9 94q0 103 39 134.5t148 31.5zM657 457h-315q77 90 122 150t85 130.5t57 139.5t17 149q0 64 -52.5 98.5t-173.5 34.5q-196 0 -299 -39l-63 291 q75 22 188.5 36.5t206.5 14.5q305 0 438 -101.5t133 -322.5q0 -81 -25 -158.5t-74.5 -150.5t-107 -136t-137.5 -136z" />
<glyph unicode="@" horiz-adv-x="1929" d="M887 1040q-105 0 -174.5 -6.5t-130.5 -26t-96 -52.5t-60.5 -88.5t-35 -130.5t-9.5 -183q0 -113 10 -191t37.5 -138.5t67.5 -96.5t108.5 -59t153 -31t207.5 -8q122 0 208.5 11t154.5 38.5t110 70.5t69.5 112t38 156.5t10.5 211.5q0 250 -40 354h272q39 -140 39 -365 q0 -195 -32 -336.5t-96 -239.5t-169 -156.5t-241 -84.5t-322 -26q-158 0 -277 15t-218.5 50t-167 92.5t-114 143.5t-67.5 201.5t-21 267.5q0 178 36 309.5t100 215.5t164.5 134.5t216 70t268.5 19.5q102 0 173.5 -9t133.5 -32.5t100.5 -64t66 -105.5t39 -154t11.5 -212 q0 -87 -4.5 -153t-17 -120.5t-29 -92t-45.5 -66t-62 -45.5t-83 -27.5t-103.5 -14t-128.5 -3.5q-126 0 -203 15t-126.5 55.5t-68 105t-18.5 170.5q0 107 18 172t65 103t114 51.5t178 13.5q118 0 229 -21q-2 55 -11.5 87t-36 54.5t-71.5 30.5t-120 8zM969 668q-88 0 -119 -22 t-31 -97t30.5 -99t127.5 -24q84 0 116.5 28.5t32.5 112.5v90q-86 11 -157 11z" />
<glyph unicode="A" horiz-adv-x="1411" d="M1112 0q-62 148 -121 315h-588q-29 -94 -92 -315h-352q89 297 235.5 710.5t270.5 716.5h510q102 -338 245 -744t257 -683h-365zM727 1141h-53q-79 -216 -187 -541h410q-103 305 -170 541z" />
<glyph unicode="B" horiz-adv-x="1480" d="M498 281h399q53 0 78.5 37.5t25.5 119.5q0 170 -112 170h-391v-327zM498 1147v-270h389q48 0 70 31.5t22 103.5t-22 103.5t-70 31.5h-389zM1028 752q100 -4 166.5 -30t102 -75.5t49.5 -111t14 -150.5q0 -206 -97 -295.5t-280 -89.5h-815v1427h809q105 0 175.5 -21.5 t109.5 -67t55 -105.5t16 -148q0 -80 -12 -134t-44.5 -98.5t-93.5 -69t-155 -31.5z" />
<glyph unicode="C" horiz-adv-x="1204" d="M100 727q0 146 18 257.5t56 193t91.5 136t131.5 87.5t169 47t210 14q101 0 217.5 -14t196.5 -37l-64 -291q-109 39 -280 39q-59 0 -100 -2.5t-82.5 -10t-68.5 -21t-53 -36.5t-41 -54.5t-26.5 -76.5t-16.5 -102.5t-5 -132.5q0 -99 8.5 -169.5t30 -121t49.5 -80.5t76 -47 t100 -23t129 -6q68 0 148 11t132 28l64 -297q-180 -47 -414 -47q-142 0 -247 23t-188.5 75.5t-135 140t-78.5 215.5t-27 302z" />
<glyph unicode="D" horiz-adv-x="1542" d="M168 1427h596q142 0 246.5 -20t189 -68t136 -129t79 -202t27.5 -287t-27 -288t-79.5 -205.5t-136 -134t-189 -72t-246.5 -21.5h-596v1427zM1090 717q0 73 -3.5 127.5t-13 99t-22.5 74.5t-35.5 52.5t-47.5 35.5t-64.5 20.5t-79.5 10t-99 2.5h-227v-848h227q77 0 128 5.5 t94.5 23t68.5 46t43 77.5t24.5 114t6.5 160z" />
<glyph unicode="E" horiz-adv-x="1282" d="M168 1427h1065v-288h-735v-256h526v-283h-526v-311h735v-289h-1065v1427z" />
<glyph unicode="F" horiz-adv-x="1208" d="M168 1427h1040v-288h-710v-332h526v-283h-526v-524h-330v1427z" />
<glyph unicode="G" horiz-adv-x="1458" d="M981 287v299h-283v282h621v-829q-90 -28 -248 -48t-295 -20q-142 0 -247 23t-188.5 75.5t-135 140t-78.5 215.5t-27 302q0 173 31.5 300.5t89.5 210.5t150.5 133t203 70.5t259.5 20.5q105 0 236.5 -14.5t209.5 -36.5l-59 -291q-50 17 -164.5 29t-190.5 12q-84 0 -138 -5 t-105 -21t-79.5 -45t-51 -78t-31 -119t-8.5 -170q0 -99 8.5 -169.5t30 -121t49.5 -80.5t76 -47t100 -23t129 -6q33 0 135 11z" />
<glyph unicode="H" horiz-adv-x="1531" d="M498 602v-602h-330v1427h330v-520h536v520h330v-1427h-330v602h-536z" />
<glyph unicode="I" horiz-adv-x="665" d="M168 1427h330v-1427h-330v1427z" />
<glyph unicode="J" horiz-adv-x="966" d="M807 1427v-1034q0 -96 -26 -171t-69 -121.5t-103 -76.5t-122.5 -41.5t-134.5 -11.5q-189 0 -346 54l55 294q112 -40 252 -40q160 0 160 167v981h334z" />
<glyph unicode="K" horiz-adv-x="1400" d="M498 1427v-1427h-330v1427h330zM1434 0h-398q-180 329 -326 527.5t-210 226.5q67 54 206.5 236t294.5 437h394q-162 -251 -294.5 -426.5t-189.5 -228.5q60 -47 206 -251.5t317 -520.5z" />
<glyph unicode="L" horiz-adv-x="1132" d="M168 1427h330v-1136h643v-291h-973v1427z" />
<glyph unicode="M" horiz-adv-x="1923" d="M977 592q164 434 356 835h422v-1427h-319v965q-168 -371 -353 -846h-262q-241 637 -334 846v-965h-319v1427h442q176 -352 367 -835z" />
<glyph unicode="N" horiz-adv-x="1630" d="M1462 1427v-1427h-409q-242 448 -561 975v-975h-324v1427h430q281 -460 537 -940v940h327z" />
<glyph unicode="O" horiz-adv-x="1587" d="M795 1462q143 0 248.5 -20.5t192.5 -70.5t141 -133.5t83 -209.5t29 -299q0 -218 -43 -366t-133.5 -234t-215 -122t-302.5 -36q-179 0 -303.5 36t-215 122t-133.5 234t-43 366q0 173 29 299t83 209.5t141 133.5t193 70.5t249 20.5zM795 272q77 0 126 5.5t90.5 24.5 t63.5 48t37 82.5t20 121t5 171.5q0 102 -4.5 168t-20.5 117t-37 78t-63.5 44.5t-90.5 22t-126 4.5t-126 -4.5t-90.5 -22t-63.5 -44.5t-37 -78t-20.5 -117t-4.5 -168q0 -104 5 -171.5t20 -121t37 -82.5t63.5 -48t90.5 -24.5t126 -5.5z" />
<glyph unicode="P" horiz-adv-x="1400" d="M498 717h352q143 0 143 209q0 114 -35 166.5t-104 52.5h-356v-428zM498 0h-330v1427h797q391 0 391 -501q0 -99 -24 -184.5t-70.5 -153t-122 -106t-172.5 -38.5h-469v-444z" />
<glyph unicode="Q" horiz-adv-x="1601" d="M801 1462q143 0 248.5 -20.5t192.5 -70.5t141 -133.5t83 -209.5t29 -299q0 -312 -92 -473t-277 -203q135 -43 420 -446h-381q-109 175 -202.5 265.5t-163.5 98.5q-142 0 -248.5 22.5t-192.5 75.5t-140 140t-83 216t-29 304q0 144 19.5 255.5t59.5 192.5t96.5 136 t136.5 88t172.5 47t210.5 14zM801 272q77 0 126 5.5t90.5 24.5t63.5 48t37 82.5t20 121t5 171.5q0 102 -4.5 168t-20.5 117t-37 78t-63.5 44.5t-90.5 22t-126 4.5t-126 -4.5t-90.5 -22t-63.5 -44.5t-37 -78t-20.5 -117t-4.5 -168q0 -104 5 -171.5t20 -121t37 -82.5t63.5 -48 t90.5 -24.5t126 -5.5z" />
<glyph unicode="R" horiz-adv-x="1478" d="M498 1147v-367h366q57 0 91 43.5t34 134.5q0 94 -32 141.5t-89 47.5h-370zM999 612q75 -27 175 -156t294 -456h-411q-163 287 -254 398.5t-158 111.5h-147v-510h-330v1427h797q107 0 184.5 -31.5t121.5 -89.5t64.5 -131t20.5 -165q0 -81 -18.5 -147.5t-58.5 -122.5 t-111 -89.5t-169 -38.5z" />
<glyph unicode="S" horiz-adv-x="1273" d="M1169 1395l-67 -283q-162 47 -391 47q-156 0 -215.5 -32t-59.5 -107q0 -48 20.5 -74t82.5 -44t186 -32q247 -28 359 -130t112 -304q0 -132 -35.5 -221t-115 -143.5t-195.5 -77.5t-287 -23q-272 0 -463 68l68 283q177 -48 391 -48q161 0 221 29.5t60 110.5 q0 49 -20.5 76.5t-88 49t-199.5 35.5q-235 25 -341.5 115t-106.5 283q0 261 152.5 375t476.5 114q271 0 456 -67z" />
<glyph unicode="T" horiz-adv-x="1288" d="M811 0h-332v1139h-477v288h1284v-288h-475v-1139z" />
<glyph unicode="U" horiz-adv-x="1525" d="M1042 1427h332v-1028q0 -101 -28.5 -176.5t-79 -123t-129 -76.5t-168 -40.5t-207.5 -11.5t-208 11.5t-168.5 40.5t-128.5 76.5t-78.5 123t-28.5 176.5v1028h333v-862q0 -39 0.5 -60.5t3 -52t8 -46.5t15 -38t23.5 -33t35 -23.5t48.5 -18.5t64 -10t81.5 -4q68 0 116 7 t78.5 26.5t48 38t25.5 57.5t10 69.5t2 87.5v862z" />
<glyph unicode="V" horiz-adv-x="1337" d="M-66 1427h365q88 -208 199.5 -525.5t177.5 -547.5q156 399 350 1073h352q-85 -293 -234.5 -706t-279.5 -721h-422q-107 354 -249 757t-259 670z" />
<glyph unicode="W" horiz-adv-x="2070" d="M1042 862q-80 -368 -231 -862h-420q-87 361 -199 762t-204 665h358q71 -208 149 -486t132 -513q197 650 266 999h299q183 -617 266 -999q158 494 262 999h346q-68 -290 -186 -702t-221 -725h-422q-56 298 -195 862z" />
<glyph unicode="X" horiz-adv-x="1409" d="M410 1427q107 -141 309 -413q172 243 274 413h412q-159 -243 -479 -700q334 -473 504 -727h-416q-150 228 -297 434q-200 -269 -330 -434h-412q170 211 535 721q-360 491 -533 706h433z" />
<glyph unicode="Y" horiz-adv-x="1337" d="M326 1427q185 -243 366 -505q252 355 340 505h408q-270 -413 -588 -845v-582h-330v580q-430 602 -635 847h439z" />
<glyph unicode="Z" d="M31 0v70q147 210 358 532t344 537h-661v288h1185v-65q-124 -214 -351.5 -561.5t-352.5 -511.5h700v-289h-1222z" />
<glyph unicode="[" horiz-adv-x="774" d="M188 1546h625v-272h-299v-1536h299v-270h-625v2078z" />
<glyph unicode="\" horiz-adv-x="997" d="M-41 1427h336l729 -1427h-334z" />
<glyph unicode="]" horiz-adv-x="774" d="M-39 1546h625v-2078h-625v270h299v1536h-299v272z" />
<glyph unicode="^" horiz-adv-x="1148" d="M778 606l-207 473l-204 -473h-336l393 821h295l399 -821h-340z" />
<glyph unicode="_" horiz-adv-x="1038" d="M55 -377v301h928v-301h-928z" />
<glyph unicode="`" horiz-adv-x="972" d="M754 1163h-265l-309 264h324z" />
<glyph unicode="a" horiz-adv-x="1165" d="M1040 670v-617q-104 -38 -241.5 -60t-255.5 -22q-134 0 -217 15.5t-136.5 56t-74.5 106t-21 170.5q0 87 19.5 149t52 99.5t87 59t112.5 28.5t139 7q102 0 237 -27q0 58 -8 91t-34 56t-71.5 31t-123.5 8q-166 0 -326 -49l-49 250q215 55 451 55q243 0 351.5 -90 t108.5 -317zM418 330q0 -79 28 -102t121 -23q98 0 174 28v199q-55 14 -170 14q-90 0 -121.5 -21t-31.5 -95z" />
<glyph unicode="b" horiz-adv-x="1220" d="M451 733v-483q73 -27 159 -27q49 0 79 6t55.5 23.5t38 52.5t19.5 88.5t7 134.5q0 164 -40.5 221.5t-150.5 57.5q-72 0 -119.5 -20.5t-47.5 -53.5zM135 45v1434h316v-461q47 25 118 42t142 17q106 0 180 -25.5t128 -87t79.5 -167t25.5 -262.5q0 -214 -55.5 -338t-165 -175 t-293.5 -51q-123 0 -256.5 21t-218.5 53z" />
<glyph unicode="c" horiz-adv-x="966" d="M881 289l65 -264q-60 -25 -153.5 -39.5t-176.5 -14.5q-97 0 -174.5 16.5t-144 56.5t-110.5 103.5t-68.5 159.5t-24.5 223q0 156 37 264.5t108.5 169.5t162.5 87t214 26q86 0 178.5 -12t151.5 -33l-65 -266q-110 43 -238 43q-52 0 -84 -5t-63 -21t-47.5 -47t-26.5 -83 t-10 -129q0 -91 13.5 -147.5t45 -86t70.5 -39t102 -9.5q127 0 238 47z" />
<glyph unicode="d" horiz-adv-x="1220" d="M770 260v481q0 34 -47.5 57t-116.5 23q-111 0 -152.5 -61.5t-41.5 -227.5q0 -127 19.5 -190.5t59 -84.5t119.5 -21q102 0 160 24zM1085 1479v-1434q-87 -32 -220 -53t-255 -21q-138 0 -231.5 26.5t-159 90.5t-95.5 171.5t-30 268.5q0 154 32 263t93.5 170.5t139.5 88.5 t180 27q125 0 231 -45v447h315z" />
<glyph unicode="e" horiz-adv-x="1138" d="M940 268l47 -239q-77 -26 -183 -42t-196 -16q-116 0 -205.5 27.5t-161 90t-109.5 173.5t-38 268q0 155 34 263t101 169.5t154 88t205 26.5q92 0 158.5 -10.5t124.5 -37t94.5 -73t61 -118t32 -171.5t0.5 -235h-641q3 -120 56 -159.5t175 -39.5q59 0 146.5 10t144.5 25z M610 840q-97 0 -136.5 -37.5t-53.5 -138.5h364q-3 105 -40.5 140.5t-133.5 35.5z" />
<glyph unicode="f" horiz-adv-x="792" d="M485 1081v-34h324v-271h-324v-776h-313v776h-170v271h170v55q0 91 21.5 160t57.5 111t90 68.5t110.5 36t126.5 9.5q76 0 161.5 -13.5t145.5 -35.5l-68 -244q-89 27 -199 27q-70 0 -101.5 -33t-31.5 -107z" />
<glyph unicode="g" horiz-adv-x="1220" d="M770 315v484q-69 28 -160 28q-49 0 -79 -6t-55 -23.5t-38 -52.5t-19.5 -88.5t-6.5 -134.5q0 -165 39.5 -222.5t150.5 -57.5q71 0 119.5 20t48.5 53zM770 37q-118 -60 -254 -60q-106 0 -180.5 25t-131 85t-83.5 166.5t-27 262.5q0 160 30 268t95.5 173t159 92.5 t231.5 27.5q123 0 256 -20.5t219 -52.5v-920q0 -88 -15 -159.5t-41.5 -123.5t-67.5 -90.5t-87.5 -63t-107.5 -39.5t-123 -20.5t-137 -5.5q-99 0 -204 17.5t-179 44.5l55 245q177 -47 322 -47q136 0 203 43t67 152z" />
<glyph unicode="h" horiz-adv-x="1222" d="M729 1077q73 0 125.5 -10.5t101 -41t78 -82t47 -135.5t17.5 -200v-608h-314v596q0 110 -43 156.5t-135 46.5q-65 0 -111 -17.5t-46 -48.5v-733h-314v1479h314v-467q150 65 280 65z" />
<glyph unicode="i" horiz-adv-x="581" d="M451 1049v-1049h-316v1049h316zM293 1503q104 0 141 -28t37 -121q0 -102 -37 -134t-141 -32q-105 0 -141.5 31.5t-36.5 134.5q0 94 36.5 121.5t141.5 27.5z" />
<glyph unicode="j" horiz-adv-x="581" d="M293 1503q104 0 141 -28t37 -121q0 -102 -37 -134t-141 -32q-105 0 -141.5 31.5t-36.5 134.5q0 94 36.5 121.5t141.5 27.5zM451 1049v-1053q0 -229 -111 -320.5t-365 -91.5v254q81 0 120.5 36t39.5 114v1061h316z" />
<glyph unicode="k" horiz-adv-x="1204" d="M451 1479v-1479h-316v1479h316zM1206 0h-364q-327 521 -391 555q90 83 362 494h363q-123 -189 -220 -314t-141 -162q42 -28 148 -179.5t243 -393.5z" />
<glyph unicode="l" horiz-adv-x="598" d="M451 1479v-1174q0 -147 69 -254l-282 -102q-103 124 -103 348v1182h316z" />
<glyph unicode="m" horiz-adv-x="1824" d="M451 778v-778h-316v983q259 94 520 94q173 0 263 -67q191 67 362 67q150 0 239.5 -45.5t135 -155t45.5 -296.5v-580h-314v555q0 144 -34 193t-140 49q-76 0 -157 -19q20 -92 20 -198v-580h-313v555q0 144 -34 193t-140 49q-72 0 -137 -19z" />
<glyph unicode="n" horiz-adv-x="1222" d="M451 778v-778h-316v983q109 40 254.5 67t278.5 27q112 0 190 -25t133.5 -82t82 -153.5t26.5 -236.5v-580h-316v555q0 145 -35 193.5t-149 48.5q-68 0 -149 -19z" />
<glyph unicode="o" horiz-adv-x="1208" d="M602 -29q-131 0 -222.5 27t-157.5 91t-97 172.5t-31 268.5q0 159 31.5 266t98 168.5t157 87t221.5 25.5q133 0 224.5 -25.5t158 -87t98 -168.5t31.5 -266q0 -160 -31 -268.5t-97.5 -172.5t-158.5 -91t-225 -27zM602 831q-60 0 -92.5 -9t-57 -42t-32.5 -92.5t-8 -163.5 q0 -133 18 -198t56 -87t116 -22q80 0 118.5 22t56.5 87t18 198q0 84 -6 137.5t-18 88.5t-37 52t-54 23t-78 6z" />
<glyph unicode="p" horiz-adv-x="1220" d="M451 791v-482q0 -35 46 -57.5t115 -22.5q113 0 155 61t42 226q0 127 -19.5 191t-59.5 86t-120 22q-96 0 -159 -24zM135 -393v1397q84 32 218 52.5t257 20.5q110 0 190.5 -16.5t143.5 -55t102 -102.5t58.5 -157.5t19.5 -221.5q0 -155 -32 -264.5t-93 -171.5t-139 -89.5 t-180 -27.5q-122 0 -229 47v-411h-316z" />
<glyph unicode="q" horiz-adv-x="1220" d="M770 315v484q-69 28 -160 28q-49 0 -79 -6t-55 -23.5t-38 -52.5t-19.5 -88.5t-6.5 -134.5q0 -165 39.5 -222.5t150.5 -57.5q71 0 119.5 20t48.5 53zM1085 1004v-1397h-315v428q-118 -64 -262 -64q-106 0 -180 26t-128.5 87.5t-80 168t-25.5 263.5q0 160 30 268t95.5 173 t159 92.5t231.5 27.5q123 0 256 -20.5t219 -52.5z" />
<glyph unicode="r" horiz-adv-x="813" d="M135 0v1049h316v-82q63 110 254 110q49 0 104 -6v-293q-58 17 -147 17t-150 -28.5t-61 -78.5v-688h-316z" />
<glyph unicode="s" horiz-adv-x="991" d="M899 1020l-61 -234q-160 45 -310 45q-82 0 -114.5 -16.5t-32.5 -73.5q0 -42 35 -58.5t155 -31.5q190 -24 271.5 -93.5t81.5 -225.5q0 -83 -24 -146.5t-65 -104t-101.5 -65.5t-128 -35t-150.5 -10q-88 0 -195.5 16t-177.5 42l61 237q146 -43 297 -43q101 0 141 17t40 75 q0 30 -16 47.5t-61 29.5t-132 20t-146 25.5t-103.5 51.5t-65.5 91t-21 139q0 83 23.5 146.5t64 103t101 64.5t127 34.5t149.5 9.5q86 0 186 -15.5t172 -41.5z" />
<glyph unicode="t" horiz-adv-x="874" d="M829 778h-327v-391q0 -82 30 -115.5t111 -33.5q82 0 168 28l51 -241q-128 -54 -315 -54q-92 0 -154.5 16t-111.5 57.5t-72 118t-23 191.5v424h-170v271h170v155l316 127v-282h327v-271z" />
<glyph unicode="u" horiz-adv-x="1222" d="M776 270v779h311v-986q-110 -39 -254.5 -66.5t-275.5 -27.5q-150 0 -242 46t-140 156t-48 296v582h311v-557q0 -143 36.5 -192.5t150.5 -49.5q59 0 151 20z" />
<glyph unicode="v" horiz-adv-x="1048" d="M524 319q151 432 224 728h313q-152 -518 -369 -1047h-375q-162 577 -340 1047h318q121 -317 229 -728z" />
<glyph unicode="w" horiz-adv-x="1716" d="M856 608q-56 -263 -170 -608h-377q-140 517 -334 1049h322q126 -339 219 -721q45 135 108 357.5t97 363.5h285q44 -138 102 -354t92 -367q153 447 215 721h316q-173 -589 -361 -1049h-377q-72 358 -137 608z" />
<glyph unicode="x" horiz-adv-x="1064" d="M1083 0h-346q-58 101 -188 287q-136 -186 -219 -287h-342q121 143 399 522q-227 321 -395 525h360q56 -70 205 -277q59 82 182 277h342q-111 -171 -356 -517q237 -338 358 -530z" />
<glyph unicode="y" horiz-adv-x="1048" d="M338 -51q-143 520 -361 1098h318q116 -303 229 -730q157 450 224 730h313q-161 -561 -399 -1110q-90 -211 -150 -330h-346q79 135 172 342z" />
<glyph unicode="z" horiz-adv-x="1019" d="M55 1049h938v-52q-95 -158 -239.5 -373.5t-247.5 -353.5h463v-270h-949v51q130 173 279.5 394t212.5 333h-457v271z" />
<glyph unicode="{" horiz-adv-x="774" d="M809 1350q-53 -20 -87 -45.5t-61.5 -72t-40 -121t-12.5 -183.5q0 -89 -12.5 -160.5t-31 -115.5t-44 -75.5t-47.5 -45.5t-45 -21q23 -7 45 -21.5t47.5 -47t44 -77.5t31 -117.5t12.5 -162.5q0 -144 23 -229t63 -123.5t115 -67.5l-150 -227q-56 19 -102.5 43.5t-94.5 67.5 t-80.5 98t-53.5 137.5t-21 183.5q0 118 -18 201.5t-51 127.5t-71 62.5t-87 18.5v262q227 0 227 412q0 125 30 220.5t83.5 156t110.5 96t128 59.5z" />
<glyph unicode="|" horiz-adv-x="821" d="M246 1546h329v-2070h-329v2070z" />
<glyph unicode="}" horiz-adv-x="774" d="M694 639v-260q-227 0 -227 -410q0 -125 -30 -220.5t-83.5 -156t-110.5 -96t-128 -59.5l-148 233q53 21 86.5 46.5t61 71.5t39.5 119.5t12 182.5q0 89 12.5 161t31 116t44 76t47.5 46t45 21q-23 7 -45 21.5t-47.5 46.5t-44 77t-31 117t-12.5 162q0 144 -23 229 t-62.5 123.5t-113.5 67.5l148 229q71 -24 128 -59.5t110.5 -96t83.5 -156t30 -220.5q0 -412 227 -412z" />
<glyph unicode="~" horiz-adv-x="1153" d="M913 932l197 -158q-40 -106 -128 -177t-208 -71q-58 0 -120 26.5t-106.5 58.5t-98.5 58.5t-97 26.5q-39 0 -69 -25t-58 -91l-178 174q58 99 129 154t168 55q66 0 133.5 -26t113 -57t97.5 -57t92 -26q47 0 75.5 28.5t57.5 106.5z" />
<glyph unicode="&#xa1;" horiz-adv-x="681" d="M530 -362h-374l73 944h228zM340 729q-112 0 -151 31t-39 135q0 113 39 147.5t151 34.5q109 0 147.5 -34.5t38.5 -147.5q0 -103 -38.5 -134.5t-147.5 -31.5z" />
<glyph unicode="&#xa2;" horiz-adv-x="931" d="M483 1532h240v-217q109 -10 195 -39l-64 -238q-54 22 -131 25v-588q75 3 131 29l64 -236q-68 -30 -195 -45v-243h-240v243q-92 14 -161.5 49.5t-122 99.5t-80 165t-27.5 237q0 135 27.5 235t81 162t122.5 96t160 46v219zM383 768q0 -111 24.5 -170.5t75.5 -83.5v512 q-51 -24 -75.5 -83t-24.5 -175z" />
<glyph unicode="&#xa3;" horiz-adv-x="1259" d="M61 573v261h115v131q0 253 141.5 375t454.5 122q263 0 457 -67l-68 -283q-162 47 -391 47q-105 0 -163 -18.5t-79.5 -53.5t-21.5 -98v-155h407v-261h-407v-284h672v-289h-1002v573h-115z" />
<glyph unicode="&#xa4;" horiz-adv-x="1409" d="M715 170q-105 0 -178 23l-150 -193l-270 184l151 201q-63 120 -63 344q0 207 55 326l-147 192l293 180l131 -172q84 23 178 23q85 0 174 -21l110 170l293 -178l-127 -182q62 -124 62 -338q0 -218 -62 -342l142 -203l-293 -184l-127 190q-73 -20 -172 -20zM715 1016 q-51 0 -80 -4.5t-57 -20t-41 -47.5t-21 -85.5t-8 -135.5q0 -79 8 -131.5t21.5 -85t40.5 -48.5t57 -21t80 -5t80 5t57 21t40.5 48.5t21.5 85t8 131.5q0 82 -8 135.5t-21 85.5t-41 47.5t-57 20t-80 4.5z" />
<glyph unicode="&#xa5;" horiz-adv-x="1337" d="M184 532v224h211q-336 459 -508 671h439q185 -243 366 -505q252 355 340 505h408q-203 -311 -463 -671h192v-224h-317v-139h317v-223h-317v-170h-330v170h-338v223h338v139h-338z" />
<glyph unicode="&#xa6;" horiz-adv-x="821" d="M246 1546h329v-751h-329v751zM246 227h329v-751h-329v751z" />
<glyph unicode="&#xa7;" horiz-adv-x="1273" d="M1147 1397l-64 -264q-144 45 -364 45q-146 0 -203 -30.5t-57 -100.5q0 -46 19.5 -70t77 -40.5t175.5 -29.5q237 -27 357 -122.5t120 -278.5q0 -132 -100 -244q68 -83 68 -217q0 -240 -156 -350.5t-461 -110.5q-255 0 -426 64l64 266q150 -47 364 -47q146 0 203 31.5 t57 101.5q0 46 -20 70t-77 40t-175 29q-237 27 -357 122t-120 280q0 142 92 252q-62 80 -62 208q0 240 157 350.5t462 110.5q117 0 232 -17.5t194 -47.5zM440 647q-39 -26 -39 -86q0 -35 11 -56t46.5 -39t98 -29t170.5 -21q65 -6 111 -21q41 38 41 90q0 46 -22.5 71 t-92.5 43.5t-211 31.5q-62 3 -113 16z" />
<glyph unicode="&#xa8;" horiz-adv-x="1003" d="M254 1421q83 0 112 -24.5t29 -106.5q0 -89 -29.5 -117t-111.5 -28q-81 0 -110 28t-29 117q0 82 29 106.5t110 24.5zM717 1421q81 0 110 -24.5t29 -106.5q0 -89 -29 -117t-110 -28q-84 0 -113 27.5t-29 117.5q0 82 28.5 106.5t113.5 24.5z" />
<glyph unicode="&#xa9;" horiz-adv-x="1677" d="M840 1462q147 0 257.5 -20.5t202.5 -70.5t150 -133t89.5 -210t31.5 -299q0 -175 -31 -304.5t-89 -216t-149.5 -139.5t-203 -75.5t-258.5 -22.5q-148 0 -259.5 22.5t-203.5 75.5t-150 139.5t-89.5 216t-31.5 304.5q0 172 31.5 299t89.5 210t150.5 133t203 70.5t259.5 20.5 zM838 193q95 0 158.5 7.5t120 28.5t89.5 57.5t57.5 97t34 144t9.5 201.5q0 86 -5.5 152t-18.5 118.5t-30.5 89.5t-47.5 64t-62.5 43t-82 25.5t-100.5 12.5t-122 3t-121.5 -3t-99.5 -12.5t-81.5 -25.5t-62.5 -43t-47.5 -64t-30.5 -89.5t-18.5 -118.5t-5.5 -152 q0 -118 9.5 -201.5t34 -144t57.5 -97t89 -57.5t119.5 -28.5t157.5 -7.5zM1104 545l53 -209q-111 -43 -260 -43q-115 0 -188.5 17.5t-128.5 64.5t-79 131.5t-24 216.5q0 105 16.5 179t47.5 122t84 75t116.5 37.5t155.5 10.5q154 0 260 -39l-53 -211q-79 27 -186 27 q-52 0 -81.5 -6.5t-53 -28t-32 -62t-8.5 -108.5q0 -85 18.5 -129t54 -59t102.5 -15q110 0 186 29z" />
<glyph unicode="&#xaa;" horiz-adv-x="921" d="M799 1184v-449q-72 -27 -173.5 -42t-187.5 -15q-185 0 -250 50t-65 196q0 76 19.5 125.5t60.5 74t88.5 33t120.5 8.5q78 0 163 -16q0 78 -29.5 102.5t-133.5 24.5q-127 0 -228 -33l-34 180q164 39 315 39q171 0 252.5 -62.5t81.5 -215.5zM575 862v142q-39 10 -114 10 q-61 0 -84 -15t-23 -67q0 -53 20.5 -71.5t82.5 -18.5q63 0 118 20z" />
<glyph unicode="&#xab;" horiz-adv-x="1443" d="M782 1057l-319 -400l319 -407l-176 -184l-559 585l555 586zM1397 1057l-322 -400l322 -407l-178 -184l-557 585l555 586z" />
<glyph unicode="&#xac;" horiz-adv-x="1087" d="M1028 0h-328v602h-645v301h973v-903z" />
<glyph unicode="&#xae;" horiz-adv-x="1173" d="M856 1034q0 -90 -35 -125t-108 -35q45 -21 75.5 -65.5t42.5 -142.5h-192q-4 58 -26.5 100.5t-43.5 42.5h-28v-143h-183v551h349q74 0 111.5 -51.5t37.5 -131.5zM668 1024q0 47 -35 47h-92v-96h92q35 0 35 49zM1094 940q0 -151 -29.5 -252.5t-94 -162t-156.5 -86 t-226 -25.5q-135 0 -227 25.5t-157 86t-94.5 162t-29.5 252.5q0 123 20.5 212t59 148.5t101.5 94.5t141.5 50t185.5 15t185 -15t141 -50t101.5 -94.5t58.5 -148.5t20 -212zM903 940q0 77 -6.5 131t-23 93.5t-39 63t-60.5 37.5t-80.5 18.5t-105.5 4.5q-62 0 -104.5 -4.5 t-80 -18.5t-60 -37.5t-39.5 -62.5t-23.5 -93.5t-6.5 -131.5q0 -108 15.5 -175t55 -106t95.5 -53t148 -14q93 0 149.5 14t95.5 53.5t54.5 106t15.5 174.5z" />
<glyph unicode="&#xaf;" horiz-adv-x="1052" d="M238 1171v218h598v-218h-598z" />
<glyph unicode="&#xb0;" horiz-adv-x="917" d="M457 1462q114 0 187 -20.5t123.5 -73.5t71.5 -141.5t21 -227.5q0 -141 -21 -233t-71 -148t-124 -79t-187 -23q-150 0 -235 43t-126 148t-41 292q0 138 21 227t71.5 142t123.5 73.5t186 20.5zM457 735q55 0 80.5 19t37 73t11.5 170q0 112 -11.5 163.5t-36.5 68t-81 16.5 q-55 0 -80 -16t-37 -68t-12 -164q0 -115 12 -170t37.5 -73.5t79.5 -18.5z" />
<glyph unicode="&#xb1;" horiz-adv-x="1153" d="M74 760v301h350v350h301v-350h352v-301h-352v-350h-301v350h-350zM74 16v301h1003v-301h-1003z" />
<glyph unicode="&#xb2;" horiz-adv-x="929" d="M141 1192l-41 225q54 19 142 31t172 12q196 0 291.5 -65.5t95.5 -218.5q0 -216 -162 -275q-22 -7 -51.5 -17t-46 -15.5l-39 -13t-35 -12.5t-27.5 -12.5t-23 -13.5t-16 -14t-12 -16.5t-6 -18.5h420v-219h-729q8 132 39 218t87 141t150 98q16 7 48 20.5t46.5 20.5 t36.5 19.5t32 23t18 26t8 33.5q0 44 -31.5 61t-116.5 17q-57 0 -131 -11t-119 -24z" />
<glyph unicode="&#xb3;" horiz-adv-x="915" d="M276 905v199h125q63 0 85 16t22 60q0 40 -30.5 53.5t-131.5 13.5q-131 0 -211 -26l-39 206q132 33 301 33q204 0 299 -53.5t95 -179.5q0 -102 -45.5 -154t-161.5 -61q123 -6 175 -63t52 -169q0 -140 -103.5 -199t-310.5 -59q-160 0 -305 31l39 211q37 -12 102 -19.5 t115 -7.5q105 0 139.5 17t34.5 63q0 53 -24.5 70.5t-91.5 17.5h-130z" />
<glyph unicode="&#xb4;" horiz-adv-x="972" d="M446 1163h-266l252 264h322z" />
<glyph unicode="&#xb6;" horiz-adv-x="1400" d="M1233 0h-285v444h-164v-444h-284v444h-66q-97 0 -172.5 38.5t-122 106t-70.5 153t-24 184.5q0 501 391 501h797v-1427z" />
<glyph unicode="&#xb7;" horiz-adv-x="643" d="M319 801q122 0 163.5 -33t41.5 -145q0 -121 -42 -159t-163 -38q-118 0 -159 38t-41 159q0 112 40.5 145t159.5 33z" />
<glyph unicode="&#xb8;" horiz-adv-x="1300" d="M678 0h117v-80q110 0 162.5 -37.5t52.5 -124.5q0 -99 -65 -136.5t-228 -37.5q-119 0 -193 27l49 123q43 -19 127 -19q40 0 55 10.5t15 36.5q0 22 -15.5 33t-52.5 14t-98 -2z" />
<glyph unicode="&#xb9;" horiz-adv-x="813" d="M584 553h-256v582l-195 -80l-70 215l521 211v-928z" />
<glyph unicode="&#xba;" horiz-adv-x="962" d="M479 647q-185 0 -277.5 94.5t-92.5 315.5q0 220 93 312.5t277 92.5q189 0 282 -92.5t93 -312.5q0 -221 -93.5 -315.5t-281.5 -94.5zM479 1274q-54 0 -81 -15.5t-40.5 -63t-13.5 -142.5q0 -91 13 -137.5t41 -64t81 -17.5q80 0 108.5 43.5t28.5 175.5q0 95 -13.5 142.5 t-41 63t-82.5 15.5z" />
<glyph unicode="&#xbb;" horiz-adv-x="1443" d="M662 248l319 399l-319 408l178 184l557 -588l-555 -583zM49 248l320 399l-320 408l176 184l557 -588l-555 -583z" />
<glyph unicode="&#xbc;" horiz-adv-x="1845" d="M1133 1427h303l-920 -1427h-303zM1397 186h-469v115q179 305 393 598h328v-489h116v-224h-116v-186h-252v186zM1397 410v284q-119 -155 -191 -284h191zM539 553h-254v582l-197 -80l-68 215l519 211v-928z" />
<glyph unicode="&#xbd;" horiz-adv-x="1845" d="M1135 643l-41 225q53 19 140 31t171 12q196 0 292.5 -65.5t96.5 -218.5q0 -216 -162 -275q-22 -7 -51.5 -16.5t-46.5 -15.5t-39 -13.5t-35 -12.5t-28 -12t-23.5 -13.5t-16.5 -14.5t-12 -16.5t-6 -18.5h422v-219h-729q12 194 73.5 293.5t202.5 163.5q15 7 55.5 24t55.5 25 t38 23.5t31.5 32.5t8.5 38q0 44 -31.5 61t-116.5 17q-58 0 -131 -11t-118 -24zM1128 1427h304l-920 -1427h-303zM535 553h-254v582l-197 -80l-68 215l519 211v-928z" />
<glyph unicode="&#xbe;" horiz-adv-x="1845" d="M1268 1427h303l-920 -1427h-301zM1442 186h-469v115q179 305 393 598h328v-489h114v-224h-114v-186h-252v186zM1442 410v284q-111 -141 -191 -284h191zM217 905v199h125q63 0 85 16t22 60q0 40 -30 53.5t-130 13.5q-130 0 -213 -26l-37 206q132 33 301 33 q203 0 297 -53.5t94 -179.5q0 -102 -45 -154t-160 -61q123 -6 174.5 -63t51.5 -169q0 -139 -103 -198.5t-309 -59.5q-162 0 -307 31l39 211q37 -12 102 -19.5t115 -7.5q107 0 141.5 17t34.5 63q0 53 -25 70.5t-94 17.5h-129z" />
<glyph unicode="&#xbf;" horiz-adv-x="1036" d="M537 729q-112 0 -151.5 31t-39.5 135q0 59 9 94t33.5 54.5t57.5 25.5t91 6q56 0 88.5 -6t56 -25.5t32.5 -54.5t9 -94q0 -103 -38.5 -134.5t-147.5 -31.5zM383 606h315q-77 -90 -122 -150t-85 -130.5t-56.5 -139.5t-16.5 -149q0 -64 52 -98.5t173 -34.5q196 0 299 39 l64 -291q-75 -22 -189 -36.5t-207 -14.5q-305 0 -438 101.5t-133 322.5q0 81 25 158.5t74.5 150.5t107 136t137.5 136z" />
<glyph unicode="&#xc0;" horiz-adv-x="1411" d="M1112 0q-62 148 -121 315h-588q-29 -94 -92 -315h-352q89 297 235.5 710.5t270.5 716.5h510q102 -338 245 -744t257 -683h-365zM727 1141h-53q-79 -216 -187 -541h410q-103 305 -170 541zM922 1530h-271l-321 264h327z" />
<glyph unicode="&#xc1;" horiz-adv-x="1411" d="M1112 0q-62 148 -121 315h-588q-29 -94 -92 -315h-352q89 297 235.5 710.5t270.5 716.5h510q102 -338 245 -744t257 -683h-365zM727 1141h-53q-79 -216 -187 -541h410q-103 305 -170 541zM750 1530h-267l260 264h326z" />
<glyph unicode="&#xc2;" horiz-adv-x="1411" d="M1112 0q-62 148 -121 315h-588q-29 -94 -92 -315h-352q89 297 235.5 710.5t270.5 716.5h510q102 -338 245 -744t257 -683h-365zM727 1141h-53q-79 -216 -187 -541h410q-103 305 -170 541zM842 1530l-137 147l-132 -147h-266l250 264h301l258 -264h-274z" />
<glyph unicode="&#xc3;" horiz-adv-x="1411" d="M1112 0q-62 148 -121 315h-588q-29 -94 -92 -315h-352q89 297 235.5 710.5t270.5 716.5h510q102 -338 245 -744t257 -683h-365zM727 1141h-53q-79 -216 -187 -541h410q-103 305 -170 541zM940 1812l147 -118q-30 -84 -97 -138.5t-159 -54.5q-55 0 -107 24t-98.5 48 t-86.5 24q-30 0 -53 -20.5t-46 -71.5l-133 131q91 162 225 162q64 0 120.5 -23t102 -46t83.5 -23q36 0 57.5 22t44.5 84z" />
<glyph unicode="&#xc4;" horiz-adv-x="1411" d="M1112 0q-62 148 -121 315h-588q-29 -94 -92 -315h-352q89 297 235.5 710.5t270.5 716.5h510q102 -338 245 -744t257 -683h-365zM727 1141h-53q-79 -216 -187 -541h410q-103 305 -170 541zM473 1786q83 0 112 -23.5t29 -105.5q0 -91 -29 -118.5t-112 -27.5 q-82 0 -110.5 27.5t-28.5 118.5q0 82 28 105.5t111 23.5zM936 1786q82 0 110.5 -24t28.5 -105q0 -91 -29 -118.5t-110 -27.5q-84 0 -112.5 27.5t-28.5 118.5q0 82 28 105.5t113 23.5z" />
<glyph unicode="&#xc5;" horiz-adv-x="1411" d="M1112 0q-62 148 -121 315h-588q-29 -94 -92 -315h-352q89 297 235.5 710.5t270.5 716.5h510q102 -338 245 -744t257 -683h-365zM727 1141h-53q-79 -216 -187 -541h410q-103 305 -170 541zM707 1841q133 0 192 -45t59 -160t-58.5 -159.5t-192.5 -44.5q-135 0 -195.5 44.5 t-60.5 159.5q0 116 58.5 160.5t197.5 44.5zM707 1714q-58 0 -77.5 -17.5t-19.5 -62.5t19.5 -62.5t77.5 -17.5q56 0 75 18t19 62q0 45 -19 62.5t-75 17.5z" />
<glyph unicode="&#xc6;" horiz-adv-x="1990" d="M670 1427h1272v-288h-734v-256h428v-283h-428v-311h734v-289h-1063v315h-605q-53 -82 -198 -315h-398q194 302 481 715.5t511 711.5zM879 1141h-52q-173 -245 -368 -541h420v541z" />
<glyph unicode="&#xc7;" horiz-adv-x="1204" d="M100 727q0 146 18 257.5t56 193t91.5 136t131.5 87.5t169 47t210 14q101 0 217.5 -14t196.5 -37l-64 -291q-109 39 -280 39q-59 0 -100 -2.5t-82.5 -10t-68.5 -21t-53 -36.5t-41 -54.5t-26.5 -76.5t-16.5 -102.5t-5 -132.5q0 -99 8.5 -169.5t30 -121t49.5 -80.5t76 -47 t100 -23t129 -6q68 0 148 11t132 28l64 -297q-180 -47 -414 -47q-142 0 -247 23t-188.5 75.5t-135 140t-78.5 215.5t-27 302zM684 0h117v-80q110 0 162.5 -37.5t52.5 -124.5q0 -99 -65 -136.5t-228 -37.5q-119 0 -193 27l50 123q43 -19 127 -19q39 0 54 10.5t15 36.5 q0 22 -15.5 33t-52.5 14t-98 -2z" />
<glyph unicode="&#xc8;" horiz-adv-x="1282" d="M168 1427h1065v-288h-735v-256h526v-283h-526v-311h735v-289h-1065v1427zM987 1530h-270l-322 264h328z" />
<glyph unicode="&#xc9;" horiz-adv-x="1282" d="M168 1427h1065v-288h-735v-256h526v-283h-526v-311h735v-289h-1065v1427zM768 1530h-266l260 264h325z" />
<glyph unicode="&#xca;" horiz-adv-x="1282" d="M168 1427h1065v-288h-735v-256h526v-283h-526v-311h735v-289h-1065v1427zM848 1530l-137 147l-131 -147h-267l250 264h301l258 -264h-274z" />
<glyph unicode="&#xcb;" horiz-adv-x="1282" d="M168 1427h1065v-288h-735v-256h526v-283h-526v-311h735v-289h-1065v1427zM479 1786q84 0 113 -24t29 -105q0 -91 -29.5 -118.5t-112.5 -27.5q-82 0 -110.5 27.5t-28.5 118.5q0 82 28 105.5t111 23.5zM942 1786q82 0 110.5 -24t28.5 -105q0 -91 -29 -118.5t-110 -27.5 q-84 0 -112.5 27.5t-28.5 118.5q0 82 28 105.5t113 23.5z" />
<glyph unicode="&#xcc;" horiz-adv-x="665" d="M168 1427h330v-1427h-330v1427zM532 1530h-270l-321 264h327z" />
<glyph unicode="&#xcd;" horiz-adv-x="665" d="M168 1427h330v-1427h-330v1427zM408 1530h-267l260 264h326z" />
<glyph unicode="&#xce;" horiz-adv-x="665" d="M168 1427h330v-1427h-330v1427zM465 1530l-137 147l-131 -147h-267l250 264h301l258 -264h-274z" />
<glyph unicode="&#xcf;" horiz-adv-x="665" d="M168 1427h330v-1427h-330v1427zM104 1786q84 0 113 -24t29 -105q0 -91 -29.5 -118.5t-112.5 -27.5q-82 0 -110.5 27.5t-28.5 118.5q0 82 28 105.5t111 23.5zM567 1786q82 0 111 -24t29 -105q0 -90 -29.5 -118t-110.5 -28q-84 0 -112.5 27.5t-28.5 118.5q0 82 28 105.5 t113 23.5z" />
<glyph unicode="&#xd0;" horiz-adv-x="1542" d="M61 614v226h107v587h596q142 0 246.5 -20t189 -68t136 -129t79 -202t27.5 -287t-27 -288t-79.5 -205.5t-136 -134t-189 -72t-246.5 -21.5h-596v614h-107zM1090 717q0 73 -3.5 127.5t-13 98.5t-22 74t-35.5 52.5t-48 35t-64.5 20t-79.5 10t-99 2.5h-227v-297h323v-226 h-323v-323h227q77 0 128 5.5t94.5 23t68.5 46t43 77.5t24.5 114t6.5 160z" />
<glyph unicode="&#xd1;" horiz-adv-x="1630" d="M1462 1427v-1427h-409q-242 448 -561 975v-975h-324v1427h430q281 -460 537 -940v940h327zM1059 1812l147 -118q-30 -84 -97 -138.5t-159 -54.5q-55 0 -107.5 24t-99 48t-86.5 24q-30 0 -52.5 -20.5t-45.5 -71.5l-133 131q91 162 225 162q51 0 97.5 -14.5t76 -31.5 t65 -31.5t66.5 -14.5q36 0 58 22t45 84z" />
<glyph unicode="&#xd2;" horiz-adv-x="1587" d="M795 1462q143 0 248.5 -20.5t192.5 -70.5t141 -133.5t83 -209.5t29 -299q0 -218 -43 -366t-133.5 -234t-215 -122t-302.5 -36q-179 0 -303.5 36t-215 122t-133.5 234t-43 366q0 173 29 299t83 209.5t141 133.5t193 70.5t249 20.5zM795 272q77 0 126 5.5t90.5 24.5 t63.5 48t37 82.5t20 121t5 171.5q0 102 -4.5 168t-20.5 117t-37 78t-63.5 44.5t-90.5 22t-126 4.5t-126 -4.5t-90.5 -22t-63.5 -44.5t-37 -78t-20.5 -117t-4.5 -168q0 -104 5 -171.5t20 -121t37 -82.5t63.5 -48t90.5 -24.5t126 -5.5zM1012 1530h-271l-321 264h328z" />
<glyph unicode="&#xd3;" horiz-adv-x="1587" d="M795 1462q143 0 248.5 -20.5t192.5 -70.5t141 -133.5t83 -209.5t29 -299q0 -218 -43 -366t-133.5 -234t-215 -122t-302.5 -36q-179 0 -303.5 36t-215 122t-133.5 234t-43 366q0 173 29 299t83 209.5t141 133.5t193 70.5t249 20.5zM795 272q77 0 126 5.5t90.5 24.5 t63.5 48t37 82.5t20 121t5 171.5q0 102 -4.5 168t-20.5 117t-37 78t-63.5 44.5t-90.5 22t-126 4.5t-126 -4.5t-90.5 -22t-63.5 -44.5t-37 -78t-20.5 -117t-4.5 -168q0 -104 5 -171.5t20 -121t37 -82.5t63.5 -48t90.5 -24.5t126 -5.5zM768 1530h-266l260 264h325z" />
<glyph unicode="&#xd4;" horiz-adv-x="1587" d="M795 1462q143 0 248.5 -20.5t192.5 -70.5t141 -133.5t83 -209.5t29 -299q0 -218 -43 -366t-133.5 -234t-215 -122t-302.5 -36q-179 0 -303.5 36t-215 122t-133.5 234t-43 366q0 173 29 299t83 209.5t141 133.5t193 70.5t249 20.5zM795 272q77 0 126 5.5t90.5 24.5 t63.5 48t37 82.5t20 121t5 171.5q0 102 -4.5 168t-20.5 117t-37 78t-63.5 44.5t-90.5 22t-126 4.5t-126 -4.5t-90.5 -22t-63.5 -44.5t-37 -78t-20.5 -117t-4.5 -168q0 -104 5 -171.5t20 -121t37 -82.5t63.5 -48t90.5 -24.5t126 -5.5zM922 1530l-138 147l-131 -147h-266 l250 264h301l258 -264h-274z" />
<glyph unicode="&#xd5;" horiz-adv-x="1587" d="M795 1462q143 0 248.5 -20.5t192.5 -70.5t141 -133.5t83 -209.5t29 -299q0 -218 -43 -366t-133.5 -234t-215 -122t-302.5 -36q-179 0 -303.5 36t-215 122t-133.5 234t-43 366q0 173 29 299t83 209.5t141 133.5t193 70.5t249 20.5zM795 272q77 0 126 5.5t90.5 24.5 t63.5 48t37 82.5t20 121t5 171.5q0 102 -4.5 168t-20.5 117t-37 78t-63.5 44.5t-90.5 22t-126 4.5t-126 -4.5t-90.5 -22t-63.5 -44.5t-37 -78t-20.5 -117t-4.5 -168q0 -104 5 -171.5t20 -121t37 -82.5t63.5 -48t90.5 -24.5t126 -5.5zM1036 1812l148 -118q-30 -84 -97 -138.5 t-159 -54.5q-55 0 -107.5 24t-99 48t-86.5 24q-30 0 -52.5 -20.5t-45.5 -71.5l-134 131q91 162 226 162q51 0 97.5 -14.5t76 -31.5t65 -31.5t66.5 -14.5q36 0 57.5 22t44.5 84z" />
<glyph unicode="&#xd6;" horiz-adv-x="1587" d="M795 1462q143 0 248.5 -20.5t192.5 -70.5t141 -133.5t83 -209.5t29 -299q0 -218 -43 -366t-133.5 -234t-215 -122t-302.5 -36q-179 0 -303.5 36t-215 122t-133.5 234t-43 366q0 173 29 299t83 209.5t141 133.5t193 70.5t249 20.5zM795 272q77 0 126 5.5t90.5 24.5 t63.5 48t37 82.5t20 121t5 171.5q0 102 -4.5 168t-20.5 117t-37 78t-63.5 44.5t-90.5 22t-126 4.5t-126 -4.5t-90.5 -22t-63.5 -44.5t-37 -78t-20.5 -117t-4.5 -168q0 -104 5 -171.5t20 -121t37 -82.5t63.5 -48t90.5 -24.5t126 -5.5zM559 1786q83 0 112 -23.5t29 -105.5 q0 -91 -29 -118.5t-112 -27.5q-82 0 -110.5 27.5t-28.5 118.5q0 82 28 105.5t111 23.5zM1022 1786q82 0 110.5 -24t28.5 -105q0 -91 -29 -118.5t-110 -27.5q-84 0 -112.5 27.5t-28.5 118.5q0 82 28 105.5t113 23.5z" />
<glyph unicode="&#xd7;" horiz-adv-x="1153" d="M328 285l-213 213l247 247l-249 248l215 213l245 -248l248 250l215 -215l-250 -248l248 -247l-211 -213l-248 247z" />
<glyph unicode="&#xd8;" horiz-adv-x="1587" d="M1253 1427h336q-33 -38 -98 -111.5t-98 -111.5q94 -166 94 -475q0 -175 -28.5 -304.5t-82.5 -216.5t-140.5 -139.5t-192.5 -75t-248 -22.5q-259 0 -410 80q-42 -48 -45 -51h-334q27 32 94 106.5t101 116.5q-103 177 -103 506q0 173 29 299t83.5 209.5t141.5 133.5 t193.5 70.5t249.5 20.5q266 0 417 -84q7 8 20.5 24.5t20.5 24.5zM795 1159q-69 0 -114.5 -4t-85.5 -17t-63.5 -34.5t-41 -58.5t-25 -87.5t-10.5 -123.5q0 -15 -1 -48t-1 -51q0 -8 1 -26t1 -27q3 -98 14 -156q43 50 231.5 267t290.5 335q-63 31 -196 31zM795 272 q104 0 163 12t100.5 51t57.5 106t19 182v145q-3 72 -15 125q-384 -439 -514 -592q57 -29 189 -29z" />
<glyph unicode="&#xd9;" horiz-adv-x="1525" d="M1042 1427h332v-1028q0 -101 -28.5 -176.5t-79 -123t-129 -76.5t-168 -40.5t-207.5 -11.5t-208 11.5t-168.5 40.5t-128.5 76.5t-78.5 123t-28.5 176.5v1028h333v-862q0 -39 0.5 -60.5t3 -52t8 -46.5t15 -38t23.5 -33t35 -23.5t48.5 -18.5t64 -10t81.5 -4q68 0 116 7 t78.5 26.5t48 38t25.5 57.5t10 69.5t2 87.5v862zM1006 1530h-271l-321 264h327z" />
<glyph unicode="&#xda;" horiz-adv-x="1525" d="M1042 1427h332v-1028q0 -101 -28.5 -176.5t-79 -123t-129 -76.5t-168 -40.5t-207.5 -11.5t-208 11.5t-168.5 40.5t-128.5 76.5t-78.5 123t-28.5 176.5v1028h333v-862q0 -39 0.5 -60.5t3 -52t8 -46.5t15 -38t23.5 -33t35 -23.5t48.5 -18.5t64 -10t81.5 -4q68 0 116 7 t78.5 26.5t48 38t25.5 57.5t10 69.5t2 87.5v862zM788 1530h-266l260 264h326z" />
<glyph unicode="&#xdb;" horiz-adv-x="1525" d="M1042 1427h332v-1028q0 -101 -28.5 -176.5t-79 -123t-129 -76.5t-168 -40.5t-207.5 -11.5t-208 11.5t-168.5 40.5t-128.5 76.5t-78.5 123t-28.5 176.5v1028h333v-862q0 -39 0.5 -60.5t3 -52t8 -46.5t15 -38t23.5 -33t35 -23.5t48.5 -18.5t64 -10t81.5 -4q68 0 116 7 t78.5 26.5t48 38t25.5 57.5t10 69.5t2 87.5v862zM887 1530l-137 147l-132 -147h-266l250 264h301l258 -264h-274z" />
<glyph unicode="&#xdc;" horiz-adv-x="1525" d="M1042 1427h332v-1028q0 -101 -28.5 -176.5t-79 -123t-129 -76.5t-168 -40.5t-207.5 -11.5t-208 11.5t-168.5 40.5t-128.5 76.5t-78.5 123t-28.5 176.5v1028h333v-862q0 -39 0.5 -60.5t3 -52t8 -46.5t15 -38t23.5 -33t35 -23.5t48.5 -18.5t64 -10t81.5 -4q68 0 116 7 t78.5 26.5t48 38t25.5 57.5t10 69.5t2 87.5v862zM526 1786q84 0 113 -24t29 -105q0 -91 -29.5 -118.5t-112.5 -27.5q-82 0 -110.5 27.5t-28.5 118.5q0 82 28 105.5t111 23.5zM989 1786q82 0 110.5 -24t28.5 -105q0 -91 -29 -118.5t-110 -27.5q-84 0 -112.5 27.5t-28.5 118.5 q0 82 28 105.5t113 23.5z" />
<glyph unicode="&#xdd;" horiz-adv-x="1337" d="M326 1427q185 -243 366 -505q252 355 340 505h408q-270 -413 -588 -845v-582h-330v580q-430 602 -635 847h439zM743 1530h-266l260 264h326z" />
<glyph unicode="&#xde;" horiz-adv-x="1400" d="M168 1427h330v-196h467q391 0 391 -502q0 -99 -24 -184t-70.5 -152t-122 -105t-172.5 -38h-469v-250h-330v1427zM498 520h352q145 0 145 209q0 219 -141 219h-356v-428z" />
<glyph unicode="&#xdf;" horiz-adv-x="1378" d="M682 1462q309 0 440 -83.5t131 -286.5q0 -80 -12 -135t-44 -101t-93.5 -71.5t-155.5 -32.5q99 -4 165.5 -30.5t103 -76t51 -111.5t14.5 -151q0 -228 -132.5 -320t-447.5 -92q-80 0 -159 9l37 268q78 -8 139 -8q129 0 174 39t45 139q0 111 -47.5 153.5t-159.5 42.5h-94 v254h86q112 0 154.5 41t42.5 125q0 88 -50.5 120t-189.5 32q-117 0 -173 -45t-56 -125v-1016h-316v1071q0 109 37 186t110.5 121.5t170.5 64t229 19.5z" />
<glyph unicode="&#xe0;" horiz-adv-x="1165" d="M1040 670v-617q-104 -38 -241.5 -60t-255.5 -22q-134 0 -217 15.5t-136.5 56t-74.5 106t-21 170.5q0 87 19.5 149t52 99.5t87 59t112.5 28.5t139 7q102 0 237 -27q0 58 -8 91t-34 56t-71.5 31t-123.5 8q-166 0 -326 -49l-49 250q215 55 451 55q243 0 351.5 -90 t108.5 -317zM418 330q0 -79 28 -102t121 -23q98 0 174 28v199q-55 14 -170 14q-90 0 -121.5 -21t-31.5 -95zM776 1163h-264l-309 264h323z" />
<glyph unicode="&#xe1;" horiz-adv-x="1165" d="M1040 670v-617q-104 -38 -241.5 -60t-255.5 -22q-134 0 -217 15.5t-136.5 56t-74.5 106t-21 170.5q0 87 19.5 149t52 99.5t87 59t112.5 28.5t139 7q102 0 237 -27q0 58 -8 91t-34 56t-71.5 31t-123.5 8q-166 0 -326 -49l-49 250q215 55 451 55q243 0 351.5 -90 t108.5 -317zM418 330q0 -79 28 -102t121 -23q98 0 174 28v199q-55 14 -170 14q-90 0 -121.5 -21t-31.5 -95zM643 1163h-266l252 264h321z" />
<glyph unicode="&#xe2;" horiz-adv-x="1165" d="M1040 670v-617q-104 -38 -241.5 -60t-255.5 -22q-134 0 -217 15.5t-136.5 56t-74.5 106t-21 170.5q0 87 19.5 149t52 99.5t87 59t112.5 28.5t139 7q102 0 237 -27q0 58 -8 91t-34 56t-71.5 31t-123.5 8q-166 0 -326 -49l-49 250q215 55 451 55q243 0 351.5 -90 t108.5 -317zM418 330q0 -79 28 -102t121 -23q98 0 174 28v199q-55 14 -170 14q-90 0 -121.5 -21t-31.5 -95zM715 1163q-23 23 -135 146q-23 -25 -66.5 -74.5t-64.5 -71.5h-269q42 44 125 132t125 132h301l258 -264h-274z" />
<glyph unicode="&#xe3;" horiz-adv-x="1165" d="M1040 670v-617q-104 -38 -241.5 -60t-255.5 -22q-134 0 -217 15.5t-136.5 56t-74.5 106t-21 170.5q0 87 19.5 149t52 99.5t87 59t112.5 28.5t139 7q102 0 237 -27q0 58 -8 91t-34 56t-71.5 31t-123.5 8q-166 0 -326 -49l-49 250q215 55 451 55q243 0 351.5 -90 t108.5 -317zM418 330q0 -79 28 -102t121 -23q98 0 174 28v199q-55 14 -170 14q-90 0 -121.5 -21t-31.5 -95zM805 1450l147 -119q-32 -85 -96.5 -138.5t-157.5 -53.5q-55 0 -106 24t-96.5 48t-85.5 24q-30 0 -53.5 -21t-45.5 -73l-135 133q92 164 227 164q51 0 97.5 -15 t74 -32.5t62 -32.5t65.5 -15q36 0 58 22.5t45 84.5z" />
<glyph unicode="&#xe4;" horiz-adv-x="1165" d="M1040 670v-617q-104 -38 -241.5 -60t-255.5 -22q-134 0 -217 15.5t-136.5 56t-74.5 106t-21 170.5q0 87 19.5 149t52 99.5t87 59t112.5 28.5t139 7q102 0 237 -27q0 58 -8 91t-34 56t-71.5 31t-123.5 8q-166 0 -326 -49l-49 250q215 55 451 55q243 0 351.5 -90 t108.5 -317zM418 330q0 -79 28 -102t121 -23q98 0 174 28v199q-55 14 -170 14q-90 0 -121.5 -21t-31.5 -95zM336 1421q83 0 112 -24.5t29 -106.5q0 -89 -29.5 -117t-111.5 -28q-81 0 -110 28t-29 117q0 82 29 106.5t110 24.5zM799 1421q81 0 110 -24.5t29 -106.5 q0 -89 -29 -117t-110 -28q-84 0 -113 27.5t-29 117.5q0 82 28.5 106.5t113.5 24.5z" />
<glyph unicode="&#xe5;" horiz-adv-x="1165" d="M1040 670v-617q-104 -38 -241.5 -60t-255.5 -22q-134 0 -217 15.5t-136.5 56t-74.5 106t-21 170.5q0 87 19.5 149t52 99.5t87 59t112.5 28.5t139 7q102 0 237 -27q0 58 -8 91t-34 56t-71.5 31t-123.5 8q-166 0 -326 -49l-49 250q215 55 451 55q243 0 351.5 -90 t108.5 -317zM418 330q0 -79 28 -102t121 -23q98 0 174 28v199q-55 14 -170 14q-90 0 -121.5 -21t-31.5 -95zM580 1520q133 0 192 -45t59 -160t-59 -160t-192 -45q-135 0 -195.5 45t-60.5 160q0 116 58.5 160.5t197.5 44.5zM580 1393q-58 0 -77.5 -17.5t-19.5 -62.5 q0 -44 19.5 -61t77.5 -17q56 0 75 17.5t19 60.5q0 46 -18.5 63t-75.5 17z" />
<glyph unicode="&#xe6;" horiz-adv-x="1767" d="M1569 268l49 -239q-79 -26 -184 -42t-195 -16q-177 0 -285 64q-85 -30 -198 -47t-213 -17q-134 0 -217 15.5t-136.5 56t-74.5 106t-21 170.5q0 87 19.5 149t52 99.5t87 59t112.5 28.5t139 7q102 0 237 -27q0 47 -5 75t-18 50.5t-40.5 33t-68 16t-105.5 5.5 q-186 0 -326 -43l-49 250q215 55 451 55q121 0 200 -22t129 -72q97 94 308 94q111 0 186.5 -15.5t137.5 -56.5t95.5 -113.5t47 -185.5t4.5 -274h-641q3 -120 56 -159.5t175 -39.5q60 0 148 10.5t143 24.5zM770 242q-33 83 -33 190q-55 14 -162 14q-91 0 -122 -20.5 t-31 -95.5q0 -78 26.5 -101.5t120.5 -23.5q45 0 108.5 11.5t92.5 25.5zM1241 840q-97 0 -138 -37t-54 -139h364q-3 106 -40 141t-132 35z" />
<glyph unicode="&#xe7;" horiz-adv-x="966" d="M881 289l65 -264q-60 -25 -153.5 -39.5t-176.5 -14.5q-97 0 -174.5 16.5t-144 56.5t-110.5 103.5t-68.5 159.5t-24.5 223q0 156 37 264.5t108.5 169.5t162.5 87t214 26q86 0 178.5 -12t151.5 -33l-65 -266q-110 43 -238 43q-52 0 -84 -5t-63 -21t-47.5 -47t-26.5 -83 t-10 -129q0 -91 13.5 -147.5t45 -86t70.5 -39t102 -9.5q127 0 238 47zM520 0h117v-80q110 0 162.5 -37.5t52.5 -124.5q0 -99 -65 -136.5t-228 -37.5q-119 0 -192 27l49 123q43 -19 127 -19q39 0 54 10.5t15 36.5q0 22 -15.5 33t-52.5 14t-98 -2z" />
<glyph unicode="&#xe8;" horiz-adv-x="1138" d="M940 268l47 -239q-77 -26 -183 -42t-196 -16q-116 0 -205.5 27.5t-161 90t-109.5 173.5t-38 268q0 155 34 263t101 169.5t154 88t205 26.5q92 0 158.5 -10.5t124.5 -37t94.5 -73t61 -118t32 -171.5t0.5 -235h-641q3 -120 56 -159.5t175 -39.5q59 0 146.5 10t144.5 25z M610 840q-97 0 -136.5 -37.5t-53.5 -138.5h364q-3 105 -40.5 140.5t-133.5 35.5zM811 1163h-264l-309 264h323z" />
<glyph unicode="&#xe9;" horiz-adv-x="1138" d="M940 268l47 -239q-77 -26 -183 -42t-196 -16q-116 0 -205.5 27.5t-161 90t-109.5 173.5t-38 268q0 155 34 263t101 169.5t154 88t205 26.5q92 0 158.5 -10.5t124.5 -37t94.5 -73t61 -118t32 -171.5t0.5 -235h-641q3 -120 56 -159.5t175 -39.5q59 0 146.5 10t144.5 25z M610 840q-97 0 -136.5 -37.5t-53.5 -138.5h364q-3 105 -40.5 140.5t-133.5 35.5zM668 1163h-267l252 264h322z" />
<glyph unicode="&#xea;" horiz-adv-x="1138" d="M940 268l47 -239q-77 -26 -183 -42t-196 -16q-116 0 -205.5 27.5t-161 90t-109.5 173.5t-38 268q0 155 34 263t101 169.5t154 88t205 26.5q92 0 158.5 -10.5t124.5 -37t94.5 -73t61 -118t32 -171.5t0.5 -235h-641q3 -120 56 -159.5t175 -39.5q59 0 146.5 10t144.5 25z M610 840q-97 0 -136.5 -37.5t-53.5 -138.5h364q-3 105 -40.5 140.5t-133.5 35.5zM739 1163q-23 23 -135 146q-23 -25 -66.5 -74.5t-64.5 -71.5h-268q42 44 125 132t125 132h301l258 -264h-275z" />
<glyph unicode="&#xeb;" horiz-adv-x="1138" d="M940 268l47 -239q-77 -26 -183 -42t-196 -16q-116 0 -205.5 27.5t-161 90t-109.5 173.5t-38 268q0 155 34 263t101 169.5t154 88t205 26.5q92 0 158.5 -10.5t124.5 -37t94.5 -73t61 -118t32 -171.5t0.5 -235h-641q3 -120 56 -159.5t175 -39.5q59 0 146.5 10t144.5 25z M610 840q-97 0 -136.5 -37.5t-53.5 -138.5h364q-3 105 -40.5 140.5t-133.5 35.5zM373 1421q83 0 112 -24.5t29 -106.5q0 -89 -29.5 -117t-111.5 -28q-81 0 -110.5 28t-29.5 117q0 82 29 106.5t111 24.5zM836 1421q81 0 110 -24.5t29 -106.5q0 -89 -29 -117t-110 -28 q-84 0 -113 27.5t-29 117.5q0 82 28.5 106.5t113.5 24.5z" />
<glyph unicode="&#xec;" horiz-adv-x="581" d="M451 1049v-1049h-316v1049h316zM492 1163h-265l-309 264h324z" />
<glyph unicode="&#xed;" horiz-adv-x="581" d="M451 1049v-1049h-316v1049h316zM348 1163h-266l252 264h321z" />
<glyph unicode="&#xee;" horiz-adv-x="581" d="M451 1049v-1049h-316v1049h316zM424 1163q-23 23 -135 146q-23 -25 -66.5 -74.5t-64.5 -71.5h-269q42 44 125 132t125 132h301l258 -264h-274z" />
<glyph unicode="&#xef;" horiz-adv-x="581" d="M451 1049v-1049h-316v1049h316zM63 1421q83 0 112.5 -24.5t29.5 -106.5q0 -89 -29.5 -117t-112.5 -28q-81 0 -110 28t-29 117q0 82 29 106.5t110 24.5zM526 1421q82 0 111 -24.5t29 -106.5q0 -89 -29.5 -117t-110.5 -28q-84 0 -112.5 27.5t-28.5 117.5q0 82 28 106.5 t113 24.5z" />
<glyph unicode="&#xf0;" d="M508 973l-117 151l141 82q-64 77 -200 221h403q57 -57 64 -65l110 68l117 -150l-104 -61q136 -175 208 -361t72 -401q0 -147 -23 -237t-86.5 -149.5t-168.5 -82.5t-277 -23q-158 0 -260 23.5t-168.5 81t-93.5 149.5t-27 234q0 166 48 259t162.5 136t320.5 43q77 0 127 -4 q-45 85 -109 170zM672 612q-62 0 -100.5 -4.5t-66 -14.5t-41 -30.5t-19 -48t-5.5 -72.5q0 -101 41.5 -138.5t165.5 -37.5q87 0 127.5 16t58 62t17.5 143q0 68 -10 117q-73 8 -168 8z" />
<glyph unicode="&#xf1;" horiz-adv-x="1222" d="M451 778v-778h-316v983q109 40 254.5 67t278.5 27q112 0 190 -25t133.5 -82t82 -153.5t26.5 -236.5v-580h-316v555q0 145 -35 193.5t-149 48.5q-68 0 -149 -19zM854 1450l147 -119q-32 -85 -96 -138.5t-157 -53.5q-55 0 -106.5 24t-97 48t-85.5 24q-30 0 -53.5 -21 t-45.5 -73l-135 133q92 164 228 164q51 0 97.5 -15t74 -32.5t62 -32.5t65.5 -15q36 0 57.5 22.5t44.5 84.5z" />
<glyph unicode="&#xf2;" horiz-adv-x="1208" d="M602 -29q-131 0 -222.5 27t-157.5 91t-97 172.5t-31 268.5q0 159 31.5 266t98 168.5t157 87t221.5 25.5q133 0 224.5 -25.5t158 -87t98 -168.5t31.5 -266q0 -160 -31 -268.5t-97.5 -172.5t-158.5 -91t-225 -27zM602 831q-60 0 -92.5 -9t-57 -42t-32.5 -92.5t-8 -163.5 q0 -133 18 -198t56 -87t116 -22q80 0 118.5 22t56.5 87t18 198q0 84 -6 137.5t-18 88.5t-37 52t-54 23t-78 6zM823 1163h-264l-309 264h323z" />
<glyph unicode="&#xf3;" horiz-adv-x="1208" d="M602 -29q-131 0 -222.5 27t-157.5 91t-97 172.5t-31 268.5q0 159 31.5 266t98 168.5t157 87t221.5 25.5q133 0 224.5 -25.5t158 -87t98 -168.5t31.5 -266q0 -160 -31 -268.5t-97.5 -172.5t-158.5 -91t-225 -27zM602 831q-60 0 -92.5 -9t-57 -42t-32.5 -92.5t-8 -163.5 q0 -133 18 -198t56 -87t116 -22q80 0 118.5 22t56.5 87t18 198q0 84 -6 137.5t-18 88.5t-37 52t-54 23t-78 6zM651 1163h-266l252 264h321z" />
<glyph unicode="&#xf4;" horiz-adv-x="1208" d="M602 -29q-131 0 -222.5 27t-157.5 91t-97 172.5t-31 268.5q0 159 31.5 266t98 168.5t157 87t221.5 25.5q133 0 224.5 -25.5t158 -87t98 -168.5t31.5 -266q0 -160 -31 -268.5t-97.5 -172.5t-158.5 -91t-225 -27zM602 831q-60 0 -92.5 -9t-57 -42t-32.5 -92.5t-8 -163.5 q0 -133 18 -198t56 -87t116 -22q80 0 118.5 22t56.5 87t18 198q0 84 -6 137.5t-18 88.5t-37 52t-54 23t-78 6zM729 1163q-23 23 -135 146q-23 -25 -66.5 -74.5t-64.5 -71.5h-268q42 44 124.5 132t124.5 132h301l259 -264h-275z" />
<glyph unicode="&#xf5;" horiz-adv-x="1208" d="M602 -29q-131 0 -222.5 27t-157.5 91t-97 172.5t-31 268.5q0 159 31.5 266t98 168.5t157 87t221.5 25.5q133 0 224.5 -25.5t158 -87t98 -168.5t31.5 -266q0 -160 -31 -268.5t-97.5 -172.5t-158.5 -91t-225 -27zM602 831q-60 0 -92.5 -9t-57 -42t-32.5 -92.5t-8 -163.5 q0 -133 18 -198t56 -87t116 -22q80 0 118.5 22t56.5 87t18 198q0 84 -6 137.5t-18 88.5t-37 52t-54 23t-78 6zM842 1450l147 -119q-32 -85 -96.5 -138.5t-157.5 -53.5q-55 0 -106.5 24t-97 48t-85.5 24q-30 0 -52.5 -21t-45.5 -73l-135 133q92 164 227 164q51 0 97.5 -15 t74 -32.5t62 -32.5t65.5 -15q36 0 58 22.5t45 84.5z" />
<glyph unicode="&#xf6;" horiz-adv-x="1208" d="M602 -29q-131 0 -222.5 27t-157.5 91t-97 172.5t-31 268.5q0 159 31.5 266t98 168.5t157 87t221.5 25.5q133 0 224.5 -25.5t158 -87t98 -168.5t31.5 -266q0 -160 -31 -268.5t-97.5 -172.5t-158.5 -91t-225 -27zM602 831q-60 0 -92.5 -9t-57 -42t-32.5 -92.5t-8 -163.5 q0 -133 18 -198t56 -87t116 -22q80 0 118.5 22t56.5 87t18 198q0 84 -6 137.5t-18 88.5t-37 52t-54 23t-78 6zM371 1421q83 0 112 -24.5t29 -106.5q0 -89 -29.5 -117t-111.5 -28q-81 0 -110.5 28t-29.5 117q0 82 29 106.5t111 24.5zM834 1421q81 0 110 -24.5t29 -106.5 q0 -89 -29 -117t-110 -28q-84 0 -113 27.5t-29 117.5q0 82 28.5 106.5t113.5 24.5z" />
<glyph unicode="&#xf7;" horiz-adv-x="1153" d="M74 594v301h1003v-301h-1003zM569 475q112 0 150.5 -31t38.5 -135q0 -59 -9 -94.5t-32.5 -55t-57 -26t-90.5 -6.5q-109 0 -147.5 34.5t-38.5 147.5q0 103 38.5 134.5t147.5 31.5zM569 1360q112 0 150.5 -31.5t38.5 -136.5q0 -112 -39 -146t-150 -34q-109 0 -147.5 34 t-38.5 146q0 105 38.5 136.5t147.5 31.5z" />
<glyph unicode="&#xf8;" horiz-adv-x="1208" d="M928 1047h278l-155 -175q63 -123 63 -344q0 -160 -31 -268.5t-97.5 -171.5t-158.5 -90t-225 -27q-180 0 -295 56l-24 -27h-279l154 174q-66 129 -66 354q0 127 21 221t61 157t103.5 101t142 54t182.5 16q193 0 301 -57zM602 831q-55 0 -87.5 -8t-58 -32.5t-36 -71.5 t-10.5 -123q0 -72 6 -133l301 346q-40 22 -115 22zM602 217q60 0 98.5 17.5t58.5 55.5t27 84.5t7 119.5q0 55 -2 84l-299 -342q37 -19 110 -19z" />
<glyph unicode="&#xf9;" horiz-adv-x="1222" d="M776 270v779h311v-986q-110 -39 -254.5 -66.5t-275.5 -27.5q-150 0 -242 46t-140 156t-48 296v582h311v-557q0 -143 36.5 -192.5t150.5 -49.5q59 0 151 20zM821 1163h-264l-309 264h323z" />
<glyph unicode="&#xfa;" horiz-adv-x="1222" d="M776 270v779h311v-986q-110 -39 -254.5 -66.5t-275.5 -27.5q-150 0 -242 46t-140 156t-48 296v582h311v-557q0 -143 36.5 -192.5t150.5 -49.5q59 0 151 20zM668 1163h-267l252 264h322z" />
<glyph unicode="&#xfb;" horiz-adv-x="1222" d="M776 270v779h311v-986q-110 -39 -254.5 -66.5t-275.5 -27.5q-150 0 -242 46t-140 156t-48 296v582h311v-557q0 -143 36.5 -192.5t150.5 -49.5q59 0 151 20zM748 1163q-47 49 -136 146q-23 -25 -66.5 -74.5t-64.5 -71.5h-268q42 44 125 132t125 132h301l258 -264h-274z " />
<glyph unicode="&#xfc;" horiz-adv-x="1222" d="M776 270v779h311v-986q-110 -39 -254.5 -66.5t-275.5 -27.5q-150 0 -242 46t-140 156t-48 296v582h311v-557q0 -143 36.5 -192.5t150.5 -49.5q59 0 151 20zM377 1421q83 0 112 -24.5t29 -106.5q0 -89 -29.5 -117t-111.5 -28q-81 0 -110 28t-29 117q0 82 29 106.5 t110 24.5zM840 1421q81 0 110 -24.5t29 -106.5q0 -89 -29 -117t-110 -28q-84 0 -113 27.5t-29 117.5q0 82 28.5 106.5t113.5 24.5z" />
<glyph unicode="&#xfd;" horiz-adv-x="1048" d="M338 -51q-143 520 -361 1098h318q116 -303 229 -730q157 450 224 730h313q-161 -561 -399 -1110q-90 -211 -150 -330h-346q79 135 172 342zM614 1163h-266l252 264h322z" />
<glyph unicode="&#xfe;" horiz-adv-x="1220" d="M135 -393v1833h316v-375q77 12 159 12q110 0 190.5 -16.5t143.5 -55t102 -102.5t58.5 -157.5t19.5 -221.5q0 -155 -32 -264.5t-93 -171.5t-139 -89.5t-180 -27.5q-122 0 -229 47v-411h-316zM451 791v-482q0 -35 46 -57.5t115 -22.5q113 0 155 61t42 226q0 127 -19.5 191 t-59.5 86t-120 22q-96 0 -159 -24z" />
<glyph unicode="&#xff;" horiz-adv-x="1048" d="M338 -51q-143 520 -361 1098h318q116 -303 229 -730q157 450 224 730h313q-161 -561 -399 -1110q-90 -211 -150 -330h-346q79 135 172 342zM303 1421q83 0 112 -24.5t29 -106.5q0 -89 -29.5 -117t-111.5 -28q-81 0 -110 28t-29 117q0 82 29 106.5t110 24.5zM766 1421 q81 0 110 -24.5t29 -106.5q0 -89 -29 -117t-110 -28q-84 0 -112.5 27.5t-28.5 117.5q0 82 28 106.5t113 24.5z" />
<glyph unicode="&#x100;" horiz-adv-x="1411" d="M1112 0q-62 148 -121 315h-588q-29 -94 -92 -315h-352q89 297 235.5 710.5t270.5 716.5h510q102 -338 245 -744t257 -683h-365zM727 1141h-53q-79 -216 -187 -541h410q-103 305 -170 541zM408 1526v219h598v-219h-598z" />
<glyph unicode="&#x101;" horiz-adv-x="1165" d="M1040 670v-617q-104 -38 -241.5 -60t-255.5 -22q-134 0 -217 15.5t-136.5 56t-74.5 106t-21 170.5q0 87 19.5 149t52 99.5t87 59t112.5 28.5t139 7q102 0 237 -27q0 58 -8 91t-34 56t-71.5 31t-123.5 8q-166 0 -326 -49l-49 250q215 55 451 55q243 0 351.5 -90 t108.5 -317zM418 330q0 -79 28 -102t121 -23q98 0 174 28v199q-55 14 -170 14q-90 0 -121.5 -21t-31.5 -95zM276 1171v218h598v-218h-598z" />
<glyph unicode="&#x102;" horiz-adv-x="1411" d="M1112 0q-62 148 -121 315h-588q-29 -94 -92 -315h-352q89 297 235.5 710.5t270.5 716.5h510q102 -338 245 -744t257 -683h-365zM727 1141h-53q-79 -216 -187 -541h410q-103 305 -170 541zM379 1784h207q0 -63 28.5 -85t94.5 -22q64 0 93 22t29 85h193q0 -293 -324 -293 q-154 0 -237.5 72.5t-83.5 220.5z" />
<glyph unicode="&#x103;" horiz-adv-x="1165" d="M1040 670v-617q-104 -38 -241.5 -60t-255.5 -22q-134 0 -217 15.5t-136.5 56t-74.5 106t-21 170.5q0 87 19.5 149t52 99.5t87 59t112.5 28.5t139 7q102 0 237 -27q0 58 -8 91t-34 56t-71.5 31t-123.5 8q-166 0 -326 -49l-49 250q215 55 451 55q243 0 351.5 -90 t108.5 -317zM418 330q0 -79 28 -102t121 -23q98 0 174 28v199q-55 14 -170 14q-90 0 -121.5 -21t-31.5 -95zM254 1427h207q0 -63 28.5 -84.5t94.5 -21.5q65 0 94 22t29 84h192q0 -292 -324 -292q-155 0 -238 72.5t-83 219.5z" />
<glyph unicode="&#x104;" horiz-adv-x="1411" d="M1112 0q-62 148 -121 315h-588q-29 -94 -92 -315h-352q89 297 235.5 710.5t270.5 716.5h510q102 -338 245 -744t257 -683h-365zM727 1141h-53q-79 -216 -187 -541h410q-103 305 -170 541zM1298 25h88q-98 -60 -130.5 -101.5t-32.5 -99.5q0 -42 24 -60t92 -18q97 0 160 53 l80 -143q-50 -35 -125.5 -53.5t-148.5 -18.5q-155 0 -216 44t-61 139q0 85 68.5 153.5t201.5 104.5z" />
<glyph unicode="&#x105;" horiz-adv-x="1165" d="M1040 670v-617q-104 -38 -241.5 -60t-255.5 -22q-134 0 -217 15.5t-136.5 56t-74.5 106t-21 170.5q0 87 19.5 149t52 99.5t87 59t112.5 28.5t139 7q102 0 237 -27q0 58 -8 91t-34 56t-71.5 31t-123.5 8q-166 0 -326 -49l-49 250q215 55 451 55q243 0 351.5 -90 t108.5 -317zM418 330q0 -79 28 -102t121 -23q98 0 174 28v199q-55 14 -170 14q-90 0 -121.5 -21t-31.5 -95zM864 25h88q-98 -60 -131 -101.5t-33 -99.5q0 -42 24.5 -60t92.5 -18q97 0 160 53l80 -143q-50 -35 -126 -53.5t-149 -18.5q-155 0 -215.5 44t-60.5 139 q0 85 68.5 153.5t201.5 104.5z" />
<glyph unicode="&#x106;" horiz-adv-x="1204" d="M100 727q0 146 18 257.5t56 193t91.5 136t131.5 87.5t169 47t210 14q101 0 217.5 -14t196.5 -37l-64 -291q-109 39 -280 39q-59 0 -100 -2.5t-82.5 -10t-68.5 -21t-53 -36.5t-41 -54.5t-26.5 -76.5t-16.5 -102.5t-5 -132.5q0 -99 8.5 -169.5t30 -121t49.5 -80.5t76 -47 t100 -23t129 -6q68 0 148 11t132 28l64 -297q-180 -47 -414 -47q-142 0 -247 23t-188.5 75.5t-135 140t-78.5 215.5t-27 302zM752 1530h-267l260 264h326z" />
<glyph unicode="&#x107;" horiz-adv-x="966" d="M881 289l65 -264q-60 -25 -153.5 -39.5t-176.5 -14.5q-97 0 -174.5 16.5t-144 56.5t-110.5 103.5t-68.5 159.5t-24.5 223q0 156 37 264.5t108.5 169.5t162.5 87t214 26q86 0 178.5 -12t151.5 -33l-65 -266q-110 43 -238 43q-52 0 -84 -5t-63 -21t-47.5 -47t-26.5 -83 t-10 -129q0 -91 13.5 -147.5t45 -86t70.5 -39t102 -9.5q127 0 238 47zM629 1163h-267l252 264h322z" />
<glyph unicode="&#x108;" horiz-adv-x="1204" d="M100 727q0 146 18 257.5t56 193t91.5 136t131.5 87.5t169 47t210 14q101 0 217.5 -14t196.5 -37l-64 -291q-109 39 -280 39q-59 0 -100 -2.5t-82.5 -10t-68.5 -21t-53 -36.5t-41 -54.5t-26.5 -76.5t-16.5 -102.5t-5 -132.5q0 -99 8.5 -169.5t30 -121t49.5 -80.5t76 -47 t100 -23t129 -6q68 0 148 11t132 28l64 -297q-180 -47 -414 -47q-142 0 -247 23t-188.5 75.5t-135 140t-78.5 215.5t-27 302zM897 1530l-137 147l-131 -147h-267l250 264h301l258 -264h-274z" />
<glyph unicode="&#x109;" horiz-adv-x="966" d="M881 289l65 -264q-60 -25 -153.5 -39.5t-176.5 -14.5q-97 0 -174.5 16.5t-144 56.5t-110.5 103.5t-68.5 159.5t-24.5 223q0 156 37 264.5t108.5 169.5t162.5 87t214 26q86 0 178.5 -12t151.5 -33l-65 -266q-110 43 -238 43q-52 0 -84 -5t-63 -21t-47.5 -47t-26.5 -83 t-10 -129q0 -91 13.5 -147.5t45 -86t70.5 -39t102 -9.5q127 0 238 47zM731 1163q-22 23 -135 146q-23 -25 -66.5 -74.5t-64.5 -71.5h-268q42 44 124.5 132t124.5 132h302l258 -264h-275z" />
<glyph unicode="&#x10a;" horiz-adv-x="1204" d="M100 727q0 146 18 257.5t56 193t91.5 136t131.5 87.5t169 47t210 14q101 0 217.5 -14t196.5 -37l-64 -291q-109 39 -280 39q-59 0 -100 -2.5t-82.5 -10t-68.5 -21t-53 -36.5t-41 -54.5t-26.5 -76.5t-16.5 -102.5t-5 -132.5q0 -99 8.5 -169.5t30 -121t49.5 -80.5t76 -47 t100 -23t129 -6q68 0 148 11t132 28l64 -297q-180 -47 -414 -47q-142 0 -247 23t-188.5 75.5t-135 140t-78.5 215.5t-27 302zM778 1796q83 0 112.5 -24.5t29.5 -106.5q0 -89 -29.5 -117t-112.5 -28q-81 0 -110 28t-29 117q0 82 29 106.5t110 24.5z" />
<glyph unicode="&#x10b;" horiz-adv-x="966" d="M881 289l65 -264q-60 -25 -153.5 -39.5t-176.5 -14.5q-97 0 -174.5 16.5t-144 56.5t-110.5 103.5t-68.5 159.5t-24.5 223q0 156 37 264.5t108.5 169.5t162.5 87t214 26q86 0 178.5 -12t151.5 -33l-65 -266q-110 43 -238 43q-52 0 -84 -5t-63 -21t-47.5 -47t-26.5 -83 t-10 -129q0 -91 13.5 -147.5t45 -86t70.5 -39t102 -9.5q127 0 238 47zM598 1421q83 0 111 -24.5t28 -106.5q0 -90 -28.5 -117.5t-110.5 -27.5t-111.5 28t-29.5 117q0 82 29 106.5t112 24.5z" />
<glyph unicode="&#x10c;" horiz-adv-x="1204" d="M100 727q0 146 18 257.5t56 193t91.5 136t131.5 87.5t169 47t210 14q101 0 217.5 -14t196.5 -37l-64 -291q-109 39 -280 39q-59 0 -100 -2.5t-82.5 -10t-68.5 -21t-53 -36.5t-41 -54.5t-26.5 -76.5t-16.5 -102.5t-5 -132.5q0 -99 8.5 -169.5t30 -121t49.5 -80.5t76 -47 t100 -23t129 -6q68 0 148 11t132 28l64 -297q-180 -47 -414 -47q-142 0 -247 23t-188.5 75.5t-135 140t-78.5 215.5t-27 302zM612 1794l138 -147l133 147h266l-250 -264h-301l-258 264h272z" />
<glyph unicode="&#x10d;" horiz-adv-x="966" d="M881 289l65 -264q-60 -25 -153.5 -39.5t-176.5 -14.5q-97 0 -174.5 16.5t-144 56.5t-110.5 103.5t-68.5 159.5t-24.5 223q0 156 37 264.5t108.5 169.5t162.5 87t214 26q86 0 178.5 -12t151.5 -33l-65 -266q-110 43 -238 43q-52 0 -84 -5t-63 -21t-47.5 -47t-26.5 -83 t-10 -129q0 -91 13.5 -147.5t45 -86t70.5 -39t102 -9.5q127 0 238 47zM465 1427q90 -98 135 -145q20 22 63.5 70.5t67.5 74.5h266q-42 -44 -124.5 -132t-124.5 -132h-302l-258 264h277z" />
<glyph unicode="&#x10e;" horiz-adv-x="1542" d="M168 1427h596q142 0 246.5 -20t189 -68t136 -129t79 -202t27.5 -287t-27 -288t-79.5 -205.5t-136 -134t-189 -72t-246.5 -21.5h-596v1427zM1090 717q0 73 -3.5 127.5t-13 99t-22.5 74.5t-35.5 52.5t-47.5 35.5t-64.5 20.5t-79.5 10t-99 2.5h-227v-848h227q77 0 128 5.5 t94.5 23t68.5 46t43 77.5t24.5 114t6.5 160zM586 1794l137 -147l133 147h266l-250 -264h-301l-258 264h273z" />
<glyph unicode="&#x10f;" horiz-adv-x="1220" d="M770 260v481q0 34 -47.5 57t-116.5 23q-111 0 -152.5 -61.5t-41.5 -227.5q0 -127 19.5 -190.5t59 -84.5t119.5 -21q102 0 160 24zM1085 1479v-1434q-87 -32 -220 -53t-255 -21q-138 0 -231.5 26.5t-159 90.5t-95.5 171.5t-30 268.5q0 154 32 263t93.5 170.5t139.5 88.5 t180 27q125 0 231 -45v447h315zM1200 1479h266l-118 -394h-187z" />
<glyph unicode="&#x110;" horiz-adv-x="1542" d="M168 1427h596q142 0 246.5 -20t189 -68t136 -129t79 -202t27.5 -287t-27 -288t-79.5 -205.5t-136 -134t-189 -72t-246.5 -21.5h-596v1427zM1090 717q0 73 -3.5 127.5t-13 99t-22.5 74.5t-35.5 52.5t-47.5 35.5t-64.5 20.5t-79.5 10t-99 2.5h-227v-848h227q77 0 128 5.5 t94.5 23t68.5 46t43 77.5t24.5 114t6.5 160zM440 1526v219h598v-219h-598z" />
<glyph unicode="&#x111;" horiz-adv-x="1220" d="M608 1171v215h162v93h315v-93h103v-215h-103v-1126q-87 -32 -220 -53t-255 -21q-138 0 -231.5 26.5t-159 90.5t-95.5 171.5t-30 268.5q0 154 32 263t93.5 170.5t139.5 88.5t180 27q125 0 231 -45v139h-162zM770 260v481q0 34 -47.5 57t-116.5 23q-111 0 -152.5 -61.5 t-41.5 -227.5q0 -127 19.5 -190.5t59 -84.5t119.5 -21q102 0 160 24z" />
<glyph unicode="&#x112;" horiz-adv-x="1282" d="M168 1427h1065v-288h-735v-256h526v-283h-526v-311h735v-289h-1065v1427zM401 1526v219h598v-219h-598z" />
<glyph unicode="&#x113;" horiz-adv-x="1138" d="M940 268l47 -239q-77 -26 -183 -42t-196 -16q-116 0 -205.5 27.5t-161 90t-109.5 173.5t-38 268q0 155 34 263t101 169.5t154 88t205 26.5q92 0 158.5 -10.5t124.5 -37t94.5 -73t61 -118t32 -171.5t0.5 -235h-641q3 -120 56 -159.5t175 -39.5q59 0 146.5 10t144.5 25z M610 840q-97 0 -136.5 -37.5t-53.5 -138.5h364q-3 105 -40.5 140.5t-133.5 35.5zM311 1171v218h598v-218h-598z" />
<glyph unicode="&#x114;" horiz-adv-x="1282" d="M168 1427h1065v-288h-735v-256h526v-283h-526v-311h735v-289h-1065v1427zM406 1784h206q0 -63 28.5 -85t94.5 -22q64 0 93.5 22t29.5 85h193q0 -293 -324 -293q-154 0 -237.5 72.5t-83.5 220.5z" />
<glyph unicode="&#x115;" horiz-adv-x="1138" d="M940 268l47 -239q-77 -26 -183 -42t-196 -16q-116 0 -205.5 27.5t-161 90t-109.5 173.5t-38 268q0 155 34 263t101 169.5t154 88t205 26.5q92 0 158.5 -10.5t124.5 -37t94.5 -73t61 -118t32 -171.5t0.5 -235h-641q3 -120 56 -159.5t175 -39.5q59 0 146.5 10t144.5 25z M610 840q-97 0 -136.5 -37.5t-53.5 -138.5h364q-3 105 -40.5 140.5t-133.5 35.5zM276 1427h207q0 -63 28.5 -84.5t94.5 -21.5q65 0 94 22t29 84h193q0 -292 -324 -292q-155 0 -238.5 72.5t-83.5 219.5z" />
<glyph unicode="&#x116;" horiz-adv-x="1282" d="M168 1427h1065v-288h-735v-256h526v-283h-526v-311h735v-289h-1065v1427zM741 1796q83 0 112.5 -24.5t29.5 -106.5q0 -89 -29.5 -117t-112.5 -28q-81 0 -110 28t-29 117q0 82 29 106.5t110 24.5z" />
<glyph unicode="&#x117;" horiz-adv-x="1138" d="M940 268l47 -239q-77 -26 -183 -42t-196 -16q-116 0 -205.5 27.5t-161 90t-109.5 173.5t-38 268q0 155 34 263t101 169.5t154 88t205 26.5q92 0 158.5 -10.5t124.5 -37t94.5 -73t61 -118t32 -171.5t0.5 -235h-641q3 -120 56 -159.5t175 -39.5q59 0 146.5 10t144.5 25z M610 840q-97 0 -136.5 -37.5t-53.5 -138.5h364q-3 105 -40.5 140.5t-133.5 35.5zM604 1421q83 0 111 -24.5t28 -106.5q0 -90 -28.5 -117.5t-110.5 -27.5t-111.5 28t-29.5 117q0 82 29 106.5t112 24.5z" />
<glyph unicode="&#x118;" horiz-adv-x="1282" d="M168 1427h1065v-288h-735v-256h526v-283h-526v-311h735v-289h-1065v1427zM1071 25h88q-98 -60 -131 -101.5t-33 -99.5q0 -42 24.5 -60t92.5 -18q97 0 160 53l80 -143q-50 -35 -126 -53.5t-149 -18.5q-155 0 -215.5 44t-60.5 139q0 85 68.5 153.5t201.5 104.5z" />
<glyph unicode="&#x119;" horiz-adv-x="1138" d="M940 268l47 -239q-77 -26 -183 -42t-196 -16q-116 0 -205.5 27.5t-161 90t-109.5 173.5t-38 268q0 155 34 263t101 169.5t154 88t205 26.5q92 0 158.5 -10.5t124.5 -37t94.5 -73t61 -118t32 -171.5t0.5 -235h-641q3 -120 56 -159.5t175 -39.5q59 0 146.5 10t144.5 25z M610 840q-97 0 -136.5 -37.5t-53.5 -138.5h364q-3 105 -40.5 140.5t-133.5 35.5zM844 25h88q-98 -60 -131 -101.5t-33 -99.5q0 -42 24.5 -60t92.5 -18q96 0 159 53l80 -143q-50 -35 -125.5 -53.5t-148.5 -18.5q-155 0 -216 44t-61 139q0 85 68.5 153.5t202.5 104.5z" />
<glyph unicode="&#x11a;" horiz-adv-x="1282" d="M168 1427h1065v-288h-735v-256h526v-283h-526v-311h735v-289h-1065v1427zM586 1794l137 -147l133 147h266l-250 -264h-301l-258 264h273z" />
<glyph unicode="&#x11b;" horiz-adv-x="1138" d="M940 268l47 -239q-77 -26 -183 -42t-196 -16q-116 0 -205.5 27.5t-161 90t-109.5 173.5t-38 268q0 155 34 263t101 169.5t154 88t205 26.5q92 0 158.5 -10.5t124.5 -37t94.5 -73t61 -118t32 -171.5t0.5 -235h-641q3 -120 56 -159.5t175 -39.5q59 0 146.5 10t144.5 25z M610 840q-97 0 -136.5 -37.5t-53.5 -138.5h364q-3 105 -40.5 140.5t-133.5 35.5zM469 1427q90 -98 135 -145q20 22 63.5 70.5t67.5 74.5h266q-42 -44 -124.5 -132t-124.5 -132h-301l-258 264h276z" />
<glyph unicode="&#x11c;" horiz-adv-x="1458" d="M981 287v299h-283v282h621v-829q-90 -28 -248 -48t-295 -20q-142 0 -247 23t-188.5 75.5t-135 140t-78.5 215.5t-27 302q0 173 31.5 300.5t89.5 210.5t150.5 133t203 70.5t259.5 20.5q105 0 236.5 -14.5t209.5 -36.5l-59 -291q-50 17 -164.5 29t-190.5 12q-84 0 -138 -5 t-105 -21t-79.5 -45t-51 -78t-31 -119t-8.5 -170q0 -99 8.5 -169.5t30 -121t49.5 -80.5t76 -47t100 -23t129 -6q33 0 135 11zM930 1530l-137 147l-131 -147h-267l250 264h301l258 -264h-274z" />
<glyph unicode="&#x11d;" horiz-adv-x="1220" d="M770 315v484q-69 28 -160 28q-49 0 -79 -6t-55 -23.5t-38 -52.5t-19.5 -88.5t-6.5 -134.5q0 -165 39.5 -222.5t150.5 -57.5q71 0 119.5 20t48.5 53zM770 37q-118 -60 -254 -60q-106 0 -180.5 25t-131 85t-83.5 166.5t-27 262.5q0 160 30 268t95.5 173t159 92.5 t231.5 27.5q123 0 256 -20.5t219 -52.5v-920q0 -88 -15 -159.5t-41.5 -123.5t-67.5 -90.5t-87.5 -63t-107.5 -39.5t-123 -20.5t-137 -5.5q-99 0 -204 17.5t-179 44.5l55 245q177 -47 322 -47q136 0 203 43t67 152zM752 1163q-47 49 -136 146q-23 -25 -66.5 -74.5 t-64.5 -71.5h-268q42 44 125 132t125 132h301l258 -264h-274z" />
<glyph unicode="&#x11e;" horiz-adv-x="1458" d="M981 287v299h-283v282h621v-829q-90 -28 -248 -48t-295 -20q-142 0 -247 23t-188.5 75.5t-135 140t-78.5 215.5t-27 302q0 173 31.5 300.5t89.5 210.5t150.5 133t203 70.5t259.5 20.5q105 0 236.5 -14.5t209.5 -36.5l-59 -291q-50 17 -164.5 29t-190.5 12q-84 0 -138 -5 t-105 -21t-79.5 -45t-51 -78t-31 -119t-8.5 -170q0 -99 8.5 -169.5t30 -121t49.5 -80.5t76 -47t100 -23t129 -6q33 0 135 11zM465 1784h207q0 -63 28.5 -85t94.5 -22q64 0 93.5 22t29.5 85h192q0 -293 -324 -293q-154 0 -237.5 72.5t-83.5 220.5z" />
<glyph unicode="&#x11f;" horiz-adv-x="1220" d="M770 315v484q-69 28 -160 28q-49 0 -79 -6t-55 -23.5t-38 -52.5t-19.5 -88.5t-6.5 -134.5q0 -165 39.5 -222.5t150.5 -57.5q71 0 119.5 20t48.5 53zM770 37q-118 -60 -254 -60q-106 0 -180.5 25t-131 85t-83.5 166.5t-27 262.5q0 160 30 268t95.5 173t159 92.5 t231.5 27.5q123 0 256 -20.5t219 -52.5v-920q0 -88 -15 -159.5t-41.5 -123.5t-67.5 -90.5t-87.5 -63t-107.5 -39.5t-123 -20.5t-137 -5.5q-99 0 -204 17.5t-179 44.5l55 245q177 -47 322 -47q136 0 203 43t67 152zM293 1427h207q0 -63 28.5 -84.5t94.5 -21.5q65 0 93.5 21.5 t28.5 84.5h193q0 -292 -324 -292q-155 0 -238 72.5t-83 219.5z" />
<glyph unicode="&#x120;" horiz-adv-x="1458" d="M981 287v299h-283v282h621v-829q-90 -28 -248 -48t-295 -20q-142 0 -247 23t-188.5 75.5t-135 140t-78.5 215.5t-27 302q0 173 31.5 300.5t89.5 210.5t150.5 133t203 70.5t259.5 20.5q105 0 236.5 -14.5t209.5 -36.5l-59 -291q-50 17 -164.5 29t-190.5 12q-84 0 -138 -5 t-105 -21t-79.5 -45t-51 -78t-31 -119t-8.5 -170q0 -99 8.5 -169.5t30 -121t49.5 -80.5t76 -47t100 -23t129 -6q33 0 135 11zM821 1796q83 0 112.5 -24.5t29.5 -106.5q0 -89 -29.5 -117t-112.5 -28q-81 0 -110 28t-29 117q0 82 29 106.5t110 24.5z" />
<glyph unicode="&#x121;" horiz-adv-x="1220" d="M770 315v484q-69 28 -160 28q-49 0 -79 -6t-55 -23.5t-38 -52.5t-19.5 -88.5t-6.5 -134.5q0 -165 39.5 -222.5t150.5 -57.5q71 0 119.5 20t48.5 53zM770 37q-118 -60 -254 -60q-106 0 -180.5 25t-131 85t-83.5 166.5t-27 262.5q0 160 30 268t95.5 173t159 92.5 t231.5 27.5q123 0 256 -20.5t219 -52.5v-920q0 -88 -15 -159.5t-41.5 -123.5t-67.5 -90.5t-87.5 -63t-107.5 -39.5t-123 -20.5t-137 -5.5q-99 0 -204 17.5t-179 44.5l55 245q177 -47 322 -47q136 0 203 43t67 152zM604 1421q83 0 111 -24.5t28 -106.5q0 -90 -28.5 -117.5 t-110.5 -27.5t-111.5 28t-29.5 117q0 82 29 106.5t112 24.5z" />
<glyph unicode="&#x122;" horiz-adv-x="1458" d="M981 287v299h-283v282h621v-829q-90 -28 -248 -48t-295 -20q-142 0 -247 23t-188.5 75.5t-135 140t-78.5 215.5t-27 302q0 173 31.5 300.5t89.5 210.5t150.5 133t203 70.5t259.5 20.5q105 0 236.5 -14.5t209.5 -36.5l-59 -291q-50 17 -164.5 29t-190.5 12q-84 0 -138 -5 t-105 -21t-79.5 -45t-51 -78t-31 -119t-8.5 -170q0 -99 8.5 -169.5t30 -121t49.5 -80.5t76 -47t100 -23t129 -6q33 0 135 11zM739 0h117v-80q110 0 162.5 -37.5t52.5 -124.5q0 -99 -65 -136.5t-228 -37.5q-118 0 -192 27l49 123q43 -19 127 -19q39 0 54 10.5t15 36.5 q0 32 -36.5 42t-128.5 3z" />
<glyph unicode="&#x123;" horiz-adv-x="1220" d="M770 315v484q-69 28 -160 28q-49 0 -79 -6t-55 -23.5t-38 -52.5t-19.5 -88.5t-6.5 -134.5q0 -165 39.5 -222.5t150.5 -57.5q71 0 119.5 20t48.5 53zM770 37q-118 -60 -254 -60q-106 0 -180.5 25t-131 85t-83.5 166.5t-27 262.5q0 160 30 268t95.5 173t159 92.5 t231.5 27.5q123 0 256 -20.5t219 -52.5v-920q0 -88 -15 -159.5t-41.5 -123.5t-67.5 -90.5t-87.5 -63t-107.5 -39.5t-123 -20.5t-137 -5.5q-99 0 -204 17.5t-179 44.5l55 245q177 -47 322 -47q136 0 203 43t67 152zM913 1544l-227 -342h-246l148 342h325z" />
<glyph unicode="&#x124;" horiz-adv-x="1531" d="M498 602v-602h-330v1427h330v-520h536v520h330v-1427h-330v602h-536zM891 1530l-137 147l-131 -147h-267l250 264h301l258 -264h-274z" />
<glyph unicode="&#x125;" horiz-adv-x="1222" d="M729 1077q73 0 125.5 -10.5t101 -41t78 -82t47 -135.5t17.5 -200v-608h-314v596q0 110 -43 156.5t-135 46.5q-65 0 -111 -17.5t-46 -48.5v-733h-314v1479h314v-467q150 65 280 65zM584 1530l-138 147l-131 -147h-266l250 264h301l258 -264h-274z" />
<glyph unicode="&#x126;" horiz-adv-x="1531" d="M55 1047v264h113v116h330v-116h536v116h330v-116h113v-264h-113v-1047h-330v602h-536v-602h-330v1047h-113zM498 907h536v140h-536v-140z" />
<glyph unicode="&#x127;" horiz-adv-x="1222" d="M43 1176v213h92v90h316v-90h188v-213h-188v-164q137 65 278 65q73 0 126 -10.5t101.5 -40.5t78.5 -81t47.5 -135t17.5 -200v-610h-316v590q0 64 -12.5 106.5t-38 64.5t-55 30t-72.5 8q-65 0 -110 -17.5t-45 -48.5v-733h-316v1176h-92z" />
<glyph unicode="&#x128;" horiz-adv-x="665" d="M168 1427h330v-1427h-330v1427zM578 1812l147 -118q-30 -84 -97 -138.5t-159 -54.5q-55 0 -107.5 24t-99 48t-86.5 24q-30 0 -52.5 -20.5t-45.5 -71.5l-133 131q91 162 225 162q51 0 97.5 -14.5t76 -31.5t65 -31.5t66.5 -14.5q36 0 58 22t45 84z" />
<glyph unicode="&#x129;" horiz-adv-x="581" d="M451 1049v-1049h-316v1049h316zM535 1450l147 -119q-32 -85 -96.5 -138.5t-157.5 -53.5q-55 0 -106.5 24t-97 48t-85.5 24q-30 0 -52.5 -21t-45.5 -73l-135 133q92 164 227 164q51 0 97.5 -15t74 -32.5t62 -32.5t65.5 -15q36 0 58 22.5t45 84.5z" />
<glyph unicode="&#x12a;" horiz-adv-x="665" d="M168 1427h330v-1427h-330v1427zM35 1526v219h598v-219h-598z" />
<glyph unicode="&#x12b;" horiz-adv-x="581" d="M451 1049v-1049h-316v1049h316zM-6 1171v218h598v-218h-598z" />
<glyph unicode="&#x12c;" horiz-adv-x="665" d="M168 1427h330v-1427h-330v1427zM12 1784h207q0 -63 28.5 -85t94.5 -22q64 0 93.5 22t29.5 85h192q0 -293 -323 -293q-155 0 -238.5 73t-83.5 220z" />
<glyph unicode="&#x12d;" horiz-adv-x="581" d="M451 1049v-1049h-316v1049h316zM-31 1427h207q0 -63 28.5 -84.5t94.5 -21.5q65 0 94 22t29 84h192q0 -292 -323 -292q-155 0 -238.5 72.5t-83.5 219.5z" />
<glyph unicode="&#x12e;" horiz-adv-x="665" d="M168 1427h330v-1427h-330v1427zM334 25h88q-98 -60 -131 -101.5t-33 -99.5q0 -42 24.5 -60t92.5 -18q97 0 160 53l79 -143q-50 -35 -125.5 -53.5t-148.5 -18.5q-155 0 -216 44t-61 139q0 85 68.5 153.5t202.5 104.5z" />
<glyph unicode="&#x12f;" horiz-adv-x="581" d="M451 1049v-1049h-316v1049h316zM293 1503q104 0 141 -28t37 -121q0 -102 -37 -134t-141 -32q-105 0 -141.5 31.5t-36.5 134.5q0 94 36.5 121.5t141.5 27.5zM317 25h89q-98 -60 -131 -101.5t-33 -99.5q0 -42 24 -60t92 -18q97 0 160 53l80 -143q-50 -35 -125.5 -53.5 t-148.5 -18.5q-155 0 -216 44t-61 139q0 85 68.5 153.5t201.5 104.5z" />
<glyph unicode="&#x130;" horiz-adv-x="665" d="M168 1427h330v-1427h-330v1427zM332 1796q83 0 112 -24.5t29 -106.5q0 -89 -29.5 -117t-111.5 -28q-81 0 -110 28t-29 117q0 82 29 106.5t110 24.5z" />
<glyph unicode="&#x131;" horiz-adv-x="581" d="M451 1049v-1049h-316v1049h316z" />
<glyph unicode="&#x132;" horiz-adv-x="1630" d="M168 1427h330v-1427h-330v1427zM1468 1427l2 -1034q0 -96 -26 -171t-68.5 -121.5t-103 -76.5t-122.5 -41.5t-134 -11.5q-189 0 -346 54l55 294q112 -40 250 -40q162 0 162 167v981h331z" />
<glyph unicode="&#x133;" horiz-adv-x="1167" d="M451 1049v-1049h-316v1049h316zM293 1503q104 0 141 -28t37 -121q0 -102 -37 -134t-141 -32q-105 0 -141.5 31.5t-36.5 134.5q0 94 36.5 121.5t141.5 27.5zM874 1503q106 0 142.5 -28t36.5 -121q0 -103 -37 -134.5t-142 -31.5t-141.5 31.5t-36.5 134.5q0 94 36.5 121.5 t141.5 27.5zM1032 1049v-1053q0 -229 -110.5 -320.5t-364.5 -91.5v254q81 0 120.5 36t39.5 114v1061h315z" />
<glyph unicode="&#x134;" horiz-adv-x="966" d="M807 1427v-1034q0 -96 -26 -171t-69 -121.5t-103 -76.5t-122.5 -41.5t-134.5 -11.5q-189 0 -346 54l55 294q112 -40 252 -40q160 0 160 167v981h334zM766 1530l-137 147l-131 -147h-267l250 264h301l258 -264h-274z" />
<glyph unicode="&#x135;" horiz-adv-x="581" d="M414 1163q-23 23 -135 146q-86 -97 -132 -146h-266q42 44 125 132t125 132h301l258 -264h-276zM-25 -416v256q80 0 120 35t40 113v1059h314v-1049q0 -118 -27 -197t-86 -127.5t-146 -69t-215 -20.5z" />
<glyph unicode="&#x136;" horiz-adv-x="1400" d="M498 1427v-1427h-330v1427h330zM1434 0h-398q-180 329 -326 527.5t-210 226.5q67 54 206.5 236t294.5 437h394q-162 -251 -294.5 -426.5t-189.5 -228.5q60 -47 206 -251.5t317 -520.5zM897 -104l-227 -342h-246l147 342h326z" />
<glyph unicode="&#x137;" horiz-adv-x="1204" d="M451 1479v-1479h-316v1479h316zM1206 0h-364q-327 521 -391 555q90 83 362 494h363q-123 -189 -220 -314t-141 -162q42 -28 148 -179.5t243 -393.5zM799 -104l-228 -342h-245l147 342h326z" />
<glyph unicode="&#x139;" horiz-adv-x="1132" d="M168 1427h330v-1136h643v-291h-973v1427zM473 1530h-266l260 264h326z" />
<glyph unicode="&#x13a;" horiz-adv-x="598" d="M451 1479v-1174q0 -147 69 -254l-282 -102q-103 124 -103 348v1182h316zM385 1530h-266l260 264h326z" />
<glyph unicode="&#x13b;" horiz-adv-x="1132" d="M168 1427h330v-1136h643v-291h-973v1427zM836 -104l-228 -342h-246l148 342h326z" />
<glyph unicode="&#x13c;" horiz-adv-x="598" d="M451 1479v-1174q0 -147 69 -254l-282 -102q-103 124 -103 348v1182h316zM545 -104l-228 -342h-245l147 342h326z" />
<glyph unicode="&#x13d;" horiz-adv-x="1132" d="M168 1427h330v-1136h643v-291h-973v1427zM690 1479h266l-118 -394h-187z" />
<glyph unicode="&#x13e;" horiz-adv-x="598" d="M451 1479v-1174q0 -147 69 -254l-282 -102q-103 124 -103 348v1182h316zM586 1479h266l-119 -394h-186z" />
<glyph unicode="&#x13f;" horiz-adv-x="1132" d="M168 1427h330v-1136h643v-291h-973v1427zM768 991q83 0 111 -24.5t28 -106.5q0 -90 -28.5 -117.5t-110.5 -27.5t-111.5 28t-29.5 117q0 82 29 106.5t112 24.5z" />
<glyph unicode="&#x140;" horiz-adv-x="598" d="M451 1479v-1174q0 -147 69 -254l-282 -102q-103 124 -103 348v1182h316zM647 961q82 0 110.5 -25t28.5 -107q0 -90 -28.5 -117.5t-110.5 -27.5t-111.5 28t-29.5 117q0 82 29 107t112 25z" />
<glyph unicode="&#x141;" horiz-adv-x="1132" d="M809 1176v-304l-311 -260v-321h643v-291h-973v346l-131 -108v303l131 108v778h330v-512z" />
<glyph unicode="&#x142;" horiz-adv-x="638" d="M469 1479v-435l133 144v-303l-133 -144v-436q0 -152 72 -256l-285 -98q-100 115 -100 264v193l-123 -132v304l123 129v770h313z" />
<glyph unicode="&#x143;" horiz-adv-x="1630" d="M1462 1427v-1427h-409q-242 448 -561 975v-975h-324v1427h430q281 -460 537 -940v940h327zM870 1530h-266l260 264h326z" />
<glyph unicode="&#x144;" horiz-adv-x="1222" d="M451 778v-778h-316v983q109 40 254.5 67t278.5 27q112 0 190 -25t133.5 -82t82 -153.5t26.5 -236.5v-580h-316v555q0 145 -35 193.5t-149 48.5q-68 0 -149 -19zM645 1163h-266l252 264h321z" />
<glyph unicode="&#x145;" horiz-adv-x="1630" d="M1462 1427v-1427h-409q-242 448 -561 975v-975h-324v1427h430q281 -460 537 -940v940h327zM987 -104l-227 -342h-246l148 342h325z" />
<glyph unicode="&#x146;" horiz-adv-x="1222" d="M451 778v-778h-316v983q109 40 254.5 67t278.5 27q112 0 190 -25t133.5 -82t82 -153.5t26.5 -236.5v-580h-316v555q0 145 -35 193.5t-149 48.5q-68 0 -149 -19zM784 -104l-227 -342h-246l148 342h325z" />
<glyph unicode="&#x147;" horiz-adv-x="1630" d="M1462 1427v-1427h-409q-242 448 -561 975v-975h-324v1427h430q281 -460 537 -940v940h327zM711 1794l137 -147l133 147h266l-250 -264h-301l-258 264h273z" />
<glyph unicode="&#x148;" horiz-adv-x="1222" d="M451 778v-778h-316v983q109 40 254.5 67t278.5 27q112 0 190 -25t133.5 -82t82 -153.5t26.5 -236.5v-580h-316v555q0 145 -35 193.5t-149 48.5q-68 0 -149 -19zM479 1427q90 -98 135 -145q20 22 63.5 70.5t67.5 74.5h267q-42 -44 -125 -132t-125 -132h-301l-258 264h276z " />
<glyph unicode="&#x14c;" horiz-adv-x="1587" d="M795 1462q143 0 248.5 -20.5t192.5 -70.5t141 -133.5t83 -209.5t29 -299q0 -218 -43 -366t-133.5 -234t-215 -122t-302.5 -36q-179 0 -303.5 36t-215 122t-133.5 234t-43 366q0 173 29 299t83 209.5t141 133.5t193 70.5t249 20.5zM795 272q77 0 126 5.5t90.5 24.5 t63.5 48t37 82.5t20 121t5 171.5q0 102 -4.5 168t-20.5 117t-37 78t-63.5 44.5t-90.5 22t-126 4.5t-126 -4.5t-90.5 -22t-63.5 -44.5t-37 -78t-20.5 -117t-4.5 -168q0 -104 5 -171.5t20 -121t37 -82.5t63.5 -48t90.5 -24.5t126 -5.5zM496 1526v219h598v-219h-598z" />
<glyph unicode="&#x14d;" horiz-adv-x="1208" d="M602 -29q-131 0 -222.5 27t-157.5 91t-97 172.5t-31 268.5q0 159 31.5 266t98 168.5t157 87t221.5 25.5q133 0 224.5 -25.5t158 -87t98 -168.5t31.5 -266q0 -160 -31 -268.5t-97.5 -172.5t-158.5 -91t-225 -27zM602 831q-60 0 -92.5 -9t-57 -42t-32.5 -92.5t-8 -163.5 q0 -133 18 -198t56 -87t116 -22q80 0 118.5 22t56.5 87t18 198q0 84 -6 137.5t-18 88.5t-37 52t-54 23t-78 6zM303 1171v218h598v-218h-598z" />
<glyph unicode="&#x14e;" horiz-adv-x="1587" d="M795 1462q143 0 248.5 -20.5t192.5 -70.5t141 -133.5t83 -209.5t29 -299q0 -218 -43 -366t-133.5 -234t-215 -122t-302.5 -36q-179 0 -303.5 36t-215 122t-133.5 234t-43 366q0 173 29 299t83 209.5t141 133.5t193 70.5t249 20.5zM795 272q77 0 126 5.5t90.5 24.5 t63.5 48t37 82.5t20 121t5 171.5q0 102 -4.5 168t-20.5 117t-37 78t-63.5 44.5t-90.5 22t-126 4.5t-126 -4.5t-90.5 -22t-63.5 -44.5t-37 -78t-20.5 -117t-4.5 -168q0 -104 5 -171.5t20 -121t37 -82.5t63.5 -48t90.5 -24.5t126 -5.5zM473 1784h207q0 -63 28.5 -85t94.5 -22 q64 0 93.5 22t29.5 85h192q0 -293 -323 -293q-155 0 -238.5 73t-83.5 220z" />
<glyph unicode="&#x14f;" horiz-adv-x="1208" d="M602 -29q-131 0 -222.5 27t-157.5 91t-97 172.5t-31 268.5q0 159 31.5 266t98 168.5t157 87t221.5 25.5q133 0 224.5 -25.5t158 -87t98 -168.5t31.5 -266q0 -160 -31 -268.5t-97.5 -172.5t-158.5 -91t-225 -27zM602 831q-60 0 -92.5 -9t-57 -42t-32.5 -92.5t-8 -163.5 q0 -133 18 -198t56 -87t116 -22q80 0 118.5 22t56.5 87t18 198q0 84 -6 137.5t-18 88.5t-37 52t-54 23t-78 6zM279 1427h206q0 -63 28.5 -84.5t94.5 -21.5q65 0 94 22t29 84h193q0 -292 -324 -292q-155 0 -238 72.5t-83 219.5z" />
<glyph unicode="&#x150;" horiz-adv-x="1587" d="M795 1462q143 0 248.5 -20.5t192.5 -70.5t141 -133.5t83 -209.5t29 -299q0 -218 -43 -366t-133.5 -234t-215 -122t-302.5 -36q-179 0 -303.5 36t-215 122t-133.5 234t-43 366q0 173 29 299t83 209.5t141 133.5t193 70.5t249 20.5zM795 272q77 0 126 5.5t90.5 24.5 t63.5 48t37 82.5t20 121t5 171.5q0 102 -4.5 168t-20.5 117t-37 78t-63.5 44.5t-90.5 22t-126 4.5t-126 -4.5t-90.5 -22t-63.5 -44.5t-37 -78t-20.5 -117t-4.5 -168q0 -104 5 -171.5t20 -121t37 -82.5t63.5 -48t90.5 -24.5t126 -5.5zM641 1530h-209l193 264h258zM1006 1530 h-209l190 264h260z" />
<glyph unicode="&#x151;" horiz-adv-x="1208" d="M602 -29q-131 0 -222.5 27t-157.5 91t-97 172.5t-31 268.5q0 159 31.5 266t98 168.5t157 87t221.5 25.5q133 0 224.5 -25.5t158 -87t98 -168.5t31.5 -266q0 -160 -31 -268.5t-97.5 -172.5t-158.5 -91t-225 -27zM602 831q-60 0 -92.5 -9t-57 -42t-32.5 -92.5t-8 -163.5 q0 -133 18 -198t56 -87t116 -22q80 0 118.5 22t56.5 87t18 198q0 84 -6 137.5t-18 88.5t-37 52t-54 23t-78 6zM455 1163h-209l192 264h258zM819 1163h-209l191 264h260z" />
<glyph unicode="&#x152;" horiz-adv-x="2238" d="M1100 1427h1089v-288h-772q52 -98 64 -256h403v-283h-401q-12 -195 -74 -311h780v-289h-1118q-119 -29 -276 -29q-179 0 -303.5 36t-215 122t-133.5 234t-43 366q0 173 29 299t83 209.5t141 133.5t193 70.5t249 20.5q182 0 305 -35zM795 272q77 0 126 5.5t90.5 24.5 t63.5 48t37 82.5t20 121t5 171.5q0 102 -4.5 168t-20.5 117t-37 78t-63.5 44.5t-90.5 22t-126 4.5t-126 -4.5t-90.5 -22t-63.5 -44.5t-37 -78t-20.5 -117t-4.5 -168q0 -104 5 -171.5t20 -121t37 -82.5t63.5 -48t90.5 -24.5t126 -5.5z" />
<glyph unicode="&#x153;" horiz-adv-x="1832" d="M1634 268l47 -239q-77 -26 -182 -42t-194 -16q-235 0 -344 117q-103 -117 -359 -117q-131 0 -222.5 27t-157.5 91t-97 172.5t-31 268.5q0 159 31.5 266t98 168.5t157 87t221.5 25.5q126 0 211.5 -24.5t140.5 -81.5q103 106 328 106q92 0 158.5 -10.5t124.5 -37t94.5 -73 t61 -118t32 -171.5t0.5 -235h-641q3 -120 56 -159.5t175 -39.5q59 0 146.5 10t144.5 25zM602 831q-60 0 -92.5 -9t-57 -42t-32.5 -92.5t-8 -163.5q0 -133 18 -198t56 -87t116 -22q80 0 118.5 22t56.5 87t18 198q0 84 -6 137.5t-18 88.5t-37 52t-54 23t-78 6zM1305 840 q-96 0 -137 -37t-54 -139h365q-3 105 -40.5 140.5t-133.5 35.5z" />
<glyph unicode="&#x154;" horiz-adv-x="1478" d="M498 1147v-367h366q57 0 91 43.5t34 134.5q0 94 -32 141.5t-89 47.5h-370zM999 612q75 -27 175 -156t294 -456h-411q-163 287 -254 398.5t-158 111.5h-147v-510h-330v1427h797q107 0 184.5 -31.5t121.5 -89.5t64.5 -131t20.5 -165q0 -81 -18.5 -147.5t-58.5 -122.5 t-111 -89.5t-169 -38.5zM739 1530h-266l260 264h326z" />
<glyph unicode="&#x155;" horiz-adv-x="813" d="M135 0v1049h316v-82q63 110 254 110q49 0 104 -6v-293q-58 17 -147 17t-150 -28.5t-61 -78.5v-688h-316zM571 1163h-266l252 264h322z" />
<glyph unicode="&#x156;" horiz-adv-x="1478" d="M498 1147v-367h366q57 0 91 43.5t34 134.5q0 94 -32 141.5t-89 47.5h-370zM999 612q75 -27 175 -156t294 -456h-411q-163 287 -254 398.5t-158 111.5h-147v-510h-330v1427h797q107 0 184.5 -31.5t121.5 -89.5t64.5 -131t20.5 -165q0 -81 -18.5 -147.5t-58.5 -122.5 t-111 -89.5t-169 -38.5zM936 -104l-227 -342h-246l147 342h326z" />
<glyph unicode="&#x157;" horiz-adv-x="813" d="M135 0v1049h316v-82q63 110 254 110q49 0 104 -6v-293q-58 17 -147 17t-150 -28.5t-61 -78.5v-688h-316zM516 -104l-227 -342h-246l147 342h326z" />
<glyph unicode="&#x158;" horiz-adv-x="1478" d="M498 1147v-367h366q57 0 91 43.5t34 134.5q0 94 -32 141.5t-89 47.5h-370zM999 612q75 -27 175 -156t294 -456h-411q-163 287 -254 398.5t-158 111.5h-147v-510h-330v1427h797q107 0 184.5 -31.5t121.5 -89.5t64.5 -131t20.5 -165q0 -81 -18.5 -147.5t-58.5 -122.5 t-111 -89.5t-169 -38.5zM582 1794l137 -147l133 147h266l-250 -264h-301l-258 264h273z" />
<glyph unicode="&#x159;" horiz-adv-x="813" d="M135 0v1049h316v-82q63 110 254 110q49 0 104 -6v-293q-58 17 -147 17t-150 -28.5t-61 -78.5v-688h-316zM365 1427q90 -98 135 -145q20 22 63.5 70.5t67.5 74.5h266q-42 -44 -125 -132t-125 -132h-301l-258 264h277z" />
<glyph unicode="&#x15a;" horiz-adv-x="1273" d="M1169 1395l-67 -283q-162 47 -391 47q-156 0 -215.5 -32t-59.5 -107q0 -48 20.5 -74t82.5 -44t186 -32q247 -28 359 -130t112 -304q0 -132 -35.5 -221t-115 -143.5t-195.5 -77.5t-287 -23q-272 0 -463 68l68 283q177 -48 391 -48q161 0 221 29.5t60 110.5 q0 49 -20.5 76.5t-88 49t-199.5 35.5q-235 25 -341.5 115t-106.5 283q0 261 152.5 375t476.5 114q271 0 456 -67zM698 1530h-266l260 264h326z" />
<glyph unicode="&#x15b;" horiz-adv-x="991" d="M899 1020l-61 -234q-160 45 -310 45q-82 0 -114.5 -16.5t-32.5 -73.5q0 -42 35 -58.5t155 -31.5q190 -24 271.5 -93.5t81.5 -225.5q0 -83 -24 -146.5t-65 -104t-101.5 -65.5t-128 -35t-150.5 -10q-88 0 -195.5 16t-177.5 42l61 237q146 -43 297 -43q101 0 141 17t40 75 q0 30 -16 47.5t-61 29.5t-132 20t-146 25.5t-103.5 51.5t-65.5 91t-21 139q0 83 23.5 146.5t64 103t101 64.5t127 34.5t149.5 9.5q86 0 186 -15.5t172 -41.5zM547 1163h-266l251 264h322z" />
<glyph unicode="&#x15c;" horiz-adv-x="1273" d="M1169 1395l-67 -283q-162 47 -391 47q-156 0 -215.5 -32t-59.5 -107q0 -48 20.5 -74t82.5 -44t186 -32q247 -28 359 -130t112 -304q0 -132 -35.5 -221t-115 -143.5t-195.5 -77.5t-287 -23q-272 0 -463 68l68 283q177 -48 391 -48q161 0 221 29.5t60 110.5 q0 49 -20.5 76.5t-88 49t-199.5 35.5q-235 25 -341.5 115t-106.5 283q0 261 152.5 375t476.5 114q271 0 456 -67zM803 1530l-137 147l-131 -147h-267l250 264h301l258 -264h-274z" />
<glyph unicode="&#x15d;" horiz-adv-x="991" d="M899 1020l-61 -234q-160 45 -310 45q-82 0 -114.5 -16.5t-32.5 -73.5q0 -42 35 -58.5t155 -31.5q190 -24 271.5 -93.5t81.5 -225.5q0 -83 -24 -146.5t-65 -104t-101.5 -65.5t-128 -35t-150.5 -10q-88 0 -195.5 16t-177.5 42l61 237q146 -43 297 -43q101 0 141 17t40 75 q0 30 -16 47.5t-61 29.5t-132 20t-146 25.5t-103.5 51.5t-65.5 91t-21 139q0 83 23.5 146.5t64 103t101 64.5t127 34.5t149.5 9.5q86 0 186 -15.5t172 -41.5zM657 1163q-22 23 -135 146q-23 -25 -66.5 -74.5t-64.5 -71.5h-268q42 44 125 132t125 132h301l258 -264h-275z" />
<glyph unicode="&#x15e;" horiz-adv-x="1273" d="M1169 1395l-67 -283q-162 47 -391 47q-156 0 -215.5 -32t-59.5 -107q0 -48 20.5 -74t82.5 -44t186 -32q247 -28 359 -130t112 -304q0 -132 -35.5 -221t-115 -143.5t-195.5 -77.5t-287 -23q-272 0 -463 68l68 283q177 -48 391 -48q161 0 221 29.5t60 110.5 q0 49 -20.5 76.5t-88 49t-199.5 35.5q-235 25 -341.5 115t-106.5 283q0 261 152.5 375t476.5 114q271 0 456 -67zM565 0h117v-80q110 0 162.5 -37.5t52.5 -124.5q0 -99 -65 -136.5t-228 -37.5q-118 0 -192 27l49 123q43 -19 127 -19q39 0 54 10.5t15 36.5q0 32 -36.5 42 t-128.5 3z" />
<glyph unicode="&#x15f;" horiz-adv-x="991" d="M899 1020l-61 -234q-160 45 -310 45q-82 0 -114.5 -16.5t-32.5 -73.5q0 -42 35 -58.5t155 -31.5q190 -24 271.5 -93.5t81.5 -225.5q0 -83 -24 -146.5t-65 -104t-101.5 -65.5t-128 -35t-150.5 -10q-88 0 -195.5 16t-177.5 42l61 237q146 -43 297 -43q101 0 141 17t40 75 q0 30 -16 47.5t-61 29.5t-132 20t-146 25.5t-103.5 51.5t-65.5 91t-21 139q0 83 23.5 146.5t64 103t101 64.5t127 34.5t149.5 9.5q86 0 186 -15.5t172 -41.5zM428 0h117v-80q110 0 162.5 -37.5t52.5 -124.5q0 -99 -65 -136.5t-228 -37.5q-119 0 -193 27l50 123 q43 -19 127 -19q39 0 54 10.5t15 36.5q0 22 -15.5 33t-52.5 14t-98 -2z" />
<glyph unicode="&#x160;" horiz-adv-x="1273" d="M1169 1395l-67 -283q-162 47 -391 47q-156 0 -215.5 -32t-59.5 -107q0 -48 20.5 -74t82.5 -44t186 -32q247 -28 359 -130t112 -304q0 -132 -35.5 -221t-115 -143.5t-195.5 -77.5t-287 -23q-272 0 -463 68l68 283q177 -48 391 -48q161 0 221 29.5t60 110.5 q0 49 -20.5 76.5t-88 49t-199.5 35.5q-235 25 -341.5 115t-106.5 283q0 261 152.5 375t476.5 114q271 0 456 -67zM530 1794l138 -147l133 147h266l-250 -264h-301l-258 264h272z" />
<glyph unicode="&#x161;" horiz-adv-x="991" d="M899 1020l-61 -234q-160 45 -310 45q-82 0 -114.5 -16.5t-32.5 -73.5q0 -42 35 -58.5t155 -31.5q190 -24 271.5 -93.5t81.5 -225.5q0 -83 -24 -146.5t-65 -104t-101.5 -65.5t-128 -35t-150.5 -10q-88 0 -195.5 16t-177.5 42l61 237q146 -43 297 -43q101 0 141 17t40 75 q0 30 -16 47.5t-61 29.5t-132 20t-146 25.5t-103.5 51.5t-65.5 91t-21 139q0 83 23.5 146.5t64 103t101 64.5t127 34.5t149.5 9.5q86 0 186 -15.5t172 -41.5zM383 1427q90 -98 135 -145q20 22 63.5 70.5t67.5 74.5h266q-42 -44 -124.5 -132t-124.5 -132h-301l-259 264h277z " />
<glyph unicode="&#x162;" horiz-adv-x="1288" d="M811 0h-332v1139h-477v288h1284v-288h-475v-1139zM862 -104l-227 -342h-246l148 342h325z" />
<glyph unicode="&#x163;" horiz-adv-x="874" d="M829 778h-327v-391q0 -82 30 -115.5t111 -33.5q82 0 168 28l51 -241q-128 -54 -315 -54q-92 0 -154.5 16t-111.5 57.5t-72 118t-23 191.5v424h-170v271h170v155l316 127v-282h327v-271zM657 -104l-227 -342h-246l148 342h325z" />
<glyph unicode="&#x164;" horiz-adv-x="1288" d="M811 0h-332v1139h-477v288h1284v-288h-475v-1139zM520 1794l137 -147l134 147h266l-250 -264h-301l-258 264h272z" />
<glyph unicode="&#x165;" horiz-adv-x="874" d="M829 778h-327v-391q0 -82 30 -115.5t111 -33.5q82 0 168 28l51 -241q-128 -54 -315 -54q-92 0 -154.5 16t-111.5 57.5t-72 118t-23 191.5v424h-170v271h170v155l316 127v-282h327v-271zM678 1579h266l-119 -393h-186z" />
<glyph unicode="&#x166;" horiz-adv-x="1288" d="M338 465v219h141v453h-477v290h1284v-290h-475v-453h127v-219h-127v-465h-332v465h-141z" />
<glyph unicode="&#x167;" horiz-adv-x="874" d="M80 434v189h106v155h-170v271h170v155l316 127v-282h327v-271h-327v-155h176v-189h-176v-47q0 -81 31.5 -115t113.5 -34q78 0 164 28l51 -241q-128 -54 -311 -54q-92 0 -155.5 16t-113 57.5t-73 118t-23.5 191.5v80h-106z" />
<glyph unicode="&#x168;" horiz-adv-x="1525" d="M1042 1427h332v-1028q0 -101 -28.5 -176.5t-79 -123t-129 -76.5t-168 -40.5t-207.5 -11.5t-208 11.5t-168.5 40.5t-128.5 76.5t-78.5 123t-28.5 176.5v1028h333v-862q0 -39 0.5 -60.5t3 -52t8 -46.5t15 -38t23.5 -33t35 -23.5t48.5 -18.5t64 -10t81.5 -4q68 0 116 7 t78.5 26.5t48 38t25.5 57.5t10 69.5t2 87.5v862zM1008 1812l147 -118q-30 -84 -97 -138.5t-159 -54.5q-55 0 -107.5 24t-99 48t-86.5 24q-30 0 -52.5 -20.5t-45.5 -71.5l-133 131q91 162 225 162q51 0 97.5 -14.5t76 -31.5t65 -31.5t66.5 -14.5q36 0 58 22t45 84z" />
<glyph unicode="&#x169;" horiz-adv-x="1222" d="M776 270v779h311v-986q-110 -39 -254.5 -66.5t-275.5 -27.5q-150 0 -242 46t-140 156t-48 296v582h311v-557q0 -143 36.5 -192.5t150.5 -49.5q59 0 151 20zM852 1450l147 -119q-32 -85 -96.5 -138.5t-157.5 -53.5q-55 0 -106 24t-96.5 48t-85.5 24q-30 0 -53.5 -21 t-45.5 -73l-135 133q92 164 228 164q51 0 97.5 -15t74 -32.5t62 -32.5t65.5 -15q36 0 57.5 22.5t44.5 84.5z" />
<glyph unicode="&#x16a;" horiz-adv-x="1525" d="M1042 1427h332v-1028q0 -101 -28.5 -176.5t-79 -123t-129 -76.5t-168 -40.5t-207.5 -11.5t-208 11.5t-168.5 40.5t-128.5 76.5t-78.5 123t-28.5 176.5v1028h333v-862q0 -39 0.5 -60.5t3 -52t8 -46.5t15 -38t23.5 -33t35 -23.5t48.5 -18.5t64 -10t81.5 -4q68 0 116 7 t78.5 26.5t48 38t25.5 57.5t10 69.5t2 87.5v862zM457 1526v219h598v-219h-598z" />
<glyph unicode="&#x16b;" horiz-adv-x="1222" d="M776 270v779h311v-986q-110 -39 -254.5 -66.5t-275.5 -27.5q-150 0 -242 46t-140 156t-48 296v582h311v-557q0 -143 36.5 -192.5t150.5 -49.5q59 0 151 20zM303 1171v218h598v-218h-598z" />
<glyph unicode="&#x16c;" horiz-adv-x="1525" d="M1042 1427h332v-1028q0 -101 -28.5 -176.5t-79 -123t-129 -76.5t-168 -40.5t-207.5 -11.5t-208 11.5t-168.5 40.5t-128.5 76.5t-78.5 123t-28.5 176.5v1028h333v-862q0 -39 0.5 -60.5t3 -52t8 -46.5t15 -38t23.5 -33t35 -23.5t48.5 -18.5t64 -10t81.5 -4q68 0 116 7 t78.5 26.5t48 38t25.5 57.5t10 69.5t2 87.5v862zM436 1784h207q0 -63 28.5 -85t94.5 -22q64 0 93.5 22t29.5 85h192q0 -293 -323 -293q-155 0 -238.5 73t-83.5 220z" />
<glyph unicode="&#x16d;" horiz-adv-x="1222" d="M776 270v779h311v-986q-110 -39 -254.5 -66.5t-275.5 -27.5q-150 0 -242 46t-140 156t-48 296v582h311v-557q0 -143 36.5 -192.5t150.5 -49.5q59 0 151 20zM281 1427h206q0 -63 28.5 -84.5t94.5 -21.5q65 0 94 22t29 84h193q0 -292 -324 -292q-155 0 -238 72.5t-83 219.5 z" />
<glyph unicode="&#x16e;" horiz-adv-x="1525" d="M1042 1427h332v-1028q0 -101 -28.5 -176.5t-79 -123t-129 -76.5t-168 -40.5t-207.5 -11.5t-208 11.5t-168.5 40.5t-128.5 76.5t-78.5 123t-28.5 176.5v1028h333v-862q0 -39 0.5 -60.5t3 -52t8 -46.5t15 -38t23.5 -33t35 -23.5t48.5 -18.5t64 -10t81.5 -4q68 0 116 7 t78.5 26.5t48 38t25.5 57.5t10 69.5t2 87.5v862zM758 1841q134 0 193 -45t59 -160t-59 -159.5t-193 -44.5q-135 0 -195.5 44.5t-60.5 159.5q0 116 58.5 160.5t197.5 44.5zM758 1714q-58 0 -77 -17.5t-19 -62.5t19 -62.5t77 -17.5q56 0 75 18t19 62q0 45 -19 62.5t-75 17.5z " />
<glyph unicode="&#x16f;" horiz-adv-x="1222" d="M776 270v779h311v-986q-110 -39 -254.5 -66.5t-275.5 -27.5q-150 0 -242 46t-140 156t-48 296v582h311v-557q0 -143 36.5 -192.5t150.5 -49.5q59 0 151 20zM610 1520q134 0 193 -45t59 -160t-59 -160t-193 -45q-135 0 -195.5 45t-60.5 160q0 116 58.5 160.5t197.5 44.5z M610 1393q-58 0 -77 -17.5t-19 -62.5q0 -44 19 -61t77 -17q56 0 75.5 17.5t19.5 60.5q0 46 -19 63t-76 17z" />
<glyph unicode="&#x170;" horiz-adv-x="1525" d="M1042 1427h332v-1028q0 -101 -28.5 -176.5t-79 -123t-129 -76.5t-168 -40.5t-207.5 -11.5t-208 11.5t-168.5 40.5t-128.5 76.5t-78.5 123t-28.5 176.5v1028h333v-862q0 -39 0.5 -60.5t3 -52t8 -46.5t15 -38t23.5 -33t35 -23.5t48.5 -18.5t64 -10t81.5 -4q68 0 116 7 t78.5 26.5t48 38t25.5 57.5t10 69.5t2 87.5v862zM618 1530h-208l192 264h258zM983 1530h-209l191 264h260z" />
<glyph unicode="&#x171;" horiz-adv-x="1222" d="M776 270v779h311v-986q-110 -39 -254.5 -66.5t-275.5 -27.5q-150 0 -242 46t-140 156t-48 296v582h311v-557q0 -143 36.5 -192.5t150.5 -49.5q59 0 151 20zM451 1163h-209l192 264h258zM815 1163h-209l191 264h260z" />
<glyph unicode="&#x172;" horiz-adv-x="1525" d="M1042 1427h332v-1028q0 -101 -28.5 -176.5t-79 -123t-129 -76.5t-168 -40.5t-207.5 -11.5t-208 11.5t-168.5 40.5t-128.5 76.5t-78.5 123t-28.5 176.5v1028h333v-862q0 -39 0.5 -60.5t3 -52t8 -46.5t15 -38t23.5 -33t35 -23.5t48.5 -18.5t64 -10t81.5 -4q68 0 116 7 t78.5 26.5t48 38t25.5 57.5t10 69.5t2 87.5v862zM850 25h88q-98 -60 -131 -101.5t-33 -99.5q0 -42 24.5 -60t92.5 -18q97 0 160 53l79 -143q-50 -35 -125.5 -53.5t-148.5 -18.5q-155 0 -215.5 44t-60.5 139q0 85 68.5 153.5t201.5 104.5z" />
<glyph unicode="&#x173;" horiz-adv-x="1222" d="M776 270v779h311v-986q-110 -39 -254.5 -66.5t-275.5 -27.5q-150 0 -242 46t-140 156t-48 296v582h311v-557q0 -143 36.5 -192.5t150.5 -49.5q59 0 151 20zM856 25h88q-98 -60 -131 -101.5t-33 -99.5q0 -42 24.5 -60t92.5 -18q97 0 160 53l80 -143q-50 -35 -126 -53.5 t-149 -18.5q-155 0 -215.5 44t-60.5 139q0 85 68.5 153.5t201.5 104.5z" />
<glyph unicode="&#x174;" horiz-adv-x="2070" d="M1042 862q-80 -368 -231 -862h-420q-87 361 -199 762t-204 665h358q71 -208 149 -486t132 -513q197 650 266 999h299q183 -617 266 -999q158 494 262 999h346q-68 -290 -186 -702t-221 -725h-422q-56 298 -195 862zM1171 1530l-137 147l-131 -147h-266l250 264h301 l258 -264h-275z" />
<glyph unicode="&#x175;" horiz-adv-x="1716" d="M856 608q-56 -263 -170 -608h-377q-140 517 -334 1049h322q126 -339 219 -721q45 135 108 357.5t97 363.5h285q44 -138 102 -354t92 -367q153 447 215 721h316q-173 -589 -361 -1049h-377q-72 358 -137 608zM989 1163q-22 24 -135 146q-23 -25 -66.5 -74.5t-64.5 -71.5 h-268q42 44 125 132t125 132h301l258 -264h-275z" />
<glyph unicode="&#x176;" horiz-adv-x="1337" d="M326 1427q185 -243 366 -505q252 355 340 505h408q-270 -413 -588 -845v-582h-330v580q-430 602 -635 847h439zM821 1530l-137 147l-131 -147h-266l250 264h301l258 -264h-275z" />
<glyph unicode="&#x177;" horiz-adv-x="1048" d="M338 -51q-143 520 -361 1098h318q116 -303 229 -730q157 450 224 730h313q-161 -561 -399 -1110q-90 -211 -150 -330h-346q79 135 172 342zM657 1163q-22 23 -135 146q-23 -25 -66.5 -74.5t-64.5 -71.5h-268q42 44 125 132t125 132h301l258 -264h-275z" />
<glyph unicode="&#x178;" horiz-adv-x="1337" d="M326 1427q185 -243 366 -505q252 355 340 505h408q-270 -413 -588 -845v-582h-330v580q-430 602 -635 847h439zM459 1786q83 0 112 -23.5t29 -105.5q0 -91 -29 -118.5t-112 -27.5t-111.5 27.5t-28.5 118.5q0 82 28.5 105.5t111.5 23.5zM922 1786q82 0 110.5 -24 t28.5 -105q0 -91 -29 -118.5t-110 -27.5q-84 0 -113 27.5t-29 118.5q0 82 28.5 105.5t113.5 23.5z" />
<glyph unicode="&#x179;" d="M31 0v70q147 210 358 532t344 537h-661v288h1185v-65q-124 -214 -351.5 -561.5t-352.5 -511.5h700v-289h-1222zM698 1530h-266l260 264h326z" />
<glyph unicode="&#x17a;" horiz-adv-x="1019" d="M55 1049h938v-52q-95 -158 -239.5 -373.5t-247.5 -353.5h463v-270h-949v51q130 173 279.5 394t212.5 333h-457v271zM602 1163h-266l252 264h321z" />
<glyph unicode="&#x17b;" d="M31 0v70q147 210 358 532t344 537h-661v288h1185v-65q-124 -214 -351.5 -561.5t-352.5 -511.5h700v-289h-1222zM659 1796q83 0 112.5 -24.5t29.5 -106.5q0 -89 -29.5 -117t-112.5 -28q-81 0 -110 28t-29 117q0 82 29 106.5t110 24.5z" />
<glyph unicode="&#x17c;" horiz-adv-x="1019" d="M55 1049h938v-52q-95 -158 -239.5 -373.5t-247.5 -353.5h463v-270h-949v51q130 173 279.5 394t212.5 333h-457v271zM520 1421q83 0 111 -24.5t28 -106.5q0 -90 -28.5 -117.5t-110.5 -27.5t-111.5 28t-29.5 117q0 82 29 106.5t112 24.5z" />
<glyph unicode="&#x17d;" d="M31 0v70q147 210 358 532t344 537h-661v288h1185v-65q-124 -214 -351.5 -561.5t-352.5 -511.5h700v-289h-1222zM543 1794l137 -147l133 147h266l-250 -264h-301l-258 264h273z" />
<glyph unicode="&#x17e;" horiz-adv-x="1019" d="M55 1049h938v-52q-95 -158 -239.5 -373.5t-247.5 -353.5h463v-270h-949v51q130 173 279.5 394t212.5 333h-457v271zM389 1427q90 -98 135 -145q20 22 63.5 70.5t67.5 74.5h267q-42 -44 -125 -132t-125 -132h-301l-258 264h276z" />
<glyph unicode="&#x192;" horiz-adv-x="792" d="M633 1081l-6 -34h338l-50 -269h-340l-149 -792q-24 -129 -102 -222t-177 -135.5t-208 -42.5q-231 0 -347 49l97 232q109 -37 207 -37q90 0 146 33t73 123l147 792h-186l51 269h184l11 55q20 103 64.5 178.5t108 120t138.5 65.5t164 21q78 0 168.5 -14t146.5 -35 l-111 -244q-82 29 -192 29q-150 0 -176 -142z" />
<glyph unicode="&#x1f5;" horiz-adv-x="1220" d="M770 315v484q-69 28 -160 28q-49 0 -79 -6t-55 -23.5t-38 -52.5t-19.5 -88.5t-6.5 -134.5q0 -165 39.5 -222.5t150.5 -57.5q71 0 119.5 20t48.5 53zM770 37q-118 -60 -254 -60q-106 0 -180.5 25t-131 85t-83.5 166.5t-27 262.5q0 160 30 268t95.5 173t159 92.5 t231.5 27.5q123 0 256 -20.5t219 -52.5v-920q0 -88 -15 -159.5t-41.5 -123.5t-67.5 -90.5t-87.5 -63t-107.5 -39.5t-123 -20.5t-137 -5.5q-99 0 -204 17.5t-179 44.5l55 245q177 -47 322 -47q136 0 203 43t67 152zM664 1163h-267l252 264h322z" />
<glyph unicode="&#x218;" horiz-adv-x="1273" d="M1169 1395l-67 -283q-162 47 -391 47q-156 0 -215.5 -32t-59.5 -107q0 -48 20.5 -74t82.5 -44t186 -32q247 -28 359 -130t112 -304q0 -132 -35.5 -221t-115 -143.5t-195.5 -77.5t-287 -23q-272 0 -463 68l68 283q177 -48 391 -48q161 0 221 29.5t60 110.5 q0 49 -20.5 76.5t-88 49t-199.5 35.5q-235 25 -341.5 115t-106.5 283q0 261 152.5 375t476.5 114q271 0 456 -67zM844 -104l-228 -342h-245l147 342h326z" />
<glyph unicode="&#x219;" horiz-adv-x="991" d="M899 1020l-61 -234q-160 45 -310 45q-82 0 -114.5 -16.5t-32.5 -73.5q0 -42 35 -58.5t155 -31.5q190 -24 271.5 -93.5t81.5 -225.5q0 -83 -24 -146.5t-65 -104t-101.5 -65.5t-128 -35t-150.5 -10q-88 0 -195.5 16t-177.5 42l61 237q146 -43 297 -43q101 0 141 17t40 75 q0 30 -16 47.5t-61 29.5t-132 20t-146 25.5t-103.5 51.5t-65.5 91t-21 139q0 83 23.5 146.5t64 103t101 64.5t127 34.5t149.5 9.5q86 0 186 -15.5t172 -41.5zM700 -104l-227 -342h-246l148 342h325z" />
<glyph unicode="&#x2c6;" horiz-adv-x="1333" d="M823 1163q-22 23 -135 146q-23 -25 -66.5 -74.5t-64.5 -71.5h-268q42 44 125 132t125 132h301l258 -264h-275z" />
<glyph unicode="&#x2c7;" horiz-adv-x="1325" d="M565 1427q90 -98 135 -145q20 22 63.5 70.5t67.5 74.5h267q-42 -44 -125 -132t-125 -132h-301l-258 264h276z" />
<glyph unicode="&#x2d8;" horiz-adv-x="1060" d="M186 1427h207q0 -63 28.5 -84.5t94.5 -21.5q65 0 94 22t29 84h192q0 -292 -323 -292q-155 0 -238.5 72.5t-83.5 219.5z" />
<glyph unicode="&#x2d9;" horiz-adv-x="1003" d="M461 1421q83 0 111 -24.5t28 -106.5q0 -90 -28.5 -117.5t-110.5 -27.5q-83 0 -112.5 28t-29.5 117q0 82 29.5 106.5t112.5 24.5z" />
<glyph unicode="&#x2da;" horiz-adv-x="1449" d="M737 1520q134 0 193 -45t59 -160t-59 -160t-193 -45q-135 0 -195.5 45t-60.5 160q0 116 58.5 160.5t197.5 44.5zM737 1393q-58 0 -77 -17.5t-19 -62.5q0 -44 19 -61t77 -17q56 0 75 17.5t19 60.5q0 46 -18.5 63t-75.5 17z" />
<glyph unicode="&#x2db;" horiz-adv-x="1300" d="M911 25h88q-98 -60 -130.5 -101.5t-32.5 -99.5q0 -42 24 -60t92 -18q97 0 160 53l80 -143q-50 -35 -125.5 -53.5t-148.5 -18.5q-155 0 -216 44t-61 139q0 85 68.5 153.5t201.5 104.5z" />
<glyph unicode="&#x2dc;" horiz-adv-x="1452" d="M920 1450l147 -119q-32 -85 -96.5 -138.5t-157.5 -53.5q-55 0 -106.5 24t-97 48t-85.5 24q-30 0 -52.5 -21t-45.5 -73l-135 133q92 164 227 164q51 0 97.5 -15t74 -32.5t62 -32.5t65.5 -15q36 0 58 22.5t45 84.5z" />
<glyph unicode="&#x2dd;" horiz-adv-x="1042" d="M528 1163h-209l193 264h258zM893 1163h-209l190 264h261z" />
<glyph unicode="&#x394;" horiz-adv-x="1337" d="M1380 0h-1443q87 291 236 703.5t278 723.5h421q108 -356 250 -759t258 -668zM639 1071q-109 -274 -266 -782h530q-152 402 -264 782z" />
<glyph unicode="&#x3a9;" horiz-adv-x="1658" d="M14 0v301h299q-68 49 -119 196t-51 314q0 149 29 260t83 185.5t139 120.5t190 65.5t243 19.5t243 -19.5t190 -65.5t139 -120.5t83 -185.5t29 -260q0 -167 -50.5 -313t-119.5 -197h301v-301h-694v285q66 17 109 56t65.5 108t30.5 151t8 207q0 79 -5 131t-20 93.5t-37 64.5 t-62 38t-88 20t-122 5t-122 -5t-87.5 -20t-61 -38t-36 -64.5t-19.5 -93.5t-5 -131q0 -98 4.5 -167.5t17.5 -133.5t36.5 -105.5t60.5 -71.5t90 -44v-285h-691z" />
<glyph unicode="&#x3bc;" horiz-adv-x="1222" d="M410 -393h-304l19 848v592h313v-555q0 -132 37 -187t148 -55q75 0 151 20v777h313v-984q-108 -39 -252.5 -65.5t-277.5 -26.5q-100 0 -156 21z" />
<glyph unicode="&#x3c0;" horiz-adv-x="1339" d="M45 748v301h1249v-301h-168v-748h-313v748h-293v-525q0 -230 -151 -329l-215 202q51 38 51 123v529h-160z" />
<glyph unicode="&#x401;" horiz-adv-x="1282" d="M168 1427h1065v-288h-735v-256h526v-283h-526v-311h735v-289h-1065v1427zM459 1786q83 0 112 -23.5t29 -105.5q0 -91 -29 -118.5t-112 -27.5t-111.5 27.5t-28.5 118.5q0 82 28.5 105.5t111.5 23.5zM922 1786q82 0 110.5 -24t28.5 -105q0 -91 -29 -118.5t-110 -27.5 q-84 0 -113 27.5t-29 118.5q0 82 28.5 105.5t113.5 23.5z" />
<glyph unicode="&#x402;" horiz-adv-x="1570" d="M1286 1139h-475v-250q59 28 135.5 46.5t143.5 18.5q80 0 136 -12.5t106.5 -48.5t81 -99.5t48 -168t17.5 -250.5q0 -169 -25 -303.5t-70 -223.5t-96 -145t-112 -90l-236 209q40 24 67.5 48.5t55.5 66.5t44.5 97t27 138t10.5 190q0 84 -6.5 140t-18.5 91t-35 53t-49.5 24 t-68.5 6q-62 0 -107.5 -16.5t-48.5 -45.5v-614h-332v1139h-477v288h1284v-288z" />
<glyph unicode="&#x403;" horiz-adv-x="1132" d="M498 0h-330v1427h1003v-288h-673v-1139zM725 1530h-264l258 264h328z" />
<glyph unicode="&#x404;" horiz-adv-x="1269" d="M1022 600h-561q7 -84 27 -142t50.5 -93.5t80.5 -55.5t105 -26.5t136 -6.5q70 0 158 11t139 28q10 -49 32 -148.5t32 -148.5q-83 -20 -206.5 -33.5t-223.5 -13.5q-178 0 -302.5 36.5t-214.5 122.5t-133 233.5t-43 363.5q0 145 19 257t59.5 193t96.5 136.5t136 88 t171.5 46.5t210.5 14q100 0 224.5 -14.5t205.5 -36.5q-11 -51 -33 -148.5t-31 -142.5q-51 17 -139 28t-158 11q-66 0 -111.5 -3.5t-91 -13.5t-75 -29t-55.5 -49t-41 -75t-23 -106h559v-283z" />
<glyph unicode="&#x405;" horiz-adv-x="1273" d="M1169 1395l-67 -283q-162 47 -391 47q-156 0 -215.5 -32t-59.5 -107q0 -48 20.5 -74t82.5 -44t186 -32q247 -28 359 -130t112 -304q0 -132 -35.5 -221t-115 -143.5t-195.5 -77.5t-287 -23q-272 0 -463 68l68 283q177 -48 391 -48q161 0 221 29.5t60 110.5 q0 49 -20.5 76.5t-88 49t-199.5 35.5q-235 25 -341.5 115t-106.5 283q0 261 152.5 375t476.5 114q271 0 456 -67z" />
<glyph unicode="&#x406;" horiz-adv-x="665" d="M168 1427h330v-1427h-330v1427z" />
<glyph unicode="&#x407;" horiz-adv-x="665" d="M168 1427h330v-1427h-330v1427zM102 1786q84 0 113 -24t29 -105q0 -91 -29.5 -118.5t-112.5 -27.5q-82 0 -110.5 27.5t-28.5 118.5q0 82 28 105.5t111 23.5zM565 1786q82 0 111 -24t29 -105q0 -90 -29.5 -118t-110.5 -28q-84 0 -112.5 27.5t-28.5 118.5q0 82 28 105.5 t113 23.5z" />
<glyph unicode="&#x408;" horiz-adv-x="966" d="M807 1427v-1034q0 -96 -26 -171t-69 -121.5t-103 -76.5t-122.5 -41.5t-134.5 -11.5q-189 0 -346 54l55 294q112 -40 252 -40q160 0 160 167v981h334z" />
<glyph unicode="&#x409;" horiz-adv-x="2234" d="M989 1122h-344q-55 -580 -244 -1122h-350q261 796 289 1427h979v-464h459q98 0 173 -37t120.5 -102.5t68.5 -151t23 -187.5q0 -485 -379 -485h-795v1122zM1667 694h-348v-413h352q67 0 99 49t32 157q0 207 -135 207z" />
<glyph unicode="&#x40a;" horiz-adv-x="2258" d="M498 672v-672h-330v1427h330v-477h516v477h329v-477h459q98 0 173 -36.5t120.5 -101.5t68.5 -149.5t23 -185.5q0 -477 -379 -477h-794v672h-516zM1692 672h-349v-391h353q67 0 99 45.5t32 150.5t-35 150t-100 45z" />
<glyph unicode="&#x40b;" horiz-adv-x="1585" d="M1460 487v-487h-315v467q0 64 -12.5 106.5t-38 64.5t-55 30t-72.5 8q-62 0 -107.5 -16.5t-48.5 -45.5v-614h-332v1139h-477v288h1284v-288h-475v-250q59 28 135.5 46.5t143.5 18.5q60 0 106 -7.5t89.5 -26t74 -52t54 -84.5t35 -125.5t11.5 -171.5z" />
<glyph unicode="&#x40c;" horiz-adv-x="1406" d="M1432 0h-392q-68 196 -129 321.5t-127 199t-131 104.5t-155 41v-666h-330v1427h330v-684q100 111 239 296t264 388h394q-165 -256 -289 -423.5t-178 -217.5q52 -20 91.5 -44t91.5 -78.5t98.5 -135t104.5 -214t118 -314.5zM840 1530h-267l261 264h325z" />
<glyph unicode="&#x40e;" horiz-adv-x="1284" d="M469 369q-7 17 -22.5 55t-24.5 59q-93 224 -225 496.5t-238 447.5h397q179 -320 320 -696q195 399 297 696h381q-135 -345 -330.5 -738t-374.5 -689h-420q119 154 240 369zM352 1784h207q0 -63 28.5 -85t94.5 -22q17 0 23 2q52 3 76 26t24 79h192q0 -293 -323 -293 q-155 0 -238.5 72t-83.5 221z" />
<glyph unicode="&#x40f;" horiz-adv-x="1531" d="M1364 0h-444l-43 -389h-215l-44 389h-448v1427h330v-1124h536v1124h328v-1427z" />
<glyph unicode="&#x410;" horiz-adv-x="1411" d="M1112 0q-62 148 -121 315h-588q-29 -94 -92 -315h-352q89 297 235.5 710.5t270.5 716.5h510q102 -338 245 -744t257 -683h-365zM727 1141h-53q-79 -216 -187 -541h410q-103 305 -170 541z" />
<glyph unicode="&#x411;" horiz-adv-x="1480" d="M498 281h399q53 0 78.5 37.5t25.5 119.5q0 170 -112 170h-391v-327zM1255 1427v-288h-757v-262h479q188 0 285.5 -111t97.5 -330q0 -124 -26 -210t-77 -135t-117 -70t-157 -21h-815v1427h1087z" />
<glyph unicode="&#x412;" horiz-adv-x="1480" d="M498 281h399q53 0 78.5 37.5t25.5 119.5q0 170 -112 170h-391v-327zM498 1147v-270h389q48 0 70 31.5t22 103.5t-22 103.5t-70 31.5h-389zM1028 752q100 -4 166.5 -30t102 -75.5t49.5 -111t14 -150.5q0 -206 -97 -295.5t-280 -89.5h-815v1427h809q105 0 175.5 -21.5 t109.5 -67t55 -105.5t16 -148q0 -80 -12 -134t-44.5 -98.5t-93.5 -69t-155 -31.5z" />
<glyph unicode="&#x413;" horiz-adv-x="1126" d="M498 0h-330v1427h1003v-288h-673v-1139z" />
<glyph unicode="&#x414;" horiz-adv-x="1683" d="M1432 1427v-1124h251l-45 -618h-292v315h-992v-315h-295l-45 618h230q175 539 200 1124h988zM1104 303v836h-356q-45 -489 -148 -836h504z" />
<glyph unicode="&#x415;" horiz-adv-x="1282" d="M168 1427h1065v-288h-735v-256h526v-283h-526v-311h735v-289h-1065v1427z" />
<glyph unicode="&#x416;" horiz-adv-x="2062" d="M365 0h-390q58 181 113 314.5t99 214t93 135t86.5 79t86.5 43.5q-49 48 -164.5 213.5t-276.5 427.5h389q119 -203 246 -386t219 -291v677h330v-677q89 107 217 290.5t248 386.5h389q-162 -263 -276.5 -428.5t-163.5 -212.5q49 -19 86.5 -43.5t86 -79t93 -135t99 -214 t112.5 -314.5h-389q-52 157 -98.5 267.5t-91 185.5t-94.5 119.5t-100.5 65.5t-117.5 28v-666h-330v666q-84 -9 -145 -40.5t-121 -105.5t-115.5 -199t-119.5 -321z" />
<glyph unicode="&#x417;" horiz-adv-x="1320" d="M381 600v283h240q108 0 151 28.5t43 112.5q0 54 -24.5 82.5t-88 41.5t-184.5 13q-83 0 -193.5 -11t-166.5 -28l-62 289q98 22 238.5 36.5t261.5 14.5q317 0 444 -82.5t127 -287.5q0 -80 -12 -135t-44 -101t-93.5 -71.5t-155.5 -32.5q99 -4 166 -30.5t103.5 -76t51.5 -112 t15 -150.5q0 -226 -142 -319t-460 -93q-116 0 -263 14t-243 35l62 293q57 -17 169.5 -28t196.5 -11q187 0 253.5 34t66.5 128q0 93 -50 128.5t-159 35.5h-248z" />
<glyph unicode="&#x418;" horiz-adv-x="1630" d="M1462 1427v-1427h-325v940q-257 -485 -537 -940h-432v1427h324v-978q332 542 567 978h403z" />
<glyph unicode="&#x419;" horiz-adv-x="1630" d="M1462 1427v-1427h-325v940q-257 -485 -537 -940h-432v1427h324v-978q332 542 567 978h403zM487 1784h207q0 -63 28.5 -85t94.5 -22q64 0 93.5 22t29.5 85h193q0 -293 -324 -293q-155 0 -238.5 73t-83.5 220z" />
<glyph unicode="&#x41a;" horiz-adv-x="1406" d="M1432 0h-392q-68 196 -129 321.5t-127 199t-131 104.5t-155 41v-666h-330v1427h330v-684q100 111 239 296t264 388h394q-165 -256 -289 -423.5t-178 -217.5q52 -20 91.5 -44t91.5 -78.5t98.5 -135t104.5 -214t118 -314.5z" />
<glyph unicode="&#x41b;" horiz-adv-x="1507" d="M1010 1139h-365q-57 -602 -244 -1139h-350q261 796 289 1427h999v-1427h-329v1139z" />
<glyph unicode="&#x41c;" horiz-adv-x="1923" d="M977 592q164 434 356 835h422v-1427h-319v965q-168 -371 -353 -846h-262q-241 637 -334 846v-965h-319v1427h442q176 -352 367 -835z" />
<glyph unicode="&#x41d;" horiz-adv-x="1531" d="M498 602v-602h-330v1427h330v-520h536v520h330v-1427h-330v602h-536z" />
<glyph unicode="&#x41e;" horiz-adv-x="1587" d="M795 1462q143 0 248.5 -20.5t192.5 -70.5t141 -133.5t83 -209.5t29 -299q0 -218 -43 -366t-133.5 -234t-215 -122t-302.5 -36q-179 0 -303.5 36t-215 122t-133.5 234t-43 366q0 173 29 299t83 209.5t141 133.5t193 70.5t249 20.5zM795 272q77 0 126 5.5t90.5 24.5 t63.5 48t37 82.5t20 121t5 171.5q0 102 -4.5 168t-20.5 117t-37 78t-63.5 44.5t-90.5 22t-126 4.5t-126 -4.5t-90.5 -22t-63.5 -44.5t-37 -78t-20.5 -117t-4.5 -168q0 -104 5 -171.5t20 -121t37 -82.5t63.5 -48t90.5 -24.5t126 -5.5z" />
<glyph unicode="&#x41f;" horiz-adv-x="1531" d="M498 1139v-1139h-330v1427h1196v-1427h-330v1139h-536z" />
<glyph unicode="&#x420;" horiz-adv-x="1400" d="M498 717h352q143 0 143 209q0 114 -35 166.5t-104 52.5h-356v-428zM498 0h-330v1427h797q391 0 391 -501q0 -99 -24 -184.5t-70.5 -153t-122 -106t-172.5 -38.5h-469v-444z" />
<glyph unicode="&#x421;" horiz-adv-x="1204" d="M100 727q0 146 18 257.5t56 193t91.5 136t131.5 87.5t169 47t210 14q101 0 217.5 -14t196.5 -37l-64 -291q-109 39 -280 39q-59 0 -100 -2.5t-82.5 -10t-68.5 -21t-53 -36.5t-41 -54.5t-26.5 -76.5t-16.5 -102.5t-5 -132.5q0 -99 8.5 -169.5t30 -121t49.5 -80.5t76 -47 t100 -23t129 -6q68 0 148 11t132 28l64 -297q-180 -47 -414 -47q-142 0 -247 23t-188.5 75.5t-135 140t-78.5 215.5t-27 302z" />
<glyph unicode="&#x422;" horiz-adv-x="1288" d="M811 0h-332v1139h-477v288h1284v-288h-475v-1139z" />
<glyph unicode="&#x423;" horiz-adv-x="1312" d="M678 733q189 389 295 694h383q-134 -341 -330 -733t-377 -694h-420q126 167 240 369q-80 212 -233.5 533.5t-276.5 524.5h397q184 -329 322 -694z" />
<glyph unicode="&#x424;" horiz-adv-x="1697" d="M670 1427h329v-163q181 -9 300 -43.5t190.5 -102.5t101 -163.5t29.5 -237.5q0 -143 -29.5 -238.5t-101.5 -163.5t-190.5 -102t-299.5 -43v-170h-329v168q-179 9 -294.5 43.5t-183.5 103t-95 163.5t-27 239q0 95 11.5 167t38.5 133t71.5 103t112 73t157.5 48t209 23v163z M1280 717q0 55 -3.5 91.5t-14.5 69.5t-29.5 52t-50.5 34t-76 21t-107 8v-557q94 3 149 17.5t84.5 50.5t38.5 83t9 130zM403 717q0 -81 9.5 -128.5t38.5 -83t80.5 -50.5t138.5 -19v557q-87 -3 -138.5 -17t-80.5 -48.5t-38.5 -82t-9.5 -128.5z" />
<glyph unicode="&#x425;" horiz-adv-x="1409" d="M410 1427q107 -141 309 -413q172 243 274 413h412q-159 -243 -479 -700q334 -473 504 -727h-416q-150 228 -297 434q-200 -269 -330 -434h-412q170 211 535 721q-360 491 -533 706h433z" />
<glyph unicode="&#x426;" horiz-adv-x="1613" d="M498 1427v-1124h536v1124h330v-1124h250l-45 -618h-293v315h-1108v1427h330z" />
<glyph unicode="&#x427;" horiz-adv-x="1435" d="M936 815v612h330v-1427h-330v438q-52 -25 -146.5 -41t-199.5 -16q-92 0 -164.5 13t-140 48t-112 91.5t-71 148.5t-26.5 215v530h332v-518q0 -130 54.5 -174.5t205.5 -44.5q268 0 268 125z" />
<glyph unicode="&#x428;" horiz-adv-x="2066" d="M1898 1427v-1427h-1730v1427h330v-1124h370v1124h332v-1124h371v1124h327z" />
<glyph unicode="&#x429;" horiz-adv-x="2150" d="M498 1427v-1124h370v1124h332v-1124h371v1124h327v-1124h252l-47 -618h-291v315h-1644v1427h330z" />
<glyph unicode="&#x42a;" horiz-adv-x="1519" d="M37 1427h547v-460h479q98 0 173 -38t120.5 -104.5t68.5 -152.5t23 -187q0 -94 -16 -157q-49 -328 -363 -328h-815v1139h-217v288zM584 281h372q67 0 99 49t32 155q0 203 -135 203h-368v-407z" />
<glyph unicode="&#x42b;" horiz-adv-x="1984" d="M498 281h372q67 0 99 49t32 155q0 203 -135 203h-368v-407zM168 1427h330v-460h479q98 0 173 -38t120.5 -104.5t68.5 -152.5t23 -187q0 -485 -379 -485h-815v1427zM1485 1427h332v-1427h-332v1427z" />
<glyph unicode="&#x42c;" horiz-adv-x="1433" d="M498 281h372q67 0 99 49t32 155q0 203 -135 203h-368v-407zM168 1427h330v-460h479q98 0 173 -38t120.5 -104.5t68.5 -152.5t23 -187q0 -485 -379 -485h-815v1427z" />
<glyph unicode="&#x42d;" horiz-adv-x="1269" d="M809 600h-563v283h559q-7 61 -22 106t-41 75t-56 49t-75.5 29t-91 13.5t-111.5 3.5q-70 0 -158 -11t-137 -28q-12 51 -33.5 148.5t-32.5 142.5q83 22 206.5 36.5t223.5 14.5q119 0 211 -14t172 -46.5t135.5 -88t95.5 -136.5t59 -193t19 -257q0 -174 -28.5 -302.5 t-82.5 -215t-140 -140t-192.5 -76t-248.5 -22.5q-100 0 -223.5 13.5t-206.5 33.5q11 49 33 148.5t33 148.5q49 -17 137 -28t158 -11q81 0 136 6.5t105.5 26.5t81 55.5t51 93.5t27.5 142z" />
<glyph unicode="&#x42e;" horiz-adv-x="2025" d="M1350 1462q113 0 199 -20t159 -70t119.5 -132.5t72 -209t25.5 -297.5q0 -217 -38 -366.5t-114.5 -235.5t-179 -123t-243.5 -37q-103 0 -185.5 19t-153.5 64t-120 117t-80 180t-39 251h-274v-602h-330v1427h330v-520h276q12 128 44.5 224t82 159t119.5 101.5t149.5 54.5 t180.5 16zM1352 274q49 0 81.5 6t60 25t43 49.5t26 83.5t14.5 122.5t4 172.5q0 100 -3.5 166.5t-15 116.5t-26 77.5t-43 44t-59.5 21t-82 4.5t-83 -5t-61 -21t-45 -44t-28 -77t-16.5 -116.5t-4.5 -166.5q0 -122 7.5 -201t22.5 -132t44.5 -79.5t66.5 -36.5t97 -10z" />
<glyph unicode="&#x42f;" horiz-adv-x="1478" d="M981 780v367h-371q-57 0 -89 -47.5t-32 -141.5q0 -91 34 -134.5t91 -43.5h367zM479 614q-98 5 -169 38t-111 89t-58 122t-18 147q0 92 20.5 165t64.5 131t121.5 89.5t184.5 31.5h797v-1427h-330v510h-207q-49 0 -83.5 -11.5t-68.5 -41.5t-63.5 -88.5t-60.5 -147 t-68 -221.5h-383q52 156 96.5 262t82.5 173t80 104.5t80.5 52.5t92.5 22z" />
<glyph unicode="&#x430;" horiz-adv-x="1165" d="M1040 670v-617q-104 -38 -241.5 -60t-255.5 -22q-134 0 -217 15.5t-136.5 56t-74.5 106t-21 170.5q0 87 19.5 149t52 99.5t87 59t112.5 28.5t139 7q102 0 237 -27q0 58 -8 90t-34 54t-71 29t-124 7q-186 0 -326 -43l-49 250q215 55 451 55q243 0 351.5 -90t108.5 -317z M741 233v199q-55 14 -170 14q-90 0 -121.5 -21t-31.5 -95q0 -79 28 -102t121 -23q98 0 174 28z" />
<glyph unicode="&#x431;" horiz-adv-x="1187" d="M418 504q0 -116 18.5 -178.5t53.5 -83.5t98 -21q58 0 89 7.5t56 36.5t34 86t9 155q0 109 -17.5 164.5t-54.5 75.5t-110 20q-109 0 -142.5 -52t-33.5 -210zM418 920q82 110 258 110q83 0 145 -13.5t115.5 -48t87.5 -92.5t53 -149t19 -215q0 -126 -20 -218t-59 -154.5 t-103 -99.5t-145 -53t-191 -16q-96 0 -164.5 14.5t-131 55.5t-100.5 112t-60 186.5t-22 276.5q0 131 6.5 233t22 183.5t36.5 140.5t55.5 103.5t72 72.5t93 47t113 28.5t136.5 15.5q256 19 405 76v-271q-103 -46 -385 -69q-67 -5 -110.5 -22.5t-69 -52t-37.5 -75t-20 -106.5z " />
<glyph unicode="&#x432;" horiz-adv-x="1216" d="M451 233h262q45 0 65.5 20.5t20.5 72.5q0 56 -23 79t-71 23h-254v-195zM451 815v-168h251q40 0 59 19.5t19 64.5q0 48 -18.5 66t-59.5 18h-251zM852 551q157 -6 214.5 -70.5t57.5 -197.5q0 -152 -80.5 -217.5t-234.5 -65.5h-674v1049h668q172 0 236.5 -60.5t64.5 -191.5 q0 -59 -10 -99t-37 -73t-77.5 -51t-127.5 -23z" />
<glyph unicode="&#x433;" horiz-adv-x="894" d="M451 778v-778h-316v1049h758v-271h-442z" />
<glyph unicode="&#x434;" horiz-adv-x="1398" d="M334 1049h852v-779h207l-70 -573h-256v303h-735v-303h-258l-70 573h197q114 431 133 779zM872 778h-254q-16 -226 -90 -508h344v508z" />
<glyph unicode="&#x435;" horiz-adv-x="1138" d="M940 268l47 -239q-77 -26 -183 -42t-196 -16q-116 0 -205.5 27.5t-161 90t-109.5 173.5t-38 268q0 155 34 263t101 169.5t154 88t205 26.5q92 0 158.5 -10.5t124.5 -37t94.5 -73t61 -118t32 -171.5t0.5 -235h-641q3 -120 56 -159.5t175 -39.5q59 0 146.5 10t144.5 25z M610 840q-97 0 -136.5 -37.5t-53.5 -138.5h364q-3 105 -40.5 140.5t-133.5 35.5z" />
<glyph unicode="&#x436;" horiz-adv-x="1761" d="M365 0h-357q50 131 97 228t82 154t73 96.5t63.5 56.5t59.5 32q-48 44 -147 172.5t-209 309.5h358q199 -319 338 -498v498h315v-498q160 212 336 498h359q-108 -180 -208 -308.5t-149 -173.5q34 -15 59.5 -32t64 -56.5t74 -96.5t82.5 -154.5t97 -227.5h-356 q-68 161 -133 264t-116.5 147t-109.5 62v-473h-315v473q-58 -18 -109.5 -62t-116.5 -147t-132 -264z" />
<glyph unicode="&#x437;" horiz-adv-x="1075" d="M313 430v227h164q90 0 124 16t34 60q0 46 -35.5 64t-140.5 18q-185 0 -338 -47l-60 268q192 41 404 41q199 0 304.5 -24.5t150.5 -82.5t45 -167q0 -123 -52.5 -182.5t-193.5 -69.5q148 -7 209 -75.5t61 -199.5q0 -177 -115 -241t-409 -64q-208 0 -410 39l62 279 q61 -23 155 -38t185 -15q83 0 125 9.5t57.5 30t15.5 60.5q0 55 -40.5 74.5t-137.5 19.5h-164z" />
<glyph unicode="&#x438;" horiz-adv-x="1255" d="M805 0v549q-149 -280 -356 -549h-314v1047h314v-574q141 171 356 574h313v-1047h-313z" />
<glyph unicode="&#x439;" horiz-adv-x="1255" d="M805 0v549q-149 -280 -356 -549h-314v1047h314v-574q141 171 356 574h313v-1047h-313zM301 1427h205q0 -63 29 -84.5t96 -21.5q16 0 22 2q51 3 75 25.5t24 78.5h192q0 -292 -321 -292q-322 0 -322 292z" />
<glyph unicode="&#x43a;" horiz-adv-x="1204" d="M1196 0h-360q-73 171 -140 272.5t-121.5 142t-123.5 58.5v-473h-316v1049h316v-504q110 136 362 504h363q-125 -190 -222.5 -318t-140.5 -164q35 -14 61.5 -31.5t63.5 -56t73 -96.5t83.5 -154.5t101.5 -228.5z" />
<glyph unicode="&#x43b;" horiz-adv-x="1218" d="M770 778h-242q-28 -417 -139 -778h-330q65 221 109.5 498.5t62.5 550.5h852v-1049h-313v778z" />
<glyph unicode="&#x43c;" horiz-adv-x="1613" d="M821 502q122 316 232 547h424v-1049h-310v682q-139 -303 -254 -627h-225q-125 368 -242 627v-682h-311v1049h443q77 -152 243 -547z" />
<glyph unicode="&#x43d;" horiz-adv-x="1234" d="M784 412h-335v-412h-314v1047h314v-367h335v367h314v-1047h-314v412z" />
<glyph unicode="&#x43e;" horiz-adv-x="1208" d="M602 -29q-131 0 -222.5 27t-157.5 91t-97 172.5t-31 268.5q0 159 31.5 266t98 168.5t157 87t221.5 25.5q133 0 224.5 -25.5t158 -87t98 -168.5t31.5 -266q0 -160 -31 -268.5t-97.5 -172.5t-158.5 -91t-225 -27zM602 831q-60 0 -92.5 -9t-57 -42t-32.5 -92.5t-8 -163.5 q0 -133 18 -198t56 -87t116 -22q80 0 118.5 22t56.5 87t18 198q0 84 -6 137.5t-18 88.5t-37 52t-54 23t-78 6z" />
<glyph unicode="&#x43f;" horiz-adv-x="1234" d="M451 778v-778h-316v1049h965v-1049h-316v778h-333z" />
<glyph unicode="&#x440;" horiz-adv-x="1220" d="M451 791v-482q0 -35 46 -57.5t115 -22.5q113 0 155 61t42 226q0 127 -19.5 191t-59.5 86t-120 22q-96 0 -159 -24zM135 -393v1397q84 32 218 52.5t257 20.5q110 0 190.5 -16.5t143.5 -55t102 -102.5t58.5 -157.5t19.5 -221.5q0 -155 -32 -264.5t-93 -171.5t-139 -89.5 t-180 -27.5q-122 0 -229 47v-411h-316z" />
<glyph unicode="&#x441;" horiz-adv-x="966" d="M881 289l65 -264q-60 -25 -153.5 -39.5t-176.5 -14.5q-97 0 -174.5 16.5t-144 56.5t-110.5 103.5t-68.5 159.5t-24.5 223q0 156 37 264.5t108.5 169.5t162.5 87t214 26q86 0 178.5 -12t151.5 -33l-65 -266q-110 43 -238 43q-52 0 -84 -5t-63 -21t-47.5 -47t-26.5 -83 t-10 -129q0 -91 13.5 -147.5t45 -86t70.5 -39t102 -9.5q127 0 238 47z" />
<glyph unicode="&#x442;" horiz-adv-x="997" d="M655 778v-778h-313v778h-338v271h987v-271h-336z" />
<glyph unicode="&#x443;" horiz-adv-x="1048" d="M338 -51q-143 520 -361 1098h318q116 -303 229 -730q157 450 224 730h313q-161 -561 -399 -1110q-90 -211 -150 -330h-346q79 135 172 342z" />
<glyph unicode="&#x444;" horiz-adv-x="1712" d="M698 1065v401h316v-401q47 12 129 12q134 0 221 -26t145.5 -90.5t83.5 -169.5t25 -267q0 -156 -27.5 -265t-82 -171t-126 -89.5t-168.5 -27.5q-112 0 -200 47v-411h-316v411q-85 -47 -200 -47q-97 0 -168.5 27.5t-126 89.5t-82 171t-27.5 265q0 162 25 267t83.5 169.5 t145.5 90.5t221 26q82 0 129 -12zM565 229q63 0 98 21.5t35 54.5v492q-56 18 -129 18q-67 0 -102 -21.5t-53.5 -86.5t-18.5 -191q0 -161 40.5 -224t129.5 -63zM1147 229q91 0 130.5 63t39.5 224q0 126 -18.5 191t-53.5 86.5t-102 21.5q-71 0 -129 -18v-494q2 -33 37 -53.5 t96 -20.5z" />
<glyph unicode="&#x445;" horiz-adv-x="1064" d="M1083 0h-346q-58 101 -188 287q-136 -186 -219 -287h-342q121 143 399 522q-227 321 -395 525h360q56 -70 205 -277q59 82 182 277h342q-111 -171 -356 -517q237 -338 358 -530z" />
<glyph unicode="&#x446;" horiz-adv-x="1357" d="M1100 270h254l-72 -573h-256v303h-891v1049h316v-779h333v779h316v-779z" />
<glyph unicode="&#x447;" horiz-adv-x="1169" d="M70 772v277h315v-256q0 -64 12.5 -106.5t38 -64.5t55 -30t72.5 -8q65 0 110.5 17t45.5 48v400h315v-1049h-315v371q-140 -66 -279 -66q-60 0 -106 7.5t-89.5 26t-74 52t-54 84.5t-35 125.5t-11.5 171.5z" />
<glyph unicode="&#x448;" horiz-adv-x="1828" d="M1694 1049v-1049h-1559v1049h316v-779h307v779h313v-779h309v779h314z" />
<glyph unicode="&#x449;" horiz-adv-x="1953" d="M1620 -301v301h-1485v1047h314v-777h309v777h313v-777h307v777h316v-777h254l-72 -571h-256z" />
<glyph unicode="&#x44a;" horiz-adv-x="1269" d="M506 688h350q155 0 239.5 -89t84.5 -257q0 -184 -81.5 -263t-242.5 -79h-666v778h-176v271h492v-361zM506 223h258q90 0 90 117q0 113 -96 113h-252v-230z" />
<glyph unicode="&#x44b;" horiz-adv-x="1667" d="M709 221q90 0 90 117q0 115 -97 115h-253v-232h260zM449 688h350q156 0 240.5 -89t84.5 -257q0 -185 -81.5 -263.5t-243.5 -78.5h-664v1047h314v-359zM1532 1047v-1047h-315v1047h315z" />
<glyph unicode="&#x44c;" horiz-adv-x="1214" d="M709 221q90 0 90 117q0 115 -97 115h-253v-232h260zM449 688h350q156 0 240.5 -89t84.5 -257q0 -185 -81.5 -263.5t-243.5 -78.5h-664v1047h314v-359z" />
<glyph unicode="&#x44d;" horiz-adv-x="983" d="M39 25l63 239q90 -35 244 -35q99 0 152.5 42.5t66.5 158.5h-385v234h381q-17 93 -69.5 125t-145.5 32q-141 0 -244 -35l-63 246q59 21 152 33t180 12q93 0 168 -15.5t141.5 -54.5t111.5 -100t71 -156.5t26 -220.5q0 -105 -17.5 -190.5t-51 -146t-79 -104t-104.5 -69.5 t-124 -37.5t-142 -11.5q-84 0 -178 14.5t-154 39.5z" />
<glyph unicode="&#x44e;" horiz-adv-x="1779" d="M1178 -29q-116 0 -200.5 22t-148.5 72.5t-101 136t-48 210.5h-229v-412h-316v1049h316v-369h231q14 114 52.5 191.5t103 122.5t146.5 64t194 19q105 0 182.5 -16t141 -53.5t103 -100t60.5 -156.5t21 -221q0 -160 -31 -268.5t-97 -172.5t-157.5 -91t-222.5 -27zM1178 831 q-47 0 -75 -6t-52 -23t-36 -52t-18 -89t-6 -137q0 -133 18 -198t55.5 -87t113.5 -22q58 0 91 10.5t56.5 44t32 92.5t8.5 160q0 84 -6 137.5t-18 88.5t-36 52t-52.5 23t-75.5 6z" />
<glyph unicode="&#x44f;" horiz-adv-x="1259" d="M809 582v219h-254q-48 0 -72 -25.5t-24 -83.5q0 -110 98 -110h252zM414 444q-81 4 -140 29.5t-92 67t-48 91t-15 109.5q0 140 79.5 224t254.5 84h671v-1049h-315v340h-139q-65 0 -106 -26.5t-80 -98.5t-85 -215h-358q65 175 118.5 265.5t110 128.5t144.5 50z" />
<glyph unicode="&#x451;" horiz-adv-x="1138" d="M940 268l47 -239q-77 -26 -183 -42t-196 -16q-116 0 -205.5 27.5t-161 90t-109.5 173.5t-38 268q0 155 34 263t101 169.5t154 88t205 26.5q92 0 158.5 -10.5t124.5 -37t94.5 -73t61 -118t32 -171.5t0.5 -235h-641q3 -120 56 -159.5t175 -39.5q59 0 146.5 10t144.5 25z M610 840q-97 0 -136.5 -37.5t-53.5 -138.5h364q-3 105 -40.5 140.5t-133.5 35.5zM360 1421q83 0 112.5 -24.5t29.5 -106.5q0 -89 -29.5 -117t-112.5 -28q-81 0 -110 28t-29 117q0 82 29 106.5t110 24.5zM823 1421q82 0 111 -24.5t29 -106.5q0 -89 -29.5 -117t-110.5 -28 q-84 0 -112.5 27.5t-28.5 117.5q0 82 28 106.5t113 24.5z" />
<glyph unicode="&#x452;" horiz-adv-x="1210" d="M451 1176v-199q130 65 278 65q79 0 135.5 -14t106.5 -52.5t80.5 -104.5t47.5 -171t17 -251q0 -170 -25.5 -316t-69 -248t-96 -170.5t-110.5 -101.5l-235 209q204 123 204 614q0 83 -6.5 138.5t-18.5 90.5t-35 53t-49.5 24t-68.5 6q-63 0 -107.5 -16t-47.5 -44v-688h-316 v1176h-92v213h92v90h316v-90h188v-213h-188z" />
<glyph unicode="&#x453;" horiz-adv-x="894" d="M451 778v-778h-316v1049h758v-271h-442zM575 1163h-266l252 264h322z" />
<glyph unicode="&#x454;" horiz-adv-x="983" d="M881 264l63 -239q-60 -25 -152.5 -39.5t-175.5 -14.5q-93 0 -169.5 16.5t-143 56.5t-112 103t-71.5 160t-26 223q0 125 26 220.5t71 156.5t111.5 100t141.5 54.5t168 15.5q87 0 180 -12t152 -33l-63 -246q-103 35 -244 35q-93 0 -145.5 -32t-69.5 -125h381v-234h-385 q13 -116 66.5 -158.5t152.5 -42.5q154 0 244 35z" />
<glyph unicode="&#x455;" horiz-adv-x="991" d="M899 1020l-61 -234q-160 45 -310 45q-82 0 -114.5 -16.5t-32.5 -73.5q0 -42 35 -58.5t155 -31.5q190 -24 271.5 -93.5t81.5 -225.5q0 -83 -24 -146.5t-65 -104t-101.5 -65.5t-128 -35t-150.5 -10q-88 0 -195.5 16t-177.5 42l61 237q146 -43 297 -43q101 0 141 17t40 75 q0 30 -16 47.5t-61 29.5t-132 20t-146 25.5t-103.5 51.5t-65.5 91t-21 139q0 83 23.5 146.5t64 103t101 64.5t127 34.5t149.5 9.5q86 0 186 -15.5t172 -41.5z" />
<glyph unicode="&#x456;" horiz-adv-x="581" d="M451 1049v-1049h-316v1049h316zM293 1503q104 0 141 -28t37 -121q0 -102 -37 -134t-141 -32q-105 0 -141.5 31.5t-36.5 134.5q0 94 36.5 121.5t141.5 27.5z" />
<glyph unicode="&#x457;" horiz-adv-x="581" d="M451 1049v-1049h-316v1049h316zM61 1421q83 0 112.5 -24.5t29.5 -106.5q0 -89 -29.5 -117t-112.5 -28q-81 0 -110 28t-29 117q0 82 29 106.5t110 24.5zM524 1421q82 0 111 -24.5t29 -106.5q0 -89 -29.5 -117t-110.5 -28q-84 0 -112.5 27.5t-28.5 117.5q0 82 28 106.5 t113 24.5z" />
<glyph unicode="&#x458;" horiz-adv-x="581" d="M293 1503q104 0 141 -28t37 -121q0 -102 -37 -134t-141 -32q-105 0 -141.5 31.5t-36.5 134.5q0 94 36.5 121.5t141.5 27.5zM451 1049v-1053q0 -229 -111 -320.5t-365 -91.5v254q81 0 120.5 36t39.5 114v1061h316z" />
<glyph unicode="&#x459;" horiz-adv-x="1849" d="M770 778h-242q-28 -417 -139 -778h-330q65 221 109.5 498.5t62.5 550.5h852v-361h351q155 0 240 -89t85 -257q0 -184 -82 -263t-243 -79h-664v778zM1083 223h260q91 0 91 117q0 113 -97 113h-254v-230z" />
<glyph unicode="&#x45a;" horiz-adv-x="1863" d="M1100 688h350q155 0 239.5 -89t84.5 -257q0 -184 -81.5 -263t-242.5 -79h-666v453h-333v-453h-316v1049h316v-361h333v361h316v-361zM1100 223h258q90 0 90 117q0 113 -96 113h-252v-230z" />
<glyph unicode="&#x45b;" horiz-adv-x="1222" d="M43 1176v213h92v90h316v-90h188v-213h-188v-164q137 65 278 65q73 0 126 -10.5t101.5 -40.5t78.5 -81t47.5 -135t17.5 -200v-610h-316v590q0 64 -12.5 106.5t-38 64.5t-55 30t-72.5 8q-65 0 -110 -17.5t-45 -48.5v-733h-316v1176h-92z" />
<glyph unicode="&#x45c;" horiz-adv-x="1204" d="M1196 0h-360q-73 171 -140 272.5t-121.5 142t-123.5 58.5v-473h-316v1049h316v-504q110 136 362 504h363q-125 -190 -222.5 -318t-140.5 -164q35 -14 61.5 -31.5t63.5 -56t73 -96.5t83.5 -154.5t101.5 -228.5zM715 1163h-266l251 264h322z" />
<glyph unicode="&#x45e;" horiz-adv-x="1048" d="M338 -51q-143 520 -361 1098h318q116 -303 229 -730q157 450 224 730h313q-161 -561 -399 -1110q-90 -211 -150 -330h-346q79 135 172 342zM199 1430h207q0 -63 28.5 -85t93.5 -22q64 0 93.5 22t29.5 85h193q0 -293 -324 -293q-154 0 -237.5 72.5t-83.5 220.5z" />
<glyph unicode="&#x45f;" horiz-adv-x="1234" d="M451 1049v-779h333v779h316v-1049h-328l-43 -379h-217l-43 379h-334v1049h316z" />
<glyph unicode="&#x490;" horiz-adv-x="1126" d="M168 0v1427h711l75 379h217v-667h-673v-1139h-330z" />
<glyph unicode="&#x491;" horiz-adv-x="894" d="M893 776h-444v-776h-314v1047h498l74 356h186v-627z" />
<glyph unicode="&#x2000;" horiz-adv-x="920" />
<glyph unicode="&#x2001;" horiz-adv-x="1841" />
<glyph unicode="&#x2002;" horiz-adv-x="920" />
<glyph unicode="&#x2003;" horiz-adv-x="1841" />
<glyph unicode="&#x2004;" horiz-adv-x="613" />
<glyph unicode="&#x2005;" horiz-adv-x="460" />
<glyph unicode="&#x2006;" horiz-adv-x="306" />
<glyph unicode="&#x2007;" horiz-adv-x="306" />
<glyph unicode="&#x2008;" horiz-adv-x="230" />
<glyph unicode="&#x2009;" horiz-adv-x="368" />
<glyph unicode="&#x200a;" horiz-adv-x="102" />
<glyph unicode="&#x2013;" horiz-adv-x="1220" d="M96 432v301h1028v-301h-1028z" />
<glyph unicode="&#x2014;" horiz-adv-x="1800" d="M96 432v301h1608v-301h-1608z" />
<glyph unicode="&#x2018;" horiz-adv-x="563" d="M49 1034l223 541h246l-160 -541h-309z" />
<glyph unicode="&#x2019;" horiz-adv-x="563" d="M516 1561l-223 -543h-246l160 543h309z" />
<glyph unicode="&#x201a;" horiz-adv-x="532" d="M500 215l-224 -541h-245l159 541h310z" />
<glyph unicode="&#x201c;" horiz-adv-x="995" d="M49 1034l223 541h246l-160 -541h-309zM479 1034l223 541h246l-160 -541h-309z" />
<glyph unicode="&#x201d;" horiz-adv-x="995" d="M948 1563l-223 -541h-246l160 541h309zM518 1563l-223 -541h-246l160 541h309z" />
<glyph unicode="&#x201e;" horiz-adv-x="995" d="M948 201l-223 -543h-246l160 543h309zM518 201l-223 -543h-246l160 543h309z" />
<glyph unicode="&#x2020;" horiz-adv-x="942" d="M61 940v254h281v283h254v-283h283v-254h-283v-440h-254v440h-281z" />
<glyph unicode="&#x2021;" horiz-adv-x="942" d="M61 940v254h281v283h254v-283h283v-254h-283v-162h283v-254h-283v-282h-254v282h-281v254h281v162h-281z" />
<glyph unicode="&#x2022;" horiz-adv-x="1208" d="M602 115q-131 0 -222.5 27t-157.5 91t-97 172.5t-31 268.5q0 159 31.5 266t98 168.5t157 87t221.5 25.5q133 0 224.5 -25.5t158 -87t98 -168.5t31.5 -266q0 -160 -31 -268.5t-97.5 -172.5t-158.5 -91t-225 -27z" />
<glyph unicode="&#x2026;" horiz-adv-x="2265" d="M412 336q111 0 150.5 -32t39.5 -136q0 -113 -39 -147.5t-151 -34.5q-109 0 -148 34.5t-39 147.5q0 104 39 136t148 32zM1128 336q112 0 151.5 -32t39.5 -136q0 -113 -39.5 -147.5t-151.5 -34.5q-109 0 -147.5 34.5t-38.5 147.5q0 104 39 136t147 32zM1849 336 q111 0 150 -32t39 -136q0 -59 -9 -94.5t-32.5 -55t-57 -26t-90.5 -6.5q-109 0 -147.5 34.5t-38.5 147.5q0 104 39 136t147 32z" />
<glyph unicode="&#x202f;" horiz-adv-x="368" />
<glyph unicode="&#x2030;" horiz-adv-x="2922" d="M1339 1427h287l-913 -1427h-285zM457 1462q114 0 187 -20.5t123.5 -73.5t71.5 -141.5t21 -227.5q0 -141 -21 -233t-71 -148t-124 -79t-187 -23q-150 0 -235 43t-126 148t-41 292q0 138 21 227t71.5 142t123.5 73.5t186 20.5zM457 735q55 0 80.5 19t37 73t11.5 170 q0 112 -11.5 163.5t-36.5 68t-81 16.5q-55 0 -80 -16t-37 -68t-12 -164q0 -115 12 -170t37.5 -73.5t79.5 -18.5zM1606 918q114 0 187 -20.5t123.5 -73.5t71.5 -142.5t21 -228.5q0 -186 -40.5 -290.5t-126 -148t-236.5 -43.5t-236 43.5t-125.5 148t-40.5 290.5 q0 139 21 228.5t71 142.5t123 73.5t187 20.5zM1606 190q55 0 80 19t36 73.5t11 170.5q0 112 -11 163t-35.5 67.5t-80.5 16.5q-55 0 -80 -16.5t-37 -68t-12 -162.5q0 -115 12 -170t37.5 -74t79.5 -19zM2464 918q114 0 187 -20.5t123.5 -73.5t71.5 -142.5t21 -228.5 q0 -186 -40.5 -290.5t-126 -148t-236.5 -43.5t-236 43.5t-125.5 148t-40.5 290.5q0 139 21 228.5t71 142.5t123 73.5t187 20.5zM2464 190q55 0 80 19t36 73.5t11 170.5q0 112 -11 163t-35.5 67.5t-80.5 16.5q-55 0 -80 -16.5t-37 -68t-12 -162.5q0 -115 12 -170t37.5 -74 t79.5 -19z" />
<glyph unicode="&#x2039;" horiz-adv-x="829" d="M782 1057l-319 -400l319 -407l-176 -184l-559 585l555 586z" />
<glyph unicode="&#x203a;" horiz-adv-x="829" d="M49 248l320 399l-320 408l176 184l557 -588l-555 -583z" />
<glyph unicode="&#x2044;" horiz-adv-x="1280" d="M977 1427h287l-942 -1427h-287z" />
<glyph unicode="&#x205f;" horiz-adv-x="460" />
<glyph unicode="&#x20a3;" horiz-adv-x="1177" d="M96 195v217h72v1015h1040v-288h-710v-332h430v-283h-430v-112h178v-217h-178v-195h-330v195h-72z" />
<glyph unicode="&#x20ac;" horiz-adv-x="1204" d="M100 727q0 146 18 257.5t56 193t91.5 136t131.5 87.5t169 47t210 14q101 0 217.5 -14t196.5 -37l-64 -291q-109 39 -280 39q-160 0 -240 -31.5t-114 -130.5h434v-202h-473v-72v-70h473v-200h-434q35 -106 115 -141.5t239 -35.5q68 0 148 11t132 28l64 -297 q-180 -47 -414 -47q-142 0 -247 23t-188.5 75.5t-135 140t-78.5 215.5t-27 302z" />
<glyph unicode="&#x2116;" horiz-adv-x="2482" d="M1462 1427v-1427h-409q-242 448 -561 975v-975h-324v1427h430q281 -460 537 -940v940h327zM1624 188v240h723v-240h-723zM1985 1462q154 0 239 -38.5t125.5 -135t40.5 -274.5q0 -136 -21 -224t-70.5 -142.5t-124.5 -76.5t-189 -22q-153 0 -239.5 42t-126.5 142.5 t-40 280.5q0 134 21 219.5t71.5 137t124.5 71.5t189 20zM1985 768q58 0 83.5 17.5t36.5 67.5t11 161q0 107 -11 154t-36 62t-84 15q-45 0 -68 -6t-40 -31.5t-21.5 -69t-4.5 -124.5q0 -111 11 -161t37.5 -67.5t85.5 -17.5z" />
<glyph unicode="&#x2122;" horiz-adv-x="1787" d="M465 682h-217v555h-240v190h697v-190h-240v-555zM1053 1427l186 -444l178 444h262v-745h-206v457l-175 -414h-149l-162 414v-457h-207v745h273z" />
<glyph unicode="&#x212e;" horiz-adv-x="1476" d="M1395 584h-940q5 -99 25.5 -160t66 -95t105.5 -45.5t159 -11.5q72 0 186 13.5t164 29.5l64 -297q-193 -47 -414 -47q-118 0 -212.5 15.5t-176 51t-140.5 93.5t-101 141.5t-62.5 197.5t-20.5 259q0 172 29.5 299t82.5 209.5t136 133t181 71t227 20.5q332 0 487.5 -187 t155.5 -601q0 -14 -1 -44t-1 -46zM754 1159q-53 0 -89 -3.5t-70.5 -14t-56.5 -29.5t-40 -49.5t-27.5 -74t-13.5 -103.5h585q-5 88 -22.5 142t-55 83.5t-85 39t-125.5 9.5z" />
<glyph unicode="&#x2190;" horiz-adv-x="1585" d="M821 -6l-796 747l796 748l228 -223l-406 -375h918v-299h-918l406 -373z" />
<glyph unicode="&#x2191;" horiz-adv-x="1593" d="M49 711l748 796l747 -794l-223 -228l-375 406v-918h-299v918l-375 -406z" />
<glyph unicode="&#x2192;" horiz-adv-x="1585" d="M764 1487l797 -746l-797 -747l-227 223l405 373h-917v299h917l-405 375z" />
<glyph unicode="&#x2193;" horiz-adv-x="1593" d="M1544 770l-747 -797l-748 797l223 227l375 -407v917h299v-917l373 407z" />
<glyph unicode="&#x2196;" horiz-adv-x="1396" d="M172 199l-33 1089l1090 -33l4 -319l-551 20l649 -647l-213 -213l-647 649l23 -550z" />
<glyph unicode="&#x2197;" horiz-adv-x="1394" d="M178 1253l1090 35l-33 -1091l-320 -4l21 550l-647 -649l-211 215l649 647l-553 -22z" />
<glyph unicode="&#x2198;" horiz-adv-x="1394" d="M1268 92l-1090 37l-4 320l553 -23l-649 647l211 213l647 -649l-21 551l320 -2z" />
<glyph unicode="&#x2199;" horiz-adv-x="1396" d="M139 96l33 1092l322 2l-23 -551l647 649l213 -211l-649 -649l551 21l-4 -320z" />
<glyph unicode="&#x2202;" d="M629 891q60 0 127 -6q-110 217 -424 542h401q109 -110 189.5 -214t146 -224t99.5 -253.5t34 -278.5q0 -98 -9.5 -168t-34.5 -127t-65 -93t-103.5 -60t-146.5 -34t-198 -10q-158 0 -260 23.5t-168.5 81t-93.5 148.5t-27 233q0 166 48 259.5t163 137t322 43.5zM850 487 q0 68 -10 117q-73 8 -168 8q-78 0 -121 -6t-69.5 -26.5t-34 -51.5t-7.5 -88q0 -101 40.5 -137.5t164.5 -36.5q66 0 102.5 7.5t61.5 32t33 66t8 115.5z" />
<glyph unicode="&#x220f;" horiz-adv-x="1531" d="M498 1122v-1122h-330v1427h1196v-1427h-330v1122h-536z" />
<glyph unicode="&#x2211;" horiz-adv-x="1288" d="M852 707q-180 -278 -289 -420h694v-287h-1253q95 136 459 713q-278 435 -428 714h1206v-288h-659q172 -278 270 -432z" />
<glyph unicode="&#x2212;" horiz-adv-x="1153" d="M74 594v301h1003v-301h-1003z" />
<glyph unicode="&#x221a;" horiz-adv-x="1222" d="M0 1049h377q121 -322 229 -730q81 231 195.5 588.5t154.5 519.5h314q-76 -259 -236 -721.5t-260 -705.5h-375q-119 418 -231 735h-168v314z" />
<glyph unicode="&#x221e;" horiz-adv-x="1585" d="M670 719q0 89 -38.5 127.5t-133.5 38.5t-127.5 -36.5t-32.5 -129.5t32.5 -129.5t127.5 -36.5t133.5 38.5t38.5 127.5zM793 528q-8 -82 -35 -135.5t-74.5 -82t-104 -39.5t-139.5 -11q-107 0 -175.5 19t-118.5 69.5t-71.5 140.5t-21.5 230t21.5 230t71.5 140.5t118.5 69.5 t175.5 19q83 0 139.5 -10.5t104 -39t74.5 -82.5t35 -137q7 66 26.5 114t48 78t72 47t91.5 23.5t114 6.5q107 0 175.5 -19t118.5 -69.5t71.5 -140t21.5 -228.5q0 -140 -21.5 -230t-71.5 -141t-118.5 -70.5t-175.5 -19.5q-83 0 -139.5 11t-104 39.5t-74 82t-34.5 135.5z M915 719q0 -89 38.5 -127.5t133.5 -38.5t127.5 36.5t32.5 129.5q0 94 -32.5 130t-127.5 36t-133.5 -38.5t-38.5 -127.5z" />
<glyph unicode="&#x222b;" horiz-adv-x="679" d="M815 1194q-89 29 -199 29q-78 0 -113.5 -30.5t-35.5 -111.5v-1095q-1 -91 -26.5 -162.5t-67 -115.5t-99 -73t-117.5 -40t-128 -11q-52 0 -101 6q-136 10 -235 45q15 57 55 232q113 -37 244 -37q14 0 22 4q138 9 138 152q0 185 1 557t1 559q0 70 16 123q15 77 51 130.5 t89.5 81.5t111.5 40t131 12q15 0 31 -1t36 -2.5t31 -2.5q150 -14 232 -45q-9 -30 -31.5 -114t-36.5 -130z" />
<glyph unicode="&#x2248;" horiz-adv-x="1153" d="M913 662l197 -158q-40 -107 -128 -178.5t-208 -71.5q-58 0 -120 27t-106.5 59t-98.5 59t-97 27q-39 0 -69 -25.5t-58 -91.5l-178 174q58 99 129 154t168 55q55 0 108.5 -17.5t96 -42t81.5 -49t78 -42t72 -17.5q46 0 75 29.5t58 108.5zM913 1124l197 -157 q-40 -106 -128 -177t-208 -71q-58 0 -120 27t-106.5 59t-98.5 59t-97 27q-39 0 -69 -26.5t-58 -92.5l-178 174q58 99 129 154t168 55q66 0 133.5 -26t113 -57t97.5 -57t92 -26q47 0 75.5 28.5t57.5 106.5z" />
<glyph unicode="&#x2260;" horiz-adv-x="1153" d="M739 1366h303l-86 -164h121v-301h-272l-158 -311h430v-301h-579l-90 -170h-302l89 170h-121v301h270l158 311h-428v301h579z" />
<glyph unicode="&#x2264;" horiz-adv-x="1153" d="M74 16v301h1003v-301h-1003zM1020 1282l-488 -362l488 -367l-160 -203l-741 502v131l739 498z" />
<glyph unicode="&#x2265;" horiz-adv-x="1153" d="M1079 317v-301h-1003v301h1003zM623 920l-490 362l162 199l739 -498v-131l-741 -502l-160 203z" />
<glyph unicode="&#x25ca;" horiz-adv-x="1327" d="M1303 528q-242 -538 -369 -897h-510q-209 432 -395 897q190 479 395 902h510q129 -366 369 -902zM956 530q-15 37 -129 313t-139 353h-53q-190 -436 -279 -666q86 -221 279 -665h53q25 77 139 351.5t129 313.5z" />
<glyph unicode="&#x25fc;" horiz-adv-x="1044" d="M0 1044h1044v-1044h-1044v1044z" />
<glyph unicode="&#xe01e;" horiz-adv-x="657" d="M655 1479h267l-119 -394h-187z" />
<glyph unicode="&#xf6c3;" horiz-adv-x="534" d="M596 -104l-227 -342h-246l147 342h326z" />
<glyph unicode="&#xf6c9;" horiz-adv-x="899" d="M473 1530h-266l260 264h326z" />
<glyph unicode="&#xf6ca;" horiz-adv-x="1325" d="M586 1794l137 -147l133 147h266l-250 -264h-301l-258 264h273z" />
<glyph unicode="&#xf6cb;" horiz-adv-x="978" d="M297 1786q83 0 112 -23.5t29 -105.5q0 -91 -29 -118.5t-112 -27.5q-82 0 -110.5 27.5t-28.5 118.5q0 82 28 105.5t111 23.5zM760 1786q82 0 110.5 -24t28.5 -105q0 -91 -29 -118.5t-110 -27.5q-84 0 -113 27.5t-29 118.5q0 82 28.5 105.5t113.5 23.5z" />
<glyph unicode="&#xf6ce;" horiz-adv-x="899" d="M838 1530h-271l-321 264h327z" />
<glyph unicode="&#xf6cf;" horiz-adv-x="1253" d="M528 1530h-209l193 264h258zM893 1530h-209l190 264h261z" />
<glyph unicode="&#xf6d0;" horiz-adv-x="655" d="M238 1526v219h598v-219h-598z" />
<glyph unicode="&#xf6f9;" horiz-adv-x="917" d="M451 498v-219h473v-279h-789v242l-80 -68v256l80 68v551h316v-291l182 155v-260z" />
<glyph unicode="&#xf6fa;" horiz-adv-x="1665" d="M1595 1049v-250h-522q29 -66 37 -144h352v-235h-352q-6 -106 -41 -172h526v-248h-761q-96 -29 -232 -29q-131 0 -222.5 27t-157.5 91t-97 172.5t-31 268.5q0 159 31.5 266t98 168.5t157 87t221.5 25.5q143 0 238 -28h755zM602 831q-60 0 -92.5 -9t-57 -42t-32.5 -92.5 t-8 -163.5q0 -133 18 -198t56 -87t116 -22q80 0 118.5 22t56.5 87t18 198q0 84 -6 137.5t-18 88.5t-37 52t-54 23t-78 6z" />
<glyph unicode="&#xf6fd;" horiz-adv-x="991" d="M899 1020l-61 -234q-160 45 -310 45q-82 0 -114.5 -16.5t-32.5 -73.5q0 -42 35 -58.5t155 -31.5q190 -24 271.5 -93.5t81.5 -225.5q0 -83 -24 -146.5t-65 -104t-101.5 -65.5t-128 -35t-150.5 -10q-88 0 -195.5 16t-177.5 42l61 237q146 -43 297 -43q101 0 141 17t40 75 q0 30 -16 47.5t-61 29.5t-132 20t-146 25.5t-103.5 51.5t-65.5 91t-21 139q0 83 23.5 146.5t64 103t101 64.5t127 34.5t149.5 9.5q86 0 186 -15.5t172 -41.5zM383 1427q90 -98 135 -145q20 22 63.5 70.5t67.5 74.5h266q-42 -44 -124.5 -132t-124.5 -132h-301l-259 264h277z " />
<glyph unicode="&#xf6ff;" horiz-adv-x="1019" d="M55 1049h938v-52q-95 -158 -239.5 -373.5t-247.5 -353.5h463v-270h-949v51q130 173 279.5 394t212.5 333h-457v271zM389 1427q90 -98 135 -145q20 22 63.5 70.5t67.5 74.5h267q-42 -44 -125 -132t-125 -132h-301l-258 264h276z" />
<glyph unicode="&#xf721;" horiz-adv-x="667" d="M158 1049h348l-64 -588h-227zM332 328q112 0 151 -31t39 -135q0 -114 -39.5 -149.5t-150.5 -35.5q-108 0 -147.5 36t-39.5 149q0 103 39 134.5t148 31.5z" />
<glyph unicode="&#xf726;" horiz-adv-x="1480" d="M1444 0h-344q-16 22 -43 58l-33 44q-241 -131 -485 -131q-145 0 -233.5 13t-144.5 49t-77 92t-21 149q0 263 291 277q-73 5 -119.5 22.5t-70.5 51.5t-32.5 74.5t-8.5 103.5q0 67 11 110t38.5 77t81 51.5t132 26.5t198.5 9q119 0 197.5 -9t131.5 -26.5t80.5 -51.5t38 -77 t10.5 -110q0 -120 -58 -181t-202 -73q112 -10 248 -115q68 87 78 178h342q-14 -186 -203 -360q104 -110 197 -252zM551 205q83 0 166.5 26.5t136.5 69.5q-138 127 -301 127q-78 0 -118 -24.5t-40 -88.5q0 -65 34 -87.5t122 -22.5zM586 664q82 0 117.5 20t35.5 74 q0 53 -30.5 72.5t-118.5 19.5q-90 0 -122 -19.5t-32 -72.5q0 -54 33 -74t117 -20z" />
<glyph unicode="&#xf730;" d="M643 -29q-93 0 -165.5 16.5t-132 56.5t-98.5 103.5t-60 159.5t-21 223t21.5 221.5t60 156.5t99 100t132 53.5t164.5 15.5q120 0 204.5 -25.5t147.5 -87t94 -169t31 -265.5q0 -159 -30.5 -268.5t-93.5 -173t-148 -90.5t-205 -27zM643 831q-38 0 -62 -6t-44.5 -23 t-31 -51.5t-16.5 -89t-6 -137.5q0 -131 16.5 -197.5t48.5 -88t95 -21.5q66 0 97.5 22t46 86.5t14.5 198.5q0 137 -15.5 202.5t-46 85t-96.5 19.5z" />
<glyph unicode="&#xf731;" d="M934 0h-316v676l-319 -131l-88 262l723 270v-1077z" />
<glyph unicode="&#xf732;" d="M240 745l-72 283q82 20 217 34.5t248 14.5q182 0 283.5 -32.5t143.5 -101.5t42 -191q0 -98 -40 -177.5t-148 -162.5t-293 -164h509v-248h-962v225q269 150 395.5 232.5t163.5 127.5t37 97q0 65 -40 91t-155 26q-70 0 -171.5 -16.5t-157.5 -37.5z" />
<glyph unicode="&#xf733;" d="M381 217v285h213q104 0 143 27.5t39 109.5q0 56 -21 84t-80 41.5t-175 13.5q-78 0 -181.5 -11t-160.5 -28l-62 289q234 49 482 49q212 0 330.5 -36.5t169 -115.5t50.5 -218q0 -79 -12.5 -134t-45.5 -100.5t-94.5 -71t-154.5 -32.5q99 -4 166 -30t103.5 -75t51.5 -111.5 t15 -150.5q0 -228 -133 -320t-449 -92q-114 0 -250 14t-235 36l60 292q59 -17 162 -27.5t184 -10.5q128 0 191.5 15t86.5 47.5t23 98.5q0 94 -43.5 128t-151.5 34h-221z" />
<glyph unicode="&#xf734;" d="M731 0h-700v106q364 628 594 943h419v-793h185v-256h-185v-393h-313v393zM731 256v500q-126 -170 -309 -500h309z" />
<glyph unicode="&#xf735;" d="M182 1049h924v-289h-612v-246q67 6 139 6q205 0 319 -45t160.5 -139.5t46.5 -261.5q0 -143 -28.5 -235.5t-97 -150t-172.5 -81t-265 -23.5q-107 0 -251.5 14t-227.5 35l61 293q53 -18 155.5 -28.5t184.5 -10.5q91 0 143.5 7t85 27.5t42.5 52t10 87.5q0 76 -19 111.5 t-77 51.5t-183 16q-187 0 -338 -23v832z" />
<glyph unicode="&#xf736;" d="M1159 1409l-63 -291q-118 41 -344 41q-75 0 -123 -10t-88.5 -38.5t-60 -84t-23.5 -143.5q109 16 219 16q206 0 321 -45t163 -139.5t48 -261.5q0 -143 -27.5 -234t-94 -147.5t-168 -78.5t-259.5 -22q-160 0 -263 35.5t-171 123.5t-96.5 231t-28.5 364q0 148 14 257.5 t47.5 193t82.5 137.5t124 87.5t167 47.5t217 14q98 0 211.5 -15t195.5 -38zM659 274q123 0 164 36.5t41 133.5q0 102 -41 138t-149 36q-115 0 -223 -12q2 -87 11.5 -145.5t24 -96t41 -57t56 -26.5t75.5 -7z" />
<glyph unicode="&#xf737;" d="M1245 1049v-97q-134 -216 -334.5 -640.5t-292.5 -704.5h-372q111 306 276 650.5t285 502.5h-698v289h1136z" />
<glyph unicode="&#xf738;" d="M645 240q119 0 162 38t43 140q0 107 -44.5 151.5t-160.5 44.5q-119 0 -164 -44.5t-45 -151.5q0 -102 44 -140t165 -38zM645 870q100 0 144.5 37t44.5 127q0 91 -42 122.5t-147 31.5q-108 0 -150 -31.5t-42 -122.5t44.5 -127.5t147.5 -36.5zM645 -29h-2 q-210 0 -329.5 41.5t-170.5 129.5t-51 241q0 89 14.5 151t50.5 111.5t102.5 76t166.5 30.5q-94 7 -155.5 32.5t-94 71.5t-45 101t-12.5 135q0 67 9 117t31.5 93t61 72t96.5 49.5t138.5 29.5t187.5 9t187.5 -9t138.5 -29.5t96.5 -49.5t61 -72t31.5 -93t9 -117 q0 -80 -12.5 -135t-45 -101t-94 -71.5t-155.5 -32.5q100 -4 166.5 -30.5t102.5 -76t50.5 -111.5t14.5 -151q0 -153 -50.5 -241t-169.5 -129.5t-329 -41.5z" />
<glyph unicode="&#xf739;" d="M324 -393q323 330 432 551q-38 -6 -127 -6q-206 0 -320.5 43.5t-162.5 137t-48 259.5q0 142 27 233t93.5 148.5t168.5 80.5t260 23q114 0 197 -10t146 -34t103 -59.5t65 -93t34.5 -127t9.5 -167.5q0 -144 -35 -280t-102 -257.5t-148.5 -226.5t-189.5 -215h-403zM672 430 q95 0 168 8q10 49 10 117q0 97 -17.5 143t-58 62t-127.5 16q-125 0 -166 -36.5t-41 -137.5q0 -57 8 -88t34.5 -51t69.5 -26.5t120 -6.5z" />
<glyph unicode="&#xf73f;" horiz-adv-x="1005" d="M473 334q112 0 151.5 -31t39.5 -135q0 -59 -9 -94t-33.5 -54.5t-57.5 -25.5t-91 -6q-56 0 -88.5 6t-56 25.5t-32.5 54.5t-9 94q0 103 38.5 134.5t147.5 31.5zM621 444h-297q25 20 71 56t64.5 51.5t47.5 43t40.5 46.5t21 46t9.5 56q0 48 -31.5 68t-126.5 20 q-170 0 -311 -40l-41 258q232 41 383 41q259 0 369 -60t110 -207q0 -117 -69 -202t-240 -177z" />
<glyph unicode="&#xf761;" horiz-adv-x="1181" d="M866 0q-28 60 -84 221h-415q-43 -142 -64 -221h-319q60 210 167.5 511.5t202.5 535.5h473q75 -255 177.5 -551.5t185.5 -495.5h-324zM598 801h-41q-49 -126 -121 -352h269q-42 128 -107 352z" />
<glyph unicode="&#xf762;" horiz-adv-x="1216" d="M451 233h262q45 0 65.5 20.5t20.5 72.5q0 56 -23 79t-71 23h-254v-195zM451 815v-168h251q40 0 59 19.5t19 64.5q0 48 -18.5 66t-59.5 18h-251zM852 551q157 -6 214.5 -70.5t57.5 -197.5q0 -152 -80.5 -217.5t-234.5 -65.5h-674v1049h668q172 0 236.5 -60.5t64.5 -191.5 q0 -59 -10 -99t-37 -73t-77.5 -51t-127.5 -23z" />
<glyph unicode="&#xf763;" horiz-adv-x="966" d="M881 289l65 -264q-60 -25 -153.5 -39.5t-176.5 -14.5q-97 0 -174.5 16.5t-144 56.5t-110.5 103.5t-68.5 159.5t-24.5 223q0 156 37 264.5t108.5 169.5t162.5 87t214 26q86 0 178.5 -12t151.5 -33l-65 -266q-110 43 -238 43q-52 0 -84 -5t-63 -21t-47.5 -47t-26.5 -83 t-10 -129q0 -91 13.5 -147.5t45 -86t70.5 -39t102 -9.5q127 0 238 47z" />
<glyph unicode="&#xf764;" horiz-adv-x="1224" d="M135 1049h488q105 0 183 -15t141 -51t102.5 -95.5t60 -148.5t20.5 -211q0 -152 -30.5 -254.5t-96 -162.5t-157 -85.5t-223.5 -25.5h-488v1049zM586 815h-135v-582h135q48 0 81 6.5t62.5 24t46 50t26 84.5t9.5 126q0 95 -13 154t-44 88.5t-68.5 39t-99.5 9.5z" />
<glyph unicode="&#xf765;" horiz-adv-x="1048" d="M979 1049v-250h-528v-144h395v-235h-395v-172h528v-248h-844v1049h844z" />
<glyph unicode="&#xf766;" horiz-adv-x="991" d="M135 0v1047h844v-248h-530v-197h395v-240h-395v-362h-314z" />
<glyph unicode="&#xf767;" horiz-adv-x="1183" d="M1057 631v-588q-220 -72 -451 -72q-120 0 -210 27.5t-160 90t-106 173.5t-36 268q0 125 27 220.5t74 156.5t117 100t148.5 54.5t176.5 15.5q89 0 197.5 -12.5t169.5 -32.5l-80 -254q-114 43 -275 43q-63 0 -103 -10.5t-72.5 -41t-47 -90.5t-14.5 -155q0 -90 14.5 -149.5 t44.5 -90.5t68 -43t94 -12q85 0 151 27v133h-188v242h461z" />
<glyph unicode="&#xf768;" horiz-adv-x="1234" d="M784 412h-335v-412h-314v1047h314v-367h335v367h314v-1047h-314v412z" />
<glyph unicode="&#xf769;" horiz-adv-x="581" d="M451 1049v-1049h-316v1049h316z" />
<glyph unicode="&#xf76a;" horiz-adv-x="907" d="M774 1049v-672q0 -92 -25 -164t-66 -117t-99 -73.5t-118.5 -40t-129.5 -11.5q-187 0 -336 49l55 265q109 -39 242 -39q162 0 162 157v646h315z" />
<glyph unicode="&#xf76b;" horiz-adv-x="1204" d="M451 1049v-1049h-316v1049h316zM1206 0h-364q-327 521 -391 555q90 83 362 494h363q-123 -189 -220 -314t-141 -162q42 -28 148 -179.5t243 -393.5z" />
<glyph unicode="&#xf76c;" horiz-adv-x="917" d="M451 1049v-770h473v-279h-789v1049h316z" />
<glyph unicode="&#xf76d;" horiz-adv-x="1613" d="M821 502q122 316 232 547h424v-1049h-310v682q-139 -303 -254 -627h-225q-125 368 -242 627v-682h-311v1049h443q77 -152 243 -547z" />
<glyph unicode="&#xf76e;" horiz-adv-x="1255" d="M805 498v549h313v-1047h-313q-205 385 -356 565v-565h-314v1047h307q230 -299 363 -549z" />
<glyph unicode="&#xf76f;" horiz-adv-x="1208" d="M602 -29q-131 0 -222.5 27t-157.5 91t-97 172.5t-31 268.5q0 159 31.5 266t98 168.5t157 87t221.5 25.5q133 0 224.5 -25.5t158 -87t98 -168.5t31.5 -266q0 -160 -31 -268.5t-97.5 -172.5t-158.5 -91t-225 -27zM602 831q-60 0 -92.5 -9t-57 -42t-32.5 -92.5t-8 -163.5 q0 -133 18 -198t56 -87t116 -22q80 0 118.5 22t56.5 87t18 198q0 84 -6 137.5t-18 88.5t-37 52t-54 23t-78 6z" />
<glyph unicode="&#xf770;" horiz-adv-x="1169" d="M700 813h-251v-229h251q84 0 84 112q0 57 -22 87t-62 30zM807 360h-358v-360h-314v1047h641q176 0 255 -86t79 -259q0 -158 -72.5 -250t-230.5 -92z" />
<glyph unicode="&#xf771;" horiz-adv-x="1208" d="M571 -29q-91 0 -162.5 16.5t-131.5 56.5t-99.5 103.5t-61.5 159.5t-22 223q0 159 31.5 266t98 168.5t157 87t221.5 25.5q133 0 224.5 -25.5t158 -87t98 -168.5t31.5 -266q0 -393 -225 -503q70 -21 149 -107t215 -293h-340q-208 344 -342 344zM602 831q-60 0 -92.5 -9 t-57 -42t-32.5 -92.5t-8 -163.5q0 -133 18 -198t56 -87t116 -22q80 0 118.5 22t56.5 87t18 198q0 84 -6 137.5t-18 88.5t-37 52t-54 23t-78 6z" />
<glyph unicode="&#xf772;" horiz-adv-x="1212" d="M801 1047q91 0 155 -23.5t99 -67t50 -96.5t15 -121q0 -282 -278 -297q61 -16 104 -50.5t103 -123t157 -268.5h-360q-70 137 -120.5 212.5t-84.5 100.5t-72 25h-120v-338h-314v1047h666zM449 582h247q17 0 25 6q76 9 76 104q0 22 -6 37q-14 72 -91 72h-251v-219z" />
<glyph unicode="&#xf773;" horiz-adv-x="991" d="M899 1020l-61 -234q-160 45 -310 45q-82 0 -114.5 -16.5t-32.5 -73.5q0 -42 35 -58.5t155 -31.5q190 -24 271.5 -93.5t81.5 -225.5q0 -83 -24 -146.5t-65 -104t-101.5 -65.5t-128 -35t-150.5 -10q-88 0 -195.5 16t-177.5 42l61 237q146 -43 297 -43q101 0 141 17t40 75 q0 30 -16 47.5t-61 29.5t-132 20t-146 25.5t-103.5 51.5t-65.5 91t-21 139q0 83 23.5 146.5t64 103t101 64.5t127 34.5t149.5 9.5q86 0 186 -15.5t172 -41.5z" />
<glyph unicode="&#xf774;" horiz-adv-x="997" d="M655 778v-778h-313v778h-338v271h987v-271h-336z" />
<glyph unicode="&#xf775;" horiz-adv-x="1212" d="M608 250q97 0 130.5 41t33.5 141v617h313v-600q0 -267 -106.5 -372.5t-370.5 -105.5q-266 0 -373.5 105.5t-107.5 372.5v600h311v-617q0 -99 36 -140.5t134 -41.5z" />
<glyph unicode="&#xf776;" horiz-adv-x="1083" d="M551 319q147 409 225 728h314q-144 -489 -369 -1047h-377q-154 556 -342 1047h322q114 -300 227 -728z" />
<glyph unicode="&#xf777;" horiz-adv-x="1716" d="M856 608q-56 -263 -170 -608h-377q-140 517 -334 1049h322q126 -339 219 -721q45 135 108 357.5t97 363.5h285q44 -138 102 -354t92 -367q153 447 215 721h316q-173 -589 -361 -1049h-377q-72 358 -137 608z" />
<glyph unicode="&#xf778;" horiz-adv-x="1064" d="M1083 0h-346q-58 101 -188 287q-136 -186 -219 -287h-342q121 143 399 522q-227 321 -395 525h360q56 -70 205 -277q59 82 182 277h342q-111 -171 -356 -517q237 -338 358 -530z" />
<glyph unicode="&#xf779;" horiz-adv-x="1013" d="M524 723q112 142 221 326h338q-206 -326 -407 -580v-469h-314v469q-264 375 -432 580h357q106 -128 237 -326z" />
<glyph unicode="&#xf77a;" horiz-adv-x="1019" d="M55 1049h938v-52q-95 -158 -239.5 -373.5t-247.5 -353.5h463v-270h-949v51q130 173 279.5 394t212.5 333h-457v271z" />
<glyph unicode="&#xf7a1;" horiz-adv-x="667" d="M508 0h-348l63 588h228zM334 721q-111 0 -150 32t-39 136q0 59 9 94.5t32.5 55t57 26t90.5 6.5q109 0 147.5 -34.5t38.5 -147.5q0 -104 -39 -136t-147 -32z" />
<glyph unicode="&#xf7bf;" horiz-adv-x="1005" d="M526 731q-112 0 -151 31t-39 135q0 59 9 94t33 54.5t57 25.5t91 6q56 0 88.5 -6t56.5 -25.5t33 -54.5t9 -94q0 -103 -39 -134.5t-148 -31.5zM379 621h297q-25 -20 -71 -56t-64.5 -51.5t-47.5 -43t-40.5 -46.5t-21 -46t-9.5 -56q0 -48 32 -68.5t126 -20.5q167 0 311 41 l41 -258q-232 -41 -383 -41q-259 0 -369 60t-110 207q0 117 69 202t240 177z" />
<glyph unicode="&#xf7e0;" horiz-adv-x="1181" d="M866 0q-28 60 -84 221h-415q-43 -142 -64 -221h-319q60 210 167.5 511.5t202.5 535.5h473q75 -255 177.5 -551.5t185.5 -495.5h-324zM598 801h-41q-49 -126 -121 -352h269q-42 128 -107 352zM823 1163h-264l-309 264h323z" />
<glyph unicode="&#xf7e1;" horiz-adv-x="1181" d="M866 0q-28 60 -84 221h-415q-43 -142 -64 -221h-319q60 210 167.5 511.5t202.5 535.5h473q75 -255 177.5 -551.5t185.5 -495.5h-324zM598 801h-41q-49 -126 -121 -352h269q-42 128 -107 352zM614 1163h-266l252 264h322z" />
<glyph unicode="&#xf7e2;" horiz-adv-x="1181" d="M866 0q-28 60 -84 221h-415q-43 -142 -64 -221h-319q60 210 167.5 511.5t202.5 535.5h473q75 -255 177.5 -551.5t185.5 -495.5h-324zM598 801h-41q-49 -126 -121 -352h269q-42 128 -107 352zM715 1163q-23 23 -135 146q-23 -25 -66.5 -74.5t-64.5 -71.5h-269 q42 44 125 132t125 132h301l258 -264h-274z" />
<glyph unicode="&#xf7e3;" horiz-adv-x="1181" d="M866 0q-28 60 -84 221h-415q-43 -142 -64 -221h-319q60 210 167.5 511.5t202.5 535.5h473q75 -255 177.5 -551.5t185.5 -495.5h-324zM598 801h-41q-49 -126 -121 -352h269q-42 128 -107 352zM823 1450l148 -119q-32 -85 -96.5 -138.5t-157.5 -53.5q-55 0 -106.5 24 t-97 48t-85.5 24q-30 0 -52.5 -21t-45.5 -73l-135 133q92 164 227 164q51 0 97.5 -15t74 -32.5t62 -32.5t65.5 -15q36 0 57.5 22.5t44.5 84.5z" />
<glyph unicode="&#xf7e4;" horiz-adv-x="1181" d="M866 0q-28 60 -84 221h-415q-43 -142 -64 -221h-319q60 210 167.5 511.5t202.5 535.5h473q75 -255 177.5 -551.5t185.5 -495.5h-324zM598 801h-41q-49 -126 -121 -352h269q-42 128 -107 352zM352 1421q83 0 112.5 -24.5t29.5 -106.5q0 -89 -29.5 -117t-112.5 -28 q-81 0 -110 28t-29 117q0 82 29 106.5t110 24.5zM815 1421q81 0 110 -24.5t29 -106.5q0 -89 -29 -117t-110 -28q-84 0 -112.5 27.5t-28.5 117.5q0 82 28 106.5t113 24.5z" />
<glyph unicode="&#xf7e5;" horiz-adv-x="1181" d="M866 0q-28 60 -84 221h-415q-43 -142 -64 -221h-319q60 210 167.5 511.5t202.5 535.5h473q75 -255 177.5 -551.5t185.5 -495.5h-324zM598 801h-41q-49 -126 -121 -352h269q-42 128 -107 352zM578 1520q133 0 192 -45t59 -160t-59 -160t-192 -45q-135 0 -195.5 45 t-60.5 160q0 116 58.5 160.5t197.5 44.5zM578 1393q-58 0 -77.5 -17.5t-19.5 -62.5q0 -44 19.5 -61t77.5 -17q56 0 75 17.5t19 60.5q0 46 -18.5 63t-75.5 17z" />
<glyph unicode="&#xf7e6;" horiz-adv-x="1703" d="M1499 655v-235h-395v-172h530v-248h-843v229h-447q-33 -51 -84.5 -136t-56.5 -93h-332q127 207 334.5 508t384.5 539h1044v-248h-530v-144h395zM741 825q-112 -155 -249 -368h299v368h-50z" />
<glyph unicode="&#xf7e7;" horiz-adv-x="966" d="M881 289l65 -264q-60 -25 -153.5 -39.5t-176.5 -14.5q-97 0 -174.5 16.5t-144 56.5t-110.5 103.5t-68.5 159.5t-24.5 223q0 156 37 264.5t108.5 169.5t162.5 87t214 26q86 0 178.5 -12t151.5 -33l-65 -266q-110 43 -238 43q-52 0 -84 -5t-63 -21t-47.5 -47t-26.5 -83 t-10 -129q0 -91 13.5 -147.5t45 -86t70.5 -39t102 -9.5q127 0 238 47zM526 0h117v-80q110 0 162.5 -37.5t52.5 -124.5q0 -99 -65 -136.5t-228 -37.5q-118 0 -192 27l49 123q43 -19 127 -19q39 0 54 10.5t15 36.5q0 32 -36.5 42t-128.5 3z" />
<glyph unicode="&#xf7e8;" horiz-adv-x="1048" d="M979 1049v-250h-528v-144h395v-235h-395v-172h528v-248h-844v1049h844zM811 1163h-264l-309 264h323z" />
<glyph unicode="&#xf7e9;" horiz-adv-x="1048" d="M979 1049v-250h-528v-144h395v-235h-395v-172h528v-248h-844v1049h844zM610 1163h-266l252 264h322z" />
<glyph unicode="&#xf7ea;" horiz-adv-x="1048" d="M979 1049v-250h-528v-144h395v-235h-395v-172h528v-248h-844v1049h844zM715 1163q-23 23 -135 146q-23 -25 -66.5 -74.5t-64.5 -71.5h-269q42 44 125 132t125 132h301l258 -264h-274z" />
<glyph unicode="&#xf7eb;" horiz-adv-x="1048" d="M979 1049v-250h-528v-144h395v-235h-395v-172h528v-248h-844v1049h844zM348 1421q83 0 112 -24.5t29 -106.5q0 -89 -29.5 -117t-111.5 -28q-81 0 -110 28t-29 117q0 82 29 106.5t110 24.5zM811 1421q81 0 110 -24.5t29 -106.5q0 -89 -29 -117t-110 -28q-84 0 -112.5 27.5 t-28.5 117.5q0 82 28 106.5t113 24.5z" />
<glyph unicode="&#xf7ec;" horiz-adv-x="581" d="M451 1049v-1049h-316v1049h316zM492 1163h-265l-309 264h324z" />
<glyph unicode="&#xf7ed;" horiz-adv-x="581" d="M451 1049v-1049h-316v1049h316zM348 1163h-266l252 264h321z" />
<glyph unicode="&#xf7ee;" horiz-adv-x="581" d="M451 1049v-1049h-316v1049h316zM424 1163q-23 23 -135 146q-23 -25 -66.5 -74.5t-64.5 -71.5h-269q42 44 125 132t125 132h301l258 -264h-274z" />
<glyph unicode="&#xf7ef;" horiz-adv-x="581" d="M451 1049v-1049h-316v1049h316zM63 1421q83 0 112.5 -24.5t29.5 -106.5q0 -89 -29.5 -117t-112.5 -28q-81 0 -110 28t-29 117q0 82 29 106.5t110 24.5zM526 1421q82 0 111 -24.5t29 -106.5q0 -89 -29.5 -117t-110.5 -28q-84 0 -112.5 27.5t-28.5 117.5q0 82 28 106.5 t113 24.5z" />
<glyph unicode="&#xf7f0;" horiz-adv-x="1224" d="M49 430v217h86v402h488q105 0 183 -15t141 -51t102.5 -95.5t60 -148.5t20.5 -211q0 -152 -30.5 -254.5t-96 -162.5t-157 -85.5t-223.5 -25.5h-488v430h-86zM586 815h-135v-168h141v-217h-141v-197h135q48 0 81 6.5t62.5 24t46 50t26 84.5t9.5 126q0 95 -13 154t-44 88.5 t-68.5 39t-99.5 9.5z" />
<glyph unicode="&#xf7f1;" horiz-adv-x="1255" d="M805 498v549h313v-1047h-313q-205 385 -356 565v-565h-314v1047h307q230 -299 363 -549zM883 1450l147 -119q-32 -85 -96.5 -138.5t-157.5 -53.5q-55 0 -106.5 24t-97 48t-85.5 24q-30 0 -52.5 -21t-45.5 -73l-135 133q92 164 227 164q51 0 97.5 -15t74 -32.5t62 -32.5 t65.5 -15q36 0 58 22.5t45 84.5z" />
<glyph unicode="&#xf7f2;" horiz-adv-x="1208" d="M602 -29q-131 0 -222.5 27t-157.5 91t-97 172.5t-31 268.5q0 159 31.5 266t98 168.5t157 87t221.5 25.5q133 0 224.5 -25.5t158 -87t98 -168.5t31.5 -266q0 -160 -31 -268.5t-97.5 -172.5t-158.5 -91t-225 -27zM602 831q-60 0 -92.5 -9t-57 -42t-32.5 -92.5t-8 -163.5 q0 -133 18 -198t56 -87t116 -22q80 0 118.5 22t56.5 87t18 198q0 84 -6 137.5t-18 88.5t-37 52t-54 23t-78 6zM823 1163h-264l-309 264h323z" />
<glyph unicode="&#xf7f3;" horiz-adv-x="1208" d="M602 -29q-131 0 -222.5 27t-157.5 91t-97 172.5t-31 268.5q0 159 31.5 266t98 168.5t157 87t221.5 25.5q133 0 224.5 -25.5t158 -87t98 -168.5t31.5 -266q0 -160 -31 -268.5t-97.5 -172.5t-158.5 -91t-225 -27zM602 831q-60 0 -92.5 -9t-57 -42t-32.5 -92.5t-8 -163.5 q0 -133 18 -198t56 -87t116 -22q80 0 118.5 22t56.5 87t18 198q0 84 -6 137.5t-18 88.5t-37 52t-54 23t-78 6zM651 1163h-266l252 264h321z" />
<glyph unicode="&#xf7f4;" horiz-adv-x="1208" d="M602 -29q-131 0 -222.5 27t-157.5 91t-97 172.5t-31 268.5q0 159 31.5 266t98 168.5t157 87t221.5 25.5q133 0 224.5 -25.5t158 -87t98 -168.5t31.5 -266q0 -160 -31 -268.5t-97.5 -172.5t-158.5 -91t-225 -27zM602 831q-60 0 -92.5 -9t-57 -42t-32.5 -92.5t-8 -163.5 q0 -133 18 -198t56 -87t116 -22q80 0 118.5 22t56.5 87t18 198q0 84 -6 137.5t-18 88.5t-37 52t-54 23t-78 6zM729 1163q-23 23 -135 146q-23 -25 -66.5 -74.5t-64.5 -71.5h-268q42 44 124.5 132t124.5 132h301l259 -264h-275z" />
<glyph unicode="&#xf7f5;" horiz-adv-x="1208" d="M602 -29q-131 0 -222.5 27t-157.5 91t-97 172.5t-31 268.5q0 159 31.5 266t98 168.5t157 87t221.5 25.5q133 0 224.5 -25.5t158 -87t98 -168.5t31.5 -266q0 -160 -31 -268.5t-97.5 -172.5t-158.5 -91t-225 -27zM602 831q-60 0 -92.5 -9t-57 -42t-32.5 -92.5t-8 -163.5 q0 -133 18 -198t56 -87t116 -22q80 0 118.5 22t56.5 87t18 198q0 84 -6 137.5t-18 88.5t-37 52t-54 23t-78 6zM842 1450l147 -119q-32 -85 -96.5 -138.5t-157.5 -53.5q-55 0 -106.5 24t-97 48t-85.5 24q-30 0 -52.5 -21t-45.5 -73l-135 133q92 164 227 164q51 0 97.5 -15 t74 -32.5t62 -32.5t65.5 -15q36 0 58 22.5t45 84.5z" />
<glyph unicode="&#xf7f6;" horiz-adv-x="1208" d="M602 -29q-131 0 -222.5 27t-157.5 91t-97 172.5t-31 268.5q0 159 31.5 266t98 168.5t157 87t221.5 25.5q133 0 224.5 -25.5t158 -87t98 -168.5t31.5 -266q0 -160 -31 -268.5t-97.5 -172.5t-158.5 -91t-225 -27zM602 831q-60 0 -92.5 -9t-57 -42t-32.5 -92.5t-8 -163.5 q0 -133 18 -198t56 -87t116 -22q80 0 118.5 22t56.5 87t18 198q0 84 -6 137.5t-18 88.5t-37 52t-54 23t-78 6zM371 1421q83 0 112 -24.5t29 -106.5q0 -89 -29.5 -117t-111.5 -28q-81 0 -110.5 28t-29.5 117q0 82 29 106.5t111 24.5zM834 1421q81 0 110 -24.5t29 -106.5 q0 -89 -29 -117t-110 -28q-84 0 -113 27.5t-29 117.5q0 82 28.5 106.5t113.5 24.5z" />
<glyph unicode="&#xf7f8;" horiz-adv-x="1208" d="M928 1047h278l-155 -175q63 -123 63 -344q0 -160 -31 -268.5t-97.5 -171.5t-158.5 -90t-225 -27q-180 0 -295 56l-24 -27h-279l154 174q-66 129 -66 354q0 127 21 221t61 157t103.5 101t142 54t182.5 16q193 0 301 -57zM602 831q-55 0 -87.5 -8t-58 -32.5t-36 -71.5 t-10.5 -123q0 -72 6 -133l301 346q-40 22 -115 22zM602 217q60 0 98.5 17.5t58.5 55.5t27 84.5t7 119.5q0 55 -2 84l-299 -342q37 -19 110 -19z" />
<glyph unicode="&#xf7f9;" horiz-adv-x="1212" d="M608 250q97 0 130.5 41t33.5 141v617h313v-600q0 -267 -106.5 -372.5t-370.5 -105.5q-266 0 -373.5 105.5t-107.5 372.5v600h311v-617q0 -99 36 -140.5t134 -41.5zM815 1163h-264l-309 264h323z" />
<glyph unicode="&#xf7fa;" horiz-adv-x="1212" d="M608 250q97 0 130.5 41t33.5 141v617h313v-600q0 -267 -106.5 -372.5t-370.5 -105.5q-266 0 -373.5 105.5t-107.5 372.5v600h311v-617q0 -99 36 -140.5t134 -41.5zM639 1163h-266l252 264h321z" />
<glyph unicode="&#xf7fb;" horiz-adv-x="1212" d="M608 250q97 0 130.5 41t33.5 141v617h313v-600q0 -267 -106.5 -372.5t-370.5 -105.5q-266 0 -373.5 105.5t-107.5 372.5v600h311v-617q0 -99 36 -140.5t134 -41.5zM737 1163q-23 23 -135 146q-23 -25 -66.5 -74.5t-64.5 -71.5h-268q42 44 125 132t125 132h301l258 -264 h-275z" />
<glyph unicode="&#xf7fc;" horiz-adv-x="1212" d="M608 250q97 0 130.5 41t33.5 141v617h313v-600q0 -267 -106.5 -372.5t-370.5 -105.5q-266 0 -373.5 105.5t-107.5 372.5v600h311v-617q0 -99 36 -140.5t134 -41.5zM377 1421q83 0 112 -24.5t29 -106.5q0 -89 -29.5 -117t-111.5 -28q-81 0 -110 28t-29 117q0 82 29 106.5 t110 24.5zM840 1421q81 0 110 -24.5t29 -106.5q0 -89 -29 -117t-110 -28q-84 0 -113 27.5t-29 117.5q0 82 28.5 106.5t113.5 24.5z" />
<glyph unicode="&#xf7fd;" horiz-adv-x="1013" d="M524 723q112 142 221 326h338q-206 -326 -407 -580v-469h-314v469q-264 375 -432 580h357q106 -128 237 -326zM561 1163h-266l252 264h321z" />
<glyph unicode="&#xf7fe;" horiz-adv-x="1169" d="M449 188v-188h-314v1047h314v-173h327q176 0 255 -85.5t79 -258.5q0 -158 -72.5 -250t-230.5 -92h-358zM700 641h-251v-229h251q84 0 84 112q0 57 -22 87t-62 30z" />
<glyph unicode="&#xf7ff;" horiz-adv-x="1013" d="M524 723q112 142 221 326h338q-206 -326 -407 -580v-469h-314v469q-264 375 -432 580h357q106 -128 237 -326zM297 1421q83 0 112 -24.5t29 -106.5q0 -89 -29.5 -117t-111.5 -28q-81 0 -110 28t-29 117q0 82 29 106.5t110 24.5zM760 1421q81 0 110 -24.5t29 -106.5 q0 -89 -29 -117t-110 -28q-84 0 -113 27.5t-29 117.5q0 82 28.5 106.5t113.5 24.5z" />
<glyph unicode="&#xfb06;" horiz-adv-x="1837" d="M1151 354v424q-162 0 -377 26.5t-246 26.5q-82 0 -114.5 -16.5t-32.5 -73.5q0 -42 35 -58.5t155 -31.5q190 -24 271.5 -93.5t81.5 -225.5q0 -83 -24 -146.5t-65 -104t-101.5 -65.5t-128 -35t-150.5 -10q-88 0 -195.5 16t-177.5 42l61 237q146 -43 297 -43q101 0 141 17 t40 75q0 30 -16 47.5t-61 29.5t-132 20t-146 25.5t-103.5 51.5t-65.5 91t-21 139q0 83 23.5 146.5t64 103t101 64.5t127 34.5t149.5 9.5q41 0 260 -14t350 -14v155l315 127v-282h328v-271h-328v-391q0 -81 32 -115t114 -34q78 0 164 28l51 -241q-131 -54 -311 -54 q-92 0 -155.5 16t-113 57.5t-73 118t-23.5 191.5z" />
<glyph unicode="&#xfe59;" horiz-adv-x="755" d="M139 512q0 184 35 331.5t99 248.5t146.5 166.5t184.5 99.5l144 -232q-54 -22 -92.5 -48t-76 -72t-60 -109t-36.5 -160t-14 -225q0 -158 19.5 -268.5t59.5 -177.5t86 -103.5t114 -64.5l-144 -232q-102 34 -184.5 99.5t-146.5 166.5t-99 248.5t-35 331.5z" />
<glyph unicode="&#xfe5a;" horiz-adv-x="755" d="M616 512q0 -184 -35 -332t-99.5 -249t-147 -166t-184.5 -99l-144 230q55 23 93 49t76 72t61 109t37 160.5t14 225.5q0 127 -14 224t-37 160t-61 109.5t-76.5 72.5t-92.5 48l144 232q102 -34 184.5 -99.5t147 -166.5t99.5 -248.5t35 -331.5z" />
<glyph unicode="&#xfe5b;" horiz-adv-x="763" d="M86 389v-2v250q36 0 64.5 7t56.5 27.5t46.5 54t30 90.5t11.5 134q0 340 326 428q22 -37 66 -111.5t65 -111.5q-49 -17 -79.5 -36.5t-56 -56t-36.5 -96t-11 -147.5q0 -72 -13.5 -127t-32.5 -86t-47.5 -52t-51.5 -28.5t-51 -11.5q28 -5 51 -13.5t51.5 -30t47.5 -53.5 t32.5 -87.5t13.5 -128.5q0 -114 21 -180.5t57 -96.5t105 -55q-22 -37 -66 -109.5t-65 -109.5q-326 88 -326 428q0 76 -11.5 132.5t-30 90t-46.5 54t-56.5 27.5t-64.5 7z" />
<glyph unicode="&#xfe5c;" horiz-adv-x="763" d="M678 637v2v-250q-36 0 -64.5 -7t-56.5 -27.5t-46.5 -54t-30 -90t-11.5 -132.5q0 -342 -326 -430l-131 225q49 17 79.5 36.5t56 55.5t36.5 95t11 147q0 72 13.5 127t32.5 86t48 52t51 29t51 13q-196 30 -196 311q0 88 -10 145.5t-35 94t-55.5 56t-82.5 38.5l131 219 q326 -88 326 -428q0 -77 11.5 -134t30 -90.5t46.5 -54t56.5 -27.5t64.5 -7z" />
<glyph unicode="&#xfe5f;" horiz-adv-x="1261" d="M86 629l12 207h199l16 213h258l-16 -213h176l17 213h256l-17 -213h215l-12 -207h-215l-14 -195h217l-15 -205h-215l-16 -229h-258l16 229h-176l-16 -229h-256l14 229h-197l15 205h196l15 195h-199zM543 629l-17 -195h176l17 195h-176z" />
<glyph unicode="&#xfe69;" horiz-adv-x="1028" d="M436 1276h154v-205q78 -1 167 -16t154 -37l-59 -232q-112 30 -262 37v-178q176 -28 262 -99t86 -216q0 -161 -93.5 -244t-254.5 -102v-232h-154v223q-215 8 -340 52l62 237q122 -32 278 -39v189q-84 9 -144 27.5t-107.5 53t-71 91t-23.5 135.5q0 304 346 344v211z M362 739q0 -30 15.5 -46t58.5 -25v153q-74 -9 -74 -82zM668 315q0 29 -17.5 47.5t-60.5 28.5v-160q78 17 78 84z" />
<glyph unicode="&#xfe6a;" horiz-adv-x="1540" d="M1038 1049h246l-786 -1049h-248zM350 1077q164 0 233.5 -65.5t69.5 -245.5q0 -185 -70.5 -255.5t-232.5 -70.5t-230.5 70.5t-68.5 255.5q0 93 17 153.5t55 95.5t91.5 48.5t135.5 13.5zM350 600q52 0 67 30t15 136q0 100 -15 128t-67 28q-50 0 -66 -29t-16 -127 q0 -104 16 -135t66 -31zM1188 608q82 0 136 -14t93 -49t56.5 -95.5t17.5 -152.5q0 -185 -70.5 -255.5t-232.5 -70.5t-230.5 70.5t-68.5 255.5q0 92 17 152.5t55 95.5t91.5 49t135.5 14zM1188 131q52 0 67 30t15 134q0 101 -14.5 129.5t-67.5 28.5q-50 0 -66 -29t-16 -129 q0 -103 16 -133.5t66 -30.5z" />
<glyph unicode="&#xfe6b;" horiz-adv-x="1490" d="M684 883q-73 0 -122 -4.5t-92 -18t-68 -36.5t-43.5 -62t-25.5 -92.5t-7 -130.5q0 -80 7.5 -135t27 -97.5t48 -68t77.5 -41.5t108.5 -21.5t146.5 -5.5q129 0 207 18t128 67t68.5 128.5t18.5 210.5q0 167 -33 270h232q35 -126 35 -278q0 -179 -38 -299.5t-121.5 -192 t-202 -101.5t-292.5 -30q-178 0 -295.5 26t-199.5 91t-118 175.5t-36 279.5q0 131 27.5 228.5t75.5 159t123.5 98.5t162.5 51.5t201 14.5q117 0 186.5 -15.5t119.5 -62.5t69.5 -130.5t19.5 -221.5q0 -87 -6.5 -146.5t-24 -104.5t-42 -70.5t-67.5 -41.5t-93 -21t-125 -5 q-188 0 -251.5 52.5t-63.5 207.5q0 154 60.5 206t223.5 52q86 0 154 -10q-3 62 -36 84.5t-124 22.5zM743 612q-56 0 -75 -13.5t-19 -61.5q0 -49 19.5 -63.5t81.5 -14.5q53 0 73.5 18t20.5 72v57q-93 6 -101 6z" />
<glyph horiz-adv-x="526" />
<glyph horiz-adv-x="649" d="M233 1784h207q0 -63 28.5 -85t94.5 -22q64 0 93.5 22t29.5 85h193q0 -293 -324 -293q-155 0 -238.5 73t-83.5 220z" />
<glyph horiz-adv-x="1333" d="M848 1530l-137 147l-131 -147h-267l250 264h301l258 -264h-274z" />
<glyph horiz-adv-x="583" d="M319 1796q83 0 112.5 -24.5t29.5 -106.5q0 -89 -29.5 -117t-112.5 -28q-81 0 -110 28t-29 117q0 82 29 106.5t110 24.5z" />
<glyph horiz-adv-x="1449" d="M737 1841q134 0 193 -45t59 -160t-59 -159.5t-193 -44.5q-135 0 -195.5 44.5t-60.5 159.5q0 116 58.5 160.5t197.5 44.5zM737 1714q-58 0 -77 -17.5t-19 -62.5t19 -62.5t77 -17.5q56 0 75 18t19 62q0 45 -19 62.5t-75 17.5z" />
<glyph horiz-adv-x="1437" d="M1069 1812l148 -118q-30 -84 -97 -138.5t-159 -54.5q-55 0 -107.5 24t-99 48t-86.5 24q-30 0 -53 -20.5t-46 -71.5l-133 131q91 162 226 162q51 0 97.5 -14.5t76 -31.5t65 -31.5t66.5 -14.5q36 0 57.5 22t44.5 84z" />
<glyph horiz-adv-x="1304" d="M651 1462q113 0 197 -20.5t153.5 -70t112.5 -132t66.5 -208.5t23.5 -298q0 -175 -23 -305t-67 -217.5t-112.5 -141t-153.5 -76t-197 -22.5t-196 22.5t-153 76t-112.5 141t-66.5 217.5t-23 305q0 214 34.5 357.5t107 224.5t170 114t239.5 33zM653 274q60 0 96 10.5 t63.5 36t40 80.5t18.5 131t6 201q0 101 -3 166.5t-13.5 116.5t-24.5 77.5t-41.5 43.5t-59 21.5t-82.5 4.5q-50 0 -81 -4.5t-58.5 -21t-41.5 -44t-24.5 -77.5t-14 -116.5t-3.5 -166.5q0 -103 3.5 -172t14 -123t25 -84t41 -49t58.5 -25t81 -6z" />
<glyph horiz-adv-x="874" d="M707 0h-324v1071l-320 -129l-88 279l732 272v-1493z" />
<glyph horiz-adv-x="1267" d="M193 1110l-68 281q91 32 221 51.5t264 19.5q141 0 235 -18.5t164.5 -65.5t103 -131.5t32.5 -212.5q0 -78 -8 -133.5t-35 -113.5t-64.5 -104.5t-112 -110t-162 -126t-228.5 -157.5h616v-289h-1071v268q143 106 225.5 168t169 130.5t128.5 104t85.5 79.5t58 67t28.5 57.5 t16 59.5t2 65q0 96 -47 131t-171 35q-95 0 -202.5 -16t-179.5 -39z" />
<glyph horiz-adv-x="1239" d="M369 600v283h215q104 0 142 28.5t38 112.5q0 55 -21 82.5t-80 41t-176 13.5q-80 0 -182 -10.5t-158 -28.5l-61 289q227 51 481 51q212 0 331 -36.5t169.5 -115.5t50.5 -218q0 -80 -12.5 -135t-45.5 -101t-95 -71.5t-156 -32.5q99 -4 166 -30.5t104.5 -76t52.5 -112 t15 -150.5q0 -228 -133.5 -320t-450.5 -92q-113 0 -249.5 13.5t-235.5 35.5l61 293q57 -17 161.5 -28t184.5 -11q126 0 190 15t87.5 48.5t23.5 98.5q0 95 -43.5 129.5t-150.5 34.5h-223z" />
<glyph horiz-adv-x="1265" d="M729 340h-704v113q132 237 302.5 517.5t295.5 456.5h424v-811h184v-276h-184v-340h-318v340zM729 616v506q-75 -103 -165.5 -251.5t-147.5 -254.5h313z" />
<glyph horiz-adv-x="1245" d="M172 1427h924v-288h-613v-246q71 6 142 6q154 0 254 -23.5t160.5 -78.5t85 -137t24.5 -207q0 -142 -28.5 -233t-97 -147.5t-172.5 -79t-265 -22.5q-107 0 -250.5 14t-226.5 35l61 293q53 -17 155.5 -28t182.5 -11q75 0 121 4t79.5 14t49.5 30t23 47t7 71q0 58 -8 88.5 t-38.5 52.5t-83 28.5t-148.5 6.5q-181 0 -338 -20v831z" />
<glyph horiz-adv-x="1288" d="M1159 1409l-63 -291q-118 41 -344 41q-75 0 -123 -10t-88.5 -38.5t-60 -84t-23.5 -143.5q109 16 219 16q206 0 321 -45t163 -139.5t48 -261.5q0 -143 -27.5 -234t-94 -147.5t-168 -78.5t-259.5 -22q-160 0 -263 35.5t-171 123.5t-96.5 231t-28.5 364q0 148 14 257.5 t47.5 193t82.5 137.5t124 87.5t167 47.5t217 14q98 0 211.5 -15t195.5 -38zM659 274q123 0 164 36.5t41 133.5q0 102 -41 138t-149 36q-115 0 -223 -12q2 -87 11.5 -145.5t24 -96t41 -57t56 -26.5t75.5 -7z" />
<glyph horiz-adv-x="1114" d="M1161 1427v-94q-129 -205 -321 -624.5t-287 -708.5h-375q118 324 272 654.5t271 484.5h-696v288h1136z" />
<glyph horiz-adv-x="1300" d="M651 240q120 0 163.5 38t43.5 140q0 107 -45 151.5t-162 44.5t-162 -44.5t-45 -151.5q0 -102 44 -140t163 -38zM651 870q101 0 145 36.5t44 127.5t-42 122.5t-147 31.5q-106 0 -148 -31.5t-42 -122.5t44 -127.5t146 -36.5zM651 -29q-210 0 -329.5 41.5t-170.5 129.5 t-51 241q0 89 14.5 151t50.5 111.5t102.5 76t166.5 30.5q-94 7 -155.5 32.5t-94 71.5t-45 101t-12.5 135q0 67 9 117t31.5 93t61 72t96.5 49.5t138.5 29.5t187.5 9q128 0 219 -14t150.5 -41t94 -73.5t48 -103.5t13.5 -138q0 -80 -12.5 -135t-45 -101t-94.5 -71.5t-156 -32.5 q100 -4 166.5 -30.5t102.5 -76t50.5 -111.5t14.5 -151q0 -153 -50.5 -241t-170 -129.5t-330.5 -41.5z" />
<glyph d="M330 0q309 316 424 541q-50 -4 -127 -4q-156 0 -256.5 22.5t-163 75.5t-88 134t-25.5 206q0 142 27 233.5t93.5 149.5t168.5 81t260 23q115 0 198 -10t146.5 -34t103.5 -59.5t65 -93t34.5 -127t9.5 -167.5q0 -145 -34 -279t-99.5 -254.5t-146.5 -224.5t-189 -213h-401z M670 815q95 0 168 8q10 46 10 117q0 74 -8 115.5t-33 66t-61.5 32t-102.5 7.5q-124 0 -164.5 -37.5t-40.5 -138.5q0 -56 8 -86.5t34 -51t69 -26.5t121 -6z" />
<glyph horiz-adv-x="1220" d="M1110 1010v-230q0 -110 -38.5 -192.5t-110 -132t-165.5 -73.5t-212 -24q-72 0 -117 11q-8 -16 -8 -41q0 -39 61.5 -54.5t229.5 -21.5q202 -9 298.5 -80t96.5 -211q0 -107 -40.5 -182t-119.5 -117.5t-181 -61t-239 -18.5q-265 0 -438 56l61 270q168 -58 363 -58 q144 0 208 21t64 66q0 28 -17 40.5t-63.5 19t-152.5 9.5q-170 6 -260 28.5t-129 70t-39 135.5q0 100 65 178q-65 37 -95 106.5t-30 184.5q0 86 27.5 152t86.5 115.5t160 75t242 25.5q124 0 265.5 -19t226.5 -48zM795 745v60q-74 24 -191 24q-102 0 -143 -25.5t-41 -90.5 q0 -63 39.5 -85t136.5 -22q93 0 146 34t53 105z" />
<glyph horiz-adv-x="1746" d="M1061 354v424q-114 0 -264 17.5t-172 17.5q-49 0 -80 -5.5t-59 -22t-42.5 -48.5t-23 -84t-8.5 -129q0 -92 11.5 -148.5t39.5 -87t64.5 -40.5t97.5 -10q133 0 221 36l61 -249q-130 -54 -307 -54q-117 0 -205.5 27.5t-158 90t-106 173.5t-36.5 268q0 125 24.5 220t68 156.5 t108.5 100.5t139 54.5t166 15.5q50 0 202.5 -14t258.5 -14v155l313 127v-282h328v-271h-328v-391q0 -81 32.5 -115t115.5 -34q75 0 161 28l54 -241q-131 -54 -314 -54q-91 0 -154 16t-112 57.5t-72.5 118t-23.5 191.5z" />
<glyph horiz-adv-x="1282" d="M637 -256q-20 45 -62.5 76t-92.5 49.5t-106 39t-107.5 54t-94 83.5t-67.5 138.5t-25 208.5q0 220 79 334.5t230 114.5q109 0 246 -58q150 58 252 58q307 0 307 -443q0 -121 -25.5 -209.5t-68 -139t-94.5 -84.5t-108.5 -54.5t-106.5 -40t-93 -51t-63 -76.5zM637 537 q-97 53 -143 53q-93 0 -93 -195q0 -85 18 -137.5t47 -75.5t59 -36t62.5 -33t49.5 -52q15 28 40.5 46.5t51 27t53 25.5t48 40.5t34 73.5t13.5 123q0 102 -22 146.5t-67 44.5q-47 0 -151 -51zM639 803q20 64 20 123q0 102 -62 157.5t-175 55.5h-422v254h1282v-254h-506 q25 -31 25 -82q0 -70 -42 -142t-120 -112z" />
<glyph horiz-adv-x="1282" d="M645 -256q-20 45 -62.5 76.5t-92.5 51t-107 40t-109 54.5t-94.5 84.5t-68 139t-25.5 209.5q0 443 307 443q105 0 252 -58q140 58 246 58q152 0 230.5 -114.5t78.5 -334.5q0 -120 -25 -208.5t-67 -138.5t-93.5 -83.5t-107.5 -54t-106 -39t-92.5 -49.5t-63.5 -76zM643 803 q-77 40 -118.5 112t-41.5 142q0 53 23 82h-506v254h1282v-254h-422q-113 0 -174 -55t-61 -158q0 -65 18 -123z" />
<glyph horiz-adv-x="1282" d="M637 1395q18 -40 53.5 -70t77 -46t91 -36.5t96.5 -40t91 -57t77 -87t53 -131.5t20 -188q0 -442 -307 -442q-104 0 -252 57q-139 -59 -246 -59q-151 0 -230 115t-79 335q0 120 25 208t67.5 138t94 83.5t107.5 54t106 39.5t92.5 50.5t62.5 76.5zM637 602q108 -53 151 -53 q45 0 67 44.5t22 145.5q0 73 -13.5 123.5t-34 74t-48 40.5t-53 25.5t-51 27.5t-40.5 47q-17 -33 -49.5 -53t-62.5 -33t-59 -35.5t-47 -75t-18 -137.5q0 -194 93 -194q51 0 143 53zM639 334q78 -39 120 -110t42 -142q0 -51 -25 -82h506v-256h-1282v256h422q113 0 175 55.5 t62 157.5q0 60 -20 121z" />
<glyph horiz-adv-x="1282" d="M645 1395q21 -45 63.5 -76.5t92.5 -50.5t106 -39.5t107.5 -54t93.5 -83.5t67 -138t25 -208q0 -220 -78.5 -335t-230.5 -115q-104 0 -246 59q-145 -57 -252 -57q-307 0 -307 442q0 121 25.5 209.5t68 139t94.5 84.5t109 55t107 40.5t92.5 51t62.5 76.5zM643 334 q-18 -55 -18 -121q0 -103 61 -158t174 -55h422v-256h-1282v256h506q-23 29 -23 82q0 70 41.5 141.5t118.5 110.5z" />
<glyph horiz-adv-x="1804" d="M25 573q40 18 69.5 53t46 76.5t36 90.5t39 95.5t56.5 90.5t85.5 76.5t129.5 52.5t187 20q220 0 335 -79t115 -230q0 -107 -59 -246q57 -148 57 -251q0 -308 -442 -308q-121 0 -209.5 25.5t-139 68t-84.5 94.5t-54.5 108.5t-40 106.5t-51 93t-76.5 63zM817 573 q53 92 53 144q0 46 -45.5 69t-148.5 23q-85 0 -137.5 -18t-75 -47t-35.5 -59t-33 -62.5t-53 -49.5q28 -15 47 -40.5t27.5 -51t25.5 -52.5t40.5 -47.5t74 -34t123.5 -13.5q101 0 145.5 21.5t44.5 66.5q0 43 -53 151zM1085 571q61 -20 121 -20q102 0 157.5 62t55.5 175v422 h256v-1282h-256v506q-30 -24 -82 -24q-71 0 -142 41.5t-110 119.5z" />
<glyph horiz-adv-x="1804" d="M25 565q45 20 76.5 62.5t51 92.5t40 107t54.5 109t84.5 94.5t139 68t209.5 25.5q442 0 442 -307q0 -107 -57 -252q59 -142 59 -246q0 -152 -115 -230.5t-335 -78.5q-120 0 -208 25t-137.5 67t-83 93.5t-54 107.5t-39.5 106t-50.5 92.5t-76.5 63.5zM1085 567 q39 77 110.5 118.5t141.5 41.5q55 0 82 -22v505h256v-1282h-256v422q0 113 -55.5 174.5t-157.5 61.5q-63 0 -121 -19z" />
<glyph horiz-adv-x="1804" d="M1780 573q-45 -20 -76.5 -62.5t-51 -92.5t-40.5 -107t-55 -109t-84.5 -94.5t-139 -68t-209.5 -25.5q-442 0 -442 308q0 106 57 251q-57 137 -57 246q0 152 114 230.5t334 78.5q120 0 208.5 -25t138.5 -67t83.5 -93.5t54 -107.5t39.5 -106t50 -92.5t76 -63.5zM987 573 q-51 -104 -51 -151q0 -45 44 -66.5t146 -21.5q86 0 140 18.5t76.5 48t35.5 60.5t32.5 63.5t51.5 48.5q-32 17 -52 49.5t-33 63t-36 60t-75.5 47.5t-137.5 18q-194 0 -194 -94q0 -47 53 -144zM721 571q-40 -77 -112 -118t-142 -41q-55 0 -82 22v-506h-254v1282h254v-422 q0 -113 55 -174t158 -61q65 0 123 18z" />
<glyph horiz-adv-x="1804" d="M1780 565q-40 -18 -69 -53t-45.5 -76.5t-36 -90.5t-39 -95.5t-56.5 -90.5t-86 -76.5t-130.5 -52.5t-187.5 -20q-219 0 -333.5 79t-114.5 230q0 112 57 246q-57 148 -57 252q0 307 442 307q106 0 188 -20t131.5 -53t87 -77t57 -91t40 -96.5t36.5 -91t46 -77t70 -53.5z M721 567q-67 21 -123 21q-102 0 -157.5 -62.5t-55.5 -175.5v-422h-254v1282h254v-505q30 24 82 24q70 0 142 -42t112 -120z" />
<glyph horiz-adv-x="1677" d="M1571 729q0 -175 -31.5 -304.5t-89.5 -216t-150 -139.5t-203.5 -75.5t-258.5 -22.5t-258.5 22.5t-203 75.5t-149.5 139.5t-89.5 216t-31.5 304.5q0 172 31.5 299t89.5 210t150 133t202.5 70.5t258.5 20.5q123 0 219 -14t180.5 -47t144.5 -88t103.5 -136t64.5 -192.5 t21 -255.5zM979 825q0 49 -15.5 71t-54.5 22h-147v-183h145q39 0 55.5 21t16.5 69zM1225 819q0 -143 -57.5 -220t-170.5 -77h-235v-219h-250v821h483q121 0 175.5 -78.5t54.5 -226.5zM838 1237q-95 0 -157.5 -6t-119.5 -25.5t-89.5 -53.5t-57 -91t-34 -137.5t-9.5 -194.5 q0 -118 9.5 -202t34 -144.5t57.5 -97t89 -57.5t119.5 -28t157.5 -7q71 0 122.5 4t100 14.5t82 28t62.5 46.5t47 68t31 94t18.5 123.5t5.5 157.5q0 114 -9.5 194.5t-34 137.5t-57.5 91t-90 53.5t-119.5 25.5t-158.5 6z" />
<glyph horiz-adv-x="1587" d="M793 1247q-81 0 -140.5 -14.5t-109 -49.5t-80.5 -93.5t-47.5 -148.5t-16.5 -212q0 -155 24.5 -261t76 -168.5t122.5 -89t171 -26.5t170.5 26.5t122 89t76 168.5t24.5 261q0 153 -24.5 254.5t-76 159t-121 81t-171.5 23.5zM795 399q-43 0 -69 7.5t-46 26t-29.5 58 t-13.5 94.5t-4 144q0 142 13.5 204.5t45 82.5t103.5 20q44 0 69 -6t45 -22t28.5 -52.5t12.5 -88t4 -138.5q0 -90 -4 -144.5t-13 -94t-28.5 -58t-45 -26t-68.5 -7.5zM795 1462q143 0 248.5 -20.5t192.5 -70.5t141 -133.5t83 -209.5t29 -299q0 -218 -43 -366t-133.5 -234 t-215 -122t-302.5 -36q-179 0 -303.5 36t-215 122t-133.5 234t-43 366q0 173 29 299t83 209.5t141 133.5t193 70.5t249 20.5z" />
<glyph horiz-adv-x="1587" d="M713 215h229v1063l-518 -195l61 -194l228 92v-766zM795 1462q143 0 248.5 -20.5t192.5 -70.5t141 -133.5t83 -209.5t29 -299q0 -218 -43 -366t-133.5 -234t-215 -122t-302.5 -36q-179 0 -303.5 36t-215 122t-133.5 234t-43 366q0 173 29 299t83 209.5t141 133.5t193 70.5 t249 20.5z" />
<glyph horiz-adv-x="1587" d="M795 1462q143 0 248.5 -20.5t192.5 -70.5t141 -133.5t83 -209.5t29 -299q0 -218 -43 -366t-133.5 -234t-215 -122t-302.5 -36q-179 0 -303.5 36t-215 122t-133.5 234t-43 366q0 173 29 299t83 209.5t141 133.5t193 70.5t249 20.5zM426 1202l49 -198q48 15 125.5 25.5 t147.5 10.5q89 0 122 -24t33 -92q0 -38 -3 -60.5t-24 -57.5t-46.5 -61t-92 -82t-138 -110t-206.5 -154v-190h762v205h-442q102 68 165 113t117 91t81 78.5t46.5 74t25 80.5t5.5 95q0 92 -23 152t-73.5 93.5t-118 46.5t-168.5 13q-202 0 -344 -49z" />
<glyph horiz-adv-x="1587" d="M623 836v-201h155q79 0 110.5 -25t31.5 -94q0 -47 -16.5 -71t-62 -35t-136.5 -11q-56 0 -131 8t-117 19l-43 -205q174 -37 346 -37q225 0 319.5 66t94.5 229q0 127 -51.5 191.5t-186.5 70.5q66 5 109.5 23.5t66 51.5t31 72t8.5 95q0 148 -84.5 206t-306.5 58 q-163 0 -342 -35l45 -204q41 12 114.5 20t127.5 8q84 0 126.5 -9.5t57 -30t14.5 -60.5q0 -60 -27 -80t-102 -20h-151zM795 1462q143 0 248.5 -20.5t192.5 -70.5t141 -133.5t83 -209.5t29 -299q0 -218 -43 -366t-133.5 -234t-215 -122t-302.5 -36q-179 0 -303.5 36t-215 122 t-133.5 234t-43 366q0 173 29 299t83 209.5t141 133.5t193 70.5t249 20.5z" />
<glyph horiz-adv-x="1587" d="M324 449h503v-244h224v244h133v194h-133v580h-299q-170 -238 -428 -695v-79zM827 1008v-365h-225q115 215 225 365zM795 1462q143 0 248.5 -20.5t192.5 -70.5t141 -133.5t83 -209.5t29 -299q0 -218 -43 -366t-133.5 -234t-215 -122t-302.5 -36q-179 0 -303.5 36t-215 122 t-133.5 234t-43 366q0 173 29 299t83 209.5t141 133.5t193 70.5t249 20.5z" />
<glyph horiz-adv-x="1587" d="M1120 1217h-657v-590q106 16 242 16q89 0 130 -11.5t54.5 -37t13.5 -80.5q0 -75 -37 -97t-164 -22q-57 0 -130 8t-111 19l-45 -207q60 -15 163 -25t179 -10q224 0 311.5 73t87.5 269q0 119 -32.5 186.5t-113.5 100.5t-227 33q-50 0 -102 -6v178h438v203zM795 1462 q143 0 248.5 -20.5t192.5 -70.5t141 -133.5t83 -209.5t29 -299q0 -218 -43 -366t-133.5 -234t-215 -122t-302.5 -36q-179 0 -303.5 36t-215 122t-133.5 234t-43 366q0 173 29 299t83 209.5t141 133.5t193 70.5t249 20.5z" />
<glyph horiz-adv-x="1587" d="M1106 1006l45 204q-125 37 -291 37q-134 0 -218.5 -23t-141.5 -83.5t-80 -160t-23 -257.5q0 -157 20.5 -259t69 -165.5t122 -89t186.5 -25.5q221 0 306 73t85 271q0 175 -82 246.5t-297 71.5q-102 0 -158 -12q4 66 17 106t41 60.5t61.5 27t91.5 6.5q160 0 246 -28z M944 518q0 -69 -30 -94t-119 -25q-55 0 -84.5 16.5t-46.5 69t-19 154.5q65 10 131 10q103 0 135.5 -27.5t32.5 -103.5zM795 1462q143 0 248.5 -20.5t192.5 -70.5t141 -133.5t83 -209.5t29 -299q0 -218 -43 -366t-133.5 -234t-215 -122t-302.5 -36q-179 0 -303.5 36t-215 122 t-133.5 234t-43 366q0 173 29 299t83 209.5t141 133.5t193 70.5t249 20.5z" />
<glyph horiz-adv-x="1587" d="M541 205h258q76 218 194.5 493.5t245.5 524.5h-817v-205h475q-81 -152 -183 -384.5t-173 -428.5zM795 1462q143 0 248.5 -20.5t192.5 -70.5t141 -133.5t83 -209.5t29 -299q0 -218 -43 -366t-133.5 -234t-215 -122t-302.5 -36q-179 0 -303.5 36t-215 122t-133.5 234 t-43 366q0 173 29 299t83 209.5t141 133.5t193 70.5t249 20.5z" />
<glyph horiz-adv-x="1587" d="M795 377q-87 0 -118.5 26.5t-31.5 100.5q0 77 32 108t118 31q85 0 117 -31.5t32 -107.5q0 -74 -31.5 -100.5t-117.5 -26.5zM795 825q-75 0 -106.5 26.5t-31.5 92.5t30.5 88.5t107.5 22.5q75 0 105 -23t30 -88q0 -66 -31.5 -92.5t-103.5 -26.5zM793 184h2q219 0 304 66 t85 229q0 129 -49.5 192.5t-186.5 69.5q128 10 173.5 68.5t45.5 173.5q0 73 -15.5 119.5t-57 80.5t-114.5 49t-187 15q-150 0 -232 -29t-111.5 -83.5t-29.5 -151.5q0 -56 8.5 -95t31.5 -72t67.5 -51.5t111.5 -23.5q-138 -6 -188 -69.5t-50 -192.5q0 -163 85.5 -229 t306.5 -66zM795 1462q143 0 248.5 -20.5t192.5 -70.5t141 -133.5t83 -209.5t29 -299q0 -218 -43 -366t-133.5 -234t-215 -122t-302.5 -36q-179 0 -303.5 36t-215 122t-133.5 234t-43 366q0 173 29 299t83 209.5t141 133.5t193 70.5t249 20.5z" />
<glyph horiz-adv-x="1587" d="M784 592q29 0 95 4q-80 -154 -306 -387h285q105 106 174.5 203.5t115.5 224.5t46 264q0 105 -16.5 169t-62.5 106.5t-121 58.5t-197 16q-219 0 -304 -74.5t-85 -271.5q0 -176 80 -244.5t296 -68.5zM946 879q0 -48 -10 -84q-68 -7 -121 -7q-106 0 -136 23t-30 102 q0 73 29 100t119 27q91 0 120 -30t29 -131zM795 -29q-142 0 -249 22.5t-194 75t-141.5 139.5t-83.5 216.5t-29 304.5q0 173 29 299t83.5 209.5t141.5 133.5t193.5 70.5t249.5 20.5t248.5 -20.5t192 -70.5t140 -133.5t82.5 -209.5t29 -299q0 -175 -28.5 -304.5t-82.5 -216.5 t-140.5 -139.5t-192.5 -75t-248 -22.5z" />
<glyph horiz-adv-x="1851" d="M539 -29q-102 0 -179.5 27t-139 88.5t-94 171t-32.5 264.5q0 109 22 194.5t61.5 141.5t90.5 97.5t111 69.5t122.5 50.5t125.5 46.5t118 52t103 73t78 103q29 -58 77 -103t102.5 -73t118 -52t125 -46.5t121.5 -50.5t111.5 -69.5t90.5 -97.5t61 -141.5t22 -194.5 q0 -155 -32.5 -264.5t-93.5 -171t-139 -88.5t-179 -27q-111 0 -232 47v-411h-309v411q-121 -47 -231 -47zM1079 905v-598q0 -34 47.5 -56t116.5 -22q111 0 154 61.5t43 225.5q0 80 -17 136t-43 84t-64.5 49.5t-75.5 33t-82.5 34t-78.5 52.5zM770 307v598 q-38 -34 -93.5 -58.5t-98 -41t-82.5 -45.5t-62 -89t-22 -155q0 -165 41.5 -226t152.5 -61q69 0 116.5 22t47.5 56z" />
<glyph horiz-adv-x="2207" d="M1122 -393v1126q-377 98 -594 98q-82 0 -114.5 -16.5t-32.5 -73.5q0 -42 35 -58.5t155 -31.5q190 -24 271.5 -93.5t81.5 -225.5q0 -83 -24 -146.5t-65 -104t-101.5 -65.5t-128 -35t-150.5 -10q-88 0 -195.5 16t-177.5 42l61 237q146 -43 297 -43q101 0 141 17t40 75 q0 30 -16 47.5t-61 29.5t-132 20t-146 25.5t-103.5 51.5t-65.5 91t-21 139q0 83 23.5 146.5t64 103t101 64.5t127 34.5t149.5 9.5q132 0 290.5 -20t290.5 -53q84 32 218 52.5t257 20.5q110 0 190.5 -16.5t143.5 -55t102 -102.5t58.5 -157.5t19.5 -221.5q0 -155 -32 -264.5 t-93 -171.5t-139 -89.5t-180 -27.5q-122 0 -229 47v-411h-316zM1438 791v-482q0 -35 46 -57.5t115 -22.5q113 0 155 61t42 226q0 127 -19.5 191t-59.5 86t-120 22q-96 0 -159 -24z" />
<glyph horiz-adv-x="1943" d="M1415 903v-627q-95 -37 -231 -59t-248 -22q-127 0 -205.5 15t-129 55.5t-70 105.5t-19.5 170q0 87 18.5 148.5t49 98.5t81 58t104 28t128.5 7q86 0 229 -27q0 78 -15 114.5t-64 54t-152 17.5q-107 0 -176.5 -6.5t-128.5 -26.5t-92 -52t-56 -88.5t-31 -130.5t-8 -183 q0 -113 9.5 -190.5t36 -138.5t66 -97t107.5 -59t152 -31t207 -8q125 0 214.5 10.5t156.5 37t108.5 64.5t66.5 99.5t34.5 134.5t9.5 178q0 228 -41 334h264q39 -137 39 -342q0 -157 -19 -273t-63 -202.5t-107.5 -142.5t-162 -90.5t-217 -48t-281.5 -13.5q-158 0 -277 15 t-218.5 50t-166.5 92.5t-113.5 143.5t-67.5 201.5t-21 267.5q0 150 23 265t71 197.5t113.5 138.5t160 88.5t200.5 46t243 13.5q265 0 377 -86t112 -305zM1122 455v198q-71 15 -155 15t-117 -22t-33 -95q0 -74 28.5 -99.5t112.5 -25.5q92 0 164 29z" />
<glyph horiz-adv-x="1574" d="M1321 602v-524q-128 -49 -304.5 -78t-340.5 -29q-139 0 -242.5 21.5t-180.5 69t-116 128t-39 193.5q0 88 15 150.5t52.5 112t104.5 76t166 30.5q-72 6 -123.5 24t-83.5 45.5t-51 69.5t-26 88.5t-7 110.5q0 198 126.5 285t379.5 87q156 0 357 -49l-88 -289 q-110 37 -215 37q-120 0 -162.5 -29t-42.5 -108q0 -81 37 -112t133 -31h334v151l317 127v-278h270v-279h-270zM1004 301v301h-357q-102 0 -145 -35.5t-43 -130.5t53.5 -128.5t210.5 -33.5q156 0 281 27z" />
<glyph horiz-adv-x="1181" d="M866 0q-28 60 -84 221h-415q-43 -142 -64 -221h-319q60 210 167.5 511.5t202.5 535.5h473q75 -255 177.5 -551.5t185.5 -495.5h-324zM598 801h-41q-49 -126 -121 -352h269q-42 128 -107 352zM256 1427h207q0 -63 28.5 -84.5t94.5 -21.5q65 0 94 22t29 84h192 q0 -292 -323 -292q-155 0 -238.5 72.5t-83.5 219.5z" />
<glyph horiz-adv-x="1181" d="M866 0q-28 60 -84 221h-415q-43 -142 -64 -221h-319q60 210 167.5 511.5t202.5 535.5h473q75 -255 177.5 -551.5t185.5 -495.5h-324zM598 801h-41q-49 -126 -121 -352h269q-42 128 -107 352zM276 1171v218h598v-218h-598z" />
<glyph horiz-adv-x="1181" d="M866 0q-28 60 -84 221h-415q-43 -142 -64 -221h-319q60 210 167.5 511.5t202.5 535.5h473q75 -255 177.5 -551.5t185.5 -495.5h-324zM598 801h-41q-49 -126 -121 -352h269q-42 128 -107 352zM1001 25h89q-98 -60 -131 -101.5t-33 -99.5q0 -42 24 -60t92 -18q97 0 160 53 l80 -143q-50 -35 -125.5 -53.5t-148.5 -18.5q-155 0 -216 44t-61 139q0 85 68.5 153.5t201.5 104.5z" />
<glyph horiz-adv-x="831" d="M188 1368h625v-272h-299v-1147h299v-271h-625v1690z" />
<glyph horiz-adv-x="1224" d="M135 1049h488q105 0 183 -15t141 -51t102.5 -95.5t60 -148.5t20.5 -211q0 -152 -30.5 -254.5t-96 -162.5t-157 -85.5t-223.5 -25.5h-488v1049zM586 815h-135v-582h135q48 0 81 6.5t62.5 24t46 50t26 84.5t9.5 126q0 95 -13 154t-44 88.5t-68.5 39t-99.5 9.5zM463 1427 q90 -98 135 -145q20 22 63.5 70.5t67.5 74.5h266q-42 -44 -125 -132t-125 -132h-301l-258 264h277z" />
<glyph horiz-adv-x="1224" d="M49 430v217h86v402h488q105 0 183 -15t141 -51t102.5 -95.5t60 -148.5t20.5 -211q0 -152 -30.5 -254.5t-96 -162.5t-157 -85.5t-223.5 -25.5h-488v430h-86zM586 815h-135v-168h141v-217h-141v-197h135q48 0 81 6.5t62.5 24t46 50t26 84.5t9.5 126q0 95 -13 154t-44 88.5 t-68.5 39t-99.5 9.5z" />
<glyph horiz-adv-x="1224" d="M135 1049h488q105 0 183 -15t141 -51t102.5 -95.5t60 -148.5t20.5 -211q0 -152 -30.5 -254.5t-96 -162.5t-157 -85.5t-223.5 -25.5h-488v1049zM586 815h-135v-582h135q48 0 81 6.5t62.5 24t46 50t26 84.5t9.5 126q0 95 -13 154t-44 88.5t-68.5 39t-99.5 9.5zM289 1171 v218h598v-218h-598z" />
<glyph horiz-adv-x="1048" d="M979 1049v-250h-528v-144h395v-235h-395v-172h528v-248h-844v1049h844zM270 1171v218h598v-218h-598z" />
<glyph horiz-adv-x="952" d="M852 244l63 -219q-130 -54 -315 -54q-117 0 -205.5 27.5t-158 90t-106 173.5t-36.5 268q0 125 24.5 220t68 156.5t108.5 100.5t139 54.5t166 15.5q188 0 315 -45l-63 -223q-90 35 -223 35q-72 0 -117 -23.5t-70 -83.5h340v-151h-368q-2 -18 -2 -62q0 -37 2 -53h368v-149 h-340q24 -63 69.5 -89t117.5 -26q136 0 223 37z" />
<glyph horiz-adv-x="1048" d="M979 1049v-250h-528v-144h395v-235h-395v-172h528v-248h-844v1049h844zM797 25h88q-98 -60 -131 -101.5t-33 -99.5q0 -42 24.5 -60t92.5 -18q96 0 159 53l80 -143q-50 -35 -125.5 -53.5t-148.5 -18.5q-155 0 -216 44t-61 139q0 85 68.5 153.5t202.5 104.5z" />
<glyph horiz-adv-x="1048" d="M979 1049v-250h-528v-144h395v-235h-395v-172h528v-248h-844v1049h844zM469 1427q90 -98 135 -145q20 22 63.5 70.5t67.5 74.5h266q-42 -44 -124.5 -132t-124.5 -132h-301l-258 264h276z" />
<glyph horiz-adv-x="1048" d="M979 1049v-250h-528v-144h395v-235h-395v-172h528v-248h-844v1049h844zM582 1421q83 0 111 -24.5t28 -106.5q0 -90 -28.5 -117.5t-110.5 -27.5q-83 0 -112.5 28t-29.5 117q0 82 29.5 106.5t112.5 24.5z" />
<glyph horiz-adv-x="1048" d="M979 1049v-250h-528v-144h395v-235h-395v-172h528v-248h-844v1049h844zM258 1427h207q0 -63 28.5 -84.5t94.5 -21.5q65 0 94 22t29 84h192q0 -292 -323 -292q-155 0 -238.5 72.5t-83.5 219.5z" />
<glyph horiz-adv-x="1183" d="M1057 631v-588q-220 -72 -451 -72q-120 0 -210 27.5t-160 90t-106 173.5t-36 268q0 125 27 220.5t74 156.5t117 100t148.5 54.5t176.5 15.5q89 0 197.5 -12.5t169.5 -32.5l-80 -254q-114 43 -275 43q-63 0 -103 -10.5t-72.5 -41t-47 -90.5t-14.5 -155q0 -90 14.5 -149.5 t44.5 -90.5t68 -43t94 -12q85 0 151 27v133h-188v242h461zM651 1163h-266l252 264h321z" />
<glyph horiz-adv-x="1183" d="M1057 631v-588q-220 -72 -451 -72q-120 0 -210 27.5t-160 90t-106 173.5t-36 268q0 125 27 220.5t74 156.5t117 100t148.5 54.5t176.5 15.5q89 0 197.5 -12.5t169.5 -32.5l-80 -254q-114 43 -275 43q-63 0 -103 -10.5t-72.5 -41t-47 -90.5t-14.5 -155q0 -90 14.5 -149.5 t44.5 -90.5t68 -43t94 -12q85 0 151 27v133h-188v242h461zM317 1427h207q0 -63 28.5 -84.5t94.5 -21.5q65 0 94 22t29 84h193q0 -292 -324 -292q-155 0 -238.5 72.5t-83.5 219.5z" />
<glyph horiz-adv-x="1183" d="M1057 631v-588q-220 -72 -451 -72q-120 0 -210 27.5t-160 90t-106 173.5t-36 268q0 125 27 220.5t74 156.5t117 100t148.5 54.5t176.5 15.5q89 0 197.5 -12.5t169.5 -32.5l-80 -254q-114 43 -275 43q-63 0 -103 -10.5t-72.5 -41t-47 -90.5t-14.5 -155q0 -90 14.5 -149.5 t44.5 -90.5t68 -43t94 -12q85 0 151 27v133h-188v242h461zM764 1163q-22 23 -135 146q-23 -25 -66.5 -74.5t-64.5 -71.5h-269q42 44 125 132t125 132h301l258 -264h-274z" />
<glyph horiz-adv-x="1183" d="M1057 631v-588q-220 -72 -451 -72q-120 0 -210 27.5t-160 90t-106 173.5t-36 268q0 125 27 220.5t74 156.5t117 100t148.5 54.5t176.5 15.5q89 0 197.5 -12.5t169.5 -32.5l-80 -254q-114 43 -275 43q-63 0 -103 -10.5t-72.5 -41t-47 -90.5t-14.5 -155q0 -90 14.5 -149.5 t44.5 -90.5t68 -43t94 -12q85 0 151 27v133h-188v242h461zM807 -104l-227 -342h-246l147 342h326z" />
<glyph horiz-adv-x="1183" d="M1057 631v-588q-220 -72 -451 -72q-120 0 -210 27.5t-160 90t-106 173.5t-36 268q0 125 27 220.5t74 156.5t117 100t148.5 54.5t176.5 15.5q89 0 197.5 -12.5t169.5 -32.5l-80 -254q-114 43 -275 43q-63 0 -103 -10.5t-72.5 -41t-47 -90.5t-14.5 -155q0 -90 14.5 -149.5 t44.5 -90.5t68 -43t94 -12q85 0 151 27v133h-188v242h461zM633 1421q83 0 111 -24.5t28 -106.5q0 -90 -28.5 -117.5t-110.5 -27.5t-111.5 28t-29.5 117q0 82 29 106.5t112 24.5z" />
<glyph horiz-adv-x="1982" d="M1890 1020l-61 -234q-160 45 -309 45q-82 0 -115 -16.5t-33 -73.5q0 -42 35 -58.5t156 -31.5q190 -24 271 -93.5t81 -225.5q0 -83 -24 -146.5t-65 -104t-101.5 -65.5t-128 -35t-150.5 -10q-88 0 -195.5 16t-177.5 42l62 237q146 -43 297 -43q101 0 140.5 17t39.5 75 q0 30 -16 47.5t-61 29.5t-132 20t-146 25.5t-103.5 51.5t-65.5 91t-21 139q0 83 23.5 146.5t64 103t101 64.5t127 34.5t149.5 9.5q86 0 186 -15.5t172 -41.5zM899 1020l-61 -234q-160 45 -310 45q-82 0 -114.5 -16.5t-32.5 -73.5q0 -42 35 -58.5t155 -31.5 q190 -24 271.5 -93.5t81.5 -225.5q0 -83 -24 -146.5t-65 -104t-101.5 -65.5t-128 -35t-150.5 -10q-88 0 -195.5 16t-177.5 42l61 237q146 -43 297 -43q101 0 141 17t40 75q0 30 -16 47.5t-61 29.5t-132 20t-146 25.5t-103.5 51.5t-65.5 91t-21 139q0 83 23.5 146.5t64 103 t101 64.5t127 34.5t149.5 9.5q86 0 186 -15.5t172 -41.5z" />
<glyph horiz-adv-x="1234" d="M33 770v188h102v91h316v-91h333v91h316v-91h104v-188h-104v-770h-316v412h-333v-412h-316v770h-102zM451 680h333v90h-333v-90z" />
<glyph horiz-adv-x="1234" d="M784 412h-335v-412h-314v1047h314v-367h335v367h314v-1047h-314v412zM748 1163q-47 49 -136 146q-23 -25 -66.5 -74.5t-64.5 -71.5h-268q42 44 125 132t125 132h301l258 -264h-274z" />
<glyph horiz-adv-x="1486" d="M451 1049v-1049h-316v1049h316zM1354 1049v-672q0 -92 -25 -164t-66.5 -117t-99.5 -73.5t-118.5 -40t-129.5 -11.5q-186 0 -335 49l55 265q109 -39 242 -39q161 0 161 157v646h316z" />
<glyph horiz-adv-x="581" d="M451 1049v-1049h-316v1049h316zM-6 1171v218h598v-218h-598z" />
<glyph horiz-adv-x="581" d="M451 1049v-1049h-316v1049h316zM299 25h88q-98 -60 -131 -101.5t-33 -99.5q0 -42 24.5 -60t92.5 -18q97 0 160 53l80 -143q-50 -35 -126 -53.5t-149 -18.5q-155 0 -215.5 44t-60.5 139q0 85 68.5 153.5t201.5 104.5z" />
<glyph horiz-adv-x="581" d="M451 1049v-1049h-316v1049h316zM541 1450l147 -119q-32 -85 -96.5 -138.5t-157.5 -53.5q-55 0 -106.5 24t-97 48t-85.5 24q-30 0 -52.5 -21t-45.5 -73l-135 133q92 164 227 164q51 0 97.5 -15t74 -32.5t62 -32.5t65.5 -15q36 0 58 22.5t45 84.5z" />
<glyph horiz-adv-x="907" d="M774 1049v-672q0 -92 -25 -164t-66 -117t-99 -73.5t-118.5 -40t-129.5 -11.5q-187 0 -336 49l55 265q109 -39 242 -39q162 0 162 157v646h315zM739 1163q-23 23 -135 146q-23 -25 -66.5 -74.5t-64.5 -71.5h-268q42 44 125 132t125 132h301l258 -264h-275z" />
<glyph horiz-adv-x="1204" d="M451 1049v-1049h-316v1049h316zM1206 0h-364q-327 521 -391 555q90 83 362 494h363q-123 -189 -220 -314t-141 -162q42 -28 148 -179.5t243 -393.5zM827 -104l-227 -342h-246l148 342h325z" />
<glyph horiz-adv-x="917" d="M451 1049v-770h473v-279h-789v1049h316zM455 1163h-267l252 264h322z" />
<glyph horiz-adv-x="917" d="M451 1049v-770h473v-279h-789v1049h316zM592 1098h266l-119 -393h-186z" />
<glyph horiz-adv-x="917" d="M451 1049v-770h473v-279h-789v1049h316zM690 -104l-227 -342h-246l148 342h325z" />
<glyph horiz-adv-x="917" d="M451 1049v-770h473v-279h-789v1049h316zM684 825q83 0 111 -24.5t28 -106.5q0 -90 -28.5 -117.5t-110.5 -27.5t-111.5 28t-29.5 117q0 82 29 106.5t112 24.5z" />
<glyph horiz-adv-x="1255" d="M805 498v549h313v-1047h-313q-205 385 -356 565v-565h-314v1047h307q230 -299 363 -549zM696 1163h-266l252 264h322z" />
<glyph horiz-adv-x="1255" d="M805 498v549h313v-1047h-313q-205 385 -356 565v-565h-314v1047h307q230 -299 363 -549zM502 1427q90 -98 135 -145q20 22 63.5 70.5t67.5 74.5h266q-42 -44 -125 -132t-125 -132h-301l-258 264h277z" />
<glyph horiz-adv-x="1255" d="M805 498v549h313v-1047h-313q-205 385 -356 565v-565h-314v1047h307q230 -299 363 -549zM809 -104l-227 -342h-246l147 342h326z" />
<glyph horiz-adv-x="1208" d="M602 -29q-131 0 -222.5 27t-157.5 91t-97 172.5t-31 268.5q0 159 31.5 266t98 168.5t157 87t221.5 25.5q133 0 224.5 -25.5t158 -87t98 -168.5t31.5 -266q0 -160 -31 -268.5t-97.5 -172.5t-158.5 -91t-225 -27zM602 831q-60 0 -92.5 -9t-57 -42t-32.5 -92.5t-8 -163.5 q0 -133 18 -198t56 -87t116 -22q80 0 118.5 22t56.5 87t18 198q0 84 -6 137.5t-18 88.5t-37 52t-54 23t-78 6zM281 1427h204q0 -63 28.5 -84.5t94.5 -21.5q65 0 94 22t29 84h193q0 -292 -324 -292q-154 0 -236.5 72t-82.5 220z" />
<glyph horiz-adv-x="1208" d="M602 -29q-131 0 -222.5 27t-157.5 91t-97 172.5t-31 268.5q0 159 31.5 266t98 168.5t157 87t221.5 25.5q133 0 224.5 -25.5t158 -87t98 -168.5t31.5 -266q0 -160 -31 -268.5t-97.5 -172.5t-158.5 -91t-225 -27zM602 831q-60 0 -92.5 -9t-57 -42t-32.5 -92.5t-8 -163.5 q0 -133 18 -198t56 -87t116 -22q80 0 118.5 22t56.5 87t18 198q0 84 -6 137.5t-18 88.5t-37 52t-54 23t-78 6zM471 1163h-209l193 264h258zM836 1163h-209l190 264h260z" />
<glyph horiz-adv-x="1208" d="M602 -29q-131 0 -222.5 27t-157.5 91t-97 172.5t-31 268.5q0 159 31.5 266t98 168.5t157 87t221.5 25.5q133 0 224.5 -25.5t158 -87t98 -168.5t31.5 -266q0 -160 -31 -268.5t-97.5 -172.5t-158.5 -91t-225 -27zM602 831q-60 0 -92.5 -9t-57 -42t-32.5 -92.5t-8 -163.5 q0 -133 18 -198t56 -87t116 -22q80 0 118.5 22t56.5 87t18 198q0 84 -6 137.5t-18 88.5t-37 52t-54 23t-78 6zM305 1171v218h598v-218h-598z" />
<glyph horiz-adv-x="1212" d="M801 1047q91 0 155 -23.5t99 -67t50 -96.5t15 -121q0 -282 -278 -297q61 -16 104 -50.5t103 -123t157 -268.5h-360q-70 137 -120.5 212.5t-84.5 100.5t-72 25h-120v-338h-314v1047h666zM449 582h247q17 0 25 6q76 9 76 104q0 22 -6 37q-14 72 -91 72h-251v-219zM614 1163 h-266l252 264h322z" />
<glyph horiz-adv-x="1212" d="M801 1047q91 0 155 -23.5t99 -67t50 -96.5t15 -121q0 -282 -278 -297q61 -16 104 -50.5t103 -123t157 -268.5h-360q-70 137 -120.5 212.5t-84.5 100.5t-72 25h-120v-338h-314v1047h666zM449 582h247q17 0 25 6q76 9 76 104q0 22 -6 37q-14 72 -91 72h-251v-219zM485 1427 q67 -72 136 -145q20 22 63.5 70.5t67.5 74.5h266q-42 -44 -125 -132t-125 -132h-301l-258 264h276z" />
<glyph horiz-adv-x="1212" d="M801 1047q91 0 155 -23.5t99 -67t50 -96.5t15 -121q0 -282 -278 -297q61 -16 104 -50.5t103 -123t157 -268.5h-360q-70 137 -120.5 212.5t-84.5 100.5t-72 25h-120v-338h-314v1047h666zM449 582h247q17 0 25 6q76 9 76 104q0 22 -6 37q-14 72 -91 72h-251v-219zM807 -104 l-227 -342h-246l147 342h326z" />
<glyph horiz-adv-x="1050" d="M51 401v215h94v72q0 193 121 291t383 98q200 0 357 -53l-62 -248q-136 39 -299 39q-117 0 -159 -33.5t-42 -101.5v-64h316v-215h-316v-143h519v-258h-818v401h-94z" />
<glyph horiz-adv-x="1019" d="M991 776h-456q38 -66 155 -244q-145 -209 -186 -262h465v-270h-951v49q152 202 332 481q-151 224 -297 465v52h938v-271z" />
<glyph horiz-adv-x="997" d="M201 324v217h139v235h-336v271h987v-271h-336v-235h142v-217h-142v-324h-315v324h-139z" />
<glyph horiz-adv-x="997" d="M655 778v-778h-313v778h-338v271h987v-271h-336zM698 -104l-227 -342h-246l148 342h325z" />
<glyph horiz-adv-x="997" d="M655 778v-778h-313v778h-338v271h987v-271h-336zM375 1427q90 -98 135 -145q20 22 63.5 70.5t67.5 74.5h266q-42 -44 -125 -132t-125 -132h-301l-258 264h277z" />
<glyph horiz-adv-x="1212" d="M608 250q97 0 130.5 41t33.5 141v617h313v-600q0 -267 -106.5 -372.5t-370.5 -105.5q-266 0 -373.5 105.5t-107.5 372.5v600h311v-617q0 -99 36 -140.5t134 -41.5zM848 1450l147 -119q-32 -85 -96.5 -138.5t-157.5 -53.5q-55 0 -106 24t-96.5 48t-85.5 24 q-30 0 -53.5 -21t-45.5 -73l-135 133q92 164 227 164q51 0 97.5 -15t74 -32.5t62 -32.5t65.5 -15q36 0 58 22.5t45 84.5z" />
<glyph horiz-adv-x="1212" d="M608 250q97 0 130.5 41t33.5 141v617h313v-600q0 -267 -106.5 -372.5t-370.5 -105.5q-266 0 -373.5 105.5t-107.5 372.5v600h311v-617q0 -99 36 -140.5t134 -41.5zM608 1520q134 0 193 -45t59 -160t-59 -160t-193 -45q-135 0 -195.5 45t-60.5 160q0 116 58.5 160.5 t197.5 44.5zM608 1393q-58 0 -77 -17.5t-19 -62.5q0 -44 19 -61t77 -17q56 0 75 17.5t19 60.5q0 46 -18.5 63t-75.5 17z" />
<glyph horiz-adv-x="1212" d="M608 250q97 0 130.5 41t33.5 141v617h313v-600q0 -267 -106.5 -372.5t-370.5 -105.5q-266 0 -373.5 105.5t-107.5 372.5v600h311v-617q0 -99 36 -140.5t134 -41.5zM702 25h89q-98 -60 -131 -101.5t-33 -99.5q0 -42 24 -60t92 -18q97 0 160 53l80 -143 q-50 -35 -125.5 -53.5t-148.5 -18.5q-155 0 -216 44t-61 139q0 85 68.5 153.5t201.5 104.5z" />
<glyph horiz-adv-x="1212" d="M608 250q97 0 130.5 41t33.5 141v617h313v-600q0 -267 -106.5 -372.5t-370.5 -105.5q-266 0 -373.5 105.5t-107.5 372.5v600h311v-617q0 -99 36 -140.5t134 -41.5zM311 1171v218h598v-218h-598z" />
</font>
</defs>
</svg>
