<?xml version="1.0" standalone="no"?>
<!DOCTYPE svg PUBLIC "-//W3C//DTD SVG 1.1//EN" "http://www.w3.org/Graphics/SVG/1.1/DTD/svg11.dtd" >
<svg xmlns="http://www.w3.org/2000/svg">
<metadata></metadata>
<defs>
<font id="etelka_text_proregular" horiz-adv-x="489" >
<font-face units-per-em="2048" ascent="1638" descent="-410" />
<missing-glyph horiz-adv-x="565" />
<glyph unicode="ff" horiz-adv-x="1386" d="M1028 1114v-76h352v-172h-352v-866h-194v866h-445v-866h-192v866h-179v172h179v70q0 93 25 161.5t64 107.5t99.5 62.5t118.5 30.5t133 7q157 0 313 -60q77 60 240 60q143 0 262 -39l-47 -158q-83 27 -193 27q-91 0 -137.5 -41.5t-46.5 -151.5zM389 1102v-64h445v82 q0 91 22 152q-110 35 -221 35q-61 0 -102.5 -8t-76 -29t-51 -62.5t-16.5 -105.5z" />
<glyph unicode="fi" horiz-adv-x="1175" d="M1028 1038v-1038h-194v866h-445v-866h-192v866h-179v172h179v70q0 89 23.5 155t62.5 106.5t98.5 65t123 33.5t144.5 9q202 0 369 -66l-51 -158q-137 54 -301 54q-68 0 -114 -7.5t-85.5 -28.5t-58.5 -63t-19 -106v-64h639z" />
<glyph unicode="fl" horiz-adv-x="1185" d="M1028 1411v-1132q0 -83 19 -131t69 -103l-164 -90q-61 63 -89.5 134t-28.5 181v1010q-94 27 -199 27q-58 0 -98 -7.5t-76 -28.5t-54 -63t-18 -106v-64h324v-172h-324v-866h-192v866h-179v172h179v70q0 90 23 156t61 106.5t96.5 65t119.5 33t140 8.5q202 0 391 -66z" />
<glyph unicode="ffi" horiz-adv-x="1812" d="M1665 1038v-1038h-192v866h-445v-866h-194v866h-445v-866h-192v866h-179v172h179v70q0 75 15 134t44 98.5t66 67t85.5 42.5t97 21t107.5 6q189 0 357 -68q108 68 317 68q202 0 369 -66l-49 -158q-141 54 -303 54q-68 0 -113.5 -7.5t-84.5 -28.5t-58 -63t-19 -106v-64h637 zM389 1102v-64h445v70q0 93 28 160q-104 39 -227 39q-61 0 -102.5 -8t-76 -29t-51 -62.5t-16.5 -105.5z" />
<glyph unicode="ffl" horiz-adv-x="1824" d="M1665 1411v-1132q0 -76 19.5 -128t70.5 -106l-166 -90q-61 63 -88.5 134t-27.5 181v1010q-95 27 -201 27q-118 0 -181 -44t-63 -161v-64h322v-172h-322v-866h-194v866h-445v-866h-192v866h-179v172h179v70q0 75 15 134t44 98.5t66 67t85.5 42.5t97 21t107.5 6 q190 0 355 -68q103 68 307 68q202 0 391 -66zM834 1108q0 98 30 162q-119 37 -229 37q-137 0 -191.5 -49.5t-54.5 -186.5v-33h445v70z" />
<glyph unicode="Th" horiz-adv-x="2168" d="M2025 592v-592h-194v567q0 101 -12.5 164.5t-43.5 99t-73.5 48t-110.5 12.5q-100 0 -171.5 -32t-71.5 -87v-772h-195v1249h-444v-1249h-211v1249h-490v178h1340v-438q48 32 128 55t164 23q103 0 171.5 -20.5t118.5 -73t72.5 -145.5t22.5 -236z" />
<glyph unicode="ffk" horiz-adv-x="2377" d="M1665 1411v-1411h-192v1280q-95 27 -201 27q-57 0 -97.5 -8t-76 -29t-53 -63t-17.5 -105v-64h322v-172h-322v-866h-194v866h-445v-866h-192v866h-179v172h179v70q0 86 21.5 151.5t57.5 105.5t88.5 65.5t108.5 35t123 9.5q219 0 371 -66q103 68 307 68q216 -3 391 -66z M834 1108q0 98 30 162q-119 37 -229 37q-135 0 -190.5 -50t-55.5 -186v-33h445v70zM2380 0h-236q-384 511 -479 549q111 83 444 489h236q-152 -187 -268 -310.5t-166 -160.5q45 -26 168 -173t301 -394z" />
<glyph unicode="fk" horiz-adv-x="1738" d="M1028 0h-194v1280q-94 27 -199 27q-57 0 -97.5 -8t-76 -29t-54 -63t-18.5 -105v-64h324v-172h-324v-866h-192v866h-179v172h179v70q0 90 23 156t61 106.5t96.5 65t119.5 33t140 8.5q208 0 391 -66v-1411zM1743 0h-238q-385 513 -477 549q50 37 167.5 165t277.5 324h235 q-156 -190 -271 -313t-165 -158q99 -56 471 -567z" />
<glyph unicode="fj" horiz-adv-x="1175" d="M834 -41v907h-445v-866h-192v866h-179v172h179v70q0 89 23.5 155t62.5 106.5t98.5 65t123 33.5t144.5 9q202 0 369 -66l-51 -158q-137 54 -301 54q-68 0 -114 -7.5t-85.5 -28.5t-58.5 -63t-19 -106v-64h639v-1079q0 -208 -98.5 -295.5t-286.5 -79.5v168q102 0 146.5 42 t44.5 165z" />
<glyph unicode=" "  horiz-adv-x="565" />
<glyph unicode="&#x09;" horiz-adv-x="565" />
<glyph unicode="&#xa0;" horiz-adv-x="565" />
<glyph unicode="!" horiz-adv-x="679" d="M211 1427h254l-55 -997h-144zM340 252q80 0 107.5 -23t27.5 -100q0 -83 -27.5 -108t-107.5 -25q-77 0 -105 25t-28 108q0 76 28 99.5t105 23.5z" />
<glyph unicode="&#x22;" horiz-adv-x="690" d="M92 1427h193l-39 -481h-131zM412 1427h186l-39 -481h-129z" />
<glyph unicode="#" horiz-adv-x="1402" d="M86 911l10 158h277l22 358h183l-21 -358h309l23 358h184l-22 -358h290l-10 -158h-291l-24 -362h297l-10 -156h-295l-25 -393h-184l24 393h-309l-27 -393h-182l25 393h-275l13 156h270l24 362h-276zM545 911l-23 -362h312l22 362h-311z" />
<glyph unicode="$" horiz-adv-x="1275" d="M561 1690h152v-287q229 0 381 -47l-52 -180q-45 21 -140 34t-189 15v-422q216 -29 318 -122t102 -265q0 -187 -105.5 -282.5t-314.5 -117.5v-297h-152v291q-240 0 -391 49l51 179q58 -20 158 -34t182 -14v445q-215 24 -314.5 105.5t-99.5 250.5q0 186 105 284t309 120 v295zM346 1008q0 -89 46 -130.5t169 -56.5v396q-106 -14 -160.5 -64t-54.5 -145zM930 408q0 92 -46.5 139t-170.5 67v-415q108 14 162.5 63t54.5 146z" />
<glyph unicode="%" horiz-adv-x="1865" d="M1253 1427h193l-842 -1427h-192zM430 1462q92 0 154 -20t107 -70.5t65 -137.5t20 -220q0 -177 -38.5 -279.5t-111.5 -143t-196 -40.5q-121 0 -194 40.5t-111.5 143t-38.5 279.5q0 133 20.5 220.5t65 137.5t106 70t152.5 20zM430 694q98 0 134 65.5t36 252.5 q0 130 -16.5 195t-51 87.5t-102.5 22.5q-66 0 -100 -22.5t-52 -88.5t-18 -194q0 -185 37.5 -251.5t132.5 -66.5zM1434 883q92 0 154 -20t106 -70.5t64 -138t20 -220.5q0 -177 -38 -279.5t-111 -143t-195 -40.5q-121 0 -194 40.5t-111.5 143t-38.5 279.5q0 106 14 183 t40 128.5t69 82t95.5 43t125.5 12.5zM1434 115q97 0 133.5 66t36.5 251q0 129 -17 195t-51.5 89t-101.5 23q-49 0 -79 -11.5t-51.5 -45t-30.5 -93.5t-9 -157q0 -183 37.5 -250t132.5 -67z" />
<glyph unicode="&#x26;" horiz-adv-x="1591" d="M1513 815q0 -130 -49.5 -258.5t-138.5 -239.5q59 -78 213 -317h-235q-58 99 -117 182q-135 -115 -252 -163t-295 -48q-139 0 -234.5 19.5t-162 66t-97 124.5t-30.5 194q0 164 91.5 265t285.5 110q-75 7 -127.5 28.5t-81.5 49.5t-45 74t-20.5 87.5t-4.5 102.5 q0 186 108.5 278t362.5 92t363.5 -85.5t109.5 -268.5q0 -57 -8 -102.5t-29.5 -89t-56 -74t-90.5 -51.5t-131 -27q76 -8 160.5 -74t203.5 -223q103 163 103 348h204zM639 143q150 0 242.5 40t199.5 145q-125 176 -224.5 261t-201.5 85q-165 0 -241 -62.5t-76 -208.5 q0 -145 64.5 -202.5t236.5 -57.5zM670 840q138 0 207 55t69 178q0 117 -59.5 165t-202.5 48t-201.5 -47t-58.5 -164q0 -126 56.5 -180.5t189.5 -54.5z" />
<glyph unicode="'" horiz-adv-x="376" d="M92 1427h193l-39 -481h-131z" />
<glyph unicode="(" horiz-adv-x="571" d="M139 510q0 845 430 1049l93 -150q-66 -28 -120 -88.5t-99.5 -163.5t-71 -268t-25.5 -379t25.5 -379t71 -268t99.5 -163.5t120 -88.5l-93 -150q-430 204 -430 1049z" />
<glyph unicode=")" horiz-adv-x="571" d="M432 510q0 -843 -430 -1049l-92 150q52 22 96.5 63t85.5 113t70 169.5t46 239t17 314.5q0 213 -25.5 378t-70.5 268.5t-99 164t-120 88.5l92 150q430 -206 430 -1049z" />
<glyph unicode="*" horiz-adv-x="935" d="M61 1020v158h269l-135 235l139 78l133 -234l133 234l141 -80l-137 -233h270v-158h-270l135 -234l-139 -77l-133 229l-133 -229l-139 79l133 232h-267z" />
<glyph unicode="+" horiz-adv-x="1232" d="M121 645v182h401v404h185v-404h403v-182h-403v-401h-185v401h-401z" />
<glyph unicode="," horiz-adv-x="552" d="M438 205l-229 -531h-176l162 531h243z" />
<glyph unicode="-" horiz-adv-x="593" d="M63 479v183h467v-183h-467z" />
<glyph unicode="." horiz-adv-x="552" d="M274 252q81 0 108.5 -23t27.5 -100q0 -84 -27.5 -108.5t-108.5 -24.5q-77 0 -104 25t-27 108q0 77 27 100t104 23z" />
<glyph unicode="/" horiz-adv-x="915" d="M786 1427h215l-731 -1427h-211z" />
<glyph unicode="0" horiz-adv-x="1277" d="M639 1462q109 0 188.5 -20.5t144.5 -70t105 -132.5t61 -208.5t21 -297.5q0 -218 -31.5 -366t-98 -235t-160.5 -124t-230 -37q-108 0 -188.5 23t-145 76.5t-105 141t-62 217t-21.5 304.5q0 172 21.5 297.5t61.5 208.5t105.5 132.5t145 70t188.5 20.5zM637 158 q74 0 124 15.5t88.5 52.5t59.5 104t31 164t10 239q0 122 -6 207.5t-22.5 148t-38.5 100t-59.5 59t-80 29t-106.5 7.5q-74 0 -121 -11.5t-86 -44t-59.5 -95t-31.5 -159t-11 -241.5q0 -141 10.5 -238.5t32 -164.5t59.5 -104t86.5 -52.5t120.5 -15.5z" />
<glyph unicode="1" horiz-adv-x="1277" d="M801 0h-207v1204l-320 -145l-61 168l588 256v-1483z" />
<glyph unicode="2" horiz-adv-x="1277" d="M223 1219l-47 182q214 61 426 61q271 0 394.5 -91.5t123.5 -317.5q0 -76 -9.5 -132.5t-39.5 -120.5t-78 -122t-132.5 -135t-195.5 -162.5t-274 -202.5h723v-178h-1001v166q198 155 317.5 250.5t216 182.5t140.5 135.5t73.5 105t35 95.5t5.5 103q0 135 -70.5 185.5 t-242.5 50.5q-95 0 -202.5 -15.5t-162.5 -39.5z" />
<glyph unicode="3" horiz-adv-x="1277" d="M410 670v174h180q159 0 228 52.5t69 174.5q0 78 -28 121t-101.5 64.5t-208.5 21.5q-95 0 -201.5 -13t-175.5 -34l-45 178q257 53 448 53q197 0 314.5 -39t167 -115.5t49.5 -201.5q0 -73 -12.5 -127t-44.5 -102.5t-94 -77.5t-154 -37q98 -4 165.5 -33.5t103.5 -81.5 t50.5 -114t14.5 -144q0 -230 -133.5 -324t-434.5 -94q-211 0 -452 56l43 174q151 -45 383 -45q149 0 228.5 26t109.5 78.5t30 149.5q0 145 -71 202.5t-246 57.5h-182z" />
<glyph unicode="4" horiz-adv-x="1267" d="M772 391h-717v60q116 214 293.5 496t327.5 480h299v-862h196v-174h-196v-391h-203v391zM772 565v699q-112 -140 -242.5 -344.5t-212.5 -354.5h455z" />
<glyph unicode="5" horiz-adv-x="1277" d="M213 1427h846v-178h-647v-389q102 10 200 10q197 0 311 -45.5t163 -140t49 -254.5q0 -132 -31 -220t-100.5 -141.5t-171.5 -75.5t-254 -22q-199 0 -433 56l45 174q145 -45 361 -45q110 0 178.5 12.5t109 44.5t55.5 78.5t15 122.5q0 110 -26.5 167.5t-98 84t-209.5 26.5 q-204 0 -362 -33v768z" />
<glyph unicode="6" horiz-adv-x="1277" d="M1141 1405l-54 -184q-132 51 -327 51q-85 0 -144 -9.5t-112.5 -36.5t-86 -74t-52.5 -124t-23 -186q149 28 320 28q149 0 249 -24.5t162 -79t88.5 -136t26.5 -202.5q0 -132 -29 -219t-94 -140.5t-161 -75.5t-240 -22q-153 0 -253 35t-167 122.5t-95 230.5t-28 364 q0 175 25 301t72.5 211t127 135t178.5 71t236 21q189 0 381 -57zM664 156q125 0 190.5 26.5t89 79t23.5 150.5q0 80 -12.5 130.5t-46.5 85t-91 49t-149 15.5q-216 0 -328 -28q1 -127 15 -216.5t38.5 -146.5t65.5 -89t88.5 -44t116.5 -12z" />
<glyph unicode="7" horiz-adv-x="1277" d="M1214 1427v-67q-153 -247 -337.5 -648t-290.5 -712h-238q126 343 290.5 696.5t297.5 552.5h-774v178h1052z" />
<glyph unicode="8" horiz-adv-x="1277" d="M639 143q172 0 237.5 58.5t65.5 201.5q0 148 -69.5 209.5t-233.5 61.5t-233.5 -61.5t-69.5 -209.5q0 -143 65.5 -201.5t237.5 -58.5zM639 840q146 0 210 54.5t64 180.5q0 118 -60.5 165.5t-213.5 47.5t-213.5 -47.5t-60.5 -165.5q0 -126 64.5 -180.5t209.5 -54.5z M639 -29q-276 0 -399 94.5t-123 323.5q0 83 14.5 144t50 113.5t103 82t166.5 33.5q-75 7 -129.5 28t-86.5 51t-51 74t-25.5 88.5t-6.5 102.5q0 186 109.5 271t377.5 85q182 0 290 -40t153.5 -116t45.5 -200q0 -58 -6.5 -102.5t-25.5 -88.5t-51 -74t-86.5 -51t-129.5 -28 q98 -4 165 -33.5t102.5 -81.5t50 -113.5t14.5 -144.5q0 -229 -122.5 -323.5t-399.5 -94.5z" />
<glyph unicode="9" horiz-adv-x="1277" d="M369 0q176 156 301 297t194 283q-126 -17 -225 -17q-296 0 -411 92.5t-115 329.5q0 261 120.5 369t403.5 108q159 0 257 -21.5t162 -79t88.5 -150.5t24.5 -244q0 -121 -30.5 -238t-78.5 -212t-120.5 -192t-142 -170t-158.5 -155h-270zM653 741q149 0 275 21q22 76 22 178 q0 77 -7 132t-24.5 93t-39.5 60.5t-60.5 34.5t-79 16t-102.5 4q-93 0 -153.5 -16.5t-93.5 -54t-45.5 -86.5t-12.5 -124q0 -82 12.5 -129.5t50 -78t97 -40.5t161.5 -10z" />
<glyph unicode=":" horiz-adv-x="552" d="M274 252q81 0 108.5 -23t27.5 -100q0 -84 -27.5 -108.5t-108.5 -24.5q-77 0 -104 25t-27 108q0 77 27 100t104 23zM274 1044q81 0 108.5 -22.5t27.5 -99.5q0 -84 -27.5 -109t-108.5 -25q-77 0 -104 25.5t-27 108.5q0 77 27 99.5t104 22.5z" />
<glyph unicode=";" horiz-adv-x="552" d="M438 205l-229 -531h-176l162 531h243zM274 1044q81 0 108.5 -22.5t27.5 -99.5q0 -84 -27.5 -109t-108.5 -25q-77 0 -104 25.5t-27 108.5q0 77 27 99.5t104 22.5z" />
<glyph unicode="&#x3c;" horiz-adv-x="1232" d="M1055 1239l-602 -502l602 -506l-105 -135l-749 590v98l747 588z" />
<glyph unicode="=" horiz-adv-x="1232" d="M121 397v183h989v-183h-989zM121 883v182h989v-182h-989z" />
<glyph unicode="&#x3e;" horiz-adv-x="1232" d="M201 231l602 502l-602 504l104 137l752 -590v-98l-748 -588z" />
<glyph unicode="?" horiz-adv-x="980" d="M459 252q81 0 109 -23t28 -100q0 -83 -28 -108t-109 -25q-77 0 -104 25t-27 108q0 77 27 100t104 23zM569 422h-215q173 170 249.5 318.5t76.5 320.5q0 109 -58.5 160t-211.5 51q-178 0 -287 -45l-49 184q61 21 165.5 36t180.5 15q261 0 376 -100.5t115 -300.5 q0 -176 -81 -320.5t-261 -318.5z" />
<glyph unicode="@" horiz-adv-x="1914" d="M870 1122q-112 0 -188.5 -8.5t-142.5 -32.5t-106 -64t-68.5 -105.5t-40 -154.5t-11.5 -214q0 -122 12.5 -209.5t44 -154.5t78 -108.5t121 -67.5t166.5 -36t221 -10t222.5 12.5t168.5 42.5t123 77t80 121t45 169.5t13 226.5q0 285 -45 412h190q43 -139 43 -418 q0 -157 -21.5 -278.5t-68 -212t-113 -152t-162.5 -99.5t-211 -54.5t-264 -16.5q-150 0 -264 14.5t-210 49.5t-161.5 91.5t-111.5 140.5t-67 197.5t-21 262.5q0 176 31.5 305t89 213.5t150.5 135.5t204 72t260 21q97 0 165 -7.5t130 -29.5t101 -60.5t69 -101t42.5 -151 t12.5 -209.5q0 -116 -9.5 -199t-32.5 -143.5t-54 -97t-83.5 -58t-111.5 -29t-145 -7.5q-119 0 -195.5 15.5t-129 55t-74 105.5t-21.5 170q0 88 15.5 148.5t43 98.5t77.5 58.5t107 27.5t144 7q162 0 283 -23q-3 153 -71.5 207.5t-248.5 54.5zM958 733q-75 0 -116 -5.5 t-71.5 -25t-41 -54.5t-10.5 -97q0 -117 48.5 -157t186.5 -40q136 0 186 53t50 207v103q-101 16 -232 16z" />
<glyph unicode="A" horiz-adv-x="1382" d="M1161 0q-118 298 -153 397h-662q-61 -182 -129 -397h-215q247 743 528 1427h338q273 -834 527 -1427h-234zM719 1255h-57q-125 -312 -256 -680h540q-99 272 -227 680z" />
<glyph unicode="B" horiz-adv-x="1433" d="M401 176h506q170 0 170 240q0 120 -44.5 188t-133.5 68h-498v-496zM401 1251v-409h490q156 0 156 209q0 102 -34.5 151t-121.5 49h-490zM977 762q79 -4 137 -23.5t93.5 -50.5t56.5 -78t28.5 -97t7.5 -116q0 -200 -93.5 -298.5t-268.5 -98.5h-743v1427h727q83 0 145 -17 t99.5 -46t60.5 -73.5t31 -92.5t8 -111q0 -59 -5.5 -100.5t-23 -83.5t-49 -68.5t-84.5 -46t-127 -26.5z" />
<glyph unicode="C" horiz-adv-x="1222" d="M119 727q0 175 26.5 301t76.5 210t132 133.5t184 70t242 20.5q96 0 209 -15t195 -38l-51 -186q-59 22 -152.5 35.5t-175.5 13.5q-91 0 -151.5 -7t-116.5 -28t-89 -58t-58.5 -98.5t-35.5 -148t-10 -207.5t10.5 -208t35 -150t58.5 -102t89 -62t117 -31t151 -8 q81 0 174.5 13t153.5 34l51 -186q-82 -24 -194 -39t-210 -15q-174 0 -293.5 36.5t-204.5 123t-124 233t-39 363.5z" />
<glyph unicode="D" horiz-adv-x="1474" d="M195 1427h491q140 0 242.5 -20.5t186 -69.5t134.5 -130t78 -202t27 -286t-26.5 -287t-78 -205t-134 -133.5t-186.5 -72t-243 -21.5h-491v1427zM1133 717q0 87 -5.5 154.5t-18.5 122t-31 93.5t-47 68t-62 47t-80 28.5t-97.5 14.5t-117.5 4h-273v-1071h273q133 0 216 22.5 t140 83.5t80 164.5t23 268.5z" />
<glyph unicode="E" horiz-adv-x="1259" d="M195 1427h1005v-178h-799v-405h568v-176h-568v-490h799v-178h-1005v1427z" />
<glyph unicode="F" horiz-adv-x="1181" d="M195 1427h987v-178h-781v-477h568v-176h-568v-596h-206v1427z" />
<glyph unicode="G" horiz-adv-x="1411" d="M1040 186v441h-342v174h553v-776q-80 -25 -217 -39.5t-254 -14.5q-174 0 -293.5 36.5t-204.5 123t-124 233t-39 363.5q0 145 18.5 257t57.5 193t93.5 136t133 88t169.5 47t208 14q97 0 214.5 -15t200.5 -38l-51 -184q-58 22 -162.5 35.5t-189.5 13.5q-92 0 -154 -7 t-118.5 -28.5t-90 -58.5t-59 -99t-35.5 -148.5t-10 -207.5t10.5 -208.5t35 -151t58.5 -103t88.5 -62.5t117 -31.5t151.5 -8.5q120 0 235 26z" />
<glyph unicode="H" horiz-adv-x="1484" d="M401 666v-666h-206v1427h206v-571h684v571h207v-1427h-207v666h-684z" />
<glyph unicode="I" horiz-adv-x="593" d="M195 1427h206v-1427h-206v1427z" />
<glyph unicode="J" horiz-adv-x="923" d="M731 1427v-1034q0 -100 -23 -176t-60.5 -122t-92.5 -74.5t-110.5 -39t-122.5 -10.5q-153 0 -302 60l52 188q45 -22 111.5 -35.5t123.5 -13.5q44 0 78.5 10t67 35t50 75t17.5 122v1015h211z" />
<glyph unicode="K" horiz-adv-x="1308" d="M401 1427v-1427h-206v1427h206zM1329 0h-264q-218 327 -400.5 526.5t-261.5 227.5q85 54 256.5 236t360.5 437h262q-199 -253 -362 -428t-234 -227q75 -46 254.5 -251t388.5 -521z" />
<glyph unicode="L" horiz-adv-x="1122" d="M195 1427h206v-1245h707v-182h-913v1427z" />
<glyph unicode="M" horiz-adv-x="1826" d="M922 434q190 495 434 993h278v-1427h-204v1163q-210 -456 -443 -1020h-160q-247 615 -432 1020v-1163h-200v1427h294q252 -526 433 -993z" />
<glyph unicode="N" horiz-adv-x="1540" d="M1346 1427v-1427h-254q-311 575 -693 1178v-1178h-204v1427h276q319 -486 666 -1118v1118h209z" />
<glyph unicode="O" horiz-adv-x="1564" d="M782 1462q140 0 242 -21t185 -71.5t133.5 -135t77 -211t26.5 -300.5q0 -176 -26.5 -304t-77 -214.5t-132.5 -138t-185 -73.5t-243 -22q-139 0 -241.5 22t-185 73.5t-133 138t-77 214.5t-26.5 304q0 174 26.5 300.5t77 211t133 135t184.5 71.5t242 21zM782 158 q89 0 151.5 9t114 33.5t83.5 64t54 103.5t31 148.5t9 202.5q0 122 -8.5 208t-31 149.5t-54 101.5t-84 61t-114 31t-151.5 8t-150.5 -8t-113 -31t-83 -61t-52.5 -101.5t-30.5 -149.5t-8.5 -208q0 -118 8.5 -202.5t30 -148.5t53 -103.5t83 -64t113.5 -33.5t150 -9z" />
<glyph unicode="P" horiz-adv-x="1353" d="M401 676h443q104 0 157.5 72.5t53.5 203.5q0 145 -52 222t-151 77h-451v-575zM401 0h-208v1427h690q401 0 401 -477q0 -91 -22 -169.5t-67 -143t-123 -102t-181 -37.5h-490v-498z" />
<glyph unicode="Q" horiz-adv-x="1605" d="M803 1462q140 0 242 -21t184.5 -71.5t133 -135t77 -211t26.5 -300.5q0 -349 -103 -513.5t-327 -203.5q148 -28 430 -399h-254q-116 171 -227.5 263.5t-189.5 100.5q-137 1 -238.5 23t-183 74t-131.5 138.5t-76.5 214.5t-26.5 302t26.5 300.5t77 211t133.5 135t185 71.5 t242 21zM803 158q89 0 151.5 9t114 33.5t83.5 64t53.5 103.5t30.5 148.5t9 202.5q0 122 -8.5 208t-31 149.5t-53.5 101.5t-84 61t-114 31t-151 8t-150.5 -8t-113.5 -31t-84 -61t-53.5 -101.5t-31 -149.5t-8.5 -208q0 -118 9 -202.5t31 -148.5t53.5 -103.5t83 -64t114 -33.5 t150.5 -9z" />
<glyph unicode="R" horiz-adv-x="1415" d="M401 1251v-493h443q101 0 155 62.5t54 176.5q0 124 -52 189t-149 65h-451zM891 629q74 -26 193 -180t296 -449h-260q-332 582 -485 582h-234v-582h-206v1427h690q399 0 399 -415q0 -79 -20 -144.5t-63.5 -120t-122.5 -86t-187 -32.5z" />
<glyph unicode="S" horiz-adv-x="1275" d="M1120 1403l-49 -182q-55 22 -160 36.5t-204 14.5q-189 0 -279 -52t-90 -182q0 -66 27.5 -106.5t102.5 -68t208 -38.5q254 -23 369.5 -122t115.5 -297q0 -231 -150 -333t-446 -102q-107 0 -224 17t-202 45l51 180q67 -22 171.5 -36.5t199.5 -14.5q191 0 285 51.5t94 181.5 q0 50 -15 87.5t-52 69.5t-106 53t-171 30q-254 21 -367.5 107t-113.5 278q0 234 150 338t442 104q103 0 216 -16.5t197 -42.5z" />
<glyph unicode="T" horiz-adv-x="1204" d="M709 0h-211v1249h-490v178h1188v-178h-487v-1249z" />
<glyph unicode="U" horiz-adv-x="1515" d="M1137 1427h209v-964q0 -119 -26 -205.5t-72.5 -141.5t-122 -87.5t-162.5 -45t-205 -12.5t-204.5 12.5t-162 45t-122 87.5t-73 141.5t-26.5 205.5v964h211v-944q0 -97 21 -160t69.5 -99t115.5 -50t171 -14q102 0 169 13.5t116.5 49t71.5 99t22 161.5v944z" />
<glyph unicode="V" horiz-adv-x="1318" d="M-14 1427h233q267 -641 443 -1234q207 496 436 1234h217q-236 -739 -531 -1427h-270q-113 364 -256.5 754t-271.5 673z" />
<glyph unicode="W" horiz-adv-x="1925" d="M979 1098q-74 -376 -293 -1098h-264q-242 936 -418 1427h229q189 -562 334 -1183q228 763 312 1183h200q195 -728 259 -1023q19 -88 32 -160q200 609 332 1183h213q-188 -753 -418 -1427h-266q-78 409 -252 1098z" />
<glyph unicode="X" horiz-adv-x="1353" d="M285 1427q182 -234 405 -526q187 250 379 526h252q-213 -305 -504 -698q283 -383 526 -729h-258q-252 354 -397 553q-196 -261 -426 -553h-252q228 287 551 723q-293 392 -541 704h265z" />
<glyph unicode="Y" horiz-adv-x="1273" d="M225 1427q221 -276 428 -585q237 311 414 585h248q-288 -423 -567 -776v-651h-209v651q-305 440 -584 776h270z" />
<glyph unicode="Z" horiz-adv-x="1259" d="M39 0v61q448 582 860 1188h-811v178h1129v-57q-193 -296 -430.5 -625.5t-430.5 -566.5h834v-178h-1151z" />
<glyph unicode="[" horiz-adv-x="620" d="M180 1546h482v-170h-279v-1741h279v-167h-482v2078z" />
<glyph unicode="\" horiz-adv-x="915" d="M-80 1427h217l727 -1427h-213z" />
<glyph unicode="]" horiz-adv-x="620" d="M-41 1546h481v-2078h-481v167h279v1741h-279v170z" />
<glyph unicode="^" horiz-adv-x="1026" d="M795 606l-287 619l-285 -619h-198l389 821h192l395 -821h-206z" />
<glyph unicode="_" horiz-adv-x="888" d="M63 -301v182h762v-182h-762z" />
<glyph unicode="`" horiz-adv-x="999" d="M666 1163h-183l-284 264h221z" />
<glyph unicode="a" horiz-adv-x="1128" d="M983 664v-611q-90 -37 -213.5 -59.5t-230.5 -22.5q-239 0 -334.5 74.5t-95.5 273.5q0 86 20.5 148.5t54 99.5t88.5 59t111.5 29t134.5 7q125 0 277 -31q0 84 -11.5 133.5t-45 80.5t-85.5 41.5t-141 10.5q-182 0 -307 -49l-41 168q188 51 379 51q118 0 198 -19t136 -65 t81 -124t25 -195zM795 170v317q-95 23 -242 23q-73 0 -112.5 -5.5t-70.5 -24t-42 -54t-11 -96.5q0 -67 9.5 -105t38.5 -60.5t70 -29t116 -6.5q129 0 244 41z" />
<glyph unicode="b" horiz-adv-x="1187" d="M342 772v-594q101 -39 244 -39q84 0 133.5 13.5t85 55.5t48.5 115.5t13 196.5q0 113 -13.5 183.5t-47 114t-84.5 59.5t-133 16q-104 0 -175 -32.5t-71 -88.5zM150 51v1428h192v-488q107 76 276 76q94 0 164 -16.5t126 -54.5t90.5 -101t52.5 -156t18 -219 q0 -159 -28 -265.5t-89.5 -169t-149 -88.5t-216.5 -26q-106 0 -229.5 22t-206.5 58z" />
<glyph unicode="c" horiz-adv-x="958" d="M881 197l51 -170q-58 -25 -145.5 -40.5t-161.5 -15.5q-125 0 -215 27t-158 89.5t-101.5 171t-33.5 265.5q0 156 34 263t102 168t158 86.5t214 25.5q72 0 161 -14t146 -35l-51 -172q-106 47 -248 47q-86 0 -139 -13t-94.5 -52.5t-59.5 -114t-18 -193.5q0 -113 18 -187 t59 -115t96 -57t138 -16q122 0 248 52z" />
<glyph unicode="d" horiz-adv-x="1187" d="M846 180v594q0 57 -71 90t-175 33q-108 0 -166 -32t-85 -112.5t-27 -230.5q0 -97 9.5 -162t28 -109t53.5 -67t78.5 -32t110.5 -9q143 0 244 37zM1038 1479v-1428q-83 -36 -206.5 -58t-229.5 -22q-129 0 -216.5 25.5t-149.5 88t-90.5 168.5t-28.5 265q0 156 29 263.5 t89.5 170t143 89t199.5 26.5q158 0 268 -70v482h192z" />
<glyph unicode="e" horiz-adv-x="1124" d="M928 190l37 -161q-80 -25 -181 -41.5t-174 -16.5q-120 0 -207.5 27t-153.5 89.5t-99 171t-33 265.5q0 152 30.5 258t93 168t148 89.5t203.5 27.5q122 0 202 -25.5t136.5 -91t80 -180t19.5 -291.5h-706q1 -104 19 -170.5t58 -103.5t94 -50.5t138 -13.5q58 0 146.5 14 t148.5 35zM600 905q-143 0 -202.5 -57t-71.5 -211h512q-5 111 -30 168.5t-72.5 78.5t-135.5 21z" />
<glyph unicode="f" horiz-adv-x="749" d="M389 1114v-76h354v-172h-354v-866h-192v866h-179v172h179v82q0 92 21 158t53.5 104t84.5 60t102 28.5t117 6.5q123 0 238 -39l-45 -158q-86 27 -195 27q-91 0 -137.5 -40.5t-46.5 -152.5z" />
<glyph unicode="g" horiz-adv-x="1187" d="M846 268v594q-104 37 -244 37q-67 0 -110.5 -8.5t-78.5 -31t-53.5 -66t-28 -109.5t-9.5 -164q0 -151 26.5 -231t84.5 -112t167 -32q104 0 175 33t71 90zM846 51q-110 -78 -275 -78q-119 0 -200.5 26t-140 88.5t-86 168.5t-27.5 264t28.5 264t90.5 168.5t149.5 88.5 t216.5 26q105 0 229 -21.5t207 -56.5v-911q0 -116 -25 -202.5t-68.5 -142t-112 -89t-147 -47t-181.5 -13.5q-78 0 -183 18t-167 42l45 166q62 -24 149.5 -40t153.5 -16q176 0 260 64.5t84 232.5z" />
<glyph unicode="h" horiz-adv-x="1163" d="M635 1067q103 0 171.5 -20.5t118.5 -73t72.5 -145.5t22.5 -236v-592h-195v567q0 84 -8.5 138t-33 98.5t-73 65t-124.5 20.5q-101 0 -172.5 -31.5t-71.5 -87.5v-770h-195v1479h195v-490q48 32 128.5 55t164.5 23z" />
<glyph unicode="i" d="M342 1038v-1038h-192v1038h192zM248 1452q68 0 91 -18.5t23 -83.5q0 -71 -23.5 -93t-90.5 -22q-69 0 -93 22t-24 93q0 65 24 83.5t93 18.5z" />
<glyph unicode="j" d="M248 1452q68 0 91 -18.5t23 -83.5q0 -71 -23.5 -93t-90.5 -22q-69 0 -93 22t-24 93q0 65 24 83.5t93 18.5zM342 1038v-1077q0 -113 -25 -188t-77.5 -116t-118.5 -57t-162 -16v166q101 0 146 42.5t45 164.5v1081h192z" />
<glyph unicode="k" horiz-adv-x="1054" d="M342 1479v-1479h-192v1479h192zM1057 0h-236q-384 511 -479 549q111 83 444 489h236q-153 -187 -269 -311t-165 -160q46 -27 169 -174t300 -393z" />
<glyph unicode="l" horiz-adv-x="501" d="M342 1479v-1200q0 -75 19.5 -126t70.5 -108l-164 -90q-63 64 -90.5 134.5t-27.5 180.5v1209h192z" />
<glyph unicode="m" horiz-adv-x="1781" d="M342 860v-860h-192v981q90 38 211 62t229 24q185 0 272 -70q196 70 375 70q153 0 237.5 -43t124 -147.5t39.5 -294.5v-582h-192v557q0 104 -11 167t-41 101t-75 51t-121 13q-135 0 -244 -35q37 -109 37 -272v-582h-194v557q0 139 -21.5 208.5t-72 96.5t-150.5 27 q-113 0 -211 -29z" />
<glyph unicode="n" horiz-adv-x="1163" d="M342 860v-860h-192v981q89 38 216.5 62t237.5 24q115 0 191 -22.5t128 -78.5t74.5 -149t22.5 -235v-582h-193v557q0 105 -11.5 167t-42.5 100.5t-79 51.5t-129 13q-119 0 -223 -29z" />
<glyph unicode="o" horiz-adv-x="1202" d="M600 -29q-127 0 -214.5 26.5t-149.5 90t-90.5 170.5t-28.5 266q0 158 29 263.5t91 167t149 87t214 25.5q102 0 176.5 -16t134.5 -53t97 -99.5t56 -155t19 -219.5q0 -159 -28.5 -266t-90 -170.5t-149 -90t-215.5 -26.5zM600 903q-67 0 -110.5 -9t-78 -32t-53 -67 t-27.5 -110t-9 -165q0 -157 26.5 -239t84 -114t167.5 -32q82 0 133 16t85 60t47.5 117.5t13.5 191.5q0 124 -13 198t-48 115.5t-84.5 55.5t-133.5 14z" />
<glyph unicode="p" horiz-adv-x="1187" d="M342 858v-592q0 -58 70 -91.5t174 -33.5q109 0 167.5 32.5t85.5 113t27 231.5q0 97 -9.5 162t-28 108.5t-53.5 66t-78.5 31.5t-110.5 9q-146 0 -244 -37zM150 -393v1382q83 35 207 56.5t229 21.5q129 0 216.5 -25.5t149 -88t89.5 -168t28 -263.5q0 -126 -19.5 -220 t-56 -157t-93.5 -102t-128 -55.5t-164 -16.5q-160 0 -266 74v-438h-192z" />
<glyph unicode="q" horiz-adv-x="1187" d="M846 268v594q-104 37 -244 37q-67 0 -110.5 -8.5t-78.5 -31t-53.5 -66t-28 -109.5t-9.5 -164q0 -151 26.5 -231t84.5 -112t167 -32q104 0 175 33t71 90zM1038 989v-1382h-192v442q-116 -78 -279 -78q-118 0 -199.5 26.5t-139.5 89t-84.5 169t-26.5 264.5t28.5 264 t90.5 168.5t149.5 88.5t216.5 26q105 0 229 -21.5t207 -56.5z" />
<glyph unicode="r" horiz-adv-x="739" d="M150 0v1038h192v-75q32 44 104 74t175 30q53 0 106 -6v-189q-64 11 -121 11q-112 0 -188 -33t-76 -94v-756h-192z" />
<glyph unicode="s" horiz-adv-x="1017" d="M881 1014l-50 -164q-144 53 -301 53q-49 0 -81.5 -3t-62 -12t-46 -26t-26 -44.5t-9.5 -67.5q0 -65 51.5 -95.5t184.5 -42.5q198 -17 285 -86.5t87 -216.5q0 -187 -104 -262.5t-317 -75.5q-84 0 -192.5 15.5t-180.5 40.5l47 163q55 -23 148 -39t173 -16q124 0 177 31.5 t53 128.5q0 71 -51 105t-189 46q-191 16 -281 79t-90 208q0 184 108 259t321 75q168 0 346 -53z" />
<glyph unicode="t" horiz-adv-x="827" d="M760 866h-365v-506q0 -117 38.5 -166t137.5 -49q102 0 187 29l37 -160q-114 -43 -256 -43q-92 0 -152 16t-103.5 57.5t-63 115.5t-19.5 188v518h-178v172h178v197l194 80v-277h365v-172z" />
<glyph unicode="u" horiz-adv-x="1163" d="M823 180v858h193v-981q-90 -38 -218.5 -62t-236.5 -24q-115 0 -191 23t-128 79.5t-74.5 149.5t-22.5 234v581h193v-557q0 -139 23.5 -208.5t76.5 -96t160 -26.5q131 0 225 30z" />
<glyph unicode="v" horiz-adv-x="1044" d="M520 190q202 511 293 848h201q-128 -429 -379 -1038h-252q-189 655 -358 1038h206q153 -370 289 -848z" />
<glyph unicode="w" horiz-adv-x="1681" d="M846 791q-91 -386 -234 -791h-252q-163 601 -333 1038h211q140 -366 260 -843q60 172 136.5 434.5t108.5 408.5h209q111 -327 230 -843q187 515 264 843h205q-149 -541 -355 -1038h-252q-39 191 -97.5 426t-100.5 365z" />
<glyph unicode="x" horiz-adv-x="1067" d="M1028 0h-225q-89 144 -250 373q-136 -181 -293 -373h-223q155 177 412 518q-209 287 -410 520h244q128 -158 274 -362q90 120 248 362h221q-181 -272 -360 -512q186 -254 362 -526z" />
<glyph unicode="y" horiz-adv-x="1044" d="M399 -49q-182 658 -374 1087h206q151 -355 289 -854q195 486 293 854h201q-135 -456 -389 -1058q-84 -204 -174 -373h-220q77 142 168 344z" />
<glyph unicode="z" horiz-adv-x="1015" d="M90 1038h860v-51q-127 -198 -303.5 -444t-281.5 -371h577v-172h-887v53q162 201 333 435.5t261 377.5h-559v172z" />
<glyph unicode="{" horiz-adv-x="612" d="M47 430v-2v160q38 0 69.5 11t61 39.5t49 74t31.5 118t12 168.5q0 126 26 225.5t72 165.5t101.5 107t122.5 64l92 -152q-73 -22 -118.5 -64.5t-74 -138t-28.5 -248.5q0 -95 -12.5 -172t-31 -124t-44 -81t-47.5 -49t-45 -22q23 -7 45 -22.5t47.5 -50t44 -82.5t31 -125 t12.5 -173q0 -115 14.5 -196.5t45 -131t68.5 -77t93 -43.5l-92 -150q-68 23 -123 63.5t-101 105.5t-72 164.5t-26 225.5q0 96 -12 168.5t-31.5 118.5t-49 74.5t-61 39.5t-69.5 11z" />
<glyph unicode="|" horiz-adv-x="698" d="M246 1546h207v-2070h-207v2070z" />
<glyph unicode="}" horiz-adv-x="612" d="M563 588v-158q-38 0 -69.5 -11t-61 -39.5t-49 -74.5t-31.5 -118.5t-12 -168.5q0 -125 -25.5 -224t-71.5 -164t-101 -105.5t-122 -63.5l-92 150q54 17 91 44t67.5 76.5t45.5 131t15 196.5q0 118 18 207t47.5 137.5t57.5 73t58 33.5q-30 9 -58 33.5t-57.5 73t-47.5 137.5 t-18 207q0 116 -14.5 197.5t-45 131t-67.5 77t-92 44.5l92 148q53 -18 98.5 -46.5t87 -75t71 -107t46.5 -145.5t17 -186q0 -96 12 -168.5t31.5 -118t49 -74t61 -39.5t69.5 -11z" />
<glyph unicode="~" horiz-adv-x="1232" d="M997 891l129 -100q-38 -102 -113 -162t-175 -60q-48 0 -118 28t-129 61.5t-124.5 61.5t-104.5 28q-83 0 -135 -127l-116 108q57 97 116.5 144t143.5 47q52 0 124 -27.5t131 -60t122.5 -60t101.5 -27.5q48 0 82.5 33t64.5 113z" />
<glyph unicode="&#xa1;" horiz-adv-x="679" d="M469 -365h-254l55 998h144zM342 811q-80 0 -108.5 23t-28.5 100q0 83 28.5 108t108.5 25q77 0 105 -25t28 -108q0 -76 -28 -99.5t-105 -23.5z" />
<glyph unicode="&#xa2;" horiz-adv-x="946" d="M514 1544h164v-211q134 -7 244 -47l-52 -162q-75 34 -192 41v-755q107 7 192 45l52 -160q-94 -41 -244 -53v-248h-164v250q-98 12 -169 46.5t-123.5 98t-78.5 164.5t-26 240q0 138 26.5 237.5t79 161.5t123.5 94t168 43v215zM311 788q0 -177 48.5 -258t154.5 -102v721 q-72 -13 -114.5 -48.5t-65.5 -111.5t-23 -201z" />
<glyph unicode="&#xa3;" horiz-adv-x="1236" d="M84 629v168h131v194q0 235 134 352t413 117q103 0 216.5 -16.5t197.5 -42.5l-50 -182q-55 23 -159.5 38t-204.5 15q-179 0 -258.5 -65.5t-79.5 -207.5v-202h397v-168h-397v-451h715v-178h-924v629h-131z" />
<glyph unicode="&#xa4;" horiz-adv-x="1353" d="M688 172q-161 0 -252 47l-174 -219l-156 125l177 221q-76 128 -76 379q0 242 72 365l-170 223l174 114l155 -206q89 47 250 47q155 0 244 -41l139 200l174 -112l-151 -215q80 -127 80 -375q0 -251 -80 -381l161 -219l-170 -125l-155 213q-89 -41 -242 -41zM688 1096 q-56 0 -94.5 -5t-72 -20t-54 -40.5t-35 -67.5t-20.5 -101t-6 -141q0 -119 13.5 -191.5t49 -114.5t86 -56.5t133.5 -14.5q84 0 135 14.5t86.5 56.5t49.5 114.5t14 191.5q0 99 -10 164.5t-28.5 108t-55 64.5t-79.5 30t-112 8z" />
<glyph unicode="&#xa5;" horiz-adv-x="1273" d="M150 604v158h311q-273 378 -506 665h270q221 -276 428 -585q237 311 414 585h248q-262 -379 -484 -665h299v-158h-382v-176h382v-158h-382v-270h-209v270h-389v158h389v176h-389z" />
<glyph unicode="&#xa6;" horiz-adv-x="698" d="M246 1546h207v-751h-207v751zM246 227h207v-751h-207v751z" />
<glyph unicode="&#xa7;" horiz-adv-x="1275" d="M1112 1403l-47 -176q-53 23 -155.5 37t-200.5 14q-183 0 -273 -52t-90 -173q0 -91 70 -136t262 -59q255 -22 378.5 -111t123.5 -268q0 -127 -88 -243q77 -80 77 -226q0 -216 -152 -321t-433 -105q-223 0 -404 58l47 178q53 -23 156.5 -38t200.5 -15q183 0 272.5 53 t89.5 174q0 91 -70 135.5t-262 58.5q-255 22 -378 110.5t-123 268.5q0 131 84 246q-76 82 -76 223q0 216 153 321t435 105q219 0 403 -59zM360 719q-34 -52 -34 -144q0 -65 31.5 -104.5t110.5 -63.5t220 -34q163 -13 244 -49q35 72 35 147q0 64 -31.5 103.5t-111.5 64.5 t-220 35q-157 9 -244 45z" />
<glyph unicode="&#xa8;" horiz-adv-x="890" d="M236 1370q61 0 81.5 -17.5t20.5 -78.5q0 -67 -20.5 -87t-81.5 -20q-62 0 -83.5 20t-21.5 87q0 61 21 78.5t84 17.5zM647 1370q61 0 82 -17.5t21 -78.5q0 -67 -21 -87t-82 -20q-62 0 -83 20t-21 87q0 61 21 78.5t83 17.5z" />
<glyph unicode="&#xa9;" horiz-adv-x="1751" d="M874 1462q155 0 268 -21t205 -71.5t148.5 -135t86.5 -211t30 -300.5q0 -176 -29.5 -304t-86 -214.5t-148 -138t-205.5 -73.5t-269 -22q-128 0 -227 15t-183.5 49.5t-143.5 91t-100.5 140t-61 196.5t-19.5 260q0 145 19.5 256.5t61 193.5t100.5 137.5t143.5 89t183.5 48 t227 14.5zM872 127q106 0 182.5 10t141.5 36t106.5 68.5t70.5 109t41.5 157t12.5 213.5q0 95 -7 169t-23 133.5t-38.5 103t-57 76t-75 52.5t-97 32.5t-117 17t-140.5 4.5q-106 0 -179.5 -8.5t-138.5 -32.5t-105 -65t-69.5 -107t-41.5 -157.5t-12 -217.5q0 -184 28 -298.5 t96.5 -181t166.5 -90.5t255 -24zM1139 461l43 -152q-54 -20 -131.5 -33.5t-143.5 -13.5q-115 0 -192.5 21t-133.5 73.5t-82 142.5t-26 226q0 109 17.5 187.5t50.5 131t87 83t120.5 43t158.5 12.5q66 0 145 -12t130 -29l-43 -156q-80 35 -224 35q-59 0 -97 -6.5t-69 -24 t-47.5 -51.5t-25 -86.5t-8.5 -130.5q0 -123 24.5 -187.5t75.5 -89t147 -24.5q122 0 224 41z" />
<glyph unicode="&#xaa;" horiz-adv-x="862" d="M739 1182v-432q-62 -27 -150 -42.5t-165 -15.5q-169 0 -235 50.5t-66 193.5q0 61 14.5 104.5t38.5 69.5t62.5 41t78 20t93.5 5q93 0 192 -21q0 114 -39.5 150t-156.5 36q-136 0 -216 -34l-28 118q153 37 266 37q83 0 139 -12.5t96 -44.5t58 -86.5t18 -136.5zM602 831v224 q-53 14 -168 14q-87 0 -125.5 -23.5t-38.5 -101.5q0 -79 34.5 -110t129.5 -31q86 0 168 28z" />
<glyph unicode="&#xab;" horiz-adv-x="1294" d="M727 1067l-403 -436l403 -447l-111 -121l-555 562l551 561zM1231 1067l-404 -436l404 -447l-109 -121l-555 562l551 561z" />
<glyph unicode="&#xac;" horiz-adv-x="1038" d="M963 0h-209v670h-691v180h900v-850z" />
<glyph unicode="&#xad;" horiz-adv-x="593" d="M63 479v183h467v-183h-467z" />
<glyph unicode="&#xae;" horiz-adv-x="1163" d="M827 1061q0 -89 -34.5 -127.5t-102.5 -38.5q79 -39 133 -193h-157q-16 55 -52 111.5t-61 56.5h-49v-168h-139v537h319q71 0 107 -49.5t36 -128.5zM684 1057q0 67 -51 67h-129v-141h129q51 0 51 74zM1051 969q0 -142 -27.5 -237t-88 -152t-145.5 -81t-210 -24 q-124 0 -208.5 24t-144 81t-87 152t-27.5 237q0 115 19 199t54.5 140t93.5 90t130 48t170 14q125 0 209 -22.5t145 -78t89 -151.5t28 -239zM907 969q0 79 -7 135.5t-24.5 97.5t-41 66t-62.5 39.5t-83.5 20t-108.5 5.5q-94 0 -150 -13t-97.5 -52.5t-58 -110.5t-16.5 -188 q0 -146 33 -225.5t100 -109.5t189 -30q95 0 154 15.5t99.5 57t57 111.5t16.5 181z" />
<glyph unicode="&#xaf;" horiz-adv-x="1079" d="M264 1190v151h543v-151h-543z" />
<glyph unicode="&#xb0;" horiz-adv-x="862" d="M430 1462q92 0 154 -20t107 -70.5t65 -137.5t20 -220q0 -177 -38.5 -279.5t-111.5 -143t-196 -40.5q-121 0 -194 40.5t-111.5 143t-38.5 279.5q0 133 20.5 220.5t65 137.5t106 70t152.5 20zM430 694q98 0 134 65.5t36 252.5q0 130 -16.5 195t-51 87.5t-102.5 22.5 q-66 0 -100 -22.5t-52 -88.5t-18 -194q0 -185 37.5 -251.5t132.5 -66.5z" />
<glyph unicode="&#xb1;" horiz-adv-x="1232" d="M121 797v182h401v403h185v-403h403v-182h-403v-404h-185v404h-401zM121 59v183h989v-183h-989z" />
<glyph unicode="&#xb2;" horiz-adv-x="829" d="M135 1270l-29 155q133 37 263 37q190 0 275 -60.5t85 -199.5q0 -209 -207 -287q-56 -20 -82.5 -30.5t-63 -29t-53 -35t-31 -42t-18.5 -57.5h457v-148h-659q12 138 52 226t100 134t161 85q89 32 128.5 74t39.5 102q0 61 -44.5 85t-148.5 24q-56 0 -124.5 -10t-100.5 -23z " />
<glyph unicode="&#xb3;" horiz-adv-x="817" d="M262 956v140h80q103 0 139.5 24t36.5 94q0 63 -36 84t-142 21q-125 0 -223 -31l-27 137q133 37 268 37q182 0 262 -52t80 -165q0 -100 -39 -151.5t-149 -61.5q118 -6 164.5 -62t46.5 -163q0 -138 -88.5 -196t-276.5 -58q-132 0 -276 37l27 139q104 -33 235 -33 q112 0 152.5 27t40.5 106q0 77 -40 102t-153 25h-82z" />
<glyph unicode="&#xb4;" horiz-adv-x="999" d="M383 1163h-184l247 264h220z" />
<glyph unicode="&#xb6;" horiz-adv-x="1353" d="M1159 0h-192v498h-187v-498h-194v498h-123q-84 0 -151 25t-111.5 67t-74.5 100.5t-43 123t-13 136.5q0 477 399 477h690v-1427z" />
<glyph unicode="&#xb7;" horiz-adv-x="575" d="M285 750q88 0 117.5 -24t29.5 -108q0 -90 -30 -117.5t-117 -27.5q-83 0 -112.5 28t-29.5 117q0 83 29.5 107.5t112.5 24.5z" />
<glyph unicode="&#xb8;" horiz-adv-x="1327" d="M674 0h86v-90q131 0 182 -33.5t51 -124.5q0 -95 -60 -131.5t-208 -36.5q-139 0 -209 37l41 98q61 -28 162 -28q59 0 80.5 12t21.5 49q0 41 -46.5 53.5t-174.5 4.5z" />
<glyph unicode="&#xb9;" horiz-adv-x="729" d="M496 586h-174v669l-191 -88l-45 150l410 170v-901z" />
<glyph unicode="&#xba;" horiz-adv-x="923" d="M461 682q-119 0 -191.5 35t-111.5 122.5t-39 235.5q0 111 21 186.5t65.5 119.5t106 62.5t149.5 18.5q89 0 151 -18.5t106.5 -62.5t65.5 -119.5t21 -186.5q0 -219 -82 -306t-262 -87zM461 1327q-76 0 -112.5 -18.5t-53 -72.5t-16.5 -165q0 -153 37 -204.5t145 -51.5 q107 0 144.5 52t37.5 204q0 110 -17 164.5t-53.5 73t-111.5 18.5z" />
<glyph unicode="&#xbb;" horiz-adv-x="1294" d="M569 184l402 437l-402 446l109 121l555 -563l-551 -559zM63 184l404 437l-404 446l111 121l553 -563l-551 -559z" />
<glyph unicode="&#xbc;" horiz-adv-x="1679" d="M1077 1427h197l-844 -1427h-199zM1290 215h-467v64q169 283 406 591h229v-505h121v-150h-121v-215h-168v215zM1290 365v372q-154 -192 -260 -372h260zM479 586h-172v669l-192 -88l-43 150l407 170v-901z" />
<glyph unicode="&#xbd;" horiz-adv-x="1679" d="M1010 696l-29 156q137 37 262 37q190 0 276.5 -61t86.5 -199q0 -210 -209 -287q-54 -19 -82 -30.5t-63 -29.5t-52 -35t-31 -42.5t-18 -57.5h457v-147h-660q9 105 32 178t64 123.5t90.5 82t125.5 60.5q88 32 127.5 74t39.5 103t-43 84.5t-149 23.5q-56 0 -124 -10 t-101 -23zM1065 1427h197l-844 -1427h-199zM467 586h-172v669l-193 -88l-43 150l408 170v-901z" />
<glyph unicode="&#xbe;" horiz-adv-x="1679" d="M1200 1427h199l-844 -1427h-199zM1305 215h-465v64q167 284 403 591h232v-505h118v-150h-118v-215h-170v215zM1305 365v372q-158 -196 -261 -372h261zM248 956v140h80q102 0 139 24t37 94q0 63 -36.5 84t-141.5 21q-126 0 -224 -31l-28 137q137 37 270 37q180 0 260 -52 t80 -165q0 -100 -39 -151.5t-147 -61.5q117 -6 164 -62t47 -163q0 -138 -89 -196t-276 -58q-135 0 -276 37l26 139q104 -33 234 -33q113 0 153.5 27t40.5 106q0 77 -40 102t-154 25h-80z" />
<glyph unicode="&#xbf;" horiz-adv-x="980" d="M524 811q-81 0 -109 23t-28 100q0 83 28 108t109 25q77 0 104 -25t27 -108q0 -77 -27 -100t-104 -23zM414 641h215q-173 -170 -249.5 -318.5t-76.5 -320.5q0 -109 58.5 -160t211.5 -51q178 0 287 45l49 -184q-61 -21 -165.5 -36t-180.5 -15q-261 0 -376 100.5t-115 300.5 q0 176 81 320.5t261 318.5z" />
<glyph unicode="&#xc0;" horiz-adv-x="1382" d="M1161 0q-118 298 -153 397h-662q-61 -182 -129 -397h-215q247 743 528 1427h338q273 -834 527 -1427h-234zM719 1255h-57q-125 -312 -256 -680h540q-99 272 -227 680zM864 1530h-198l-326 264h235z" />
<glyph unicode="&#xc1;" horiz-adv-x="1382" d="M1161 0q-118 298 -153 397h-662q-61 -182 -129 -397h-215q247 743 528 1427h338q273 -834 527 -1427h-234zM719 1255h-57q-125 -312 -256 -680h540q-99 272 -227 680zM711 1530h-181l271 264h233z" />
<glyph unicode="&#xc2;" horiz-adv-x="1382" d="M1161 0q-118 298 -153 397h-662q-61 -182 -129 -397h-215q247 743 528 1427h338q273 -834 527 -1427h-234zM719 1255h-57q-125 -312 -256 -680h540q-99 272 -227 680zM688 1702l-153 -172h-193q42 44 125 132t125 132h199l258 -264h-201z" />
<glyph unicode="&#xc3;" horiz-adv-x="1382" d="M1161 0q-118 298 -153 397h-662q-61 -182 -129 -397h-215q247 743 528 1427h338q273 -834 527 -1427h-234zM719 1255h-57q-125 -312 -256 -680h540q-99 272 -227 680zM954 1788l105 -84q-32 -87 -92.5 -137.5t-143.5 -50.5q-48 0 -101.5 31t-103.5 62t-90 31 q-64 0 -112 -112l-92 90q46 82 95 122t118 40q42 0 86 -18.5t74.5 -40t68.5 -40t70 -18.5q38 0 66 28t52 97z" />
<glyph unicode="&#xc4;" horiz-adv-x="1382" d="M1161 0q-118 298 -153 397h-662q-61 -182 -129 -397h-215q247 743 528 1427h338q273 -834 527 -1427h-234zM719 1255h-57q-125 -312 -256 -680h540q-99 272 -227 680zM481 1751q61 0 82 -17.5t21 -78.5q0 -67 -21 -87t-82 -20q-62 0 -83 20t-21 87q0 61 21 78.5t83 17.5z M893 1751q61 0 81.5 -17.5t20.5 -78.5q0 -67 -20.5 -87t-81.5 -20q-62 0 -83.5 20t-21.5 87q0 61 21 78.5t84 17.5z" />
<glyph unicode="&#xc5;" horiz-adv-x="1382" d="M1161 0q-118 298 -153 397h-662q-61 -182 -129 -397h-215q247 743 528 1427h338q273 -834 527 -1427h-234zM719 1255h-57q-125 -312 -256 -680h540q-99 272 -227 680zM694 1806q117 0 175.5 -47.5t58.5 -148.5q0 -103 -58 -150t-176 -47t-175.5 47t-57.5 150 q0 104 53.5 150t179.5 46zM694 1702q-62 0 -86 -23t-24 -73q0 -49 24.5 -74t85.5 -25q63 0 88 25t25 74q0 50 -25 73t-88 23z" />
<glyph unicode="&#xc6;" horiz-adv-x="1976" d="M741 1427h1176v-178h-799v-405h481v-174h-481v-492h799v-178h-1006v397h-669q-153 -225 -260 -397h-250q498 746 1009 1427zM911 1255h-63q-267 -361 -488 -680h551v680z" />
<glyph unicode="&#xc7;" horiz-adv-x="1222" d="M119 727q0 175 26.5 301t76.5 210t132 133.5t184 70t242 20.5q96 0 209 -15t195 -38l-51 -186q-59 22 -152.5 35.5t-175.5 13.5q-91 0 -151.5 -7t-116.5 -28t-89 -58t-58.5 -98.5t-35.5 -148t-10 -207.5t10.5 -208t35 -150t58.5 -102t89 -62t117 -31t151 -8 q81 0 174.5 13t153.5 34l51 -186q-82 -24 -194 -39t-210 -15q-174 0 -293.5 36.5t-204.5 123t-124 233t-39 363.5zM694 0h86v-90q131 0 182.5 -33.5t51.5 -124.5q0 -95 -60 -131.5t-209 -36.5q-138 0 -208 37l41 98q61 -28 161 -28q59 0 81 12t22 49q0 41 -46.5 53.5 t-174.5 4.5z" />
<glyph unicode="&#xc8;" horiz-adv-x="1259" d="M195 1427h1005v-178h-799v-405h568v-176h-568v-490h799v-178h-1005v1427zM950 1530h-198l-326 264h236z" />
<glyph unicode="&#xc9;" horiz-adv-x="1259" d="M195 1427h1005v-178h-799v-405h568v-176h-568v-490h799v-178h-1005v1427zM707 1530h-181l271 264h233z" />
<glyph unicode="&#xca;" horiz-adv-x="1259" d="M195 1427h1005v-178h-799v-405h568v-176h-568v-490h799v-178h-1005v1427zM709 1702l-154 -172h-193q42 44 125 132t125 132h199l258 -264h-201z" />
<glyph unicode="&#xcb;" horiz-adv-x="1259" d="M195 1427h1005v-178h-799v-405h568v-176h-568v-490h799v-178h-1005v1427zM508 1751q61 0 81.5 -17.5t20.5 -78.5q0 -67 -20.5 -87t-81.5 -20q-62 0 -83.5 20t-21.5 87q0 61 21 78.5t84 17.5zM920 1751q61 0 81.5 -17.5t20.5 -78.5q0 -67 -20.5 -87t-81.5 -20 q-62 0 -83.5 20t-21.5 87q0 61 21 78.5t84 17.5z" />
<glyph unicode="&#xcc;" horiz-adv-x="593" d="M195 1427h206v-1427h-206v1427zM459 1530h-199l-326 264h236z" />
<glyph unicode="&#xcd;" horiz-adv-x="593" d="M195 1427h206v-1427h-206v1427zM326 1530h-181l271 264h233z" />
<glyph unicode="&#xce;" horiz-adv-x="593" d="M195 1427h206v-1427h-206v1427zM293 1702l-154 -172h-192q42 44 125 132t125 132h198l258 -264h-200z" />
<glyph unicode="&#xcf;" horiz-adv-x="593" d="M195 1427h206v-1427h-206v1427zM96 1751q61 0 82 -17.5t21 -78.5q0 -67 -21 -87t-82 -20q-62 0 -83 20t-21 87q0 61 21 78.5t83 17.5zM508 1751q61 0 81.5 -17.5t20.5 -78.5q0 -67 -20.5 -87t-81.5 -20q-62 0 -83.5 20t-21.5 87q0 61 21 78.5t84 17.5z" />
<glyph unicode="&#xd0;" horiz-adv-x="1474" d="M84 662v149h111v616h491q140 0 242.5 -20.5t186 -69.5t134.5 -130t78 -202t27 -286t-26.5 -287t-78 -205t-134 -133.5t-186.5 -72t-243 -21.5h-491v662h-111zM1133 717q0 87 -5.5 154.5t-18.5 121.5t-31 93t-47 67t-62 46t-80 28t-97 14t-118 4h-273v-434h330v-149h-330 v-484h273q133 0 216 22.5t140 83.5t80 164.5t23 268.5z" />
<glyph unicode="&#xd1;" horiz-adv-x="1540" d="M1346 1427v-1427h-254q-311 575 -693 1178v-1178h-204v1427h276q319 -486 666 -1118v1118h209zM1051 1788l104 -84q-32 -87 -92.5 -137.5t-142.5 -50.5q-48 0 -101.5 31t-103.5 62t-90 31q-65 0 -113 -112l-92 90q46 82 95 122t118 40q42 0 86 -18.5t74.5 -40t68.5 -40 t70 -18.5q39 0 67 28t52 97z" />
<glyph unicode="&#xd2;" horiz-adv-x="1564" d="M782 1462q140 0 242 -21t185 -71.5t133.5 -135t77 -211t26.5 -300.5q0 -176 -26.5 -304t-77 -214.5t-132.5 -138t-185 -73.5t-243 -22q-139 0 -241.5 22t-185 73.5t-133 138t-77 214.5t-26.5 304q0 174 26.5 300.5t77 211t133 135t184.5 71.5t242 21zM782 158 q89 0 151.5 9t114 33.5t83.5 64t54 103.5t31 148.5t9 202.5q0 122 -8.5 208t-31 149.5t-54 101.5t-84 61t-114 31t-151.5 8t-150.5 -8t-113 -31t-83 -61t-52.5 -101.5t-30.5 -149.5t-8.5 -208q0 -118 8.5 -202.5t30 -148.5t53 -103.5t83 -64t113.5 -33.5t150 -9zM971 1530 h-199l-326 264h236z" />
<glyph unicode="&#xd3;" horiz-adv-x="1564" d="M782 1462q140 0 242 -21t185 -71.5t133.5 -135t77 -211t26.5 -300.5q0 -176 -26.5 -304t-77 -214.5t-132.5 -138t-185 -73.5t-243 -22q-139 0 -241.5 22t-185 73.5t-133 138t-77 214.5t-26.5 304q0 174 26.5 300.5t77 211t133 135t184.5 71.5t242 21zM782 158 q89 0 151.5 9t114 33.5t83.5 64t54 103.5t31 148.5t9 202.5q0 122 -8.5 208t-31 149.5t-54 101.5t-84 61t-114 31t-151.5 8t-150.5 -8t-113 -31t-83 -61t-52.5 -101.5t-30.5 -149.5t-8.5 -208q0 -118 8.5 -202.5t30 -148.5t53 -103.5t83 -64t113.5 -33.5t150 -9zM707 1530 h-181l271 264h233z" />
<glyph unicode="&#xd4;" horiz-adv-x="1564" d="M782 1462q140 0 242 -21t185 -71.5t133.5 -135t77 -211t26.5 -300.5q0 -176 -26.5 -304t-77 -214.5t-132.5 -138t-185 -73.5t-243 -22q-139 0 -241.5 22t-185 73.5t-133 138t-77 214.5t-26.5 304q0 174 26.5 300.5t77 211t133 135t184.5 71.5t242 21zM782 158 q89 0 151.5 9t114 33.5t83.5 64t54 103.5t31 148.5t9 202.5q0 122 -8.5 208t-31 149.5t-54 101.5t-84 61t-114 31t-151.5 8t-150.5 -8t-113 -31t-83 -61t-52.5 -101.5t-30.5 -149.5t-8.5 -208q0 -118 8.5 -202.5t30 -148.5t53 -103.5t83 -64t113.5 -33.5t150 -9zM772 1702 l-154 -172h-192q42 44 125 132t125 132h198l259 -264h-201z" />
<glyph unicode="&#xd5;" horiz-adv-x="1564" d="M782 1462q140 0 242 -21t185 -71.5t133.5 -135t77 -211t26.5 -300.5q0 -176 -26.5 -304t-77 -214.5t-132.5 -138t-185 -73.5t-243 -22q-139 0 -241.5 22t-185 73.5t-133 138t-77 214.5t-26.5 304q0 174 26.5 300.5t77 211t133 135t184.5 71.5t242 21zM782 158 q89 0 151.5 9t114 33.5t83.5 64t54 103.5t31 148.5t9 202.5q0 122 -8.5 208t-31 149.5t-54 101.5t-84 61t-114 31t-151.5 8t-150.5 -8t-113 -31t-83 -61t-52.5 -101.5t-30.5 -149.5t-8.5 -208q0 -118 8.5 -202.5t30 -148.5t53 -103.5t83 -64t113.5 -33.5t150 -9zM1040 1788 l105 -84q-32 -87 -92.5 -137.5t-143.5 -50.5q-48 0 -101.5 31t-103.5 62t-90 31q-64 0 -112 -112l-92 90q46 82 95 122t118 40q42 0 86 -18.5t74.5 -40t68.5 -40t70 -18.5q38 0 66 28t52 97z" />
<glyph unicode="&#xd6;" horiz-adv-x="1564" d="M782 1462q140 0 242 -21t185 -71.5t133.5 -135t77 -211t26.5 -300.5q0 -176 -26.5 -304t-77 -214.5t-132.5 -138t-185 -73.5t-243 -22q-139 0 -241.5 22t-185 73.5t-133 138t-77 214.5t-26.5 304q0 174 26.5 300.5t77 211t133 135t184.5 71.5t242 21zM782 158 q89 0 151.5 9t114 33.5t83.5 64t54 103.5t31 148.5t9 202.5q0 122 -8.5 208t-31 149.5t-54 101.5t-84 61t-114 31t-151.5 8t-150.5 -8t-113 -31t-83 -61t-52.5 -101.5t-30.5 -149.5t-8.5 -208q0 -118 8.5 -202.5t30 -148.5t53 -103.5t83 -64t113.5 -33.5t150 -9zM575 1751 q61 0 82 -17.5t21 -78.5q0 -67 -21 -87t-82 -20q-62 0 -83 20t-21 87q0 61 21 78.5t83 17.5zM987 1751q61 0 82 -17.5t21 -78.5q0 -67 -21 -87t-82 -20q-62 0 -83 20t-21 87q0 61 21 78.5t83 17.5z" />
<glyph unicode="&#xd7;" horiz-adv-x="1232" d="M332 324l-131 131l282 284l-282 285l129 127l282 -283l285 287l133 -131l-287 -287l285 -282l-129 -131l-285 284z" />
<glyph unicode="&#xd8;" horiz-adv-x="1564" d="M1286 1427h217q-114 -131 -164 -190q107 -171 107 -514q0 -147 -17.5 -260.5t-55 -197t-90.5 -140t-129.5 -90.5t-166 -49t-205.5 -15q-294 0 -440 105q-26 -33 -66 -76h-213l166 190q-110 169 -110 533q0 174 26.5 300.5t77 211t133 135t184.5 71.5t242 21 q296 0 443 -108q20 22 61 73zM782 1278q-87 0 -147 -7.5t-111.5 -29t-83 -57.5t-54.5 -95.5t-32 -139.5t-10 -193q0 -113 4 -166q9 -133 39 -215q105 121 223.5 260t260.5 306t223 261q-49 42 -123.5 59t-188.5 17zM782 158q104 0 173 13.5t123.5 47t84.5 94.5t45.5 150 t16.5 221q0 62 -4 164q-9 127 -39 207q-201 -231 -703 -822q87 -75 303 -75z" />
<glyph unicode="&#xd9;" horiz-adv-x="1515" d="M1137 1427h209v-964q0 -119 -26 -205.5t-72.5 -141.5t-122 -87.5t-162.5 -45t-205 -12.5t-204.5 12.5t-162 45t-122 87.5t-73 141.5t-26.5 205.5v964h211v-944q0 -97 21 -160t69.5 -99t115.5 -50t171 -14q102 0 169 13.5t116.5 49t71.5 99t22 161.5v944zM983 1530h-199 l-325 264h235z" />
<glyph unicode="&#xda;" horiz-adv-x="1515" d="M1137 1427h209v-964q0 -119 -26 -205.5t-72.5 -141.5t-122 -87.5t-162.5 -45t-205 -12.5t-204.5 12.5t-162 45t-122 87.5t-73 141.5t-26.5 205.5v964h211v-944q0 -97 21 -160t69.5 -99t115.5 -50t171 -14q102 0 169 13.5t116.5 49t71.5 99t22 161.5v944zM737 1530h-180 l270 264h234z" />
<glyph unicode="&#xdb;" horiz-adv-x="1515" d="M1137 1427h209v-964q0 -119 -26 -205.5t-72.5 -141.5t-122 -87.5t-162.5 -45t-205 -12.5t-204.5 12.5t-162 45t-122 87.5t-73 141.5t-26.5 205.5v964h211v-944q0 -97 21 -160t69.5 -99t115.5 -50t171 -14q102 0 169 13.5t116.5 49t71.5 99t22 161.5v944zM748 1702 l-154 -172h-193q42 44 125 132t125 132h199l258 -264h-201z" />
<glyph unicode="&#xdc;" horiz-adv-x="1515" d="M1137 1427h209v-964q0 -119 -26 -205.5t-72.5 -141.5t-122 -87.5t-162.5 -45t-205 -12.5t-204.5 12.5t-162 45t-122 87.5t-73 141.5t-26.5 205.5v964h211v-944q0 -97 21 -160t69.5 -99t115.5 -50t171 -14q102 0 169 13.5t116.5 49t71.5 99t22 161.5v944zM547 1751 q61 0 81.5 -17.5t20.5 -78.5q0 -67 -20.5 -87t-81.5 -20q-62 0 -83.5 20t-21.5 87q0 61 21 78.5t84 17.5zM958 1751q61 0 82 -17.5t21 -78.5q0 -67 -21 -87t-82 -20q-62 0 -83 20t-21 87q0 61 21 78.5t83 17.5z" />
<glyph unicode="&#xdd;" horiz-adv-x="1273" d="M225 1427q221 -276 428 -585q237 311 414 585h248q-288 -423 -567 -776v-651h-209v651q-305 440 -584 776h270zM668 1530h-181l271 264h233z" />
<glyph unicode="&#xde;" horiz-adv-x="1353" d="M195 1427h206v-225h484q399 0 399 -475q0 -92 -21.5 -171t-66.5 -144t-123 -102.5t-182 -37.5h-490v-272h-206v1427zM401 451h443q104 0 157.5 73t53.5 203q0 145 -51.5 221t-151.5 76h-451v-573z" />
<glyph unicode="&#xdf;" horiz-adv-x="1300" d="M647 1462q253 0 378.5 -87.5t125.5 -268.5q0 -58 -6.5 -102.5t-25 -88.5t-51 -74t-86.5 -51t-128 -28q98 -4 165 -33.5t102.5 -81.5t50 -113.5t14.5 -144.5q0 -230 -132 -324t-433 -94q-71 0 -123 6l20 173q102 -7 109 -7q135 0 209 27t102.5 81.5t28.5 151.5 q0 151 -69.5 211t-244.5 60h-61v166h59q160 0 223.5 55t63.5 180q0 116 -66 163.5t-227 47.5q-148 0 -224.5 -55t-76.5 -160v-1071h-194v1090q0 127 64.5 212t173.5 122.5t259 37.5z" />
<glyph unicode="&#xe0;" horiz-adv-x="1128" d="M983 664v-611q-90 -37 -213.5 -59.5t-230.5 -22.5q-239 0 -334.5 74.5t-95.5 273.5q0 86 20.5 148.5t54 99.5t88.5 59t111.5 29t134.5 7q125 0 277 -31q0 84 -11.5 133.5t-45 80.5t-85.5 41.5t-141 10.5q-182 0 -307 -49l-41 168q188 51 379 51q118 0 198 -19t136 -65 t81 -124t25 -195zM795 170v317q-95 23 -242 23q-73 0 -112.5 -5.5t-70.5 -24t-42 -54t-11 -96.5q0 -67 9.5 -105t38.5 -60.5t70 -29t116 -6.5q129 0 244 41zM733 1163h-182l-285 264h221z" />
<glyph unicode="&#xe1;" horiz-adv-x="1128" d="M983 664v-611q-90 -37 -213.5 -59.5t-230.5 -22.5q-239 0 -334.5 74.5t-95.5 273.5q0 86 20.5 148.5t54 99.5t88.5 59t111.5 29t134.5 7q125 0 277 -31q0 84 -11.5 133.5t-45 80.5t-85.5 41.5t-141 10.5q-182 0 -307 -49l-41 168q188 51 379 51q118 0 198 -19t136 -65 t81 -124t25 -195zM795 170v317q-95 23 -242 23q-73 0 -112.5 -5.5t-70.5 -24t-42 -54t-11 -96.5q0 -67 9.5 -105t38.5 -60.5t70 -29t116 -6.5q129 0 244 41zM580 1163h-185l248 264h219z" />
<glyph unicode="&#xe2;" horiz-adv-x="1128" d="M983 664v-611q-90 -37 -213.5 -59.5t-230.5 -22.5q-239 0 -334.5 74.5t-95.5 273.5q0 86 20.5 148.5t54 99.5t88.5 59t111.5 29t134.5 7q125 0 277 -31q0 84 -11.5 133.5t-45 80.5t-85.5 41.5t-141 10.5q-182 0 -307 -49l-41 168q188 51 379 51q118 0 198 -19t136 -65 t81 -124t25 -195zM795 170v317q-95 23 -242 23q-73 0 -112.5 -5.5t-70.5 -24t-42 -54t-11 -96.5q0 -67 9.5 -105t38.5 -60.5t70 -29t116 -6.5q129 0 244 41zM721 1163q-26 28 -78 83t-78 83q-37 -43 -151 -166h-195q42 44 125 132t125 132h199l258 -264h-205z" />
<glyph unicode="&#xe3;" horiz-adv-x="1128" d="M983 664v-611q-90 -37 -213.5 -59.5t-230.5 -22.5q-239 0 -334.5 74.5t-95.5 273.5q0 86 20.5 148.5t54 99.5t88.5 59t111.5 29t134.5 7q125 0 277 -31q0 84 -11.5 133.5t-45 80.5t-85.5 41.5t-141 10.5q-182 0 -307 -49l-41 168q188 51 379 51q118 0 198 -19t136 -65 t81 -124t25 -195zM795 170v317q-95 23 -242 23q-73 0 -112.5 -5.5t-70.5 -24t-42 -54t-11 -96.5q0 -67 9.5 -105t38.5 -60.5t70 -29t116 -6.5q129 0 244 41zM811 1423l107 -84q-70 -188 -230 -188q-39 0 -79.5 19t-69.5 42.5t-66.5 42.5t-69.5 19q-33 0 -60.5 -27t-53.5 -88 l-94 92q47 83 97.5 124.5t119.5 41.5q43 0 84.5 -19t69 -41.5t62 -41.5t66.5 -19q39 0 65 28t52 99z" />
<glyph unicode="&#xe4;" horiz-adv-x="1128" d="M983 664v-611q-90 -37 -213.5 -59.5t-230.5 -22.5q-239 0 -334.5 74.5t-95.5 273.5q0 86 20.5 148.5t54 99.5t88.5 59t111.5 29t134.5 7q125 0 277 -31q0 84 -11.5 133.5t-45 80.5t-85.5 41.5t-141 10.5q-182 0 -307 -49l-41 168q188 51 379 51q118 0 198 -19t136 -65 t81 -124t25 -195zM795 170v317q-95 23 -242 23q-73 0 -112.5 -5.5t-70.5 -24t-42 -54t-11 -96.5q0 -67 9.5 -105t38.5 -60.5t70 -29t116 -6.5q129 0 244 41zM346 1370q61 0 82 -17.5t21 -78.5q0 -67 -21 -87t-82 -20q-62 0 -83 20t-21 87q0 61 21 78.5t83 17.5zM758 1370 q61 0 81.5 -17.5t20.5 -78.5q0 -67 -20.5 -87t-81.5 -20q-62 0 -83.5 20t-21.5 87q0 61 21 78.5t84 17.5z" />
<glyph unicode="&#xe5;" horiz-adv-x="1128" d="M983 664v-611q-90 -37 -213.5 -59.5t-230.5 -22.5q-239 0 -334.5 74.5t-95.5 273.5q0 86 20.5 148.5t54 99.5t88.5 59t111.5 29t134.5 7q125 0 277 -31q0 84 -11.5 133.5t-45 80.5t-85.5 41.5t-141 10.5q-182 0 -307 -49l-41 168q188 51 379 51q118 0 198 -19t136 -65 t81 -124t25 -195zM795 170v317q-95 23 -242 23q-73 0 -112.5 -5.5t-70.5 -24t-42 -54t-11 -96.5q0 -67 9.5 -105t38.5 -60.5t70 -29t116 -6.5q129 0 244 41zM573 1513q118 0 176 -47t58 -149q0 -101 -58.5 -149t-175.5 -48t-175 48t-58 149q0 105 53 150.5t180 45.5z M573 1411q-62 0 -86 -23t-24 -73q0 -49 24.5 -73.5t85.5 -24.5q63 0 88 24.5t25 73.5q0 50 -25 73t-88 23z" />
<glyph unicode="&#xe6;" horiz-adv-x="1789" d="M1591 190l37 -161q-80 -25 -180 -41.5t-172 -16.5q-217 0 -324 86q-61 -41 -182.5 -63.5t-230.5 -22.5q-239 0 -334.5 74.5t-95.5 273.5q0 86 20.5 148.5t54.5 99.5t88.5 59t111.5 29t134 7q125 0 277 -31q0 85 -10.5 133.5t-43 79.5t-85 41t-144.5 10q-187 0 -307 -47 l-41 168q188 51 379 51q153 0 237.5 -33.5t124.5 -118.5q46 83 129.5 117.5t220.5 34.5q97 0 166.5 -16t125 -55t87.5 -106t47.5 -168t12.5 -243h-707q1 -104 19.5 -170.5t59 -103.5t94 -50.5t136.5 -13.5q60 0 147 14t148 35zM842 188q-31 72 -40 139t-9 160 q-98 23 -240 23q-59 0 -93 -3t-65.5 -13t-46 -30t-23 -52t-8.5 -82q0 -63 8 -98.5t34 -60.5t70.5 -33.5t121.5 -8.5q70 0 155.5 16.5t135.5 42.5zM1264 905q-141 0 -201.5 -54.5t-73.5 -213.5h512q-4 111 -29 168.5t-72.5 78.5t-135.5 21z" />
<glyph unicode="&#xe7;" horiz-adv-x="958" d="M881 197l51 -170q-58 -25 -145.5 -40.5t-161.5 -15.5q-125 0 -215 27t-158 89.5t-101.5 171t-33.5 265.5q0 156 34 263t102 168t158 86.5t214 25.5q72 0 161 -14t146 -35l-51 -172q-106 47 -248 47q-86 0 -139 -13t-94.5 -52.5t-59.5 -114t-18 -193.5q0 -113 18 -187 t59 -115t96 -57t138 -16q122 0 248 52zM524 0h86v-90q131 0 182.5 -33.5t51.5 -124.5q0 -95 -60 -131.5t-209 -36.5q-138 0 -208 37l41 98q61 -28 161 -28q59 0 81 12t22 49q0 41 -46.5 53.5t-174.5 4.5z" />
<glyph unicode="&#xe8;" horiz-adv-x="1124" d="M928 190l37 -161q-80 -25 -181 -41.5t-174 -16.5q-120 0 -207.5 27t-153.5 89.5t-99 171t-33 265.5q0 152 30.5 258t93 168t148 89.5t203.5 27.5q122 0 202 -25.5t136.5 -91t80 -180t19.5 -291.5h-706q1 -104 19 -170.5t58 -103.5t94 -50.5t138 -13.5q58 0 146.5 14 t148.5 35zM600 905q-143 0 -202.5 -57t-71.5 -211h512q-5 111 -30 168.5t-72.5 78.5t-135.5 21zM784 1163h-182l-285 264h222z" />
<glyph unicode="&#xe9;" horiz-adv-x="1124" d="M928 190l37 -161q-80 -25 -181 -41.5t-174 -16.5q-120 0 -207.5 27t-153.5 89.5t-99 171t-33 265.5q0 152 30.5 258t93 168t148 89.5t203.5 27.5q122 0 202 -25.5t136.5 -91t80 -180t19.5 -291.5h-706q1 -104 19 -170.5t58 -103.5t94 -50.5t138 -13.5q58 0 146.5 14 t148.5 35zM600 905q-143 0 -202.5 -57t-71.5 -211h512q-5 111 -30 168.5t-72.5 78.5t-135.5 21zM604 1163h-184l248 264h219z" />
<glyph unicode="&#xea;" horiz-adv-x="1124" d="M928 190l37 -161q-80 -25 -181 -41.5t-174 -16.5q-120 0 -207.5 27t-153.5 89.5t-99 171t-33 265.5q0 152 30.5 258t93 168t148 89.5t203.5 27.5q122 0 202 -25.5t136.5 -91t80 -180t19.5 -291.5h-706q1 -104 19 -170.5t58 -103.5t94 -50.5t138 -13.5q58 0 146.5 14 t148.5 35zM600 905q-143 0 -202.5 -57t-71.5 -211h512q-5 111 -30 168.5t-72.5 78.5t-135.5 21zM752 1163q-26 28 -78 83t-78 83q-24 -28 -152 -166h-194q42 44 125 132t125 132h198l258 -264h-204z" />
<glyph unicode="&#xeb;" horiz-adv-x="1124" d="M928 190l37 -161q-80 -25 -181 -41.5t-174 -16.5q-120 0 -207.5 27t-153.5 89.5t-99 171t-33 265.5q0 152 30.5 258t93 168t148 89.5t203.5 27.5q122 0 202 -25.5t136.5 -91t80 -180t19.5 -291.5h-706q1 -104 19 -170.5t58 -103.5t94 -50.5t138 -13.5q58 0 146.5 14 t148.5 35zM600 905q-143 0 -202.5 -57t-71.5 -211h512q-5 111 -30 168.5t-72.5 78.5t-135.5 21zM391 1370q61 0 82 -17.5t21 -78.5q0 -67 -21 -87t-82 -20q-62 0 -83 20t-21 87q0 61 21 78.5t83 17.5zM803 1370q61 0 81.5 -17.5t20.5 -78.5q0 -67 -20.5 -87t-81.5 -20 q-62 0 -83.5 20t-21.5 87q0 61 21 78.5t84 17.5z" />
<glyph unicode="&#xec;" d="M342 1038v-1038h-192v1038h192zM383 1163h-182l-285 264h221z" />
<glyph unicode="&#xed;" d="M342 1038v-1038h-192v1038h192zM281 1163h-185l248 264h219z" />
<glyph unicode="&#xee;" d="M342 1038v-1038h-192v1038h192zM395 1163q-27 29 -79 84.5t-76 81.5q-24 -28 -152 -166h-194q42 44 124.5 132t124.5 132h199l258 -264h-205z" />
<glyph unicode="&#xef;" d="M342 1038v-1038h-192v1038h192zM41 1370q61 0 81.5 -17.5t20.5 -78.5q0 -67 -20.5 -87t-81.5 -20q-62 0 -83 20t-21 87q0 61 21 78.5t83 17.5zM453 1370q61 0 81.5 -17.5t20.5 -78.5q0 -67 -20.5 -87t-81.5 -20q-62 0 -83.5 20t-21.5 87q0 61 21 78.5t84 17.5z" />
<glyph unicode="&#xf0;" horiz-adv-x="1277" d="M537 993l-84 117l147 94q-82 89 -231 223h270q72 -65 127 -120l139 92l82 -117l-125 -82q307 -354 307 -739q0 -151 -24.5 -244t-88.5 -151t-162 -79.5t-257 -21.5q-283 0 -403.5 108t-120.5 369q0 237 115 329.5t411 92.5q107 0 225 -16q-56 118 -170 248zM653 686 q-102 0 -161.5 -10t-97 -40.5t-50 -78t-12.5 -129.5q0 -75 12.5 -124t45.5 -86.5t93.5 -54t153.5 -16.5q62 0 102.5 4t79 16t60.5 34.5t39.5 60.5t24.5 93t7 132q0 101 -22 179q-120 20 -275 20z" />
<glyph unicode="&#xf1;" horiz-adv-x="1163" d="M342 860v-860h-192v981q89 38 216.5 62t237.5 24q115 0 191 -22.5t128 -78.5t74.5 -149t22.5 -235v-582h-193v557q0 105 -11.5 167t-42.5 100.5t-79 51.5t-129 13q-119 0 -223 -29zM834 1423l106 -84q-70 -188 -229 -188q-39 0 -79.5 19t-69.5 42.5t-66.5 42.5t-69.5 19 q-67 0 -115 -115l-94 92q47 83 97.5 124.5t119.5 41.5q43 0 85 -19t69 -41.5t62 -41.5t67 -19q39 0 65 28t52 99z" />
<glyph unicode="&#xf2;" horiz-adv-x="1202" d="M600 -29q-127 0 -214.5 26.5t-149.5 90t-90.5 170.5t-28.5 266q0 158 29 263.5t91 167t149 87t214 25.5q102 0 176.5 -16t134.5 -53t97 -99.5t56 -155t19 -219.5q0 -159 -28.5 -266t-90 -170.5t-149 -90t-215.5 -26.5zM600 903q-67 0 -110.5 -9t-78 -32t-53 -67 t-27.5 -110t-9 -165q0 -157 26.5 -239t84 -114t167.5 -32q82 0 133 16t85 60t47.5 117.5t13.5 191.5q0 124 -13 198t-48 115.5t-84.5 55.5t-133.5 14zM799 1163h-183l-284 264h221z" />
<glyph unicode="&#xf3;" horiz-adv-x="1202" d="M600 -29q-127 0 -214.5 26.5t-149.5 90t-90.5 170.5t-28.5 266q0 158 29 263.5t91 167t149 87t214 25.5q102 0 176.5 -16t134.5 -53t97 -99.5t56 -155t19 -219.5q0 -159 -28.5 -266t-90 -170.5t-149 -90t-215.5 -26.5zM600 903q-67 0 -110.5 -9t-78 -32t-53 -67 t-27.5 -110t-9 -165q0 -157 26.5 -239t84 -114t167.5 -32q82 0 133 16t85 60t47.5 117.5t13.5 191.5q0 124 -13 198t-48 115.5t-84.5 55.5t-133.5 14zM608 1163h-184l248 264h219z" />
<glyph unicode="&#xf4;" horiz-adv-x="1202" d="M600 -29q-127 0 -214.5 26.5t-149.5 90t-90.5 170.5t-28.5 266q0 158 29 263.5t91 167t149 87t214 25.5q102 0 176.5 -16t134.5 -53t97 -99.5t56 -155t19 -219.5q0 -159 -28.5 -266t-90 -170.5t-149 -90t-215.5 -26.5zM600 903q-67 0 -110.5 -9t-78 -32t-53 -67 t-27.5 -110t-9 -165q0 -157 26.5 -239t84 -114t167.5 -32q82 0 133 16t85 60t47.5 117.5t13.5 191.5q0 124 -13 198t-48 115.5t-84.5 55.5t-133.5 14zM745 1163q-27 29 -79 84.5t-76 81.5q-25 -28 -152 -166h-194q42 44 125 132t125 132h198l258 -264h-205z" />
<glyph unicode="&#xf5;" horiz-adv-x="1202" d="M600 -29q-127 0 -214.5 26.5t-149.5 90t-90.5 170.5t-28.5 266q0 158 29 263.5t91 167t149 87t214 25.5q102 0 176.5 -16t134.5 -53t97 -99.5t56 -155t19 -219.5q0 -159 -28.5 -266t-90 -170.5t-149 -90t-215.5 -26.5zM600 903q-67 0 -110.5 -9t-78 -32t-53 -67 t-27.5 -110t-9 -165q0 -157 26.5 -239t84 -114t167.5 -32q82 0 133 16t85 60t47.5 117.5t13.5 191.5q0 124 -13 198t-48 115.5t-84.5 55.5t-133.5 14zM852 1423l106 -84q-70 -188 -229 -188q-39 0 -79.5 19t-69.5 42.5t-66.5 42.5t-69.5 19q-33 0 -60.5 -27t-53.5 -88 l-94 92q47 83 97.5 124.5t119.5 41.5q43 0 84.5 -19t69 -41.5t62 -41.5t66.5 -19q39 0 65 28t52 99z" />
<glyph unicode="&#xf6;" horiz-adv-x="1202" d="M600 -29q-127 0 -214.5 26.5t-149.5 90t-90.5 170.5t-28.5 266q0 158 29 263.5t91 167t149 87t214 25.5q102 0 176.5 -16t134.5 -53t97 -99.5t56 -155t19 -219.5q0 -159 -28.5 -266t-90 -170.5t-149 -90t-215.5 -26.5zM600 903q-67 0 -110.5 -9t-78 -32t-53 -67 t-27.5 -110t-9 -165q0 -157 26.5 -239t84 -114t167.5 -32q82 0 133 16t85 60t47.5 117.5t13.5 191.5q0 124 -13 198t-48 115.5t-84.5 55.5t-133.5 14zM393 1370q61 0 82 -17.5t21 -78.5q0 -67 -21 -87t-82 -20q-62 0 -83 20t-21 87q0 61 21 78.5t83 17.5zM805 1370 q61 0 81.5 -17.5t20.5 -78.5q0 -67 -20.5 -87t-81.5 -20q-62 0 -83.5 20t-21.5 87q0 61 21 78.5t84 17.5z" />
<glyph unicode="&#xf7;" horiz-adv-x="1232" d="M121 645v182h989v-182h-989zM616 440q81 0 108.5 -22t27.5 -99q0 -84 -27.5 -109.5t-108.5 -25.5q-76 0 -103.5 26t-27.5 109q0 76 27 98.5t104 22.5zM616 1284q82 0 109 -22t27 -101q0 -84 -27.5 -108.5t-108.5 -24.5q-77 0 -104 25t-27 108q0 78 26.5 100.5t104.5 22.5 z" />
<glyph unicode="&#xf8;" horiz-adv-x="1202" d="M944 1038h197l-129 -149q71 -122 71 -365q0 -159 -28.5 -266t-91 -170.5t-150 -90t-215.5 -26.5q-194 0 -307 70l-37 -41h-193l127 150q-71 122 -71 374q0 158 29 263.5t91 167t148.5 87t212.5 25.5q205 0 309 -70zM598 903q-82 0 -130.5 -13t-83 -52.5t-48 -108.5 t-14.5 -184q0 -151 12 -219l465 532q-59 45 -201 45zM598 135q164 0 222.5 81.5t58.5 299.5q0 122 -11 195l-465 -529q55 -47 195 -47z" />
<glyph unicode="&#xf9;" horiz-adv-x="1163" d="M823 180v858h193v-981q-90 -38 -218.5 -62t-236.5 -24q-115 0 -191 23t-128 79.5t-74.5 149.5t-22.5 234v581h193v-557q0 -139 23.5 -208.5t76.5 -96t160 -26.5q131 0 225 30zM774 1163h-182l-285 264h221z" />
<glyph unicode="&#xfa;" horiz-adv-x="1163" d="M823 180v858h193v-981q-90 -38 -218.5 -62t-236.5 -24q-115 0 -191 23t-128 79.5t-74.5 149.5t-22.5 234v581h193v-557q0 -139 23.5 -208.5t76.5 -96t160 -26.5q131 0 225 30zM600 1163h-184l248 264h219z" />
<glyph unicode="&#xfb;" horiz-adv-x="1163" d="M823 180v858h193v-981q-90 -38 -218.5 -62t-236.5 -24q-115 0 -191 23t-128 79.5t-74.5 149.5t-22.5 234v581h193v-557q0 -139 23.5 -208.5t76.5 -96t160 -26.5q131 0 225 30zM750 1163q-26 28 -78 83t-78 83q-24 -28 -152 -166h-194q42 44 125 132t125 132h198l258 -264 h-204z" />
<glyph unicode="&#xfc;" horiz-adv-x="1163" d="M823 180v858h193v-981q-90 -38 -218.5 -62t-236.5 -24q-115 0 -191 23t-128 79.5t-74.5 149.5t-22.5 234v581h193v-557q0 -139 23.5 -208.5t76.5 -96t160 -26.5q131 0 225 30zM391 1370q61 0 82 -17.5t21 -78.5q0 -67 -21 -87t-82 -20q-62 0 -83 20t-21 87q0 61 21 78.5 t83 17.5zM803 1370q61 0 81.5 -17.5t20.5 -78.5q0 -67 -20.5 -87t-81.5 -20q-62 0 -83.5 20t-21.5 87q0 61 21 78.5t84 17.5z" />
<glyph unicode="&#xfd;" horiz-adv-x="1044" d="M399 -49q-182 658 -374 1087h206q151 -355 289 -854q195 486 293 854h201q-135 -456 -389 -1058q-84 -204 -174 -373h-220q77 142 168 344zM567 1163h-184l248 264h219z" />
<glyph unicode="&#xfe;" horiz-adv-x="1187" d="M150 -393v1859h192v-428q129 29 244 29q129 0 216.5 -25.5t149 -88t89.5 -168t28 -263.5q0 -126 -19.5 -220t-56 -157t-93.5 -102t-128 -55.5t-164 -16.5q-160 0 -266 74v-438h-192zM342 858v-592q0 -58 70 -91.5t174 -33.5q109 0 167.5 32.5t85.5 113t27 231.5 q0 97 -9.5 162t-28 108.5t-53.5 66t-78.5 31.5t-110.5 9q-146 0 -244 -37z" />
<glyph unicode="&#xff;" horiz-adv-x="1044" d="M399 -49q-182 658 -374 1087h206q151 -355 289 -854q195 486 293 854h201q-135 -456 -389 -1058q-84 -204 -174 -373h-220q77 142 168 344zM322 1370q61 0 81.5 -17.5t20.5 -78.5q0 -67 -20.5 -87t-81.5 -20q-62 0 -83.5 20t-21.5 87q0 61 21 78.5t84 17.5zM733 1370 q61 0 82 -17.5t21 -78.5q0 -67 -21 -87t-82 -20q-62 0 -83 20t-21 87q0 61 21 78.5t83 17.5z" />
<glyph unicode="&#x100;" horiz-adv-x="1382" d="M1161 0q-118 298 -153 397h-662q-61 -182 -129 -397h-215q247 743 528 1427h338q273 -834 527 -1427h-234zM719 1255h-57q-125 -312 -256 -680h540q-99 272 -227 680zM418 1561v157h543v-157h-543z" />
<glyph unicode="&#x101;" horiz-adv-x="1128" d="M983 664v-611q-90 -37 -213.5 -59.5t-230.5 -22.5q-239 0 -334.5 74.5t-95.5 273.5q0 86 20.5 148.5t54 99.5t88.5 59t111.5 29t134.5 7q125 0 277 -31q0 84 -11.5 133.5t-45 80.5t-85.5 41.5t-141 10.5q-182 0 -307 -49l-41 168q188 51 379 51q118 0 198 -19t136 -65 t81 -124t25 -195zM795 170v317q-95 23 -242 23q-73 0 -112.5 -5.5t-70.5 -24t-42 -54t-11 -96.5q0 -67 9.5 -105t38.5 -60.5t70 -29t116 -6.5q129 0 244 41zM287 1190v151h542v-151h-542z" />
<glyph unicode="&#x102;" horiz-adv-x="1382" d="M1161 0q-118 298 -153 397h-662q-61 -182 -129 -397h-215q247 743 528 1427h338q273 -834 527 -1427h-234zM719 1255h-57q-125 -312 -256 -680h540q-99 272 -227 680zM397 1784h144q0 -76 34.5 -102.5t114.5 -26.5q78 0 114 27t36 102h135q0 -271 -289 -271t-289 271z " />
<glyph unicode="&#x103;" horiz-adv-x="1128" d="M983 664v-611q-90 -37 -213.5 -59.5t-230.5 -22.5q-239 0 -334.5 74.5t-95.5 273.5q0 86 20.5 148.5t54 99.5t88.5 59t111.5 29t134.5 7q125 0 277 -31q0 84 -11.5 133.5t-45 80.5t-85.5 41.5t-141 10.5q-182 0 -307 -49l-41 168q188 51 379 51q118 0 198 -19t136 -65 t81 -124t25 -195zM795 170v317q-95 23 -242 23q-73 0 -112.5 -5.5t-70.5 -24t-42 -54t-11 -96.5q0 -67 9.5 -105t38.5 -60.5t70 -29t116 -6.5q129 0 244 41zM268 1427h144q0 -76 34.5 -102.5t114.5 -26.5q78 0 114 27t36 102h135q0 -138 -72.5 -204t-216.5 -66 q-289 0 -289 270z" />
<glyph unicode="&#x104;" horiz-adv-x="1382" d="M1161 0q-118 298 -153 397h-662q-61 -182 -129 -397h-215q247 743 528 1427h338q273 -834 527 -1427h-234zM719 1255h-57q-125 -312 -256 -680h540q-99 272 -227 680zM1280 25h76q-110 -67 -147.5 -114.5t-37.5 -111.5q0 -46 29 -67t105 -21q49 0 97.5 17t80.5 43 l65 -115q-47 -35 -120 -53.5t-142 -18.5q-149 0 -207.5 44t-58.5 139q0 85 66 153.5t194 104.5z" />
<glyph unicode="&#x105;" horiz-adv-x="1128" d="M983 664v-611q-90 -37 -213.5 -59.5t-230.5 -22.5q-239 0 -334.5 74.5t-95.5 273.5q0 86 20.5 148.5t54 99.5t88.5 59t111.5 29t134.5 7q125 0 277 -31q0 84 -11.5 133.5t-45 80.5t-85.5 41.5t-141 10.5q-182 0 -307 -49l-41 168q188 51 379 51q118 0 198 -19t136 -65 t81 -124t25 -195zM795 170v317q-95 23 -242 23q-73 0 -112.5 -5.5t-70.5 -24t-42 -54t-11 -96.5q0 -67 9.5 -105t38.5 -60.5t70 -29t116 -6.5q129 0 244 41zM825 25h76q-110 -67 -147 -114.5t-37 -111.5q0 -47 28.5 -67.5t104.5 -20.5q49 0 97.5 17t80.5 43l66 -115 q-47 -35 -120 -53.5t-143 -18.5q-149 0 -207.5 44t-58.5 139q0 85 66 153.5t194 104.5z" />
<glyph unicode="&#x106;" horiz-adv-x="1222" d="M119 727q0 175 26.5 301t76.5 210t132 133.5t184 70t242 20.5q96 0 209 -15t195 -38l-51 -186q-59 22 -152.5 35.5t-175.5 13.5q-91 0 -151.5 -7t-116.5 -28t-89 -58t-58.5 -98.5t-35.5 -148t-10 -207.5t10.5 -208t35 -150t58.5 -102t89 -62t117 -31t151 -8 q81 0 174.5 13t153.5 34l51 -186q-82 -24 -194 -39t-210 -15q-174 0 -293.5 36.5t-204.5 123t-124 233t-39 363.5zM696 1530h-180l270 264h234z" />
<glyph unicode="&#x107;" horiz-adv-x="958" d="M881 197l51 -170q-58 -25 -145.5 -40.5t-161.5 -15.5q-125 0 -215 27t-158 89.5t-101.5 171t-33.5 265.5q0 156 34 263t102 168t158 86.5t214 25.5q72 0 161 -14t146 -35l-51 -172q-106 47 -248 47q-86 0 -139 -13t-94.5 -52.5t-59.5 -114t-18 -193.5q0 -113 18 -187 t59 -115t96 -57t138 -16q122 0 248 52zM590 1163h-184l247 264h219z" />
<glyph unicode="&#x108;" horiz-adv-x="1222" d="M119 727q0 175 26.5 301t76.5 210t132 133.5t184 70t242 20.5q96 0 209 -15t195 -38l-51 -186q-59 22 -152.5 35.5t-175.5 13.5q-91 0 -151.5 -7t-116.5 -28t-89 -58t-58.5 -98.5t-35.5 -148t-10 -207.5t10.5 -208t35 -150t58.5 -102t89 -62t117 -31t151 -8 q81 0 174.5 13t153.5 34l51 -186q-82 -24 -194 -39t-210 -15q-174 0 -293.5 36.5t-204.5 123t-124 233t-39 363.5zM762 1702l-154 -172h-192q42 44 125 132t125 132h198l258 -264h-200z" />
<glyph unicode="&#x109;" horiz-adv-x="958" d="M881 197l51 -170q-58 -25 -145.5 -40.5t-161.5 -15.5q-125 0 -215 27t-158 89.5t-101.5 171t-33.5 265.5q0 156 34 263t102 168t158 86.5t214 25.5q72 0 161 -14t146 -35l-51 -172q-106 47 -248 47q-86 0 -139 -13t-94.5 -52.5t-59.5 -114t-18 -193.5q0 -113 18 -187 t59 -115t96 -57t138 -16q122 0 248 52zM745 1163q-27 29 -79 84.5t-76 81.5q-25 -28 -152 -166h-194q42 44 125 132t125 132h198l258 -264h-205z" />
<glyph unicode="&#x10a;" horiz-adv-x="1222" d="M119 727q0 175 26.5 301t76.5 210t132 133.5t184 70t242 20.5q96 0 209 -15t195 -38l-51 -186q-59 22 -152.5 35.5t-175.5 13.5q-91 0 -151.5 -7t-116.5 -28t-89 -58t-58.5 -98.5t-35.5 -148t-10 -207.5t10.5 -208t35 -150t58.5 -102t89 -62t117 -31t151 -8 q81 0 174.5 13t153.5 34l51 -186q-82 -24 -194 -39t-210 -15q-174 0 -293.5 36.5t-204.5 123t-124 233t-39 363.5zM760 1755q61 0 81.5 -17.5t20.5 -78.5q0 -67 -21 -88t-81 -21q-62 0 -83.5 21t-21.5 88q0 61 21 78.5t84 17.5z" />
<glyph unicode="&#x10b;" horiz-adv-x="958" d="M881 197l51 -170q-58 -25 -145.5 -40.5t-161.5 -15.5q-125 0 -215 27t-158 89.5t-101.5 171t-33.5 265.5q0 156 34 263t102 168t158 86.5t214 25.5q72 0 161 -14t146 -35l-51 -172q-106 47 -248 47q-86 0 -139 -13t-94.5 -52.5t-59.5 -114t-18 -193.5q0 -113 18 -187 t59 -115t96 -57t138 -16q122 0 248 52zM608 1370q61 0 82 -17.5t21 -78.5q0 -67 -21 -87t-82 -20t-82.5 20t-21.5 87q0 61 21.5 78.5t82.5 17.5z" />
<glyph unicode="&#x10c;" horiz-adv-x="1222" d="M119 727q0 175 26.5 301t76.5 210t132 133.5t184 70t242 20.5q96 0 209 -15t195 -38l-51 -186q-59 22 -152.5 35.5t-175.5 13.5q-91 0 -151.5 -7t-116.5 -28t-89 -58t-58.5 -98.5t-35.5 -148t-10 -207.5t10.5 -208t35 -150t58.5 -102t89 -62t117 -31t151 -8 q81 0 174.5 13t153.5 34l51 -186q-82 -24 -194 -39t-210 -15q-174 0 -293.5 36.5t-204.5 123t-124 233t-39 363.5zM584 1794l159 -172l156 172h193l-250 -264h-199l-258 264h199z" />
<glyph unicode="&#x10d;" horiz-adv-x="958" d="M881 197l51 -170q-58 -25 -145.5 -40.5t-161.5 -15.5q-125 0 -215 27t-158 89.5t-101.5 171t-33.5 265.5q0 156 34 263t102 168t158 86.5t214 25.5q72 0 161 -14t146 -35l-51 -172q-106 47 -248 47q-86 0 -139 -13t-94.5 -52.5t-59.5 -114t-18 -193.5q0 -113 18 -187 t59 -115t96 -57t138 -16q122 0 248 52zM246 1427h203l155 -165l152 165h196l-250 -264h-198z" />
<glyph unicode="&#x10e;" horiz-adv-x="1474" d="M195 1427h491q140 0 242.5 -20.5t186 -69.5t134.5 -130t78 -202t27 -286t-26.5 -287t-78 -205t-134 -133.5t-186.5 -72t-243 -21.5h-491v1427zM1133 717q0 87 -5.5 154.5t-18.5 122t-31 93.5t-47 68t-62 47t-80 28.5t-97.5 14.5t-117.5 4h-273v-1071h273q133 0 216 22.5 t140 83.5t80 164.5t23 268.5zM526 1794l160 -172l156 172h192l-250 -264h-198l-258 264h198z" />
<glyph unicode="&#x10f;" horiz-adv-x="1187" d="M846 180v594q0 57 -71 90t-175 33q-108 0 -166 -32t-85 -112.5t-27 -230.5q0 -97 9.5 -162t28 -109t53.5 -67t78.5 -32t110.5 -9q143 0 244 37zM1038 1479v-1428q-83 -36 -206.5 -58t-229.5 -22q-129 0 -216.5 25.5t-149.5 88t-90.5 168.5t-28.5 265q0 156 29 263.5 t89.5 170t143 89t199.5 26.5q158 0 268 -70v482h192zM1149 1479h188l-114 -394h-117z" />
<glyph unicode="&#x110;" horiz-adv-x="1474" d="M195 1427h491q140 0 242.5 -20.5t186 -69.5t134.5 -130t78 -202t27 -286t-26.5 -287t-78 -205t-134 -133.5t-186.5 -72t-243 -21.5h-491v1427zM1133 717q0 87 -5.5 154.5t-18.5 122t-31 93.5t-47 68t-62 47t-80 28.5t-97.5 14.5t-117.5 4h-273v-1071h273q133 0 216 22.5 t140 83.5t80 164.5t23 268.5zM426 1561v157h543v-157h-543z" />
<glyph unicode="&#x111;" horiz-adv-x="1187" d="M643 1194v145h203v140h192v-140h97v-145h-97v-1143q-83 -36 -206.5 -58t-229.5 -22q-129 0 -216.5 25.5t-149.5 88t-90.5 168.5t-28.5 265q0 156 29 263.5t89.5 170t143 89t199.5 26.5q158 0 268 -70v197h-203zM846 180v594q0 57 -71 90t-175 33q-108 0 -166 -32 t-85 -112.5t-27 -230.5q0 -97 9.5 -162t28 -109t53.5 -67t78.5 -32t110.5 -9q143 0 244 37z" />
<glyph unicode="&#x112;" horiz-adv-x="1259" d="M195 1427h1005v-178h-799v-405h568v-176h-568v-490h799v-178h-1005v1427zM426 1561v157h543v-157h-543z" />
<glyph unicode="&#x113;" horiz-adv-x="1124" d="M928 190l37 -161q-80 -25 -181 -41.5t-174 -16.5q-120 0 -207.5 27t-153.5 89.5t-99 171t-33 265.5q0 152 30.5 258t93 168t148 89.5t203.5 27.5q122 0 202 -25.5t136.5 -91t80 -180t19.5 -291.5h-706q1 -104 19 -170.5t58 -103.5t94 -50.5t138 -13.5q58 0 146.5 14 t148.5 35zM600 905q-143 0 -202.5 -57t-71.5 -211h512q-5 111 -30 168.5t-72.5 78.5t-135.5 21zM326 1190v151h542v-151h-542z" />
<glyph unicode="&#x114;" horiz-adv-x="1259" d="M195 1427h1005v-178h-799v-405h568v-176h-568v-490h799v-178h-1005v1427zM420 1784h143q0 -76 35 -102.5t115 -26.5q78 0 113.5 27t35.5 102h135q0 -138 -72 -204.5t-216 -66.5q-289 0 -289 271z" />
<glyph unicode="&#x115;" horiz-adv-x="1124" d="M928 190l37 -161q-80 -25 -181 -41.5t-174 -16.5q-120 0 -207.5 27t-153.5 89.5t-99 171t-33 265.5q0 152 30.5 258t93 168t148 89.5t203.5 27.5q122 0 202 -25.5t136.5 -91t80 -180t19.5 -291.5h-706q1 -104 19 -170.5t58 -103.5t94 -50.5t138 -13.5q58 0 146.5 14 t148.5 35zM600 905q-143 0 -202.5 -57t-71.5 -211h512q-5 111 -30 168.5t-72.5 78.5t-135.5 21zM299 1427h143q0 -76 35 -102.5t115 -26.5q78 0 113.5 27t35.5 102h136q0 -138 -72.5 -204t-216.5 -66q-289 0 -289 270z" />
<glyph unicode="&#x116;" horiz-adv-x="1259" d="M195 1427h1005v-178h-799v-405h568v-176h-568v-490h799v-178h-1005v1427zM743 1755q61 0 82 -17.5t21 -78.5q0 -67 -21.5 -88t-81.5 -21q-62 0 -83 21t-21 88q0 61 21 78.5t83 17.5z" />
<glyph unicode="&#x117;" horiz-adv-x="1124" d="M928 190l37 -161q-80 -25 -181 -41.5t-174 -16.5q-120 0 -207.5 27t-153.5 89.5t-99 171t-33 265.5q0 152 30.5 258t93 168t148 89.5t203.5 27.5q122 0 202 -25.5t136.5 -91t80 -180t19.5 -291.5h-706q1 -104 19 -170.5t58 -103.5t94 -50.5t138 -13.5q58 0 146.5 14 t148.5 35zM600 905q-143 0 -202.5 -57t-71.5 -211h512q-5 111 -30 168.5t-72.5 78.5t-135.5 21zM590 1370q61 0 81.5 -17.5t20.5 -78.5q0 -67 -20.5 -87t-81.5 -20t-83 20t-22 87q0 60 21.5 78t83.5 18z" />
<glyph unicode="&#x118;" horiz-adv-x="1259" d="M195 1427h1005v-178h-799v-405h568v-176h-568v-490h799v-178h-1005v1427zM1085 25h76q-110 -67 -147 -114.5t-37 -111.5q0 -47 28.5 -67.5t104.5 -20.5q49 0 97.5 17t80.5 43l66 -115q-47 -35 -120 -53.5t-142 -18.5q-150 0 -208.5 44t-58.5 139q0 85 66 153.5t194 104.5 z" />
<glyph unicode="&#x119;" horiz-adv-x="1124" d="M928 190l37 -161q-80 -25 -181 -41.5t-174 -16.5q-120 0 -207.5 27t-153.5 89.5t-99 171t-33 265.5q0 152 30.5 258t93 168t148 89.5t203.5 27.5q122 0 202 -25.5t136.5 -91t80 -180t19.5 -291.5h-706q1 -104 19 -170.5t58 -103.5t94 -50.5t138 -13.5q58 0 146.5 14 t148.5 35zM600 905q-143 0 -202.5 -57t-71.5 -211h512q-5 111 -30 168.5t-72.5 78.5t-135.5 21zM836 25h75q-110 -67 -147 -114.5t-37 -111.5q0 -47 28.5 -67.5t104.5 -20.5q49 0 97.5 17t80.5 43l66 -115q-47 -35 -120 -53.5t-142 -18.5q-150 0 -208.5 44t-58.5 139 q0 85 66.5 153.5t194.5 104.5z" />
<glyph unicode="&#x11a;" horiz-adv-x="1259" d="M195 1427h1005v-178h-799v-405h568v-176h-568v-490h799v-178h-1005v1427zM561 1794l160 -172l156 172h192l-250 -264h-198l-259 264h199z" />
<glyph unicode="&#x11b;" horiz-adv-x="1124" d="M928 190l37 -161q-80 -25 -181 -41.5t-174 -16.5q-120 0 -207.5 27t-153.5 89.5t-99 171t-33 265.5q0 152 30.5 258t93 168t148 89.5t203.5 27.5q122 0 202 -25.5t136.5 -91t80 -180t19.5 -291.5h-706q1 -104 19 -170.5t58 -103.5t94 -50.5t138 -13.5q58 0 146.5 14 t148.5 35zM600 905q-143 0 -202.5 -57t-71.5 -211h512q-5 111 -30 168.5t-72.5 78.5t-135.5 21zM238 1427h202l156 -165l152 165h196l-250 -264h-198z" />
<glyph unicode="&#x11c;" horiz-adv-x="1411" d="M1040 186v441h-342v174h553v-776q-80 -25 -217 -39.5t-254 -14.5q-174 0 -293.5 36.5t-204.5 123t-124 233t-39 363.5q0 145 18.5 257t57.5 193t93.5 136t133 88t169.5 47t208 14q97 0 214.5 -15t200.5 -38l-51 -184q-58 22 -162.5 35.5t-189.5 13.5q-92 0 -154 -7 t-118.5 -28.5t-90 -58.5t-59 -99t-35.5 -148.5t-10 -207.5t10.5 -208.5t35 -151t58.5 -103t88.5 -62.5t117 -31.5t151.5 -8.5q120 0 235 26zM766 1702l-154 -172h-192q42 44 125 132t125 132h198l258 -264h-200z" />
<glyph unicode="&#x11d;" horiz-adv-x="1187" d="M846 268v594q-104 37 -244 37q-67 0 -110.5 -8.5t-78.5 -31t-53.5 -66t-28 -109.5t-9.5 -164q0 -151 26.5 -231t84.5 -112t167 -32q104 0 175 33t71 90zM846 51q-110 -78 -275 -78q-119 0 -200.5 26t-140 88.5t-86 168.5t-27.5 264t28.5 264t90.5 168.5t149.5 88.5 t216.5 26q105 0 229 -21.5t207 -56.5v-911q0 -116 -25 -202.5t-68.5 -142t-112 -89t-147 -47t-181.5 -13.5q-78 0 -183 18t-167 42l45 166q62 -24 149.5 -40t153.5 -16q176 0 260 64.5t84 232.5zM764 1163q-26 28 -78 83t-78 83q-37 -43 -151 -166h-195q42 44 125 132 t125 132h199l258 -264h-205z" />
<glyph unicode="&#x11e;" horiz-adv-x="1411" d="M1040 186v441h-342v174h553v-776q-80 -25 -217 -39.5t-254 -14.5q-174 0 -293.5 36.5t-204.5 123t-124 233t-39 363.5q0 145 18.5 257t57.5 193t93.5 136t133 88t169.5 47t208 14q97 0 214.5 -15t200.5 -38l-51 -184q-58 22 -162.5 35.5t-189.5 13.5q-92 0 -154 -7 t-118.5 -28.5t-90 -58.5t-59 -99t-35.5 -148.5t-10 -207.5t10.5 -208.5t35 -151t58.5 -103t88.5 -62.5t117 -31.5t151.5 -8.5q120 0 235 26zM479 1784h144q0 -76 34.5 -102.5t114.5 -26.5q78 0 114 27t36 102h135q0 -271 -289 -271t-289 271z" />
<glyph unicode="&#x11f;" horiz-adv-x="1187" d="M846 268v594q-104 37 -244 37q-67 0 -110.5 -8.5t-78.5 -31t-53.5 -66t-28 -109.5t-9.5 -164q0 -151 26.5 -231t84.5 -112t167 -32q104 0 175 33t71 90zM846 51q-110 -78 -275 -78q-119 0 -200.5 26t-140 88.5t-86 168.5t-27.5 264t28.5 264t90.5 168.5t149.5 88.5 t216.5 26q105 0 229 -21.5t207 -56.5v-911q0 -116 -25 -202.5t-68.5 -142t-112 -89t-147 -47t-181.5 -13.5q-78 0 -183 18t-167 42l45 166q62 -24 149.5 -40t153.5 -16q176 0 260 64.5t84 232.5zM322 1427h143q0 -76 34.5 -102.5t114.5 -26.5q78 0 114 27t36 102h135 q0 -138 -72.5 -204t-216.5 -66q-288 0 -288 270z" />
<glyph unicode="&#x120;" horiz-adv-x="1411" d="M1040 186v441h-342v174h553v-776q-80 -25 -217 -39.5t-254 -14.5q-174 0 -293.5 36.5t-204.5 123t-124 233t-39 363.5q0 145 18.5 257t57.5 193t93.5 136t133 88t169.5 47t208 14q97 0 214.5 -15t200.5 -38l-51 -184q-58 22 -162.5 35.5t-189.5 13.5q-92 0 -154 -7 t-118.5 -28.5t-90 -58.5t-59 -99t-35.5 -148.5t-10 -207.5t10.5 -208.5t35 -151t58.5 -103t88.5 -62.5t117 -31.5t151.5 -8.5q120 0 235 26zM782 1755q61 0 82 -17.5t21 -78.5q0 -67 -21.5 -88t-81.5 -21q-62 0 -83 21t-21 88q0 61 21 78.5t83 17.5z" />
<glyph unicode="&#x121;" horiz-adv-x="1187" d="M846 268v594q-104 37 -244 37q-67 0 -110.5 -8.5t-78.5 -31t-53.5 -66t-28 -109.5t-9.5 -164q0 -151 26.5 -231t84.5 -112t167 -32q104 0 175 33t71 90zM846 51q-110 -78 -275 -78q-119 0 -200.5 26t-140 88.5t-86 168.5t-27.5 264t28.5 264t90.5 168.5t149.5 88.5 t216.5 26q105 0 229 -21.5t207 -56.5v-911q0 -116 -25 -202.5t-68.5 -142t-112 -89t-147 -47t-181.5 -13.5q-78 0 -183 18t-167 42l45 166q62 -24 149.5 -40t153.5 -16q176 0 260 64.5t84 232.5zM600 1370q61 0 81.5 -17.5t20.5 -78.5q0 -67 -20.5 -87t-81.5 -20t-82.5 20 t-21.5 87q0 61 21.5 78.5t82.5 17.5z" />
<glyph unicode="&#x122;" horiz-adv-x="1411" d="M1040 186v441h-342v174h553v-776q-80 -25 -217 -39.5t-254 -14.5q-174 0 -293.5 36.5t-204.5 123t-124 233t-39 363.5q0 145 18.5 257t57.5 193t93.5 136t133 88t169.5 47t208 14q97 0 214.5 -15t200.5 -38l-51 -184q-58 22 -162.5 35.5t-189.5 13.5q-92 0 -154 -7 t-118.5 -28.5t-90 -58.5t-59 -99t-35.5 -148.5t-10 -207.5t10.5 -208.5t35 -151t58.5 -103t88.5 -62.5t117 -31.5t151.5 -8.5q120 0 235 26zM727 0h86v-90q131 0 182.5 -33.5t51.5 -124.5q0 -95 -60 -131.5t-209 -36.5q-139 0 -209 37l41 98q61 -28 162 -28q59 0 80.5 12 t21.5 49q0 41 -46.5 53.5t-174.5 4.5z" />
<glyph unicode="&#x123;" horiz-adv-x="1187" d="M846 268v594q-104 37 -244 37q-67 0 -110.5 -8.5t-78.5 -31t-53.5 -66t-28 -109.5t-9.5 -164q0 -151 26.5 -231t84.5 -112t167 -32q104 0 175 33t71 90zM846 51q-110 -78 -275 -78q-119 0 -200.5 26t-140 88.5t-86 168.5t-27.5 264t28.5 264t90.5 168.5t149.5 88.5 t216.5 26q105 0 229 -21.5t207 -56.5v-911q0 -116 -25 -202.5t-68.5 -142t-112 -89t-147 -47t-181.5 -13.5q-78 0 -183 18t-167 42l45 166q62 -24 149.5 -40t153.5 -16q176 0 260 64.5t84 232.5zM836 1530l-213 -342h-156l145 342h224z" />
<glyph unicode="&#x124;" horiz-adv-x="1484" d="M401 666v-666h-206v1427h206v-571h684v571h207v-1427h-207v666h-684zM727 1702l-154 -172h-192q42 44 125 132t125 132h198l258 -264h-200z" />
<glyph unicode="&#x125;" horiz-adv-x="1163" d="M635 1067q103 0 171.5 -20.5t118.5 -73t72.5 -145.5t22.5 -236v-592h-195v567q0 84 -8.5 138t-33 98.5t-73 65t-124.5 20.5q-101 0 -172.5 -31.5t-71.5 -87.5v-770h-195v1479h195v-490q48 32 128.5 55t164.5 23zM379 1702l-154 -172h-192q42 44 125 132t125 132h198 l258 -264h-200z" />
<glyph unicode="&#x126;" horiz-adv-x="1484" d="M63 1085v166h132v176h206v-176h684v176h207v-176h133v-166h-133v-1085h-207v666h-684v-666h-206v1085h-132zM401 856h684v229h-684v-229z" />
<glyph unicode="&#x127;" horiz-adv-x="1163" d="M31 1204v142h119v133h192v-133h229v-142h-229v-215q48 32 129 55t166 23q103 0 171 -20.5t118 -73t72 -145.5t22 -236v-592h-193v567q0 134 -25.5 204.5t-75 95t-140.5 24.5q-99 0 -171.5 -32.5t-72.5 -86.5v-772h-192v1204h-119z" />
<glyph unicode="&#x128;" horiz-adv-x="593" d="M195 1427h206v-1427h-206v1427zM563 1788l105 -84q-32 -87 -92.5 -137.5t-143.5 -50.5q-48 0 -101.5 31t-103.5 62t-90 31q-64 0 -112 -112l-93 90q46 82 95 122t118 40q42 0 86 -18.5t74.5 -40t68.5 -40t70 -18.5q39 0 67 28t52 97z" />
<glyph unicode="&#x129;" d="M342 1038v-1038h-192v1038h192zM502 1423l106 -84q-70 -188 -229 -188q-39 0 -79.5 19t-69.5 42.5t-66.5 42.5t-69.5 19q-33 0 -60.5 -27t-53.5 -88l-95 92q47 83 97.5 124.5t119.5 41.5q43 0 85 -19t69 -41.5t62 -41.5t67 -19q39 0 65 28t52 99z" />
<glyph unicode="&#x12a;" horiz-adv-x="593" d="M195 1427h206v-1427h-206v1427zM29 1561v157h542v-157h-542z" />
<glyph unicode="&#x12b;" d="M342 1038v-1038h-192v1038h192zM-25 1190v151h543v-151h-543z" />
<glyph unicode="&#x12c;" horiz-adv-x="593" d="M195 1427h206v-1427h-206v1427zM14 1784h144q0 -76 34.5 -102.5t114.5 -26.5q78 0 114 27t36 102h135q0 -271 -289 -271t-289 271z" />
<glyph unicode="&#x12d;" d="M342 1038v-1038h-192v1038h192zM-41 1427h143q0 -76 35 -102.5t115 -26.5q78 0 113.5 27t35.5 102h136q0 -138 -72.5 -204t-216.5 -66q-289 0 -289 270z" />
<glyph unicode="&#x12e;" horiz-adv-x="593" d="M195 1427h206v-1427h-206v1427zM291 25h76q-110 -67 -147.5 -114.5t-37.5 -111.5q0 -47 28.5 -67.5t104.5 -20.5q49 0 98 17t81 43l65 -115q-47 -35 -120 -53.5t-142 -18.5q-149 0 -207.5 44t-58.5 139q0 85 66 153.5t194 104.5z" />
<glyph unicode="&#x12f;" d="M342 1038v-1038h-192v1038h192zM248 1452q68 0 91 -18.5t23 -83.5q0 -71 -23.5 -93t-90.5 -22q-69 0 -93 22t-24 93q0 65 24 83.5t93 18.5zM252 25h76q-110 -67 -147.5 -114.5t-37.5 -111.5q0 -47 28.5 -67.5t104.5 -20.5q49 0 98 17t81 43l65 -115q-47 -35 -120 -53.5 t-142 -18.5q-149 0 -207.5 44t-58.5 139q0 85 66 153.5t194 104.5z" />
<glyph unicode="&#x130;" horiz-adv-x="593" d="M195 1427h206v-1427h-206v1427zM303 1755q61 0 82 -17.5t21 -78.5q0 -67 -21.5 -88t-81.5 -21q-62 0 -83 21t-21 88q0 61 21 78.5t83 17.5z" />
<glyph unicode="&#x131;" d="M342 1038v-1038h-192v1038h192z" />
<glyph unicode="&#x132;" horiz-adv-x="1515" d="M195 1427h206v-1427h-206v1427zM1323 1427l2 -1034q0 -100 -23.5 -176.5t-61.5 -122t-93 -74t-111 -39t-123 -10.5q-152 0 -301 60l52 188q47 -22 112.5 -35.5t122.5 -13.5q44 0 78.5 10t67 35t50 75t17.5 122v1015h211z" />
<glyph unicode="&#x133;" horiz-adv-x="978" d="M342 1038v-1038h-192v1038h192zM248 1452q68 0 91 -18.5t23 -83.5q0 -71 -23.5 -93t-90.5 -22q-69 0 -93 22t-24 93q0 65 24 83.5t93 18.5zM733 1452q68 0 91.5 -18.5t23.5 -83.5q0 -71 -24 -93t-91 -22q-70 0 -93.5 21.5t-23.5 93.5q0 65 23.5 83.5t93.5 18.5zM827 1038 v-1077q0 -113 -25.5 -188t-78 -116t-118.5 -57t-161 -16v166q101 0 145 42.5t44 164.5v1081h194z" />
<glyph unicode="&#x134;" horiz-adv-x="923" d="M731 1427v-1034q0 -100 -23 -176t-60.5 -122t-92.5 -74.5t-110.5 -39t-122.5 -10.5q-153 0 -302 60l52 188q45 -22 111.5 -35.5t123.5 -13.5q44 0 78.5 10t67 35t50 75t17.5 122v1015h211zM614 1702l-153 -172h-193q42 44 125 132t125 132h199l258 -264h-201z" />
<glyph unicode="&#x135;" d="M604 1163h-205l-155 166l-152 -166h-194l249 264h199zM-41 -416v168q100 0 144 42t44 165v1079h195v-1077q0 -112 -25.5 -187t-77.5 -116t-118.5 -57.5t-161.5 -16.5z" />
<glyph unicode="&#x136;" horiz-adv-x="1308" d="M401 1427v-1427h-206v1427h206zM1329 0h-264q-218 327 -400.5 526.5t-261.5 227.5q85 54 256.5 236t360.5 437h262q-199 -253 -362 -428t-234 -227q75 -46 254.5 -251t388.5 -521zM813 -104l-213 -342h-156l146 342h223z" />
<glyph unicode="&#x137;" horiz-adv-x="1054" d="M342 1479v-1479h-192v1479h192zM1057 0h-236q-384 511 -479 549q111 83 444 489h236q-153 -187 -269 -311t-165 -160q46 -27 169 -174t300 -393zM692 -104l-213 -342h-155l145 342h223z" />
<glyph unicode="&#x139;" horiz-adv-x="1122" d="M195 1427h206v-1245h707v-182h-913v1427zM377 1530h-180l270 264h233z" />
<glyph unicode="&#x13a;" horiz-adv-x="501" d="M342 1479v-1200q0 -75 19.5 -126t70.5 -108l-164 -90q-63 64 -90.5 134.5t-27.5 180.5v1209h192zM297 1530h-180l270 264h234z" />
<glyph unicode="&#x13b;" horiz-adv-x="1122" d="M195 1427h206v-1245h707v-182h-913v1427zM782 -104l-213 -342h-155l145 342h223z" />
<glyph unicode="&#x13c;" horiz-adv-x="501" d="M342 1479v-1200q0 -75 19.5 -126t70.5 -108l-164 -90q-63 64 -90.5 134.5t-27.5 180.5v1209h192zM446 -104l-213 -342h-155l145 342h223z" />
<glyph unicode="&#x13d;" horiz-adv-x="1122" d="M195 1427h206v-1245h707v-182h-913v1427zM606 1479h189l-115 -394h-117z" />
<glyph unicode="&#x13e;" horiz-adv-x="501" d="M342 1479v-1200q0 -75 19.5 -126t70.5 -108l-164 -90q-63 64 -90.5 134.5t-27.5 180.5v1209h192zM461 1479h188l-114 -394h-117z" />
<glyph unicode="&#x13f;" horiz-adv-x="1122" d="M195 1427h206v-1245h707v-182h-913v1427zM684 905q61 0 81.5 -17.5t20.5 -78.5q0 -67 -21 -88t-81 -21q-61 0 -82.5 21t-21.5 88q0 61 21.5 78.5t82.5 17.5z" />
<glyph unicode="&#x140;" horiz-adv-x="501" d="M342 1479v-1200q0 -75 19.5 -126t70.5 -108l-164 -90q-63 64 -90.5 134.5t-27.5 180.5v1209h192zM537 885q61 0 81.5 -18t20.5 -79q0 -67 -20.5 -86.5t-81.5 -19.5t-83 20t-22 86q0 61 22 79t83 18z" />
<glyph unicode="&#x141;" horiz-adv-x="1122" d="M733 1108v-205l-332 -297v-424h707v-182h-913v426l-146 -129v203l146 131v796h206v-616z" />
<glyph unicode="&#x142;" horiz-adv-x="544" d="M365 1479v-502q24 28 74 83t75 83v-205q-25 -27 -75 -81.5t-74 -82.5v-495q0 -17 2 -25q1 -67 19.5 -111.5t66.5 -97.5q-30 -18 -86 -48.5t-76 -41.5q-60 60 -88 124t-31 165q0 20 -1 61t-1 62v196q-22 -25 -69.5 -76t-69.5 -77v202q22 26 69.5 77t69.5 77v713h195z" />
<glyph unicode="&#x143;" horiz-adv-x="1540" d="M1346 1427v-1427h-254q-311 575 -693 1178v-1178h-204v1427h276q319 -486 666 -1118v1118h209zM795 1530h-181l271 264h233z" />
<glyph unicode="&#x144;" horiz-adv-x="1163" d="M342 860v-860h-192v981q89 38 216.5 62t237.5 24q115 0 191 -22.5t128 -78.5t74.5 -149t22.5 -235v-582h-193v557q0 105 -11.5 167t-42.5 100.5t-79 51.5t-129 13q-119 0 -223 -29zM549 1163h-184l247 264h219z" />
<glyph unicode="&#x145;" horiz-adv-x="1540" d="M1346 1427v-1427h-254q-311 575 -693 1178v-1178h-204v1427h276q319 -486 666 -1118v1118h209zM897 -104l-213 -342h-156l146 342h223z" />
<glyph unicode="&#x146;" horiz-adv-x="1163" d="M342 860v-860h-192v981q89 38 216.5 62t237.5 24q115 0 191 -22.5t128 -78.5t74.5 -149t22.5 -235v-582h-193v557q0 105 -11.5 167t-42.5 100.5t-79 51.5t-129 13q-119 0 -223 -29zM707 -104l-213 -342h-156l145 342h224z" />
<glyph unicode="&#x147;" horiz-adv-x="1540" d="M1346 1427v-1427h-254q-311 575 -693 1178v-1178h-204v1427h276q319 -486 666 -1118v1118h209zM633 1794l160 -172l155 172h193l-250 -264h-199l-258 264h199z" />
<glyph unicode="&#x148;" horiz-adv-x="1163" d="M342 860v-860h-192v981q89 38 216.5 62t237.5 24q115 0 191 -22.5t128 -78.5t74.5 -149t22.5 -235v-582h-193v557q0 105 -11.5 167t-42.5 100.5t-79 51.5t-129 13q-119 0 -223 -29zM223 1427h203l156 -165l151 165h197l-250 -264h-199z" />
<glyph unicode="&#x14c;" horiz-adv-x="1564" d="M782 1462q140 0 242 -21t185 -71.5t133.5 -135t77 -211t26.5 -300.5q0 -176 -26.5 -304t-77 -214.5t-132.5 -138t-185 -73.5t-243 -22q-139 0 -241.5 22t-185 73.5t-133 138t-77 214.5t-26.5 304q0 174 26.5 300.5t77 211t133 135t184.5 71.5t242 21zM782 158 q89 0 151.5 9t114 33.5t83.5 64t54 103.5t31 148.5t9 202.5q0 122 -8.5 208t-31 149.5t-54 101.5t-84 61t-114 31t-151.5 8t-150.5 -8t-113 -31t-83 -61t-52.5 -101.5t-30.5 -149.5t-8.5 -208q0 -118 8.5 -202.5t30 -148.5t53 -103.5t83 -64t113.5 -33.5t150 -9zM510 1561 v157h543v-157h-543z" />
<glyph unicode="&#x14d;" horiz-adv-x="1202" d="M600 -29q-127 0 -214.5 26.5t-149.5 90t-90.5 170.5t-28.5 266q0 158 29 263.5t91 167t149 87t214 25.5q102 0 176.5 -16t134.5 -53t97 -99.5t56 -155t19 -219.5q0 -159 -28.5 -266t-90 -170.5t-149 -90t-215.5 -26.5zM600 903q-67 0 -110.5 -9t-78 -32t-53 -67 t-27.5 -110t-9 -165q0 -157 26.5 -239t84 -114t167.5 -32q82 0 133 16t85 60t47.5 117.5t13.5 191.5q0 124 -13 198t-48 115.5t-84.5 55.5t-133.5 14zM326 1190v151h542v-151h-542z" />
<glyph unicode="&#x14e;" horiz-adv-x="1564" d="M782 1462q140 0 242 -21t185 -71.5t133.5 -135t77 -211t26.5 -300.5q0 -176 -26.5 -304t-77 -214.5t-132.5 -138t-185 -73.5t-243 -22q-139 0 -241.5 22t-185 73.5t-133 138t-77 214.5t-26.5 304q0 174 26.5 300.5t77 211t133 135t184.5 71.5t242 21zM782 158 q89 0 151.5 9t114 33.5t83.5 64t54 103.5t31 148.5t9 202.5q0 122 -8.5 208t-31 149.5t-54 101.5t-84 61t-114 31t-151.5 8t-150.5 -8t-113 -31t-83 -61t-52.5 -101.5t-30.5 -149.5t-8.5 -208q0 -118 8.5 -202.5t30 -148.5t53 -103.5t83 -64t113.5 -33.5t150 -9zM492 1784 h143q0 -76 34.5 -102.5t114.5 -26.5q78 0 114 27t36 102h135q0 -271 -289 -271q-288 0 -288 271z" />
<glyph unicode="&#x14f;" horiz-adv-x="1202" d="M600 -29q-127 0 -214.5 26.5t-149.5 90t-90.5 170.5t-28.5 266q0 158 29 263.5t91 167t149 87t214 25.5q102 0 176.5 -16t134.5 -53t97 -99.5t56 -155t19 -219.5q0 -159 -28.5 -266t-90 -170.5t-149 -90t-215.5 -26.5zM600 903q-67 0 -110.5 -9t-78 -32t-53 -67 t-27.5 -110t-9 -165q0 -157 26.5 -239t84 -114t167.5 -32q82 0 133 16t85 60t47.5 117.5t13.5 191.5q0 124 -13 198t-48 115.5t-84.5 55.5t-133.5 14zM309 1427h144q0 -76 34.5 -102.5t114.5 -26.5q78 0 114 27t36 102h135q0 -138 -72.5 -204t-216.5 -66q-289 0 -289 270z " />
<glyph unicode="&#x150;" horiz-adv-x="1564" d="M782 1462q140 0 242 -21t185 -71.5t133.5 -135t77 -211t26.5 -300.5q0 -176 -26.5 -304t-77 -214.5t-132.5 -138t-185 -73.5t-243 -22q-139 0 -241.5 22t-185 73.5t-133 138t-77 214.5t-26.5 304q0 174 26.5 300.5t77 211t133 135t184.5 71.5t242 21zM782 158 q89 0 151.5 9t114 33.5t83.5 64t54 103.5t31 148.5t9 202.5q0 122 -8.5 208t-31 149.5t-54 101.5t-84 61t-114 31t-151.5 8t-150.5 -8t-113 -31t-83 -61t-52.5 -101.5t-30.5 -149.5t-8.5 -208q0 -118 8.5 -202.5t30 -148.5t53 -103.5t83 -64t113.5 -33.5t150 -9zM629 1530 h-144l181 264h188zM940 1530h-143l178 264h190z" />
<glyph unicode="&#x151;" horiz-adv-x="1202" d="M600 -29q-127 0 -214.5 26.5t-149.5 90t-90.5 170.5t-28.5 266q0 158 29 263.5t91 167t149 87t214 25.5q102 0 176.5 -16t134.5 -53t97 -99.5t56 -155t19 -219.5q0 -159 -28.5 -266t-90 -170.5t-149 -90t-215.5 -26.5zM600 903q-67 0 -110.5 -9t-78 -32t-53 -67 t-27.5 -110t-9 -165q0 -157 26.5 -239t84 -114t167.5 -32q82 0 133 16t85 60t47.5 117.5t13.5 191.5q0 124 -13 198t-48 115.5t-84.5 55.5t-133.5 14zM453 1163h-144l180 264h189zM764 1163h-143l178 264h190z" />
<glyph unicode="&#x152;" horiz-adv-x="2260" d="M1077 1427h1125v-178h-879q104 -131 119 -405h442v-174h-440q-6 -349 -131 -492h889v-178h-1149q-113 -29 -271 -29q-139 0 -241.5 22t-185 73.5t-133 138t-77 214.5t-26.5 304q0 174 26.5 300.5t77 211t133 135t184.5 71.5t242 21q177 0 295 -35zM782 158q89 0 151.5 9 t114 33.5t83.5 64t54 103.5t31 148.5t9 202.5q0 122 -8.5 208t-31 149.5t-54 101.5t-84 61t-114 31t-151.5 8t-150.5 -8t-113 -31t-83 -61t-52.5 -101.5t-30.5 -149.5t-8.5 -208q0 -118 8.5 -202.5t30 -148.5t53 -103.5t83 -64t113.5 -33.5t150 -9z" />
<glyph unicode="&#x153;" horiz-adv-x="1882" d="M1686 190l34 -161q-78 -25 -179 -41.5t-173 -16.5q-145 0 -238 37.5t-147 128.5q-51 -90 -143.5 -128t-239.5 -38q-127 0 -214.5 26.5t-149.5 90t-90.5 170.5t-28.5 266q0 158 29 263.5t91 167t149 87t214 25.5q144 0 236 -36t143 -120q106 156 371 156q97 0 166 -16 t124 -55t87 -106t47.5 -168t13.5 -243h-707q1 -104 19 -170.5t58.5 -103.5t94.5 -50.5t138 -13.5q58 0 145.5 14t149.5 35zM600 903q-67 0 -110.5 -9t-78 -32t-53 -67t-27.5 -110t-9 -165q0 -157 26.5 -239t84 -114t167.5 -32q82 0 133 16t85 60t47.5 117.5t13.5 191.5 q0 124 -13 198t-48 115.5t-84.5 55.5t-133.5 14zM1356 905q-70 0 -115.5 -11t-80.5 -40.5t-53 -82t-24 -134.5h512q-5 111 -30.5 168.5t-73 78.5t-135.5 21z" />
<glyph unicode="&#x154;" horiz-adv-x="1415" d="M401 1251v-493h443q101 0 155 62.5t54 176.5q0 124 -52 189t-149 65h-451zM891 629q74 -26 193 -180t296 -449h-260q-332 582 -485 582h-234v-582h-206v1427h690q399 0 399 -415q0 -79 -20 -144.5t-63.5 -120t-122.5 -86t-187 -32.5zM668 1530h-181l271 264h233z" />
<glyph unicode="&#x155;" horiz-adv-x="739" d="M150 0v1038h192v-75q32 44 104 74t175 30q53 0 106 -6v-189q-64 11 -121 11q-112 0 -188 -33t-76 -94v-756h-192zM475 1163h-184l248 264h219z" />
<glyph unicode="&#x156;" horiz-adv-x="1415" d="M401 1251v-493h443q101 0 155 62.5t54 176.5q0 124 -52 189t-149 65h-451zM891 629q74 -26 193 -180t296 -449h-260q-332 582 -485 582h-234v-582h-206v1427h690q399 0 399 -415q0 -79 -20 -144.5t-63.5 -120t-122.5 -86t-187 -32.5zM852 -104l-213 -342h-156l146 342 h223z" />
<glyph unicode="&#x157;" horiz-adv-x="739" d="M150 0v1038h192v-75q32 44 104 74t175 30q53 0 106 -6v-189q-64 11 -121 11q-112 0 -188 -33t-76 -94v-756h-192zM401 -104l-213 -342h-155l145 342h223z" />
<glyph unicode="&#x158;" horiz-adv-x="1415" d="M401 1251v-493h443q101 0 155 62.5t54 176.5q0 124 -52 189t-149 65h-451zM891 629q74 -26 193 -180t296 -449h-260q-332 582 -485 582h-234v-582h-206v1427h690q399 0 399 -415q0 -79 -20 -144.5t-63.5 -120t-122.5 -86t-187 -32.5zM547 1794l160 -172l155 172h193 l-250 -264h-199l-258 264h199z" />
<glyph unicode="&#x159;" horiz-adv-x="739" d="M150 0v1038h192v-75q32 44 104 74t175 30q53 0 106 -6v-189q-64 11 -121 11q-112 0 -188 -33t-76 -94v-756h-192zM98 1427h203l156 -165l151 165h197l-250 -264h-199z" />
<glyph unicode="&#x15a;" horiz-adv-x="1275" d="M1120 1403l-49 -182q-55 22 -160 36.5t-204 14.5q-189 0 -279 -52t-90 -182q0 -66 27.5 -106.5t102.5 -68t208 -38.5q254 -23 369.5 -122t115.5 -297q0 -231 -150 -333t-446 -102q-107 0 -224 17t-202 45l51 180q67 -22 171.5 -36.5t199.5 -14.5q191 0 285 51.5t94 181.5 q0 50 -15 87.5t-52 69.5t-106 53t-171 30q-254 21 -367.5 107t-113.5 278q0 234 150 338t442 104q103 0 216 -16.5t197 -42.5zM639 1530h-180l270 264h234z" />
<glyph unicode="&#x15b;" horiz-adv-x="1017" d="M881 1014l-50 -164q-144 53 -301 53q-49 0 -81.5 -3t-62 -12t-46 -26t-26 -44.5t-9.5 -67.5q0 -65 51.5 -95.5t184.5 -42.5q198 -17 285 -86.5t87 -216.5q0 -187 -104 -262.5t-317 -75.5q-84 0 -192.5 15.5t-180.5 40.5l47 163q55 -23 148 -39t173 -16q124 0 177 31.5 t53 128.5q0 71 -51 105t-189 46q-191 16 -281 79t-90 208q0 184 108 259t321 75q168 0 346 -53zM508 1163h-184l247 264h220z" />
<glyph unicode="&#x15c;" horiz-adv-x="1275" d="M1120 1403l-49 -182q-55 22 -160 36.5t-204 14.5q-189 0 -279 -52t-90 -182q0 -66 27.5 -106.5t102.5 -68t208 -38.5q254 -23 369.5 -122t115.5 -297q0 -231 -150 -333t-446 -102q-107 0 -224 17t-202 45l51 180q67 -22 171.5 -36.5t199.5 -14.5q191 0 285 51.5t94 181.5 q0 50 -15 87.5t-52 69.5t-106 53t-171 30q-254 21 -367.5 107t-113.5 278q0 234 150 338t442 104q103 0 216 -16.5t197 -42.5zM668 1702l-154 -172h-192q42 44 124.5 132t124.5 132h199l258 -264h-201z" />
<glyph unicode="&#x15d;" horiz-adv-x="1017" d="M881 1014l-50 -164q-144 53 -301 53q-49 0 -81.5 -3t-62 -12t-46 -26t-26 -44.5t-9.5 -67.5q0 -65 51.5 -95.5t184.5 -42.5q198 -17 285 -86.5t87 -216.5q0 -187 -104 -262.5t-317 -75.5q-84 0 -192.5 15.5t-180.5 40.5l47 163q55 -23 148 -39t173 -16q124 0 177 31.5 t53 128.5q0 71 -51 105t-189 46q-191 16 -281 79t-90 208q0 184 108 259t321 75q168 0 346 -53zM678 1163q-26 28 -78 83t-78 83q-37 -43 -151 -166h-195q42 44 125 132t125 132h199l258 -264h-205z" />
<glyph unicode="&#x15e;" horiz-adv-x="1275" d="M1120 1403l-49 -182q-55 22 -160 36.5t-204 14.5q-189 0 -279 -52t-90 -182q0 -66 27.5 -106.5t102.5 -68t208 -38.5q254 -23 369.5 -122t115.5 -297q0 -231 -150 -333t-446 -102q-107 0 -224 17t-202 45l51 180q67 -22 171.5 -36.5t199.5 -14.5q191 0 285 51.5t94 181.5 q0 50 -15 87.5t-52 69.5t-106 53t-171 30q-254 21 -367.5 107t-113.5 278q0 234 150 338t442 104q103 0 216 -16.5t197 -42.5zM582 0h86v-90q131 0 182 -33.5t51 -124.5q0 -95 -60 -131.5t-208 -36.5q-139 0 -209 37l41 98q61 -28 162 -28q59 0 80.5 12t21.5 49 q0 41 -46.5 53.5t-174.5 4.5z" />
<glyph unicode="&#x15f;" horiz-adv-x="1017" d="M881 1014l-50 -164q-144 53 -301 53q-49 0 -81.5 -3t-62 -12t-46 -26t-26 -44.5t-9.5 -67.5q0 -65 51.5 -95.5t184.5 -42.5q198 -17 285 -86.5t87 -216.5q0 -187 -104 -262.5t-317 -75.5q-84 0 -192.5 15.5t-180.5 40.5l47 163q55 -23 148 -39t173 -16q124 0 177 31.5 t53 128.5q0 71 -51 105t-189 46q-191 16 -281 79t-90 208q0 184 108 259t321 75q168 0 346 -53zM440 0h86v-90q131 0 182.5 -33.5t51.5 -124.5q0 -95 -60 -131.5t-208 -36.5q-139 0 -209 37l41 98q61 -28 161 -28q59 0 81 12t22 49q0 41 -46.5 53.5t-174.5 4.5z" />
<glyph unicode="&#x160;" horiz-adv-x="1275" d="M1120 1403l-49 -182q-55 22 -160 36.5t-204 14.5q-189 0 -279 -52t-90 -182q0 -66 27.5 -106.5t102.5 -68t208 -38.5q254 -23 369.5 -122t115.5 -297q0 -231 -150 -333t-446 -102q-107 0 -224 17t-202 45l51 180q67 -22 171.5 -36.5t199.5 -14.5q191 0 285 51.5t94 181.5 q0 50 -15 87.5t-52 69.5t-106 53t-171 30q-254 21 -367.5 107t-113.5 278q0 234 150 338t442 104q103 0 216 -16.5t197 -42.5zM506 1794l160 -172l155 172h193l-250 -264h-199l-258 264h199z" />
<glyph unicode="&#x161;" horiz-adv-x="1017" d="M881 1014l-50 -164q-144 53 -301 53q-49 0 -81.5 -3t-62 -12t-46 -26t-26 -44.5t-9.5 -67.5q0 -65 51.5 -95.5t184.5 -42.5q198 -17 285 -86.5t87 -216.5q0 -187 -104 -262.5t-317 -75.5q-84 0 -192.5 15.5t-180.5 40.5l47 163q55 -23 148 -39t173 -16q124 0 177 31.5 t53 128.5q0 71 -51 105t-189 46q-191 16 -281 79t-90 208q0 184 108 259t321 75q168 0 346 -53zM164 1427h203l155 -165l152 165h196l-249 -264h-199z" />
<glyph unicode="&#x162;" horiz-adv-x="1204" d="M709 0h-211v1249h-490v178h1188v-178h-487v-1249zM764 -104l-213 -342h-156l146 342h223z" />
<glyph unicode="&#x163;" horiz-adv-x="827" d="M760 866h-365v-506q0 -117 38.5 -166t137.5 -49q102 0 187 29l37 -160q-114 -43 -256 -43q-92 0 -152 16t-103.5 57.5t-63 115.5t-19.5 188v518h-178v172h178v197l194 80v-277h365v-172zM573 -104l-213 -342h-155l145 342h223z" />
<glyph unicode="&#x164;" horiz-adv-x="1204" d="M709 0h-211v1249h-490v178h1188v-178h-487v-1249zM455 1794l159 -172l156 172h193l-250 -264h-199l-258 264h199z" />
<glyph unicode="&#x165;" horiz-adv-x="827" d="M760 866h-365v-506q0 -117 38.5 -166t137.5 -49q102 0 187 29l37 -160q-114 -43 -256 -43q-92 0 -152 16t-103.5 57.5t-63 115.5t-19.5 188v518h-178v172h178v197l194 80v-277h365v-172zM592 1573h188l-114 -393h-117z" />
<glyph unicode="&#x166;" horiz-adv-x="1204" d="M324 498v157h174v588h-490v184h1188v-184h-487v-588h157v-157h-157v-498h-211v498h-174z" />
<glyph unicode="&#x167;" horiz-adv-x="827" d="M74 457v147h127v264h-178v170h178v197l194 80v-277h365v-170h-365v-264h221v-147h-221v-97q0 -116 39 -165.5t137 -49.5q102 0 187 29l37 -160q-114 -43 -254 -43q-93 0 -153.5 16t-104.5 57.5t-63 115t-19 188.5v109h-127z" />
<glyph unicode="&#x168;" horiz-adv-x="1515" d="M1137 1427h209v-964q0 -119 -26 -205.5t-72.5 -141.5t-122 -87.5t-162.5 -45t-205 -12.5t-204.5 12.5t-162 45t-122 87.5t-73 141.5t-26.5 205.5v964h211v-944q0 -97 21 -160t69.5 -99t115.5 -50t171 -14q102 0 169 13.5t116.5 49t71.5 99t22 161.5v944zM1024 1788 l104 -84q-32 -87 -92.5 -137.5t-142.5 -50.5q-48 0 -101.5 31t-103.5 62t-90 31q-65 0 -113 -112l-92 90q46 82 95 122t118 40q42 0 86 -18.5t74.5 -40t68.5 -40t70 -18.5q39 0 67 28t52 97z" />
<glyph unicode="&#x169;" horiz-adv-x="1163" d="M823 180v858h193v-981q-90 -38 -218.5 -62t-236.5 -24q-115 0 -191 23t-128 79.5t-74.5 149.5t-22.5 234v581h193v-557q0 -139 23.5 -208.5t76.5 -96t160 -26.5q131 0 225 30zM842 1423l106 -84q-70 -188 -229 -188q-39 0 -79.5 19t-69.5 42.5t-66.5 42.5t-69.5 19 q-67 0 -115 -115l-94 92q47 83 97.5 124.5t119.5 41.5q43 0 85 -19t69 -41.5t62 -41.5t67 -19q39 0 65 28t52 99z" />
<glyph unicode="&#x16a;" horiz-adv-x="1515" d="M1137 1427h209v-964q0 -119 -26 -205.5t-72.5 -141.5t-122 -87.5t-162.5 -45t-205 -12.5t-204.5 12.5t-162 45t-122 87.5t-73 141.5t-26.5 205.5v964h211v-944q0 -97 21 -160t69.5 -99t115.5 -50t171 -14q102 0 169 13.5t116.5 49t71.5 99t22 161.5v944zM479 1561v157 h543v-157h-543z" />
<glyph unicode="&#x16b;" horiz-adv-x="1163" d="M823 180v858h193v-981q-90 -38 -218.5 -62t-236.5 -24q-115 0 -191 23t-128 79.5t-74.5 149.5t-22.5 234v581h193v-557q0 -139 23.5 -208.5t76.5 -96t160 -26.5q131 0 225 30zM305 1190v151h543v-151h-543z" />
<glyph unicode="&#x16c;" horiz-adv-x="1515" d="M1137 1427h209v-964q0 -119 -26 -205.5t-72.5 -141.5t-122 -87.5t-162.5 -45t-205 -12.5t-204.5 12.5t-162 45t-122 87.5t-73 141.5t-26.5 205.5v964h211v-944q0 -97 21 -160t69.5 -99t115.5 -50t171 -14q102 0 169 13.5t116.5 49t71.5 99t22 161.5v944zM469 1784h143 q0 -76 35 -102.5t115 -26.5q78 0 113.5 27t35.5 102h136q0 -271 -289 -271t-289 271z" />
<glyph unicode="&#x16d;" horiz-adv-x="1163" d="M823 180v858h193v-981q-90 -38 -218.5 -62t-236.5 -24q-115 0 -191 23t-128 79.5t-74.5 149.5t-22.5 234v581h193v-557q0 -139 23.5 -208.5t76.5 -96t160 -26.5q131 0 225 30zM291 1427h143q0 -76 35 -102.5t115 -26.5q78 0 113.5 27t35.5 102h135q0 -138 -72 -204 t-216 -66q-289 0 -289 270z" />
<glyph unicode="&#x16e;" horiz-adv-x="1515" d="M1137 1427h209v-964q0 -119 -26 -205.5t-72.5 -141.5t-122 -87.5t-162.5 -45t-205 -12.5t-204.5 12.5t-162 45t-122 87.5t-73 141.5t-26.5 205.5v964h211v-944q0 -97 21 -160t69.5 -99t115.5 -50t171 -14q102 0 169 13.5t116.5 49t71.5 99t22 161.5v944zM754 1806 q117 0 175 -47.5t58 -148.5q0 -103 -57.5 -150t-175.5 -47t-176 47t-58 150q0 104 54 150t180 46zM754 1702q-62 0 -86.5 -23t-24.5 -73q0 -49 25 -74t86 -25q63 0 87.5 25t24.5 74q0 50 -24.5 73t-87.5 23z" />
<glyph unicode="&#x16f;" horiz-adv-x="1163" d="M823 180v858h193v-981q-90 -38 -218.5 -62t-236.5 -24q-115 0 -191 23t-128 79.5t-74.5 149.5t-22.5 234v581h193v-557q0 -139 23.5 -208.5t76.5 -96t160 -26.5q131 0 225 30zM592 1513q118 0 175.5 -47t57.5 -149q0 -101 -58 -149t-175 -48t-175.5 48t-58.5 149 q0 105 53.5 150.5t180.5 45.5zM592 1411q-62 0 -86.5 -23t-24.5 -73q0 -49 25 -73.5t86 -24.5q63 0 88 24.5t25 73.5q0 50 -25 73t-88 23z" />
<glyph unicode="&#x170;" horiz-adv-x="1515" d="M1137 1427h209v-964q0 -119 -26 -205.5t-72.5 -141.5t-122 -87.5t-162.5 -45t-205 -12.5t-204.5 12.5t-162 45t-122 87.5t-73 141.5t-26.5 205.5v964h211v-944q0 -97 21 -160t69.5 -99t115.5 -50t171 -14q102 0 169 13.5t116.5 49t71.5 99t22 161.5v944zM590 1530h-144 l181 264h188zM901 1530h-143l178 264h190z" />
<glyph unicode="&#x171;" horiz-adv-x="1163" d="M823 180v858h193v-981q-90 -38 -218.5 -62t-236.5 -24q-115 0 -191 23t-128 79.5t-74.5 149.5t-22.5 234v581h193v-557q0 -139 23.5 -208.5t76.5 -96t160 -26.5q131 0 225 30zM426 1163h-143l180 264h188zM737 1163h-143l178 264h191z" />
<glyph unicode="&#x172;" horiz-adv-x="1515" d="M1137 1427h209v-964q0 -119 -26 -205.5t-72.5 -141.5t-122 -87.5t-162.5 -45t-205 -12.5t-204.5 12.5t-162 45t-122 87.5t-73 141.5t-26.5 205.5v964h211v-944q0 -97 21 -160t69.5 -99t115.5 -50t171 -14q102 0 169 13.5t116.5 49t71.5 99t22 161.5v944zM889 25h76 q-110 -67 -147.5 -114.5t-37.5 -111.5q0 -47 28.5 -67.5t104.5 -20.5q49 0 98 17t81 43l65 -115q-47 -35 -120 -53.5t-142 -18.5q-149 0 -207.5 44t-58.5 139q0 85 66 153.5t194 104.5z" />
<glyph unicode="&#x173;" horiz-adv-x="1163" d="M823 180v858h193v-981q-90 -38 -218.5 -62t-236.5 -24q-115 0 -191 23t-128 79.5t-74.5 149.5t-22.5 234v581h193v-557q0 -139 23.5 -208.5t76.5 -96t160 -26.5q131 0 225 30zM831 25h76q-110 -67 -147 -114.5t-37 -111.5q0 -47 28.5 -67.5t104.5 -20.5q49 0 97.5 17 t80.5 43l66 -115q-47 -35 -120 -53.5t-142 -18.5q-150 0 -208.5 44t-58.5 139q0 85 66 153.5t194 104.5z" />
<glyph unicode="&#x174;" horiz-adv-x="1925" d="M979 1098q-74 -376 -293 -1098h-264q-242 936 -418 1427h229q189 -562 334 -1183q228 763 312 1183h200q195 -728 259 -1023q19 -88 32 -160q200 609 332 1183h213q-188 -753 -418 -1427h-266q-78 409 -252 1098zM969 1702l-154 -172h-192q42 44 124.5 132t124.5 132h199 l258 -264h-201z" />
<glyph unicode="&#x175;" horiz-adv-x="1681" d="M846 791q-91 -386 -234 -791h-252q-163 601 -333 1038h211q140 -366 260 -843q60 172 136.5 434.5t108.5 408.5h209q111 -327 230 -843q187 515 264 843h205q-149 -541 -355 -1038h-252q-39 191 -97.5 426t-100.5 365zM995 1163q-27 29 -79 84.5t-76 81.5 q-24 -28 -152 -166h-194q42 44 124.5 132t124.5 132h199l258 -264h-205z" />
<glyph unicode="&#x176;" horiz-adv-x="1273" d="M225 1427q221 -276 428 -585q237 311 414 585h248q-288 -423 -567 -776v-651h-209v651q-305 440 -584 776h270zM641 1702l-154 -172h-192q42 44 125 132t125 132h198l258 -264h-200z" />
<glyph unicode="&#x177;" horiz-adv-x="1044" d="M399 -49q-182 658 -374 1087h206q151 -355 289 -854q195 486 293 854h201q-135 -456 -389 -1058q-84 -204 -174 -373h-220q77 142 168 344zM674 1163q-26 28 -78 83t-78 83q-37 -43 -151 -166h-195q42 44 125 132t125 132h199l258 -264h-205z" />
<glyph unicode="&#x178;" horiz-adv-x="1273" d="M225 1427q221 -276 428 -585q237 311 414 585h248q-288 -423 -567 -776v-651h-209v651q-305 440 -584 776h270zM446 1751q61 0 82 -17.5t21 -78.5q0 -67 -21 -87t-82 -20q-62 0 -83 20t-21 87q0 61 21 78.5t83 17.5zM858 1751q61 0 82 -17.5t21 -78.5q0 -67 -21 -87 t-82 -20q-62 0 -83 20t-21 87q0 61 21 78.5t83 17.5z" />
<glyph unicode="&#x179;" horiz-adv-x="1259" d="M39 0v61q448 582 860 1188h-811v178h1129v-57q-193 -296 -430.5 -625.5t-430.5 -566.5h834v-178h-1151zM635 1530h-180l270 264h233z" />
<glyph unicode="&#x17a;" horiz-adv-x="1015" d="M90 1038h860v-51q-127 -198 -303.5 -444t-281.5 -371h577v-172h-887v53q162 201 333 435.5t261 377.5h-559v172zM567 1163h-184l248 264h219z" />
<glyph unicode="&#x17b;" horiz-adv-x="1259" d="M39 0v61q448 582 860 1188h-811v178h1129v-57q-193 -296 -430.5 -625.5t-430.5 -566.5h834v-178h-1151zM641 1755q61 0 81.5 -17.5t20.5 -78.5q0 -67 -21 -88t-81 -21q-62 0 -83 21t-21 88q0 61 21 78.5t83 17.5z" />
<glyph unicode="&#x17c;" horiz-adv-x="1015" d="M90 1038h860v-51q-127 -198 -303.5 -444t-281.5 -371h577v-172h-887v53q162 201 333 435.5t261 377.5h-559v172zM518 1370q61 0 82 -17.5t21 -78.5q0 -67 -21 -87t-82 -20t-82.5 20t-21.5 87q0 61 21.5 78.5t82.5 17.5z" />
<glyph unicode="&#x17d;" horiz-adv-x="1259" d="M39 0v61q448 582 860 1188h-811v178h1129v-57q-193 -296 -430.5 -625.5t-430.5 -566.5h834v-178h-1151zM506 1794l160 -172l155 172h193l-250 -264h-199l-258 264h199z" />
<glyph unicode="&#x17e;" horiz-adv-x="1015" d="M90 1038h860v-51q-127 -198 -303.5 -444t-281.5 -371h577v-172h-887v53q162 201 333 435.5t261 377.5h-559v172zM162 1427h203l155 -165l152 165h196l-250 -264h-198z" />
<glyph unicode="&#x192;" horiz-adv-x="749" d="M522 1114l-14 -76h358l-35 -170h-358l-197 -942q-18 -84 -52.5 -146.5t-77 -99t-99.5 -58.5t-110 -29t-119 -7q-128 0 -238 45l78 162q37 -21 94 -33t107 -12q93 0 151 46.5t84 162.5l185 911h-183l35 170h182l17 82q14 73 39.5 130t60.5 95.5t74 65t87 40.5t93 20t98 6 q129 0 236 -39l-78 -158q-76 27 -192 27q-189 0 -226 -193z" />
<glyph unicode="&#x1f5;" horiz-adv-x="1187" d="M846 268v594q-104 37 -244 37q-67 0 -110.5 -8.5t-78.5 -31t-53.5 -66t-28 -109.5t-9.5 -164q0 -151 26.5 -231t84.5 -112t167 -32q104 0 175 33t71 90zM846 51q-110 -78 -275 -78q-119 0 -200.5 26t-140 88.5t-86 168.5t-27.5 264t28.5 264t90.5 168.5t149.5 88.5 t216.5 26q105 0 229 -21.5t207 -56.5v-911q0 -116 -25 -202.5t-68.5 -142t-112 -89t-147 -47t-181.5 -13.5q-78 0 -183 18t-167 42l45 166q62 -24 149.5 -40t153.5 -16q176 0 260 64.5t84 232.5zM604 1163h-184l248 264h219z" />
<glyph unicode="&#x218;" horiz-adv-x="1275" d="M1120 1403l-49 -182q-55 22 -160 36.5t-204 14.5q-189 0 -279 -52t-90 -182q0 -66 27.5 -106.5t102.5 -68t208 -38.5q254 -23 369.5 -122t115.5 -297q0 -231 -150 -333t-446 -102q-107 0 -224 17t-202 45l51 180q67 -22 171.5 -36.5t199.5 -14.5q191 0 285 51.5t94 181.5 q0 50 -15 87.5t-52 69.5t-106 53t-171 30q-254 21 -367.5 107t-113.5 278q0 234 150 338t442 104q103 0 216 -16.5t197 -42.5zM786 -104l-213 -342h-155l145 342h223z" />
<glyph unicode="&#x219;" horiz-adv-x="1017" d="M881 1014l-50 -164q-144 53 -301 53q-49 0 -81.5 -3t-62 -12t-46 -26t-26 -44.5t-9.5 -67.5q0 -65 51.5 -95.5t184.5 -42.5q198 -17 285 -86.5t87 -216.5q0 -187 -104 -262.5t-317 -75.5q-84 0 -192.5 15.5t-180.5 40.5l47 163q55 -23 148 -39t173 -16q124 0 177 31.5 t53 128.5q0 71 -51 105t-189 46q-191 16 -281 79t-90 208q0 184 108 259t321 75q168 0 346 -53zM651 -104l-213 -342h-155l145 342h223z" />
<glyph unicode="&#x2c6;" horiz-adv-x="1372" d="M856 1163q-26 28 -78 83t-78 83q-37 -43 -151 -166h-195q42 44 125 132t125 132h199l258 -264h-205z" />
<glyph unicode="&#x2c7;" horiz-adv-x="1351" d="M354 1427h203l156 -165l151 165h197l-250 -264h-199z" />
<glyph unicode="&#x2d8;" horiz-adv-x="1087" d="M197 1427h143q0 -76 34.5 -102.5t114.5 -26.5q78 0 114 27t36 102h135q0 -138 -72.5 -204t-216.5 -66q-288 0 -288 270z" />
<glyph unicode="&#x2d9;" horiz-adv-x="890" d="M303 1370q61 0 82 -17.5t21 -78.5q0 -67 -21 -87t-82 -20t-82.5 20t-21.5 87q0 61 21.5 78.5t82.5 17.5z" />
<glyph unicode="&#x2da;" horiz-adv-x="1476" d="M737 1513q118 0 176 -47t58 -149q0 -101 -58.5 -149t-175.5 -48t-175 48t-58 149q0 105 53 150.5t180 45.5zM737 1411q-62 0 -86 -23t-24 -73q0 -49 24.5 -73.5t85.5 -24.5q63 0 88 24.5t25 73.5q0 50 -25 73t-88 23z" />
<glyph unicode="&#x2db;" horiz-adv-x="1327" d="M901 25h76q-110 -67 -147 -114.5t-37 -111.5q0 -47 28.5 -67.5t104.5 -20.5q49 0 97.5 17t80.5 43l65 -115q-47 -35 -120 -53.5t-142 -18.5q-149 0 -207.5 44t-58.5 139q0 85 66 153.5t194 104.5z" />
<glyph unicode="&#x2dc;" horiz-adv-x="1478" d="M909 1423l107 -84q-70 -188 -230 -188q-39 0 -79.5 19t-69 42.5t-66 42.5t-69.5 19q-67 0 -115 -115l-94 92q47 83 97.5 124.5t119.5 41.5q43 0 85 -19t69 -41.5t62 -41.5t67 -19q39 0 64.5 28t51.5 99z" />
<glyph unicode="&#x2dd;" horiz-adv-x="1208" d="M489 1163h-143l180 264h189zM801 1163h-144l179 264h190z" />
<glyph unicode="&#x394;" horiz-adv-x="1318" d="M1317 0h-1329q240 746 530 1427h270q113 -364 257 -755t272 -672zM641 1233q-185 -440 -383 -1055h754q-214 532 -371 1055z" />
<glyph unicode="&#x3a9;" horiz-adv-x="1611" d="M45 0v182h352q-110 72 -166.5 234.5t-56.5 388.5q0 151 26 262.5t75.5 187t128 122t175.5 66t226 19.5t227 -19.5t177 -66t128.5 -122t76 -187t26.5 -262.5q0 -225 -57.5 -387t-168.5 -236h353v-182h-621v176q81 25 136 80.5t84.5 140t42 181t12.5 223.5 q0 192 -40.5 294.5t-127.5 142.5t-248 40q-120 0 -195 -20.5t-126 -75t-72 -146t-21 -235.5q0 -126 12.5 -223t42 -181.5t84.5 -140t134 -80.5v-176h-619z" />
<glyph unicode="&#x3bc;" horiz-adv-x="1163" d="M332 -393h-193l6 811v620h193v-557q0 -68 5 -115t20.5 -91.5t44 -70.5t76 -41.5t114.5 -15.5q120 0 223 33v858h195v-983q-91 -37 -219.5 -60.5t-235.5 -23.5q-155 0 -233 45z" />
<glyph unicode="&#x3c0;" horiz-adv-x="1263" d="M55 856v182h1151v-182h-172v-856h-192v856h-426v-580q0 -261 -176 -335l-111 145q94 41 94 188v582h-168z" />
<glyph unicode="&#x401;" horiz-adv-x="1259" d="M195 1427h1005v-178h-799v-405h568v-176h-568v-490h799v-178h-1005v1427zM479 1751q61 0 82 -17.5t21 -78.5q0 -67 -21 -87t-82 -20q-62 0 -83 20t-21 87q0 61 21 78.5t83 17.5zM891 1751q61 0 81.5 -17.5t20.5 -78.5q0 -67 -20.5 -87t-81.5 -20q-62 0 -83.5 20t-21.5 87 q0 61 21 78.5t84 17.5z" />
<glyph unicode="&#x402;" horiz-adv-x="1515" d="M1196 1249h-487v-301q48 32 128 55t164 23q86 0 145.5 -14t110.5 -51.5t80.5 -104t45.5 -170.5t16 -252q0 -629 -348 -794l-125 139q47 22 79 43.5t70.5 69t61.5 112.5t39 174t16 252q0 111 -8 184t-24 121t-46.5 72.5t-67 33.5t-94.5 9q-97 0 -168 -31t-75 -84v-735 h-211v1249h-490v178h1188v-178z" />
<glyph unicode="&#x403;" horiz-adv-x="1122" d="M401 0h-206v1427h923v-178h-717v-1249zM659 1530h-180l271 264h233z" />
<glyph unicode="&#x404;" horiz-adv-x="1255" d="M1006 670h-660q3 -107 15.5 -186t38.5 -136t61 -93t89 -56.5t114.5 -28.5t144.5 -8q80 0 176.5 14t155.5 35l53 -186q-84 -23 -199 -38.5t-211 -15.5q-173 0 -293 36.5t-206 123t-126 233t-40 363.5q0 174 27 300.5t78 210.5t134 133.5t185 70t241 20.5q98 0 213 -15.5 t197 -39.5l-53 -184q-57 22 -153 35.5t-179 13.5q-98 0 -163 -9t-122.5 -34.5t-91.5 -73t-55.5 -123.5t-28.5 -188h658v-174z" />
<glyph unicode="&#x405;" horiz-adv-x="1275" d="M1120 1403l-49 -182q-55 22 -160 36.5t-204 14.5q-189 0 -279 -52t-90 -182q0 -66 27.5 -106.5t102.5 -68t208 -38.5q254 -23 369.5 -122t115.5 -297q0 -231 -150 -333t-446 -102q-107 0 -224 17t-202 45l51 180q67 -22 171.5 -36.5t199.5 -14.5q191 0 285 51.5t94 181.5 q0 50 -15 87.5t-52 69.5t-106 53t-171 30q-254 21 -367.5 107t-113.5 278q0 234 150 338t442 104q103 0 216 -16.5t197 -42.5z" />
<glyph unicode="&#x406;" horiz-adv-x="593" d="M195 1427h206v-1427h-206v1427z" />
<glyph unicode="&#x407;" horiz-adv-x="593" d="M195 1427h206v-1427h-206v1427zM92 1751q61 0 82 -17.5t21 -78.5q0 -67 -21 -87t-82 -20q-62 0 -83 20t-21 87q0 61 21 78.5t83 17.5zM504 1751q61 0 81.5 -17.5t20.5 -78.5q0 -67 -20.5 -87t-81.5 -20q-62 0 -83.5 20t-21.5 87q0 61 21 78.5t84 17.5z" />
<glyph unicode="&#x408;" horiz-adv-x="923" d="M731 1427v-1034q0 -100 -23 -176t-60.5 -122t-92.5 -74.5t-110.5 -39t-122.5 -10.5q-153 0 -302 60l52 188q45 -22 111.5 -35.5t123.5 -13.5q44 0 78.5 10t67 35t50 75t17.5 122v1015h211z" />
<glyph unicode="&#x409;" horiz-adv-x="2140" d="M1016 1243h-461q-21 -290 -89 -621t-169 -622h-223q260 793 288 1427h861v-557h458q106 0 181.5 -32.5t118.5 -93t62 -137.5t19 -177q0 -209 -91.5 -319.5t-272.5 -110.5h-682v1243zM1653 700h-430v-524h436q94 0 136 65.5t42 190.5q0 126 -46 197t-138 71z" />
<glyph unicode="&#x40a;" horiz-adv-x="2148" d="M401 694v-694h-206v1427h206v-561h623v561h207v-561h459q106 0 181.5 -32t118.5 -92.5t62 -137t19 -176.5q0 -209 -92 -318.5t-273 -109.5h-682v694h-623zM1661 694h-430v-518h436q95 0 136.5 64.5t41.5 189.5q0 126 -46 195t-138 69z" />
<glyph unicode="&#x40b;" horiz-adv-x="1529" d="M1386 551v-551h-194v526q0 101 -12.5 164.5t-43.5 99t-73.5 48t-110.5 12.5q-97 0 -168 -31t-75 -84v-735h-211v1249h-490v178h1188v-178h-487v-301q48 32 128 55t164 23q103 0 171.5 -20.5t118.5 -73t72.5 -145.5t22.5 -236z" />
<glyph unicode="&#x40c;" horiz-adv-x="1310" d="M1311 0h-248q-58 142 -109 246t-102.5 179.5t-99.5 123.5t-105.5 78t-113.5 43.5t-132 19.5v-690h-206v1427h206v-690q106 89 279.5 278.5t339.5 411.5h262q-203 -257 -356.5 -425t-220.5 -218q65 -19 108.5 -39.5t104 -71.5t115 -130.5t126 -215.5t152.5 -327zM739 1530 h-180l270 264h234z" />
<glyph unicode="&#x40e;" horiz-adv-x="1110" d="M481 352q-11 33 -14 41q-72 206 -219.5 520.5t-267.5 513.5h243q105 -189 212 -418t179 -429q272 549 375 847h230q-139 -354 -336 -749t-375 -678q-172 0 -258 -2q109 141 231 354zM340 1784h141q0 -76 35.5 -103.5t114.5 -27.5q43 0 67 8q42 9 62 37.5t20 85.5h135 q0 -138 -72 -204.5t-216 -66.5q-287 0 -287 271z" />
<glyph unicode="&#x40f;" horiz-adv-x="1484" d="M1296 0h-432l-43 -381h-143l-43 381h-438v1427h209v-1245h684v1245h206v-1427z" />
<glyph unicode="&#x410;" horiz-adv-x="1382" d="M1161 0q-118 298 -153 397h-662q-61 -182 -129 -397h-215q247 743 528 1427h338q273 -834 527 -1427h-234zM719 1255h-57q-125 -312 -256 -680h540q-99 272 -227 680z" />
<glyph unicode="&#x411;" horiz-adv-x="1433" d="M401 176h506q170 0 170 240q0 120 -44.5 188t-133.5 68h-498v-496zM1163 1427v-178h-762v-407h521q204 0 291 -109t87 -319q0 -414 -362 -414h-743v1427h968z" />
<glyph unicode="&#x412;" horiz-adv-x="1433" d="M401 176h506q170 0 170 240q0 120 -44.5 188t-133.5 68h-498v-496zM401 1251v-409h490q156 0 156 209q0 102 -34.5 151t-121.5 49h-490zM977 762q79 -4 137 -23.5t93.5 -50.5t56.5 -78t28.5 -97t7.5 -116q0 -200 -93.5 -298.5t-268.5 -98.5h-743v1427h727q83 0 145 -17 t99.5 -46t60.5 -73.5t31 -92.5t8 -111q0 -59 -5.5 -100.5t-23 -83.5t-49 -68.5t-84.5 -46t-127 -26.5z" />
<glyph unicode="&#x413;" horiz-adv-x="1103" d="M401 0h-206v1427h923v-178h-717v-1249z" />
<glyph unicode="&#x414;" horiz-adv-x="1603" d="M1343 1427v-1245h261l-43 -497h-181v315h-1151v-315h-182l-43 497h217q200 507 230 1245h892zM1139 182v1067h-496q-46 -648 -188 -1067h684z" />
<glyph unicode="&#x415;" horiz-adv-x="1259" d="M195 1427h1005v-178h-799v-405h568v-176h-568v-490h799v-178h-1005v1427z" />
<glyph unicode="&#x416;" horiz-adv-x="1849" d="M236 0h-236q73 191 137.5 327t113.5 215.5t103.5 130.5t94 71.5t98.5 39.5q-61 50 -199.5 218t-320.5 425h247q146 -215 296 -399.5t249 -279.5v679h209v-679q96 91 247 276t300 403h248q-182 -257 -320.5 -425t-199.5 -218q59 -19 98.5 -39.5t93.5 -71.5t103 -130.5 t113.5 -215.5t137.5 -327h-235q-77 211 -142 342t-135 207t-139.5 105.5t-169.5 37.5v-692h-209v692q-80 -7 -138 -27t-116 -64.5t-109 -121.5t-105 -193.5t-115 -285.5z" />
<glyph unicode="&#x417;" horiz-adv-x="1308" d="M410 670v174h217q165 0 229 51t64 176q0 79 -28.5 121.5t-106.5 64t-224 21.5q-97 0 -210 -13t-179 -34l-45 178q252 53 461 53q203 0 324.5 -39t174 -115.5t52.5 -201.5q0 -58 -6.5 -102.5t-25 -88.5t-51 -74t-86.5 -51t-128 -28q98 -4 165.5 -33.5t103.5 -81.5 t50.5 -114t14.5 -144q0 -228 -142 -323t-446 -95q-106 0 -240 16.5t-233 39.5l43 178q73 -23 187.5 -36t215.5 -13q220 0 304.5 56.5t84.5 197.5q0 145 -73 202.5t-248 57.5h-219z" />
<glyph unicode="&#x418;" horiz-adv-x="1540" d="M1346 1427v-1427h-205v1122q-349 -636 -670 -1122h-276v1427h204v-1173q385 599 695 1173h252z" />
<glyph unicode="&#x419;" horiz-adv-x="1540" d="M1346 1427v-1427h-205v1122q-349 -636 -670 -1122h-276v1427h204v-1173q385 599 695 1173h252zM485 1784h144q0 -76 34.5 -102.5t114.5 -26.5q78 0 114 27t36 102h135q0 -271 -289 -271t-289 271z" />
<glyph unicode="&#x41a;" horiz-adv-x="1310" d="M1311 0h-248q-58 142 -109 246t-102.5 179.5t-99.5 123.5t-105.5 78t-113.5 43.5t-132 19.5v-690h-206v1427h206v-690q106 89 279.5 278.5t339.5 411.5h262q-203 -257 -356.5 -425t-220.5 -218q65 -19 108.5 -39.5t104 -71.5t115 -130.5t126 -215.5t152.5 -327z" />
<glyph unicode="&#x41b;" horiz-adv-x="1476" d="M1077 1249h-522q-21 -291 -89 -625t-169 -624h-223q260 793 288 1427h922v-1427h-207v1249z" />
<glyph unicode="&#x41c;" horiz-adv-x="1826" d="M922 434q190 495 434 993h278v-1427h-204v1163q-210 -456 -443 -1020h-160q-247 615 -432 1020v-1163h-200v1427h294q252 -526 433 -993z" />
<glyph unicode="&#x41d;" horiz-adv-x="1484" d="M401 666v-666h-206v1427h206v-571h684v571h207v-1427h-207v666h-684z" />
<glyph unicode="&#x41e;" horiz-adv-x="1564" d="M782 1462q140 0 242 -21t185 -71.5t133.5 -135t77 -211t26.5 -300.5q0 -176 -26.5 -304t-77 -214.5t-132.5 -138t-185 -73.5t-243 -22q-139 0 -241.5 22t-185 73.5t-133 138t-77 214.5t-26.5 304q0 174 26.5 300.5t77 211t133 135t184.5 71.5t242 21zM782 158 q89 0 151.5 9t114 33.5t83.5 64t54 103.5t31 148.5t9 202.5q0 122 -8.5 208t-31 149.5t-54 101.5t-84 61t-114 31t-151.5 8t-150.5 -8t-113 -31t-83 -61t-52.5 -101.5t-30.5 -149.5t-8.5 -208q0 -118 8.5 -202.5t30 -148.5t53 -103.5t83 -64t113.5 -33.5t150 -9z" />
<glyph unicode="&#x41f;" horiz-adv-x="1484" d="M401 1249v-1249h-206v1427h1097v-1427h-207v1249h-684z" />
<glyph unicode="&#x420;" horiz-adv-x="1353" d="M401 676h443q104 0 157.5 72.5t53.5 203.5q0 145 -52 222t-151 77h-451v-575zM401 0h-208v1427h690q401 0 401 -477q0 -91 -22 -169.5t-67 -143t-123 -102t-181 -37.5h-490v-498z" />
<glyph unicode="&#x421;" horiz-adv-x="1222" d="M119 727q0 175 26.5 301t76.5 210t132 133.5t184 70t242 20.5q96 0 209 -15t195 -38l-51 -186q-59 22 -152.5 35.5t-175.5 13.5q-91 0 -151.5 -7t-116.5 -28t-89 -58t-58.5 -98.5t-35.5 -148t-10 -207.5t10.5 -208t35 -150t58.5 -102t89 -62t117 -31t151 -8 q81 0 174.5 13t153.5 34l51 -186q-82 -24 -194 -39t-210 -15q-174 0 -293.5 36.5t-204.5 123t-124 233t-39 363.5z" />
<glyph unicode="&#x422;" horiz-adv-x="1204" d="M709 0h-211v1249h-490v178h1188v-178h-487v-1249z" />
<glyph unicode="&#x423;" horiz-adv-x="1198" d="M614 580q275 552 375 847h230q-139 -354 -336 -749t-375 -678h-256q124 164 231 354q-67 203 -221.5 533.5t-281.5 539.5h243q103 -183 210.5 -413.5t180.5 -433.5z" />
<glyph unicode="&#x424;" horiz-adv-x="1576" d="M666 1427h208v-192q177 -7 294 -40t185 -99t96 -156t28 -223q0 -132 -28 -223t-96.5 -157t-185.5 -99.5t-293 -40.5v-197h-208v197q-173 7 -287.5 40.5t-181 100.5t-93 157t-26.5 222t26.5 222t93 156.5t181 99.5t287.5 40v192zM1268 715q0 65 -5.5 109.5t-21 85.5 t-42.5 66t-71 45t-106 29t-148 11v-692q103 4 172.5 19t113.5 39.5t67.5 68t32 93.5t8.5 126zM285 715q0 -95 13 -152t53.5 -102t116 -66t198.5 -26v692q-83 -3 -143 -12.5t-102.5 -29.5t-69 -45t-41 -65.5t-20 -85t-5.5 -108.5z" />
<glyph unicode="&#x425;" horiz-adv-x="1353" d="M285 1427q182 -234 405 -526q187 250 379 526h252q-213 -305 -504 -698q283 -383 526 -729h-258q-252 354 -397 553q-196 -261 -426 -553h-252q228 287 551 723q-293 392 -541 704h265z" />
<glyph unicode="&#x426;" horiz-adv-x="1550" d="M401 1427v-1245h684v1245h207v-1245h258l-41 -497h-182v315h-1132v1427h206z" />
<glyph unicode="&#x427;" horiz-adv-x="1298" d="M897 737v690h207v-1427h-207v479q-45 -31 -143 -53.5t-207 -22.5q-101 0 -176 11.5t-143 43.5t-110.5 86t-67.5 142t-25 209v532h208v-509q0 -100 18.5 -163t63 -97.5t104 -47t156.5 -12.5q139 0 230.5 37t91.5 102z" />
<glyph unicode="&#x428;" horiz-adv-x="1925" d="M1731 1427v-1427h-1536v1427h206v-1245h457v1245h209v-1245h457v1245h207z" />
<glyph unicode="&#x429;" horiz-adv-x="1988" d="M401 1427v-1245h457v1245h209v-1245h457v1245h207v-1245h258l-43 -497h-181v315h-1570v1427h206z" />
<glyph unicode="&#x42a;" horiz-adv-x="1433" d="M33 1427h422v-555h518q107 0 182.5 -32.5t118 -94t61.5 -138.5t19 -177q0 -203 -90.5 -316.5t-272.5 -113.5h-745v1249h-213v178zM455 174h497q93 0 134.5 66t41.5 192q0 127 -45.5 196.5t-138.5 69.5h-489v-524z" />
<glyph unicode="&#x42b;" horiz-adv-x="1847" d="M401 174h498q93 0 134.5 66t41.5 192q0 127 -45.5 196.5t-138.5 69.5h-490v-524zM193 1427h208v-555h519q107 0 182.5 -32.5t118 -94t61 -138.5t18.5 -177q0 -209 -91 -319.5t-271 -110.5h-745v1427zM1444 1427h209v-1427h-209v1427z" />
<glyph unicode="&#x42c;" horiz-adv-x="1380" d="M401 174h498q93 0 134.5 66t41.5 192q0 127 -45.5 196.5t-138.5 69.5h-490v-524zM193 1427h208v-555h519q107 0 182.5 -32.5t118 -94t61 -138.5t18.5 -177q0 -209 -91 -319.5t-271 -110.5h-745v1427z" />
<glyph unicode="&#x42d;" horiz-adv-x="1255" d="M907 670h-659v174h657q-7 112 -28.5 188t-55.5 123.5t-91.5 73t-122.5 34.5t-163 9q-83 0 -178.5 -13.5t-152.5 -35.5l-54 184q82 24 197 39.5t213 15.5q116 0 205 -14t165.5 -47t130 -88t91.5 -136t56 -193t18 -257q0 -174 -27 -302t-78.5 -215.5t-134 -140 t-185.5 -75.5t-241 -23q-96 0 -211 15.5t-199 38.5l54 186q59 -21 155 -35t176 -14q84 0 144.5 8t114.5 28.5t89 56.5t61 93t38.5 136t15.5 186z" />
<glyph unicode="&#x42e;" horiz-adv-x="1933" d="M1286 1462q109 0 189.5 -20.5t146.5 -70t107.5 -132.5t63.5 -208.5t22 -297.5q0 -175 -22 -304.5t-63 -217t-107 -141t-147.5 -76.5t-189.5 -23q-130 0 -223 34t-162 113.5t-105 215t-40 332.5h-355v-666h-206v1427h206v-571h357q7 141 34 245.5t69.5 173.5t107 110.5 t141 59t176.5 17.5zM1284 158q92 0 149.5 24t96 89.5t54 175t15.5 286.5q0 145 -11 241.5t-31.5 159t-60.5 95t-88 44t-124 11.5q-75 0 -122.5 -11.5t-87.5 -44t-61 -95t-32.5 -159t-11.5 -241.5q0 -176 16 -286.5t55.5 -175.5t96 -89t147.5 -24z" />
<glyph unicode="&#x42f;" horiz-adv-x="1415" d="M1012 758v493h-449q-97 0 -150 -65t-53 -189q0 -115 54.5 -177t156.5 -62h441zM522 635q-108 1 -186.5 31.5t-122.5 84t-64 118t-20 143.5q0 89 20 160.5t64 130.5t124.5 91.5t192.5 32.5h691v-1427h-209v582h-248q-58 0 -100.5 -11.5t-89.5 -46.5t-88 -98.5t-86.5 -169 t-94.5 -256.5h-244q60 157 108.5 263.5t90 175.5t85 109t83 58.5t94.5 28.5z" />
<glyph unicode="&#x430;" horiz-adv-x="1128" d="M983 664v-611q-90 -37 -213.5 -59.5t-230.5 -22.5q-239 0 -334.5 74.5t-95.5 273.5q0 86 20.5 148.5t54 99.5t88.5 59t111.5 29t134.5 7q125 0 277 -31q0 67 -8 111t-26 75.5t-52 47.5t-80 23t-117 7q-187 0 -307 -47l-41 168q188 51 379 51q118 0 198 -19t136 -65 t81 -124t25 -195zM795 170v317q-95 23 -242 23q-73 0 -112.5 -5.5t-70.5 -24t-42 -54t-11 -96.5q0 -67 9.5 -105t38.5 -60.5t70 -29t116 -6.5q129 0 244 41z" />
<glyph unicode="&#x431;" horiz-adv-x="1165" d="M322 498q0 -194 59.5 -276.5t185.5 -82.5q66 0 108.5 8t77.5 29.5t53.5 63t28 104t9.5 156.5q0 142 -25.5 218t-78 105t-148.5 29q-68 0 -113.5 -11t-77 -34.5t-48.5 -67t-24 -100t-7 -141.5zM317 891q92 133 304 133q109 0 185.5 -25t132.5 -84t83 -162t27 -255 t-28.5 -254t-90.5 -162.5t-150 -85.5t-217 -25q-113 0 -192 29t-137.5 98.5t-86.5 190.5t-28 299q0 145 9.5 256t26.5 195t47.5 144t67 100t91 65t112 37.5t137.5 19.5q244 21 379 80v-176q-120 -55 -373 -78q-59 -5 -102 -16t-74 -32t-51 -45t-34 -64.5t-22 -80.5t-16 -102 z" />
<glyph unicode="&#x432;" horiz-adv-x="1157" d="M342 160h360q74 0 105 34t31 113q0 168 -142 168h-354v-315zM342 879v-254h346q70 0 98.5 33.5t28.5 99.5q0 68 -27 94.5t-100 26.5h-346zM797 557q138 -6 192.5 -76t54.5 -192q0 -289 -294 -289h-600v1038h585q84 0 141.5 -18t87.5 -53t42 -77t12 -99q0 -54 -8.5 -91 t-31.5 -69.5t-67.5 -50.5t-113.5 -23z" />
<glyph unicode="&#x433;" horiz-adv-x="843" d="M342 866v-866h-192v1038h690v-172h-498z" />
<glyph unicode="&#x434;" horiz-adv-x="1259" d="M346 1038h703v-866h194l-45 -448h-154v276h-833v-276h-152l-47 448h178q135 448 156 866zM856 866h-330q-25 -297 -133 -694h463v694z" />
<glyph unicode="&#x435;" horiz-adv-x="1124" d="M928 190l37 -161q-80 -25 -181 -41.5t-174 -16.5q-120 0 -207.5 27t-153.5 89.5t-99 171t-33 265.5q0 152 30.5 258t93 168t148 89.5t203.5 27.5q122 0 202 -25.5t136.5 -91t80 -180t19.5 -291.5h-706q1 -104 19 -170.5t58 -103.5t94 -50.5t138 -13.5q58 0 146.5 14 t148.5 35zM600 905q-143 0 -202.5 -57t-71.5 -211h512q-5 111 -30 168.5t-72.5 78.5t-135.5 21z" />
<glyph unicode="&#x436;" horiz-adv-x="1511" d="M225 0h-223q66 135 123 233.5t96 153.5t81 92.5t66 51.5t62 30q-97 76 -401 477h227q267 -351 403 -493v493h193v-493q156 167 401 493h228q-142 -190 -249.5 -316t-152.5 -161q38 -17 62 -30.5t66.5 -51.5t81.5 -92.5t96.5 -153t123.5 -233.5h-223q-66 137 -127.5 232.5 t-115.5 148t-98 77.5t-93 36v-494h-193v494q-50 -11 -94.5 -36t-98.5 -77.5t-114.5 -148t-126.5 -232.5z" />
<glyph unicode="&#x437;" horiz-adv-x="1040" d="M295 479v154h156q135 0 190 28.5t55 104.5q0 73 -56.5 103t-207.5 30q-174 0 -305 -43l-43 170q154 41 350 41q252 0 357.5 -61t105.5 -199q0 -55 -10.5 -95.5t-37 -75.5t-77 -56t-125.5 -27q153 -7 216 -79t63 -195q0 -172 -116 -240t-376 -68q-211 0 -360 41l45 174 q122 -45 313 -45q168 0 228.5 37t60.5 135q0 91 -62 128.5t-208 37.5h-156z" />
<glyph unicode="&#x438;" horiz-adv-x="1175" d="M834 0v725q-190 -335 -492 -725h-195v1038h195v-753q220 284 492 753h192v-1038h-192z" />
<glyph unicode="&#x439;" horiz-adv-x="1175" d="M834 0v725q-190 -335 -492 -725h-195v1038h195v-753q220 284 492 753h192v-1038h-192zM301 1427h143q0 -76 35.5 -103.5t114.5 -27.5q72 0 112 28t37 103h136q0 -138 -72.5 -204t-216.5 -66q-289 0 -289 270z" />
<glyph unicode="&#x43a;" horiz-adv-x="1054" d="M1051 0h-230q-73 140 -140 236.5t-126.5 148.5t-107.5 76t-105 35v-496h-192v1038h192v-499q130 124 444 499h236q-330 -404 -428 -473q33 -13 56 -25t56 -36.5t65.5 -62.5t74.5 -96t93 -144.5t112 -200.5z" />
<glyph unicode="&#x43b;" horiz-adv-x="1122" d="M780 866h-325q-18 -207 -65.5 -440.5t-108.5 -425.5h-207q171 513 196 1038h705v-1038h-195v866z" />
<glyph unicode="&#x43c;" horiz-adv-x="1472" d="M745 344q136 358 293 694h285v-1038h-190v838q-181 -384 -320 -770h-160q-158 427 -311 770v-838h-192v1038h294q158 -332 301 -694z" />
<glyph unicode="&#x43d;" horiz-adv-x="1169" d="M825 473h-483v-473h-195v1038h195v-399h483v399h195v-1038h-195v473z" />
<glyph unicode="&#x43e;" horiz-adv-x="1202" d="M600 -29q-127 0 -214.5 26.5t-149.5 90t-90.5 170.5t-28.5 266q0 158 29 263.5t91 167t149 87t214 25.5q102 0 176.5 -16t134.5 -53t97 -99.5t56 -155t19 -219.5q0 -159 -28.5 -266t-90 -170.5t-149 -90t-215.5 -26.5zM600 901q-67 0 -110.5 -8.5t-78 -31.5t-53 -66.5 t-27.5 -109.5t-9 -165q0 -157 26.5 -238.5t84 -113t167.5 -31.5q83 0 133.5 16t84.5 59.5t47.5 116.5t13.5 191q0 124 -13 197.5t-48 115t-84.5 55t-133.5 13.5z" />
<glyph unicode="&#x43f;" horiz-adv-x="1169" d="M342 866v-866h-192v1038h870v-1038h-193v866h-485z" />
<glyph unicode="&#x440;" horiz-adv-x="1187" d="M342 858v-592q0 -58 70 -91.5t174 -33.5q109 0 167.5 32.5t85.5 113t27 231.5q0 97 -9.5 162t-28 108.5t-53.5 66t-78.5 31.5t-110.5 9q-146 0 -244 -37zM150 -393v1382q83 35 207 56.5t229 21.5q129 0 216.5 -25.5t149 -88t89.5 -168t28 -263.5q0 -126 -19.5 -220 t-56 -157t-93.5 -102t-128 -55.5t-164 -16.5q-160 0 -266 74v-438h-192z" />
<glyph unicode="&#x441;" horiz-adv-x="958" d="M881 197l51 -170q-58 -25 -145.5 -40.5t-161.5 -15.5q-125 0 -215 27t-158 89.5t-101.5 171t-33.5 265.5q0 156 34 263t102 168t158 86.5t214 25.5q72 0 161 -14t146 -35l-51 -172q-106 47 -248 47q-86 0 -139 -13t-94.5 -52.5t-59.5 -114t-18 -193.5q0 -113 18 -187 t59 -115t96 -57t138 -16q122 0 248 52z" />
<glyph unicode="&#x442;" horiz-adv-x="989" d="M592 866v-866h-195v866h-383v172h959v-172h-381z" />
<glyph unicode="&#x443;" horiz-adv-x="1044" d="M399 -49q-182 658 -374 1087h206q151 -355 289 -854q195 486 293 854h201q-135 -456 -389 -1058q-84 -204 -174 -373h-220q77 142 168 344z" />
<glyph unicode="&#x444;" horiz-adv-x="1726" d="M766 1038v402h195v-402q122 29 204 29q117 0 197 -25.5t137.5 -87.5t84 -168t26.5 -264q0 -126 -18 -220t-51.5 -157t-86 -102t-116.5 -55.5t-148 -16.5q-131 0 -229 74v-438h-195v438q-98 -74 -229 -74q-105 0 -179.5 27t-130 89t-83 170t-27.5 265q0 158 26.5 264 t83.5 168t137 87.5t197 25.5q83 0 205 -29zM559 141q92 0 149.5 33t57.5 92v594q-92 35 -205 35q-56 0 -93.5 -8.5t-68.5 -32t-48.5 -66t-26.5 -108.5t-9 -162q0 -149 26 -231.5t77 -114t141 -31.5zM1167 141q90 0 141 31.5t77 114t26 231.5q0 96 -9 162t-26.5 108.5 t-48.5 66t-68.5 32t-93.5 8.5q-112 0 -204 -35v-600q3 -56 60 -87.5t146 -31.5z" />
<glyph unicode="&#x445;" horiz-adv-x="1067" d="M1028 0h-225q-89 144 -250 373q-136 -181 -293 -373h-223q155 177 412 518q-209 287 -410 520h244q128 -158 274 -362q90 120 248 362h221q-181 -272 -360 -512q186 -254 362 -526z" />
<glyph unicode="&#x446;" horiz-adv-x="1245" d="M1020 172h211l-47 -448h-152v276h-882v1038h192v-866h485v866h193v-866z" />
<glyph unicode="&#x447;" horiz-adv-x="1107" d="M88 803v235h193v-211q0 -100 13 -163t44 -98t73.5 -47.5t110.5 -12.5q100 0 172 31.5t72 87.5v413h192v-1038h-192v406q-48 -32 -129.5 -55t-165.5 -23q-103 0 -171 20.5t-118 73t-72 145.5t-22 236z" />
<glyph unicode="&#x448;" horiz-adv-x="1683" d="M1536 1038v-1038h-1386v1038h192v-866h403v866h193v-866h403v866h195z" />
<glyph unicode="&#x449;" horiz-adv-x="1761" d="M1546 -274v274h-1399v1038h195v-866h403v866h193v-866h403v866h193v-866h211l-47 -446h-152z" />
<glyph unicode="&#x44a;" horiz-adv-x="1234" d="M426 643h383q163 0 241 -78t78 -237q0 -173 -76.5 -250.5t-242.5 -77.5h-576v866h-229v172h422v-395zM426 156h352q76 0 110 39t34 131q0 88 -35 124.5t-111 36.5h-350v-331z" />
<glyph unicode="&#x44b;" horiz-adv-x="1513" d="M694 156q76 0 110 39t34 131q0 87 -35 123t-111 36h-350v-329h352zM342 643h383q163 0 241 -78t78 -237q0 -173 -76.5 -250.5t-242.5 -77.5h-578v1038h195v-395zM1364 1038v-1038h-195v1038h195z" />
<glyph unicode="&#x44c;" horiz-adv-x="1150" d="M694 156q76 0 110 39t34 131q0 87 -35 123t-111 36h-350v-329h352zM342 643h383q163 0 241 -78t78 -237q0 -173 -76.5 -250.5t-242.5 -77.5h-578v1038h195v-395z" />
<glyph unicode="&#x44d;" horiz-adv-x="989" d="M57 27l52 161q110 -47 247 -47q78 0 131.5 14.5t94 52t60.5 103.5t24 166h-449v160h445q-8 80 -31 132t-64 79.5t-90 38t-121 10.5q-146 0 -247 -43l-52 164q57 21 146.5 35t161.5 14q97 0 172.5 -15.5t139.5 -53.5t105.5 -99.5t64.5 -155.5t23 -219q0 -157 -34 -266 t-102 -171t-157.5 -89t-211.5 -27q-74 0 -162 15.5t-146 40.5z" />
<glyph unicode="&#x44e;" horiz-adv-x="1695" d="M1110 -29q-116 0 -197.5 24.5t-141.5 82t-91 155t-35 240.5h-303v-473h-192v1038h192v-397h305q10 122 44 205.5t94 131.5t138 68.5t187 20.5q121 0 205 -25.5t145.5 -86.5t90 -167.5t28.5 -263.5q0 -158 -28.5 -265.5t-89.5 -171t-145 -90t-206 -26.5zM1110 903 q-63 0 -104 -9t-74.5 -32t-51 -66.5t-27 -110t-9.5 -165.5q0 -156 26.5 -239t81.5 -114.5t158 -31.5t158 31.5t81.5 114.5t26.5 239q0 99 -9.5 165.5t-27 110t-51 66.5t-74.5 32t-104 9z" />
<glyph unicode="&#x44f;" horiz-adv-x="1171" d="M827 561v313h-335q-79 0 -115.5 -34t-36.5 -119q0 -82 38.5 -121t119.5 -39h329zM430 459q-157 3 -228 79t-71 197q0 65 16.5 117t52.5 95.5t102 67t157 23.5h563v-1038h-195v403h-174q-60 0 -101.5 -14t-85.5 -57.5t-86.5 -122.5t-96.5 -209h-220q82 185 142.5 282 t109 132t115.5 45z" />
<glyph unicode="&#x451;" horiz-adv-x="1124" d="M928 190l37 -161q-80 -25 -181 -41.5t-174 -16.5q-120 0 -207.5 27t-153.5 89.5t-99 171t-33 265.5q0 152 30.5 258t93 168t148 89.5t203.5 27.5q122 0 202 -25.5t136.5 -91t80 -180t19.5 -291.5h-706q1 -104 19 -170.5t58 -103.5t94 -50.5t138 -13.5q58 0 146.5 14 t148.5 35zM600 905q-143 0 -202.5 -57t-71.5 -211h512q-5 111 -30 168.5t-72.5 78.5t-135.5 21zM387 1370q61 0 81.5 -17.5t20.5 -78.5q0 -67 -20.5 -87t-81.5 -20q-62 0 -83 20t-21 87q0 61 21 78.5t83 17.5zM799 1370q61 0 81.5 -17.5t20.5 -78.5q0 -67 -20.5 -87 t-81.5 -20q-62 0 -83.5 20t-21.5 87q0 61 21 78.5t84 17.5z" />
<glyph unicode="&#x452;" horiz-adv-x="1150" d="M342 1204v-225q48 32 129 55t166 23t144.5 -14.5t109.5 -53t79.5 -106t45.5 -172t16 -252.5q0 -156 -22 -285.5t-56 -216t-82 -153.5t-93 -103.5t-95 -60.5l-123 139q45 21 78 46t70.5 75.5t61.5 119.5t40 180.5t16 254.5q0 111 -8.5 184t-24 120t-46.5 71.5t-67.5 33 t-94.5 8.5q-98 0 -169 -29.5t-75 -82.5v-760h-192v1204h-119v142h119v133h192v-133h229v-142h-229z" />
<glyph unicode="&#x453;" horiz-adv-x="843" d="M342 868v-868h-192v1038h690v-170h-498zM532 1163h-184l248 264h219z" />
<glyph unicode="&#x454;" horiz-adv-x="989" d="M881 188l49 -161q-58 -25 -144.5 -40.5t-160.5 -15.5q-122 0 -212 27t-158.5 89t-103 171t-34.5 266q0 125 23 219t65 155.5t106 99.5t139.5 53.5t172.5 15.5q73 0 162 -14t145 -35l-49 -164q-104 43 -250 43q-72 0 -120.5 -10.5t-89 -38t-63 -79.5t-30.5 -132h444v-160 h-448q3 -100 22.5 -166t60 -103.5t93.5 -52t131 -14.5q137 0 250 47z" />
<glyph unicode="&#x455;" horiz-adv-x="1017" d="M881 1014l-50 -164q-144 53 -301 53q-49 0 -81.5 -3t-62 -12t-46 -26t-26 -44.5t-9.5 -67.5q0 -65 51.5 -95.5t184.5 -42.5q198 -17 285 -86.5t87 -216.5q0 -187 -104 -262.5t-317 -75.5q-84 0 -192.5 15.5t-180.5 40.5l47 163q55 -23 148 -39t173 -16q124 0 177 31.5 t53 128.5q0 71 -51 105t-189 46q-191 16 -281 79t-90 208q0 184 108 259t321 75q168 0 346 -53z" />
<glyph unicode="&#x456;" d="M342 1038v-1038h-192v1038h192zM248 1452q68 0 91 -18.5t23 -83.5q0 -71 -23.5 -93t-90.5 -22q-69 0 -93 22t-24 93q0 65 24 83.5t93 18.5z" />
<glyph unicode="&#x457;" d="M342 1038v-1038h-192v1038h192zM41 1370q61 0 81.5 -17.5t20.5 -78.5q0 -67 -20.5 -87t-81.5 -20q-62 0 -83 20t-21 87q0 61 21 78.5t83 17.5zM453 1370q61 0 81.5 -17.5t20.5 -78.5q0 -67 -20.5 -87t-81.5 -20q-62 0 -83.5 20t-21.5 87q0 61 21 78.5t84 17.5z" />
<glyph unicode="&#x458;" d="M248 1452q68 0 91 -18.5t23 -83.5q0 -71 -23.5 -93t-90.5 -22q-69 0 -93 22t-24 93q0 65 24 83.5t93 18.5zM342 1038v-1077q0 -113 -25 -188t-77.5 -116t-118.5 -57t-162 -16v166q101 0 146 42.5t45 164.5v1081h192z" />
<glyph unicode="&#x459;" horiz-adv-x="1781" d="M780 866h-325q-18 -207 -65.5 -440.5t-108.5 -425.5h-207q171 513 196 1038h705v-395h383q162 0 240.5 -78t78.5 -237q0 -173 -77 -250.5t-242 -77.5h-578v866zM975 156h352q76 0 109.5 38.5t33.5 131.5q0 88 -34.5 124.5t-110.5 36.5h-350v-331z" />
<glyph unicode="&#x45a;" horiz-adv-x="1828" d="M1020 643h383q163 0 241 -78t78 -237q0 -173 -76.5 -250.5t-242.5 -77.5h-576v487h-485v-487h-192v1038h192v-395h485v395h193v-395zM1020 156h352q76 0 110 39.5t34 130.5q0 88 -35 124.5t-111 36.5h-350v-331z" />
<glyph unicode="&#x45b;" horiz-adv-x="1163" d="M31 1204v142h119v133h192v-133h229v-142h-229v-215q48 32 129 55t166 23q103 0 171 -20.5t118 -73t72 -145.5t22 -236v-592h-193v567q0 134 -25.5 204.5t-75 95t-140.5 24.5q-99 0 -171.5 -32.5t-72.5 -86.5v-772h-192v1204h-119z" />
<glyph unicode="&#x45c;" horiz-adv-x="1054" d="M1051 0h-230q-73 140 -140 236.5t-126.5 148.5t-107.5 76t-105 35v-496h-192v1038h192v-499q130 124 444 499h236q-330 -404 -428 -473q33 -13 56 -25t56 -36.5t65.5 -62.5t74.5 -96t93 -144.5t112 -200.5zM610 1163h-182l246 264h221z" />
<glyph unicode="&#x45e;" horiz-adv-x="1044" d="M399 -49q-182 658 -374 1087h206q151 -355 289 -854q195 486 293 854h201q-135 -456 -389 -1058q-84 -204 -174 -373h-220q77 142 168 344zM236 1434h143q0 -76 34.5 -102.5t114.5 -26.5q78 0 114 27t36 102h135q0 -271 -289 -271q-288 0 -288 271z" />
<glyph unicode="&#x45f;" horiz-adv-x="1169" d="M342 1038v-866h485v866h193v-1038h-313l-43 -350h-146l-43 350h-325v1038h192z" />
<glyph unicode="&#x490;" horiz-adv-x="1103" d="M195 0v1427h723l55 351h145v-529h-717v-1249h-206z" />
<glyph unicode="&#x491;" horiz-adv-x="843" d="M840 866h-498v-866h-195v1038h508l50 316h135v-488z" />
<glyph unicode="&#x2000;" horiz-adv-x="903" />
<glyph unicode="&#x2001;" horiz-adv-x="1806" />
<glyph unicode="&#x2002;" horiz-adv-x="903" />
<glyph unicode="&#x2003;" horiz-adv-x="1806" />
<glyph unicode="&#x2004;" horiz-adv-x="602" />
<glyph unicode="&#x2005;" horiz-adv-x="451" />
<glyph unicode="&#x2006;" horiz-adv-x="301" />
<glyph unicode="&#x2007;" horiz-adv-x="301" />
<glyph unicode="&#x2008;" horiz-adv-x="225" />
<glyph unicode="&#x2009;" horiz-adv-x="361" />
<glyph unicode="&#x200a;" horiz-adv-x="100" />
<glyph unicode="&#x2010;" horiz-adv-x="593" d="M63 479v183h467v-183h-467z" />
<glyph unicode="&#x2011;" horiz-adv-x="593" d="M63 479v183h467v-183h-467z" />
<glyph unicode="&#x2012;" horiz-adv-x="593" d="M63 479v183h467v-183h-467z" />
<glyph unicode="&#x2013;" horiz-adv-x="1148" d="M104 479v183h940v-183h-940z" />
<glyph unicode="&#x2014;" horiz-adv-x="1742" d="M104 479v183h1534v-183h-1534z" />
<glyph unicode="&#x2018;" horiz-adv-x="483" d="M49 1034l223 531h164l-160 -531h-227z" />
<glyph unicode="&#x2019;" horiz-adv-x="481" d="M434 1561l-223 -533h-164l160 533h227z" />
<glyph unicode="&#x201a;" horiz-adv-x="471" d="M428 205l-223 -531h-164l160 531h227z" />
<glyph unicode="&#x201c;" horiz-adv-x="845" d="M49 1034l223 531h164l-160 -531h-227zM414 1034l223 531h164l-160 -531h-227z" />
<glyph unicode="&#x201d;" horiz-adv-x="845" d="M799 1561l-224 -531h-163l159 531h228zM434 1561l-223 -531h-164l160 531h227z" />
<glyph unicode="&#x201e;" horiz-adv-x="845" d="M799 201l-224 -533h-163l159 533h228zM434 201l-223 -533h-164l160 533h227z" />
<glyph unicode="&#x2020;" horiz-adv-x="886" d="M61 1020v158h297v303h168v-303h299v-158h-299v-492h-168v492h-297z" />
<glyph unicode="&#x2021;" horiz-adv-x="886" d="M61 1020v158h297v303h168v-303h299v-158h-299v-232h299v-157h-299v-303h-168v303h-297v157h297v232h-297z" />
<glyph unicode="&#x2022;" horiz-adv-x="1202" d="M600 115q-127 0 -214.5 26.5t-149.5 90t-90.5 170.5t-28.5 266q0 127 19.5 219.5t56.5 154.5t97 99.5t134.5 53t175.5 15.5q128 0 214.5 -25t149 -86.5t91 -167t28.5 -263.5q0 -159 -28.5 -266t-90 -170.5t-149 -90t-215.5 -26.5z" />
<glyph unicode="&#x2026;" horiz-adv-x="2408" d="M483 252q80 0 107.5 -23t27.5 -100q0 -83 -27.5 -108t-107.5 -25q-77 0 -105 25t-28 108q0 76 28 99.5t105 23.5zM1202 252q80 0 107.5 -23t27.5 -100q0 -83 -27.5 -108t-107.5 -25q-77 0 -105 25t-28 108q0 76 28 99.5t105 23.5zM1921 252q81 0 108 -23t27 -100 q0 -84 -27 -108.5t-108 -24.5q-76 0 -103.5 25t-27.5 108q0 76 27.5 99.5t103.5 23.5z" />
<glyph unicode="&#x202f;" horiz-adv-x="361" />
<glyph unicode="&#x2030;" horiz-adv-x="2625" d="M1253 1427h193l-842 -1427h-192zM430 1462q92 0 154 -20t107 -70.5t65 -137.5t20 -220q0 -177 -38.5 -279.5t-111.5 -143t-196 -40.5q-121 0 -194 40.5t-111.5 143t-38.5 279.5q0 133 20.5 220.5t65 137.5t106 70t152.5 20zM430 694q98 0 134 65.5t36 252.5 q0 130 -16.5 195t-51 87.5t-102.5 22.5q-66 0 -100 -22.5t-52 -88.5t-18 -194q0 -185 37.5 -251.5t132.5 -66.5zM1434 883q92 0 154 -20t106 -70.5t64 -138t20 -220.5q0 -177 -38 -279.5t-111 -143t-195 -40.5q-121 0 -194 40.5t-111.5 143t-38.5 279.5q0 106 14 183 t40 128.5t69 82t95.5 43t125.5 12.5zM1434 115q97 0 133.5 66t36.5 251q0 129 -17 195t-51.5 89t-101.5 23q-49 0 -79 -11.5t-51.5 -45t-30.5 -93.5t-9 -157q0 -183 37.5 -250t132.5 -67zM2193 883q92 0 154 -20t106 -70.5t64 -138t20 -220.5q0 -177 -38 -279.5t-111 -143 t-195 -40.5q-121 0 -194 40.5t-111.5 143t-38.5 279.5q0 106 14 183t40 128.5t68.5 82t95.5 43t126 12.5zM2193 115q97 0 133.5 66t36.5 251q0 129 -17 195t-51.5 89t-101.5 23q-49 0 -79 -11.5t-51.5 -45t-30.5 -93.5t-9 -157q0 -183 37.5 -250t132.5 -67z" />
<glyph unicode="&#x2039;" horiz-adv-x="786" d="M727 1067l-403 -436l403 -447l-111 -121l-555 562l551 561z" />
<glyph unicode="&#x203a;" horiz-adv-x="786" d="M63 184l404 437l-404 446l111 121l553 -563l-551 -559z" />
<glyph unicode="&#x2044;" horiz-adv-x="1146" d="M905 1427h193l-852 -1427h-193z" />
<glyph unicode="&#x205f;" horiz-adv-x="451" />
<glyph unicode="&#x20a3;" horiz-adv-x="1155" d="M102 283v147h93v997h987v-178h-781v-477h482v-174h-482v-168h193v-147h-193v-283h-206v283h-93z" />
<glyph unicode="&#x20ac;" horiz-adv-x="1222" d="M119 727q0 175 26.5 301t76.5 210t132 133.5t184 70t242 20.5q96 0 209 -15t195 -38l-51 -186q-59 22 -152.5 35.5t-175.5 13.5q-83 0 -141 -6t-111 -24t-87.5 -49.5t-60 -82t-38.5 -123.5h544v-149h-567v-113v-111h567v-147h-544q17 -94 49.5 -153.5t89 -92.5t125.5 -45 t174 -12q81 0 174.5 13t153.5 34l51 -186q-82 -24 -194 -39t-210 -15q-174 0 -293.5 36.5t-204.5 123t-124 233t-39 363.5z" />
<glyph unicode="&#x2116;" horiz-adv-x="2324" d="M1346 1427v-1427h-254q-311 575 -693 1178v-1178h-204v1427h276q319 -486 666 -1118v1118h209zM1554 317v162h611v-162h-611zM1855 1462q97 0 161.5 -18.5t110 -64t65.5 -123t20 -195.5q0 -233 -81.5 -322.5t-275.5 -89.5q-129 0 -203.5 37t-111.5 127t-37 248 q0 157 37.5 244.5t111.5 122t203 34.5zM1855 795q57 0 90.5 10.5t55 40.5t29.5 79.5t8 133.5q0 113 -16.5 167t-53 72.5t-113.5 18.5q-57 0 -89 -8.5t-54 -37t-29.5 -77.5t-7.5 -135q0 -111 16 -166t53 -76.5t111 -21.5z" />
<glyph unicode="&#x2122;" horiz-adv-x="1589" d="M397 705h-149v595h-225v127h598v-127h-224v-595zM905 1427l189 -548l182 548h197v-722h-140v567l-184 -553h-133l-178 553v-567h-138v722h205z" />
<glyph unicode="&#x212e;" horiz-adv-x="1433" d="M1346 655h-1002q2 -122 19 -207t49 -141.5t87.5 -88t124 -44t169.5 -12.5q82 0 187 14t163 35l53 -186q-84 -24 -197 -39t-208 -15q-174 0 -295.5 37t-208 123t-127.5 232t-41 360q0 172 27.5 300t78 211.5t129 134.5t172 72t215.5 21q154 0 263.5 -39t188 -128.5 t116 -239t37.5 -365.5v-35zM741 1278q-81 0 -137 -10t-105.5 -37.5t-79.5 -76.5t-49 -127t-24 -189h778q-4 135 -28 222.5t-74.5 135t-115.5 65t-165 17.5z" />
<glyph unicode="&#x2190;" horiz-adv-x="1513" d="M774 111l-739 653l739 647l133 -139l-485 -420h1057v-180h-1057l485 -418z" />
<glyph unicode="&#x2191;" horiz-adv-x="1517" d="M109 741l651 740l647 -738l-139 -133l-420 486v-1057h-180v1057l-418 -486z" />
<glyph unicode="&#x2192;" horiz-adv-x="1513" d="M741 1411l738 -647l-740 -653l-131 143l484 416h-1057v180h1057l-484 420z" />
<glyph unicode="&#x2193;" horiz-adv-x="1517" d="M1407 778l-651 -739l-647 737l139 133l420 -485v1057h180v-1057l416 485z" />
<glyph unicode="&#x2196;" horiz-adv-x="1452" d="M272 291l-61 983l979 -64l-4 -192l-639 45l747 -748l-127 -127l-747 748l47 -637z" />
<glyph unicode="&#x2197;" horiz-adv-x="1449" d="M295 1210l979 64l-62 -983l-194 6l47 637l-748 -748l-127 129l748 748l-639 -45z" />
<glyph unicode="&#x2198;" horiz-adv-x="1449" d="M1274 184l-979 66l4 192l639 -45l-748 748l127 127l748 -748l-47 637l194 8z" />
<glyph unicode="&#x2199;" horiz-adv-x="1452" d="M211 186l61 983l195 -6l-47 -637l747 748l127 -129l-747 -748l639 45l4 -192z" />
<glyph unicode="&#x2202;" horiz-adv-x="1277" d="M637 862q87 0 227 -14q-69 141 -194.5 282.5t-300.5 296.5h270q90 -83 158 -155.5t141.5 -170t121 -191.5t78.5 -211t31 -238q0 -151 -24.5 -244t-88.5 -151t-162 -79.5t-257 -21.5q-283 0 -403.5 108t-120.5 369q0 120 26 198.5t89 129t161 71.5t248 21zM950 487 q0 93 -24 179q-117 20 -275 20q-101 0 -160 -10.5t-96.5 -40.5t-50 -78t-12.5 -129q0 -75 12.5 -124t45.5 -86.5t93.5 -54t153.5 -16.5q53 0 89 2.5t72 10.5t58 23.5t42 40t30 61t16 86t6 116.5z" />
<glyph unicode="&#x220f;" horiz-adv-x="1484" d="M401 1243v-1243h-206v1427h1097v-1427h-207v1243h-684z" />
<glyph unicode="&#x2211;" horiz-adv-x="1261" d="M762 705q-219 -313 -395 -529h825v-176h-1180q205 269 508 705q-227 330 -477 722h1151v-178h-803q105 -158 371 -544z" />
<glyph unicode="&#x2212;" horiz-adv-x="1232" d="M121 645v182h989v-182h-989z" />
<glyph unicode="&#x221a;" horiz-adv-x="1146" d="M0 1038h301q164 -403 287 -848q87 216 225.5 623t194.5 614h200q-79 -264 -240 -720.5t-266 -706.5h-249q-146 507 -285 852h-168v186z" />
<glyph unicode="&#x221e;" horiz-adv-x="1583" d="M711 717q0 129 -57.5 185t-190.5 56q-123 0 -172 -53t-49 -188t49 -187.5t172 -52.5q133 0 190.5 56t57.5 184zM791 551q-7 -65 -29 -112.5t-53 -75.5t-77.5 -44.5t-92.5 -22t-107 -5.5q-195 0 -284 95.5t-89 330.5q0 236 89.5 333t283.5 97q61 0 107 -5.5t92.5 -22.5 t77.5 -45.5t53 -76t29 -112.5q7 66 29 113.5t53 76t77.5 45t92.5 22t108 5.5q194 0 283.5 -96.5t89.5 -331.5t-89.5 -331.5t-283.5 -96.5q-62 0 -108 5.5t-92.5 22t-77.5 44.5t-53 75.5t-29 112.5zM872 719q0 -129 57 -185.5t189 -56.5q123 0 173 53.5t50 188.5t-50 188.5 t-173 53.5q-131 0 -188.5 -57t-57.5 -185z" />
<glyph unicode="&#x222b;" horiz-adv-x="710" d="M778 1438l-45 -158q-86 27 -198 27q-42 0 -71.5 -6.5t-58 -25t-43 -59t-14.5 -102.5v-1157q0 -373 -371 -373q-142 0 -272 47l47 162q95 -45 213 -45q189 0 189 209v1163q0 84 19.5 148t52 103t80 63.5t97 33.5t109.5 9q151 0 266 -39z" />
<glyph unicode="&#x2248;" horiz-adv-x="1232" d="M997 651l129 -100q-38 -101 -113 -161t-175 -60q-48 0 -118 28t-129 62t-124.5 62t-104.5 28q-83 0 -135 -129l-116 108q57 97 116.5 144t143.5 47q52 0 124 -27t131 -60t122.5 -60t101.5 -27q48 0 82.5 32.5t64.5 112.5zM997 1061l129 -100q-38 -102 -113 -162t-175 -60 q-48 0 -118 28t-129 61.5t-124.5 61.5t-104.5 28q-83 0 -135 -127l-116 108q56 96 115.5 142t144.5 46q52 0 124 -27t131 -59t122.5 -59t101.5 -27q48 0 82.5 33t64.5 113z" />
<glyph unicode="&#x2260;" horiz-adv-x="1232" d="M815 1286h205l-123 -221h213v-182h-311l-168 -303h479v-183h-575l-125 -219h-201l123 219h-211v183h307l166 303h-473v182h571z" />
<glyph unicode="&#x2264;" horiz-adv-x="1232" d="M121 59v183h989v-183h-989zM1024 1296l-580 -428l580 -434l-96 -131l-738 520v84l734 518z" />
<glyph unicode="&#x2265;" horiz-adv-x="1232" d="M1112 242v-183h-989v183h989zM788 868l-579 428l100 129l733 -518v-84l-735 -520l-98 131z" />
<glyph unicode="&#x25ca;" horiz-adv-x="1130" d="M1081 557q-205 -495 -333 -876h-338q-231 533 -361 876q143 378 361 877h338q135 -398 333 -877zM858 559q-188 497 -260 721h-57q-191 -463 -287 -721q108 -295 287 -723h57q82 251 260 723z" />
<glyph unicode="&#x25fc;" horiz-adv-x="1034" d="M0 1034h1034v-1034h-1034v1034z" />
<glyph unicode="&#xe01e;" horiz-adv-x="684" d="M498 1479h188l-115 -394h-116z" />
<glyph unicode="&#xf6c3;" horiz-adv-x="561" d="M494 -104l-213 -342h-156l145 342h224z" />
<glyph unicode="&#xf6c9;" horiz-adv-x="774" d="M377 1530h-180l270 264h233z" />
<glyph unicode="&#xf6ca;" horiz-adv-x="1351" d="M561 1794l160 -172l156 172h192l-250 -264h-198l-259 264h199z" />
<glyph unicode="&#xf6cb;" horiz-adv-x="784" d="M301 1751q61 0 81.5 -17.5t20.5 -78.5q0 -67 -20.5 -87t-81.5 -20q-62 0 -83 20t-21 87q0 61 21 78.5t83 17.5zM713 1751q61 0 81.5 -17.5t20.5 -78.5q0 -67 -20.5 -87t-81.5 -20q-62 0 -83.5 20t-21.5 87q0 61 21 78.5t84 17.5z" />
<glyph unicode="&#xf6ce;" horiz-adv-x="774" d="M838 1530h-199l-326 264h236z" />
<glyph unicode="&#xf6cf;" horiz-adv-x="1280" d="M489 1530h-143l180 264h189zM801 1530h-144l179 264h190z" />
<glyph unicode="&#xf6d0;" horiz-adv-x="681" d="M264 1561v157h543v-157h-543z" />
<glyph unicode="&#xf6f9;" horiz-adv-x="851" d="M342 451v-277h508v-174h-700v285l-95 -84v180l95 84v573h192v-405l203 184v-184z" />
<glyph unicode="&#xf6fa;" horiz-adv-x="1712" d="M1626 1038v-164h-612q55 -91 67 -245h420v-158h-418q-6 -207 -73 -307h616v-164h-807q-98 -29 -219 -29q-127 0 -214.5 26.5t-149.5 90t-90.5 170.5t-28.5 266q0 158 29 263.5t91 167t149 87t214 25.5q134 0 225 -29h801zM600 903q-67 0 -110.5 -9t-78 -32t-53 -67 t-27.5 -110t-9 -165q0 -157 26.5 -239t84 -114t167.5 -32q82 0 133 16t85 60t47.5 117.5t13.5 191.5q0 124 -13 198t-48 115.5t-84.5 55.5t-133.5 14z" />
<glyph unicode="&#xf6fd;" horiz-adv-x="1017" d="M881 1014l-50 -164q-144 53 -301 53q-49 0 -81.5 -3t-62 -12t-46 -26t-26 -44.5t-9.5 -67.5q0 -65 51.5 -95.5t184.5 -42.5q198 -17 285 -86.5t87 -216.5q0 -187 -104 -262.5t-317 -75.5q-84 0 -192.5 15.5t-180.5 40.5l47 163q55 -23 148 -39t173 -16q124 0 177 31.5 t53 128.5q0 71 -51 105t-189 46q-191 16 -281 79t-90 208q0 184 108 259t321 75q168 0 346 -53zM164 1427h203l155 -165l152 165h196l-249 -264h-199z" />
<glyph unicode="&#xf6ff;" horiz-adv-x="1015" d="M90 1038h860v-51q-127 -198 -303.5 -444t-281.5 -371h577v-172h-887v53q162 201 333 435.5t261 377.5h-559v172zM162 1427h203l155 -165l152 165h196l-250 -264h-198z" />
<glyph unicode="&#xf721;" horiz-adv-x="673" d="M217 1038h238l-47 -649h-146zM336 250q80 0 107.5 -23t27.5 -100q0 -84 -28 -109.5t-107 -25.5q-77 0 -105 26t-28 109q0 76 28 99.5t105 23.5z" />
<glyph unicode="&#xf726;" horiz-adv-x="1380" d="M1356 0h-215q-80 121 -109 160q-239 -189 -520 -189q-234 0 -339 68t-105 240q0 121 70.5 196t223.5 82q-59 5 -101.5 20t-66.5 35.5t-37.5 53.5t-17.5 64.5t-4 76.5q0 94 40 149t137.5 83t267.5 28q169 0 265 -28t134.5 -83t38.5 -149q0 -111 -59 -177t-203 -77 q140 -17 291 -168q87 106 120 227h207q-50 -178 -207 -344q90 -110 189 -268zM518 131q121 0 229 41.5t187 110.5q-88 102 -176 148t-189 46q-146 0 -221.5 -38t-75.5 -136q0 -99 54 -135.5t192 -36.5zM569 635q136 0 196 29.5t60 109.5q0 76 -49.5 105.5t-193.5 29.5 q-146 0 -198 -30t-52 -105q0 -81 51.5 -110t185.5 -29z" />
<glyph unicode="&#xf730;" horiz-adv-x="1277" d="M645 -29q-117 0 -201 27t-146.5 89.5t-93 171t-30.5 265.5q0 156 30.5 263t93.5 168t146.5 86.5t200.5 25.5q118 0 200.5 -25.5t143 -86.5t89 -167.5t28.5 -263.5q0 -158 -28.5 -266t-88.5 -170.5t-142.5 -89.5t-201.5 -27zM645 903q-63 0 -104.5 -9t-74.5 -32t-51 -66.5 t-27 -110t-9 -165.5q0 -156 26 -239t81 -114.5t159 -31.5q106 0 159 32.5t75 112.5t22 240q0 100 -7.5 165t-23.5 110t-47.5 67.5t-72.5 31.5t-105 9z" />
<glyph unicode="&#xf731;" horiz-adv-x="1277" d="M870 0h-192v805l-320 -156l-63 162l575 256v-1067z" />
<glyph unicode="&#xf732;" horiz-adv-x="1277" d="M258 838l-45 186q72 18 187 30.5t206 12.5q180 0 284 -35.5t146.5 -105.5t42.5 -187q0 -155 -136 -292.5t-460 -282.5h611v-164h-899v150q173 96 288 166t192 125t116.5 101.5t55 85t15.5 85.5q0 95 -58 134.5t-220 39.5q-74 0 -179 -15t-147 -34z" />
<glyph unicode="&#xf733;" horiz-adv-x="1277" d="M408 281v174h180q161 0 229 50t68 173q0 78 -28 121t-101 64.5t-209 21.5q-96 0 -202 -13.5t-173 -35.5l-45 178q234 53 446 53q197 0 314 -38.5t167 -114.5t50 -201q0 -73 -12.5 -126.5t-44.5 -101t-94 -76t-154 -36.5q98 -4 165.5 -33t103.5 -80.5t50.5 -112.5 t14.5 -143q0 -230 -133 -324t-435 -94q-207 0 -452 56l43 174q151 -45 383 -45q149 0 228.5 26t109.5 78.5t30 149.5q0 145 -70.5 200.5t-244.5 55.5h-184z" />
<glyph unicode="&#xf734;" horiz-adv-x="1277" d="M782 0h-716v55q133 240 304.5 517t315.5 466h297v-872h197v-166h-197v-393h-201v393zM782 166v715q-110 -138 -235.5 -343t-216.5 -372h452z" />
<glyph unicode="&#xf735;" horiz-adv-x="1277" d="M211 1038h846v-178h-647v-385q76 10 200 10q149 0 248.5 -24.5t161 -79t87.5 -135.5t26 -201q0 -132 -31 -220.5t-100.5 -142t-172 -76t-254.5 -22.5q-194 0 -432 56l45 174q145 -45 361 -45q147 0 224 26t105.5 79.5t28.5 154.5q0 83 -13 133.5t-50.5 85t-101.5 48 t-169 13.5q-200 0 -362 -33v762z" />
<glyph unicode="&#xf736;" horiz-adv-x="1277" d="M1141 1405l-54 -184q-132 51 -327 51q-85 0 -144 -9.5t-112.5 -36.5t-86 -74t-52.5 -124t-23 -186q149 28 320 28q149 0 249 -24.5t162 -79t88.5 -136t26.5 -202.5q0 -132 -29 -219t-94 -140.5t-161 -75.5t-240 -22q-153 0 -253 35t-167 122.5t-95 230.5t-28 364 q0 175 25 301t72.5 211t127 135t178.5 71t236 21q189 0 381 -57zM664 156q125 0 190.5 26.5t89 79t23.5 150.5q0 80 -12.5 130.5t-46.5 85t-91 49t-149 15.5q-216 0 -328 -28q1 -127 15 -216.5t38.5 -146.5t65.5 -89t88.5 -44t116.5 -12z" />
<glyph unicode="&#xf737;" horiz-adv-x="1277" d="M1198 1038v-67q-153 -248 -340.5 -651t-294.5 -713h-235q121 334 290 692t304 561h-775v178h1051z" />
<glyph unicode="&#xf738;" horiz-adv-x="1277" d="M639 143q172 0 237.5 58.5t65.5 201.5q0 148 -69.5 209.5t-233.5 61.5t-233.5 -61.5t-69.5 -209.5q0 -143 65.5 -201.5t237.5 -58.5zM639 840q146 0 210 54.5t64 180.5q0 118 -60.5 165.5t-213.5 47.5t-213.5 -47.5t-60.5 -165.5q0 -126 64.5 -180.5t209.5 -54.5z M639 -29q-276 0 -399 94.5t-123 323.5q0 83 14.5 144t50 113.5t103 82t166.5 33.5q-75 7 -129.5 28t-86.5 51t-51 74t-25.5 88.5t-6.5 102.5q0 186 109.5 271t377.5 85q182 0 290 -40t153.5 -116t45.5 -200q0 -58 -6.5 -102.5t-25.5 -88.5t-51 -74t-86.5 -51t-129.5 -28 q98 -4 165 -33.5t102.5 -81.5t50 -113.5t14.5 -144.5q0 -229 -122.5 -323.5t-399.5 -94.5z" />
<glyph unicode="&#xf739;" horiz-adv-x="1277" d="M369 -393q176 157 301 297t194 280q-129 -14 -225 -14q-201 0 -313.5 40t-162.5 130t-50 250q0 261 120.5 369t403.5 108q159 0 257 -21.5t162 -79.5t88.5 -151t24.5 -244q0 -121 -30.5 -238t-78 -211t-121 -191t-142.5 -169.5t-158 -154.5h-270zM653 346q149 0 275 21 q22 78 22 178q0 67 -6 116.5t-16 86t-30 61t-42 40t-58 23.5t-72 10.5t-89 2.5q-93 0 -153.5 -16.5t-93.5 -54t-45.5 -86.5t-12.5 -124q0 -81 12.5 -129t50 -78t97 -40.5t161.5 -10.5z" />
<glyph unicode="&#xf73f;" horiz-adv-x="970" d="M449 252q81 0 109 -23t28 -100q0 -83 -28 -108t-109 -25q-77 0 -104.5 25t-27.5 108q0 77 27.5 100t104.5 23zM539 383h-209q150 107 216 199t66 198q0 70 -45 97.5t-159 27.5q-155 0 -258 -35l-37 166q59 14 149 24.5t156 10.5q221 0 317 -64.5t96 -205.5 q0 -126 -66 -217.5t-226 -200.5z" />
<glyph unicode="&#xf761;" horiz-adv-x="1122" d="M883 0q-47 110 -109 281h-457q-36 -103 -86 -281h-202q115 392 379 1038h317q195 -666 367 -1038h-209zM582 874h-47q-100 -250 -168 -446h356q-73 212 -141 446z" />
<glyph unicode="&#xf762;" horiz-adv-x="1157" d="M342 160h360q74 0 105 34t31 113q0 168 -142 168h-354v-315zM342 879v-254h346q70 0 98.5 33.5t28.5 99.5q0 68 -27 94.5t-100 26.5h-346zM797 557q138 -6 192.5 -76t54.5 -192q0 -289 -294 -289h-600v1038h585q84 0 141.5 -18t87.5 -53t42 -77t12 -99q0 -54 -8.5 -91 t-31.5 -69.5t-67.5 -50.5t-113.5 -23z" />
<glyph unicode="&#xf763;" horiz-adv-x="958" d="M881 197l51 -170q-58 -25 -145.5 -40.5t-161.5 -15.5q-125 0 -215 27t-158 89.5t-101.5 171t-33.5 265.5q0 156 34 263t102 168t158 86.5t214 25.5q72 0 161 -14t146 -35l-51 -172q-106 47 -248 47q-86 0 -139 -13t-94.5 -52.5t-59.5 -114t-18 -193.5q0 -113 18 -187 t59 -115t96 -57t138 -16q122 0 248 52z" />
<glyph unicode="&#xf764;" horiz-adv-x="1167" d="M150 1038h397q128 0 217.5 -24t156 -81.5t98.5 -158.5t32 -250q0 -150 -32 -252.5t-98 -162t-156 -84.5t-218 -25h-397v1038zM543 879h-201v-719h201q84 0 137.5 14.5t92.5 54t56 110t17 181.5q0 92 -12 155.5t-33.5 103.5t-60.5 62t-84 30t-113 8z" />
<glyph unicode="&#xf765;" horiz-adv-x="1019" d="M934 1038v-164h-592v-245h465v-158h-465v-307h592v-164h-784v1038h784z" />
<glyph unicode="&#xf766;" horiz-adv-x="952" d="M147 0v1038h787v-166h-592v-294h465v-158h-465v-420h-195z" />
<glyph unicode="&#xf767;" horiz-adv-x="1148" d="M1014 588v-545q-74 -29 -182 -50.5t-197 -21.5q-126 0 -217.5 27t-161 89t-104.5 171t-35 266q0 155 37 263t109 168t164.5 86t217.5 26q73 0 171.5 -14t160.5 -35l-55 -168q-115 47 -273 47q-87 0 -142.5 -14t-100 -53.5t-64.5 -115t-20 -194.5q0 -113 20 -187.5 t62.5 -116.5t99 -58.5t139.5 -16.5q106 0 188 29v262h-256v156h439z" />
<glyph unicode="&#xf768;" horiz-adv-x="1169" d="M825 473h-483v-473h-195v1038h195v-399h483v399h195v-1038h-195v473z" />
<glyph unicode="&#xf769;" d="M342 1038v-1038h-192v1038h192z" />
<glyph unicode="&#xf76a;" horiz-adv-x="790" d="M643 1038v-692q0 -375 -371 -375q-157 0 -272 47l45 170q98 -43 213 -43q40 0 71 8.5t60 29.5t44.5 64.5t15.5 106.5v684h194z" />
<glyph unicode="&#xf76b;" horiz-adv-x="1054" d="M342 1038v-1038h-192v1038h192zM1057 0h-236q-384 511 -479 549q111 83 444 489h236q-153 -187 -269 -311t-165 -160q46 -27 169 -174t300 -393z" />
<glyph unicode="&#xf76c;" horiz-adv-x="851" d="M342 1038v-864h508v-174h-700v1038h192z" />
<glyph unicode="&#xf76d;" horiz-adv-x="1472" d="M745 344q136 358 293 694h285v-1038h-190v838q-181 -384 -320 -770h-160q-158 427 -311 770v-838h-192v1038h294q158 -332 301 -694z" />
<glyph unicode="&#xf76e;" horiz-adv-x="1175" d="M834 313v725h192v-1038h-192q-279 478 -492 750v-750h-195v1038h193q317 -414 494 -725z" />
<glyph unicode="&#xf76f;" horiz-adv-x="1202" d="M600 -29q-127 0 -214.5 26.5t-149.5 90t-90.5 170.5t-28.5 266q0 158 29 263.5t91 167t149 87t214 25.5q102 0 176.5 -16t134.5 -53t97 -99.5t56 -155t19 -219.5q0 -159 -28.5 -266t-90 -170.5t-149 -90t-215.5 -26.5zM600 901q-67 0 -110.5 -8.5t-78 -31.5t-53 -66.5 t-27.5 -109.5t-9 -165q0 -157 26.5 -238.5t84 -113t167.5 -31.5q83 0 133.5 16t84.5 59.5t47.5 116.5t13.5 191q0 124 -13 197.5t-48 115t-84.5 55t-133.5 13.5z" />
<glyph unicode="&#xf770;" horiz-adv-x="1134" d="M692 879h-350v-332h350q73 0 107.5 37.5t34.5 124.5q0 91 -34 130.5t-108 39.5zM727 395h-385v-395h-195v1038h570q170 0 246.5 -80t76.5 -249q0 -155 -75 -234.5t-238 -79.5z" />
<glyph unicode="&#xf771;" horiz-adv-x="1202" d="M590 -29q-122 0 -207 27t-146.5 89.5t-90.5 170.5t-29 266t29 263.5t91 167t149 87t214 25.5q102 0 176.5 -16t134.5 -53t97 -99.5t56 -155t19 -219.5q0 -238 -62 -357t-202 -159q134 -26 395 -381h-231q-113 165 -217 254.5t-176 89.5zM600 903q-67 0 -110.5 -9t-78 -32 t-53 -67t-27.5 -110t-9 -165q0 -157 26.5 -239t84 -114t167.5 -32q82 0 133 16t85 60t47.5 117.5t13.5 191.5q0 124 -13 198t-48 115.5t-84.5 55.5t-133.5 14z" />
<glyph unicode="&#xf772;" horiz-adv-x="1138" d="M711 1038q321 0 321 -303q0 -122 -68.5 -197.5t-224.5 -78.5q41 -10 72 -29t75 -68t99.5 -134.5t138.5 -227.5h-229q-70 128 -123 208.5t-98.5 123t-81.5 57t-82 14.5h-168v-403h-195v1038h564zM342 561h328q159 0 159 160q0 83 -36.5 118t-116.5 35h-334v-313z" />
<glyph unicode="&#xf773;" horiz-adv-x="1017" d="M881 1014l-50 -164q-144 53 -301 53q-49 0 -81.5 -3t-62 -12t-46 -26t-26 -44.5t-9.5 -67.5q0 -65 51.5 -95.5t184.5 -42.5q198 -17 285 -86.5t87 -216.5q0 -187 -104 -262.5t-317 -75.5q-84 0 -192.5 15.5t-180.5 40.5l47 163q55 -23 148 -39t173 -16q124 0 177 31.5 t53 128.5q0 71 -51 105t-189 46q-191 16 -281 79t-90 208q0 184 108 259t321 75q168 0 346 -53z" />
<glyph unicode="&#xf774;" horiz-adv-x="989" d="M592 866v-866h-195v866h-383v172h959v-172h-381z" />
<glyph unicode="&#xf775;" horiz-adv-x="1155" d="M578 150q140 0 188.5 51.5t48.5 181.5v655h195v-641q0 -240 -96 -333t-336 -93q-239 0 -336 93.5t-97 332.5v641h193v-655q0 -129 50 -181t190 -52z" />
<glyph unicode="&#xf776;" horiz-adv-x="1056" d="M528 190q194 483 293 848h203q-132 -442 -381 -1038h-250q-189 655 -358 1038h207q161 -395 286 -848z" />
<glyph unicode="&#xf777;" horiz-adv-x="1681" d="M846 791q-91 -386 -234 -791h-252q-163 601 -333 1038h211q140 -366 260 -843q60 172 136.5 434.5t108.5 408.5h209q111 -327 230 -843q187 515 264 843h205q-149 -541 -355 -1038h-252q-39 191 -97.5 426t-100.5 365z" />
<glyph unicode="&#xf778;" horiz-adv-x="1067" d="M1028 0h-225q-89 144 -250 373q-136 -181 -293 -373h-223q155 177 412 518q-209 287 -410 520h244q128 -158 274 -362q90 120 248 362h221q-181 -272 -360 -512q186 -254 362 -526z" />
<glyph unicode="&#xf779;" horiz-adv-x="983" d="M502 637q134 160 293 401h221q-198 -288 -424 -561v-477h-193v477q-238 336 -432 561h232q130 -155 303 -401z" />
<glyph unicode="&#xf77a;" horiz-adv-x="1015" d="M90 1038h860v-51q-127 -198 -303.5 -444t-281.5 -371h577v-172h-887v53q162 201 333 435.5t261 377.5h-559v172z" />
<glyph unicode="&#xf7a1;" horiz-adv-x="673" d="M457 0h-238l47 651h144zM336 788q-80 0 -107.5 23t-27.5 100q0 84 28 110t107 26q77 0 105 -26.5t28 -109.5q0 -76 -28 -99.5t-105 -23.5z" />
<glyph unicode="&#xf7bf;" horiz-adv-x="970" d="M494 811q-81 0 -109.5 23t-28.5 100q0 83 28.5 108t109.5 25q77 0 104 -25t27 -108q0 -77 -27 -100t-104 -23zM403 680h209q-150 -107 -216 -199t-66 -198q0 -70 45.5 -97.5t159.5 -27.5q155 0 258 35l36 -166q-59 -14 -149 -24.5t-156 -10.5q-221 0 -317 64.5t-96 205.5 q0 126 66 217.5t226 200.5z" />
<glyph unicode="&#xf7e0;" horiz-adv-x="1122" d="M883 0q-47 110 -109 281h-457q-36 -103 -86 -281h-202q115 392 379 1038h317q195 -666 367 -1038h-209zM582 874h-47q-100 -250 -168 -446h356q-73 212 -141 446zM752 1163h-183l-284 264h221z" />
<glyph unicode="&#xf7e1;" horiz-adv-x="1122" d="M883 0q-47 110 -109 281h-457q-36 -103 -86 -281h-202q115 392 379 1038h317q195 -666 367 -1038h-209zM582 874h-47q-100 -250 -168 -446h356q-73 212 -141 446zM580 1163h-185l248 264h219z" />
<glyph unicode="&#xf7e2;" horiz-adv-x="1122" d="M883 0q-47 110 -109 281h-457q-36 -103 -86 -281h-202q115 392 379 1038h317q195 -666 367 -1038h-209zM582 874h-47q-100 -250 -168 -446h356q-73 212 -141 446zM715 1163q-26 28 -78 83t-78 83q-37 -43 -151 -166h-195q42 44 125 132t125 132h199l258 -264h-205z" />
<glyph unicode="&#xf7e3;" horiz-adv-x="1122" d="M883 0q-47 110 -109 281h-457q-36 -103 -86 -281h-202q115 392 379 1038h317q195 -666 367 -1038h-209zM582 874h-47q-100 -250 -168 -446h356q-73 212 -141 446zM817 1423l107 -84q-70 -188 -230 -188q-39 0 -79.5 19t-69 42.5t-66 42.5t-69.5 19q-67 0 -115 -115 l-94 92q47 83 97.5 124.5t119.5 41.5q43 0 84.5 -19t69 -41.5t62 -41.5t66.5 -19q39 0 65 28t52 99z" />
<glyph unicode="&#xf7e4;" horiz-adv-x="1122" d="M883 0q-47 110 -109 281h-457q-36 -103 -86 -281h-202q115 392 379 1038h317q195 -666 367 -1038h-209zM582 874h-47q-100 -250 -168 -446h356q-73 212 -141 446zM354 1370q61 0 82 -17.5t21 -78.5q0 -67 -21 -87t-82 -20q-62 0 -83 20t-21 87q0 61 21 78.5t83 17.5z M766 1370q61 0 81.5 -17.5t20.5 -78.5q0 -67 -20.5 -87t-81.5 -20q-62 0 -83 20t-21 87q0 61 21 78.5t83 17.5z" />
<glyph unicode="&#xf7e5;" horiz-adv-x="1122" d="M883 0q-47 110 -109 281h-457q-36 -103 -86 -281h-202q115 392 379 1038h317q195 -666 367 -1038h-209zM582 874h-47q-100 -250 -168 -446h356q-73 212 -141 446zM557 1513q118 0 176 -47t58 -149q0 -101 -58.5 -149t-175.5 -48t-175 48t-58 149q0 105 53 150.5t180 45.5 zM557 1411q-62 0 -86.5 -23t-24.5 -73q0 -49 25 -73.5t86 -24.5q63 0 88 24.5t25 73.5q0 50 -25 73t-88 23z" />
<glyph unicode="&#xf7e6;" horiz-adv-x="1605" d="M1393 627v-156h-465v-307h592v-164h-787v283h-473q-99 -147 -184 -283h-219q270 424 739 1038h924v-166h-592v-245h465zM688 883q-227 -306 -328 -453h373v453h-45z" />
<glyph unicode="&#xf7e7;" horiz-adv-x="958" d="M881 197l51 -170q-58 -25 -145.5 -40.5t-161.5 -15.5q-125 0 -215 27t-158 89.5t-101.5 171t-33.5 265.5q0 156 34 263t102 168t158 86.5t214 25.5q72 0 161 -14t146 -35l-51 -172q-106 47 -248 47q-86 0 -139 -13t-94.5 -52.5t-59.5 -114t-18 -193.5q0 -113 18 -187 t59 -115t96 -57t138 -16q122 0 248 52zM539 0h86v-90q131 0 182 -33.5t51 -124.5q0 -95 -60 -131.5t-208 -36.5q-139 0 -209 37l41 98q61 -28 162 -28q59 0 80.5 12t21.5 49q0 41 -46.5 53.5t-174.5 4.5z" />
<glyph unicode="&#xf7e8;" horiz-adv-x="1019" d="M934 1038v-164h-592v-245h465v-158h-465v-307h592v-164h-784v1038h784zM739 1163h-182l-285 264h222z" />
<glyph unicode="&#xf7e9;" horiz-adv-x="1019" d="M934 1038v-164h-592v-245h465v-158h-465v-307h592v-164h-784v1038h784zM567 1163h-184l248 264h219z" />
<glyph unicode="&#xf7ea;" horiz-adv-x="1019" d="M934 1038v-164h-592v-245h465v-158h-465v-307h592v-164h-784v1038h784zM719 1163q-26 28 -78 83t-78 83q-37 -43 -151 -166h-195q42 44 125 132t125 132h199l258 -264h-205z" />
<glyph unicode="&#xf7eb;" horiz-adv-x="1019" d="M934 1038v-164h-592v-245h465v-158h-465v-307h592v-164h-784v1038h784zM365 1370q61 0 81.5 -17.5t20.5 -78.5q0 -67 -20.5 -87t-81.5 -20q-62 0 -83.5 20t-21.5 87q0 61 21 78.5t84 17.5zM776 1370q61 0 82 -17.5t21 -78.5q0 -67 -21 -87t-82 -20q-62 0 -83 20t-21 87 q0 61 21 78.5t83 17.5z" />
<glyph unicode="&#xf7ec;" d="M342 1038v-1038h-192v1038h192zM383 1163h-182l-285 264h221z" />
<glyph unicode="&#xf7ed;" d="M342 1038v-1038h-192v1038h192zM281 1163h-185l248 264h219z" />
<glyph unicode="&#xf7ee;" d="M342 1038v-1038h-192v1038h192zM395 1163q-27 29 -79 84.5t-76 81.5q-24 -28 -152 -166h-194q42 44 124.5 132t124.5 132h199l258 -264h-205z" />
<glyph unicode="&#xf7ef;" d="M342 1038v-1038h-192v1038h192zM41 1370q61 0 81.5 -17.5t20.5 -78.5q0 -67 -20.5 -87t-81.5 -20q-62 0 -83 20t-21 87q0 61 21 78.5t83 17.5zM453 1370q61 0 81.5 -17.5t20.5 -78.5q0 -67 -20.5 -87t-81.5 -20q-62 0 -83.5 20t-21.5 87q0 61 21 78.5t84 17.5z" />
<glyph unicode="&#xf7f0;" horiz-adv-x="1167" d="M41 471v154h109v413h397q128 0 217.5 -24t156 -81.5t98.5 -158.5t32 -250q0 -150 -32 -252.5t-98 -162t-156 -84.5t-218 -25h-397v471h-109zM543 879h-201v-254h223v-154h-223v-311h201q84 0 137.5 14.5t92.5 54t56 110t17 181.5q0 92 -12 155.5t-33.5 103.5t-60.5 62 t-84 30t-113 8z" />
<glyph unicode="&#xf7f1;" horiz-adv-x="1175" d="M834 313v725h192v-1038h-192q-279 478 -492 750v-750h-195v1038h193q317 -414 494 -725zM856 1423l107 -84q-70 -188 -230 -188q-39 0 -79.5 19t-69 42.5t-66 42.5t-69.5 19q-67 0 -115 -115l-94 92q47 83 97.5 124.5t119.5 41.5q43 0 84.5 -19t69 -41.5t62 -41.5 t66.5 -19q39 0 65 28t52 99z" />
<glyph unicode="&#xf7f2;" horiz-adv-x="1202" d="M600 -29q-127 0 -214.5 26.5t-149.5 90t-90.5 170.5t-28.5 266q0 158 29 263.5t91 167t149 87t214 25.5q102 0 176.5 -16t134.5 -53t97 -99.5t56 -155t19 -219.5q0 -159 -28.5 -266t-90 -170.5t-149 -90t-215.5 -26.5zM600 903q-67 0 -110.5 -9t-78 -32t-53 -67 t-27.5 -110t-9 -165q0 -157 26.5 -239t84 -114t167.5 -32q82 0 133 16t85 60t47.5 117.5t13.5 191.5q0 124 -13 198t-48 115.5t-84.5 55.5t-133.5 14zM799 1163h-183l-284 264h221z" />
<glyph unicode="&#xf7f3;" horiz-adv-x="1202" d="M600 -29q-127 0 -214.5 26.5t-149.5 90t-90.5 170.5t-28.5 266q0 158 29 263.5t91 167t149 87t214 25.5q102 0 176.5 -16t134.5 -53t97 -99.5t56 -155t19 -219.5q0 -159 -28.5 -266t-90 -170.5t-149 -90t-215.5 -26.5zM600 903q-67 0 -110.5 -9t-78 -32t-53 -67 t-27.5 -110t-9 -165q0 -157 26.5 -239t84 -114t167.5 -32q82 0 133 16t85 60t47.5 117.5t13.5 191.5q0 124 -13 198t-48 115.5t-84.5 55.5t-133.5 14zM608 1163h-184l248 264h219z" />
<glyph unicode="&#xf7f4;" horiz-adv-x="1202" d="M600 -29q-127 0 -214.5 26.5t-149.5 90t-90.5 170.5t-28.5 266q0 158 29 263.5t91 167t149 87t214 25.5q102 0 176.5 -16t134.5 -53t97 -99.5t56 -155t19 -219.5q0 -159 -28.5 -266t-90 -170.5t-149 -90t-215.5 -26.5zM600 903q-67 0 -110.5 -9t-78 -32t-53 -67 t-27.5 -110t-9 -165q0 -157 26.5 -239t84 -114t167.5 -32q82 0 133 16t85 60t47.5 117.5t13.5 191.5q0 124 -13 198t-48 115.5t-84.5 55.5t-133.5 14zM745 1163q-27 29 -79 84.5t-76 81.5q-25 -28 -152 -166h-194q42 44 125 132t125 132h198l258 -264h-205z" />
<glyph unicode="&#xf7f5;" horiz-adv-x="1202" d="M600 -29q-127 0 -214.5 26.5t-149.5 90t-90.5 170.5t-28.5 266q0 158 29 263.5t91 167t149 87t214 25.5q102 0 176.5 -16t134.5 -53t97 -99.5t56 -155t19 -219.5q0 -159 -28.5 -266t-90 -170.5t-149 -90t-215.5 -26.5zM600 903q-67 0 -110.5 -9t-78 -32t-53 -67 t-27.5 -110t-9 -165q0 -157 26.5 -239t84 -114t167.5 -32q82 0 133 16t85 60t47.5 117.5t13.5 191.5q0 124 -13 198t-48 115.5t-84.5 55.5t-133.5 14zM852 1423l106 -84q-70 -188 -229 -188q-39 0 -79.5 19t-69.5 42.5t-66.5 42.5t-69.5 19q-33 0 -60.5 -27t-53.5 -88 l-94 92q47 83 97.5 124.5t119.5 41.5q43 0 84.5 -19t69 -41.5t62 -41.5t66.5 -19q39 0 65 28t52 99z" />
<glyph unicode="&#xf7f6;" horiz-adv-x="1202" d="M600 -29q-127 0 -214.5 26.5t-149.5 90t-90.5 170.5t-28.5 266q0 158 29 263.5t91 167t149 87t214 25.5q102 0 176.5 -16t134.5 -53t97 -99.5t56 -155t19 -219.5q0 -159 -28.5 -266t-90 -170.5t-149 -90t-215.5 -26.5zM600 903q-67 0 -110.5 -9t-78 -32t-53 -67 t-27.5 -110t-9 -165q0 -157 26.5 -239t84 -114t167.5 -32q82 0 133 16t85 60t47.5 117.5t13.5 191.5q0 124 -13 198t-48 115.5t-84.5 55.5t-133.5 14zM393 1370q61 0 82 -17.5t21 -78.5q0 -67 -21 -87t-82 -20q-62 0 -83 20t-21 87q0 61 21 78.5t83 17.5zM805 1370 q61 0 81.5 -17.5t20.5 -78.5q0 -67 -20.5 -87t-81.5 -20q-62 0 -83.5 20t-21.5 87q0 61 21 78.5t84 17.5z" />
<glyph unicode="&#xf7f8;" horiz-adv-x="1202" d="M944 1038h197l-129 -149q71 -122 71 -365q0 -159 -28.5 -266t-91 -170.5t-150 -90t-215.5 -26.5q-194 0 -307 70l-37 -41h-193l127 150q-71 122 -71 374q0 158 29 263.5t91 167t148.5 87t212.5 25.5q205 0 309 -70zM598 903q-82 0 -130.5 -13t-83 -52.5t-48 -108.5 t-14.5 -184q0 -151 12 -219l465 532q-59 45 -201 45zM598 135q164 0 222.5 81.5t58.5 299.5q0 122 -11 195l-465 -529q55 -47 195 -47z" />
<glyph unicode="&#xf7f9;" horiz-adv-x="1155" d="M578 150q140 0 188.5 51.5t48.5 181.5v655h195v-641q0 -240 -96 -333t-336 -93q-239 0 -336 93.5t-97 332.5v641h193v-655q0 -129 50 -181t190 -52zM780 1163h-182l-285 264h222z" />
<glyph unicode="&#xf7fa;" horiz-adv-x="1155" d="M578 150q140 0 188.5 51.5t48.5 181.5v655h195v-641q0 -240 -96 -333t-336 -93q-239 0 -336 93.5t-97 332.5v641h193v-655q0 -129 50 -181t190 -52zM567 1163h-184l248 264h219z" />
<glyph unicode="&#xf7fb;" horiz-adv-x="1155" d="M578 150q140 0 188.5 51.5t48.5 181.5v655h195v-641q0 -240 -96 -333t-336 -93q-239 0 -336 93.5t-97 332.5v641h193v-655q0 -129 50 -181t190 -52zM721 1163q-26 28 -78 83t-78 83q-37 -43 -151 -166h-195q42 44 125 132t125 132h199l258 -264h-205z" />
<glyph unicode="&#xf7fc;" horiz-adv-x="1155" d="M578 150q140 0 188.5 51.5t48.5 181.5v655h195v-641q0 -240 -96 -333t-336 -93q-239 0 -336 93.5t-97 332.5v641h193v-655q0 -129 50 -181t190 -52zM375 1370q61 0 81.5 -17.5t20.5 -78.5q0 -67 -20.5 -87t-81.5 -20q-62 0 -83.5 20t-21.5 87q0 61 21 78.5t84 17.5z M786 1370q61 0 82 -17.5t21 -78.5q0 -67 -21 -87t-82 -20q-62 0 -83 20t-21 87q0 61 21 78.5t83 17.5z" />
<glyph unicode="&#xf7fd;" horiz-adv-x="983" d="M502 637q134 160 293 401h221q-198 -288 -424 -561v-477h-193v477q-238 336 -432 561h232q130 -155 303 -401zM526 1163h-184l248 264h219z" />
<glyph unicode="&#xf7fe;" horiz-adv-x="1134" d="M342 207v-207h-195v1038h195v-188h375q170 0 246.5 -80.5t76.5 -249.5q0 -157 -79.5 -235t-262.5 -78h-356zM692 690h-350v-332h350q73 0 107.5 37.5t34.5 124.5q0 91 -34 130.5t-108 39.5z" />
<glyph unicode="&#xf7ff;" horiz-adv-x="983" d="M502 637q134 160 293 401h221q-198 -288 -424 -561v-477h-193v477q-238 336 -432 561h232q130 -155 303 -401zM297 1370q61 0 81.5 -17.5t20.5 -78.5q0 -67 -20.5 -87t-81.5 -20q-62 0 -83 20t-21 87q0 61 21 78.5t83 17.5zM709 1370q61 0 81.5 -17.5t20.5 -78.5 q0 -67 -20.5 -87t-81.5 -20q-62 0 -83.5 20t-21.5 87q0 61 21 78.5t84 17.5z" />
<glyph unicode="&#xfb06;" horiz-adv-x="1822" d="M1198 348v518q-150 1 -392 19t-276 18q-49 0 -81.5 -3t-62 -12t-46 -26t-26 -44.5t-9.5 -67.5q0 -65 51.5 -95.5t184.5 -42.5q198 -17 285 -86.5t87 -216.5q0 -187 -104 -262.5t-317 -75.5q-84 0 -192.5 15.5t-180.5 40.5l47 163q55 -23 148 -39t173 -16q124 0 177 31.5 t53 128.5q0 71 -51 105t-189 46q-191 16 -281 79t-90 208q0 184 108 259t321 75q37 0 286 -14.5t377 -14.5v197l193 80v-277h364v-172h-364v-506q0 -116 39.5 -165.5t138.5 -49.5t184 29l39 -160q-117 -43 -256 -43q-92 0 -152 16t-103.5 57.5t-63 115.5t-19.5 188z" />
<glyph unicode="&#xfe59;" horiz-adv-x="657" d="M139 512q0 185 32 331.5t90.5 244t130.5 159t161 96.5l90 -149q-51 -17 -93 -46t-81.5 -82.5t-66.5 -126.5t-43.5 -182t-16.5 -245q0 -168 24 -293.5t67.5 -202.5t94 -120.5t115.5 -65.5l-90 -147q-90 35 -161.5 96.5t-130 158.5t-90.5 243t-32 331z" />
<glyph unicode="&#xfe5a;" horiz-adv-x="657" d="M518 512q0 -150 -22 -274.5t-59 -214t-91 -159t-113.5 -112.5t-130.5 -71l-90 147q51 18 93 47t82.5 82.5t67.5 126.5t43.5 182.5t16.5 245.5q0 578 -303 682l90 147q71 -28 130.5 -71t113.5 -112.5t91 -158.5t59 -213.5t22 -273.5z" />
<glyph unicode="&#xfe5b;" horiz-adv-x="692" d="M66 432v-2v158q47 0 81.5 12.5t65 44.5t46 95.5t15.5 156.5q0 196 84 304t222 140q14 -25 38.5 -72.5t38.5 -72.5q-52 -14 -85.5 -32.5t-61.5 -55.5t-40.5 -99.5t-12.5 -154.5q0 -75 -12.5 -134.5t-31.5 -96t-44.5 -61.5t-48 -36t-46.5 -16q31 -6 59 -24t58 -55 t48 -105.5t18 -161.5q0 -92 12.5 -153.5t40 -98.5t61 -55.5t86.5 -32.5q-11 -19 -36.5 -68t-40.5 -75q-66 15 -119.5 47t-96.5 84.5t-66.5 131.5t-23.5 179q0 93 -15.5 156.5t-46 95.5t-65 44.5t-81.5 12.5z" />
<glyph unicode="&#xfe5c;" horiz-adv-x="692" d="M627 586v2v-156q-47 0 -82 -13t-65 -45.5t-46 -96t-16 -156.5q0 -195 -83.5 -303t-221.5 -140l-78 144q52 14 85.5 32.5t61.5 55.5t41 99.5t13 154.5q0 76 12.5 135.5t31 96t44.5 62t48 36t46 16.5q-24 5 -46 16t-48 36.5t-44.5 61.5t-31 96t-12.5 136q0 74 -9 128.5 t-24 90t-41.5 60t-55.5 38.5t-71 25l78 141q138 -32 221.5 -139.5t83.5 -302.5q0 -93 16 -156.5t46 -96t65 -45.5t82 -13z" />
<glyph unicode="&#xfe5f;" horiz-adv-x="1183" d="M84 655l10 146h217l17 237h172l-15 -237h230l14 237h174l-16 -237h233l-10 -146h-231l-17 -247h238l-10 -142h-236l-18 -266h-172l16 266h-229l-17 -266h-174l19 266h-216l11 142h213l16 247h-219zM475 655l-16 -247h229l17 247h-230z" />
<glyph unicode="&#xfe69;" horiz-adv-x="1101" d="M483 1264h131v-215q162 0 306 -41l-46 -156q-85 31 -260 39v-289q175 -24 256.5 -95t81.5 -208q0 -142 -89 -218.5t-249 -94.5v-224h-131v224q-191 0 -321 39l51 159q120 -35 270 -39v308q-171 18 -252 83t-81 201q0 277 333 310v217zM332 745q0 -58 33.5 -87.5 t117.5 -41.5v273q-151 -16 -151 -144zM772 295q0 60 -34.5 93.5t-123.5 47.5v-289q74 8 116 44.5t42 103.5z" />
<glyph unicode="&#xfe6a;" horiz-adv-x="1583" d="M1069 1038h184l-745 -1038h-182zM354 1067q108 0 170 -27.5t94.5 -100.5t32.5 -204q0 -134 -32 -210t-94.5 -106t-170.5 -30t-170.5 30t-94.5 106t-32 210q0 131 32.5 204t94.5 100.5t170 27.5zM354 508q86 0 114 46.5t28 176.5q0 134 -27.5 176.5t-114.5 42.5 q-84 0 -112.5 -43.5t-28.5 -175.5q0 -129 29 -176t112 -47zM1229 651q108 0 170 -28t94.5 -101.5t32.5 -204.5q0 -196 -68.5 -271t-228.5 -75t-228.5 75t-68.5 271q0 131 32.5 204.5t94.5 101.5t170 28zM1229 90q86 0 113.5 46.5t27.5 176.5q0 134 -27 176.5t-114 42.5 q-84 0 -113 -43.5t-29 -175.5q0 -127 30 -175t112 -48z" />
<glyph unicode="&#xfe6b;" horiz-adv-x="1492" d="M682 936q-79 0 -133.5 -6t-101.5 -23t-75 -45.5t-48.5 -75t-28.5 -110t-8 -152.5q0 -104 14.5 -173.5t44.5 -117.5t85.5 -74t129 -37t184.5 -11q137 0 222 20t141 73.5t78 140.5t22 226q0 200 -39 312h170q35 -101 35 -316q0 -174 -37 -290.5t-117.5 -185t-194 -96.5 t-280.5 -28q-135 0 -232 15.5t-175 53t-125 102t-71.5 160t-24.5 228.5q0 162 35.5 271t109.5 170t171.5 85.5t238.5 24.5q73 0 123.5 -5.5t97.5 -21t76 -44t51 -74.5t31.5 -112t9.5 -156q0 -103 -11.5 -172t-33.5 -114.5t-63.5 -69.5t-92 -33t-129.5 -9q-92 0 -148.5 10 t-96.5 38.5t-56 78t-16 129.5q0 79 16.5 130t55 79t90.5 38.5t133 10.5q121 0 194 -12q-6 96 -54.5 132t-166.5 36zM745 653q-97 0 -129 -23t-32 -100q0 -79 33 -105t126 -26q91 0 125.5 37t34.5 142v65q-117 10 -158 10z" />
<glyph horiz-adv-x="565" />
<glyph horiz-adv-x="675" d="M244 1784h143q0 -76 35 -102.5t115 -26.5q78 0 113.5 27t35.5 102h135q0 -271 -289 -271q-288 0 -288 271z" />
<glyph horiz-adv-x="1372" d="M709 1702l-154 -172h-193q42 44 125 132t125 132h199l258 -264h-201z" />
<glyph horiz-adv-x="653" d="M309 1755q61 0 82 -17.5t21 -78.5q0 -67 -21.5 -88t-81.5 -21q-62 0 -83 21t-21 88q0 61 21 78.5t83 17.5z" />
<glyph horiz-adv-x="1476" d="M737 1806q117 0 175.5 -47.5t58.5 -148.5q0 -103 -58 -150t-176 -47t-175.5 47t-57.5 150q0 104 53.5 150t179.5 46zM737 1702q-62 0 -86 -23t-24 -73q0 -49 24.5 -74t85.5 -25q63 0 88 25t25 74q0 50 -25 73t-88 23z" />
<glyph horiz-adv-x="1464" d="M1081 1788l105 -84q-32 -87 -92.5 -137.5t-143.5 -50.5q-48 0 -101.5 31t-103.5 62t-90 31q-64 0 -112 -112l-92 90q46 82 95 122t118 40q42 0 86 -18.5t74.5 -40t68.5 -40t70 -18.5q39 0 66.5 28t51.5 97z" />
<glyph horiz-adv-x="1284" d="M641 1462q109 0 189 -20.5t145.5 -70t105.5 -132.5t61 -208.5t21 -297.5q0 -175 -21 -304.5t-61.5 -217t-105 -141t-145.5 -76.5t-189 -23q-134 0 -228 37t-161 124t-99 235t-32 366q0 172 21.5 297.5t61.5 208.5t105 132.5t144.5 70t187.5 20.5zM641 158q92 0 149 24 t95.5 89.5t53.5 175t15 286.5q0 146 -10.5 242t-31 158.5t-60 95t-87.5 44t-124 11.5q-75 0 -122 -11.5t-86.5 -44t-60 -95t-31.5 -159t-11 -241.5q0 -141 10.5 -238.5t32 -164.5t59.5 -104t87.5 -52.5t121.5 -15.5z" />
<glyph horiz-adv-x="753" d="M559 0h-207v1204l-319 -145l-62 168l588 256v-1483z" />
<glyph horiz-adv-x="1224" d="M203 1219l-47 182q214 61 426 61q271 0 395.5 -92t124.5 -317q0 -76 -9.5 -132.5t-39.5 -120.5t-78.5 -122t-133 -135t-196 -162.5t-274.5 -202.5h723v-178h-1002v166q199 155 318 250.5t215.5 182.5t141 135.5t74 105t35 95.5t5.5 103q0 135 -71 185.5t-241 50.5 q-96 0 -203.5 -15.5t-162.5 -39.5z" />
<glyph horiz-adv-x="1216" d="M375 670v174h182q159 0 227 52t68 175q0 78 -28 121t-101 64.5t-209 21.5q-94 0 -200 -13t-175 -34l-45 178q252 53 447 53q198 0 315 -39t166 -115t49 -202q0 -73 -12 -126.5t-44 -102.5t-94 -78t-155 -37q98 -4 165.5 -33.5t103.5 -81.5t50.5 -114t14.5 -144 q0 -230 -133 -324t-435 -94q-207 0 -452 56l45 174q148 -45 383 -45q148 0 227 26t109 78.5t30 149.5q0 145 -70.5 202.5t-244.5 57.5h-184z" />
<glyph horiz-adv-x="1216" d="M760 391h-717v60q120 218 297 499t326 477h297v-862h196v-174h-196v-391h-203v391zM760 565v699q-113 -142 -245 -350t-208 -349h453z" />
<glyph horiz-adv-x="1245" d="M203 1427h846v-178h-646v-389q102 10 201 10q197 0 311 -45.5t162.5 -140t48.5 -254.5q0 -133 -31 -220.5t-100.5 -141t-172 -75.5t-255.5 -22q-196 0 -430 56l45 174q145 -45 361 -45q110 0 178.5 12.5t109 44.5t55.5 78.5t15 122.5q0 110 -27 167.5t-98.5 84 t-210.5 26.5q-200 0 -362 -33v768z" />
<glyph horiz-adv-x="1286" d="M1141 1405l-54 -184q-132 51 -327 51q-85 0 -144 -9.5t-112.5 -36.5t-86 -74t-52.5 -124t-23 -186q149 28 320 28q149 0 249 -24.5t162 -79t88.5 -136t26.5 -202.5q0 -132 -29 -219t-94 -140.5t-161 -75.5t-240 -22q-153 0 -253 35t-167 122.5t-95 230.5t-28 364 q0 175 25 301t72.5 211t127 135t178.5 71t236 21q189 0 381 -57zM664 156q125 0 190.5 26.5t89 79t23.5 150.5q0 80 -12.5 130.5t-46.5 85t-91 49t-149 15.5q-216 0 -328 -28q1 -127 15 -216.5t38.5 -146.5t65.5 -89t88.5 -44t116.5 -12z" />
<glyph horiz-adv-x="1046" d="M1079 1427v-67q-153 -247 -337.5 -648t-290.5 -712h-238q126 343 290.5 696.5t297.5 552.5h-774v178h1052z" />
<glyph horiz-adv-x="1282" d="M641 143q172 0 238.5 58.5t66.5 201.5q0 148 -69.5 209.5t-235.5 61.5q-164 0 -232.5 -61.5t-68.5 -209.5q0 -144 64.5 -202t236.5 -58zM641 840q146 0 210 54.5t64 180.5q0 118 -60.5 165.5t-213.5 47.5t-213.5 -47.5t-60.5 -165.5q0 -126 64.5 -180.5t209.5 -54.5z M641 -29q-276 0 -399 94.5t-123 323.5q0 83 14.5 144t50 113.5t103 82t166.5 33.5q-75 7 -129.5 28t-86.5 51t-51 74t-25.5 88.5t-6.5 102.5q0 186 109.5 271t377.5 85q182 0 290 -40t153.5 -116t45.5 -200q0 -58 -6.5 -102.5t-25.5 -88.5t-51 -74t-86.5 -51t-129.5 -28 q98 -4 165 -33.5t102.5 -81.5t50 -113.5t14.5 -144.5q0 -229 -122.5 -323.5t-399.5 -94.5z" />
<glyph horiz-adv-x="1277" d="M360 0q176 157 301.5 297.5t196.5 282.5q-126 -17 -227 -17q-296 0 -411.5 92.5t-115.5 329.5q0 261 121 369t404 108q159 0 257 -21.5t162 -79t88.5 -150.5t24.5 -244q0 -121 -30.5 -238t-78.5 -212t-120.5 -192t-142 -170t-158.5 -155h-271zM645 741q152 0 275 21 q24 83 24 178q0 77 -7 132t-25 93t-40 60.5t-61 34.5t-79.5 16t-102.5 4q-93 0 -153.5 -16.5t-93 -54t-44.5 -86.5t-12 -124q0 -55 5 -92.5t19.5 -68t36.5 -48t59 -29.5t84 -16t115 -4z" />
<glyph horiz-adv-x="1187" d="M1047 1006v-269q0 -178 -120.5 -279.5t-336.5 -101.5q-128 0 -213 31q-15 -43 -15 -80q0 -64 60 -91.5t227 -31.5q241 -6 343 -67t102 -203q0 -177 -133 -253.5t-402 -76.5q-266 0 -426 56l45 174q61 -26 164.5 -43t212.5 -17q184 0 260 33t76 111q0 48 -23 71 t-85.5 33.5t-198.5 13.5q-125 4 -205 19.5t-123.5 47t-59.5 71.5t-16 102q0 100 53 184q-112 79 -112 271q0 182 115.5 269t367.5 87q107 0 233.5 -17t209.5 -44zM854 731v146q-105 24 -254 24q-158 0 -217 -39t-59 -151q0 -110 59 -149.5t211 -39.5q260 0 260 209z" />
<glyph horiz-adv-x="1755" d="M1128 348v518q-105 0 -289 14.5t-212 14.5q-68 0 -113.5 -8t-84.5 -31t-61 -65t-34 -108.5t-12 -162.5q0 -91 12 -156t34.5 -107.5t60.5 -67t85 -34.5t113 -10q133 0 241 48l50 -166q-59 -26 -142.5 -41t-157.5 -15q-122 0 -211 27t-156 89.5t-100.5 171t-33.5 265.5 q0 125 22.5 219t63.5 155.5t104.5 99.5t138.5 53.5t172 15.5q38 0 222.5 -14.5t287.5 -14.5v197l195 80v-277h365v-172h-365v-506q0 -116 39 -165.5t137 -49.5q102 0 187 29l36 -160q-114 -43 -256 -43q-92 0 -152 16t-103.5 57.5t-63 115.5t-19.5 188z" />
<glyph horiz-adv-x="1185" d="M602 -139q-23 47 -64.5 78t-86.5 48.5t-95 35.5t-94 47.5t-80 75t-57 128t-21 197.5q0 215 71.5 320.5t201.5 105.5q100 0 225 -61q125 61 229 61q130 0 201.5 -105t71.5 -319q0 -113 -23 -195t-61 -127.5t-85 -75t-98 -48t-96 -36.5t-83 -50t-56 -80zM602 670 q-95 63 -160 63q-133 0 -133 -264q0 -86 15.5 -143.5t40 -83t57 -44t63.5 -27.5t63.5 -32.5t53.5 -60.5q19 37 50.5 60t63 32t65.5 27.5t59.5 44t42 83t16.5 144.5q0 139 -28.5 199.5t-90.5 60.5q-66 0 -178 -59zM600 866q16 44 16 97q0 86 -46.5 145t-127.5 59h-442v158 h1186v-158h-498q41 -41 41 -106q0 -57 -32.5 -110t-96.5 -85z" />
<glyph horiz-adv-x="1185" d="M584 -139q-14 38 -40.5 65.5t-59 44.5t-70 31.5t-76 30t-75.5 35.5t-69.5 53t-57 78t-38.5 115t-14 159q0 214 70 319t200 105q105 0 230 -61q125 61 227 61q129 0 199.5 -105.5t70.5 -320.5q0 -90 -13 -160.5t-36 -116t-53 -78.5t-66 -53t-72.5 -35t-74.5 -29t-71 -30 t-62.5 -43.5t-48.5 -64.5zM586 866q-64 32 -96.5 85t-32.5 110q0 65 41 106h-498v158h1186v-158h-443q-81 0 -127.5 -59t-46.5 -145q0 -50 17 -97z" />
<glyph horiz-adv-x="1185" d="M602 1327q18 -48 56 -80t83 -50t96 -36.5t98 -48t85 -75t61 -127.5t23 -195q0 -214 -71.5 -319t-201.5 -105q-104 0 -229 61q-129 -63 -225 -63q-130 0 -201.5 106t-71.5 322q0 114 21 196.5t57 128t80 75t94 47.5t95 35t86 49t65 79zM602 518q116 -61 178 -61t90.5 61 t28.5 199q0 87 -16.5 145t-42 83.5t-59.5 44t-65.5 27.5t-63 32.5t-50.5 60.5q-18 -32 -45 -53.5t-53.5 -32.5t-55 -22.5t-53 -29t-44.5 -46t-31 -81t-11 -126.5q0 -264 133 -264q69 0 160 63zM600 319q64 -31 96.5 -83t32.5 -109q0 -66 -41 -107h498v-159h-1186v159h442 q81 0 127.5 59.5t46.5 145.5q0 53 -16 94z" />
<glyph horiz-adv-x="1185" d="M584 1327q24 -47 65 -79t86 -49t94.5 -35.5t93.5 -47.5t80 -74.5t57 -128t21 -196.5q0 -215 -71 -321.5t-199 -106.5q-98 0 -227 63q-125 -61 -230 -61q-130 0 -200 105t-70 319q0 89 14 159t38.5 115t57 78t69.5 53t75.5 35.5t76 30t70 31.5t59 44.5t40.5 65.5zM586 319 q-17 -44 -17 -94q0 -86 46.5 -145.5t127.5 -59.5h443v-159h-1186v159h498q-41 41 -41 107q0 57 32.5 109t96.5 83z" />
<glyph horiz-adv-x="1646" d="M35 584q37 19 64.5 48.5t44 62.5t31 71t29.5 74.5t35 72.5t53 66t78.5 53t116 36t160.5 13q214 0 320 -71t106 -199q0 -102 -61 -227q61 -131 61 -228q0 -130 -105 -201t-319 -71q-89 0 -159 14t-115 38.5t-78 57t-53 69.5t-35.5 75.5t-30 76t-32 70t-45.5 59t-66 40.5z M844 584q65 97 65 159q0 134 -264 134q-102 0 -163 -21t-85.5 -56t-38 -72t-37.5 -78t-67 -66q32 -16 53 -42t31.5 -52.5t21.5 -56t28.5 -54.5t46.5 -45.5t82 -32.5t128 -12q138 0 199 28.5t61 90.5q0 63 -61 176zM1042 586q53 -17 97 -17q86 0 145 47t59 129v443h158v-1188 h-158v498q-44 -41 -106 -41q-57 0 -110 32.5t-85 96.5z" />
<glyph horiz-adv-x="1646" d="M35 604q48 17 80.5 55t50.5 83t36.5 95.5t48.5 97.5t75.5 85t127.5 61t195 23q214 0 319 -71.5t105 -201.5q0 -99 -61 -227q61 -128 61 -227q0 -130 -105.5 -200.5t-320.5 -70.5q-90 0 -160.5 13t-116 36t-78.5 53t-53 66t-35 72.5t-29.5 74.5t-31 71t-44 63t-64.5 49z M1042 602q32 63 85.5 95t109.5 32q64 0 106 -39v498h158v-1188h-158v442q0 81 -59 127.5t-145 46.5q-54 0 -97 -14z" />
<glyph horiz-adv-x="1646" d="M1612 586q-42 -16 -72.5 -47.5t-46.5 -69t-34.5 -81.5t-35.5 -86t-50.5 -81.5t-78 -69t-120 -47.5t-175.5 -18q-216 0 -321 70t-105 200q0 96 62 230q-62 134 -62 227q0 128 106.5 199t321.5 71q114 0 196.5 -21t128 -57t75 -80t47.5 -93.5t35.5 -94.5t49.5 -86t79 -65z M803 586q-62 -118 -62 -178q0 -61 61 -89t199 -28q75 0 128 12t82 32.5t47 45.5t29 54.5t22 56t32.5 52.5t53.5 42q-32 18 -53.5 45t-32.5 53.5t-22.5 55t-29 53t-46 44.5t-81 31t-126.5 11q-265 0 -265 -134q0 -67 64 -159zM604 588q-32 -64 -84 -96.5t-108 -32.5 q-69 0 -107 41v-498h-160v1186h160v-443q0 -81 59.5 -127.5t145.5 -46.5q50 0 94 17z" />
<glyph horiz-adv-x="1646" d="M1612 604q-47 -24 -79 -65t-49.5 -86t-35.5 -95t-47.5 -94t-75 -80t-128 -57t-196.5 -21q-216 0 -322 71.5t-106 201.5q0 91 62 225q-62 134 -62 230q0 130 105.5 201t320.5 71q113 0 195 -23t127 -61t75 -85t48.5 -98t37 -96t50.5 -83t80 -56zM604 602q-41 16 -94 16 q-86 0 -145.5 -46.5t-59.5 -127.5v-442h-160v1186h160v-498q38 41 107 41q56 0 108 -32.5t84 -96.5z" />
<glyph horiz-adv-x="1751" d="M1612 723q0 -147 -19.5 -260.5t-61.5 -197t-101 -140t-144 -90.5t-184 -49t-228 -15q-155 0 -268.5 21.5t-204.5 73t-147 138t-85.5 215t-29.5 304.5q0 145 19.5 256.5t61 193.5t100.5 137.5t143.5 89t183.5 48t227 14.5q155 0 268 -21t205 -71.5t148.5 -135t86.5 -211 t30 -300.5zM1087 858q0 76 -24.5 114t-83.5 38h-244v-295h238q64 0 89 36t25 107zM1278 860q0 -138 -64.5 -219.5t-191.5 -81.5h-287v-280h-178v886h461q135 0 197.5 -82.5t62.5 -222.5zM872 1309q-106 0 -179.5 -8.5t-138.5 -32.5t-105 -65t-69.5 -107t-41.5 -157.5 t-12 -217.5q0 -184 28 -298.5t96.5 -181t166.5 -90.5t255 -24q106 0 182.5 10t141 36t105.5 68.5t70 109.5t41.5 157t12.5 213q0 95 -7 169t-23 133.5t-38 103t-56.5 76t-74.5 52.5t-96.5 32.5t-117 17t-140.5 4.5z" />
<glyph horiz-adv-x="1564" d="M782 1266q-101 0 -169.5 -24t-119 -84.5t-73.5 -165.5t-23 -263q0 -161 23.5 -270t73 -173.5t119 -92t169.5 -27.5q80 0 139.5 17t106.5 56.5t76.5 104.5t45 160.5t15.5 224.5q0 158 -23 263.5t-73 165t-118.5 84t-168.5 24.5zM780 301q-89 0 -137 35.5t-71 127.5 t-23 265q0 107 8 178.5t23.5 118t44.5 70.5t64.5 32.5t90.5 8.5q47 0 78.5 -5.5t60 -21.5t45 -44t28.5 -74t17 -109.5t5 -153.5q0 -173 -22.5 -265t-71.5 -127.5t-140 -35.5zM782 1462q140 0 242 -21t185 -71.5t133.5 -135t77 -211t26.5 -300.5q0 -176 -26.5 -304 t-77 -214.5t-132.5 -138t-185 -73.5t-243 -22q-139 0 -241.5 22t-185 73.5t-133 138t-77 214.5t-26.5 304q0 174 26.5 300.5t77 211t133 135t184.5 71.5t242 21z" />
<glyph horiz-adv-x="1564" d="M735 195h152v1093l-432 -190l45 -119l235 106v-890zM782 1462q140 0 242 -21t185 -71.5t133.5 -135t77 -211t26.5 -300.5q0 -176 -26.5 -304t-77 -214.5t-132.5 -138t-185 -73.5t-243 -22q-139 0 -241.5 22t-185 73.5t-133 138t-77 214.5t-26.5 304q0 174 26.5 300.5 t77 211t133 135t184.5 71.5t242 21z" />
<glyph horiz-adv-x="1564" d="M782 1462q140 0 242 -21t185 -71.5t133.5 -135t77 -211t26.5 -300.5q0 -176 -26.5 -304t-77 -214.5t-132.5 -138t-185 -73.5t-243 -22q-139 0 -241.5 22t-185 73.5t-133 138t-77 214.5t-26.5 304q0 174 26.5 300.5t77 211t133 135t184.5 71.5t242 21zM440 1225l33 -131 q40 17 120 28t150 11q127 0 179.5 -37.5t52.5 -137.5q0 -48 -4 -77t-26 -71t-54.5 -77.5t-104 -100.5t-159.5 -135.5t-236 -185.5v-121h737v132h-536q182 130 284.5 213t163 157.5t78 133.5t17.5 143q0 166 -91 233.5t-292 67.5q-165 0 -312 -45z" />
<glyph horiz-adv-x="1564" d="M629 811v-129h135q129 0 182 -43t53 -150q0 -73 -22 -111.5t-80.5 -57.5t-169.5 -19q-173 0 -285 33l-30 -125q176 -43 333 -43q223 0 320.5 69.5t97.5 239.5q0 127 -53 198.5t-192 78.5q68 5 113 26t67.5 57.5t30.5 76t8 94.5q0 137 -88.5 198.5t-303.5 61.5 q-134 0 -325 -39l33 -129q107 35 274 35q148 0 200 -33.5t52 -120.5q0 -92 -49 -130t-168 -38h-133zM782 1462q140 0 242 -21t185 -71.5t133.5 -135t77 -211t26.5 -300.5q0 -176 -26.5 -304t-77 -214.5t-132.5 -138t-185 -73.5t-243 -22q-139 0 -241.5 22t-185 73.5 t-133 138t-77 214.5t-26.5 304q0 174 26.5 300.5t77 211t133 135t184.5 71.5t242 21z" />
<glyph horiz-adv-x="1564" d="M338 477h530v-291h148v291h145v125h-145v639h-217q-111 -146 -241.5 -354t-219.5 -369v-41zM868 1122v-520h-338q61 110 158 262t180 258zM782 1462q140 0 242 -21t185 -71.5t133.5 -135t77 -211t26.5 -300.5q0 -176 -26.5 -304t-77 -214.5t-132.5 -138t-185 -73.5 t-243 -22q-139 0 -241.5 22t-185 73.5t-133 138t-77 214.5t-26.5 304q0 174 26.5 300.5t77 211t133 135t184.5 71.5t242 21z" />
<glyph horiz-adv-x="1564" d="M1090 1235h-623v-563q108 24 268 24q102 0 155 -20t73 -63t20 -126q0 -109 -53.5 -149.5t-212.5 -40.5q-160 0 -266 33l-33 -125q155 -43 317 -43q223 0 317.5 74t94.5 264q0 176 -85 250.5t-300 74.5q-90 0 -150 -8v285h478v133zM782 1462q140 0 242 -21t185 -71.5 t133.5 -135t77 -211t26.5 -300.5q0 -176 -26.5 -304t-77 -214.5t-132.5 -138t-185 -73.5t-243 -22q-139 0 -241.5 22t-185 73.5t-133 138t-77 214.5t-26.5 304q0 174 26.5 300.5t77 211t133 135t184.5 71.5t242 21z" />
<glyph horiz-adv-x="1564" d="M1100 1090l37 135q-134 41 -281 41q-127 0 -211.5 -24.5t-145 -86t-87.5 -167.5t-27 -267q0 -163 20.5 -268.5t69.5 -170t122.5 -90.5t186.5 -26q210 0 298.5 74t88.5 264q0 176 -86 250.5t-301 74.5q-140 0 -239 -22q4 84 18 141.5t37 93t62.5 54.5t84 25.5t111.5 6.5 q149 0 242 -38zM1012 492q0 -108 -46 -149.5t-182 -41.5q-64 0 -105 15t-72.5 55.5t-46 115.5t-15.5 193q105 20 229 20q142 0 190 -44t48 -164zM782 1462q140 0 242 -21t185 -71.5t133.5 -135t77 -211t26.5 -300.5q0 -176 -26.5 -304t-77 -214.5t-132.5 -138t-185 -73.5 t-243 -22q-139 0 -241.5 22t-185 73.5t-133 138t-77 214.5t-26.5 304q0 174 26.5 300.5t77 211t133 135t184.5 71.5t242 21z" />
<glyph horiz-adv-x="1564" d="M582 186h157q94 259 218 543.5t243 511.5h-784v-135h565q-103 -200 -214 -454.5t-185 -465.5zM782 1462q140 0 242 -21t185 -71.5t133.5 -135t77 -211t26.5 -300.5q0 -176 -26.5 -304t-77 -214.5t-132.5 -138t-185 -73.5t-243 -22q-139 0 -241.5 22t-185 73.5t-133 138 t-77 214.5t-26.5 304q0 174 26.5 300.5t77 211t133 135t184.5 71.5t242 21z" />
<glyph horiz-adv-x="1564" d="M782 293q-129 0 -177 42.5t-48 149.5q0 109 51 155t174 46t174.5 -46t51.5 -155q0 -107 -49 -149.5t-177 -42.5zM782 807q-109 0 -156.5 40.5t-47.5 135.5q0 87 44.5 121.5t159.5 34.5q114 0 158.5 -34.5t44.5 -121.5q0 -95 -47 -135.5t-156 -40.5zM782 166 q202 0 292.5 70t90.5 239q0 62 -10 107t-35.5 84t-75 60.5t-122.5 25.5q68 5 113.5 26t68 57.5t31 76t8.5 94.5q0 135 -82 197.5t-279 62.5q-198 0 -279 -62t-81 -198q0 -55 8 -94.5t30.5 -76t68 -57.5t114.5 -26q-73 -4 -123 -25.5t-76 -60.5t-36.5 -84.5t-10.5 -106.5 q0 -169 91 -239t294 -70zM782 1462q140 0 242 -21t185 -71.5t133.5 -135t77 -211t26.5 -300.5q0 -176 -26.5 -304t-77 -214.5t-132.5 -138t-185 -73.5t-243 -22q-139 0 -241.5 22t-185 73.5t-133 138t-77 214.5t-26.5 304q0 174 26.5 300.5t77 211t133 135t184.5 71.5 t242 21z" />
<glyph horiz-adv-x="1564" d="M780 608q70 0 172 10q-92 -185 -370 -428h198q66 60 117.5 114t105.5 126t89.5 142t58.5 157t23 176q0 111 -18.5 180t-66 111t-120 58t-189.5 16q-207 0 -296 -80t-89 -272q0 -175 83.5 -242.5t301.5 -67.5zM1016 885q0 -69 -21 -133q-104 -17 -204 -17q-144 0 -190 38 t-46 157q0 56 9 92t33 64t68.5 40.5t114.5 12.5t109 -7.5t71 -33.5t44 -77t12 -136zM782 -29q-176 0 -295 34.5t-204.5 120t-124.5 231.5t-39 366q0 174 26.5 300.5t77 211t133 135t184.5 71.5t242 21t242 -21t185 -71.5t133.5 -135t77 -211t26.5 -300.5 q0 -147 -17.5 -260.5t-55 -197t-90.5 -140t-129.5 -90.5t-166 -49t-205.5 -15z" />
<glyph horiz-adv-x="1884" d="M578 -29q-93 0 -164 16.5t-128 55.5t-93.5 102t-56 157t-19.5 220q0 140 33 238t90 152.5t127 89.5t151.5 62.5t156.5 58.5t147.5 90t119.5 145q46 -86 118.5 -145t147 -90t155.5 -58.5t151.5 -62.5t127.5 -89.5t90 -152.5t33 -238q0 -126 -19.5 -220t-55.5 -157 t-93.5 -102t-128 -55.5t-163.5 -16.5q-158 0 -267 72v-436h-194v436q-109 -72 -266 -72zM1038 1034v-768q0 -58 70 -91.5t174 -33.5q109 0 168 32t86 112.5t27 230.5q0 102 -23.5 173t-60.5 108t-92 66.5t-108.5 46.5t-121.5 49.5t-119 74.5zM844 266v768 q-51 -42 -118.5 -74.5t-121 -49.5t-108.5 -46.5t-91.5 -66.5t-59.5 -108t-23 -173q0 -113 13.5 -184t47 -114.5t84.5 -60t133 -16.5q104 0 174 33.5t70 91.5z" />
<glyph horiz-adv-x="2199" d="M1161 -393v1210q-155 39 -325 62.5t-306 23.5q-49 0 -81.5 -3t-62 -12t-46 -26t-26 -44.5t-9.5 -67.5q0 -65 51.5 -95.5t184.5 -42.5q198 -17 285 -86.5t87 -216.5q0 -187 -104 -262.5t-317 -75.5q-84 0 -192.5 15.5t-180.5 40.5l47 163q55 -23 148 -39t173 -16 q124 0 177 31.5t53 128.5q0 71 -51 105t-189 46q-191 16 -281 79t-90 208q0 184 108 259t321 75q146 0 316 -21.5t310 -56.5q83 35 207 56.5t229 21.5q129 0 216.5 -25.5t149.5 -88t90 -168t28 -263.5q0 -126 -19.5 -220t-56 -157t-93.5 -102t-128 -55.5t-164 -16.5 q-160 0 -266 74v-438h-193zM1354 858v-592q0 -58 69.5 -91.5t173.5 -33.5q109 0 168 32.5t86 113t27 231.5q0 81 -6 139t-20.5 100.5t-34.5 68.5t-53.5 42t-72 21.5t-94.5 5.5q-145 0 -243 -37z" />
<glyph horiz-adv-x="1921" d="M1376 891v-612q-87 -37 -210 -59.5t-228 -22.5q-119 0 -196 15.5t-129.5 55t-74.5 106t-22 169.5q0 87 20.5 150t53 99t85.5 57t105.5 27.5t126.5 6.5q121 0 283 -31q0 86 -10.5 134.5t-44 81t-89.5 43.5t-153 11q-118 0 -198 -8.5t-148.5 -32.5t-108.5 -63.5t-68.5 -106 t-39.5 -154.5t-11 -214q0 -122 12.5 -209.5t44 -154.5t77.5 -108.5t120.5 -67.5t166.5 -36t221 -10q131 0 225.5 11t170 38t122.5 69.5t78.5 109.5t44 153t12.5 205q0 234 -45 350h184q43 -136 43 -350q0 -180 -31.5 -309t-92.5 -216t-164 -138t-233.5 -72t-313.5 -21 q-150 0 -264 14.5t-210 49.5t-162 91.5t-112 140.5t-67 197.5t-21 262.5q0 148 21 261t65 196t106 138.5t152 89t194 48t240 14.5q133 0 219 -18t145 -63.5t84 -122t25 -195.5zM1190 395v318q-109 20 -232 20q-65 0 -104 -5.5t-73 -23.5t-49 -55t-15 -96q0 -112 49.5 -155.5 t181.5 -43.5q136 0 242 41z" />
<glyph horiz-adv-x="1523" d="M1229 670v-609q-95 -40 -247.5 -65t-279.5 -25q-269 0 -408.5 96.5t-139.5 321.5q0 82 15 144t51 114t103.5 81.5t165.5 33.5q-91 8 -151 36t-90 76.5t-40.5 100.5t-10.5 127q0 184 117.5 272t367.5 88q157 0 315 -51l-59 -178q-107 45 -240 45q-158 0 -220 -46.5 t-62 -160.5q0 -122 62 -174.5t206 -52.5h346v194l199 78v-272h276v-174h-276zM1030 193v477h-352q-162 0 -230.5 -58t-68.5 -202q0 -140 76.5 -197t263.5 -57q196 0 311 37z" />
<glyph horiz-adv-x="1122" d="M883 0q-47 110 -109 281h-457q-36 -103 -86 -281h-202q115 392 379 1038h317q195 -666 367 -1038h-209zM582 874h-47q-100 -250 -168 -446h356q-73 212 -141 446zM274 1427h144q0 -76 34.5 -102.5t114.5 -26.5q78 0 114 27t36 102h135q0 -138 -72.5 -204t-216.5 -66 q-289 0 -289 270z" />
<glyph horiz-adv-x="1122" d="M883 0q-47 110 -109 281h-457q-36 -103 -86 -281h-202q115 392 379 1038h317q195 -666 367 -1038h-209zM582 874h-47q-100 -250 -168 -446h356q-73 212 -141 446zM287 1190v151h542v-151h-542z" />
<glyph horiz-adv-x="1122" d="M883 0q-47 110 -109 281h-457q-36 -103 -86 -281h-202q115 392 379 1038h317q195 -666 367 -1038h-209zM582 874h-47q-100 -250 -168 -446h356q-73 212 -141 446zM971 25h76q-110 -67 -147.5 -114.5t-37.5 -111.5q0 -47 28.5 -67.5t104.5 -20.5q49 0 98 17t81 43l65 -115 q-47 -35 -120 -53.5t-142 -18.5q-149 0 -207.5 44t-58.5 139q0 85 66 153.5t194 104.5z" />
<glyph horiz-adv-x="718" d="M180 1325h482v-170h-279v-1282h279v-168h-482v1620z" />
<glyph horiz-adv-x="1167" d="M150 1038h397q128 0 217.5 -24t156 -81.5t98.5 -158.5t32 -250q0 -150 -32 -252.5t-98 -162t-156 -84.5t-218 -25h-397v1038zM543 879h-201v-719h201q84 0 137.5 14.5t92.5 54t56 110t17 181.5q0 92 -12 155.5t-33.5 103.5t-60.5 62t-84 30t-113 8zM199 1427h202 l156 -165l152 165h196l-250 -264h-198z" />
<glyph horiz-adv-x="1167" d="M41 471v154h109v413h397q128 0 217.5 -24t156 -81.5t98.5 -158.5t32 -250q0 -150 -32 -252.5t-98 -162t-156 -84.5t-218 -25h-397v471h-109zM543 879h-201v-254h223v-154h-223v-311h201q84 0 137.5 14.5t92.5 54t56 110t17 181.5q0 92 -12 155.5t-33.5 103.5t-60.5 62 t-84 30t-113 8z" />
<glyph horiz-adv-x="1167" d="M150 1038h397q128 0 217.5 -24t156 -81.5t98.5 -158.5t32 -250q0 -150 -32 -252.5t-98 -162t-156 -84.5t-218 -25h-397v1038zM543 879h-201v-719h201q84 0 137.5 14.5t92.5 54t56 110t17 181.5q0 92 -12 155.5t-33.5 103.5t-60.5 62t-84 30t-113 8zM268 1190v151h543 v-151h-543z" />
<glyph horiz-adv-x="1019" d="M934 1038v-164h-592v-245h465v-158h-465v-307h592v-164h-784v1038h784zM276 1190v151h543v-151h-543z" />
<glyph horiz-adv-x="970" d="M870 182l52 -155q-58 -25 -144.5 -40.5t-159.5 -15.5q-122 0 -211 27t-156 89.5t-100.5 171t-33.5 265.5q0 125 22.5 219t63.5 155.5t104.5 99.5t138.5 53.5t172 15.5q72 0 159.5 -14t144.5 -35l-52 -158q-99 45 -241 45q-120 0 -187 -36t-96 -132h426v-129h-448 q-2 -27 -2 -88q0 -53 2 -76h448v-129h-426q27 -101 94.5 -140.5t188.5 -39.5q138 0 241 47z" />
<glyph horiz-adv-x="1019" d="M934 1038v-164h-592v-245h465v-158h-465v-307h592v-164h-784v1038h784zM786 25h76q-110 -67 -147 -114.5t-37 -111.5q0 -47 28.5 -67.5t104.5 -20.5q49 0 97.5 17t80.5 43l66 -115q-47 -35 -120 -53.5t-142 -18.5q-150 0 -208.5 44t-58.5 139q0 85 66 153.5t194 104.5z " />
<glyph horiz-adv-x="1019" d="M934 1038v-164h-592v-245h465v-158h-465v-307h592v-164h-784v1038h784zM229 1427h203l156 -165l151 165h197l-250 -264h-199z" />
<glyph horiz-adv-x="1019" d="M934 1038v-164h-592v-245h465v-158h-465v-307h592v-164h-784v1038h784zM571 1370q61 0 82 -17.5t21 -78.5q0 -67 -21 -87t-82 -20t-82.5 20t-21.5 87q0 61 21.5 78.5t82.5 17.5z" />
<glyph horiz-adv-x="1019" d="M934 1038v-164h-592v-245h465v-158h-465v-307h592v-164h-784v1038h784zM274 1427h144q0 -76 34.5 -102.5t114.5 -26.5q78 0 114 27t36 102h135q0 -138 -72.5 -204t-216.5 -66q-289 0 -289 270z" />
<glyph horiz-adv-x="1148" d="M1014 588v-545q-74 -29 -182 -50.5t-197 -21.5q-126 0 -217.5 27t-161 89t-104.5 171t-35 266q0 155 37 263t109 168t164.5 86t217.5 26q73 0 171.5 -14t160.5 -35l-55 -168q-115 47 -273 47q-87 0 -142.5 -14t-100 -53.5t-64.5 -115t-20 -194.5q0 -113 20 -187.5 t62.5 -116.5t99 -58.5t139.5 -16.5q106 0 188 29v262h-256v156h439zM612 1163h-184l248 264h219z" />
<glyph horiz-adv-x="1148" d="M1014 588v-545q-74 -29 -182 -50.5t-197 -21.5q-126 0 -217.5 27t-161 89t-104.5 171t-35 266q0 155 37 263t109 168t164.5 86t217.5 26q73 0 171.5 -14t160.5 -35l-55 -168q-115 47 -273 47q-87 0 -142.5 -14t-100 -53.5t-64.5 -115t-20 -194.5q0 -113 20 -187.5 t62.5 -116.5t99 -58.5t139.5 -16.5q106 0 188 29v262h-256v156h439zM340 1427h143q0 -76 35 -102.5t115 -26.5q78 0 113.5 27t35.5 102h136q0 -138 -72.5 -204t-216.5 -66q-289 0 -289 270z" />
<glyph horiz-adv-x="1148" d="M1014 588v-545q-74 -29 -182 -50.5t-197 -21.5q-126 0 -217.5 27t-161 89t-104.5 171t-35 266q0 155 37 263t109 168t164.5 86t217.5 26q73 0 171.5 -14t160.5 -35l-55 -168q-115 47 -273 47q-87 0 -142.5 -14t-100 -53.5t-64.5 -115t-20 -194.5q0 -113 20 -187.5 t62.5 -116.5t99 -58.5t139.5 -16.5q106 0 188 29v262h-256v156h439zM780 1163q-27 29 -79 84.5t-76 81.5q-24 -28 -152 -166h-194q42 44 124.5 132t124.5 132h199l258 -264h-205z" />
<glyph horiz-adv-x="1148" d="M1014 588v-545q-74 -29 -182 -50.5t-197 -21.5q-126 0 -217.5 27t-161 89t-104.5 171t-35 266q0 155 37 263t109 168t164.5 86t217.5 26q73 0 171.5 -14t160.5 -35l-55 -168q-115 47 -273 47q-87 0 -142.5 -14t-100 -53.5t-64.5 -115t-20 -194.5q0 -113 20 -187.5 t62.5 -116.5t99 -58.5t139.5 -16.5q106 0 188 29v262h-256v156h439zM754 -104l-213 -342h-156l145 342h224z" />
<glyph horiz-adv-x="1148" d="M1014 588v-545q-74 -29 -182 -50.5t-197 -21.5q-126 0 -217.5 27t-161 89t-104.5 171t-35 266q0 155 37 263t109 168t164.5 86t217.5 26q73 0 171.5 -14t160.5 -35l-55 -168q-115 47 -273 47q-87 0 -142.5 -14t-100 -53.5t-64.5 -115t-20 -194.5q0 -113 20 -187.5 t62.5 -116.5t99 -58.5t139.5 -16.5q106 0 188 29v262h-256v156h439zM623 1370q61 0 81.5 -17.5t20.5 -78.5q0 -67 -20.5 -87t-81.5 -20t-83 20t-22 87q0 60 21.5 78t83.5 18z" />
<glyph horiz-adv-x="2033" d="M1896 1014l-49 -164q-144 53 -301 53q-49 0 -81.5 -3t-62 -12t-46 -26t-26 -44.5t-9.5 -67.5q0 -65 51.5 -95.5t183.5 -42.5q198 -18 285.5 -87t87.5 -216q0 -187 -104 -262.5t-318 -75.5q-84 0 -192 15.5t-180 40.5l47 163q55 -23 148 -39t173 -16q124 0 177 31.5 t53 128.5q0 71 -51 105t-189 46q-191 16 -281 79t-90 208q0 184 107.5 259t320.5 75q168 0 346 -53zM881 1014l-50 -164q-144 53 -301 53q-49 0 -81.5 -3t-62 -12t-46 -26t-26 -44.5t-9.5 -67.5q0 -65 51.5 -95.5t184.5 -42.5q198 -17 285 -86.5t87 -216.5 q0 -187 -104 -262.5t-317 -75.5q-84 0 -192.5 15.5t-180.5 40.5l47 163q55 -23 148 -39t173 -16q124 0 177 31.5t53 128.5q0 71 -51 105t-189 46q-191 16 -281 79t-90 208q0 184 108 259t321 75q168 0 346 -53z" />
<glyph horiz-adv-x="1169" d="M23 788v140h127v110h192v-110h485v110h193v-110h127v-140h-127v-788h-193v473h-485v-473h-192v788h-127zM342 641h485v147h-485v-147z" />
<glyph horiz-adv-x="1169" d="M825 473h-483v-473h-195v1038h195v-399h483v399h195v-1038h-195v473zM739 1163q-27 29 -79 84.5t-76 81.5q-24 -28 -152 -166h-194q42 44 124.5 132t124.5 132h199l258 -264h-205z" />
<glyph horiz-adv-x="1280" d="M342 1038v-1038h-192v1038h192zM1133 1038v-692q0 -375 -371 -375q-158 0 -273 47l46 170q98 -43 213 -43q40 0 71 8.5t59.5 29.5t44 64.5t15.5 106.5v684h195z" />
<glyph d="M342 1038v-1038h-192v1038h192zM-25 1190v151h543v-151h-543z" />
<glyph d="M342 1038v-1038h-192v1038h192zM240 25h75q-110 -67 -147 -114.5t-37 -111.5q0 -47 28.5 -67.5t104.5 -20.5q49 0 97.5 17t80.5 43l66 -115q-47 -35 -120 -53.5t-142 -18.5q-149 0 -207.5 44t-58.5 139q0 85 66 153.5t194 104.5z" />
<glyph d="M342 1038v-1038h-192v1038h192zM508 1423l106 -84q-70 -188 -229 -188q-39 0 -79.5 19t-69.5 42.5t-66.5 42.5t-69.5 19q-33 0 -60.5 -27t-53.5 -88l-95 92q47 83 98 124.5t120 41.5q43 0 84.5 -19t69 -41.5t62 -41.5t66.5 -19q39 0 65 28t52 99z" />
<glyph horiz-adv-x="790" d="M643 1038v-692q0 -375 -371 -375q-157 0 -272 47l45 170q98 -43 213 -43q40 0 71 8.5t60 29.5t44.5 64.5t15.5 106.5v684h194zM690 1163q-27 29 -79 84.5t-76 81.5q-24 -28 -152 -166h-195q42 44 125 132t125 132h199l258 -264h-205z" />
<glyph horiz-adv-x="1054" d="M342 1038v-1038h-192v1038h192zM1057 0h-236q-384 511 -479 549q111 83 444 489h236q-153 -187 -269 -311t-165 -160q46 -27 169 -174t300 -393zM715 -104l-213 -342h-156l146 342h223z" />
<glyph horiz-adv-x="851" d="M342 1038v-864h508v-174h-700v1038h192zM365 1163h-185l248 264h219z" />
<glyph horiz-adv-x="851" d="M342 1038v-864h508v-174h-700v1038h192zM516 1114h189l-115 -393h-117z" />
<glyph horiz-adv-x="851" d="M342 1038v-864h508v-174h-700v1038h192zM616 -104l-213 -342h-155l145 342h223z" />
<glyph horiz-adv-x="851" d="M342 1038v-864h508v-174h-700v1038h192zM584 741q61 0 81.5 -17.5t20.5 -78.5q0 -67 -20.5 -86.5t-81.5 -19.5t-83 20t-22 86q0 60 21.5 78t83.5 18z" />
<glyph horiz-adv-x="1175" d="M834 313v725h192v-1038h-192q-279 478 -492 750v-750h-195v1038h193q317 -414 494 -725zM616 1163h-184l248 264h219z" />
<glyph horiz-adv-x="1175" d="M834 313v725h192v-1038h-192q-279 478 -492 750v-750h-195v1038h193q317 -414 494 -725zM244 1427h202l156 -165l152 165h196l-250 -264h-198z" />
<glyph horiz-adv-x="1175" d="M834 313v725h192v-1038h-192q-279 478 -492 750v-750h-195v1038h193q317 -414 494 -725zM719 -104l-213 -342h-156l146 342h223z" />
<glyph horiz-adv-x="1202" d="M600 -29q-127 0 -214.5 26.5t-149.5 90t-90.5 170.5t-28.5 266q0 158 29 263.5t91 167t149 87t214 25.5q102 0 176.5 -16t134.5 -53t97 -99.5t56 -155t19 -219.5q0 -159 -28.5 -266t-90 -170.5t-149 -90t-215.5 -26.5zM600 901q-67 0 -110.5 -8.5t-78 -31.5t-53 -66.5 t-27.5 -109.5t-9 -165q0 -157 26.5 -238.5t84 -113t167.5 -31.5q83 0 133.5 16t84.5 59.5t47.5 116.5t13.5 191q0 124 -13 197.5t-48 115t-84.5 55t-133.5 13.5zM311 1427h144q0 -76 34.5 -102.5t112.5 -26.5q79 0 115.5 27t36.5 102h135q0 -270 -291 -270q-287 0 -287 270z " />
<glyph horiz-adv-x="1202" d="M600 -29q-127 0 -214.5 26.5t-149.5 90t-90.5 170.5t-28.5 266q0 158 29 263.5t91 167t149 87t214 25.5q102 0 176.5 -16t134.5 -53t97 -99.5t56 -155t19 -219.5q0 -159 -28.5 -266t-90 -170.5t-149 -90t-215.5 -26.5zM600 901q-67 0 -110.5 -8.5t-78 -31.5t-53 -66.5 t-27.5 -109.5t-9 -165q0 -157 26.5 -238.5t84 -113t167.5 -31.5q83 0 133.5 16t84.5 59.5t47.5 116.5t13.5 191q0 124 -13 197.5t-48 115t-84.5 55t-133.5 13.5zM457 1163h-144l181 264h188zM768 1163h-143l178 264h190z" />
<glyph horiz-adv-x="1202" d="M600 -29q-127 0 -214.5 26.5t-149.5 90t-90.5 170.5t-28.5 266q0 158 29 263.5t91 167t149 87t214 25.5q102 0 176.5 -16t134.5 -53t97 -99.5t56 -155t19 -219.5q0 -159 -28.5 -266t-90 -170.5t-149 -90t-215.5 -26.5zM600 901q-67 0 -110.5 -8.5t-78 -31.5t-53 -66.5 t-27.5 -109.5t-9 -165q0 -157 26.5 -238.5t84 -113t167.5 -31.5q83 0 133.5 16t84.5 59.5t47.5 116.5t13.5 191q0 124 -13 197.5t-48 115t-84.5 55t-133.5 13.5zM330 1190v151h542v-151h-542z" />
<glyph horiz-adv-x="1138" d="M711 1038q321 0 321 -303q0 -122 -68.5 -197.5t-224.5 -78.5q41 -10 72 -29t75 -68t99.5 -134.5t138.5 -227.5h-229q-70 128 -123 208.5t-98.5 123t-81.5 57t-82 14.5h-168v-403h-195v1038h564zM342 561h328q159 0 159 160q0 83 -36.5 118t-116.5 35h-334v-313zM543 1163 h-185l248 264h219z" />
<glyph horiz-adv-x="1138" d="M711 1038q321 0 321 -303q0 -122 -68.5 -197.5t-224.5 -78.5q41 -10 72 -29t75 -68t99.5 -134.5t138.5 -227.5h-229q-70 128 -123 208.5t-98.5 123t-81.5 57t-82 14.5h-168v-403h-195v1038h564zM342 561h328q159 0 159 160q0 83 -36.5 118t-116.5 35h-334v-313zM225 1427 h203l156 -165l151 165h197l-250 -264h-199z" />
<glyph horiz-adv-x="1138" d="M711 1038q321 0 321 -303q0 -122 -68.5 -197.5t-224.5 -78.5q41 -10 72 -29t75 -68t99.5 -134.5t138.5 -227.5h-229q-70 128 -123 208.5t-98.5 123t-81.5 57t-82 14.5h-168v-403h-195v1038h564zM342 561h328q159 0 159 160q0 83 -36.5 118t-116.5 35h-334v-313zM713 -104 l-213 -342h-156l145 342h224z" />
<glyph horiz-adv-x="1050" d="M82 432v152h108v133q0 350 457 350q194 0 340 -45l-45 -162q-46 17 -132 28t-163 11q-144 0 -203 -48.5t-59 -152.5v-114h311v-152h-311v-264h571v-168h-766v432h-108z" />
<glyph horiz-adv-x="1015" d="M946 866h-559q72 -118 238 -344q-15 -21 -51 -71.5t-50.5 -70.5t-42 -58t-43.5 -58.5t-36 -46t-37 -45.5h577v-172h-887v53q116 143 346 469q-219 315 -315 465v51h860v-172z" />
<glyph horiz-adv-x="989" d="M225 406v151h172v309h-383v172h959v-172h-383v-309h178v-151h-178v-406h-193v406h-172z" />
<glyph horiz-adv-x="989" d="M592 866v-866h-195v866h-383v172h959v-172h-381zM625 -104l-213 -342h-156l145 342h224z" />
<glyph horiz-adv-x="989" d="M592 866v-866h-195v866h-383v172h959v-172h-381zM143 1427h203l156 -165l151 165h197l-250 -264h-199z" />
<glyph horiz-adv-x="1155" d="M578 150q140 0 188.5 51.5t48.5 181.5v655h195v-641q0 -240 -96 -333t-336 -93q-239 0 -336 93.5t-97 332.5v641h193v-655q0 -129 50 -181t190 -52zM834 1423l106 -84q-70 -188 -229 -188q-39 0 -79.5 19t-69.5 42.5t-66.5 42.5t-69.5 19q-67 0 -115 -115l-94 92 q47 83 97.5 124.5t119.5 41.5q43 0 85 -19t69 -41.5t62 -41.5t67 -19q39 0 65 28t52 99z" />
<glyph horiz-adv-x="1155" d="M578 150q140 0 188.5 51.5t48.5 181.5v655h195v-641q0 -240 -96 -333t-336 -93q-239 0 -336 93.5t-97 332.5v641h193v-655q0 -129 50 -181t190 -52zM580 1513q118 0 175.5 -47t57.5 -149q0 -101 -58 -149t-175 -48t-175.5 48t-58.5 149q0 105 53.5 150.5t180.5 45.5z M580 1411q-62 0 -86.5 -23t-24.5 -73q0 -49 25 -73.5t86 -24.5q63 0 87.5 24.5t24.5 73.5q0 50 -24.5 73t-87.5 23z" />
<glyph horiz-adv-x="1155" d="M578 150q140 0 188.5 51.5t48.5 181.5v655h195v-641q0 -240 -96 -333t-336 -93q-239 0 -336 93.5t-97 332.5v641h193v-655q0 -129 50 -181t190 -52zM723 25h76q-110 -67 -147.5 -114.5t-37.5 -111.5q0 -46 29 -67t105 -21q49 0 97.5 17t80.5 43l65 -115 q-47 -35 -120 -53.5t-142 -18.5q-149 0 -207.5 44t-58.5 139q0 85 66 153.5t194 104.5z" />
<glyph horiz-adv-x="1155" d="M578 150q140 0 188.5 51.5t48.5 181.5v655h195v-641q0 -240 -96 -333t-336 -93q-239 0 -336 93.5t-97 332.5v641h193v-655q0 -129 50 -181t190 -52zM313 1190v151h543v-151h-543z" />
<glyph horiz-adv-x="1155" d="M578 150q140 0 188.5 51.5t48.5 181.5v655h195v-641q0 -240 -96 -333t-336 -93q-239 0 -336 93.5t-97 332.5v641h193v-655q0 -129 50 -181t190 -52zM295 1427h143q0 -76 35 -102.5t115 -26.5q78 0 113.5 27t35.5 102h135q0 -138 -72 -204t-216 -66q-289 0 -289 270z" />
<glyph horiz-adv-x="1155" d="M578 150q140 0 188.5 51.5t48.5 181.5v655h195v-641q0 -240 -96 -333t-336 -93q-239 0 -336 93.5t-97 332.5v641h193v-655q0 -129 50 -181t190 -52zM442 1163h-143l180 264h189zM754 1163h-144l178 264h191z" />
<glyph horiz-adv-x="983" d="M111 455v112h227q-184 256 -369 471h228q108 -126 305 -401q143 172 295 401h217q-168 -239 -355 -471h209v-112h-276v-133h276v-111h-276v-211h-193v211h-288v111h288v133h-288z" />
</font>
</defs>
</svg>
